
<svg width="46px" height="47px" viewBox="0 0 46 47" version="1.1" xmlns="http://www.w3.org/2000/svg" xmlns:xlink="http://www.w3.org/1999/xlink">
    <title>iycsjvvxme</title>
    <g id="wdlmjvwenw" stroke="none" stroke-width="1" fill="none" fill-rule="evenodd">
        <g id="fewyirozju" transform="translate(-261.000000, -165.000000)" fill="#FFFFFF">
            <g id="jqppscrvxv" transform="translate(261.000000, 165.883350)">
                <circle id="mxbgsdsyqw" fill-opacity="0.16" cx="23" cy="23" r="23"></circle>
                <g id="lxbvqedtze" transform="translate(15.000000, 15.116650)">
                    <rect id="jkzqtlipjn" opacity="0" x="0" y="0" width="16" height="16"></rect>
                    <path d="M13.7866667,0 C14.4336667,0 14.9576667,0.524 14.9576667,1.171 L14.9576667,1.171 L14.9576667,12.4317138 C14.9576667,12.9079938 14.7876973,13.36864 14.4783394,13.730773 L14.4783394,13.730773 L13.1386055,15.2990592 C12.7586242,15.7438636 12.202943,16 11.6179329,16 L11.6179329,16 L2.21333328,16 C1.56733328,16 1.04233328,15.476 1.04233328,14.829 L1.04233328,14.829 L1.04233328,1.171 C1.04233328,0.524 1.56733328,0 2.21333328,0 L2.21333328,0 Z M13.1638419,1.79444156 L2.83715811,1.79444156 L2.83715811,14.2065974 L11.7440506,14.2065974 L13.1638419,12.364368 L13.1638419,1.79444156 Z M8.14559997,7.8028989 C8.615042,7.8028989 8.99559997,8.18345686 8.99559997,8.6528989 C8.99559997,9.12234093 8.615042,9.5028989 8.14559997,9.5028989 L5.61849202,9.5028989 C5.14904998,9.5028989 4.76849202,9.12234093 4.76849202,8.6528989 C4.76849202,8.18345686 5.14904998,7.8028989 5.61849202,7.8028989 L8.14559997,7.8028989 Z M10.381508,4.13914288 C10.85095,4.13914288 11.231508,4.51970084 11.231508,4.98914288 C11.231508,5.45858492 10.85095,5.83914288 10.381508,5.83914288 L5.61849202,5.83914288 C5.14904998,5.83914288 4.76849202,5.45858492 4.76849202,4.98914288 C4.76849202,4.51970084 5.14904998,4.13914288 5.61849202,4.13914288 L10.381508,4.13914288 Z" id="yofxebmcxz"></path>
                </g>
            </g>
        </g>
    </g>
</svg>