<svg width="48" height="48" viewBox="0 0 48 48" fill="none" xmlns="http://www.w3.org/2000/svg">
<path d="M37.7141 25.3663C37.691 21.4319 39.4736 18.4666 43.0735 16.2801C41.0601 13.3956 38.0141 11.8092 33.9988 11.5034C30.1971 11.2034 26.0376 13.7187 24.5146 13.7187C22.905 13.7187 19.2244 11.6072 16.3284 11.6072C10.3517 11.6995 4 16.3724 4 25.8798C4 28.6893 4.51344 31.5911 5.54032 34.5794C6.91335 38.5139 11.8632 48.1539 17.0264 47.9981C19.7263 47.9347 21.6359 46.0828 25.1492 46.0828C28.5587 46.0828 30.324 47.9981 33.3354 47.9981C38.5448 47.9231 43.0216 39.16 44.3254 35.214C37.3391 31.9199 37.7141 25.5682 37.7141 25.3663Z" fill="black"/>
<path d="M31.6508 7.77085C34.5757 4.29791 34.3103 1.13649 34.2237 0C31.6392 0.149994 28.6509 1.75955 26.949 3.73832C25.0741 5.86131 23.9722 8.48621 24.2088 11.4457C27.001 11.6592 29.5509 10.2227 31.6508 7.77085Z" fill="black"/>
</svg>
