<svg width="47" height="46" viewBox="0 0 47 46" fill="none" xmlns="http://www.w3.org/2000/svg">
<g id="&#231;&#188;&#150;&#231;&#187;&#132;">
<circle id="&#230;&#164;&#173;&#229;&#156;&#134;&#229;&#189;&#162;" cx="23.5" cy="23" r="23" fill="#5B8EF4"/>
<g id="Icon / Basic">
<path id="Vector" d="M24.697 30.7885L24.6966 30.7889C24.5296 30.956 24.3029 31.05 24.0665 31.05C23.8302 31.05 23.6035 30.9561 23.4364 30.7888L23.4357 30.7881L15.4623 22.8236C15.453 22.8142 15.4477 22.8015 15.4477 22.7882V15.4C15.4477 15.1515 15.6492 14.95 15.8977 14.95H23.2862C23.2995 14.95 23.3122 14.9553 23.3216 14.9646L31.2934 22.9364C31.2936 22.9367 31.2938 22.9369 31.294 22.9371C31.6384 23.2843 31.6384 23.8442 31.294 24.1914C31.2938 24.1916 31.2936 24.1919 31.2934 24.1921L24.697 30.7885Z" stroke="white" stroke-width="1.9" stroke-linecap="round" stroke-linejoin="round"/>
<path id="Vector_2" fill-rule="evenodd" clip-rule="evenodd" d="M19.8 20.6C20.518 20.6 21.1 20.018 21.1 19.3C21.1 18.582 20.518 18 19.8 18C19.082 18 18.5 18.582 18.5 19.3C18.5 20.018 19.082 20.6 19.8 20.6Z" fill="white"/>
</g>
</g>
</svg>
