<svg width="20" height="20" viewBox="0 0 20 20" fill="none" xmlns="http://www.w3.org/2000/svg">
<path d="M9.99984 18.3334C12.301 18.3334 14.3843 17.4006 15.8924 15.8926C17.4004 14.3845 18.3332 12.3012 18.3332 10C18.3332 7.69885 17.4004 5.61552 15.8924 4.10746C14.3843 2.59943 12.301 1.66669 9.99984 1.66669C7.69867 1.66669 5.61534 2.59943 4.10728 4.10746C2.59925 5.61552 1.6665 7.69885 1.6665 10C1.6665 12.3012 2.59925 14.3845 4.10728 15.8926C5.61534 17.4006 7.69867 18.3334 9.99984 18.3334Z" stroke="#515A62" stroke-width="1.5" stroke-linejoin="round"/>
<path fill-rule="evenodd" clip-rule="evenodd" d="M10.0002 4.58331C10.5755 4.58331 11.0418 5.04969 11.0418 5.62498C11.0418 6.20027 10.5755 6.66665 10.0002 6.66665C9.42487 6.66665 8.9585 6.20027 8.9585 5.62498C8.9585 5.04969 9.42487 4.58331 10.0002 4.58331Z" fill="#515A62"/>
<path d="M10.2083 14.1666V8.33331H9.79167H9.375" stroke="#515A62" stroke-width="1.5" stroke-linecap="round" stroke-linejoin="round"/>
<path d="M8.75 14.1667H11.6667" stroke="#515A62" stroke-width="1.5" stroke-linecap="round" stroke-linejoin="round"/>
</svg>
