<svg width="25" height="24" viewBox="0 0 25 24" fill="none" xmlns="http://www.w3.org/2000/svg">
<path d="M19.5 5C21.1569 5 22.5 6.34315 22.5 8V16C22.5 17.6569 21.1569 19 19.5 19H5.5C3.84315 19 2.5 17.6569 2.5 16V8C2.5 6.34315 3.84315 5 5.5 5H19.5ZM5.5 3C2.73858 3 0.5 5.23858 0.5 8V16C0.5 18.7614 2.73858 21 5.5 21H19.5C22.2614 21 24.5 18.7614 24.5 16V8C24.5 5.23858 22.2614 3 19.5 3H5.5Z" fill="#515A62"/>
<path d="M6.63926 9.90498C7.41246 9.90498 8.03926 9.27818 8.03926 8.50498C8.03926 7.73178 7.41246 7.10498 6.63926 7.10498C5.86606 7.10498 5.23926 7.73178 5.23926 8.50498C5.23926 9.27818 5.86606 9.90498 6.63926 9.90498Z" fill="#515A62"/>
<path d="M6.63926 13.5747C7.41246 13.5747 8.03926 12.9479 8.03926 12.1747C8.03926 11.4015 7.41246 10.7747 6.63926 10.7747C5.86606 10.7747 5.23926 11.4015 5.23926 12.1747C5.23926 12.9479 5.86606 13.5747 6.63926 13.5747Z" fill="#515A62"/>
<path d="M10.5465 9.90498C11.3197 9.90498 11.9465 9.27818 11.9465 8.50498C11.9465 7.73178 11.3197 7.10498 10.5465 7.10498C9.77329 7.10498 9.14648 7.73178 9.14648 8.50498C9.14648 9.27818 9.77329 9.90498 10.5465 9.90498Z" fill="#515A62"/>
<path d="M10.5465 13.5747C11.3197 13.5747 11.9465 12.9479 11.9465 12.1747C11.9465 11.4015 11.3197 10.7747 10.5465 10.7747C9.77329 10.7747 9.14648 11.4015 9.14648 12.1747C9.14648 12.9479 9.77329 13.5747 10.5465 13.5747Z" fill="#515A62"/>
<path d="M14.4537 9.90498C15.2269 9.90498 15.8537 9.27818 15.8537 8.50498C15.8537 7.73178 15.2269 7.10498 14.4537 7.10498C13.6805 7.10498 13.0537 7.73178 13.0537 8.50498C13.0537 9.27818 13.6805 9.90498 14.4537 9.90498Z" fill="#515A62"/>
<path d="M14.4537 13.5747C15.2269 13.5747 15.8537 12.9479 15.8537 12.1747C15.8537 11.4015 15.2269 10.7747 14.4537 10.7747C13.6805 10.7747 13.0537 11.4015 13.0537 12.1747C13.0537 12.9479 13.6805 13.5747 14.4537 13.5747Z" fill="#515A62"/>
<path d="M18.3609 9.90498C19.1341 9.90498 19.7609 9.27818 19.7609 8.50498C19.7609 7.73178 19.1341 7.10498 18.3609 7.10498C17.5877 7.10498 16.9609 7.73178 16.9609 8.50498C16.9609 9.27818 17.5877 9.90498 18.3609 9.90498Z" fill="#515A62"/>
<path d="M18.3609 13.5747C19.1341 13.5747 19.7609 12.9479 19.7609 12.1747C19.7609 11.4015 19.1341 10.7747 18.3609 10.7747C17.5877 10.7747 16.9609 11.4015 16.9609 12.1747C16.9609 12.9479 17.5877 13.5747 18.3609 13.5747Z" fill="#515A62"/>
<path d="M6.87508 16.4254C6.88313 15.8732 7.33732 15.4321 7.88954 15.4401L17.1395 15.5749C17.6918 15.5829 18.1329 16.0371 18.1249 16.5893C18.1168 17.1416 17.6626 17.5827 17.1104 17.5747L7.86041 17.4399C7.30818 17.4318 6.86704 16.9777 6.87508 16.4254Z" fill="#515A62"/>
</svg>
