<svg width="21" height="20" viewBox="0 0 21 20" fill="none" xmlns="http://www.w3.org/2000/svg">
<path fill-rule="evenodd" clip-rule="evenodd" d="M20.5 10C20.5 4.47715 16.0228 0 10.5 0C4.97715 0 0.5 4.47715 0.5 10C0.5 15.5228 4.97715 20 10.5 20C16.0228 20 20.5 15.5228 20.5 10ZM2.125 10C2.125 5.37461 5.87461 1.625 10.5 1.625C15.1254 1.625 18.875 5.37461 18.875 10C18.875 14.6254 15.1254 18.375 10.5 18.375C5.87461 18.375 2.125 14.6254 2.125 10ZM6.29225 9.14889C5.8222 9.14889 5.44114 9.52995 5.44114 10C5.44114 10.4701 5.8222 10.8511 6.29225 10.8511H9.64889V14.2078C9.64889 14.6778 10.0299 15.0589 10.5 15.0589C10.9701 15.0589 11.3511 14.6778 11.3511 14.2078V10.8511H14.7078C15.1778 10.8511 15.5589 10.4701 15.5589 10C15.5589 9.52995 15.1778 9.14889 14.7078 9.14889H11.3511V5.79225C11.3511 5.3222 10.9701 4.94114 10.5 4.94114C10.0299 4.94114 9.64889 5.3222 9.64889 5.79225V9.14889H6.29225Z" fill="white"/>
</svg>
