<svg width="48" height="48" viewBox="0 0 48 48" fill="none" xmlns="http://www.w3.org/2000/svg">
<g clip-path="url(#clip0_3275_6318)">
<circle cx="24" cy="24" r="23.5" fill="#E7F0FC" stroke="#5B8EF4"/>
<path d="M28.5045 23.8616C29.9279 23.8616 31.0817 22.7077 31.0817 21.2844C31.0817 19.861 29.9279 18.7071 28.5045 18.7071C27.0811 18.7071 25.9272 19.861 25.9272 21.2844C25.9272 22.7077 27.0811 23.8616 28.5045 23.8616Z" fill="#5B8EF4"/>
<path d="M21.154 23.6034C23.0518 23.6034 24.5903 22.0649 24.5903 20.1671C24.5903 18.2693 23.0518 16.7309 21.154 16.7309C19.2562 16.7309 17.7178 18.2693 17.7178 20.1671C17.7178 22.0649 19.2562 23.6034 21.154 23.6034Z" fill="#5B8EF4"/>
<path fill-rule="evenodd" clip-rule="evenodd" d="M29.3216 29.6111C29.3223 29.5959 29.3227 29.5806 29.3227 29.5652V29.0951C29.3227 27.2789 28.3543 25.6889 26.9058 24.8132C27.1226 24.7772 27.3452 24.7585 27.5722 24.7585H29.4366C31.6699 24.7585 33.4804 26.569 33.4804 28.8024C33.4804 29.249 33.1184 29.6111 32.6717 29.6111H29.3216Z" fill="#5B8EF4"/>
<path d="M14.5195 30.2691C14.5195 30.8214 14.9672 31.2691 15.5195 31.2691H26.7887C27.341 31.2691 27.7887 30.8214 27.7887 30.2691V29.7991C27.7887 27.0377 25.5501 24.7991 22.7887 24.7991H19.5195C16.7581 24.7991 14.5195 27.0377 14.5195 29.7991L14.5195 30.2691Z" fill="#5B8EF4"/>
</g>
<defs>
<clipPath id="clip0_3275_6318">
<rect width="48" height="48" fill="white"/>
</clipPath>
</defs>
</svg>
