
<svg width="16px" height="16px" viewBox="0 0 16 16" version="1.1" xmlns="http://www.w3.org/2000/svg" xmlns:xlink="http://www.w3.org/1999/xlink">
    <title>tqsruqxgrb</title>
    <g id="zixfkibptt" stroke="none" stroke-width="1" fill="none" fill-rule="evenodd">
        <g id="jbwieflptw">
            <rect id="zwfhqolrnm" x="0" y="0" width="16" height="16"></rect>
            <g id="kppwtfuiie" transform="translate(0.599991, 0.599991)" fill="#515A62" fill-rule="nonzero">
                <path d="M12.7527264,0.351282832 C13.0556893,0.04831954 13.4972675,-0.0700011279 13.9111226,0.0408911671 C14.3249776,0.151783433 14.6482351,0.475041331 14.7591272,0.888896648 C14.8700192,1.30275185 14.7516988,1.74433011 14.4487358,2.04729347 L14.4487358,2.04729347 L9.09600911,7.40000911 L14.4487361,12.7527432 C14.8858532,13.1898609 14.9149943,13.8804625 14.5361595,14.3513781 L14.5361595,14.3513781 L14.4487361,14.4487536 C13.980396,14.9170943 13.2210665,14.9170943 12.7527264,14.4487536 L12.7527264,14.4487536 L7.40000911,9.09600911 L2.04729182,14.4487536 C1.61017441,14.8858716 0.919572895,14.9150127 0.448657616,14.5361772 L0.448657616,14.5361772 L0.351282182,14.4487536 C-0.117057598,13.9804132 -0.117057613,13.2210836 0.351281931,12.7527434 L0.351281931,12.7527434 L5.70400911,7.40000911 L0.351282159,2.04729324 C0.0819819494,1.77799268 -0.0414280067,1.39916906 0.0123552655,1.02764699 L0.0123552655,1.02764699 L0.0408910637,0.888896648 C0.151783118,0.475041331 0.475040596,0.151783433 0.888895626,0.0408911671 C1.30275077,-0.0700011279 1.74432894,0.04831954 2.04729184,0.351282832 L2.04729184,0.351282832 L7.40000911,5.70400911 Z" id="pzlhsenkqd"></path>
            </g>
        </g>
    </g>
</svg>