
<svg width="26px" height="26px" viewBox="0 0 26 26" version="1.1" xmlns="http://www.w3.org/2000/svg" xmlns:xlink="http://www.w3.org/1999/xlink">
    <title>mkokwgrdlj</title>
    <g id="tmvfuyetep" stroke="none" stroke-width="1" fill="none" fill-rule="evenodd">
        <g id="hqcnuglcsh" transform="translate(-16.000000, -187.000000)">
            <g id="qzrkwweheo" transform="translate(0.000000, 168.000000)">
                <g id="cvommixqsi" transform="translate(16.000000, 19.000000)">
                    <rect id="hiuicqxoyd" fill="#31B939" x="0" y="0" width="26" height="26" rx="6"></rect>
                    <path d="M12.9998662,5.83108075 C15.1760589,5.83108075 16.9355338,7.61756518 16.9355338,9.78218239 C16.9355338,11.9467996 15.1722004,13.702416 12.9998662,13.702416 C10.827532,13.702416 9.06419851,11.9467996 9.06419851,9.78218239 C9.06419851,7.61756518 10.8236735,5.83108075 12.9998662,5.83108075 Z M18.7987622,20.1689192 L7.20097015,20.1689192 C6.37254303,20.1689192 5.70097015,19.4973464 5.70097015,18.6689192 C5.70097015,18.5065702 5.72732623,18.3452979 5.77900993,18.1913953 L6.10053483,17.2339656 C6.68939848,15.4804605 8.33244219,14.299012 10.1821829,14.299012 L15.8175495,14.299012 C17.6672901,14.299012 19.3103338,15.4804605 19.8991975,17.2339656 L20.2207224,18.1913953 C20.4844516,18.9767222 20.0616131,19.8271503 19.2762861,20.0908795 C19.1223835,20.1425632 18.9611112,20.1689192 18.7987622,20.1689192 Z" id="jxerymdyuz" fill="#FFFFFF" fill-rule="nonzero"></path>
                </g>
            </g>
        </g>
    </g>
</svg>