<svg width="21" height="20" viewBox="0 0 21 20" fill="none" xmlns="http://www.w3.org/2000/svg">
<path fill-rule="evenodd" clip-rule="evenodd" d="M0.75 3.95523C0.75 3.00132 1.52333 2.22803 2.47727 2.22803H18.0227C18.9767 2.22803 19.75 3.00132 19.75 3.95523V4.7176V16.0456C19.75 16.9995 18.9767 17.7728 18.0227 17.7728H2.47727C1.52333 17.7728 0.75 16.9995 0.75 16.0456V4.7176V3.95523ZM2.47727 6.62479V15.182C2.47727 15.659 2.86394 16.0456 3.34091 16.0456H17.1591C17.6361 16.0456 18.0227 15.659 18.0227 15.182V6.62479L11.4906 10.1876C10.7173 10.6094 9.78268 10.6094 9.00936 10.1876L2.47727 6.62479Z" fill="#515A62"/>
</svg>
