
<svg width="48px" height="48px" viewBox="0 0 48 48" version="1.1" xmlns="http://www.w3.org/2000/svg" xmlns:xlink="http://www.w3.org/1999/xlink">
    <title>cfqdrgpdnt</title>
    <g id="xrghwdsfvd" stroke="none" stroke-width="1" fill="none" fill-rule="evenodd">
        <g id="iecystqwuz" transform="translate(-32.000000, -92.000000)">
            <g id="eghchdveci" transform="translate(32.000000, 92.000000)">
                <rect id="ekqcdwomqp" x="0" y="0" width="48" height="48"></rect>
                <path d="M23.6462567,32.8892045 C23.8259358,33.1338068 24.1740642,33.1338068 24.3537433,32.8892045 L30.6425134,24.4355114 C30.8727273,24.1252841 30.6649733,23.6659091 30.2887701,23.6659091 L26.1280749,23.6659091 L26.1280749,3.47727273 C26.1280749,3.21477273 25.9259358,3 25.678877,3 L22.309893,3 C22.0628342,3 21.8606952,3.21477273 21.8606952,3.47727273 L21.8606952,23.6599432 L17.7112299,23.6599432 C17.3350267,23.6599432 17.1272727,24.1193182 17.3574866,24.4295455 L23.6462567,32.8892045 Z M44.5508021,30.8011364 L41.1818182,30.8011364 C40.9347594,30.8011364 40.7326203,31.0159091 40.7326203,31.2784091 L40.7326203,40.4659091 L7.26737968,40.4659091 L7.26737968,31.2784091 C7.26737968,31.0159091 7.06524064,30.8011364 6.81818182,30.8011364 L3.44919786,30.8011364 C3.20213904,30.8011364 3,31.0159091 3,31.2784091 L3,43.0909091 C3,44.146875 3.80294118,45 4.79679144,45 L43.2032086,45 C44.1970588,45 45,44.146875 45,43.0909091 L45,31.2784091 C45,31.0159091 44.797861,30.8011364 44.5508021,30.8011364 Z" id="guudowouzb" fill="#515A62"></path>
            </g>
        </g>
    </g>
</svg>