<?xml version="1.0" encoding="UTF-8"?>
<svg width="80px" height="80px" viewBox="0 0 80 80" version="1.1" xmlns="http://www.w3.org/2000/svg" xmlns:xlink="http://www.w3.org/1999/xlink">
    <title>master3</title>
    <g id="icon" stroke="none" stroke-width="1" fill="none" fill-rule="evenodd">
        <g id="Special" transform="translate(-350.000000, -213.000000)" fill-rule="nonzero">
            <g id="master3" transform="translate(350.000000, 213.000000)">
                <circle id="shape" fill="#BBE5FF" cx="40" cy="40" r="40"></circle>
                <g id="shape" transform="translate(16.591255, 13.407411)">
                    <path d="M9.94474483,1.08058923 C10.6167448,3.44858923 12.0007448,6.64058923 14.7767448,8.64858923 L9.33674483,14.8085892 C9.33674483,14.8085892 5.99274483,8.12058923 8.05674483,1.08058923 C8.32074483,0.168589233 9.69674483,0.168589233 9.95274483,1.08058923 L9.94474483,1.08058923 Z" fill="#849DF7"></path>
                    <path d="M36.6807448,0.608589233 C35.8167448,2.91258923 34.1847448,5.98458923 31.2567448,7.76058923 L36.1847448,14.3365892 C36.1847448,14.3365892 40.0567448,7.93658923 38.5687448,0.760589233 C38.3767448,-0.167410767 37.0087448,-0.279410767 36.6807448,0.608589233 Z" fill="#849DF7"></path>
                    <path d="M43.0007448,32.7365892 C38.8487448,30.7685892 39.0967448,25.2325892 39.3127448,22.2245892 C39.3527448,21.8805892 39.3687448,21.5285892 39.3847448,21.1685892 C39.4007448,20.9125892 39.4087448,20.6885892 39.4007448,20.5285892 C39.4007448,11.6165892 32.1767448,4.39258923 23.2647448,4.39258923 C14.3527448,4.39258923 7.64074483,11.1205892 7.15274483,19.6005892 L7.12074483,19.6405892 C7.12074483,19.6405892 7.12074483,35.2245892 2.62474483,40.7285892 C-1.22325517,45.4405892 -0.615255168,49.1685892 2.98474483,50.6805892 C6.58474483,52.1925892 13.7207448,51.3365892 16.4007448,47.7525892 C19.3207448,43.8325892 22.8567448,44.9125892 23.8487448,47.0405892 C24.8407448,49.1685892 26.0967448,53.5285892 31.0407448,53.1685892 C35.9847448,52.8165892 38.1447448,48.6405892 37.4247448,45.0805892 C36.7047448,41.5205892 39.8967448,41.5125892 43.6247448,40.9045892 C47.2727448,40.3125892 48.6567448,35.4165892 42.9927448,32.7285892 L43.0007448,32.7365892 Z" fill="#4D75F4"></path>
                    <circle fill="#FFFFFF" cx="24.4327448" cy="18.2325892" r="6.824"></circle>
                    <circle fill="#383838" cx="26.2567448" cy="18.8085892" r="3.6"></circle>
                    <circle fill="#FFFFFF" cx="27.9367448" cy="18.2325892" r="1"></circle>
                    <path d="M15.2567448,34.9205892 C15.2567448,34.9205892 12.6647448,29.8485892 18.1367448,30.3125892 C23.4007448,30.7605892 24.2007448,32.3285892 28.6807448,29.9685892 C33.1687448,27.6005892 34.3447448,28.9365892 34.0567448,31.7925892 C33.7687448,34.6485892 28.4407448,38.8405892 23.4087448,38.7445892 C18.3767448,38.6485892 16.2247448,36.6645892 15.2567448,34.9285892 L15.2567448,34.9205892 Z" fill="#365299"></path>
                    <path d="M25.1847448,33.4485892 C25.7767448,33.4485892 26.2567448,32.9685892 26.2567448,32.3765892 L26.2567448,30.9845892 C25.4647448,31.2085892 24.7847448,31.2645892 24.1127448,31.2325892 L24.1127448,32.3765892 C24.1127448,32.9685892 24.5927448,33.4485892 25.1847448,33.4485892 L25.1847448,33.4485892 Z" fill="#FFFFFF"></path>
                    <path d="M21.1127448,30.7205892 L21.1127448,31.9765892 C21.1127448,32.5685892 21.5927448,33.0485892 22.1847448,33.0485892 C22.7767448,33.0485892 23.2567448,32.5685892 23.2567448,31.9765892 L23.2567448,31.1285892 C22.6167448,31.0325892 21.9207448,30.8805892 21.1127448,30.7285892 L21.1127448,30.7205892 Z" fill="#FFFFFF"></path>
                    <path d="M6.52074483,28.4485892 C6.52074483,28.4485892 4.28874483,33.4405892 1.50474483,35.3605892 C-0.727255168,36.8965892 1.03274483,43.8165892 6.94474483,39.9125892 C12.8567448,36.0085892 6.52074483,28.4485892 6.52074483,28.4485892 L6.52074483,28.4485892 Z" fill="#365299"></path>
                    <path d="M43.0007448,32.7365892 C41.9607448,32.2405892 41.1927448,31.5205892 40.6327448,30.6725892 L40.6327448,30.6725892 C40.6327448,30.6725892 42.3367448,33.4245892 41.2167448,35.7445892 C40.0967448,38.0645892 39.5687448,41.5205892 41.6007448,41.2165892 C42.2407448,41.1125892 42.9287448,41.0245892 43.6327448,40.9125892 C47.2807448,40.3205892 48.6647448,35.4245892 43.0007448,32.7365892 L43.0007448,32.7365892 Z" fill="#365299"></path>
                    <path d="M19.1607448,38.0405892 C20.2887448,38.4405892 21.6807448,38.7045892 23.4327448,38.7445892 C25.4327448,38.7845892 27.4727448,38.1365892 29.2247448,37.1765892 C28.3047448,36.1445892 26.5127448,35.4405892 24.4567448,35.4405892 C21.8647448,35.4405892 19.6967448,36.5525892 19.1607448,38.0405892 L19.1607448,38.0405892 Z" fill="#AA91F9"></path>
                </g>
            </g>
        </g>
    </g>
</svg>