<svg width="18" height="18" viewBox="0 0 18 18" fill="none" xmlns="http://www.w3.org/2000/svg">
<path d="M4.39217 0.666992C3.57998 0.666992 2.92158 1.3254 2.92158 2.13758V15.8631C2.92158 16.6753 3.57999 17.3337 4.39217 17.3337H13.6079C14.4201 17.3337 15.0785 16.6753 15.0785 15.8631V2.13758C15.0785 1.3254 14.4201 0.666992 13.6079 0.666992H4.39217ZM4.3913 3.12121C4.3913 2.57975 4.83024 2.14082 5.37169 2.14082H12.6266C13.1681 2.14082 13.607 2.57975 13.607 3.12121V12.4316C13.607 12.973 13.1681 13.412 12.6266 13.412H5.37169C4.83024 13.412 4.3913 12.973 4.3913 12.4316V3.12121ZM7.77401 15.1172C7.77401 14.7653 8.05932 14.48 8.41127 14.48H9.58775C9.93969 14.48 10.225 14.7653 10.225 15.1172C10.225 15.4692 9.93969 15.7545 9.58775 15.7545H8.41127C8.05932 15.7545 7.77401 15.4692 7.77401 15.1172Z" fill="#515A62"/>
</svg>
