
<svg width="16px" height="16px" viewBox="0 0 16 16" version="1.1" xmlns="http://www.w3.org/2000/svg" xmlns:xlink="http://www.w3.org/1999/xlink">
    <title>dhwysojdsr</title>
    <defs>
        <filter id="lgipjwceiw">
            <feColorMatrix in="SourceGraphic" type="matrix" values="0 0 0 0 0.847059 0 0 0 0 0.862745 0 0 0 0 0.886275 0 0 0 1.000000 0"></feColorMatrix>
        </filter>
    </defs>
    <g id="koxoxbsele" stroke="none" stroke-width="1" fill="none" fill-rule="evenodd">
        <g transform="translate(-28.000000, -112.000000)" id="rnhvyhqubi">
            <g transform="translate(0.000000, 44.000000)">
                <g id="wpvmbvosxq" transform="translate(16.000000, 58.000000)">
                    <g id="ubpirryvew" transform="translate(12.000000, 10.000000)">
                        <rect id="pybldkmxkx" x="0" y="0" width="16" height="16"></rect>
                        <g filter="url(#filter-1)" id="whogllbhje">
                            <g transform="translate(1.000000, 0.500000)">
                                <path d="M6.66800892,11.932088 C9.57535977,11.932088 11.932088,9.57535977 11.932088,6.66800892 C11.932088,3.76065806 9.57535977,1.40392988 6.66800892,1.40392988 C3.76065806,1.40392988 1.40392988,3.76065806 1.40392988,6.66800892 C1.40392988,9.57535977 3.76065806,11.932088 6.66800892,11.932088 Z M11.551495,11.2077507 L13.712898,13.3698047 C13.9837102,13.6471584 13.9784074,14.0915346 13.7010538,14.3623468 C13.4237002,14.6331591 12.9793239,14.6278563 12.7085117,14.3505027 L10.4913095,12.1310701 C9.37145866,12.9169758 8.03611311,13.3376382 6.66800892,13.3354914 C2.98473281,13.3354914 0,10.3507586 0,6.66800892 C0,2.98525922 2.98525922,0 6.66800892,0 C10.3502322,0 13.3354914,2.98525922 13.3354914,6.66800892 C13.3354914,8.42147365 12.6585309,10.017016 11.551495,11.2077507 Z" id="bcucufgiqo" fill="#8F97A6"></path>
                            </g>
                        </g>
                    </g>
                </g>
            </g>
        </g>
    </g>
</svg>