<svg width="26" height="28" viewBox="0 0 26 28" fill="none" xmlns="http://www.w3.org/2000/svg">
<path fill-rule="evenodd" clip-rule="evenodd" d="M24.4724 20.1326C24.4131 20.6254 24.012 20.9797 23.5619 20.9369C23.1345 20.8899 22.7956 20.4476 22.8387 19.9358C22.8912 19.3309 22.9517 18.7259 23.0123 18.1209L23.0123 18.1206L23.0124 18.1205V18.1205C23.0785 17.4597 23.1447 16.7989 23.2003 16.1381C23.5356 12.101 22.4879 8.59841 19.7718 5.80186C18.0881 4.07012 16.079 3.04401 13.753 2.88089C10.0016 2.61759 6.95903 4.14679 4.67215 7.40413C3.51835 9.04835 2.8905 10.9609 2.71826 13.041C2.71233 13.1125 2.70708 13.1841 2.70182 13.2557L2.70182 13.2557L2.70182 13.2557L2.70182 13.2557C2.68753 13.4504 2.67325 13.645 2.64561 13.8367C2.57395 14.3369 2.16996 14.6595 1.71337 14.5962C1.24297 14.5326 0.967839 14.1901 1.00301 13.683C1.1105 12.1411 1.34619 10.6293 1.89679 9.19303C3.01805 6.26735 4.80462 3.96884 7.39425 2.55899C11.6511 0.241315 15.8423 0.476772 19.7576 3.4737C22.6477 5.68504 24.2916 8.8393 24.813 12.6742C24.8882 13.2387 24.9176 13.81 24.9485 14.4121V14.4122C24.9635 14.704 24.9789 15.003 25 15.312C24.9514 15.7586 24.9025 16.2125 24.853 16.6716C24.731 17.8046 24.6055 18.9691 24.4724 20.1326ZM14.5951 26.3568C14.3666 26.8516 14.0053 27.0747 13.5866 26.9778C13.2348 26.8961 12.9344 26.5398 12.9344 26.1228C12.9344 25.8924 13.007 25.6443 13.103 25.4356C13.9024 23.7051 14.516 21.8781 14.9313 19.9915C15.3353 18.157 15.5138 16.2904 15.5533 14.4071C15.5861 12.8753 14.4425 11.5259 13.0928 11.4774C11.6396 11.4268 10.4348 12.6348 10.3973 14.2411C10.3316 17.0539 9.83195 19.7557 8.72089 22.2958C8.38742 23.0584 7.98611 23.7861 7.58574 24.5121L7.58572 24.5122L7.58537 24.5128C7.51701 24.6368 7.44867 24.7607 7.38071 24.8847C7.14568 25.3141 6.66279 25.4066 6.27688 25.1524C5.87979 24.8909 5.74929 24.3205 5.99747 23.842C6.10724 23.6312 6.22504 23.4254 6.34281 23.2197L6.34284 23.2196L6.34285 23.2196L6.34285 23.2196C6.46594 23.0045 6.58901 22.7895 6.7029 22.5689C7.62692 20.7785 8.21762 18.8536 8.51084 16.8275C8.62665 16.0265 8.65067 15.2065 8.67451 14.3927L8.6775 14.291C8.74324 12.0424 10.0463 10.183 11.94 9.67406C14.0563 9.10549 16.1358 10.3305 16.9477 12.6156C17.2439 13.4482 17.3241 14.3069 17.2524 15.2024C17.1078 19.1245 16.222 22.8427 14.5951 26.3568ZM6.5021 14.9626C6.54056 14.1676 6.5971 13.3589 6.76803 12.5892C7.48957 9.34132 10.0171 7.11225 12.9295 7.15167C13.0242 7.1586 13.1202 7.16003 13.2162 7.16147C13.421 7.16454 13.6258 7.16761 13.8174 7.22401C14.5468 7.44102 15.2683 7.6942 15.9823 7.96619C16.2758 8.07903 16.5444 8.17416 16.837 8.0067C17.119 7.84502 17.2554 7.57267 17.2613 7.23884C17.2682 6.83701 17.0713 6.56285 16.7541 6.37079C15.2233 5.44596 13.5869 5.12406 11.8664 5.38375C9.74391 5.70385 7.98659 6.77986 6.64246 8.6212C5.45711 10.247 4.90092 12.1234 4.83255 14.2056C4.79461 15.1854 4.69178 16.1608 4.52487 17.1241C4.29214 18.5104 3.71129 19.7553 3.0818 20.9724C2.80831 21.5008 2.92336 21.9772 3.35299 22.2604C3.76323 22.5309 4.23823 22.3837 4.51566 21.8903C5.70956 19.7662 6.38113 17.464 6.5021 14.9626ZM21.0659 15.3058C20.9588 18.4753 20.4093 21.6078 19.4368 24.5936C19.2642 25.127 18.8451 25.3802 18.3405 25.2576C17.9766 25.169 17.7455 24.8522 17.7794 24.4417C17.7992 24.2124 17.8446 23.9867 17.9145 23.7696C18.5134 21.8889 18.9559 19.9593 19.1712 17.9827L19.1848 17.8579V17.8579C19.3663 16.1922 19.5489 14.517 19.2731 12.837C19.1325 11.9503 18.8225 11.1066 18.3635 10.3616C18.189 10.0791 18.0697 9.78291 18.1811 9.44221C18.2797 9.13803 18.4769 8.92934 18.7751 8.87581C19.0841 8.82047 19.3418 8.92934 19.5232 9.21905C20.299 10.4575 20.8112 11.8149 20.9735 13.3112C21.0229 13.765 21.0347 14.2241 21.0465 14.6833C21.0518 14.891 21.0571 15.0986 21.0659 15.3058ZM10.8052 25.8858C11.1442 25.2289 11.4835 24.5716 11.7839 23.8934C13.0557 21.0154 13.6872 17.9661 13.7618 14.7702C13.7618 14.7088 13.7624 14.6473 13.7631 14.5859C13.7646 14.441 13.7661 14.2964 13.7592 14.1528C13.7388 13.6794 13.4281 13.3412 12.9985 13.3148C12.4893 13.2837 12.1369 13.6902 12.1225 14.3413C12.0686 16.7197 11.728 19.0432 10.9864 21.2856C10.5134 22.715 9.88688 24.0608 9.15614 25.3513C8.85438 25.8844 8.97206 26.4403 9.40366 26.7102C9.85269 26.9908 10.3162 26.8378 10.5985 26.287C10.6672 26.1532 10.7362 26.0195 10.8052 25.8858Z" fill="#5B8EF4"/>
<path d="M23.5619 20.9369L23.54 21.1358L23.5429 21.136L23.5619 20.9369ZM24.4724 20.1326L24.671 20.1565L24.6711 20.1553L24.4724 20.1326ZM22.8387 19.9358L22.6394 19.9185L22.6394 19.919L22.8387 19.9358ZM23.0123 18.1209L22.8133 18.1008L22.8133 18.101L23.0123 18.1209ZM23.0123 18.1206L22.8147 18.0876L22.8134 18.1004L23.0123 18.1206ZM23.0124 18.1205L23.2096 18.1534L23.2124 18.1371V18.1205H23.0124ZM23.0124 18.1205L22.8133 18.1006L22.8124 18.1105V18.1205H23.0124ZM23.2003 16.1381L23.3996 16.1549L23.3996 16.1547L23.2003 16.1381ZM19.7718 5.80186L19.9152 5.66252L19.9152 5.66245L19.7718 5.80186ZM13.753 2.88089L13.7389 3.0804L13.739 3.0804L13.753 2.88089ZM4.67215 7.40413L4.50846 7.28921L4.50844 7.28925L4.67215 7.40413ZM2.71826 13.041L2.91757 13.0575L2.91757 13.0575L2.71826 13.041ZM2.70182 13.2557L2.90114 13.2723L2.90129 13.2703L2.70182 13.2557ZM2.70182 13.2557L2.5025 13.2391L2.50236 13.2411L2.70182 13.2557ZM2.64561 13.8367L2.44766 13.8082L2.44763 13.8083L2.64561 13.8367ZM1.71337 14.5962L1.74083 14.3981L1.74019 14.398L1.71337 14.5962ZM1.00301 13.683L0.803496 13.6691L0.803491 13.6691L1.00301 13.683ZM1.89679 9.19303L2.08354 9.26462L2.08355 9.2646L1.89679 9.19303ZM7.39425 2.55899L7.48988 2.73465L7.48989 2.73465L7.39425 2.55899ZM19.7576 3.4737L19.6361 3.63251L19.6361 3.63253L19.7576 3.4737ZM24.813 12.6742L25.0112 12.6478L25.0111 12.6473L24.813 12.6742ZM24.9485 14.4121H25.1488L25.1483 14.4019L24.9485 14.4121ZM24.9485 14.4122H24.7483L24.7488 14.4224L24.9485 14.4122ZM25 15.312L25.1988 15.3337L25.2007 15.316L25.1995 15.2984L25 15.312ZM24.853 16.6716L25.0519 16.693L24.853 16.6716ZM13.5866 26.9778L13.5413 27.1726L13.5415 27.1727L13.5866 26.9778ZM14.5951 26.3568L14.4136 26.2728L14.4135 26.273L14.5951 26.3568ZM13.103 25.4356L12.9215 25.3517L12.9213 25.352L13.103 25.4356ZM14.9313 19.9915L14.736 19.9485L14.736 19.9485L14.9313 19.9915ZM15.5533 14.4071L15.3533 14.4028L15.3533 14.4029L15.5533 14.4071ZM13.0928 11.4774L13.1 11.2776L13.0998 11.2775L13.0928 11.4774ZM10.3973 14.2411L10.5973 14.2457V14.2457L10.3973 14.2411ZM8.72089 22.2958L8.53765 22.2156L8.53764 22.2157L8.72089 22.2958ZM7.58574 24.5121L7.75854 24.6129L7.76087 24.6087L7.58574 24.5121ZM7.58572 24.5122L7.41291 24.4114L7.41044 24.4159L7.58572 24.5122ZM7.58537 24.5128L7.7605 24.6094L7.76065 24.6091L7.58537 24.5128ZM7.38071 24.8847L7.20531 24.7886L7.20528 24.7887L7.38071 24.8847ZM6.27688 25.1524L6.38691 24.9854L6.38688 24.9853L6.27688 25.1524ZM5.99747 23.842L5.82008 23.7496L5.81993 23.7499L5.99747 23.842ZM6.34281 23.2197L6.51639 23.319L6.51646 23.3189L6.34281 23.2197ZM6.34284 23.2196L6.51675 23.319L6.52172 23.3091L6.34284 23.2196ZM6.34285 23.2196L6.169 23.1201L6.16397 23.1301L6.34285 23.2196ZM6.7029 22.5689L6.52517 22.4771L6.52517 22.4771L6.7029 22.5689ZM8.51084 16.8275L8.70878 16.8561L8.70878 16.8561L8.51084 16.8275ZM8.67451 14.3927L8.4746 14.3869L8.4746 14.3869L8.67451 14.3927ZM8.6775 14.291L8.87741 14.2968L8.87741 14.2968L8.6775 14.291ZM11.94 9.67406L11.8881 9.48091L11.8881 9.48091L11.94 9.67406ZM16.9477 12.6156L16.7592 12.6826L16.7593 12.6827L16.9477 12.6156ZM17.2524 15.2024L17.0529 15.1865L17.0525 15.1951L17.2524 15.2024ZM6.76803 12.5892L6.57279 12.5459L6.57279 12.5459L6.76803 12.5892ZM6.5021 14.9626L6.30233 14.953L6.30233 14.953L6.5021 14.9626ZM12.9295 7.15167L12.9441 6.95185L12.9322 6.95169L12.9295 7.15167ZM13.2162 7.16147L13.2192 6.96149L13.2162 7.16147ZM13.8174 7.22401L13.8744 7.03231L13.8738 7.03215L13.8174 7.22401ZM15.9823 7.96619L16.0541 7.77951L16.0535 7.77929L15.9823 7.96619ZM16.837 8.0067L16.9363 8.18027L16.9364 8.18021L16.837 8.0067ZM17.2613 7.23884L17.4613 7.24238L17.4613 7.24227L17.2613 7.23884ZM16.7541 6.37079L16.8577 6.19971L16.8575 6.19961L16.7541 6.37079ZM11.8664 5.38375L11.8963 5.58152L11.8963 5.58151L11.8664 5.38375ZM6.64246 8.6212L6.48092 8.50328L6.48085 8.50337L6.64246 8.6212ZM4.83255 14.2056L5.0324 14.2134L5.03244 14.2122L4.83255 14.2056ZM4.52487 17.1241L4.3278 17.0899L4.32763 17.0909L4.52487 17.1241ZM3.0818 20.9724L3.25942 21.0643L3.25945 21.0643L3.0818 20.9724ZM3.35299 22.2604L3.4631 22.0934L3.46306 22.0934L3.35299 22.2604ZM4.51566 21.8903L4.68999 21.9884L4.69001 21.9883L4.51566 21.8903ZM19.4368 24.5936L19.2466 24.5316L19.2465 24.532L19.4368 24.5936ZM21.0659 15.3058L21.2658 15.3126L21.2661 15.305L21.2657 15.2974L21.0659 15.3058ZM18.3405 25.2576L18.2932 25.4519L18.2933 25.452L18.3405 25.2576ZM17.7794 24.4417L17.5801 24.4244L17.5801 24.4252L17.7794 24.4417ZM17.9145 23.7696L18.1049 23.831L18.1051 23.8303L17.9145 23.7696ZM19.1712 17.9827L18.9724 17.961L19.1712 17.9827ZM19.1848 17.8579L19.3836 17.8795L19.3848 17.8687V17.8579H19.1848ZM19.1848 17.8579L18.986 17.8362L18.9848 17.847V17.8579H19.1848ZM19.2731 12.837L19.0756 12.8683L19.0757 12.8694L19.2731 12.837ZM18.3635 10.3616L18.5338 10.2567L18.5337 10.2565L18.3635 10.3616ZM18.1811 9.44221L18.3712 9.50438L18.3713 9.50389L18.1811 9.44221ZM18.7751 8.87581L18.7398 8.67894L18.7397 8.67895L18.7751 8.87581ZM19.5232 9.21905L19.3537 9.32521L19.3538 9.32522L19.5232 9.21905ZM20.9735 13.3112L20.7747 13.3327L20.7747 13.3328L20.9735 13.3112ZM21.0465 14.6833L20.8465 14.6884V14.6884L21.0465 14.6833ZM11.7839 23.8934L11.9668 23.9744L11.9668 23.9742L11.7839 23.8934ZM10.8052 25.8858L10.9829 25.9775L10.8052 25.8858ZM13.7618 14.7702L13.9618 14.7749V14.7702H13.7618ZM13.7631 14.5859L13.5631 14.5838L13.7631 14.5859ZM13.7592 14.1528L13.5593 14.1614L13.5594 14.1625L13.7592 14.1528ZM12.9985 13.3148L13.0108 13.1152L13.0107 13.1152L12.9985 13.3148ZM12.1225 14.3413L12.3224 14.3458L12.3224 14.3457L12.1225 14.3413ZM10.9864 21.2856L11.1763 21.3484L11.1763 21.3484L10.9864 21.2856ZM9.15614 25.3513L8.9821 25.2528L8.98209 25.2528L9.15614 25.3513ZM9.40366 26.7102L9.29765 26.8798L9.29766 26.8798L9.40366 26.7102ZM10.5985 26.287L10.4206 26.1957L10.4206 26.1958L10.5985 26.287ZM23.5429 21.136C24.1176 21.1907 24.6008 20.7398 24.671 20.1565L24.2738 20.1087C24.2254 20.5109 23.9065 20.7688 23.5808 20.7378L23.5429 21.136ZM22.6394 19.919C22.589 20.5182 22.9853 21.0747 23.54 21.1357L23.5837 20.7381C23.2837 20.7051 23.0023 20.377 23.038 19.9526L22.6394 19.919ZM22.8133 18.101C22.7527 18.7057 22.692 19.312 22.6394 19.9185L23.0379 19.9531C23.0903 19.3497 23.1507 18.746 23.2113 18.1409L22.8133 18.101ZM22.8134 18.1004L22.8133 18.1008L23.2113 18.1411L23.2113 18.1407L22.8134 18.1004ZM22.8151 18.0876L22.8151 18.0877L23.2096 18.1534L23.2096 18.1534L22.8151 18.0876ZM22.8124 18.1205V18.1205H23.2124V18.1205H22.8124ZM23.001 16.1213C22.9455 16.7803 22.8795 17.4395 22.8133 18.1006L23.2114 18.1404C23.2775 17.4799 23.3438 16.8175 23.3996 16.1549L23.001 16.1213ZM19.6283 5.94121C22.2981 8.68998 23.3323 12.1326 23.001 16.1216L23.3996 16.1547C23.7389 12.0693 22.6778 8.50685 19.9152 5.66252L19.6283 5.94121ZM13.739 3.0804C16.0098 3.23965 17.9744 4.24011 19.6284 5.94128L19.9152 5.66245C18.2017 3.90012 16.1481 2.84837 13.7669 2.68138L13.739 3.0804ZM4.83584 7.51905C7.08577 4.31434 10.0632 2.8224 13.7389 3.0804L13.767 2.68138C9.94005 2.41277 6.83229 3.97924 4.50846 7.28921L4.83584 7.51905ZM2.91757 13.0575C3.08731 11.0078 3.70518 9.1303 4.83586 7.51901L4.50844 7.28925C3.33153 8.9664 2.6937 10.9141 2.51894 13.0245L2.91757 13.0575ZM2.90129 13.2703C2.90655 13.1986 2.91174 13.1279 2.91757 13.0575L2.51894 13.0245C2.51293 13.0971 2.5076 13.1696 2.50236 13.241L2.90129 13.2703ZM2.90113 13.2723L2.90113 13.2723L2.50251 13.2391L2.50251 13.2391L2.90113 13.2723ZM2.90113 13.2723L2.90113 13.2723L2.50251 13.2391L2.50251 13.2391L2.90113 13.2723ZM2.90113 13.2723L2.90113 13.2723L2.50251 13.2391L2.50251 13.2391L2.90113 13.2723ZM2.84356 13.8652C2.87237 13.6655 2.88708 13.4638 2.90128 13.2704L2.50236 13.2411C2.48798 13.437 2.47413 13.6246 2.44766 13.8082L2.84356 13.8652ZM1.68591 14.7943C2.26449 14.8746 2.75823 14.4609 2.84359 13.8651L2.44763 13.8083C2.38967 14.213 2.07542 14.4445 1.74083 14.3981L1.68591 14.7943ZM0.803491 13.6691C0.783185 13.9619 0.85172 14.2261 1.01127 14.4294C1.17137 14.6334 1.40802 14.7567 1.68655 14.7944L1.74019 14.398C1.54832 14.3721 1.41221 14.2924 1.32594 14.1824C1.23911 14.0718 1.18766 13.9112 1.20253 13.6968L0.803491 13.6691ZM1.71004 9.12143C1.14961 10.5833 0.911703 12.1169 0.803496 13.6691L1.20253 13.6969C1.3093 12.1653 1.54277 10.6752 2.08354 9.26462L1.71004 9.12143ZM7.29862 2.38334C4.65888 3.82047 2.84459 6.16109 1.71004 9.12145L2.08355 9.2646C3.1915 6.37362 4.95037 4.11722 7.48988 2.73465L7.29862 2.38334ZM19.8792 3.31488C17.8954 1.79644 15.8322 0.970746 13.7179 0.82385C11.6039 0.676979 9.45422 1.20972 7.29862 2.38334L7.48989 2.73465C9.59118 1.59059 11.6655 1.08222 13.6902 1.22289C15.7145 1.36353 17.7045 2.15403 19.6361 3.63251L19.8792 3.31488ZM25.0111 12.6473C24.4839 8.76873 22.8177 5.56331 19.8792 3.31486L19.6361 3.63253C22.4777 5.80677 24.0994 8.90986 24.6148 12.7012L25.0111 12.6473ZM25.1483 14.4019C25.1174 13.8013 25.0877 13.2217 25.0112 12.6478L24.6147 12.7007C24.6887 13.2557 24.7178 13.8188 24.7488 14.4224L25.1483 14.4019ZM25.1485 14.4122V14.4121H24.7485V14.4122H25.1485ZM25.1995 15.2984C25.1785 14.9913 25.1633 14.694 25.1483 14.4019L24.7488 14.4224C24.7638 14.714 24.7792 15.0147 24.8005 15.3257L25.1995 15.2984ZM25.0519 16.693C25.1013 16.2339 25.1502 15.7801 25.1988 15.3337L24.8012 15.2904C24.7525 15.7371 24.7036 16.1911 24.6542 16.6502L25.0519 16.693ZM24.6711 20.1553C24.8043 18.9911 24.9298 17.826 25.0519 16.693L24.6542 16.6502C24.5321 17.7833 24.4067 18.9472 24.2737 20.1098L24.6711 20.1553ZM13.5415 27.1727C13.8 27.2325 14.0492 27.1938 14.2671 27.0595C14.481 26.9276 14.6511 26.7125 14.7766 26.4406L14.4135 26.273C14.3106 26.4959 14.1858 26.6397 14.0572 26.7189C13.9327 26.7957 13.7919 26.8201 13.6317 26.783L13.5415 27.1727ZM12.7344 26.1228C12.7344 26.6312 13.0974 27.0695 13.5413 27.1726L13.6318 26.783C13.3723 26.7227 13.1344 26.4484 13.1344 26.1228H12.7344ZM12.9213 25.352C12.8178 25.577 12.7344 25.8543 12.7344 26.1228H13.1344C13.1344 25.9305 13.1962 25.7116 13.2847 25.5192L12.9213 25.352ZM14.736 19.9485C14.3237 21.8212 13.7147 23.6345 12.9215 25.3517L13.2846 25.5195C14.0901 23.7757 14.7083 21.935 15.1267 20.0345L14.736 19.9485ZM15.3533 14.4029C15.3141 16.2765 15.1366 18.1297 14.736 19.9485L15.1267 20.0345C15.5341 18.1844 15.7136 16.3043 15.7532 14.4113L15.3533 14.4029ZM13.0856 11.6773C14.3055 11.7211 15.3843 12.9585 15.3533 14.4028L15.7532 14.4114C15.788 12.7922 14.5796 11.3307 13.1 11.2776L13.0856 11.6773ZM10.5973 14.2457C10.6325 12.7361 11.7581 11.631 13.0859 11.6773L13.0998 11.2775C11.5211 11.2225 10.2371 12.5336 10.1974 14.2364L10.5973 14.2457ZM8.90413 22.3759C10.0275 19.8077 10.5311 17.0794 10.5973 14.2457L10.1974 14.2364C10.1321 17.0284 9.63639 19.7037 8.53765 22.2156L8.90413 22.3759ZM7.76087 24.6087C8.16051 23.884 8.56637 23.1483 8.90413 22.3759L8.53764 22.2157C8.20846 22.9684 7.81171 23.6882 7.4106 24.4156L7.76087 24.6087ZM7.75847 24.613L7.75849 24.6129L7.41298 24.4114L7.41296 24.4114L7.75847 24.613ZM7.76065 24.6091L7.76099 24.6085L7.41044 24.4159L7.41009 24.4165L7.76065 24.6091ZM7.55611 24.9808C7.62392 24.8571 7.69212 24.7334 7.7605 24.6094L7.41023 24.4162C7.34189 24.5402 7.27343 24.6643 7.20531 24.7886L7.55611 24.9808ZM6.16684 25.3194C6.64359 25.6335 7.26115 25.5196 7.55614 24.9808L7.20528 24.7887C7.0302 25.1085 6.68199 25.1798 6.38691 24.9854L6.16684 25.3194ZM5.81993 23.7499C5.53141 24.3062 5.67241 24.9938 6.16688 25.3194L6.38688 24.9853C6.08717 24.788 5.96716 24.3348 6.17501 23.9341L5.81993 23.7499ZM6.16924 23.1203C6.05179 23.3255 5.932 23.5347 5.82008 23.7496L6.17486 23.9344C6.28249 23.7277 6.39829 23.5253 6.51639 23.319L6.16924 23.1203ZM6.16919 23.1204L6.16917 23.1204L6.51646 23.3189L6.51649 23.3188L6.16919 23.1204ZM6.16396 23.1301L6.16395 23.1302L6.52172 23.3091L6.52173 23.309L6.16396 23.1301ZM6.16397 23.1301L6.16396 23.1301L6.52173 23.309L6.52174 23.309L6.16397 23.1301ZM6.52517 22.4771C6.41361 22.6933 6.29272 22.9046 6.16928 23.1202L6.51643 23.3189C6.63916 23.1045 6.76441 22.8858 6.88062 22.6606L6.52517 22.4771ZM8.3129 16.7988C8.0226 18.8049 7.43816 20.7082 6.52517 22.4771L6.88062 22.6606C7.81567 20.8489 8.41265 18.9024 8.70878 16.8561L8.3129 16.7988ZM8.4746 14.3869C8.4507 15.2026 8.42679 16.0111 8.3129 16.7989L8.70878 16.8561C8.82651 16.0418 8.85065 15.2103 8.87442 14.3986L8.4746 14.3869ZM8.47758 14.2851L8.4746 14.3869L8.87442 14.3986L8.87741 14.2968L8.47758 14.2851ZM11.8881 9.48091C9.89219 10.0173 8.54536 11.9671 8.47758 14.2851L8.87741 14.2968C8.94113 12.1177 10.2004 10.3486 11.9919 9.86721L11.8881 9.48091ZM17.1361 12.5487C16.2953 10.1821 14.1216 8.88087 11.8881 9.48091L11.9919 9.86721C13.991 9.33012 15.9762 10.479 16.7592 12.6826L17.1361 12.5487ZM17.4518 15.2184C17.5252 14.3003 17.4435 13.4126 17.1361 12.5486L16.7593 12.6827C17.0443 13.4839 17.1229 14.3135 17.053 15.1865L17.4518 15.2184ZM14.7766 26.4408C16.4148 22.9023 17.3067 19.1581 17.4523 15.2098L17.0525 15.1951C16.9089 19.091 16.0292 22.783 14.4136 26.2728L14.7766 26.4408ZM6.57279 12.5459C6.39787 13.3335 6.34084 14.157 6.30233 14.953L6.70187 14.9723C6.74028 14.1783 6.79633 13.3843 6.96327 12.6326L6.57279 12.5459ZM12.9322 6.95169C9.9072 6.91074 7.31075 9.22402 6.57279 12.5459L6.96327 12.6326C7.66838 9.45861 10.1269 7.31375 12.9268 7.35165L12.9322 6.95169ZM13.2192 6.96149C13.1222 6.96004 13.032 6.95863 12.9441 6.9522L12.9149 7.35114C13.0164 7.35856 13.1182 7.36003 13.2132 7.36145L13.2192 6.96149ZM13.8738 7.03215C13.6515 6.9667 13.4187 6.96448 13.2192 6.96149L13.2132 7.36145C13.4233 7.3646 13.6 7.36851 13.7609 7.41587L13.8738 7.03215ZM16.0535 7.77929C15.3363 7.50609 14.6099 7.25113 13.8744 7.03231L13.7603 7.41571C14.4837 7.63091 15.2003 7.88231 15.9111 8.15309L16.0535 7.77929ZM16.7376 7.83312C16.5369 7.94802 16.3565 7.89577 16.0541 7.77951L15.9105 8.15287C16.1952 8.2623 16.5519 8.4003 16.9363 8.18027L16.7376 7.83312ZM17.0614 7.23529C17.0565 7.51128 16.9483 7.71235 16.7375 7.83318L16.9364 8.18021C17.2897 7.9777 17.4544 7.63407 17.4613 7.24238L17.0614 7.23529ZM16.6505 6.54188C16.92 6.705 17.0668 6.91884 17.0614 7.2354L17.4613 7.24227C17.4697 6.75517 17.2227 6.4207 16.8577 6.19971L16.6505 6.54188ZM11.8963 5.58151C13.5703 5.32884 15.1595 5.64112 16.6507 6.54198L16.8575 6.19961C15.287 5.25081 13.6036 4.91929 11.8366 5.18599L11.8963 5.58151ZM6.804 8.73912C8.1181 6.93891 9.82893 5.89328 11.8963 5.58152L11.8366 5.18599C9.65888 5.51441 7.85507 6.62081 6.48092 8.50328L6.804 8.73912ZM5.03244 14.2122C5.09973 12.163 5.64618 10.3271 6.80407 8.73903L6.48085 8.50337C5.26804 10.1668 4.70211 12.0838 4.63265 14.1991L5.03244 14.2122ZM4.72193 17.1582C4.89036 16.1862 4.99412 15.2019 5.0324 14.2134L4.6327 14.1979C4.5951 15.1688 4.4932 16.1354 4.3278 17.0899L4.72193 17.1582ZM3.25945 21.0643C3.89023 19.8447 4.48387 18.5763 4.72211 17.1572L4.32763 17.0909C4.1004 18.4445 3.53235 19.6659 2.90416 20.8805L3.25945 21.0643ZM3.46306 22.0934C3.28601 21.9767 3.18483 21.8288 3.1491 21.6656C3.11294 21.5004 3.13903 21.2969 3.25942 21.0643L2.90418 20.8805C2.75108 21.1763 2.69795 21.4752 2.75835 21.7511C2.81918 22.029 2.99035 22.2608 3.24292 22.4273L3.46306 22.0934ZM4.34134 21.7923C4.22189 22.0047 4.07027 22.1249 3.9239 22.1711C3.78092 22.2162 3.62178 22.198 3.4631 22.0934L3.24289 22.4273C3.49445 22.5932 3.77792 22.6367 4.04436 22.5525C4.3074 22.4694 4.532 22.2693 4.68999 21.9884L4.34134 21.7923ZM6.30233 14.953C6.18287 17.4233 5.52003 19.6952 4.34132 21.7924L4.69001 21.9883C5.8991 19.8371 6.5794 17.5048 6.70187 14.9723L6.30233 14.953ZM19.627 24.6555C20.6054 21.6518 21.158 18.5007 21.2658 15.3126L20.866 15.2991C20.7595 18.45 20.2133 21.5639 19.2466 24.5316L19.627 24.6555ZM18.2933 25.452C18.5905 25.5242 18.8767 25.488 19.1167 25.3427C19.3552 25.1984 19.5291 24.958 19.6271 24.6551L19.2465 24.532C19.1719 24.7626 19.05 24.9156 18.9096 25.0005C18.7708 25.0846 18.5951 25.1137 18.3877 25.0633L18.2933 25.452ZM17.5801 24.4252C17.5386 24.9287 17.8288 25.3388 18.2932 25.4519L18.3878 25.0633C18.1245 24.9992 17.9525 24.7757 17.9787 24.4581L17.5801 24.4252ZM17.7241 23.7083C17.6496 23.9398 17.6012 24.1803 17.5801 24.4244L17.9787 24.4589C17.9972 24.2445 18.0396 24.0336 18.1049 23.831L17.7241 23.7083ZM18.9724 17.961C18.7587 19.9223 18.3195 21.8387 17.7239 23.709L18.1051 23.8303C18.7073 21.9391 19.153 19.9963 19.37 18.0043L18.9724 17.961ZM18.986 17.8362L18.9724 17.961L19.37 18.0043L19.3836 17.8795L18.986 17.8362ZM18.9848 17.8579V17.8579H19.3848V17.8579H18.9848ZM19.0757 12.8694C19.3464 14.518 19.168 16.166 18.986 17.8362L19.3836 17.8795C19.5647 16.2184 19.7514 14.516 19.4704 12.8046L19.0757 12.8694ZM18.1932 10.4665C18.638 11.1885 18.939 12.0071 19.0756 12.8683L19.4706 12.8057C19.326 11.8936 19.007 11.0248 18.5338 10.2567L18.1932 10.4665ZM17.991 9.38003C17.8514 9.8068 18.0097 10.1694 18.1934 10.4667L18.5337 10.2565C18.3683 9.98884 18.2879 9.75903 18.3712 9.50438L17.991 9.38003ZM18.7397 8.67895C18.3522 8.74853 18.1064 9.02402 17.9908 9.38052L18.3713 9.50389C18.453 9.25203 18.6017 9.11014 18.8104 9.07266L18.7397 8.67895ZM19.6927 9.11288C19.5851 8.941 19.4472 8.81121 19.279 8.73561C19.1106 8.65992 18.927 8.64541 18.7398 8.67894L18.8103 9.07267C18.9321 9.05087 19.0319 9.06312 19.115 9.10045C19.1983 9.13788 19.28 9.20738 19.3537 9.32521L19.6927 9.11288ZM21.1724 13.2896C21.0064 11.7601 20.4828 10.3741 19.6927 9.11287L19.3538 9.32522C20.1152 10.5408 20.6159 11.8696 20.7747 13.3327L21.1724 13.2896ZM21.2464 14.6782C21.2346 14.2204 21.2228 13.7529 21.1724 13.2895L20.7747 13.3328C20.823 13.777 20.8347 14.2278 20.8465 14.6884L21.2464 14.6782ZM21.2657 15.2974C21.257 15.0921 21.2517 14.8861 21.2464 14.6782L20.8465 14.6884C20.8518 14.8958 20.8572 15.1052 20.8661 15.3143L21.2657 15.2974ZM11.601 23.8124C11.3034 24.4843 10.9669 25.1363 10.6275 25.7941L10.9829 25.9775C11.3215 25.3215 11.6635 24.659 11.9668 23.9744L11.601 23.8124ZM13.5618 14.7655C13.4878 17.9375 12.8612 20.9607 11.601 23.8125L11.9668 23.9742C13.2502 21.0702 13.8866 17.9946 13.9617 14.7749L13.5618 14.7655ZM13.5631 14.5838C13.5624 14.645 13.5618 14.7075 13.5618 14.7702H13.9618C13.9618 14.71 13.9624 14.6496 13.9631 14.588L13.5631 14.5838ZM13.5594 14.1625C13.566 14.2991 13.5646 14.4379 13.5631 14.5838L13.9631 14.588C13.9646 14.4441 13.9662 14.2936 13.9589 14.1432L13.5594 14.1625ZM12.9862 13.5144C13.3005 13.5337 13.5428 13.7766 13.5593 14.1614L13.959 14.1442C13.9348 13.5822 13.5557 13.1487 13.0108 13.1152L12.9862 13.5144ZM12.3224 14.3457C12.3289 14.0532 12.4109 13.8376 12.5268 13.7024C12.6388 13.5717 12.7931 13.5026 12.9863 13.5144L13.0107 13.1152C12.6948 13.0959 12.4182 13.2145 12.2231 13.4421C12.0319 13.6651 11.9305 13.9783 11.9225 14.3368L12.3224 14.3457ZM11.1763 21.3484C11.9252 19.084 12.2682 16.7404 12.3224 14.3458L11.9225 14.3367C11.869 16.699 11.5309 19.0024 10.7965 21.2228L11.1763 21.3484ZM9.33018 25.4499C10.0661 24.1501 10.6985 22.7923 11.1763 21.3484L10.7966 21.2228C10.3283 22.6376 9.70762 23.9715 8.9821 25.2528L9.33018 25.4499ZM9.50968 26.5406C9.18705 26.3389 9.06991 25.9097 9.33019 25.4498L8.98209 25.2528C8.63884 25.8592 8.75706 26.5418 9.29765 26.8798L9.50968 26.5406ZM10.4206 26.1958C10.2953 26.4401 10.1429 26.5711 9.99797 26.6215C9.85743 26.6703 9.6921 26.6546 9.50967 26.5406L9.29766 26.8798C9.56426 27.0464 9.85518 27.0945 10.1292 26.9993C10.3989 26.9056 10.6194 26.6847 10.7765 26.3782L10.4206 26.1958ZM10.6275 25.7941C10.5585 25.9277 10.4894 26.0616 10.4206 26.1957L10.7765 26.3783C10.845 26.2447 10.9139 26.1112 10.9829 25.9775L10.6275 25.7941Z" fill="#5B8EF4"/>
</svg>
