<svg width="40" height="40" viewBox="0 0 40 40" fill="none" xmlns="http://www.w3.org/2000/svg">
<circle cx="20" cy="20" r="14.6" stroke="#FFF5E9" stroke-width="2.8" stroke-linejoin="round"/>
<path fill-rule="evenodd" clip-rule="evenodd" d="M22.9807 14.4556C23.0649 14.3815 23.2012 14.3815 23.2853 14.4556L26.8412 17.5898C27.1804 17.8888 26.9402 18.4 26.4604 18.4L13.2153 18.4C13.0963 18.4 12.9999 18.315 12.9999 18.2102V17.2609C12.9999 17.1561 13.0963 17.0711 13.2153 17.0711L24.1205 17.0711L22.2192 15.3953C22.1351 15.3212 22.1351 15.201 22.2192 15.1268L22.9807 14.4556Z" fill="#FFF5E9" stroke="#FFF5E9" stroke-width="1.2"/>
<path fill-rule="evenodd" clip-rule="evenodd" d="M17.0193 25.5444C16.9351 25.6185 16.7988 25.6185 16.7147 25.5444L13.1588 22.4102C12.8196 22.1112 13.0598 21.6 13.5396 21.6L26.7847 21.6C26.9037 21.6 27.0001 21.685 27.0001 21.7898V22.7391C27.0001 22.8439 26.9037 22.9289 26.7847 22.9289L15.8795 22.9289L17.7808 24.6047C17.8649 24.6788 17.8649 24.799 17.7808 24.8732L17.0193 25.5444Z" fill="#FFF5E9" stroke="#FFF5E9" stroke-width="1.2"/>
</svg>
