
<svg width="34px" height="33px" viewBox="0 0 34 33" version="1.1" xmlns="http://www.w3.org/2000/svg" xmlns:xlink="http://www.w3.org/1999/xlink">
    <title>uonrsgnbug</title>
    <g id="qbbkslkpre" stroke="none" stroke-width="1" fill="none" fill-rule="evenodd">
        <g id="nwqozvsdty" transform="translate(-15.000000, -499.000000)" fill="#5B8EF4" fill-rule="nonzero">
            <g id="ohtpwupfum" transform="translate(0.000000, 473.231707)">
                <g id="fcjpoufzye" transform="translate(0.000000, 14.085366)">
                    <g id="odxulksbpp" transform="translate(15.999950, 12.146291)">
                        <path d="M-0.192605181,16.4778166 C-0.346824347,7.64260644 6.77785506,0.353709504 15.7208117,0.197609616 C24.6637683,0.0415097273 32.0384864,7.07731874 32.1927055,15.9125289 C32.3469247,24.747739 25.2222453,32.036636 16.2792887,32.1927359 C7.33633207,32.3488357 -0.0383860139,25.3130267 -0.192605181,16.4778166 Z M1.42666035,16.4495522 C1.5654576,24.4012413 8.20270388,30.7334694 16.2513648,30.5929795 C24.3000258,30.4524896 30.7122372,23.8924824 30.57344,15.9407933 C30.4346427,7.98910414 23.7973965,1.65687603 15.7487355,1.79736593 C7.70007457,1.93785583 1.2878631,8.49786307 1.42666035,16.4495522 Z M11.1653522,13.4231728 L15.0903775,9.40578549 C15.3008798,9.19043132 15.5917092,9.09715495 15.8716645,9.12754828 C16.1603681,9.08908989 16.4542756,9.17215965 16.6721653,9.3800362 L20.734972,13.2561344 C21.1084974,13.6124942 21.1187912,14.2022267 20.7579301,14.5714053 C20.3970691,14.9405838 19.8001447,14.9510032 19.4266194,14.5946434 L16.8706853,12.1569298 L17.0594478,22.9344517 C17.0666329,23.3460845 16.6506628,23.6875259 16.1309432,23.6965977 C15.6112236,23.7056694 15.1835908,23.3789532 15.1764057,22.9673204 L14.9879721,12.1897927 L12.5196211,14.7152055 C12.15876,15.0843841 11.5618357,15.0948034 11.1883103,14.7384436 C10.814785,14.3820838 10.8044912,13.7923513 11.1653522,13.4231728 Z" id="tbgrwuxfbj"></path>
                    </g>
                </g>
            </g>
        </g>
    </g>
</svg>