<svg width="48" height="48" viewBox="0 0 48 48" fill="none" xmlns="http://www.w3.org/2000/svg">
<circle cx="24" cy="24" r="24" fill="#F7F7F9"/>
<path fill-rule="evenodd" clip-rule="evenodd" d="M30.25 28.2081C30.25 29.8536 28.9161 31.1875 27.2706 31.1875C25.6251 31.1875 24.2911 29.8536 24.2911 28.2081C24.2911 26.5626 25.6251 25.2286 27.2706 25.2286C28.9161 25.2286 30.25 26.5626 30.25 28.2081ZM31.8125 28.2081C31.8125 30.7165 29.779 32.75 27.2706 32.75C24.7621 32.75 22.7286 30.7165 22.7286 28.2081C22.7286 25.6996 24.7621 23.6661 27.2706 23.6661C29.779 23.6661 31.8125 25.6996 31.8125 28.2081ZM26.619 28.8643C26.6412 28.8854 26.6653 28.9052 26.6912 28.9233L28.2271 29.9988C28.3402 30.078 28.4961 30.0505 28.5753 29.9374L29.1847 29.067C29.2639 28.9539 29.2365 28.798 29.1234 28.7188L27.9737 27.9138V26.524C27.9737 26.3859 27.8618 26.274 27.7237 26.274H26.6612C26.5231 26.274 26.4112 26.3859 26.4112 26.524V28.399C26.4112 28.5838 26.4914 28.7499 26.619 28.8643Z" fill="#25272A"/>
<path fill-rule="evenodd" clip-rule="evenodd" d="M16.9688 16.3125C16.9688 15.8983 17.3045 15.5625 17.7188 15.5625H30.2812C30.6955 15.5625 31.0312 15.8983 31.0312 16.3125V22.2398C31.0312 22.3779 30.9193 22.4898 30.7812 22.4898H29.7188C29.5807 22.4898 29.4688 22.3779 29.4688 22.2398V17.125H18.5312V30.875H21.875C22.0131 30.875 22.125 30.9869 22.125 31.125V32.1875C22.125 32.3256 22.0131 32.4375 21.875 32.4375H17.7188C17.3045 32.4375 16.9688 32.1017 16.9688 31.6875V16.3125Z" fill="#25272A"/>
<path d="M27.75 19.7906C27.75 19.6525 27.6381 19.5406 27.5 19.5406H20.5C20.3619 19.5406 20.25 19.6525 20.25 19.7906V20.8531C20.25 20.9912 20.3619 21.1031 20.5 21.1031H27.5C27.6381 21.1031 27.75 20.9912 27.75 20.8531V19.7906Z" fill="#25272A"/>
</svg>
