<svg width="14" height="14" viewBox="0 0 14 14" fill="none" xmlns="http://www.w3.org/2000/svg">
<g id="suggest-circle close">
<g id="Union">
<path d="M7 12.0312C9.77868 12.0312 12.0313 9.77868 12.0313 7C12.0313 4.22132 9.77868 1.96875 7 1.96875C4.22132 1.96875 1.96875 4.22132 1.96875 7C1.96875 9.77868 4.22132 12.0312 7 12.0312ZM7 13.125C3.61726 13.125 0.875 10.3827 0.875 7C0.875 3.61725 3.61726 0.875 7 0.875C10.3827 0.875 13.125 3.61725 13.125 7C13.125 10.3827 10.3827 13.125 7 13.125ZM4.57159 5.09742C4.50325 5.16576 4.50325 5.27656 4.57159 5.3449L6.22671 7.00002L4.57161 8.65512C4.50327 8.72346 4.50327 8.83427 4.57161 8.90261L5.09752 9.42852C5.16587 9.49686 5.27667 9.49686 5.34501 9.42852L7.00011 7.77342L8.65513 9.42845C8.72347 9.49679 8.83428 9.49679 8.90262 9.42845L9.42853 8.90254C9.49687 8.83419 9.49687 8.72339 9.42853 8.65505L7.77351 7.00002L9.42855 5.34498C9.49689 5.27663 9.49689 5.16583 9.42855 5.09749L8.90264 4.57158C8.8343 4.50324 8.7235 4.50324 8.65516 4.57158L7.00011 6.22663L5.34499 4.57151C5.27665 4.50317 5.16584 4.50317 5.0975 4.57151L4.57159 5.09742Z" fill="#F53F3F"/>
</g>
</g>
</svg>
