<svg width="49" height="48" viewBox="0 0 49 48" fill="none" xmlns="http://www.w3.org/2000/svg">
<circle cx="24" cy="24" r="24" fill="#F7F7F9"/>
<path fill-rule="evenodd" clip-rule="evenodd" d="M17.4688 16.3125C17.4688 15.8983 17.8045 15.5625 18.2188 15.5625H30.7812C31.1955 15.5625 31.5312 15.8983 31.5312 16.3125V22.2398C31.5312 22.3779 31.4193 22.4898 31.2812 22.4898H30.2188C30.0807 22.4898 29.9688 22.3779 29.9688 22.2398V17.125H19.0312V30.875H22.375C22.5131 30.875 22.625 30.9869 22.625 31.125V32.1875C22.625 32.3256 22.5131 32.4375 22.375 32.4375H18.2188C17.8045 32.4375 17.4688 32.1017 17.4688 31.6875V16.3125ZM30.75 28.2081C30.75 29.8536 29.4161 31.1875 27.7706 31.1875C26.1251 31.1875 24.7911 29.8536 24.7911 28.2081C24.7911 26.5626 26.1251 25.2286 27.7706 25.2286C29.4161 25.2286 30.75 26.5626 30.75 28.2081ZM32.3125 28.2081C32.3125 30.7165 30.279 32.75 27.7706 32.75C25.2621 32.75 23.2286 30.7165 23.2286 28.2081C23.2286 25.6996 25.2621 23.6661 27.7706 23.6661C30.279 23.6661 32.3125 25.6996 32.3125 28.2081ZM27.119 28.8643C27.1412 28.8854 27.1653 28.9052 27.1912 28.9233L28.7271 29.9988C28.8402 30.078 28.9961 30.0505 29.0753 29.9374L29.6847 29.067C29.7639 28.9539 29.7365 28.798 29.6234 28.7188L28.4737 27.9138V26.524C28.4737 26.3859 28.3618 26.274 28.2237 26.274H27.1612C27.0231 26.274 26.9112 26.3859 26.9112 26.524V28.399C26.9112 28.5838 26.9914 28.7499 27.119 28.8643ZM28 19.5405C28.1381 19.5405 28.25 19.6525 28.25 19.7905V20.853C28.25 20.9911 28.1381 21.103 28 21.103H21C20.8619 21.103 20.75 20.9911 20.75 20.853V19.7905C20.75 19.6525 20.8619 19.5405 21 19.5405H28Z" fill="#25272A"/>
</svg>
