<svg width="29" height="28" viewBox="0 0 29 28" fill="none" xmlns="http://www.w3.org/2000/svg">
<path fill-rule="evenodd" clip-rule="evenodd" d="M14.5 0C22.232 0 28.5 6.26801 28.5 14C28.5 21.732 22.232 28 14.5 28C6.76801 28 0.5 21.732 0.5 14C0.5 6.26801 6.76801 0 14.5 0ZM13.3085 12.8085H8.6092C7.95112 12.8085 7.41765 13.3419 7.41765 14C7.41765 14.6581 7.95112 15.1916 8.6092 15.1916H13.3085V19.8908C13.3085 20.5489 13.842 21.0824 14.5 21.0824C15.1581 21.0824 15.6916 20.5489 15.6916 19.8908V15.1916H20.3909C21.049 15.1916 21.5825 14.6581 21.5825 14C21.5825 13.3419 21.049 12.8085 20.3909 12.8085H15.6916V8.10915C15.6916 7.45107 15.1581 6.91759 14.5 6.91759C13.842 6.91759 13.3085 7.45107 13.3085 8.10915V12.8085Z" fill="#5B8EF4"/>
</svg>
