<svg width="32" height="32" viewBox="0 0 32 32" fill="none" xmlns="http://www.w3.org/2000/svg">
<g id="chat/user-add">
<g id="Union">
<path d="M20.5 10C20.5 7.51472 18.4853 5.5 16 5.5C13.5147 5.5 11.5 7.51472 11.5 10C11.5 12.4853 13.5147 14.5 16 14.5C18.4853 14.5 20.5 12.4853 20.5 10ZM23 10C23 13.866 19.866 17 16 17C12.134 17 9 13.866 9 10C9 6.13401 12.134 3 16 3C19.866 3 23 6.13401 23 10ZM21.4498 25.75C21.2289 25.75 21.0498 25.5709 21.0498 25.35V23.65C21.0498 23.4291 21.2289 23.25 21.4498 23.25H24.2998V20.4C24.2998 20.1791 24.4789 20 24.6998 20H26.3998C26.6207 20 26.7998 20.1791 26.7998 20.4V23.25H29.6498C29.8707 23.25 30.0498 23.4291 30.0498 23.65V25.35C30.0498 25.5709 29.8707 25.75 29.6498 25.75H26.7998V28.6C26.7998 28.8209 26.6207 29 26.3998 29H24.6998C24.4789 29 24.2998 28.8209 24.2998 28.6V25.75H21.4498ZM5.5 26.5H18.7708V29H4C3.44772 29 3 28.5523 3 28V22.1933C3 21.8224 3.20852 21.4829 3.53939 21.3152C8.30357 18.9007 13.5941 17.9547 18.7708 18.4774V20.9914C14.2823 20.4925 9.69001 21.2098 5.5 23.1433V26.5Z" fill="#55585E"/>
</g>
</g>
</svg>
