<svg width="32" height="32" viewBox="0 0 32 32" fill="none" xmlns="http://www.w3.org/2000/svg">
<path d="M16 27.5C22.3513 27.5 27.5 22.3513 27.5 16C27.5 9.64872 22.3513 4.5 16 4.5C9.64872 4.5 4.5 9.64872 4.5 16C4.5 22.3513 9.64872 27.5 16 27.5ZM16 30C8.26801 30 2 23.732 2 16C2 8.26801 8.26801 2 16 2C23.732 2 30 8.26801 30 16C30 23.732 23.732 30 16 30ZM9 16.85C9 17.0709 9.17909 17.25 9.4 17.25H14.75V22.6C14.75 22.8209 14.9291 23 15.15 23H16.85C17.0709 23 17.25 22.8209 17.25 22.6V17.25H22.6C22.8209 17.25 23 17.0709 23 16.85V15.15C23 14.9291 22.8209 14.75 22.6 14.75H17.25V9.4C17.25 9.17909 17.0709 9 16.85 9H15.15C14.9291 9 14.75 9.17909 14.75 9.4V14.75H9.4C9.17909 14.75 9 14.9291 9 15.15V16.85Z" fill="#55585E"/>
</svg>
