<svg width="32" height="32" viewBox="0 0 32 32" fill="none" xmlns="http://www.w3.org/2000/svg">
<g id="suggest-add">
<g id="Union">
<path d="M17.3999 28.1C17.3999 28.3209 17.2208 28.5 16.9999 28.5H14.9999C14.779 28.5 14.5999 28.3209 14.5999 28.1V17.4H3.9C3.67909 17.4 3.5 17.2209 3.5 17V15C3.5 14.7791 3.67909 14.6 3.9 14.6H14.5999V3.9C14.5999 3.67909 14.779 3.5 14.9999 3.5H16.9999C17.2208 3.5 17.3999 3.67909 17.3999 3.9V14.6H28.1C28.3209 14.6 28.5 14.7791 28.5 15V17C28.5 17.2209 28.3209 17.4 28.1 17.4H17.3999V28.1Z" fill="#55585E"/>
</g>
</g>
</svg>
