<svg width="24" height="24" viewBox="0 0 24 24" fill="none" xmlns="http://www.w3.org/2000/svg">
<path fill-rule="evenodd" clip-rule="evenodd" d="M14.1267 7.42986H15.3032C16.2986 7.42986 17.1131 7.42986 17.7466 7.52036C18.3801 7.61086 19.0136 7.70136 19.5566 7.97285C20.2805 8.33484 21.0045 9.05882 21.457 9.8733C21.7285 10.4163 21.819 10.9593 21.9095 11.6833C22 12.3167 22 13.1312 22 14.1267V15.3032C22 16.2986 22 17.1131 21.9095 17.7466C21.819 18.3801 21.7285 19.0136 21.457 19.5566C21.0045 20.371 20.371 21.095 19.4661 21.5475C18.9231 21.819 18.3801 21.9095 17.6561 22C17.0226 21.9095 16.2081 21.9095 15.2127 21.9095H14.0362C13.0407 21.9095 12.2262 21.9095 11.5928 21.819C10.9593 21.7285 10.3258 21.638 9.78281 21.3665C9.05882 21.0045 8.33484 20.2805 7.88235 19.4661C7.61086 18.9231 7.52036 18.3801 7.42986 17.6561C7.42986 17.0226 7.42986 16.2081 7.42986 15.2127V14.0362C7.42986 13.0407 7.42986 12.2262 7.52036 11.5928C7.61086 10.9593 7.70136 10.3258 7.97285 9.78281C8.33484 9.05882 9.05882 8.33484 9.8733 7.88235C10.4163 7.61086 10.9593 7.52036 11.6833 7.42986H14.1267ZM15.5747 11.9548C15.5747 11.4118 15.2127 11.0498 14.6697 11.0498C14.1267 11.0498 13.7647 11.4118 13.7647 11.9548V12.3167C13.7647 12.8597 13.7647 13.0407 13.6742 13.3122C13.5837 13.4932 13.4932 13.5837 13.3122 13.6742C13.0407 13.7647 12.8597 13.7647 12.3167 13.7647H11.9548C11.4118 13.7647 11.0498 14.1267 11.0498 14.6697C11.0498 15.2127 11.4118 15.5747 11.9548 15.5747H12.3167C12.8597 15.5747 13.0407 15.5747 13.3122 15.6652C13.4932 15.7557 13.5837 15.8462 13.6742 16.0271C13.7647 16.2986 13.7647 16.4796 13.7647 17.0226V17.3846C13.7647 17.9276 14.1267 18.2896 14.6697 18.2896C15.2127 18.2896 15.5747 17.9276 15.5747 17.3846V17.0226C15.5747 16.4796 15.5747 16.2986 15.6652 16.0271C15.7557 15.8462 15.8462 15.7557 16.0271 15.6652C16.2986 15.5747 16.4796 15.5747 17.0226 15.5747H17.3846C17.9276 15.5747 18.2896 15.2127 18.2896 14.6697C18.2896 14.1267 17.9276 13.7647 17.3846 13.7647H17.0226C16.4796 13.7647 16.2986 13.7647 16.0271 13.6742C15.8462 13.5837 15.7557 13.4932 15.6652 13.3122C15.5747 13.0407 15.5747 12.8597 15.5747 12.3167V11.9548ZM9.78281 2H8.69683C7.70136 2 6.88688 2 6.25339 2.0905C5.61991 2.0905 4.98643 2.181 4.44344 2.45249C3.62896 2.90498 2.90498 3.62896 2.45249 4.44344C2.181 4.98643 2.0905 5.61991 2.0905 6.25339C2 6.88688 2 7.70136 2 8.69683V9.8733C2 10.8688 2 11.6833 2.0905 12.3167C2.181 12.9502 2.27149 13.5837 2.54299 14.1267C2.90498 14.8507 3.62896 15.5747 4.44344 16.0271C4.98643 16.2986 5.52941 16.3891 6.0724 16.4796V16.3891C6.0724 15.7557 6.0724 14.9412 6.0724 13.8552V13.7647C6.0724 12.7692 6.0724 11.9548 6.0724 11.2308C6.1629 10.5973 6.25339 9.9638 6.43439 9.42081C7.06787 8.06335 8.06335 7.06787 9.42081 6.52489C9.9638 6.34389 10.5068 6.1629 11.2308 6.1629H13.7647H16.2986H16.3891C16.2986 5.52941 16.2081 4.98643 15.9367 4.53394C15.5747 3.62896 14.8507 2.90498 14.0362 2.45249C13.4932 2.181 12.9502 2.0905 12.2262 2C11.5928 2 10.7783 2 9.78281 2Z" fill="white"/>
</svg>
