<svg width="32" height="33" viewBox="0 0 32 33" fill="none" xmlns="http://www.w3.org/2000/svg">
<path d="M32 16.1309C32 24.9674 24.8366 32.1309 16 32.1309C7.16344 32.1309 0 24.9674 0 16.1309C0 7.2943 7.16344 0.130859 16 0.130859C24.8366 0.130859 32 7.2943 32 16.1309Z" fill="#DEE2E8"/>
<path d="M31.5554 16.1309C31.5554 24.722 24.591 31.6864 15.9999 31.6864C7.40879 31.6864 0.444336 24.722 0.444336 16.1309C0.444336 7.53976 7.40879 0.575302 15.9999 0.575302C24.591 0.575302 31.5554 7.53976 31.5554 16.1309Z" fill="#F7F7F9"/>
<path d="M21.0792 15.748C21.0707 14.2908 21.7309 13.1926 23.0642 12.3828C22.3185 11.3144 21.1903 10.7268 19.7032 10.6136C18.2951 10.5025 16.7546 11.4341 16.1905 11.4341C15.5944 11.4341 14.2312 10.6521 13.1586 10.6521C10.945 10.6863 8.59253 12.417 8.59253 15.9382C8.59253 16.9787 8.78269 18.0535 9.16302 19.1603C9.67155 20.6175 11.5048 24.1879 13.4171 24.1302C14.4171 24.1067 15.1243 23.4208 16.4256 23.4208C17.6883 23.4208 18.3422 24.1302 19.4575 24.1302C21.3869 24.1024 23.045 20.8568 23.5278 19.3953C20.9403 18.1753 21.0792 15.8228 21.0792 15.748Z" fill="black"/>
<path d="M18.8337 9.23118C19.917 7.94491 19.8187 6.77401 19.7867 6.35309C18.8295 6.40864 17.7227 7.00477 17.0924 7.73765C16.3979 8.52394 15.9898 9.49613 16.0774 10.5922C17.1116 10.6713 18.056 10.1393 18.8337 9.23118Z" fill="black"/>
</svg>
