<svg width="16" height="16" viewBox="0 0 16 16" fill="none" xmlns="http://www.w3.org/2000/svg">
<path d="M13.9442 5.45495C13.8514 5.52695 12.2128 6.45024 12.2128 8.50325C12.2128 10.8779 14.2978 11.718 14.3602 11.7388C14.3506 11.79 14.029 12.8893 13.2609 14.0094C12.5761 14.9951 11.8608 15.9792 10.7727 15.9792C9.68458 15.9792 9.40455 15.3471 8.14842 15.3471C6.9243 15.3471 6.48906 16 5.49376 16C4.49846 16 3.80399 15.0879 3.00551 13.9678C2.08062 12.6525 1.33334 10.6091 1.33334 8.66967C1.33334 5.55896 3.35595 3.90919 5.34654 3.90919C6.40425 3.90919 7.28594 4.60366 7.95 4.60366C8.58207 4.60366 9.56777 3.86759 10.7711 3.86759C11.2271 3.86759 12.8657 3.90919 13.9442 5.45495ZM10.1998 2.55065C10.6975 1.9602 11.0495 1.14091 11.0495 0.321632C11.0495 0.208021 11.0399 0.0928093 11.0191 0C10.2094 0.030403 9.24613 0.539254 8.66528 1.21292C8.20923 1.73137 7.78359 2.55065 7.78359 3.38114C7.78359 3.50595 7.80439 3.63076 7.81399 3.67077C7.8652 3.68037 7.9484 3.69157 8.03161 3.69157C8.75809 3.69157 9.67178 3.20512 10.1998 2.55065Z" fill="white"/>
</svg>
