<svg width="36" height="36" viewBox="0 0 36 36" fill="none" xmlns="http://www.w3.org/2000/svg">
<rect x="0.25" y="0.25" width="35.5" height="35.5" rx="17.75" fill="#F7F7F9"/>
<path d="M23.7143 17.5693C23.7047 15.9299 24.4474 14.6944 25.9474 13.7834C25.1085 12.5815 23.8393 11.9205 22.1663 11.7931C20.5822 11.6681 18.8491 12.7161 18.2145 12.7161C17.5438 12.7161 16.0103 11.8364 14.8036 11.8364C12.3133 11.8748 9.66675 13.8219 9.66675 17.7832C9.66675 18.9539 9.88068 20.163 10.3086 21.4081C10.8806 23.0475 12.9431 27.0641 15.0944 26.9992C16.2194 26.9728 17.015 26.2012 18.4789 26.2012C19.8995 26.2012 20.6351 26.9992 21.8898 26.9992C24.0604 26.968 25.9257 23.3167 26.469 21.6725C23.558 20.3 23.7143 17.6534 23.7143 17.5693Z" fill="black"/>
<path d="M21.188 10.2379C22.4067 8.7908 22.2962 7.47354 22.2601 7C21.1832 7.0625 19.9381 7.73314 19.229 8.55763C18.4478 9.44221 17.9887 10.5359 18.0872 11.769C19.2506 11.858 20.3131 11.2594 21.188 10.2379Z" fill="black"/>
<rect x="0.25" y="0.25" width="35.5" height="35.5" rx="17.75" stroke="#DEE2E8" stroke-width="0.5"/>
</svg>
