<svg width="64" height="64" viewBox="0 0 64 64" fill="none" xmlns="http://www.w3.org/2000/svg">
<g clip-path="url(#clip0_8553_3363)">
<circle cx="32" cy="32" r="32" fill="black"/>
<path d="M19.1508 45.5593H10.1965L20.0662 18.4392H29.0204L19.1508 45.5593Z" fill="white"/>
<path d="M29.9944 45.56H38.9487L29.079 18.4398H20.1248L29.9944 45.56Z" fill="white"/>
<path d="M16.377 36.1769V42.9855H32.3973V36.1769H16.377Z" fill="white"/>
<path d="M51.6206 19.6693L53.4801 24.7329H41.5506L43.2385 26.7354C43.2385 26.7354 43.3529 26.8784 51.9925 35.8899C52.5932 36.8339 52.9079 37.778 52.9079 38.7793C52.9079 40.2955 52.393 41.5828 51.3631 42.6985C50.3332 43.8142 49.1317 44.3292 47.7013 44.3292H34.9995V39.237H48.4165L46.414 37.1486L37.7172 28.08C37.1164 27.3362 36.8304 26.3921 36.8304 25.1906C36.8304 23.6744 37.3453 22.387 38.3752 21.2713C39.4051 20.1842 40.6066 19.6407 42.037 19.6407H51.6492M52.4788 18.4391H42.0084C40.2061 18.4391 38.6899 19.1257 37.4311 20.4703C36.1724 21.8149 35.5716 23.3883 35.5716 25.2192C35.5716 26.7068 35.9721 27.9369 36.7731 28.9096L45.5271 38.0355H33.7407V45.5879H47.6727C49.4464 45.5879 50.9626 44.9013 52.2213 43.5568C53.4801 42.2122 54.1094 40.6102 54.1094 38.8079C54.1094 37.5205 53.7089 36.2904 52.9365 35.1461C47.1578 29.1098 44.2112 26.0774 44.1539 25.9916H55.2251L52.4788 18.4391Z" fill="white"/>
</g>
<defs>
<clipPath id="clip0_8553_3363">
<rect width="45" height="27.1202" fill="white" transform="translate(10.1965 18.4392)"/>
</clipPath>
</defs>
</svg>
