<svg width="24" height="24" viewBox="0 0 24 24" fill="none" xmlns="http://www.w3.org/2000/svg">
<path d="M18.9844 15.6094L15.4219 12L18.9844 8.39062L17.5781 6.98438L14.0156 10.5938L10.4062 6.98438L9 8.39062L12.6094 12L9 15.6094L10.4062 17.0156L14.0156 13.4062L17.5781 17.0156L18.9844 15.6094ZM21.9844 3C22.5156 3 22.9844 3.20312 23.3906 3.60938C23.7969 4.01562 24 4.48438 24 5.01562V18.9844C24 19.5156 23.7969 19.9844 23.3906 20.3906C22.9844 20.7969 22.5156 21 21.9844 21H6.98438C6.35938 21 5.82812 20.7031 5.39062 20.1094L0 12L5.39062 3.89062C5.82812 3.29688 6.35938 3 6.98438 3H21.9844Z" fill="#B6BABF"/>
</svg>
