<svg width="29" height="28" viewBox="0 0 29 28" fill="none" xmlns="http://www.w3.org/2000/svg">
<g id="money_11103991">
<path id="Coin" fill-rule="evenodd" clip-rule="evenodd" d="M15.7917 7.00008C15.7917 6.30008 15.325 5.83341 14.625 5.83341C13.925 5.83341 13.4584 6.30008 13.4584 7.00008C13.4584 7.70008 12.875 8.16675 12.2917 8.40008C10.8917 8.86675 9.95835 10.1501 9.95835 11.6667C9.95835 13.6501 11.475 15.1667 13.4584 15.1667H15.7917C16.4917 15.1667 16.9584 15.6334 16.9584 16.3334C16.9584 17.0334 16.4917 17.5001 15.7917 17.5001H15.325C14.275 17.5001 13.225 17.3834 12.175 17.0334C11.5917 16.8001 10.8917 17.1501 10.6584 17.7334C10.425 18.3167 10.775 19.0167 11.3584 19.2501C11.5917 19.3667 11.9417 19.3667 12.175 19.4834C12.525 19.6001 12.6417 19.6001 12.7584 19.7167C13.1084 19.8334 13.3417 20.1834 13.4584 20.5334V21.1167C13.4584 21.8167 13.925 22.2834 14.625 22.2834C15.325 22.2834 15.7917 21.8167 15.7917 21.1167C15.7917 20.4167 16.375 19.9501 16.9584 19.7167C18.3584 19.2501 19.2917 17.9667 19.2917 16.4501C19.2917 14.4667 17.775 12.9501 15.7917 12.9501H13.4584C12.7584 12.9501 12.2917 12.4834 12.2917 11.7834C12.2917 11.0834 12.7584 10.6167 13.4584 10.6167H13.925C14.975 10.6167 16.025 10.7334 17.075 11.0834C17.6584 11.3167 18.3584 10.9667 18.5917 10.3834C18.825 9.80008 18.475 9.10008 17.8917 8.86675C17.6584 8.75008 17.3084 8.75008 17.075 8.63341C16.725 8.51675 16.6084 8.51675 16.4917 8.40008C16.1417 8.16675 15.9084 7.93341 15.7917 7.58341C15.7917 7.46675 15.7917 7.35008 15.7917 7.00008ZM1.79169 14.0001C1.79169 6.88341 7.50835 1.16675 14.625 1.16675C21.7417 1.16675 27.4584 6.88341 27.4584 14.0001C27.4584 21.1167 21.7417 26.8334 14.625 26.8334C7.50835 26.8334 1.79169 21.1167 1.79169 14.0001Z" fill="#151318"/>
</g>
</svg>
