<svg width="49" height="48" viewBox="0 0 49 48" fill="none" xmlns="http://www.w3.org/2000/svg">
<circle cx="24" cy="24" r="24" fill="#F7F7F9"/>
<path d="M25.5715 31.5625C25.5715 31.7006 25.4595 31.8125 25.3215 31.8125H24.0715C23.9334 31.8125 23.8215 31.7006 23.8215 31.5625V24.875H17.134C16.996 24.875 16.884 24.7631 16.884 24.625V23.375C16.884 23.2369 16.996 23.125 17.134 23.125H23.8215V16.4375C23.8215 16.2994 23.9334 16.1875 24.0715 16.1875H25.3215C25.4595 16.1875 25.5715 16.2994 25.5715 16.4375V23.125H32.259C32.3971 23.125 32.509 23.2369 32.509 23.375V24.625C32.509 24.7631 32.3971 24.875 32.259 24.875H25.5715V31.5625Z" fill="#25272A"/>
</svg>
