<svg width="20" height="20" viewBox="0 0 20 20" fill="none" xmlns="http://www.w3.org/2000/svg">
<path d="M6.32628 5.35107C6.32628 3.28001 8.00521 1.60107 10.0763 1.60107C12.1474 1.60107 13.8263 3.28001 13.8263 5.35107C13.8263 7.42214 12.1474 9.10107 10.0763 9.10107C8.00521 9.10107 6.32628 7.42214 6.32628 5.35107ZM10.0763 3.10107C8.83364 3.10107 7.82628 4.10843 7.82628 5.35107C7.82628 6.59372 8.83364 7.60107 10.0763 7.60107C11.3189 7.60107 12.3263 6.59372 12.3263 5.35107C12.3263 4.10843 11.3189 3.10107 10.0763 3.10107ZM10.071 11.75C10.3109 11.75 10.5478 11.7593 10.7811 11.7773C11.1941 11.8092 11.5548 11.5003 11.5867 11.0874C11.6186 10.6744 11.3097 10.3137 10.8968 10.2818C10.625 10.2607 10.3495 10.25 10.071 10.25C7.83193 10.25 5.77728 10.9451 4.26661 12.1036C2.75519 13.2627 1.75781 14.9165 1.75781 16.8C1.75781 17.2142 2.0936 17.55 2.50781 17.55H10.071C10.4852 17.55 10.821 17.2142 10.821 16.8C10.821 16.3858 10.4852 16.05 10.071 16.05H3.3335C3.54434 15.0132 4.18875 14.0536 5.17942 13.2939C6.40608 12.3532 8.13301 11.75 10.071 11.75ZM13.2501 14.6346C13.2501 13.8161 13.9136 13.1526 14.7321 13.1526C15.5506 13.1526 16.2141 13.8161 16.2141 14.6346C16.2141 15.453 15.5506 16.1165 14.7321 16.1165C13.9136 16.1165 13.2501 15.453 13.2501 14.6346ZM14.7321 11.6526C13.0852 11.6526 11.7501 12.9877 11.7501 14.6346C11.7501 16.2815 13.0852 17.6165 14.7321 17.6165C16.379 17.6165 17.7141 16.2815 17.7141 14.6346C17.7141 12.9877 16.379 11.6526 14.7321 11.6526Z" fill="#5B8EF4"/>
<path d="M16.0425 15.6114C16.3245 15.3081 16.7991 15.2907 17.1024 15.5728L18.9882 17.3257C19.2916 17.6077 19.3089 18.0823 19.0269 18.3856C18.7448 18.689 18.2703 18.7063 17.9669 18.4243L16.0812 16.6714C15.7778 16.3894 15.7605 15.9148 16.0425 15.6114Z" fill="#5B8EF4"/>
</svg>
