<svg width="20" height="20" viewBox="0 0 20 20" fill="none" xmlns="http://www.w3.org/2000/svg">
<path d="M8.50004 8.34529L8.50004 4.80942L2.33007 10.0001L8.50004 15.1908L8.50004 11.6549L10.8572 11.6549C13.471 11.6549 15.982 12.5263 18.0138 14.0902C17.2826 10.7733 14.3308 8.34529 10.8572 8.34529L8.50004 8.34529ZM19.8824 17.2221C19.9175 17.577 19.4703 17.761 19.2454 17.4843L18.7983 16.9341C18.7189 16.8364 18.6378 16.7404 18.5552 16.6461C18.4683 16.5468 18.3797 16.4494 18.2893 16.3539C16.5115 14.4751 14.0847 13.3376 11.5 13.1751C11.2867 13.1617 11.0724 13.1549 10.8572 13.1549L10 13.1549L10 16.9399C10 17.5228 9.31891 17.8399 8.87288 17.4646L1.03957 10.8746C0.496739 10.418 0.496737 9.58223 1.03957 9.12555L8.87288 2.53554C9.31891 2.16031 10 2.47739 10 3.06026L10 6.84529L10.8572 6.84529C15.3973 6.84529 19.1974 10.2884 19.6437 14.8065L19.8824 17.2221Z" fill="#515A62"/>
</svg>
