<svg width="25" height="24" viewBox="0 0 25 24" fill="none" xmlns="http://www.w3.org/2000/svg">
<path d="M16.125 7.5C16.125 5.63604 14.614 4.125 12.75 4.125C10.886 4.125 9.375 5.63604 9.375 7.5C9.375 9.36396 10.886 10.875 12.75 10.875C14.614 10.875 16.125 9.36396 16.125 7.5ZM18 7.5C18 10.3995 15.6495 12.75 12.75 12.75C9.8505 12.75 7.5 10.3995 7.5 7.5C7.5 4.60051 9.8505 2.25 12.75 2.25C15.6495 2.25 18 4.60051 18 7.5ZM19.0119 21.5372C18.8818 21.6672 18.7159 21.7395 18.5459 21.7541C18.3326 21.7728 18.1129 21.7006 17.9496 21.5373L15.3002 18.8879C15.1831 18.7707 15.1831 18.5808 15.3002 18.4636L16.2018 17.5621C16.3189 17.4449 16.5089 17.4449 16.626 17.5621L18.4807 19.4167L21.7166 16.1808C21.8337 16.0637 22.0237 16.0637 22.1408 16.1808L23.0424 17.0824C23.1596 17.1996 23.1596 17.3895 23.0424 17.5067L19.0119 21.5372ZM4.875 19.875H14.0781V21.75H3.75C3.33579 21.75 3 21.4142 3 21V16.645C3 16.3668 3.15639 16.1122 3.40454 15.9864C6.81195 14.2595 10.5784 13.5342 14.2873 13.8106V15.6913C11.0942 15.4295 7.84944 15.9849 4.875 17.3575V19.875Z" fill="#C0C3C7"/>
</svg>
