<svg width="32" height="32" viewBox="0 0 32 32" fill="none" xmlns="http://www.w3.org/2000/svg">
<g clip-path="url(#clip0_3275_10985)">
<circle cx="16" cy="16" r="16" fill="#E7F0FC"/>
<path d="M19.6033 15.8895C20.742 15.8895 21.6651 14.9664 21.6651 13.8277C21.6651 12.689 20.742 11.7659 19.6033 11.7659C18.4646 11.7659 17.5415 12.689 17.5415 13.8277C17.5415 14.9664 18.4646 15.8895 19.6033 15.8895Z" fill="#5B8EF4"/>
<path d="M13.7231 15.6828C15.2413 15.6828 16.4721 14.452 16.4721 12.9338C16.4721 11.4156 15.2413 10.1848 13.7231 10.1848C12.2049 10.1848 10.9741 11.4156 10.9741 12.9338C10.9741 14.452 12.2049 15.6828 13.7231 15.6828Z" fill="#5B8EF4"/>
<path fill-rule="evenodd" clip-rule="evenodd" d="M20.2574 20.489C20.2579 20.4768 20.2582 20.4646 20.2582 20.4522V20.0762C20.2582 18.6233 19.4835 17.3512 18.3247 16.6507C18.4982 16.6219 18.6763 16.6069 18.8579 16.6069H20.3493C22.136 16.6069 23.5844 18.0553 23.5844 19.842C23.5844 20.1994 23.2948 20.489 22.9374 20.489H20.2574Z" fill="#5B8EF4"/>
<path d="M8.41553 21.0154C8.41553 21.4573 8.7737 21.8154 9.21553 21.8154H18.2308C18.6727 21.8154 19.0308 21.4573 19.0308 21.0154V20.6394C19.0308 18.4303 17.24 16.6394 15.0308 16.6394H12.4155C10.2064 16.6394 8.41553 18.4303 8.41553 20.6394L8.41553 21.0154Z" fill="#5B8EF4"/>
</g>
<defs>
<clipPath id="clip0_3275_10985">
<rect width="32" height="32" fill="white"/>
</clipPath>
</defs>
</svg>
