<svg width="20" height="20" viewBox="0 0 20 20" fill="none" xmlns="http://www.w3.org/2000/svg">
<path fill-rule="evenodd" clip-rule="evenodd" d="M20 10C20 4.47715 15.5228 0 10 0C4.47715 0 0 4.47715 0 10C0 15.5228 4.47715 20 10 20C15.5228 20 20 15.5228 20 10ZM1.62498 9.99998C1.62498 5.3746 5.3746 1.62498 9.99998 1.62498C14.6254 1.62498 18.375 5.3746 18.375 9.99998C18.375 14.6254 14.6254 18.375 9.99998 18.375C5.3746 18.375 1.62498 14.6254 1.62498 9.99998ZM9.14892 9.1489H5.79228C5.32223 9.1489 4.94118 9.52996 4.94118 10C4.94118 10.4701 5.32223 10.8511 5.79228 10.8511H9.14892V14.2077C9.14892 14.6778 9.52997 15.0589 10 15.0589C10.4701 15.0589 10.8511 14.6778 10.8511 14.2077V10.8511H14.2078C14.6778 10.8511 15.0589 10.4701 15.0589 10C15.0589 9.52996 14.6778 9.1489 14.2078 9.1489H10.8511V5.79225C10.8511 5.32219 10.4701 4.94114 10 4.94114C9.52997 4.94114 9.14892 5.32219 9.14892 5.79225V9.1489Z" fill="#5B8EF4"/>
</svg>
