<svg width="14" height="14" viewBox="0 0 14 14" fill="none" xmlns="http://www.w3.org/2000/svg">
<g clip-path="url(#clip0_4267_10038)">
<circle cx="7.00005" cy="7.00005" r="6.61111" fill="#5B8EF4" stroke="white" stroke-width="0.777778"/>
<path d="M8.75006 6.94471C9.3036 6.94471 9.75233 6.49598 9.75233 5.94245C9.75233 5.38891 9.3036 4.94019 8.75006 4.94019C8.19653 4.94019 7.7478 5.38891 7.7478 5.94245C7.7478 6.49598 8.19653 6.94471 8.75006 6.94471Z" fill="white"/>
<path d="M5.89174 6.84427C6.62977 6.84427 7.22806 6.24598 7.22806 5.50795C7.22806 4.76992 6.62977 4.17163 5.89174 4.17163C5.15371 4.17163 4.55542 4.76992 4.55542 5.50795C4.55542 6.24598 5.15371 6.84427 5.89174 6.84427Z" fill="white"/>
<path fill-rule="evenodd" clip-rule="evenodd" d="M9.06789 9.18059C9.06816 9.17466 9.0683 9.16869 9.0683 9.16269V8.97989C9.0683 8.27361 8.69173 7.65527 8.12842 7.31471C8.21273 7.30073 8.2993 7.29346 8.38757 7.29346H9.1126C9.98113 7.29346 10.6852 7.99754 10.6852 8.86607C10.6852 9.03978 10.5444 9.18059 10.3707 9.18059H9.06789Z" fill="white"/>
<path d="M3.31177 9.43644C3.31177 9.65122 3.48588 9.82533 3.70066 9.82533H8.08311C8.29789 9.82533 8.472 9.65122 8.472 9.43644V9.25365C8.472 8.17976 7.60144 7.3092 6.52755 7.3092H5.25621C4.18233 7.3092 3.31177 8.17976 3.31177 9.25365L3.31177 9.43644Z" fill="white"/>
</g>
<defs>
<clipPath id="clip0_4267_10038">
<rect width="14" height="14" fill="white"/>
</clipPath>
</defs>
</svg>
