<svg width="14" height="14" viewBox="0 0 14 14" fill="none" xmlns="http://www.w3.org/2000/svg">
<g clip-path="url(#clip0_10536_12371)">
<circle cx="7.00005" cy="7.00005" r="6.61111" fill="#5D42FF" stroke="white" stroke-width="0.777778"/>
<path d="M8.75019 6.94471C9.30372 6.94471 9.75245 6.49598 9.75245 5.94245C9.75245 5.38891 9.30372 4.94019 8.75019 4.94019C8.19665 4.94019 7.74792 5.38891 7.74792 5.94245C7.74792 6.49598 8.19665 6.94471 8.75019 6.94471Z" fill="white"/>
<path d="M5.89174 6.84427C6.62977 6.84427 7.22806 6.24598 7.22806 5.50795C7.22806 4.76992 6.62977 4.17163 5.89174 4.17163C5.15371 4.17163 4.55542 4.76992 4.55542 5.50795C4.55542 6.24598 5.15371 6.84427 5.89174 6.84427Z" fill="white"/>
<path fill-rule="evenodd" clip-rule="evenodd" d="M9.06802 9.18059C9.06828 9.17466 9.06842 9.16869 9.06842 9.16269V8.97989C9.06842 8.27361 8.69185 7.65527 8.12854 7.31471C8.21285 7.30073 8.29942 7.29346 8.38769 7.29346H9.11272C9.98125 7.29346 10.6853 7.99754 10.6853 8.86607C10.6853 9.03978 10.5445 9.18059 10.3708 9.18059H9.06802Z" fill="white"/>
<path d="M3.31165 9.43644C3.31165 9.65122 3.48576 9.82533 3.70053 9.82533H8.08299C8.29776 9.82533 8.47188 9.65122 8.47188 9.43644V9.25365C8.47188 8.17976 7.60132 7.3092 6.52743 7.3092H5.25609C4.1822 7.3092 3.31165 8.17976 3.31165 9.25365L3.31165 9.43644Z" fill="white"/>
</g>
<defs>
<clipPath id="clip0_10536_12371">
<rect width="14" height="14" fill="white"/>
</clipPath>
</defs>
</svg>
