<svg width="24" height="24" viewBox="0 0 24 24" fill="none" xmlns="http://www.w3.org/2000/svg">
<path d="M7.59132 6.42236C7.59132 3.93708 9.60603 1.92236 12.0913 1.92236C14.5766 1.92236 16.5913 3.93708 16.5913 6.42236C16.5913 8.90765 14.5766 10.9224 12.0913 10.9224C9.60603 10.9224 7.59132 8.90765 7.59132 6.42236ZM12.0913 3.72236C10.6001 3.72236 9.39132 4.9312 9.39132 6.42236C9.39132 7.91354 10.6001 9.12236 12.0913 9.12236C13.5825 9.12236 14.7913 7.91354 14.7913 6.42236C14.7913 4.9312 13.5825 3.72236 12.0913 3.72236ZM12.7273 14.1013C11.9163 14.1013 11.135 14.1918 10.3993 14.3595C9.91467 14.47 9.43225 14.1667 9.32179 13.6821C9.21132 13.1974 9.51464 12.715 9.99926 12.6046C10.867 12.4068 11.7825 12.3013 12.7273 12.3013C17.9486 12.3013 22.5886 15.6219 22.5886 20.1613C22.5886 20.6583 22.1857 21.0613 21.6886 21.0613H11.3993C10.9022 21.0613 10.4993 20.6583 10.4993 20.1613C10.4993 19.6642 10.9022 19.2613 11.3993 19.2613H20.6964C20.1253 16.4794 16.9542 14.1013 12.7273 14.1013ZM3.06179 17.5433C2.71031 17.1918 2.14047 17.1918 1.78899 17.5433C1.43752 17.8948 1.43752 18.4646 1.78899 18.8161L4.16269 21.1898C4.33186 21.3589 4.56142 21.4538 4.80066 21.4534C5.0399 21.453 5.26913 21.3573 5.43771 21.1876L9.52526 17.0713C9.8755 16.7186 9.8735 16.1488 9.52081 15.7985C9.16811 15.4483 8.59826 15.4503 8.24802 15.803L4.79686 19.2784L3.06179 17.5433Z" fill="#5B8EF4"/>
</svg>
