<svg width="25" height="24" viewBox="0 0 25 24" fill="none" xmlns="http://www.w3.org/2000/svg">
<path d="M1.5 12C1.5 5.92486 6.42487 1 12.5 1C18.5751 1 23.5 5.92486 23.5 12C23.5 18.0751 18.5751 23 12.5 23C6.42487 23 1.5 18.0751 1.5 12ZM12.5 3C7.52944 3 3.5 7.02943 3.5 12C3.5 16.9706 7.52944 21 12.5 21C17.4706 21 21.5 16.9706 21.5 12C21.5 7.02943 17.4706 3 12.5 3Z" fill="#515A62"/>
<path d="M8.14935 14.9743C8.33156 14.6795 8.65342 14.5 9 14.5H16C16.3466 14.5 16.6684 14.6795 16.8507 14.9743C17.0329 15.2691 17.0494 15.6372 16.8944 15.9472L16.894 15.9481L16.8935 15.9491L16.8925 15.9511L16.8901 15.9557L16.8842 15.9672C16.8797 15.9758 16.8741 15.9864 16.8675 15.9987C16.8541 16.0234 16.8362 16.0554 16.8137 16.0936C16.7687 16.1699 16.7048 16.2718 16.6207 16.3905C16.4532 16.627 16.2008 16.9372 15.8519 17.2474C15.1456 17.8752 14.0428 18.5 12.5 18.5C10.9572 18.5 9.85443 17.8752 9.14814 17.2474C8.7992 16.9372 8.54677 16.627 8.37929 16.3905C8.29516 16.2718 8.23127 16.1699 8.18631 16.0936C8.1638 16.0554 8.14593 16.0234 8.13255 15.9987C8.12586 15.9864 8.12027 15.9758 8.11579 15.9672L8.10987 15.9557L8.10752 15.9511L8.1065 15.9491L8.10602 15.9481C8.10602 15.9481 8.10987 15.9557 8.10557 15.9472C7.95058 15.6372 7.96714 15.2691 8.14935 14.9743Z" fill="#515A62"/>
<path d="M16 8.80005C16.6628 8.80005 17.2 9.33731 17.2 10V10.6C17.2 11.2628 16.6628 11.8 16 11.8C15.3373 11.8 14.8 11.2628 14.8 10.6V10C14.8 9.33731 15.3373 8.80005 16 8.80005Z" fill="#515A62"/>
<path d="M9.00005 8.80005C9.66279 8.80005 10.2 9.33731 10.2 10V10.6C10.2 11.2628 9.66279 11.8 9.00005 11.8C8.33731 11.8 7.80005 11.2628 7.80005 10.6V10C7.80005 9.33731 8.33731 8.80005 9.00005 8.80005Z" fill="#515A62"/>
</svg>
