<svg width="25" height="24" viewBox="0 0 25 24" fill="none" xmlns="http://www.w3.org/2000/svg">
<path d="M23.5 11.3C23.5 16.5468 18.5751 20.8 12.5 20.8C11.2147 20.8 9.98097 20.6097 8.83442 20.2598L4.93266 22.3254C4.47145 22.5696 3.93993 22.1493 4.07123 21.6442L4.96176 18.2186C2.83062 16.486 1.5 14.0272 1.5 11.3C1.5 6.05334 6.42487 1.80005 12.5 1.80005C18.5751 1.80005 23.5 6.05334 23.5 11.3ZM8.9 11C8.9 10.3373 8.36274 9.80005 7.7 9.80005C7.03726 9.80005 6.5 10.3373 6.5 11C6.5 11.6628 7.03726 12.2 7.7 12.2C8.36274 12.2 8.9 11.6628 8.9 11ZM12.5 12.2C13.1628 12.2 13.7 11.6628 13.7 11C13.7 10.3373 13.1628 9.80005 12.5 9.80005C11.8373 9.80005 11.3 10.3373 11.3 11C11.3 11.6628 11.8373 12.2 12.5 12.2ZM18.5001 11C18.5001 10.3373 17.9628 9.80005 17.3001 9.80005C16.6374 9.80005 16.1001 10.3373 16.1001 11C16.1001 11.6628 16.6374 12.2 17.3001 12.2C17.9628 12.2 18.5001 11.6628 18.5001 11Z" fill="#5B8EF4"/>
</svg>
