<svg width="21" height="20" viewBox="0 0 21 20" fill="none" xmlns="http://www.w3.org/2000/svg">
<path d="M8.19277 12.6067C8.58005 12.6067 8.95411 12.7476 9.24515 13.0031L13.8827 17.0742L13.8827 16.156L15.478 17.4643L15.478 18.1311C15.478 19.0914 14.3463 19.6038 13.6247 18.9704L8.19277 14.2019H4.15212C3.53542 14.2019 3.03548 13.702 3.03548 13.0853V7.25936L4.63068 8.56771V12.6067H8.19277ZM15.4777 11.6724L13.8825 10.364L13.8822 2.92532L9.50031 6.76984L8.25017 5.74451L13.6243 1.02944C14.346 0.39627 15.4773 0.908721 15.4774 1.86879L15.4777 11.6724ZM1.5 3.97791L19.2486 18.8536L20.2773 17.6289L2.52864 2.75322L1.5 3.97791Z" fill="#515A62"/>
</svg>
