<svg width="24" height="24" viewBox="0 0 24 24" fill="none" xmlns="http://www.w3.org/2000/svg">
<path d="M3.5001 4.9001C3.16873 4.9001 2.9001 5.16873 2.9001 5.5001V18.5001C2.9001 18.8315 3.16873 19.1001 3.5001 19.1001H20.5001C20.8315 19.1001 21.1001 18.8315 21.1001 18.5001V5.5001C21.1001 5.16873 20.8315 4.9001 20.5001 4.9001H3.5001ZM1.1001 5.5001C1.1001 4.17461 2.17461 3.1001 3.5001 3.1001H20.5001C21.8256 3.1001 22.9001 4.17461 22.9001 5.5001V18.5001C22.9001 19.8256 21.8256 20.9001 20.5001 20.9001H3.5001C2.17461 20.9001 1.1001 19.8256 1.1001 18.5001V5.5001Z" fill="#25272A"/>
<path d="M9.08742 11.7601C9.04903 11.7272 8.99209 11.7281 8.95483 11.7623L3.60825 16.6633C3.24185 16.9992 2.67254 16.9744 2.33666 16.608C2.00079 16.2416 2.02554 15.6723 2.39195 15.3364L7.73848 10.4355C7.73847 10.4355 7.73848 10.4355 7.73848 10.4355C8.44701 9.78595 9.52907 9.76788 10.2589 10.3934C10.2589 10.3934 10.2589 10.3935 10.2589 10.3934L16.5858 15.8165C16.9632 16.14 17.0069 16.7082 16.6834 17.0856C16.36 17.463 15.7918 17.5067 15.4144 17.1832L9.08742 11.7601Z" fill="#25272A"/>
<path d="M17.1539 12.2404C17.1141 12.2105 17.0584 12.2146 17.0232 12.2497L14.6365 14.6364C14.285 14.9879 13.7152 14.9879 13.3637 14.6364C13.0122 14.285 13.0122 13.7151 13.3637 13.3636L15.7505 10.9769C16.419 10.3083 17.4775 10.2331 18.2339 10.8004L18.2339 10.8004L21.5401 13.28C21.9377 13.5783 22.0183 14.1424 21.7201 14.54C21.4219 14.9377 20.8577 15.0183 20.4601 14.72L17.154 12.2404C17.154 12.2404 17.154 12.2404 17.1539 12.2404Z" fill="#25272A"/>
</svg>
