<svg width="25" height="24" viewBox="0 0 25 24" fill="none" xmlns="http://www.w3.org/2000/svg">
<path d="M9.01537 3.01403C9.1809 2.75608 9.46633 2.6001 9.77283 2.6001H15.2274C15.5339 2.6001 15.8193 2.75608 15.9848 3.01403L17.5374 5.43343H21.0001C22.3256 5.43343 23.4001 6.50795 23.4001 7.83343V19.0001C23.4001 20.3256 22.3256 21.4001 21.0001 21.4001H4.0001C2.67461 21.4001 1.6001 20.3256 1.6001 19.0001V7.83343C1.6001 6.50795 2.67461 5.43343 4.0001 5.43343H7.46281L9.01537 3.01403ZM10.2647 4.4001L8.7121 6.8195C8.54657 7.07745 8.26114 7.23343 7.95464 7.23343H4.0001C3.66873 7.23343 3.4001 7.50206 3.4001 7.83343V19.0001C3.4001 19.3315 3.66873 19.6001 4.0001 19.6001H21.0001C21.3315 19.6001 21.6001 19.3315 21.6001 19.0001V7.83343C21.6001 7.50206 21.3315 7.23343 21.0001 7.23343H17.0456C16.7391 7.23343 16.4536 7.07745 16.2881 6.8195L14.7355 4.4001H10.2647Z" fill="#25272A"/>
<path d="M7.8501 13.0001C7.8501 10.4319 9.93192 8.3501 12.5001 8.3501C15.0683 8.3501 17.1501 10.4319 17.1501 13.0001C17.1501 15.5683 15.0683 17.6501 12.5001 17.6501C9.93192 17.6501 7.8501 15.5683 7.8501 13.0001ZM12.5001 10.1501C10.926 10.1501 9.6501 11.426 9.6501 13.0001C9.6501 14.5742 10.926 15.8501 12.5001 15.8501C14.0742 15.8501 15.3501 14.5742 15.3501 13.0001C15.3501 11.426 14.0742 10.1501 12.5001 10.1501Z" fill="#25272A"/>
</svg>
