<svg width="25" height="24" viewBox="0 0 25 24" fill="none" xmlns="http://www.w3.org/2000/svg">
<path d="M16.125 7.5C16.125 5.63604 14.614 4.125 12.75 4.125C10.886 4.125 9.375 5.63604 9.375 7.5C9.375 9.36396 10.886 10.875 12.75 10.875C14.614 10.875 16.125 9.36396 16.125 7.5ZM18 7.5C18 10.3995 15.6495 12.75 12.75 12.75C9.8505 12.75 7.5 10.3995 7.5 7.5C7.5 4.60051 9.8505 2.25 12.75 2.25C15.6495 2.25 18 4.60051 18 7.5ZM16.8374 19.3125C16.6717 19.3125 16.5374 19.1782 16.5374 19.0125V17.7375C16.5374 17.5718 16.6717 17.4375 16.8374 17.4375H18.9749V15.3C18.9749 15.1343 19.1092 15 19.2749 15H20.5499C20.7155 15 20.8499 15.1343 20.8499 15.3V17.4375H22.9874C23.153 17.4375 23.2874 17.5718 23.2874 17.7375V19.0125C23.2874 19.1782 23.153 19.3125 22.9874 19.3125H20.8499V21.45C20.8499 21.6157 20.7155 21.75 20.5499 21.75H19.2749C19.1092 21.75 18.9749 21.6157 18.9749 21.45V19.3125H16.8374ZM4.875 19.875H14.8281V21.75H3.75C3.33579 21.75 3 21.4142 3 21V16.645C3 16.3668 3.15639 16.1122 3.40454 15.9864C6.97768 14.1755 10.9456 13.466 14.8281 13.8581V15.7436C11.4617 15.3693 8.01751 15.9073 4.875 17.3575V19.875Z" fill="#5D42FF"/>
</svg>
