<svg width="19" height="18" viewBox="0 0 19 18" fill="none" xmlns="http://www.w3.org/2000/svg">
<path d="M4.9119 13.626L4.49854 15.2161L6.29039 14.2675L6.88273 14.4482C7.69627 14.6965 8.57699 14.8332 9.49992 14.8332C13.9481 14.8332 17.1666 11.7615 17.1666 8.4165C17.1666 5.0715 13.9481 1.99977 9.49992 1.99977C5.05179 1.99977 1.83325 5.0715 1.83325 8.4165C1.83325 10.1766 2.68836 11.8181 4.1639 13.0178L4.9119 13.626ZM3.28449 17.5561C2.8652 17.7781 2.382 17.3959 2.50137 16.9368L3.21759 14.1817C1.44191 12.7378 0.333252 10.689 0.333252 8.4165C0.333252 4.0442 4.43731 0.499756 9.49992 0.499756C14.5625 0.499756 18.6666 4.0442 18.6666 8.4165C18.6666 12.7888 14.5625 16.3332 9.49992 16.3332C8.42872 16.3332 7.40044 16.1746 6.44487 15.8829L3.28449 17.5561ZM5.99023 8.44434C5.99023 8.03012 6.32602 7.69434 6.74023 7.69434H8.74976V5.68506C8.74976 5.27084 9.08554 4.93506 9.49976 4.93506C9.91397 4.93506 10.2498 5.27084 10.2498 5.68506V7.69434H12.2596C12.6738 7.69434 13.0096 8.03012 13.0096 8.44434C13.0096 8.85855 12.6738 9.19434 12.2596 9.19434H10.2498V11.2044C10.2498 11.6186 9.91397 11.9544 9.49976 11.9544C9.08554 11.9544 8.74976 11.6186 8.74976 11.2044V9.19434H6.74023C6.32602 9.19434 5.99023 8.85855 5.99023 8.44434Z" fill="#515A62"/>
</svg>
