<svg width="32" height="32" viewBox="0 0 32 32" fill="none" xmlns="http://www.w3.org/2000/svg">
<path d="M27.5 16C27.5 22.3513 22.3513 27.5 16 27.5C9.64872 27.5 4.5 22.3513 4.5 16C4.5 9.64872 9.64872 4.5 16 4.5C22.3513 4.5 27.5 9.64872 27.5 16ZM30 16C30 8.26801 23.732 2 16 2C8.26801 2 2 8.26801 2 16C2 23.732 8.26801 30 16 30C23.732 30 30 23.732 30 16ZM9.4 17.25C9.17909 17.25 9 17.0709 9 16.85V15.15C9 14.9291 9.17909 14.75 9.4 14.75H22.6C22.8209 14.75 23 14.9291 23 15.15V16.85C23 17.0709 22.8209 17.25 22.6 17.25H9.4Z" fill="#55585E"/>
</svg>
