<svg width="24" height="24" viewBox="0 0 24 24" fill="none" xmlns="http://www.w3.org/2000/svg">
<path d="M5.42385 6.01985C5.68903 5.70164 6.16195 5.65865 6.48016 5.92382L12 10.5237L17.5199 5.92382C17.8381 5.65865 18.311 5.70164 18.5762 6.01985C18.8414 6.33806 18.7984 6.81098 18.4802 7.07615L12.4802 12.0762C12.202 12.3079 11.798 12.3079 11.5199 12.0762L5.51988 7.07615C5.20167 6.81098 5.15868 6.33806 5.42385 6.01985Z" fill="#515A62"/>
<path d="M5.42385 12.0199C5.68903 11.7016 6.16195 11.6586 6.48016 11.9238L12 16.5237L17.5199 11.9238C17.8381 11.6586 18.311 11.7016 18.5762 12.0199C18.8414 12.3381 18.7984 12.811 18.4802 13.0762L12.4802 18.0762C12.202 18.3079 11.798 18.3079 11.5199 18.0762L5.51988 13.0762C5.20167 12.811 5.15868 12.3381 5.42385 12.0199Z" fill="#515A62"/>
</svg>
