<svg width="48" height="48" viewBox="0 0 48 48" fill="none" xmlns="http://www.w3.org/2000/svg">
<g clip-path="url(#clip0_3778_29836)">
<circle cx="24" cy="24" r="23.5" fill="#F7F8F9" stroke="#DEE2E8"/>
<path opacity="0.7" d="M14.5 23.3045C14.5 27.8755 18.7533 31.5811 24 31.5811C25.11 31.5811 26.1755 31.4152 27.1657 31.1104L30.5354 32.9101C30.9337 33.1228 31.3928 32.7566 31.2794 32.3166L30.5103 29.3321C32.3508 27.8226 33.5 25.6805 33.5 23.3045C33.5 18.7334 29.2467 15.0278 24 15.0278C18.7533 15.0278 14.5 18.7334 14.5 23.3045Z" fill="#B6BABF"/>
<path d="M24.3809 24.9777H23.193C23.1966 24.6474 23.225 24.3705 23.2783 24.1467C23.3315 23.9195 23.4203 23.7135 23.5446 23.5288C23.6725 23.3442 23.8411 23.1489 24.0506 22.9429C24.214 22.7866 24.3614 22.6393 24.4928 22.5008C24.6242 22.3587 24.7289 22.2096 24.807 22.0533C24.8852 21.8935 24.9242 21.7106 24.9242 21.5047C24.9242 21.281 24.8869 21.091 24.8124 20.9347C24.7378 20.7785 24.6277 20.6595 24.4821 20.5778C24.3401 20.4962 24.1625 20.4553 23.9494 20.4553C23.7719 20.4553 23.605 20.4908 23.4487 20.5619C23.2925 20.6293 23.1664 20.7359 23.0705 20.8815C22.9747 21.0235 22.9232 21.2117 22.9161 21.4461H21.6323C21.6394 20.9986 21.746 20.6222 21.9519 20.3168C22.1579 20.0114 22.4349 19.7824 22.7829 19.6297C23.1309 19.477 23.5198 19.4006 23.9494 19.4006C24.4253 19.4006 24.8319 19.4823 25.1693 19.6457C25.5066 19.8055 25.7641 20.0398 25.9416 20.3488C26.1227 20.6542 26.2133 21.0235 26.2133 21.4567C26.2133 21.7692 26.1511 22.0533 26.0269 22.309C25.9026 22.5611 25.741 22.7973 25.5421 23.0175C25.3433 23.2341 25.1284 23.4507 24.8976 23.6673C24.6987 23.8484 24.5638 24.0455 24.4928 24.2586C24.4217 24.4681 24.3845 24.7078 24.3809 24.9777ZM23.0865 26.6396C23.0865 26.4479 23.1522 26.2863 23.2836 26.1549C23.415 26.02 23.5943 25.9525 23.8216 25.9525C24.0489 25.9525 24.2282 26.02 24.3596 26.1549C24.491 26.2863 24.5567 26.4479 24.5567 26.6396C24.5567 26.8314 24.491 26.9947 24.3596 27.1297C24.2282 27.2611 24.0489 27.3268 23.8216 27.3268C23.5943 27.3268 23.415 27.2611 23.2836 27.1297C23.1522 26.9947 23.0865 26.8314 23.0865 26.6396Z" fill="#F7F8F9"/>
</g>
<defs>
<clipPath id="clip0_3778_29836">
<rect width="48" height="48" fill="white"/>
</clipPath>
</defs>
</svg>
