<svg width="25" height="24" viewBox="0 0 25 24" fill="none" xmlns="http://www.w3.org/2000/svg">
<path d="M12.0986 21.145C11.5063 21.145 10.9255 21.1018 10.36 21.0187C9.61701 20.9095 8.90043 20.7315 8.21895 20.4924C8.21895 20.4924 5.71192 21.6613 4.01328 22.4553C3.54267 22.6753 3.03357 22.2337 3.18393 21.7365L4.29067 18.0765C2.61709 16.436 1.59863 14.2654 1.59863 11.885C1.59863 6.77085 6.29964 2.625 12.0986 2.625C17.8976 2.625 22.5986 6.77085 22.5986 11.885C22.5986 16.9992 17.8976 21.145 12.0986 21.145ZM16.6735 13.235C17.4191 13.235 18.0235 12.6306 18.0235 11.885C18.0235 11.1394 17.4191 10.535 16.6735 10.535C15.9279 10.535 15.3235 11.1394 15.3235 11.885C15.3235 12.6306 15.9279 13.235 16.6735 13.235ZM13.4488 11.885C13.4488 11.1394 12.8444 10.535 12.0988 10.535C11.3532 10.535 10.7488 11.1394 10.7488 11.885C10.7488 12.6306 11.3532 13.235 12.0988 13.235C12.8444 13.235 13.4488 12.6306 13.4488 11.885ZM7.52334 13.235C8.26892 13.235 8.87334 12.6306 8.87334 11.885C8.87334 11.1394 8.26892 10.535 7.52334 10.535C6.77776 10.535 6.17334 11.1394 6.17334 11.885C6.17334 12.6306 6.77776 13.235 7.52334 13.235Z" fill="#B6BABF"/>
</svg>
