<svg width="16" height="16" viewBox="0 0 16 16" fill="none" xmlns="http://www.w3.org/2000/svg">
<path d="M7.33252 9.63379C7.57529 9.63379 7.80978 9.72211 7.99223 9.88227L10.8994 12.4343L10.8994 11.8587L11.8994 12.6789L11.8995 13.0969C11.8995 13.6988 11.19 14.0201 10.7377 13.623L7.33252 10.6338H4.79952C4.41292 10.6338 4.09952 10.3204 4.09952 9.93379V6.28169L5.09952 7.10185V9.63379H7.33252ZM11.8993 9.04807L10.8993 8.22788L10.8991 3.56482L8.15218 5.97483L7.3685 5.33208L10.7374 2.37635C11.1898 1.97943 11.899 2.30067 11.8991 2.90251L11.8993 9.04807ZM3.13696 4.22465L14.2632 13.5498L14.908 12.782L3.7818 3.45693L3.13696 4.22465Z" fill="#B6BABF"/>
</svg>
