<svg width="16" height="16" viewBox="0 0 16 16" fill="none" xmlns="http://www.w3.org/2000/svg">
<path d="M9.75 1.4H14.25C14.4433 1.4 14.6 1.5567 14.6 1.75V6.25C14.6 6.4433 14.4433 6.6 14.25 6.6H9.75C9.5567 6.6 9.4 6.4433 9.4 6.25V1.75C9.4 1.5567 9.5567 1.4 9.75 1.4Z" stroke="#5B8EF4" stroke-width="1.3" stroke-linecap="round" stroke-linejoin="round"/>
<path d="M1.75 9.4H6.25C6.4433 9.4 6.6 9.5567 6.6 9.75V14.25C6.6 14.4433 6.4433 14.6 6.25 14.6H1.75C1.5567 14.6 1.4 14.4433 1.4 14.25V9.75C1.4 9.5567 1.5567 9.4 1.75 9.4Z" stroke="#5B8EF4" stroke-width="1.3" stroke-linecap="round" stroke-linejoin="round"/>
<path d="M1.75 1.4H6.25C6.4433 1.4 6.6 1.5567 6.6 1.75V6.25C6.6 6.4433 6.4433 6.6 6.25 6.6H1.75C1.5567 6.6 1.4 6.4433 1.4 6.25V1.75C1.4 1.5567 1.5567 1.4 1.75 1.4Z" stroke="#5B8EF4" stroke-width="1.3" stroke-linecap="round" stroke-linejoin="round"/>
<circle cx="9.88202" cy="9.88202" r="0.986023" fill="#5B8EF4"/>
<circle cx="12" cy="11.9999" r="0.986023" fill="#5B8EF4"/>
<circle cx="9.88202" cy="14.1179" r="0.986023" fill="#5B8EF4"/>
<circle cx="14.118" cy="9.88202" r="0.986023" fill="#5B8EF4"/>
<circle cx="14.118" cy="14.1179" r="0.986023" fill="#5B8EF4"/>
</svg>
