<svg width="25" height="24" viewBox="0 0 25 24" fill="none" xmlns="http://www.w3.org/2000/svg">
<path d="M4 5C3.72386 5 3.5 5.22386 3.5 5.5V18.5C3.5 18.7761 3.72386 19 4 19H21C21.2761 19 21.5 18.7761 21.5 18.5V5.5C21.5 5.22386 21.2761 5 21 5H4ZM1.5 5.5C1.5 4.11929 2.61929 3 4 3H21C22.3807 3 23.5 4.11929 23.5 5.5V18.5C23.5 19.8807 22.3807 21 21 21H4C2.61929 21 1.5 19.8807 1.5 18.5V5.5Z" fill="#25272A"/>
<path d="M9.52227 11.836L4.17573 16.7369C3.76861 17.1101 3.13604 17.0826 2.76285 16.6755C2.38966 16.2684 2.41716 15.6358 2.82428 15.2626L8.1708 10.3617C8.17081 10.3617 8.17082 10.3616 8.17083 10.3616C8.91666 9.67793 10.0557 9.65895 10.8239 10.3175L17.1508 15.7405C17.5701 16.1 17.6187 16.7313 17.2593 17.1506C16.8998 17.5699 16.2685 17.6185 15.8492 17.259L9.52227 11.836Z" fill="#25272A"/>
<path d="M17.5939 12.3203L17.5939 12.3203L15.2071 14.707C14.8166 15.0976 14.1834 15.0976 13.7929 14.707C13.4024 14.3165 13.4024 13.6834 13.7929 13.2928L16.1796 10.9061C16.8834 10.2023 17.9976 10.1232 18.7938 10.7203L18.7938 10.7203L22.1 13.1999C22.5418 13.5313 22.6314 14.1581 22.3 14.5999C21.9686 15.0418 21.3418 15.1313 20.9 14.7999L17.5939 12.3204L17.5939 12.3203L17.5939 12.3203Z" fill="#25272A"/>
<path d="M2.5 9V14" stroke="#25272A" stroke-width="2" stroke-linecap="round" stroke-linejoin="round"/>
<path d="M22.5 9V14" stroke="#25272A" stroke-width="2" stroke-linecap="round" stroke-linejoin="round"/>
</svg>
