cg<svg width="20" height="21" viewBox="0 0 20 21" fill="none" xmlns="http://www.w3.org/2000/svg">
<path d="M15.4047 14.8481L3.69796 6.65101C3.13356 7.67715 2.8125 8.85601 2.8125 10.1099C2.8125 14.0794 6.03045 17.2974 10 17.2974C12.1544 17.2974 14.0873 16.3495 15.4047 14.8481ZM16.3019 13.5689C16.8664 12.5427 17.1875 11.3638 17.1875 10.1099C17.1875 6.14032 13.9695 2.92236 10 2.92236C7.84556 2.92236 5.91251 3.87027 4.59517 5.37179L16.3019 13.5689ZM18.75 10.1099C18.75 14.9424 14.8325 18.8599 10 18.8599C5.16751 18.8599 1.25 14.9424 1.25 10.1099C1.25 5.27737 5.16751 1.35986 10 1.35986C14.8325 1.35986 18.75 5.27737 18.75 10.1099Z" fill="#F53F3F"/>
</svg>
