<svg width="18" height="18" viewBox="0 0 18 18" fill="none" xmlns="http://www.w3.org/2000/svg">
<path d="M10.9688 1.575H16.0312C16.2487 1.575 16.425 1.75129 16.425 1.96875V7.03125C16.425 7.24871 16.2487 7.425 16.0312 7.425H10.9687C10.7513 7.425 10.575 7.24871 10.575 7.03125V1.96875C10.575 1.75129 10.7513 1.575 10.9688 1.575Z" stroke="white" stroke-width="1.4625" stroke-linecap="round" stroke-linejoin="round"/>
<path d="M1.96875 10.575H7.03125C7.24871 10.575 7.425 10.7513 7.425 10.9688V16.0312C7.425 16.2487 7.24871 16.425 7.03125 16.425H1.96875C1.75129 16.425 1.575 16.2487 1.575 16.0312V10.9687C1.575 10.7513 1.75129 10.575 1.96875 10.575Z" stroke="white" stroke-width="1.4625" stroke-linecap="round" stroke-linejoin="round"/>
<path d="M1.96875 1.575H7.03125C7.24871 1.575 7.425 1.75129 7.425 1.96875V7.03125C7.425 7.24871 7.24871 7.425 7.03125 7.425H1.96875C1.75129 7.425 1.575 7.24871 1.575 7.03125V1.96875C1.575 1.75129 1.75129 1.575 1.96875 1.575Z" stroke="white" stroke-width="1.4625" stroke-linecap="round" stroke-linejoin="round"/>
<circle cx="11.1173" cy="11.1171" r="1.10928" fill="white"/>
<circle cx="13.5" cy="13.4999" r="1.10928" fill="white"/>
<circle cx="11.1173" cy="15.8827" r="1.10928" fill="white"/>
<circle cx="15.8827" cy="11.1171" r="1.10928" fill="white"/>
<circle cx="15.8827" cy="15.8827" r="1.10928" fill="white"/>
</svg>
