<svg width="25" height="24" viewBox="0 0 25 24" fill="none" xmlns="http://www.w3.org/2000/svg">
<path d="M5.95534 19.6649L6.56544 17.6473L5.75453 16.8524C4.40123 15.5259 3.625 13.8239 3.625 12C3.625 8.13586 7.25818 4.61499 12.25 4.61499C17.2418 4.61499 20.875 8.13586 20.875 12C20.875 15.8641 17.2418 19.385 12.25 19.385C11.749 19.385 11.2593 19.3484 10.784 19.2786C10.1594 19.1868 9.55943 19.0375 8.9911 18.8381L8.2703 18.5852L5.95534 19.6649ZM5.22683 22.0741C6.7463 21.3646 8.37032 20.6074 8.37032 20.6074C9.0518 20.8465 9.76837 21.0245 10.5113 21.1337C11.0769 21.2168 11.6577 21.26 12.25 21.26C18.049 21.26 22.75 17.1142 22.75 12C22.75 6.88584 18.049 2.73999 12.25 2.73999C6.45101 2.73999 1.75 6.88584 1.75 12C1.75 14.3804 2.76846 16.551 4.44204 18.1914L3.3353 21.8515C3.18494 22.3487 3.69403 22.7903 4.16465 22.5703L5.22683 22.0741ZM16.8249 13.35C17.5704 13.35 18.1749 12.7455 18.1749 12C18.1749 11.2544 17.5704 10.65 16.8249 10.65C16.0793 10.65 15.4749 11.2544 15.4749 12C15.4749 12.7455 16.0793 13.35 16.8249 13.35ZM13.6001 12C13.6001 12.7455 12.9957 13.35 12.2501 13.35C11.5046 13.35 10.9001 12.7455 10.9001 12C10.9001 11.2544 11.5046 10.65 12.2501 10.65C12.9957 10.65 13.6001 11.2544 13.6001 12ZM7.67471 13.35C8.42029 13.35 9.02471 12.7455 9.02471 12C9.02471 11.2544 8.42029 10.65 7.67471 10.65C6.92912 10.65 6.32471 11.2544 6.32471 12C6.32471 12.7455 6.92912 13.35 7.67471 13.35Z" fill="#5D42FF"/>
</svg>
