<svg width="48" height="48" viewBox="0 0 48 48" fill="none" xmlns="http://www.w3.org/2000/svg">
<g clip-path="url(#clip0_10536_12353)">
<circle cx="24" cy="24" r="23.5" fill="#EFECFF" stroke="#5D42FF"/>
<path d="M28.5044 23.8616C29.9277 23.8616 31.0816 22.7078 31.0816 21.2844C31.0816 19.861 29.9277 18.7072 28.5044 18.7072C27.081 18.7072 25.9271 19.861 25.9271 21.2844C25.9271 22.7078 27.081 23.8616 28.5044 23.8616Z" fill="#5D42FF"/>
<path d="M21.1541 23.6033C23.0519 23.6033 24.5904 22.0649 24.5904 20.1671C24.5904 18.2693 23.0519 16.7308 21.1541 16.7308C19.2564 16.7308 17.7179 18.2693 17.7179 20.1671C17.7179 22.0649 19.2564 23.6033 21.1541 23.6033Z" fill="#5D42FF"/>
<path fill-rule="evenodd" clip-rule="evenodd" d="M29.3216 29.6112C29.3223 29.5959 29.3227 29.5806 29.3227 29.5652V29.0951C29.3227 27.279 28.3543 25.6889 26.9058 24.8132C27.1226 24.7773 27.3452 24.7585 27.5722 24.7585H29.4366C31.67 24.7585 33.4804 26.569 33.4804 28.8024C33.4804 29.2491 33.1184 29.6112 32.6717 29.6112H29.3216Z" fill="#5D42FF"/>
<path d="M14.5195 30.2691C14.5195 30.8214 14.9672 31.2691 15.5195 31.2691H26.7887C27.341 31.2691 27.7887 30.8214 27.7887 30.2691V29.7991C27.7887 27.0376 25.5501 24.7991 22.7887 24.7991H19.5195C16.7581 24.7991 14.5195 27.0376 14.5195 29.7991L14.5195 30.2691Z" fill="#5D42FF"/>
</g>
<defs>
<clipPath id="clip0_10536_12353">
<rect width="48" height="48" fill="white"/>
</clipPath>
</defs>
</svg>
