<svg width="20" height="20" viewBox="0 0 20 20" fill="none" xmlns="http://www.w3.org/2000/svg">
<path fill-rule="evenodd" clip-rule="evenodd" d="M10.0001 18.3333C14.6025 18.3333 18.3334 14.6023 18.3334 9.99996C18.3334 5.39758 14.6025 1.66663 10.0001 1.66663C5.39771 1.66663 1.66675 5.39758 1.66675 9.99996C1.66675 14.6023 5.39771 18.3333 10.0001 18.3333Z" stroke="#515A62" stroke-width="1.5" stroke-linejoin="round"/>
<path d="M10.0001 9.58329C11.1507 9.58329 12.0834 8.65054 12.0834 7.49996C12.0834 6.34938 11.1507 5.41663 10.0001 5.41663C8.8495 5.41663 7.91675 6.34938 7.91675 7.49996C7.91675 8.65054 8.8495 9.58329 10.0001 9.58329Z" stroke="#515A62" stroke-width="1.5" stroke-linejoin="round"/>
<path d="M4.17554 15.9717C4.31875 13.8003 6.12537 12.0834 8.33304 12.0834H11.6664C13.8711 12.0834 15.6759 13.7957 15.8233 15.9631" stroke="#515A62" stroke-width="1.5" stroke-linejoin="round"/>
</svg>
