<svg width="32" height="32" viewBox="0 0 32 32" fill="none" xmlns="http://www.w3.org/2000/svg">
<path d="M6 12.5H12.5V6H6V12.5ZM3.5 4.5C3.5 3.94772 3.94772 3.5 4.5 3.5H14C14.5523 3.5 15 3.94772 15 4.5V14C15 14.5523 14.5523 15 14 15H4.5C3.94772 15 3.5 14.5523 3.5 14V4.5ZM6 26H12.5V19.5H6V26ZM3.5 18C3.5 17.4477 3.94772 17 4.5 17H14C14.5523 17 15 17.4477 15 18V27.5C15 28.0523 14.5523 28.5 14 28.5H4.5C3.94772 28.5 3.5 28.0523 3.5 27.5V18ZM17 18C17 17.4477 17.4477 17 18 17H19.6C20.1523 17 20.6 17.4477 20.6 18V19.6C20.6 20.1523 20.1523 20.6 19.6 20.6H18C17.4477 20.6 17 20.1523 17 19.6V18ZM25.8999 17C25.3476 17 24.8999 17.4477 24.8999 18V19.6C24.8999 20.1523 25.3476 20.6 25.8999 20.6H27.4999C28.0522 20.6 28.4999 20.1523 28.4999 19.6V18C28.4999 17.4477 28.0522 17 27.4999 17H25.8999ZM20.95 21.95C20.95 21.3977 21.3977 20.95 21.95 20.95H23.5499C24.1022 20.95 24.55 21.3977 24.55 21.95V23.5499C24.55 24.1022 24.1022 24.55 23.55 24.55H21.95C21.3977 24.55 20.95 24.1022 20.95 23.55V21.95ZM18 24.9004C17.4477 24.9004 17 25.3481 17 25.9004V27.5004C17 28.0527 17.4477 28.5004 18 28.5004H19.6C20.1523 28.5004 20.6 28.0527 20.6 27.5004V25.9004C20.6 25.3481 20.1523 24.9004 19.6 24.9004H18ZM24.8999 25.9004C24.8999 25.3481 25.3476 24.9004 25.8999 24.9004H27.4999C28.0522 24.9004 28.4999 25.3481 28.4999 25.9004V27.5004C28.4999 28.0527 28.0522 28.5004 27.4999 28.5004H25.8999C25.3476 28.5004 24.8999 28.0527 24.8999 27.5004V25.9004ZM19.5 12.5H26V6H19.5V12.5ZM17 4.5C17 3.94772 17.4477 3.5 18 3.5H27.5C28.0523 3.5 28.5 3.94772 28.5 4.5V14C28.5 14.5523 28.0523 15 27.5 15H18C17.4477 15 17 14.5523 17 14V4.5Z" fill="#55585E"/>
</svg>
