<svg width="16" height="16" viewBox="0 0 16 16" fill="none" xmlns="http://www.w3.org/2000/svg">
<path fill-rule="evenodd" clip-rule="evenodd" d="M8 1C4.13438 1 1 4.13438 1 8C1 11.8656 4.13438 15 8 15C11.8656 15 15 11.8656 15 8C15 4.13438 11.8656 1 8 1ZM11.0428 11L9.86564 10.9946L8.09275 8.88109L6.32164 10.9929L5.14269 10.9982C5.06421 10.9982 5 10.9358 5 10.8555C5 10.8216 5.01249 10.7895 5.03389 10.7628L7.35434 7.99822L5.03389 5.23543C5.01249 5.20868 5 5.17658 5 5.14269C5 5.06421 5.06421 5 5.14269 5L6.32164 5.00535L8.09275 7.11891L9.86385 5.00713L11.041 5.00178C11.1195 5.00178 11.1837 5.06421 11.1837 5.14447C11.1837 5.17836 11.1712 5.21046 11.1498 5.23722L8.83294 8L11.1516 10.7646C11.173 10.7913 11.1855 10.8234 11.1855 10.8573C11.1855 10.9358 11.1213 11 11.0428 11Z" fill="#B6BABF"/>
</svg>
