
<svg width="16px" height="16px" viewBox="0 0 16 16" version="1.1" xmlns="http://www.w3.org/2000/svg" xmlns:xlink="http://www.w3.org/1999/xlink">
    <title>qzqvrhcbqn</title>
    <g id="jubwjolsem" stroke="none" stroke-width="1" fill="none" fill-rule="evenodd">
        <g id="lhwbqligfx" transform="translate(-301.000000, -240.000000)">
            <g id="werzjpjwwm" transform="translate(16.000000, 196.000000)">
                <g id="rxjexcsdgy" transform="translate(0.000000, 28.000000)">
                    <g id="chheidgrdg" transform="translate(254.000000, 1.000000)">
                        <g id="ekkhgoigks" transform="translate(31.000000, 15.000000)">
                            <rect id="etbbddutvc" x="0" y="0" width="16" height="16"></rect>
                            <path d="M8,1 C11.865625,1 15,4.134375 15,8 C15,11.865625 11.865625,15 8,15 C4.134375,15 1,11.865625 1,8 C1,4.134375 4.134375,1 8,1 Z M8,2.1875 C4.790625,2.1875 2.1875,4.790625 2.1875,8 C2.1875,11.209375 4.790625,13.8125 8,13.8125 C11.209375,13.8125 13.8125,11.209375 13.8125,8 C13.8125,4.790625 11.209375,2.1875 8,2.1875 Z M10.584375,5.403125 C10.653125,5.403125 10.709375,5.459375 10.709375,5.528125 C10.709375,5.5578125 10.7,5.5875 10.68125,5.609375 L10.68125,5.609375 L8.6484375,8.03125 L10.678125,10.4515625 C10.696875,10.475 10.7078125,10.503125 10.7078125,10.5328125 C10.7078125,10.603125 10.6515625,10.6578125 10.5828125,10.6578125 L10.5828125,10.6578125 L9.5515625,10.653125 L8,8.803125 L6.4484375,10.6546875 L5.415625,10.659375 C5.346875,10.659375 5.290625,10.603125 5.290625,10.534375 C5.290625,10.5046875 5.3015625,10.4765625 5.3203125,10.453125 L5.3203125,10.453125 L7.353125,8.0328125 L5.3203125,5.6109375 C5.3015625,5.5875 5.290625,5.559375 5.290625,5.5296875 C5.290625,5.459375 5.346875,5.4046875 5.415625,5.4046875 L5.415625,5.4046875 L6.4484375,5.409375 L8,7.259375 L9.553125,5.4078125 Z" id="gjvzvmzsrl" fill="#464B53"></path>
                        </g>
                    </g>
                </g>
            </g>
        </g>
    </g>
</svg>