<svg width="25" height="24" viewBox="0 0 25 24" fill="none" xmlns="http://www.w3.org/2000/svg">
<path fill-rule="evenodd" clip-rule="evenodd" d="M13.5 6C13.5 5.4 13.1 5 12.5 5C11.9 5 11.5 5.4 11.5 6V10.4C11.5 10.9 11.5 11.4 11.6 11.8C11.7 12.2 11.9 12.5 12.2 12.8C12.5 13.1 12.9 13.4 13.3 13.7L15 14.8C15.5 15.1 16.1 15 16.4 14.5C16.7 14 16.6 13.4 16.1 13.1L14.5 12.1C13.9 11.7 13.8 11.6 13.7 11.5C13.6 11.4 13.6 11.3 13.5 11.2C13.5 11.1 13.5 11 13.5 10.3V6ZM1.5 12C1.5 5.9 6.4 1 12.5 1C18.6 1 23.5 5.9 23.5 12C23.5 18.1 18.6 23 12.5 23C6.4 23 1.5 18.1 1.5 12Z" fill="#CDCDCD"/>
</svg>
