<svg width="40" height="40" viewBox="0 0 40 40" fill="none" xmlns="http://www.w3.org/2000/svg">
<g opacity="0.8">
<path d="M40 20C40 8.9543 31.0457 0 20 0C8.9543 0 0 8.9543 0 20C0 31.0457 8.9543 40 20 40C31.0457 40 40 31.0457 40 20ZM2.5 20C2.5 10.335 10.335 2.5 20 2.5C29.665 2.5 37.5 10.335 37.5 20C37.5 29.665 29.665 37.5 20 37.5C10.335 37.5 2.5 29.665 2.5 20ZM17.9368 19.7863L13.0454 24.6778C12.3883 25.3348 12.2989 26.3106 12.8457 26.8574C13.3924 27.4041 14.3682 27.3147 15.0253 26.6577L19.9167 21.7662L24.8083 26.6577C25.4653 27.3148 26.4411 27.4042 26.9879 26.8574C27.5346 26.3107 27.4452 25.3349 26.7882 24.6778L21.8966 19.7863L26.7881 14.8948C27.4451 14.2378 27.5345 13.262 26.9878 12.7152C26.4411 12.1685 25.4652 12.2579 24.8082 12.9149L19.9167 17.8064L15.0253 12.915C14.3683 12.258 13.3925 12.1686 12.8457 12.7153C12.299 13.262 12.3884 14.2379 13.0454 14.8949L17.9368 19.7863Z" fill="#FFE4C5"/>
</g>
</svg>
