
<svg width="20px" height="20px" viewBox="0 0 20 20" version="1.1" xmlns="http://www.w3.org/2000/svg" xmlns:xlink="http://www.w3.org/1999/xlink">
    <title>yyybesklsg</title>
    <g id="zbhhvlogmq" stroke="none" stroke-width="1" fill="none" fill-rule="evenodd">
        <g id="edrhfjuqzl" transform="translate(-8.000000, -56.000000)">
            <g id="hknmlzyedc" transform="translate(0.000000, 44.000000)">
                <g id="ceubguighm" transform="translate(8.000000, 12.000000)">
                    <rect id="uwkvbqivbf" x="0" y="0" width="20" height="20"></rect>
                    <path d="M14.5208771,4.0466914 C14.7767578,3.7908104 15.1497121,3.69087746 15.4992517,3.78453644 C15.8487912,3.87819539 16.1218126,4.15121709 16.2154713,4.50075684 C16.3091301,4.8502965 16.2091974,5.22325088 15.9533167,5.47913193 L15.9533167,5.47913193 L11.4324354,10.0000038 L15.9533169,14.5208913 C16.3225034,14.8900784 16.3471158,15.4733564 16.0271542,15.8710889 L16.0271542,15.8710889 L15.9533169,15.9533317 C15.5577596,16.3488894 14.9164344,16.3488894 14.5208771,15.9533317 L14.5208771,15.9533317 L10.0000038,11.4324354 L5.47913054,15.9533317 C5.10994377,16.3225189 4.52666582,16.3471314 4.12893356,16.0271691 L4.12893356,16.0271691 L4.04669085,15.9533317 C3.65113385,15.5577741 3.65113383,14.9164489 4.04669064,14.5208915 L4.04669064,14.5208915 L8.5675723,10.0000038 L4.04669083,5.47913174 C3.81924147,5.25168208 3.71501015,4.9317299 3.76043518,4.61794456 L3.76043518,4.61794456 L3.78453635,4.50075684 C3.87819512,4.15121709 4.15121647,3.87819539 4.50075598,3.78453644 C4.85029558,3.69087746 5.22324988,3.7908104 5.47913055,4.0466914 L5.47913055,4.0466914 L10.0000038,8.5675723 Z" id="qzlfxoeccb" fill="#5B8EF4"></path>
                </g>
            </g>
        </g>
    </g>
</svg>