<svg width="20" height="21" viewBox="0 0 20 21" fill="none" xmlns="http://www.w3.org/2000/svg">
<path d="M4.61224 16.6681C4.51461 16.7657 4.35632 16.7657 4.25869 16.6681L3.3748 15.7842C3.27717 15.6866 3.27717 15.5283 3.3748 15.4306L8.76645 10.039L3.37475 4.64729C3.27712 4.54966 3.27712 4.39137 3.37475 4.29374L4.25864 3.40986C4.35627 3.31223 4.51456 3.31223 4.61219 3.40986L10.0039 8.80156L15.3956 3.40983C15.4932 3.3122 15.6515 3.3122 15.7492 3.40983L16.6331 4.29372C16.7307 4.39135 16.7307 4.54964 16.6331 4.64727L11.2413 10.039L16.633 15.4307C16.7306 15.5283 16.7306 15.6866 16.633 15.7842L15.7491 16.6681C15.6515 16.7657 15.4932 16.7657 15.3956 16.6681L10.0039 11.2764L4.61224 16.6681Z" fill="#55585E"/>
</svg>
