
<svg width="16px" height="16px" viewBox="0 0 16 16" version="1.1" xmlns="http://www.w3.org/2000/svg" xmlns:xlink="http://www.w3.org/1999/xlink">
    <title>ymwllfkfjj</title>
    <g id="zvfpderjou" stroke="none" stroke-width="1" fill="none" fill-rule="evenodd">
        <g id="jpuhjtptnz" transform="translate(-327.000000, -196.000000)">
            <g id="phtfmufusj" transform="translate(16.000000, 120.000000)">
                <g id="iyqorwwdxe" transform="translate(0.000000, 56.000000)">
                    <g id="jkmmpqhrdu" transform="translate(311.000000, 20.000000)">
                        <rect id="ubkokgoolb" x="0" y="0" width="16" height="16"></rect>
                        <path d="M12.4214022,11.160804 C12.188027,10.5979899 11.8521643,10.0929648 11.426162,9.65954774 C11.0001597,9.22613065 10.5037744,8.88567839 9.95058873,8.64698492 C9.94564958,8.64447236 9.94071042,8.64321608 9.93577126,8.64070352 C10.705045,8.07537688 11.2051347,7.15452261 11.2051347,6.11557789 C11.2051347,4.39447236 9.83451854,3 8.14285714,3 C6.45119575,3 5.08057958,4.39447236 5.08057958,6.11557789 C5.08057958,7.15452261 5.58066927,8.07537688 6.34994302,8.6419598 C6.34500387,8.64447236 6.34006471,8.64572864 6.33512555,8.64824121 C5.78193993,8.88567839 5.28555461,9.22613065 4.85955229,9.66080402 C4.43354997,10.0942211 4.09892206,10.5992462 3.86431209,11.1620603 C3.63464127,11.7123116 3.51239712,12.2964824 3.50004923,12.8969849 C3.49881444,12.9535176 3.49603438,13.5537586 3.5515999,13.5537586 L4.43848913,14.2575484 C4.49281986,14.2575484 4.38803253,13.3924074 4.43848913,12.9020101 C4.53755602,11.93916 4.84596961,11.0238693 5.52263417,10.3354271 C6.22275972,9.62311558 7.15255609,9.23115578 8.14285714,9.23115578 C9.13315819,9.23115578 10.0629546,9.62311558 10.7630801,10.3354271 C11.4397447,11.0238693 11.755731,11.9380593 11.8472252,12.9020101 C11.9003461,13.4616738 11.7928944,14.3172869 11.8472252,14.3172869 L12.7159545,13.5537586 C12.77152,13.5537586 12.7868998,12.9535176 12.7856651,12.8969849 C12.7733172,12.2964824 12.651073,11.7123116 12.4214022,11.160804 Z M8.14285714,8.27638191 C7.57608884,8.27638191 7.04265984,8.05150754 6.64135331,7.64321608 C6.24004677,7.23492462 6.01901948,6.69221106 6.01901948,6.11557789 C6.01901948,5.53894472 6.24004677,4.99623116 6.64135331,4.5879397 C7.04265984,4.17964824 7.57608884,3.95477387 8.14285714,3.95477387 C8.70962545,3.95477387 9.24305444,4.17964824 9.64436098,4.5879397 C10.0456675,4.99623116 10.2666948,5.53894472 10.2666948,6.11557789 C10.2666948,6.69221106 10.0456675,7.23492462 9.64436098,7.64321608 C9.24305444,8.05150754 8.70962545,8.27638191 8.14285714,8.27638191 Z" id="ykqzsztoqb" fill="#515A62"></path>
                        <path d="M8,0 C12.418278,0 16,3.581722 16,8 C16,12.418278 12.418278,16 8,16 C3.581722,16 0,12.418278 0,8 C0,3.581722 3.581722,0 8,0 Z M8,1 C4.13400675,1 1,4.13400675 1,8 C1,11.8659932 4.13400675,15 8,15 C11.8659932,15 15,11.8659932 15,8 C15,4.13400675 11.8659932,1 8,1 Z" id="ndidtniumn" fill="#515A62"></path>
                    </g>
                </g>
            </g>
        </g>
    </g>
</svg>