<svg width="24" height="24" viewBox="0 0 24 24" fill="none" xmlns="http://www.w3.org/2000/svg">
<g id="Copy">
<path id="Vector" d="M13.4 2H14.7C15.8 2 16.7 2 17.4 2.1C18.1 2.2 18.8 2.3 19.4 2.6C20.2 3 21 3.8 21.5 4.7C21.8 5.3 21.9 5.9 22 6.7V9.4V10.7C22 11.8 22 12.7 21.9 13.4C21.8 14.1 21.7 14.8 21.4 15.4C20.9 16.3 20.2 17.1 19.2 17.6C19.2 17.6 19.1 17.6 19.1 17.7C19.3 17.2 19.4 16.6 19.4 16C19.4 15.3 19.4 14.4 19.4 13.2V13C19.4 11.9 19.4 11 19.4 10.2C19.3 9.5 19.2 8.8 19 8.2C18.4 6.7 17.2 5.6 15.8 5C15.2 4.8 14.6 4.6 13.8 4.6C13.1 4.6 12.2 4.6 11 4.6C9.9 4.6 9 4.6 8.2 4.6C7.6 4.6 7 4.7 6.5 4.9C6.5 4.9 6.5 4.8 6.6 4.8C7 3.8 7.8 3 8.7 2.5C9.3 2.2 9.9 2.1 10.7 2H13.4ZM10.6 6H9.4C8.3 6 7.4 6 6.7 6.1C6 6.1 5.3 6.2 4.7 6.5C3.8 7 3 7.8 2.5 8.7C2.2 9.3 2.1 9.9 2 10.7V13.4V14.7C2 15.8 2 16.7 2.1 17.4C2.2 18.1 2.3 18.8 2.6 19.4C3 20.2 3.8 21 4.7 21.5C5.3 21.8 5.9 21.9 6.7 22H9.4H10.7C11.8 22 12.7 22 13.4 21.9C14.1 21.8 14.8 21.7 15.4 21.4C16.3 20.9 17.1 20.2 17.6 19.2C17.9 18.6 18 18 18.1 17.2C18.2 16.5 18.2 15.6 18.2 14.5V13.2C18.2 12.1 18.2 11.2 18.1 10.5C18 9.8 17.9 9.1 17.6 8.5C17 7.8 16.2 7 15.3 6.5C14.7 6.2 14.1 6.1 13.3 6C12.6 6 11.7 6 10.6 6Z" fill="white" fill-opacity="0.7"/>
</g>
</svg>
