<svg width="16" height="16" viewBox="0 0 16 16" fill="none" xmlns="http://www.w3.org/2000/svg">
<path d="M8.93334 1.3335H9.80001C10.5333 1.3335 11.1333 1.3335 11.6 1.40016C12.0667 1.46683 12.5333 1.5335 12.9333 1.7335C13.4667 2.00016 14 2.5335 14.3333 3.1335C14.5333 3.5335 14.6 3.9335 14.6667 4.46683V6.26683V7.1335C14.6667 7.86683 14.6667 8.46683 14.6 8.9335C14.5333 9.40016 14.4667 9.86683 14.2667 10.2668C13.9333 10.8668 13.4667 11.4002 12.8 11.7335C12.8 11.7335 12.7333 11.7335 12.7333 11.8002C12.8667 11.4668 12.9333 11.0668 12.9333 10.6668C12.9333 10.2002 12.9333 9.60016 12.9333 8.80016V8.66683C12.9333 7.9335 12.9333 7.3335 12.9333 6.80016C12.8667 6.3335 12.8 5.86683 12.6667 5.46683C12.2667 4.46683 11.4667 3.7335 10.5333 3.3335C10.1333 3.20016 9.73334 3.06683 9.20001 3.06683C8.73334 3.06683 8.13334 3.06683 7.33334 3.06683C6.60001 3.06683 6.00001 3.06683 5.46668 3.06683C5.06668 3.06683 4.66668 3.1335 4.33334 3.26683C4.33334 3.26683 4.33334 3.20016 4.40001 3.20016C4.66668 2.5335 5.20001 2.00016 5.80001 1.66683C6.20001 1.46683 6.60001 1.40016 7.13334 1.3335H8.93334ZM7.06668 4.00016H6.26668C5.53334 4.00016 4.93334 4.00016 4.46668 4.06683C4.00001 4.06683 3.53334 4.1335 3.13334 4.3335C2.53334 4.66683 2.00001 5.20016 1.66668 5.80016C1.46668 6.20016 1.40001 6.60016 1.33334 7.1335V8.9335V9.80016C1.33334 10.5335 1.33334 11.1335 1.40001 11.6002C1.46668 12.0668 1.53334 12.5335 1.73334 12.9335C2.00001 13.4668 2.53334 14.0002 3.13334 14.3335C3.53334 14.5335 3.93334 14.6002 4.46668 14.6668H6.26668H7.13334C7.86668 14.6668 8.46668 14.6668 8.93334 14.6002C9.40001 14.5335 9.86668 14.4668 10.2667 14.2668C10.8667 13.9335 11.4 13.4668 11.7333 12.8002C11.9333 12.4002 12 12.0002 12.0667 11.4668C12.1333 11.0002 12.1333 10.4002 12.1333 9.66683V8.80016C12.1333 8.06683 12.1333 7.46683 12.0667 7.00016C12 6.5335 11.9333 6.06683 11.7333 5.66683C11.3333 5.20016 10.8 4.66683 10.2 4.3335C9.80001 4.1335 9.40001 4.06683 8.86668 4.00016C8.40001 4.00016 7.80001 4.00016 7.06668 4.00016Z" fill="white" fill-opacity="0.7"/>
</svg>
