<svg width="20" height="20" viewBox="0 0 20 20" fill="none" xmlns="http://www.w3.org/2000/svg">
<path d="M7.01294 3.25488V4.6665H12.7817C13.8594 4.6665 14.4872 5.67732 14.4872 6.58838V13.833H15.4994C15.5014 13.833 15.5386 13.8335 15.5938 13.7658C15.651 13.6957 15.7049 13.5727 15.7049 13.4111V3.25488C15.7049 3.0933 15.651 2.97036 15.5938 2.90019C15.5386 2.83248 15.5014 2.83298 15.4995 2.83301L7.21844 2.83301C7.21648 2.83298 7.17928 2.83248 7.12407 2.90019C7.06685 2.97036 7.01294 3.0933 7.01294 3.25488ZM5.51294 4.6665V3.25488C5.51294 2.34382 6.14067 1.33301 7.21844 1.33301H15.4994C16.5772 1.33301 17.2049 2.34382 17.2049 3.25488V13.4111C17.2049 14.3222 16.5772 15.333 15.4994 15.333H14.4872V16.7446C14.4872 17.6557 13.8594 18.6665 12.7817 18.6665H4.50066C3.4229 18.6665 2.79517 17.6557 2.79517 16.7446V6.58838C2.79517 5.67732 3.4229 4.6665 4.50066 4.6665H5.51294ZM4.29517 6.58838V16.7446C4.29517 16.9062 4.34908 17.0292 4.4063 17.0993C4.4615 17.167 4.49864 17.1665 4.5006 17.1665H12.7817C12.7836 17.1665 12.8208 17.167 12.876 17.0993C12.9332 17.0292 12.9872 16.9062 12.9872 16.7446V6.58838C12.9872 6.42679 12.9332 6.30386 12.876 6.23368C12.8208 6.16597 12.7837 6.16648 12.7817 6.1665L4.50066 6.1665C4.4987 6.16648 4.4615 6.16597 4.4063 6.23368C4.34908 6.30386 4.29517 6.42679 4.29517 6.58838Z" fill="#515A62"/>
</svg>
