<svg width="32" height="32" viewBox="0 0 32 32" fill="none" xmlns="http://www.w3.org/2000/svg">
<rect x="0" y="0" width="32" height="32" rx="6" fill="#FFFFFF"/>
<path d="M14 10.675C14 10.7855 14.0895 10.875 14.2 10.875H20.875V19.55C20.875 19.6605 20.9645 19.75 21.075 19.75H21.925C22.0355 19.75 22.125 19.6605 22.125 19.55V10.125C22.125 9.84886 21.9011 9.625 21.625 9.625H14.2C14.0895 9.625 14 9.71454 14 9.825V10.675ZM11.25 13.5V21H18.25V13.5H11.25ZM10.5 22.25C10.2239 22.25 10 22.0261 10 21.75V12.75C10 12.4739 10.2239 12.25 10.5 12.25H19C19.2761 12.25 19.5 12.4739 19.5 12.75V21.75C19.5 22.0261 19.2761 22.25 19 22.25H10.5Z" fill="#101114"/>
</svg>
