<svg width="32" height="32" viewBox="0 0 32 32" fill="none" xmlns="http://www.w3.org/2000/svg">
<path d="M12 5.35C12 5.57091 12.1791 5.75 12.4 5.75H25.75V23.1C25.75 23.3209 25.9291 23.5 26.15 23.5H27.85C28.0709 23.5 28.25 23.3209 28.25 23.1V4.25C28.25 3.69772 27.8023 3.25 27.25 3.25H12.4C12.1791 3.25 12 3.42909 12 3.65V5.35ZM6.5 11V26H20.5V11H6.5ZM5 28.5C4.44772 28.5 4 28.0523 4 27.5V9.5C4 8.94772 4.44771 8.5 5 8.5H22C22.5523 8.5 23 8.94772 23 9.5V27.5C23 28.0523 22.5523 28.5 22 28.5H5Z" fill="#55585E"/>
</svg>
