<svg width="18" height="18" viewBox="0 0 18 18" fill="none" xmlns="http://www.w3.org/2000/svg">
<path d="M16.6103 3.36204H13.331L13.3747 3.35406C13.4413 3.34239 13.6741 3.10702 13.7312 3.07072C13.7882 3.03443 13.8375 2.98724 13.8763 2.93186C13.9151 2.87648 13.9426 2.81399 13.9572 2.74798C13.9718 2.68196 13.9733 2.61372 13.9615 2.54714L13.7701 1.06866C13.7584 1.00207 13.7337 0.938425 13.6974 0.881381C13.6611 0.824337 13.6139 0.77501 13.5586 0.736223C13.5032 0.697436 13.4407 0.669951 13.3747 0.65534C13.3087 0.640729 13.2404 0.639279 13.1738 0.651073L9.3498 2.48922C9.12211 2.56228 8.87726 2.56228 8.64956 2.48922L4.82521 0.651073C4.75864 0.639322 4.6904 0.640804 4.6244 0.655433C4.55841 0.670061 4.49594 0.697551 4.44057 0.736331C4.3852 0.775111 4.33801 0.824421 4.3017 0.881444C4.2654 0.938467 4.24068 1.00209 4.22897 1.06866L4.03756 2.54714C4.01391 2.68158 4.04462 2.8199 4.12293 2.93171C4.20123 3.04351 4.52216 3.1954 4.77878 3.35406L4.82249 3.36204H1.38973C1.15382 3.36204 0.927558 3.45574 0.76071 3.62252C0.593861 3.78931 0.500085 4.01554 0.5 4.25145V4.83876C0.499916 4.95565 0.522868 5.07142 0.567544 5.17944C0.61222 5.28746 0.677744 5.38562 0.760372 5.4683C0.842999 5.55099 0.941111 5.61659 1.0491 5.66134C1.15709 5.70609 1.27284 5.72913 1.38973 5.72913H16.6103C16.7272 5.72913 16.8429 5.70609 16.9509 5.66134C17.0589 5.61659 17.157 5.55099 17.2396 5.4683C17.3223 5.38562 17.3878 5.28746 17.4325 5.17944C17.4771 5.07142 17.5001 4.95565 17.5 4.83876V4.25145C17.4999 4.01554 17.4061 3.78931 17.2393 3.62252C17.0724 3.45574 16.8462 3.36204 16.6103 3.36204Z" fill="#FD634E"/>
<path d="M2.3663 7.08801H8.20651C8.20651 7.08801 8.20651 7.38459 8.20651 7.97774V16.467C8.20651 17.0602 8.20651 17.3568 8.20651 17.3568H2.3663C1.77314 17.3568 1.47656 17.0602 1.47656 16.467V7.97774C1.47656 7.38459 1.77314 7.08801 2.3663 7.08801Z" fill="#FD634E"/>
<path d="M9.79313 7.08801H15.6332C16.2263 7.08801 16.5229 7.38459 16.5229 7.97774V16.467C16.5229 17.0602 16.2263 17.3568 15.6332 17.3568H9.79312C9.79312 17.3568 9.79297 17.0602 9.79297 16.467V7.97774C9.79297 7.38459 9.79313 7.08801 9.79313 7.08801Z" fill="#FD634E"/>
</svg>
