<svg width="48" height="48" viewBox="0 0 48 48" fill="none" xmlns="http://www.w3.org/2000/svg">
<g clip-path="url(#clip0_5390_4336)">
<circle cx="24" cy="24" r="23.75" fill="#F7F7F9" stroke="#DEE2E8" stroke-width="0.5"/>
<path d="M13.6875 13.2422L13.6875 34.7578C13.6875 35.8063 14.5532 36.6562 15.6211 36.6562L32.3789 36.6562C33.4468 36.6562 34.3125 35.8063 34.3125 34.7578L34.3125 13.2422C34.3125 12.1937 33.4468 11.3437 32.3789 11.3437L15.6211 11.3437C14.5532 11.3437 13.6875 12.1937 13.6875 13.2422Z" fill="#EA4F45"/>
<path d="M34.3125 18.1C31.2664 19.8204 27.7479 20.8022 24 20.8022C20.2521 20.8022 16.7336 19.8204 13.6875 18.1V13.2422C13.6875 12.1937 14.5532 11.3438 15.6211 11.3438H32.3789C33.4468 11.3438 34.3125 12.1937 34.3125 13.2422V18.1Z" fill="#FF655B"/>
<path d="M27.375 20.3438C27.375 22.2077 25.864 23.7188 24 23.7188C22.136 23.7188 20.625 22.2077 20.625 20.3438C20.625 18.4798 22.136 16.9688 24 16.9688C25.864 16.9688 27.375 18.4798 27.375 20.3438Z" fill="#FFD49F"/>
<path d="M23.7401 19.0162C23.132 19.2803 22.7496 19.9262 22.9722 20.5682C23.1069 20.9563 23.3782 21.2329 23.7805 21.3743C24.4841 21.6216 25.2186 21.0779 25.1362 20.3712C25.1012 20.0708 24.9471 19.8421 24.6343 19.7475C24.4015 19.677 24.1788 19.7099 23.997 19.8774C23.8428 20.0194 23.7843 20.1942 23.8461 20.3974C23.8802 20.5092 23.9621 20.5787 24.0735 20.6119C24.1713 20.641 24.247 20.5989 24.3053 20.5185C24.2935 20.4991 24.2832 20.4778 24.2689 20.4596C24.1929 20.3622 24.2546 20.2207 24.3203 20.1617C24.4097 20.0816 24.5544 20.0743 24.6495 20.1406C24.8038 20.2481 24.8739 20.5338 24.7901 20.7131C24.6498 21.013 24.2891 21.1875 23.9582 21.1026C23.4357 20.9685 23.1781 20.4577 23.3467 19.964C23.5708 19.3078 24.324 19.0208 24.9659 19.3355C25.4848 19.5898 25.6774 20.0339 25.6567 20.5625C25.6228 21.4328 24.7359 22.0785 23.8465 21.9106C22.9839 21.7479 22.3434 20.9301 22.3893 20.1567C22.4062 19.8711 22.4704 19.6038 22.618 19.3584C23.0019 18.7204 23.5999 18.4201 24.3478 18.3715C24.5447 18.3587 24.7433 18.3696 24.9308 18.3697C24.9205 18.3652 24.897 18.3537 24.8725 18.3447C24.5073 18.2093 24.1298 18.1661 23.743 18.2207C23.5032 18.2499 23.2818 18.3141 23.0806 18.4058C23.0769 18.4064 23.0725 18.4077 23.0672 18.4099C22.9766 18.4481 22.9615 18.3604 22.9293 18.3338C22.898 18.308 22.9021 18.3401 22.9021 18.3401C22.9294 18.4686 22.861 18.5205 22.8518 18.5268C22.7948 18.5618 22.7401 18.5995 22.6872 18.6391C22.6857 18.6398 22.6845 18.6398 22.6829 18.6405C22.5581 18.6969 22.5062 18.6017 22.4488 18.5727C22.3881 18.5421 22.411 18.5923 22.411 18.5923C22.4862 18.7403 22.4213 18.8668 22.4091 18.8882C22.3559 18.945 22.3061 19.0048 22.2595 19.0668C22.2546 19.0699 22.2498 19.0728 22.2443 19.0777C22.1217 19.1874 22.0263 19.1005 21.9506 19.0842C21.867 19.0663 21.9143 19.1205 21.9143 19.1205C22.0689 19.2771 22.02 19.4655 22.02 19.4655L22.0204 19.4657C21.8218 19.8906 21.7505 20.3822 21.833 20.8758C22.1041 22.4983 24.1196 23.2645 25.4408 22.2194C25.8699 21.8799 26.1675 21.2261 26.1989 20.6852C26.2212 20.3011 26.1012 19.9524 25.8801 19.6367C25.4108 18.967 24.4728 18.6979 23.7401 19.0162" fill="#F39B31"/>
</g>
<defs>
<clipPath id="clip0_5390_4336">
<rect width="48" height="48" rx="24" fill="white"/>
</clipPath>
</defs>
</svg>
