<svg width="20" height="20" viewBox="0 0 20 20" fill="none" xmlns="http://www.w3.org/2000/svg">
<path d="M17.6103 4.36204H14.331L14.3747 4.35406C14.4413 4.34239 14.6741 4.10702 14.7312 4.07072C14.7882 4.03443 14.8375 3.98724 14.8763 3.93186C14.9151 3.87648 14.9426 3.81399 14.9572 3.74798C14.9718 3.68196 14.9733 3.61372 14.9615 3.54714L14.7701 2.06866C14.7584 2.00207 14.7337 1.93842 14.6974 1.88138C14.6611 1.82434 14.6139 1.77501 14.5586 1.73622C14.5032 1.69744 14.4407 1.66995 14.3747 1.65534C14.3087 1.64073 14.2404 1.63928 14.1738 1.65107L10.3498 3.48922C10.1221 3.56228 9.87726 3.56228 9.64956 3.48922L5.82521 1.65107C5.75864 1.63932 5.6904 1.6408 5.6244 1.65543C5.55841 1.67006 5.49594 1.69755 5.44057 1.73633C5.3852 1.77511 5.33801 1.82442 5.3017 1.88144C5.2654 1.93847 5.24068 2.00209 5.22897 2.06866L5.03756 3.54714C5.01391 3.68158 5.04462 3.8199 5.12293 3.93171C5.20123 4.04351 5.52216 4.1954 5.77878 4.35406L5.82249 4.36204H2.38973C2.15382 4.36204 1.92756 4.45574 1.76071 4.62252C1.59386 4.78931 1.50008 5.01554 1.5 5.25145V5.83876C1.49992 5.95565 1.52287 6.07142 1.56754 6.17944C1.61222 6.28746 1.67774 6.38562 1.76037 6.4683C1.843 6.55099 1.94111 6.61659 2.0491 6.66134C2.15709 6.70609 2.27284 6.72913 2.38973 6.72913H17.6103C17.7272 6.72913 17.8429 6.70609 17.9509 6.66134C18.0589 6.61659 18.157 6.55099 18.2396 6.4683C18.3223 6.38562 18.3878 6.28746 18.4325 6.17944C18.4771 6.07142 18.5001 5.95565 18.5 5.83876V5.25145C18.4999 5.01554 18.4061 4.78931 18.2393 4.62252C18.0724 4.45574 17.8462 4.36204 17.6103 4.36204Z" fill="#FD634E"/>
<path d="M3.3663 8.08801H9.20651C9.20651 8.08801 9.20651 8.38459 9.20651 8.97774V17.467C9.20651 18.0602 9.20651 18.3568 9.20651 18.3568H3.3663C2.77314 18.3568 2.47656 18.0602 2.47656 17.467V8.97774C2.47656 8.38459 2.77314 8.08801 3.3663 8.08801Z" fill="#FD634E"/>
<path d="M10.7931 8.08801H16.6332C17.2263 8.08801 17.5229 8.38459 17.5229 8.97774V17.467C17.5229 18.0602 17.2263 18.3568 16.6332 18.3568H10.7931C10.7931 18.3568 10.793 18.0602 10.793 17.467V8.97774C10.793 8.38459 10.7931 8.08801 10.7931 8.08801Z" fill="#FD634E"/>
</svg>
