<svg width="40" height="40" viewBox="0 0 40 40" fill="none" xmlns="http://www.w3.org/2000/svg">
<circle cx="20" cy="20" r="20" fill="#EBEEF1"/>
<path fill-rule="evenodd" clip-rule="evenodd" d="M16.0733 12.2076C16.3397 12.0641 16.6603 12.0641 16.9267 12.2076L23.4267 15.7076C23.7182 15.8645 23.9 16.1689 23.9 16.5V22.5C23.9 22.997 23.497 23.4 23 23.4C22.5029 23.4 22.1 22.997 22.1 22.5V17.0375L16.5 14.0222L10.9 17.0375V23.9624L16.9267 27.2076C17.3643 27.4432 17.5281 27.989 17.2924 28.4267C17.0567 28.8643 16.5109 29.0281 16.0733 28.7924L9.57329 25.2924C9.28177 25.1354 9.09998 24.8311 9.09998 24.5V16.5C9.09998 16.1689 9.28177 15.8645 9.57329 15.7076L16.0733 12.2076Z" fill="#C5CBD5"/>
<path fill-rule="evenodd" clip-rule="evenodd" d="M22.2076 11.5733C22.4432 11.1357 22.989 10.9719 23.4267 11.2076L29.9267 14.7076C30.2182 14.8646 30.4 15.1689 30.4 15.5V23.5C30.4 23.8311 30.2182 24.1355 29.9267 24.2925L23.4267 27.7925C23.1603 27.9359 22.8397 27.9359 22.5733 27.7925L16.0733 24.2925C15.7818 24.1355 15.6 23.8311 15.6 23.5V17.5C15.6 17.003 16.0029 16.6 16.5 16.6C16.997 16.6 17.4 17.003 17.4 17.5V22.9625L23 25.9778L28.6 22.9625V16.0376L22.5733 12.7925C22.1356 12.5568 21.9719 12.011 22.2076 11.5733Z" fill="#C5CBD5"/>
</svg>
