<svg width="29" height="29" viewBox="0 0 29 29" fill="none" xmlns="http://www.w3.org/2000/svg">
<g clip-path="url(#clip0_13912_2857)">
<ellipse cx="14.5039" cy="14.039" rx="14" ry="14" fill="#C0C3C7"/>
<path d="M8.95301 9.69027C8.7968 9.84648 8.7968 10.0997 8.95301 10.256L18.2868 19.5898C18.443 19.746 18.6963 19.746 18.8525 19.5898L20.0546 18.3877C20.2108 18.2315 20.2108 17.9782 20.0546 17.822L10.7208 8.48819C10.5646 8.33198 10.3113 8.33198 10.1551 8.48819L8.95301 9.69027Z" fill="white"/>
<path d="M10.1551 19.5899C10.3114 19.7461 10.5646 19.7461 10.7208 19.5899L20.0546 10.2561C20.2109 10.0999 20.2109 9.84664 20.0546 9.69043L18.8526 8.48835C18.6963 8.33214 18.4431 8.33214 18.2869 8.48835L8.95306 17.8222C8.79685 17.9784 8.79685 18.2316 8.95306 18.3878L10.1551 19.5899Z" fill="white"/>
</g>
<rect x="1.50391" y="1.039" width="26" height="26" rx="13" stroke="white" stroke-width="2"/>
<defs>
<clipPath id="clip0_13912_2857">
<rect x="0.503906" y="0.0390015" width="28" height="28" rx="14" fill="white"/>
</clipPath>
</defs>
</svg>
