<?xml version="1.0" encoding="UTF-8"?>
<svg width="16px" height="16px" viewBox="0 0 16 16" version="1.1" xmlns="http://www.w3.org/2000/svg" xmlns:xlink="http://www.w3.org/1999/xlink">
    <title>delete</title>
    <g id="icon" stroke="none" stroke-width="1" fill="none" fill-rule="evenodd">
        <g id="Common" transform="translate(-75.000000, -149.000000)">
            <g id="delete" transform="translate(75.000000, 149.000000)">
                <rect id="Rectangle" x="0" y="0" width="16" height="16"></rect>
                <path d="M2.20000001,3.2 L1.40000001,3.2 C1.06862916,3.2 0.800000006,2.93137085 0.800000006,2.6 C0.800000006,2.26862915 1.06862916,2 1.40000001,2 L14.6,2 C14.9313708,2 15.2,2.26862915 15.2,2.6 C15.2,2.93137085 14.9313708,3.2 14.6,3.2 L3.40000001,3.2 L3.40000001,13.8 C3.4,14.0652165 3.50535684,14.3195704 3.69289322,14.5071068 C3.8804296,14.6946432 4.13478351,14.8 4.4,14.8 L11.6,14.8 C11.8652165,14.8 12.1195704,14.6946432 12.3071068,14.5071068 C12.4946432,14.3195704 12.6,14.0652165 12.6,13.8 L12.6,5 C12.6,4.66862915 12.8686291,4.4 13.2,4.4 C13.5313708,4.4 13.8,4.66862915 13.8,5 L13.8,13.8 C13.8,15.015 12.815,16 11.6,16 L4.4,16 C3.185,16 2.20000001,15.015 2.20000001,13.8 L2.20000001,3.2 Z M6.40000001,1.2 C6.06862916,1.2 5.80000001,0.931370849 5.80000001,0.6 C5.80000001,0.26862915 6.06862916,0 6.40000001,0 L9.59999999,0 C9.93137084,0 10.2,0.26862915 10.2,0.6 C10.2,0.931370849 9.93137084,1.2 9.59999999,1.2 L6.40000001,1.2 L6.40000001,1.2 Z M5.80000001,6.59999999 C5.80000001,6.26862915 6.06862916,6 6.40000001,6 C6.73137086,6 7.00000001,6.26862915 7.00000001,6.59999999 L7.00000001,11.4 C7.00000001,11.7313708 6.73137086,12 6.40000001,12 C6.06862916,12 5.80000001,11.7313708 5.80000001,11.4 L5.80000001,6.59999999 Z M8.99999999,6.59999999 C8.99999999,6.26862915 9.26862914,6 9.59999999,6 C9.93137084,6 10.2,6.26862915 10.2,6.59999999 L10.2,11.4 C10.2,11.7313708 9.93137084,12 9.59999999,12 C9.26862914,12 8.99999999,11.7313708 8.99999999,11.4 L8.99999999,6.59999999 Z" id="shape" fill="#515A62"></path>
            </g>
        </g>
    </g>
</svg>