<svg width="49" height="48" viewBox="0 0 49 48" fill="none" xmlns="http://www.w3.org/2000/svg">
<circle cx="24" cy="24" r="24" fill="#F7F7F9"/>
<path fill-rule="evenodd" clip-rule="evenodd" d="M16.5312 16.4688C16.117 16.4688 15.7812 16.8045 15.7812 17.2187V30.7812C15.7812 31.1955 16.117 31.5312 16.5312 31.5312H22.355C22.4931 31.5312 22.605 31.4193 22.605 31.2812V30.2187C22.605 30.0807 22.4931 29.9687 22.355 29.9687H17.3437V18.0312H31.6562V21.4696C31.6562 21.6077 31.7682 21.7196 31.9062 21.7196H32.9688C33.1068 21.7196 33.2188 21.6077 33.2188 21.4696V17.2187C33.2188 16.8045 32.883 16.4688 32.4687 16.4688H16.5312ZM33.625 26.4333C33.763 26.4333 33.875 26.5453 33.875 26.6833V27.7458C33.875 27.8839 33.763 27.9958 33.625 27.9958L27.0614 27.9958L28.5339 29.4683C28.6315 29.566 28.6315 29.7243 28.5339 29.8219L27.7826 30.5732C27.685 30.6708 27.5267 30.6708 27.429 30.5732L24.5121 27.6567C24.3371 27.4817 24.2876 27.2288 24.3635 27.0096C24.3935 26.923 24.4431 26.8417 24.5122 26.7725L27.4289 23.856C27.5266 23.7584 27.6848 23.7584 27.7825 23.856L28.5338 24.6073C28.6314 24.705 28.6314 24.8633 28.5338 24.9609L27.0613 26.4333L33.625 26.4333Z" fill="#25272A"/>
</svg>
