<svg width="16" height="16" viewBox="0 0 16 16" fill="none" xmlns="http://www.w3.org/2000/svg">
<path d="M15.0039 8C15.0039 11.866 11.8699 15 8.00391 15C4.13791 15 1.00391 11.866 1.00391 8C1.00391 4.13401 4.13791 1 8.00391 1C11.8699 1 15.0039 4.13401 15.0039 8ZM5.22858 5.82562C5.15047 5.90372 5.15047 6.03036 5.22858 6.10846L7.12014 8.00003L5.22861 9.89157C5.1505 9.96967 5.1505 10.0963 5.22861 10.1744L5.82965 10.7754C5.90775 10.8536 6.03439 10.8536 6.11249 10.7754L8.00403 8.88391L9.89548 10.7754C9.97359 10.8535 10.1002 10.8535 10.1783 10.7754L10.7794 10.1743C10.8575 10.0962 10.8575 9.96959 10.7794 9.89148L8.88791 8.00003L10.7794 6.10854C10.8575 6.03044 10.8575 5.90381 10.7794 5.8257L10.1784 5.22466C10.1003 5.14656 9.97362 5.14656 9.89551 5.22466L8.00403 7.11614L6.11246 5.22458C6.03436 5.14647 5.90773 5.14647 5.82962 5.22458L5.22858 5.82562Z" fill="#F53F3F"/>
</svg>
