<svg width="46" height="46" viewBox="0 0 46 46" fill="none" xmlns="http://www.w3.org/2000/svg">
<g clip-path="url(#clip0_5292_22394)">
<path d="M46 23C46 35.7025 35.7025 46 23 46C10.2975 46 0 35.7025 0 23C0 10.2975 10.2975 0 23 0C35.7025 0 46 10.2975 46 23Z" fill="#FEFEFE" fill-opacity="0.16"/>
<mask id="mask0_5292_22394" style="mask-type:luminance" maskUnits="userSpaceOnUse" x="14" y="14" width="18" height="18">
<path d="M32 14H14V32H32V14Z" fill="white"/>
</mask>
<g mask="url(#mask0_5292_22394)">
<path d="M17 14.5498C15.3708 14.5498 14.05 15.8706 14.05 17.4998V28.4998C14.05 30.129 15.3708 31.4498 17 31.4498H21.0328H21.05C21.5667 31.4406 21.9828 31.0187 21.9828 30.4998C21.9828 29.9809 21.5667 29.5591 21.05 29.55L21.0328 29.5498H17C16.4201 29.5498 15.95 29.0797 15.95 28.4998V17.4998C15.95 16.9199 16.4201 16.4498 17 16.4498H29C29.5799 16.4498 30.05 16.9199 30.05 17.4998V19.4898C30.05 19.4931 30.05 19.4965 30.05 19.4998C30.05 19.5031 30.05 19.5065 30.05 19.5098V19.5498H30.0512C30.0772 20.0512 30.4921 20.4498 31 20.4498C31.5079 20.4498 31.9227 20.0512 31.9487 19.5498H31.95V17.4998C31.95 15.8706 30.6292 14.5498 29 14.5498H17ZM26.4563 21.8564C26.1048 21.5049 25.5349 21.5049 25.1835 21.8564L22.2136 24.8262C22.0361 25.0038 21.9482 25.2371 21.95 25.4698V25.4791C21.95 25.5274 21.9538 25.5749 21.9612 25.6212C21.9872 25.8084 22.0722 25.9891 22.2161 26.133L25.186 29.1029C25.5375 29.4544 26.1073 29.4544 26.4588 29.1029C26.8103 28.7514 26.8103 28.1816 26.4588 27.8301L25.0078 26.3791H31.05C31.5471 26.3791 31.95 25.9762 31.95 25.4791C31.95 24.982 31.5471 24.5791 31.05 24.5791H25.0063L26.4563 23.1292C26.8077 22.7777 26.8077 22.2078 26.4563 21.8564Z" fill="white"/>
</g>
</g>
<defs>
<clipPath id="clip0_5292_22394">
<rect width="46" height="46" fill="white"/>
</clipPath>
</defs>
</svg>
