<svg width="40" height="40" viewBox="0 0 40 40" fill="none" xmlns="http://www.w3.org/2000/svg">
<circle cx="20" cy="20" r="20" fill="#EFECFF"/>
<path d="M12.0312 12.4688C11.617 12.4688 11.2812 12.8045 11.2812 13.2187V26.7812C11.2812 27.1955 11.617 27.5312 12.0312 27.5312H17.855C17.9931 27.5312 18.105 27.4193 18.105 27.2812V26.2188C18.105 26.0807 17.9931 25.9688 17.855 25.9688H12.8438V14.0312H27.1563V17.4696C27.1563 17.6077 27.2682 17.7196 27.4062 17.7196H28.4688C28.6068 17.7196 28.7188 17.6077 28.7188 17.4696V13.2187C28.7188 12.8045 28.383 12.4688 27.9688 12.4688H12.0312ZM29.125 22.4333C29.263 22.4333 29.375 22.5453 29.375 22.6833V23.7458C29.375 23.8839 29.263 23.9958 29.125 23.9958L22.5614 23.9959L24.0339 25.4684C24.1315 25.566 24.1315 25.7243 24.0339 25.8219L23.2826 26.5732C23.185 26.6708 23.0267 26.6708 22.929 26.5732L20.0121 23.6567C19.8371 23.4817 19.7876 23.2288 19.8635 23.0096C19.8935 22.923 19.9431 22.8417 20.0122 22.7725L22.9289 19.856C23.0266 19.7584 23.1848 19.7584 23.2825 19.856L24.0338 20.6073C24.1314 20.705 24.1314 20.8633 24.0338 20.9609L22.5613 22.4334L29.125 22.4333Z" fill="#5D42FF"/>
</svg>
