<svg width="16" height="16" viewBox="0 0 16 16" fill="none" xmlns="http://www.w3.org/2000/svg">
<path d="M15.0039 8C15.0039 11.866 11.8699 15 8.00391 15C4.13791 15 1.00391 11.866 1.00391 8C1.00391 4.13401 4.13791 1 8.00391 1C11.8699 1 15.0039 4.13401 15.0039 8ZM7.54512 8.62362C7.56293 8.64052 7.58222 8.65631 7.60294 8.67082L10.4699 10.6783C10.5604 10.7417 10.6851 10.7197 10.7485 10.6292L11.236 9.93292C11.2994 9.84244 11.2774 9.71773 11.1869 9.65437L8.62891 7.86325V4.75133C8.62891 4.64087 8.53936 4.55133 8.42891 4.55133H7.57891C7.46845 4.55133 7.37891 4.64087 7.37891 4.75133V8.25134C7.37891 8.39921 7.44309 8.53208 7.54512 8.62362Z" fill="#5D42FF"/>
</svg>
