<svg width="49" height="48" viewBox="0 0 49 48" fill="none" xmlns="http://www.w3.org/2000/svg">
<circle cx="24" cy="24" r="24" fill="#F7F7F9"/>
<path d="M16.2278 16.4688C15.8136 16.4688 15.4778 16.8045 15.4778 17.2187V30.7812C15.4778 31.1955 15.8136 31.5312 16.2278 31.5312H22.0515C22.1896 31.5312 22.3015 31.4193 22.3015 31.2812V30.2187C22.3015 30.0807 22.1896 29.9687 22.0515 29.9687H17.0403V18.0312H31.3528V21.4696C31.3528 21.6077 31.4647 21.7196 31.6028 21.7196H32.6653C32.8034 21.7196 32.9153 21.6077 32.9153 21.4696V17.2187C32.9153 16.8045 32.5795 16.4688 32.1653 16.4688H16.2278ZM33.3215 26.4333C33.4596 26.4333 33.5715 26.5453 33.5715 26.6833V27.7458C33.5715 27.8839 33.4596 27.9958 33.3215 27.9958L26.7579 27.9958L28.2304 29.4683C28.3281 29.566 28.3281 29.7243 28.2304 29.8219L27.4791 30.5732C27.3815 30.6708 27.2232 30.6708 27.1256 30.5732L24.2086 27.6567C24.0336 27.4817 23.9841 27.2288 24.0601 27.0096C24.09 26.923 24.1396 26.8417 24.2088 26.7725L27.1255 23.856C27.2231 23.7584 27.3814 23.7584 27.479 23.856L28.2303 24.6073C28.3279 24.705 28.3279 24.8633 28.2303 24.9609L26.7578 26.4333L33.3215 26.4333Z" fill="#25272A"/>
</svg>
