<svg width="16" height="16" viewBox="0 0 16 16" fill="none" xmlns="http://www.w3.org/2000/svg">
<path d="M15.0039 8C15.0039 11.866 11.8699 15 8.00391 15C4.13791 15 1.00391 11.866 1.00391 8C1.00391 4.13401 4.13791 1 8.00391 1C11.8699 1 15.0039 4.13401 15.0039 8ZM7.17652 10.5327C7.30912 10.5364 7.44291 10.4877 7.54411 10.3865L11.6453 6.28528C11.7234 6.20717 11.7234 6.08054 11.6453 6.00244L11.0443 5.4014C10.9662 5.32329 10.8395 5.32329 10.7614 5.40139L7.19003 8.97281L5.24642 7.0292C5.16832 6.95109 5.04168 6.95109 4.96358 7.0292L4.36254 7.63024C4.28443 7.70834 4.28443 7.83498 4.36254 7.91308L6.83593 10.3865C6.93026 10.4808 7.05291 10.5296 7.17652 10.5327Z" fill="#00B75F"/>
</svg>
