<svg width="16" height="16" viewBox="0 0 16 16" fill="none" xmlns="http://www.w3.org/2000/svg">
<g id="direction-arrow right">
<g id="Union">
<path d="M12.4238 8.70004H1.30352C1.19306 8.70004 1.10352 8.61049 1.10352 8.50004V7.50004C1.10352 7.38958 1.19306 7.30003 1.30352 7.30003H12.4232L9.30475 4.18158C9.22665 4.10348 9.22665 3.97685 9.30475 3.89874L10.0119 3.19164C10.09 3.11353 10.2166 3.11353 10.2947 3.19164L14.7502 7.64649C14.9454 7.84175 14.9454 8.15833 14.7502 8.3536L10.2954 12.8084C10.2173 12.8865 10.0907 12.8865 10.0126 12.8084L9.30544 12.1013C9.22734 12.0232 9.22734 11.8965 9.30544 11.8184L12.4238 8.70004Z" fill="#55585E"/>
</g>
</g>
</svg>
