<svg width="32" height="32" viewBox="0 0 32 32" fill="none" xmlns="http://www.w3.org/2000/svg">
<circle cx="16.0039" cy="16" r="16" fill="white"/>
<circle cx="16.0039" cy="16" r="13" fill="#F9F9FA"/>
<path d="M15.3041 20.4238V9.30352C15.3041 9.19306 15.3937 9.10352 15.5041 9.10352H16.5041C16.6146 9.10352 16.7041 9.19306 16.7041 9.30352V20.4232L19.8226 17.3048C19.9007 17.2266 20.0273 17.2266 20.1054 17.3048L20.8125 18.0119C20.8906 18.09 20.8906 18.2166 20.8125 18.2947L16.3577 22.7502C16.1624 22.9454 15.8458 22.9454 15.6506 22.7502L11.1958 18.2954C11.1177 18.2173 11.1177 18.0907 11.1958 18.0126L11.9029 17.3054C11.981 17.2273 12.1076 17.2273 12.1857 17.3054L15.3041 20.4238Z" fill="#55585E"/>
</svg>
