<svg width="23" height="22" viewBox="0 0 23 22" fill="none" xmlns="http://www.w3.org/2000/svg">
<path fill-rule="evenodd" clip-rule="evenodd" d="M11.5 0.916626C17.0687 0.916626 21.5833 5.43119 21.5833 11C21.5833 16.5687 17.0687 21.0833 11.5 21.0833C5.93119 21.0833 1.41663 16.5687 1.41663 11C1.41663 5.43119 5.93119 0.916626 11.5 0.916626ZM15.0251 6.18441L9.89671 8.03067C9.26051 8.25977 8.75965 8.76072 8.53067 9.39696L6.68441 14.5251C6.55199 14.8926 6.64381 15.3036 6.92006 15.5799C7.19631 15.8561 7.60728 15.9479 7.97483 15.8155L13.1032 13.9692C13.7394 13.7401 14.2403 13.2392 14.4692 12.603L16.3155 7.47483C16.4479 7.10728 16.3561 6.69631 16.0799 6.42006C15.8036 6.14381 15.3926 6.05199 15.0251 6.18441ZM11.5 12.2604C12.1961 12.2604 12.7604 11.6961 12.7604 11C12.7604 10.3039 12.1961 9.73954 11.5 9.73954C10.8039 9.73954 10.2395 10.3039 10.2395 11C10.2395 11.6961 10.8039 12.2604 11.5 12.2604Z" fill="#5B8EF4"/>
</svg>
