<svg width="25" height="24" viewBox="0 0 25 24" fill="none" xmlns="http://www.w3.org/2000/svg">
<path d="M22.2236 12C22.2236 17.5919 17.6905 22.125 12.0986 22.125C6.50675 22.125 1.97363 17.5919 1.97363 12C1.97363 6.40812 6.50675 1.875 12.0986 1.875C17.6905 1.875 22.2236 6.40812 22.2236 12ZM9.37935 10.2746L7.57711 16.1467C7.50651 16.3768 7.72188 16.5921 7.95193 16.5215L13.8241 14.7194C14.2997 14.5734 14.672 14.2011 14.818 13.7255L16.6202 7.85329C16.6908 7.62325 16.4754 7.40787 16.2453 7.47848L10.3732 9.28072C9.89761 9.42669 9.52532 9.79898 9.37935 10.2746ZM12.0986 13.3498C12.8442 13.3498 13.4486 12.7454 13.4486 11.9998C13.4486 11.2542 12.8442 10.6498 12.0986 10.6498C11.353 10.6498 10.7486 11.2542 10.7486 11.9998C10.7486 12.7454 11.353 13.3498 12.0986 13.3498Z" fill="#B6BABF"/>
</svg>
