<svg width="142" height="142" viewBox="0 0 142 142" fill="none" xmlns="http://www.w3.org/2000/svg">
<path d="M142 71C142 110.373 110.373 142 71 142C31.6273 142 0 110.373 0 71C0 31.6273 31.6273 0 71 0C110.373 0 142 31.6273 142 71ZM96.8182 32.9182L57.4455 50.9909C54.2182 52.2818 52.2818 54.8636 50.9909 57.4455L32.9182 96.8182C32.2727 98.1091 32.2727 99.4 32.2727 100.691C32.2727 105.855 36.1455 109.727 41.3091 109.727C42.6 109.727 43.8909 109.727 45.1818 109.082L84.5546 91.0091C87.7818 89.7182 89.7182 87.1364 91.0091 84.5546L109.082 45.1818C109.727 43.8909 109.727 42.6 109.727 41.3091C109.727 36.1455 105.855 32.2727 100.691 32.2727C99.4 32.2727 98.1091 32.2727 96.8182 32.9182ZM71 77.4545C74.8727 77.4545 77.4545 74.8727 77.4545 71C77.4545 67.1273 74.8727 64.5454 71 64.5454C67.1273 64.5454 64.5454 67.1273 64.5454 71C64.5454 74.8727 67.1273 77.4545 71 77.4545Z" fill="#5A5A5A"/>
</svg>
