<svg width="24" height="24" viewBox="0 0 24 24" fill="none" xmlns="http://www.w3.org/2000/svg">
<g id=" Property 1=02 Discover">
<path id="Shape" fill-rule="evenodd" clip-rule="evenodd" d="M12 1C18.075 1 23 5.92497 23 12C23 18.075 18.075 23 12 23C5.92497 23 1 18.075 1 12C1 5.92497 5.92497 1 12 1ZM15.8456 6.74668L10.251 8.76077C9.55696 9.0107 9.01057 9.55719 8.76077 10.2513L6.74668 15.8456C6.60222 16.2466 6.70238 16.6949 7.00375 16.9963C7.30511 17.2976 7.75344 17.3978 8.1544 17.2533L13.749 15.2392C14.443 14.9893 14.9894 14.4428 15.2392 13.7487L17.2533 8.1544C17.3978 7.75344 17.2976 7.30511 16.9963 7.00375C16.6949 6.70238 16.2466 6.60222 15.8456 6.74668ZM12 13.375C12.7594 13.375 13.375 12.7594 13.375 12C13.375 11.2406 12.7594 10.625 12 10.625C11.2406 10.625 10.625 11.2406 10.625 12C10.625 12.7594 11.2406 13.375 12 13.375Z" fill="#B6BABF"/>
</g>
</svg>
