<svg width="25" height="24" viewBox="0 0 25 24" fill="none" xmlns="http://www.w3.org/2000/svg">
<path d="M23.5 12C23.5 18.1 18.6 23 12.5 23C6.4 23 1.5 18.1 1.5 12C1.5 5.9 6.4 1 12.5 1C18.6 1 23.5 5.9 23.5 12ZM17.1 6C16.9 6 16.7 6 16.5 6.1L10.4 8.9C9.9 9.1 9.6 9.5 9.4 9.9L6.6 16C6.5 16.2 6.5 16.4 6.5 16.6C6.5 17.4 7.1 18 7.9 18C8.1 18 8.3 18 8.5 17.9L14.6 15.1C15.1 14.9 15.4 14.5 15.6 14.1L18.4 8C18.5 7.8 18.5 7.6 18.5 7.4C18.5 6.6 17.9 6 17.1 6Z" fill="#1F1F21"/>
<path d="M12.5 13C13.1 13 13.5 12.6 13.5 12C13.5 11.4 13.1 11 12.5 11C11.9 11 11.5 11.4 11.5 12C11.5 12.6 11.9 13 12.5 13Z" fill="#1F1F21"/>
</svg>
