<svg width="64" height="64" viewBox="0 0 64 64" fill="none" xmlns="http://www.w3.org/2000/svg">
<rect width="64" height="64" rx="32" fill="#446BF4"/>
<path d="M52.9868 20.9771C52.8711 20.78 52.6483 20.6857 52.4383 20.7157L52.4426 20.7071C48.4397 21.4657 44.304 20.7928 40.7768 18.8643L40.7726 18.8686C38.2226 17.4071 35.2697 16.5714 32.1154 16.5714C23.3683 16.5714 16.1383 22.9957 14.8354 31.3786C14.829 31.4236 14.8215 31.4696 14.814 31.5157C14.8065 31.5618 14.799 31.6078 14.7926 31.6528C14.7411 32.0171 14.6983 32.3857 14.6726 32.7586C14.6683 32.825 14.6651 32.8914 14.6618 32.9578C14.6586 33.0243 14.6554 33.0907 14.6511 33.1571C14.646 33.2499 14.6397 33.3423 14.6333 33.4346C14.6187 33.6494 14.604 33.864 14.604 34.0828C14.604 34.1 14.6051 34.1171 14.6061 34.1343C14.6072 34.1514 14.6083 34.1686 14.6083 34.1857L14.604 34.19C14.6768 38.2914 13.3054 42.3328 10.6868 45.5557L10.704 45.5471L10.7083 45.5514C10.5583 45.7228 10.524 45.9757 10.644 46.1857C10.7983 46.4428 11.1326 46.5286 11.394 46.3743L19.9954 41.2571L20.814 40.7686C19.6526 38.8057 18.9711 36.5257 18.9711 34.0786C18.9711 26.8186 24.8554 20.9343 32.1154 20.9343C36.9068 20.9343 41.0854 23.5057 43.3826 27.3328L47.1283 25.1043L47.2097 25.0528L52.7983 21.7271C53.0554 21.5728 53.1411 21.2386 52.9868 20.9771Z" fill="white"/>
<path d="M39.6411 29.5571C38.1025 27.0028 35.3125 25.2886 32.1111 25.2886C27.2554 25.2886 23.3211 29.2228 23.3211 34.0786C23.3211 35.7114 23.7754 37.2328 24.5468 38.54L39.6411 29.5571Z" fill="white"/>
<path d="M45.2104 33.0693C45.2093 33.0714 45.2083 33.0736 45.2083 33.0757C45.2383 33.41 45.2554 33.7443 45.2597 34.0871C45.2597 41.3471 39.3754 47.2314 32.1154 47.2314C27.3026 47.2314 23.1026 44.6343 20.814 40.7728L24.5511 38.5486C26.0811 41.1371 28.8926 42.8771 32.1154 42.8771C36.7826 42.8771 40.5883 39.2386 40.8797 34.6443L44.3597 32.5743L44.364 32.5786C44.4454 32.5271 44.5397 32.4928 44.6426 32.4928C44.9426 32.4928 45.1826 32.7243 45.204 33.02H45.2083V33.0371C45.2083 33.0414 45.2093 33.0457 45.2104 33.05C45.2115 33.0543 45.2126 33.0586 45.2126 33.0628C45.2126 33.065 45.2115 33.0671 45.2104 33.0693Z" fill="white"/>
</svg>
