
<svg width="16px" height="16px" viewBox="0 0 16 16" version="1.1" xmlns="http://www.w3.org/2000/svg" xmlns:xlink="http://www.w3.org/1999/xlink">
    <title>vdesusdtjq</title>
    <g id="wrddzbgmcm" stroke="none" stroke-width="1" fill="none" fill-rule="evenodd">
        <g id="qwuguixknw" transform="translate(-229.000000, -156.000000)">
            <g id="qsgmwyloih" transform="translate(69.000000, 144.000000)">
                <g id="rzbnpfsonn" transform="translate(160.000000, 12.000000)">
                    <rect id="tkelftthdg" x="0" y="0" width="16" height="16"></rect>
                    <g id="lznwuvidzj" transform="translate(1.000000, 1.000000)" fill="#515A62">
                        <path d="M2.54975,11.0163934 C2.58475,11.0163934 2.61975,11.0129508 2.65475,11.0077869 L5.59825,10.5 C5.63325,10.4931148 5.6665,10.477623 5.691,10.4518033 L13.10925,3.15516393 C13.1775,3.08803279 13.1775,2.97959016 13.10925,2.91245902 L10.20075,0.0499180328 C10.1675,0.0172131148 10.12375,0 10.0765,0 C10.02925,0 9.9855,0.0172131148 9.95225,0.0499180328 L2.534,7.34655738 C2.50775,7.37237705 2.492,7.40336066 2.485,7.43778689 L1.96875,10.3330328 C1.9355,10.5240984 1.995,10.71 2.13325,10.8459836 C2.24875,10.9561475 2.394,11.0163934 2.54975,11.0163934 L2.54975,11.0163934 Z M3.72925,8.01442623 L10.0765,1.77295082 L11.35925,3.03467213 L5.012,9.27614754 L3.45625,9.54639344 L3.72925,8.01442623 L3.72925,8.01442623 Z M0.6,12.6229508 L13.4,12.6229508 C13.7313708,12.6229508 14,12.89158 14,13.2229508 L14,13.4 C14,13.7313708 13.7313708,14 13.4,14 L0.6,14 C0.26862915,14 7.0671504e-16,13.7313708 0,13.4 L0,13.2229508 C7.04410774e-17,12.89158 0.26862915,12.6229508 0.6,12.6229508 Z" id="ultudhfvxo"></path>
                    </g>
                </g>
            </g>
        </g>
    </g>
</svg>