<svg width="16" height="16" viewBox="0 0 16 16" fill="none" xmlns="http://www.w3.org/2000/svg">
<g id="interactive-edit">
<g id="Union">
<path d="M2.89272 10.5672L3.05022 9.08563L8.01566 4.61473L9.348 6.09453L4.3826 10.5654L2.89272 10.5672ZM10.2769 5.25811L8.94459 3.77832L9.93994 2.8821L11.2723 4.36186L10.2769 5.25811ZM1.56145 11.2653C1.53002 11.5609 1.76195 11.8185 2.05925 11.8182L4.67148 11.815C4.79483 11.8149 4.91378 11.7692 5.00545 11.6866L12.6661 4.78894C12.8713 4.60417 12.8879 4.28802 12.7031 4.0828L10.367 1.48833C10.1822 1.28312 9.8661 1.26655 9.66088 1.45132L2.00024 8.349C1.90857 8.43154 1.85065 8.54505 1.83761 8.66771L1.56145 11.2653ZM14.25 13.2C14.25 13.0895 14.1605 13 14.05 13H1.95C1.83954 13 1.75 13.0895 1.75 13.2V14.05C1.75 14.1605 1.83954 14.25 1.95 14.25H14.05C14.1605 14.25 14.25 14.1605 14.25 14.05V13.2Z" fill="#979AA1"/>
</g>
</g>
</svg>
