<svg width="18" height="18" viewBox="0 0 18 18" fill="none" xmlns="http://www.w3.org/2000/svg">
<g clip-path="url(#clip0_7053_1461)">
<path d="M0.666668 3.69721C0.666668 2.86046 1.34502 2.18213 2.18182 2.18213H15.8182C16.655 2.18213 17.3333 2.86046 17.3333 3.69722V14.3028C17.3333 15.1396 16.655 15.8179 15.8182 15.8179H2.18182C1.34502 15.8179 0.666668 15.1396 0.666668 14.3028V3.69721ZM2.18182 6.03894V13.5453C2.18182 13.9637 2.521 14.3028 2.9394 14.3028H15.0606C15.479 14.3028 15.8182 13.9637 15.8182 13.5453V6.03894L10.0883 9.16421C9.40993 9.5342 8.59007 9.5342 7.91172 9.16421L2.18182 6.03894Z" fill="#515A62"/>
</g>
<defs>
<clipPath id="clip0_7053_1461">
<rect width="17.7778" height="17.7778" fill="white" transform="translate(0.111111 0.111328)"/>
</clipPath>
</defs>
</svg>
