<svg width="20" height="20" viewBox="0 0 20 20" fill="none" xmlns="http://www.w3.org/2000/svg">
<path d="M2.34766 17.0312C2.34766 17.3764 2.62748 17.6562 2.97266 17.6562L17.0352 17.6563C17.3803 17.6563 17.6602 17.3764 17.6602 17.0313V11.4914C17.6602 11.3533 17.5482 11.2414 17.4102 11.2414H16.3477C16.2096 11.2414 16.0977 11.3533 16.0977 11.4914V16.0938L3.91016 16.0937L3.91016 3.90625L8.50665 3.90625C8.64472 3.90625 8.75665 3.79432 8.75665 3.65625V2.59375C8.75665 2.45568 8.64472 2.34375 8.50665 2.34375H2.97266C2.62748 2.34375 2.34766 2.62357 2.34766 2.96875V17.0312ZM17.0614 2.67402C17.2143 2.66226 17.3416 2.7896 17.3298 2.94246L16.952 7.85494C16.9356 8.0679 16.6769 8.16357 16.5259 8.01254L14.8109 6.29756L8.61208 12.4964C8.51445 12.594 8.35616 12.594 8.25853 12.4964L7.50723 11.7451C7.40959 11.6475 7.40959 11.4892 7.50723 11.3916L13.7061 5.1927L11.9913 3.47795C11.8403 3.32692 11.936 3.06829 12.1489 3.05191L17.0614 2.67402Z" fill="#55585E"/>
</svg>
