<svg width="16" height="16" viewBox="0 0 16 16" fill="none" xmlns="http://www.w3.org/2000/svg">
<g id="interactive-eye">
<g id="Union">
<path d="M4.36352 6.01123C6.30183 3.84033 9.69812 3.84033 11.6364 6.01123L13.4121 7.99999L11.6364 9.98875C9.69812 12.1597 6.30183 12.1597 4.36353 9.98875L2.58784 7.99999L4.36352 6.01123ZM12.5688 5.17871C10.1335 2.45117 5.8664 2.45117 3.4311 5.17871L1.20943 7.66698C1.04005 7.85668 1.04005 8.1433 1.20943 8.333L3.4311 10.8213C5.86641 13.5488 10.1335 13.5488 12.5688 10.8213L14.7905 8.333C14.9599 8.1433 14.9599 7.85668 14.7905 7.66698L12.5688 5.17871ZM6.87499 8C6.87499 7.37868 7.37867 6.875 7.99999 6.875C8.62131 6.875 9.12499 7.37868 9.12499 8C9.12499 8.62132 8.62131 9.125 7.99999 9.125C7.37867 9.125 6.87499 8.62132 6.87499 8ZM7.99999 5.625C6.68831 5.625 5.62499 6.68832 5.62499 8C5.62499 9.31168 6.68831 10.375 7.99999 10.375C9.31167 10.375 10.375 9.31168 10.375 8C10.375 6.68832 9.31167 5.625 7.99999 5.625Z" fill="#55585E"/>
</g>
</g>
</svg>
