<svg width="24" height="24" viewBox="0 0 24 24" fill="none" xmlns="http://www.w3.org/2000/svg">
<g id="Visibility">
<path id="Vector" fill-rule="evenodd" clip-rule="evenodd" d="M12 4C9.2 4 6.5 5 4.3 6.8L1.1 9.6C0.4 10.2 0 11.1 0 12C0 12.9 0.4 13.8 1.1 14.4L4.3 17.1C6.5 19 9.2 20 12 20C14.8 20 17.5 19 19.7 17.2L22.9 14.5C23.6 13.9 24 13 24 12.1C24 11.2 23.6 10.3 22.9 9.7L19.7 7C17.5 5 14.8 4 12 4ZM18 12C18 15.3 15.3 18 12 18C8.7 18 6 15.3 6 12C6 8.7 8.7 6 12 6C15.3 6 18 8.7 18 12ZM8 12C8 9.8 9.8 8 12 8C14.2 8 16 9.8 16 12C16 14.2 14.2 16 12 16C9.8 16 8 14.2 8 12Z" fill="white"/>
</g>
</svg>
