
<svg width="16px" height="16px" viewBox="0 0 16 16" version="1.1" xmlns="http://www.w3.org/2000/svg" xmlns:xlink="http://www.w3.org/1999/xlink">
    <title>hicffbbgsz</title>
    <g id="jtvsvslccs" stroke="none" stroke-width="1" fill="none" fill-rule="evenodd">
        <g id="drmlgrnetj" transform="translate(-311.000000, -419.000000)">
            <g id="blugztcrpn" transform="translate(32.000000, 403.000000)">
                <g id="jqemtwcmfy" transform="translate(279.000000, 16.000000)">
                    <rect id="mydwujydnq" x="0" y="0" width="16" height="16"></rect>
                    <path d="M15.8956366,7.91635199 L15.8938017,7.91451705 L15.8919667,7.91268211 C15.2240481,6.50528224 14.4240138,5.36761871 13.4936986,4.49969154 L12.5633834,5.43184165 C13.3652527,6.169488 14.0588605,7.15118153 14.6570513,8.38426199 C13.1285453,11.5458656 10.9614798,13.0468475 7.99988475,13.0468475 C7.05855994,13.0468475 6.19613759,12.8945474 5.40894783,12.5862773 L4.40523501,13.5899901 C5.47867559,14.1074435 6.67505723,14.3680051 7.99988475,14.3680051 C11.5266417,14.3680051 14.1542774,12.5238893 15.8938017,8.85767681 C16.0350921,8.56041634 16.0350921,8.2154474 15.8956366,7.91635199 L15.8956366,7.91635199 Z M14.7212742,1.82067744 L13.9432592,1.04266238 C13.886376,0.985779206 13.792794,0.985779206 13.7359108,1.04266238 L11.5926996,3.18403872 C10.5210939,2.66475037 9.32471228,2.40418873 7.99988475,2.40418873 C4.47312783,2.40418873 1.84549208,4.2483046 0.105967852,7.91451705 L0.105967852,7.91635199 C-0.0353226175,8.21361246 -0.0353226175,8.56225129 0.105967852,8.8613467 C0.773886437,10.2687466 1.57392079,11.4064101 2.50423596,12.2761722 L0.656450203,14.1202881 C0.599567026,14.1771713 0.599567026,14.2707533 0.656450203,14.3276364 L1.43446526,15.1056515 C1.49134843,15.1625347 1.58493043,15.1625347 1.64181361,15.1056515 L14.7212742,2.02619085 C14.7781574,1.97114261 14.7781574,1.87756061 14.7212742,1.82067744 Z M5.92456629,8.85217199 C5.88970241,8.70170681 5.871353,8.54573682 5.871353,8.38609693 C5.871353,7.25026835 6.79065852,6.33096283 7.92648711,6.33096283 C8.08612699,6.33096283 8.24393193,6.34931224 8.39256216,6.38417612 L5.92456629,8.85217199 Z M9.31003275,5.46670554 C8.88983122,5.26853189 8.42192122,5.15660048 7.92648711,5.15660048 C6.14292429,5.15660048 4.69699065,6.60253412 4.69699065,8.38609693 C4.69699065,8.88153105 4.80892206,9.34944105 5.00709571,9.76964257 L3.43638607,11.3403522 C2.63451678,10.6027059 1.94090902,9.62101234 1.3427182,8.38793187 C2.87305913,5.22632824 5.04012465,3.72534637 7.99988475,3.72534637 C8.94120957,3.72534637 9.80363192,3.87764649 10.5908217,4.1859166 L9.31003275,5.46670554 L9.31003275,5.46670554 Z M7.92648711,10.441231 C7.80905087,10.441231 7.69344958,10.4320563 7.58151817,10.411872 L6.64386323,11.3495269 C7.03654064,11.5201764 7.4714217,11.6137584 7.92648711,11.6137584 C9.71004992,11.6137584 11.1559836,10.1678248 11.1559836,8.38426199 C11.1559836,7.92919658 11.0624016,7.49431553 10.891752,7.10163812 L9.9540971,8.03929305 C9.97244651,8.15122446 9.98345616,8.26682576 9.98345616,8.38426199 C9.98162121,9.52192552 9.06231569,10.441231 7.92648711,10.441231 Z" id="wuwmqbjnrj" fill="#464B53"></path>
                </g>
            </g>
        </g>
    </g>
</svg>