<svg width="16" height="16" viewBox="0 0 16 16" fill="none" xmlns="http://www.w3.org/2000/svg">
<g id="interactive-eye-invisible">
<g id="Union">
<path d="M1.63605 2.62606C1.55795 2.54795 1.55795 2.42132 1.63605 2.34321L2.23709 1.74217C2.3152 1.66407 2.44183 1.66407 2.51993 1.74217L14.2579 13.4801C14.336 13.5582 14.336 13.6849 14.2579 13.763L13.6569 14.364C13.5788 14.4421 13.4521 14.4421 13.374 14.364L11.0604 12.0504C8.62443 13.4564 5.41806 13.0467 3.4311 10.8213L1.20943 8.33301C1.04005 8.14331 1.04005 7.8567 1.20943 7.667L3.4311 5.17873C3.55132 5.04408 3.67601 4.91608 3.80472 4.79472L1.63605 2.62606ZM4.68916 5.67917C4.57668 5.78355 4.46799 5.89425 4.36352 6.01124L2.58784 8.00001L4.36353 9.98877C5.86474 11.6701 8.24054 12.0493 10.1362 11.1262L9.11013 10.1001C8.77882 10.2756 8.40101 10.375 7.99999 10.375C6.68831 10.375 5.62499 9.31169 5.62499 8.00001C5.62499 7.59899 5.72438 7.22118 5.89988 6.88988L4.68916 5.67917ZM6.88217 7.87218C6.87743 7.91413 6.87499 7.95679 6.87499 8.00001C6.87499 8.62133 7.37867 9.12501 7.99999 9.12501C8.04322 9.12501 8.08587 9.12258 8.12783 9.11783L6.88217 7.87218ZM5.60714 3.61725L6.58227 4.59238C8.33043 4.06366 10.3198 4.53662 11.6364 6.01124L13.4121 8.00001L11.7979 9.80796L12.6832 10.6933L14.7905 8.33301C14.9599 8.14331 14.9599 7.8567 14.7905 7.667L12.5688 5.17872C10.7588 3.15148 7.93681 2.63099 5.60714 3.61725ZM7.64175 5.65186L10.3482 8.35826C10.3658 8.24142 10.375 8.12179 10.375 8.00001C10.375 6.68834 9.31167 5.62501 7.99999 5.62501C7.87822 5.62501 7.75859 5.63418 7.64175 5.65186Z" fill="#55585E"/>
</g>
</g>
</svg>
