<svg width="24" height="24" viewBox="0 0 24 24" fill="none" xmlns="http://www.w3.org/2000/svg">
<g id="Visibility_off">
<path id="Vector" fill-rule="evenodd" clip-rule="evenodd" d="M21.7 3.7C22.1 3.3 22.1 2.7 21.7 2.3C21.3 1.9 20.7 1.9 20.3 2.3L17.3 5.3C15.7 4.4 13.9 4 12 4C9.2 4 6.5 5 4.3 6.8L1.1 9.6C0.4 10.2 0 11.1 0 12C0 12.9 0.4 13.8 1.1 14.4L4.3 17.1C4.5 17.3 4.7 17.4 4.9 17.6L2.3 20.2C1.9 20.6 1.9 21.2 2.3 21.6C2.7 22 3.3 22 3.7 21.6L21.7 3.7ZM7.1 15.5L8.6 14C8.2 13.4 8 12.7 8 12C8 9.8 9.8 8 12 8C12.7 8 13.4 8.2 14 8.6L15.4 7.2C14.5 6.4 13.3 6 12 6C8.7 6 6 8.7 6 12C6 13.3 6.4 14.5 7.1 15.5ZM17.7 10.2L20.4 7.5L22.9 9.6C23.6 10.2 24 11.1 24 12C24 12.9 23.6 13.8 22.9 14.4L19.7 17.1C17.5 19 14.8 20 12 20C10.8 20 9.6 19.8 8.5 19.5L10.2 17.8C10.8 18 11.4 18.1 12 18.1C15.3 18.1 18 15.4 18 12.1C18 11.4 17.9 10.8 17.7 10.2ZM12 16L16 11.9V12C16 14.2 14.2 16 12 16Z" fill="white"/>
</g>
</svg>
