<svg width="32" height="32" viewBox="0 0 32 32" fill="none" xmlns="http://www.w3.org/2000/svg">
<path d="M32 16C32 24.8366 24.8366 32 16 32C7.16344 32 0 24.8366 0 16C0 7.16344 7.16344 0 16 0C24.8366 0 32 7.16344 32 16Z" fill="#DEE2E8"/>
<path d="M31.5556 15.9999C31.5556 24.591 24.5911 31.5554 16 31.5554C7.40892 31.5554 0.444458 24.591 0.444458 15.9999C0.444458 7.40879 7.40892 0.444336 16 0.444336C24.5911 0.444336 31.5556 7.40879 31.5556 15.9999Z" fill="#F7F7F9"/>
<g clip-path="url(#clip0_6927_1256)">
<path d="M17.4792 17.0652V24.519C16.3557 24.519 15.0544 24.519 14.1459 24.519V17.0652H11.4376V13.9819H14.1459V11.6319C14.1459 8.9586 15.7383 7.48193 18.1748 7.48193C19.3419 7.48193 20.5625 7.69027 20.5625 7.69027V10.3153H19.2175C19.0519 10.3153 18.9005 10.3281 18.7624 10.3522C18.0923 10.4693 17.7346 10.852 17.5782 11.3216C17.509 11.5296 17.4792 11.7545 17.4792 11.981V13.9819H20.4375L19.9646 17.0652H17.4792Z" fill="#1877F2"/>
</g>
<defs>
<clipPath id="clip0_6927_1256">
<rect width="17.7778" height="17.7778" fill="white" transform="translate(7.11111 7.11133)"/>
</clipPath>
</defs>
</svg>
