<svg width="64" height="64" viewBox="0 0 64 64" fill="none" xmlns="http://www.w3.org/2000/svg">
<path d="M23.9998 6.66669C23.9998 8.80002 22.1332 10.6667 19.9998 10.6667C18.6665 10.6667 16.2665 10.6667 15.4665 10.6667C14.9332 10.6667 14.6665 10.6667 14.3998 10.6667C14.1332 10.6667 14.1332 10.6667 14.1332 10.6667C12.5332 11.2 11.4665 12.2667 10.9332 13.8667V14.1334V15.2C10.6665 16.2667 10.6665 18.6667 10.6665 20C10.6665 22.1334 8.79984 24 6.6665 24C4.53317 24 2.6665 22.1334 2.6665 20C2.6665 18.6667 2.6665 16 2.6665 15.2C2.6665 14.1334 2.6665 13.0667 2.93317 12C3.99984 7.73335 7.4665 4.26669 11.7332 3.20002C12.7998 2.93335 14.1332 2.66669 15.1998 2.66669H19.9998C22.1332 2.66669 23.9998 4.53335 23.9998 6.66669ZM43.9998 10.6667H48.5332H49.5998H49.8665C51.4665 11.2 52.5332 12.2667 53.0665 13.8667V14.1334V15.2V19.7334C53.3332 22.1334 55.1998 24 57.3332 24C59.4665 24 61.3332 22.1334 61.3332 20C61.3332 18.6667 61.3332 16 61.3332 15.2C61.3332 14.1334 61.3332 13.0667 61.0665 12C59.9998 7.73335 56.5332 4.26669 52.2665 3.20002C51.1998 2.93335 49.8665 2.66669 48.7998 2.66669C47.9998 2.66669 45.3332 2.66669 43.9998 2.66669C41.8665 2.66669 39.9998 4.53335 39.9998 6.66669C39.9998 8.80002 41.8665 10.6667 43.9998 10.6667ZM10.6665 44C10.6665 41.8667 8.79984 40 6.6665 40C4.53317 40 2.6665 41.8667 2.6665 44V48.8C2.6665 49.8667 2.6665 50.9333 2.93317 52C3.99984 56.2667 7.4665 59.7333 11.7332 60.8C12.7998 61.0667 14.1332 61.3334 15.1998 61.3334H19.9998C22.1332 61.3334 23.9998 59.4667 23.9998 57.3334C23.9998 55.2 22.1332 53.3334 19.9998 53.3334C18.6665 53.3334 16.2665 53.3334 15.4665 53.3334C14.9332 53.3334 14.6665 53.3334 14.3998 53.3334C14.1332 53.3334 14.1332 53.3334 14.1332 53.3334C12.5332 52.8 11.4665 51.7333 10.9332 50.1334C10.9332 50.1334 10.9332 50.1334 10.9332 49.8667C10.9332 49.6 10.9332 49.3333 10.9332 48.8C10.6665 47.7333 10.6665 45.3334 10.6665 44ZM61.3332 44C61.3332 41.8667 59.4665 40 57.3332 40C55.1998 40 53.3332 41.8667 53.3332 44V48.5334V49.6V49.8667C52.7998 51.4667 51.7332 52.5333 50.1332 53.0667C50.1332 53.0667 50.1332 53.0667 49.8665 53.0667C49.5998 53.0667 49.3332 53.0667 48.7998 53.0667C47.9998 53.0667 45.5998 53.0667 44.2665 53.0667C42.1332 53.0667 40.2665 54.9333 40.2665 57.0667C40.2665 59.2 42.1332 61.0667 44.2665 61.0667H49.0665C50.1332 61.0667 51.1998 61.0667 52.2665 60.8C56.5332 59.7333 59.9998 56.2667 61.0665 52C61.3332 50.9333 61.3332 49.8667 61.3332 48.8C61.3332 48 61.3332 45.3334 61.3332 44ZM39.9998 24C39.9998 25.6 41.0665 26.6667 42.6665 26.6667C44.2665 26.6667 45.3332 25.6 45.3332 24V21.3334C45.3332 19.7334 44.2665 18.6667 42.6665 18.6667C41.0665 18.6667 39.9998 19.7334 39.9998 21.3334V24ZM18.6665 24C18.6665 25.6 19.7332 26.6667 21.3332 26.6667C22.9332 26.6667 23.9998 25.6 23.9998 24V21.3334C23.9998 19.7334 22.9332 18.6667 21.3332 18.6667C19.7332 18.6667 18.6665 19.7334 18.6665 21.3334V24ZM29.3332 30.6667C29.3332 33.8667 31.9998 36.2667 34.9332 36.2667C36.5332 36.2667 37.5998 35.2 37.5998 33.6C37.5998 32 36.5332 30.9334 34.9332 30.9334C34.6665 30.9334 34.6665 30.6667 34.6665 30.6667V24C34.6665 22.4 33.5998 21.3334 31.9998 21.3334C30.3998 21.3334 29.3332 22.4 29.3332 24V30.6667ZM39.7332 37.8667C39.7332 37.8667 39.4665 37.8667 39.4665 38.1334C39.1998 38.4 38.6665 38.6667 38.1332 38.9334C36.5332 39.4667 34.6665 40 31.9998 40C29.3332 40 27.4665 39.4667 26.1332 38.9334C25.5998 38.6667 25.0665 38.4 24.7998 38.1334C24.5332 38.1334 24.5332 37.8667 24.5332 37.8667C23.4665 37.0667 21.5998 37.0667 20.7998 38.4C19.9998 39.4667 19.9998 41.3334 21.3332 42.1334H21.5998C21.8665 42.1334 21.8665 42.4 22.1332 42.4C22.6665 42.6667 23.4665 43.2 24.2665 43.4667C26.1332 44.2667 28.7998 45.0667 32.2665 45.0667C35.7332 45.0667 38.3998 44.2667 40.2665 43.4667C41.0665 43.2 41.8665 42.6667 42.3998 42.4C42.6665 42.1334 42.9332 42.1334 42.9332 42.1334H43.1998C44.2665 41.3334 44.5332 39.4667 43.7332 38.4C42.3998 37.0667 40.7998 37.0667 39.7332 37.8667Z" fill="white"/>
</svg>
