<svg width="49" height="48" viewBox="0 0 49 48" fill="none" xmlns="http://www.w3.org/2000/svg">
<circle cx="24" cy="24" r="24" fill="#F7F7F9"/>
<path fill-rule="evenodd" clip-rule="evenodd" d="M26.1678 19.231H28.1955C31.1123 19.231 33.4768 21.5955 33.4768 24.5122V26.4638C33.4768 26.6847 33.2977 26.8638 33.0768 26.8638H28.7073C28.4863 26.8638 28.3073 26.6847 28.3073 26.4638V25.2763C28.3073 24.8794 27.9855 24.5576 27.5885 24.5576H17.8521V19.231H21.2613C22.6055 17.873 24.8214 17.8923 26.1678 19.231ZM25.8046 20.7935C25.5725 20.7935 25.3536 20.6856 25.2122 20.5015C24.4408 19.5415 22.9732 19.5455 22.2262 20.4952C22.0933 20.6823 21.878 20.7935 21.6485 20.7935H19.4146V22.9951H27.5885C28.8484 22.9951 29.8698 24.0164 29.8698 25.2763V25.3013H31.9143V24.5122C31.9143 22.4584 30.2493 20.7935 28.1955 20.7935H25.8046Z" fill="#25272A"/>
<path fill-rule="evenodd" clip-rule="evenodd" d="M15.5232 18.0256C15.5232 17.8047 15.7023 17.6256 15.9232 17.6256H19.0146C19.2355 17.6256 19.4146 17.8047 19.4146 18.0256V25.9234C19.4146 26.1443 19.2355 26.3234 19.0146 26.3234H15.9232C15.7023 26.3234 15.5232 26.1443 15.5232 25.9234V18.0256ZM17.0857 19.1881V24.7609H17.8521V19.1881H17.0857Z" fill="#25272A"/>
<path fill-rule="evenodd" clip-rule="evenodd" d="M22.9046 18.6165L22.9046 16.1137L24.4671 16.1137L24.4671 18.6165L22.9046 18.6165Z" fill="#25272A"/>
<path fill-rule="evenodd" clip-rule="evenodd" d="M20.9961 15.7325C20.9961 15.5115 21.1752 15.3325 21.3961 15.3325H25.9754C26.1963 15.3325 26.3754 15.5115 26.3754 15.7325V16.495C26.3754 16.7159 26.1963 16.895 25.9754 16.895H21.3961C21.1752 16.895 20.9961 16.7159 20.9961 16.495V15.7325Z" fill="#25272A"/>
<path fill-rule="evenodd" clip-rule="evenodd" d="M31.433 27.6976L30.8942 28.2616L30.3554 27.6976L30.6179 27.4468C30.7725 27.2991 31.0159 27.2991 31.1705 27.4468L31.433 27.6976ZM30.8942 29.4057C30.8362 29.474 30.7767 29.5462 30.7175 29.6212C30.5364 29.8505 30.3701 30.0897 30.2524 30.3118C30.1268 30.5487 30.0967 30.6918 30.0967 30.7483C30.0967 31.3853 30.5371 31.7417 30.8942 31.7417C31.2513 31.7417 31.6917 31.3853 31.6917 30.7483C31.6917 30.6918 31.6616 30.5487 31.536 30.3118C31.4183 30.0897 31.252 29.8505 31.0709 29.6212C31.0117 29.5462 30.9522 29.474 30.8942 29.4057ZM30.3554 27.6976C30.3554 27.6976 30.3554 27.6976 30.8942 28.2616C31.433 27.6976 31.433 27.6976 31.433 27.6976L31.4356 27.7001L31.4405 27.7048L31.4568 27.7206C31.4704 27.7339 31.4896 27.7528 31.5135 27.7767C31.5612 27.8244 31.6281 27.8925 31.7078 27.9769C31.8663 28.1448 32.0797 28.3815 32.295 28.6542C32.5082 28.9241 32.7363 29.2452 32.9144 29.5813C33.0846 29.9024 33.2517 30.315 33.2517 30.7483C33.2517 32.0701 32.2795 33.3017 30.8942 33.3017C29.5089 33.3017 28.5367 32.0701 28.5367 30.7483C28.5367 30.315 28.7038 29.9024 28.874 29.5813C29.0521 29.2452 29.2802 28.9241 29.4934 28.6542C29.7088 28.3815 29.9221 28.1448 30.0806 27.9769C30.1603 27.8925 30.2272 27.8244 30.2749 27.7767C30.2988 27.7528 30.318 27.7339 30.3316 27.7206L30.3479 27.7048L30.3528 27.7001L30.3554 27.6976Z" fill="#25272A"/>
</svg>
