<svg width="24" height="24" viewBox="0 0 24 24" fill="none" xmlns="http://www.w3.org/2000/svg">
<g clip-path="url(#clip0_3448_996)">
<path d="M8 13.7C8 14.3 7.6 14.7 7 14.7C6.4 14.7 6 14.3 6 13.7C6 11.9 6.7 10.1 7.6 8.7C8.5 7.3 9.5 6.1 10.3 5.3C10.7 4.9 11.3 4.9 11.7 5.3C12.1 5.7 12.1 6.3 11.7 6.7C11 7.4 10 8.5 9.3 9.7C8.5 11 8 12.3 8 13.7ZM2 14C2 19.5 6.5 24 12 24C14.7 24 17.2 23.2 19 21.5C20.9 19.8 22 17.3 22 14C22 11 20.8 8.3 19.2 6.1C17.7 3.9 15.8 2.1 14.4 0.9C13.7 0.3 12.9 0 12 0C11.1 0 10.3 0.3 9.6 0.9C8.2 2.1 6.3 3.9 4.8 6.1C3.2 8.3 2 11 2 14Z" fill="white"/>
</g>
<defs>
<clipPath id="clip0_3448_996">
<rect width="24" height="24" fill="white"/>
</clipPath>
</defs>
</svg>
