<svg width="46" height="46" viewBox="0 0 46 46" fill="none" xmlns="http://www.w3.org/2000/svg">
<g id="&#231;&#188;&#150;&#231;&#187;&#132;">
<circle id="&#230;&#164;&#173;&#229;&#156;&#134;&#229;&#189;&#162;" cx="23" cy="23" r="23" fill="#FEFEFE" fill-opacity="0.16"/>
<g id="Icon / Basic">
<g id="&#240;&#159;&#166;&#134; icon &#34;gift&#34;">
<path id="Vector" d="M29.3903 22.953V30.6408C29.3903 30.8065 29.256 30.9408 29.0903 30.9408H16.9099C16.7442 30.9408 16.6099 30.8065 16.6099 30.6408V22.953" stroke="white" stroke-width="1.8" stroke-linecap="round" stroke-linejoin="round"/>
<path id="Vector_2" d="M30.6878 18.4394H15.3122C15.1465 18.4394 15.0122 18.5737 15.0122 18.7394V22.0397C15.0122 22.2054 15.1465 22.3397 15.3122 22.3397H30.6878C30.8535 22.3397 30.9878 22.2054 30.9878 22.0397V18.7394C30.9878 18.5737 30.8535 18.4394 30.6878 18.4394Z" stroke="white" stroke-width="1.8" stroke-linecap="round" stroke-linejoin="round"/>
<path id="Vector_3" d="M27.6724 14.9814L23.5444 17.3647C23.3259 17.4909 23.3512 17.8141 23.5867 17.9046L24.8135 18.3761C24.8499 18.3901 24.8888 18.3969 24.9278 18.396L27.107 18.3474L27.5523 18.0333L28.9375 17.1445C29.0724 17.0579 29.1154 16.8807 29.0353 16.742L28.0823 15.0912C27.9994 14.9477 27.8159 14.8986 27.6724 14.9814Z" stroke="white" stroke-width="1.8" stroke-linecap="round" stroke-linejoin="round"/>
<path id="Vector_4" d="M18.3276 14.9814L22.4556 17.3647C22.6741 17.4909 22.6488 17.8141 22.4133 17.9046L21.1865 18.3761C21.1501 18.3901 21.1112 18.3969 21.0722 18.396L18.893 18.3474L18.4477 18.0333L17.0625 17.1445C16.9276 17.0579 16.8846 16.8807 16.9647 16.742L17.9177 15.0912C18.0006 14.9477 18.1841 14.8986 18.3276 14.9814Z" stroke="white" stroke-width="1.8" stroke-linecap="round" stroke-linejoin="round"/>
</g>
</g>
</g>
</svg>
