<svg width="47" height="46" viewBox="0 0 47 46" fill="none" xmlns="http://www.w3.org/2000/svg">
<g id="&#231;&#188;&#150;&#231;&#187;&#132;">
<circle id="&#230;&#164;&#173;&#229;&#156;&#134;&#229;&#189;&#162;" cx="23.5" cy="23" r="23" fill="#5B8EF4"/>
<g id="Icon / Basic">
<g id="&#240;&#159;&#166;&#134; icon &#34;gift&#34;">
<path id="Vector" d="M29.8903 22.953V30.6408C29.8903 30.8065 29.756 30.9408 29.5903 30.9408H17.4099C17.2442 30.9408 17.1099 30.8065 17.1099 30.6408V22.953" stroke="white" stroke-width="1.8" stroke-linecap="round" stroke-linejoin="round"/>
<path id="Vector_2" d="M31.1878 18.4395H15.8122C15.6465 18.4395 15.5122 18.5738 15.5122 18.7395V22.0397C15.5122 22.2054 15.6465 22.3397 15.8122 22.3397H31.1878C31.3535 22.3397 31.4878 22.2054 31.4878 22.0397V18.7395C31.4878 18.5738 31.3535 18.4395 31.1878 18.4395Z" stroke="white" stroke-width="1.8" stroke-linecap="round" stroke-linejoin="round"/>
<path id="Vector_3" d="M28.1724 14.9814L24.0444 17.3648C23.8259 17.4909 23.8512 17.8141 24.0867 17.9046L25.3135 18.3762C25.3499 18.3902 25.3888 18.3969 25.4278 18.3961L27.607 18.3475L28.0523 18.0333L29.4375 17.1445C29.5724 17.058 29.6154 16.8807 29.5353 16.742L28.5823 15.0912C28.4994 14.9478 28.3159 14.8986 28.1724 14.9814Z" stroke="white" stroke-width="1.8" stroke-linecap="round" stroke-linejoin="round"/>
<path id="Vector_4" d="M18.8276 14.9814L22.9556 17.3648C23.1741 17.4909 23.1488 17.8141 22.9133 17.9046L21.6865 18.3762C21.6501 18.3902 21.6112 18.3969 21.5722 18.3961L19.393 18.3475L18.9477 18.0333L17.5625 17.1445C17.4276 17.058 17.3846 16.8807 17.4647 16.742L18.4177 15.0912C18.5006 14.9478 18.6841 14.8986 18.8276 14.9814Z" stroke="white" stroke-width="1.8" stroke-linecap="round" stroke-linejoin="round"/>
</g>
</g>
</g>
</svg>
