<svg width="48" height="48" viewBox="0 0 48 48" fill="none" xmlns="http://www.w3.org/2000/svg">
<circle cx="24" cy="24" r="24" fill="#F7F7F9"/>
<path fill-rule="evenodd" clip-rule="evenodd" d="M29.2426 25.7262C29.2426 28.6215 26.8954 30.9687 24.0001 30.9687C21.1047 30.9687 18.7576 28.6215 18.7576 25.7262C18.7576 23.3833 20.1385 21.1562 21.7513 19.3902C22.5358 18.5313 23.3249 17.8367 23.9187 17.357C23.9472 17.334 23.9752 17.3114 24.0028 17.2894C24.0296 17.3107 24.0568 17.3325 24.0845 17.3547C24.6778 17.8315 25.4662 18.5226 26.25 19.3789C27.8602 21.1381 29.2426 23.3654 29.2426 25.7262ZM30.8051 25.7262C30.8051 29.4845 27.7584 32.5312 24.0001 32.5312C20.2418 32.5312 17.1951 29.4845 17.1951 25.7262C17.1951 20.6503 22.2966 16.5807 23.6655 15.5801C23.8679 15.4321 24.1325 15.4317 24.3354 15.579C25.7053 16.5743 30.8051 20.6221 30.8051 25.7262ZM23.7102 28.5963C23.7463 28.463 23.6667 28.3265 23.5362 28.2815C22.147 27.8032 21.424 26.6079 21.4151 25.4195C21.414 25.2815 21.3121 25.1611 21.1745 25.1505L20.1151 25.0685C19.9775 25.0579 19.8565 25.1609 19.8536 25.299C19.8129 27.1964 20.9727 29.0999 23.1276 29.7923C23.2591 29.8346 23.3967 29.7552 23.4328 29.6219L23.7102 28.5963Z" fill="#25272A"/>
</svg>
