<svg width="49" height="48" viewBox="0 0 49 48" fill="none" xmlns="http://www.w3.org/2000/svg">
<circle cx="24" cy="24" r="24" fill="#F7F7F9"/>
<path fill-rule="evenodd" clip-rule="evenodd" d="M29.7425 25.7262C29.7425 28.6215 27.3954 30.9687 24.5 30.9687C21.6047 30.9687 19.2575 28.6215 19.2575 25.7262C19.2575 23.3833 20.6385 21.1562 22.2513 19.3902C23.0358 18.5313 23.8248 17.8367 24.4186 17.357C24.4472 17.334 24.4752 17.3114 24.5028 17.2894C24.5295 17.3107 24.5568 17.3325 24.5845 17.3547C25.1777 17.8315 25.9661 18.5226 26.75 19.3789C28.3602 21.1381 29.7425 23.3654 29.7425 25.7262ZM31.305 25.7262C31.305 29.4845 28.2583 32.5312 24.5 32.5312C20.7417 32.5312 17.695 29.4845 17.695 25.7262C17.695 20.6503 22.7965 16.5807 24.1654 15.5801C24.3679 15.4321 24.6325 15.4317 24.8354 15.579C26.2053 16.5743 31.305 20.6221 31.305 25.7262ZM24.2102 28.5963C24.2462 28.463 24.1667 28.3265 24.0361 28.2815C22.647 27.8032 21.9239 26.6079 21.915 25.4195C21.914 25.2815 21.8121 25.1611 21.6745 25.1505L20.6151 25.0685C20.4775 25.0579 20.3565 25.1609 20.3535 25.299C20.3128 27.1964 21.4727 29.0999 23.6276 29.7923C23.759 29.8346 23.8967 29.7552 23.9328 29.6219L24.2102 28.5963Z" fill="#25272A"/>
</svg>
