<svg width="32" height="32" viewBox="0 0 32 32" fill="none" xmlns="http://www.w3.org/2000/svg">
<rect width="32" height="32" rx="16" fill="#1B76E2"/>
<path d="M21.4703 23.1756H17.3975V24.5701C17.3975 25.3379 16.7771 25.9645 16.0031 25.9645C15.2291 25.9645 14.6087 25.3441 14.6087 24.5701V23.1756H10.5359C9.46706 23.1756 8.79748 22.0208 9.33191 21.0932L12.3419 15.884H11.9242C10.8492 15.884 10.1796 14.723 10.7141 13.7954L14.7929 6.73108C15.3274 5.80351 16.6727 5.80351 17.2071 6.73108L21.286 13.7954C21.8204 14.723 21.1508 15.884 20.0758 15.884H19.6581L22.6681 21.0932C23.2026 22.0208 22.533 23.1756 21.4641 23.1756H21.4703Z" fill="white"/>
</svg>
