<svg width="344" height="240" viewBox="0 0 344 240" fill="none" xmlns="http://www.w3.org/2000/svg">
<g clip-path="url(#clip0_12234_33293)">
<g filter="url(#filter0_d_12234_33293)">
<path d="M88.3979 97.2435C88.3979 97.1498 88.4893 97.0832 88.5785 97.1119L171.21 123.711C171.267 123.729 171.306 123.782 171.306 123.842V213.368C171.306 213.649 171.032 213.849 170.764 213.763L88.4938 187.28C88.4367 187.262 88.3979 187.209 88.3979 187.149V97.2435Z" fill="#8B8FFC" stroke="black" stroke-width="0.518708"/>
<path d="M254.214 97.2435C254.214 97.1498 254.123 97.0832 254.034 97.1119L171.402 123.711C171.345 123.729 171.306 123.782 171.306 123.842V213.14C171.306 213.526 171.691 213.793 172.053 213.658L254.125 182.948C254.179 182.928 254.214 182.876 254.214 182.819V97.2435Z" fill="#6558FF" stroke="black" stroke-width="0.518708"/>
<path d="M207.406 200.421V112.808L225.769 106.687V193.577L207.406 200.421Z" fill="#ECAB2D" stroke="black" stroke-width="0.518708"/>
<path d="M134.578 202.108V114.749L116.215 108.628V196.121L134.578 202.108Z" fill="#ECAB2D" stroke="black" stroke-width="0.518708"/>
<path opacity="0.12" d="M151.408 172.659C147.518 174.774 145.071 179.945 146.493 185.077C147.354 188.179 149.087 190.398 151.667 191.531C156.169 193.507 160.862 189.161 160.339 183.506C160.112 181.103 159.129 179.277 157.131 178.511C155.646 177.948 154.219 178.21 153.051 179.552C152.068 180.684 151.688 182.085 152.084 183.715C152.301 184.612 152.824 185.168 153.537 185.43C154.161 185.666 154.647 185.325 155.023 184.684C154.949 184.527 154.88 184.356 154.79 184.212C154.304 183.434 154.695 182.301 155.118 181.83C155.688 181.188 156.613 181.129 157.226 181.66C158.209 182.517 158.664 184.802 158.125 186.242C157.226 188.644 154.917 190.038 152.803 189.357C149.463 188.284 147.814 184.193 148.892 180.246C150.324 174.996 155.144 172.699 159.251 175.219C162.57 177.254 163.801 180.802 163.674 185.037C163.457 192.002 157.787 197.166 152.095 195.825C146.577 194.522 142.476 187.976 142.772 181.791C142.878 179.506 143.295 177.366 144.236 175.402C146.683 170.29 150.509 167.887 155.292 167.495C156.55 167.39 157.824 167.475 159.023 167.475C158.96 167.442 158.807 167.344 158.653 167.279C156.312 166.199 153.897 165.852 151.423 166.29C149.891 166.526 148.469 167.043 147.185 167.77C147.164 167.77 147.132 167.783 147.1 167.802C146.524 168.11 146.424 167.41 146.218 167.194C146.017 166.991 146.043 167.246 146.043 167.246C146.218 168.274 145.779 168.686 145.721 168.738C145.356 169.02 145.007 169.321 144.669 169.642C144.659 169.642 144.648 169.642 144.643 169.655C143.845 170.106 143.512 169.341 143.147 169.111C142.756 168.869 142.904 169.269 142.904 169.269C143.385 170.453 142.967 171.468 142.888 171.632C142.55 172.083 142.233 172.561 141.932 173.059C141.9 173.085 141.868 173.104 141.831 173.144C141.049 174.021 140.436 173.327 139.955 173.196C139.421 173.052 139.722 173.484 139.722 173.484C140.711 174.741 140.399 176.246 140.399 176.246C139.136 179.65 138.681 183.584 139.21 187.531C140.949 200.511 153.839 206.645 162.284 198.279C165.027 195.563 166.93 190.333 167.13 186.006C167.273 182.93 166.507 180.141 165.09 177.621C162.089 172.26 156.09 170.113 151.402 172.659H151.408Z" fill="#3C2CFF"/>
</g>
<path d="M88.8648 97.2059C88.7316 97.163 88.7393 96.972 88.8754 96.9399L171.274 77.491C171.295 77.4861 171.317 77.4861 171.338 77.491L253.737 96.9399C253.873 96.972 253.88 97.163 253.747 97.2059L171.348 123.733C171.321 123.742 171.291 123.742 171.264 123.733L88.8648 97.2059Z" fill="#B2B0FF" stroke="black" stroke-width="0.514989"/>
<path d="M97.2428 97.2059C97.1096 97.163 97.1172 96.972 97.2534 96.9399L171.275 79.4684C171.296 79.4635 171.317 79.4635 171.338 79.4684L245.359 96.9399C245.496 96.972 245.503 97.163 245.37 97.2059L171.349 121.036C171.321 121.045 171.292 121.045 171.264 121.036L97.2428 97.2059Z" fill="#231863" stroke="black" stroke-width="0.514989"/>
<path d="M68.8362 143.562C53.1416 137.621 56.783 123.474 60.5655 117.143C57.6419 128.249 66.3326 132.702 71.0434 133.54L68.8362 143.562Z" fill="#FE6C6E" stroke="black" stroke-width="0.518708"/>
<path d="M275.915 102.875C280.771 101.762 287.267 93.231 285.201 85.0703L291.792 88.7813C292.814 90.4128 292.844 101.988 282.183 106.369L275.915 102.875Z" fill="#724FEB" stroke="black" stroke-width="0.518708"/>
<path d="M45.2275 60.7528C48.69 61.7815 55.8322 58.7108 57.437 52.8221L60.2755 57.5147C60.3389 58.9088 56.2317 66.2273 47.9391 65.1929L45.2275 60.7528Z" fill="#FFE04A" stroke="black" stroke-width="0.518708"/>
<path d="M145.146 14.219L146.958 19.1167L151.856 20.9289L146.958 22.7412L145.146 27.6389L143.334 22.7412L138.436 20.9289L143.334 19.1167L145.146 14.219Z" fill="#8388F9" stroke="black" stroke-width="0.518708"/>
<path d="M83.9614 86.1502C83.9614 86.0572 84.0514 85.9908 84.1403 86.0181L169.717 112.358C169.775 112.376 169.815 112.43 169.815 112.49V131.041C169.815 131.32 169.545 131.52 169.278 131.437L84.059 105.207C84.001 105.19 83.9614 105.136 83.9614 105.075V86.1502Z" fill="#A4A8FF" stroke="black" stroke-width="0.518708"/>
<path d="M132.502 120.148V99.9879L114.139 93.8669V114.476L132.502 120.148Z" fill="#FDC558" stroke="black" stroke-width="0.887269"/>
<path d="M258.65 82.2795C258.65 82.1847 258.557 82.1181 258.468 82.1487L169.934 112.408C169.879 112.427 169.841 112.48 169.841 112.539V130.878C169.841 131.258 170.216 131.525 170.575 131.4L258.558 100.875C258.613 100.855 258.65 100.803 258.65 100.744V82.2795Z" fill="#7B70FF" stroke="black" stroke-width="0.518708"/>
<path d="M206.046 119.023V96.888L224.409 90.767V112.671L206.046 119.023Z" fill="#FDC558" stroke="black" stroke-width="0.518708"/>
<path d="M84.1049 86.0228C83.9713 85.9813 83.9768 85.7905 84.1124 85.7567L172.003 63.8939C172.023 63.8889 172.044 63.8885 172.065 63.8928L258.269 81.8869C258.407 81.9156 258.419 82.1071 258.286 82.1528L169.858 112.605C169.83 112.615 169.8 112.615 169.772 112.607L84.1049 86.0228Z" fill="#A4A8FF" stroke="black" stroke-width="0.5"/>
<mask id="mask0_12234_33293" style="mask-type:alpha" maskUnits="userSpaceOnUse" x="85" y="64" width="173" height="49">
<path d="M85.7958 85.877L172.027 64.427L256.585 82.0775L169.83 111.954L85.7958 85.877ZM257.001 81.9342L257 81.9345L257.001 81.9342ZM172.054 64.4203C172.053 64.4204 172.053 64.4204 172.053 64.4205L172.054 64.4203L172.024 64.3028L172.054 64.4203Z" fill="#A4A8FF" stroke="black" stroke-width="0.518708"/>
</mask>
<g mask="url(#mask0_12234_33293)">
<path d="M131.742 101.544L230.481 70.2089L210.893 65.0099L111.767 95.9118L131.742 101.544Z" fill="#FDC558" stroke="black" stroke-width="0.518708"/>
<path d="M207.929 100.785L109.191 69.45L130.598 64.4724L229.724 95.3743L207.929 100.785Z" fill="#FDC558" stroke="black" stroke-width="0.518708"/>
</g>
<path d="M273.168 152.577L275.592 159.129L282.145 161.554L275.592 163.979L273.168 170.531L270.743 163.979L264.19 161.554L270.743 159.129L273.168 152.577Z" fill="#1EF5CF" stroke="black" stroke-width="0.518708"/>
<path d="M158.156 78.0857L180.64 80.8317C181.082 80.8308 181.526 80.7903 182.036 80.7089L182.037 80.7087C182.565 80.6274 183.093 80.5061 183.684 80.3236C183.769 80.281 183.865 80.2357 184.088 80.1543C184.143 80.1331 184.198 80.112 184.253 80.0907C184.583 79.9632 184.935 79.8274 185.394 79.6154C185.783 79.4313 186.153 79.2259 186.549 78.9967L187.027 78.7061L188.116 77.9939L188.118 77.9924C188.867 77.5139 189.595 76.9938 190.324 76.411L190.33 76.4061L190.33 76.4062L190.573 76.2239L190.775 76.0422L190.781 76.0361L190.789 76.0306C190.918 75.9298 191.035 75.8208 191.198 75.668C191.258 75.6114 191.325 75.5488 191.401 75.4784C191.402 75.4779 191.402 75.4775 191.403 75.477L191.834 75.066L192.752 74.0438L192.754 74.042C192.973 73.8029 193.174 73.5218 193.386 73.2249L193.39 73.2202L193.39 73.2202L193.513 73.0552C193.757 72.7092 193.982 72.3415 194.209 71.9303L194.332 71.6827L194.336 71.6754L194.34 71.6684C194.437 71.5021 194.512 71.3324 194.594 71.1455C194.629 71.0644 194.666 70.98 194.707 70.8913L194.71 70.8841L194.711 70.8841L194.832 70.6413C194.879 70.5243 194.926 70.4124 194.974 70.3012C195.059 70.0994 195.144 69.8997 195.223 69.675C195.328 69.3619 195.431 69.0515 195.576 68.5333L195.579 68.5216L195.58 68.5217L195.685 68.2063L195.688 68.1973L195.688 68.1974C195.751 68.0277 195.808 67.8754 195.846 67.7059L195.847 67.6993L195.847 67.6994C195.877 67.5807 195.933 67.3041 195.984 67.0498C196.009 66.9242 196.032 66.8064 196.048 66.72L196.068 66.6169L196.073 66.5886L196.075 66.5821C196.106 66.4069 196.132 66.2364 196.158 66.0626L196.158 66.0594C196.184 65.889 196.211 65.7152 196.242 65.536L196.346 64.784L196.347 64.7771L196.347 64.7771L196.389 64.5302C196.431 64.1959 196.471 63.8475 196.492 63.5214L158.156 78.0857ZM158.156 78.0857L158.223 77.9728L157.832 77.9334C157.756 77.9258 157.69 77.8558 157.699 77.7636L157.7 77.7523V77.7409C157.7 77.6769 157.768 77.5916 157.87 77.5916C158.327 77.5916 158.78 77.5481 159.229 77.484L159.229 77.4841L159.234 77.4831C159.751 77.3972 160.264 77.2686 160.792 77.1209M158.156 78.0857L160.792 77.1209M160.792 77.1209C160.852 77.1055 160.903 77.0835 160.937 77.0689L160.941 77.067C160.98 77.0504 160.999 77.0427 161.019 77.0377L161.032 77.0344L161.045 77.0297C161.099 77.0097 161.151 76.9905 161.202 76.9718C161.674 76.7974 162.013 76.6724 162.35 76.4947C162.777 76.3021 163.202 76.0682 163.617 75.8401L163.621 75.8376L163.629 75.8334L163.636 75.8287L165.17 74.8413L165.17 74.8413L165.175 74.8381C165.889 74.3547 166.632 73.8457 167.354 73.272L167.356 73.2705L167.798 72.9134L167.798 72.9135L167.805 72.907C167.972 72.7603 168.14 72.6139 168.307 72.4673L168.309 72.4659L168.309 72.466L168.315 72.4601C168.363 72.4152 168.409 72.3722 168.454 72.3308C168.716 72.0856 168.92 71.8953 169.107 71.6894L169.109 71.6873L169.445 71.3091L169.445 71.3084C169.764 70.9474 170.065 70.5818 170.346 70.1712C170.731 69.6162 171.009 69.1452 171.266 68.6532L171.266 68.6532L171.268 68.6494C171.395 68.3941 171.522 68.1189 171.649 67.8233L171.751 67.6198L171.754 67.6132L171.757 67.6065C171.779 67.5543 171.802 67.5022 171.825 67.4497C171.927 67.2156 172.031 66.9762 172.12 66.71C172.228 66.4265 172.315 66.1236 172.398 65.8337L172.398 65.8327L172.398 65.8314L172.545 65.3059L172.546 65.3055C172.569 65.2197 172.595 65.1312 172.621 65.0405C172.706 64.7432 172.799 64.4218 172.865 64.0908C172.865 64.0905 172.865 64.0903 172.865 64.09L172.62 64.041L160.792 77.1209ZM173.235 61.6744L173.401 61.691L173.465 62.1733L173.164 62.2881L173.235 61.6744ZM173.235 61.6744C173.3 61.0988 173.337 60.5231 173.374 59.9382L173.374 59.9382L173.374 59.9348C173.416 59.0706 173.437 58.3518 173.437 57.6324C173.437 56.8878 173.395 56.1449 173.331 55.4461M173.235 61.6744L173.331 55.4461M173.331 55.4461C173.268 54.704 173.183 54.0663 173.076 53.4701L173.076 53.4693C172.949 52.7682 172.821 52.2368 172.694 51.7304L172.694 51.7303C172.585 51.2936 172.433 50.9032 172.286 50.5449M173.331 55.4461L196.492 63.521L196.555 62.4918L196.555 62.4838L196.556 62.4759C196.596 62.1579 196.596 61.8375 196.596 61.4775V61.4756V61.4736V61.4716V61.4697V61.4677V61.4657V61.4637V61.4618V61.4598V61.4578V61.4558V61.4539V61.4519V61.4499V61.4479V61.446V61.444V61.442V61.44V61.438V61.4361V61.4341V61.4321V61.4301V61.4281V61.4262V61.4242V61.4222V61.4202V61.4182V61.4162V61.4143V61.4123V61.4103V61.4083V61.4063V61.4043V61.4023V61.4004V61.3984V61.3964V61.3944V61.3924V61.3904V61.3884V61.3864V61.3844V61.3824V61.3804V61.3785V61.3765V61.3745V61.3725V61.3705V61.3685V61.3665V61.3645V61.3625V61.3605V61.3585V61.3565V61.3545V61.3525V61.3505V61.3485V61.3465V61.3445V61.3425V61.3405V61.3385V61.3365V61.3345V61.3325V61.3305V61.3285V61.3265V61.3245V61.3225V61.3205V61.3185V61.3165V61.3145V61.3125V61.3105V61.3084V61.3064V61.3044V61.3024V61.3004V61.2984V61.2964V61.2944V61.2924V61.2904V61.2884V61.2863V61.2843V61.2823V61.2803V61.2783V61.2763V61.2743V61.2722V61.2702V61.2682V61.2662V61.2642V61.2622V61.2602V61.2581V61.2561V61.2541V61.2521V61.2501V61.248V61.246V61.244V61.242V61.24V61.2379V61.2359V61.2339V61.2319V61.2299V61.2278V61.2258V61.2238V61.2218V61.2197V61.2177V61.2157V61.2137V61.2116V61.2096V61.2076V61.2056V61.2035V61.2015V61.1995V61.1975V61.1954V61.1934V61.1914V61.1893V61.1873V61.1853V61.1832V61.1812V61.1792V61.1772V61.1751V61.1731V61.1711V61.169V61.167V61.165V61.1629V61.1609V61.1589V61.1568V61.1548V61.1528V61.1507V61.1487V61.1466V61.1446V61.1426V61.1405V61.1385V61.1365V61.1344V61.1324V61.1303V61.1283V61.1263V61.1242V61.1222V61.1201V61.1181V61.1161V61.114V61.112V61.1099V61.1079V61.1059V61.1038V61.1018V61.0997V61.0977V61.0956V61.0936V61.0915V61.0895V61.0875V61.0854V61.0834V61.0813V61.0793V61.0772V61.0752V61.0731V61.0711V61.069V61.067V61.0649V61.0629V61.0608V61.0588V61.0567V61.0547V61.0526V61.0506V61.0485V61.0465V61.0444V61.0424V61.0403V61.0383V61.0362V61.0342V61.0321V61.0301V61.028V61.026V61.0239V61.0218V61.0198V61.0177V61.0157V61.0136V61.0116V61.0095V61.0075V61.0054V61.0033V61.0013V60.9992V60.9972V60.9951V60.9931V60.991V60.9889V60.9869V60.9848V60.9828V60.9807V60.9786V60.9766V60.9745V60.9725V60.9704V60.9683V60.9663V60.9642V60.9622V60.9601V60.958V60.956V60.9539V60.9518V60.9498V60.9477V60.9456V60.9436V60.9415V60.9395V60.9374V60.9353V60.9333V60.9312V60.9291V60.9271V60.925V60.9229V60.9209V60.9188V60.9167V60.9147V60.9126V60.9105V60.9085V60.9064V60.9043V60.9023V60.9002V60.8981V60.896V60.894V60.8919V60.8898V60.8878V60.8857V60.8836V60.8816V60.8795V60.8774V60.8753V60.8733V60.8712V60.8691V60.8671V60.865V60.8629V60.8608V60.8588V60.8567V60.8546V60.8525V60.8505V60.8484V60.8463V60.8442V60.8422V60.8401V60.838V60.8359V60.8339V60.8318V60.8297V60.8276V60.8256V60.8235V60.8214V60.8193V60.8173V60.8152V60.8131V60.811V60.809V60.8069V60.8048V60.8027V60.8006V60.7986V60.7965V60.7944V60.7923V60.7903V60.7882V60.7861V60.784V60.7819V60.7799V60.7778V60.7757V60.7736V60.7715V60.7695V60.7674V60.7653V60.7632V60.7611V60.7591V60.757V60.7549V60.7528V60.7507V60.7486V60.7466V60.7445V60.7424V60.7403V60.7382V60.7361V60.7341V60.732V60.7299V60.7278V60.7257V60.7236V60.7216V60.7195V60.7174V60.7153V60.7132V60.7111V60.7091V60.707V60.7049V60.7028V60.7007V60.6986V60.6965V60.6945V60.6924V60.6903V60.6882V60.6861V60.684V60.6819V60.6799V60.6778V60.6757V60.6736V60.6715V60.6694V60.6673V60.6652V60.6632V60.6611V60.659V60.6569V60.6548V60.6527V60.6506V60.6485V60.6465V60.6444V60.6423V60.6402V60.6381V60.636V60.6339V60.6318V60.6298V60.6277V60.6256V60.6235V60.6214V60.6193V60.6172V60.6151V60.613V60.6109V60.6089V60.6068V60.6047V60.6026V60.6005V60.5984V60.5963V60.5942V60.5921V60.59V60.588V60.5859V60.5838V60.5817V60.5796V60.5775V60.5754V60.5733V60.5712V60.5691V60.567V60.565V60.5629V60.5608V60.5587V60.5566V60.5545V60.5524V60.5503V60.5482V60.5461V60.544V60.5419V60.5398V60.5378V60.5357V60.5336V60.5315V60.5294V60.5273V60.5252V60.5231V60.521V60.5189V60.5168V60.5147V60.5126V60.5106V60.5085V60.5064V60.5043V60.5022V60.5001V60.498V60.4959V60.4938V60.4917V60.4896V60.4875V60.4854V60.4833V60.4812V60.4792V60.4771V60.475V60.4729V60.4708V60.4687V60.4666V60.4645V60.4624V60.4603V60.4582V60.4561V60.454V60.4519V60.4498V60.4478V60.4457V60.4436V60.4415V60.4394V60.4373V60.4352V60.4331V60.431V60.4289V60.4268C196.596 60.2526 196.591 60.0777 196.586 59.8985L196.586 59.8971C196.581 59.7218 196.575 59.5424 196.575 59.3622C196.554 58.9873 196.534 58.6346 196.492 58.1582L196.492 58.1522L196.492 58.1522C196.471 57.8253 196.43 57.4973 196.388 57.1602C196.368 57.0076 196.342 56.8543 196.316 56.6963L196.316 56.6946C196.29 56.5382 196.263 56.3773 196.241 56.2157L196.239 56.1992V56.1962M172.286 50.5449L172.286 50.5446L172.28 50.5296L172.261 50.4757L172.198 50.3048C172.151 50.1777 172.097 50.0318 172.075 49.9752L172.075 49.975L172.069 49.9632C171.815 49.4112 171.552 48.9461 171.257 48.6048M172.286 50.5449L172.287 50.5485L172.287 50.5495L172.287 50.5497L172.288 50.5498L172.288 50.5498L172.053 50.6353M172.286 50.5449C172.285 50.5433 172.284 50.5417 172.284 50.5401L172.053 50.6353M171.257 48.6048C170.787 48.0244 170.25 47.6861 169.645 47.6134L169.645 47.6133L169.638 47.6127C169.547 47.6044 169.489 47.5244 169.504 47.4441L169.506 47.4343L169.507 47.4244C169.514 47.3476 169.587 47.2779 169.667 47.2716M171.257 48.6048C171.258 48.6059 171.259 48.607 171.26 48.6081L171.065 48.7652M171.257 48.6048C171.256 48.6037 171.255 48.6026 171.254 48.6015L171.065 48.7652M169.667 47.2716L192.53 50.064L192.532 50.0642C193.184 50.1388 193.802 50.5126 194.361 51.1915M169.667 47.2716L169.648 47.2693L169.678 47.0212V47.2712C169.674 47.2712 169.671 47.2713 169.667 47.2716ZM194.361 51.1915C194.662 51.5722 194.945 52.0366 195.21 52.6286L195.21 52.6287L195.215 52.6381C195.256 52.7211 195.286 52.8131 195.32 52.9177C195.329 52.9457 195.338 52.9747 195.348 53.0046L195.351 53.0117L195.353 53.0186L195.436 53.2254M194.361 51.1915C194.361 51.1908 194.36 51.1901 194.36 51.1895L194.556 51.0345M194.361 51.1915C194.362 51.1921 194.362 51.1928 194.363 51.1934L194.556 51.0345M195.436 53.2254C195.583 53.6237 195.726 54.013 195.849 54.4418M195.436 53.2254C195.436 53.2244 195.436 53.2233 195.435 53.2222L195.67 53.1358M195.436 53.2254L195.438 53.2287L195.67 53.1358M195.849 54.4418C196.016 55.0681 196.119 55.5007 196.201 55.973L196.201 55.9749L196.201 55.9749L196.201 55.975L196.201 55.9755L196.202 55.9774L196.203 55.9846L196.207 56.0107L196.222 56.0912C196.227 56.1211 196.232 56.1507 196.236 56.1736L196.239 56.1962M195.849 54.4418C195.849 54.4411 195.849 54.4404 195.848 54.4397L196.09 54.3753M195.849 54.4418C195.849 54.4425 195.849 54.4433 195.85 54.4441L196.09 54.3753M196.239 56.1962L196.24 56.1997C196.24 56.201 196.24 56.2021 196.24 56.203C196.24 56.1992 196.239 56.1915 196.239 56.1825V56.1962ZM196.09 54.3753C195.964 53.9342 195.817 53.5349 195.67 53.1358M196.09 54.3753C196.258 55.0058 196.363 55.4469 196.447 55.9302C196.447 55.9302 196.489 56.1614 196.489 56.1825L195.67 53.1358M195.67 53.1358L195.586 52.9257M195.67 53.1358L195.586 52.9257M195.586 52.9257C195.577 52.9011 195.569 52.8757 195.561 52.8498C195.526 52.743 195.489 52.6279 195.439 52.5263C195.165 51.9169 194.871 51.4337 194.556 51.0345M195.586 52.9257L192.56 49.8158C193.295 49.8998 193.968 50.3201 194.556 51.0345M171.065 48.7652C171.338 49.0804 171.59 49.5216 171.842 50.0679M171.065 48.7652C170.624 48.2189 170.141 47.9247 169.615 47.8617C169.384 47.8407 169.216 47.6305 169.258 47.3994L171.842 50.0679M171.842 50.0679C171.884 50.173 172.053 50.6353 172.053 50.6353M171.842 50.0679L172.053 50.6353" fill="#D08126" stroke="black" stroke-width="0.5"/>
<path d="M188.673 52.3372C188.673 52.3372 188.778 52.1899 188.841 52.106C189.114 51.7697 189.387 51.4756 189.66 51.2234C189.702 51.1814 189.765 51.1184 189.807 51.0764C190.102 50.8032 190.396 50.5721 190.69 50.404C190.984 50.2149 191.299 50.0888 191.593 50.0048C191.635 50.0048 191.656 50.0048 191.698 49.9837C191.993 49.9207 192.308 49.8787 192.602 49.9207L169.783 47.1261C169.783 47.1261 169.657 47.1261 169.594 47.1261C169.447 47.1261 169.279 47.1261 169.132 47.1471C169.048 47.1471 168.964 47.1891 168.901 47.2102C168.859 47.2102 168.838 47.2102 168.796 47.2312C168.754 47.2312 168.712 47.2312 168.67 47.2522C168.523 47.2942 168.355 47.3572 168.208 47.4413C168.102 47.5043 167.997 47.5464 167.871 47.6094C167.808 47.6514 167.766 47.6724 167.703 47.7144C167.535 47.8195 167.367 47.9456 167.199 48.0927C167.115 48.1557 167.052 48.2187 166.989 48.3028C166.947 48.3448 166.884 48.3868 166.842 48.4499C166.779 48.5129 166.737 48.5549 166.674 48.5969C166.464 48.8071 166.274 49.0172 166.085 49.2483C166.085 49.2693 166.043 49.2904 166.022 49.3114C165.959 49.3744 165.917 49.4584 165.854 49.5425C165.707 49.7316 165.56 49.9207 165.413 50.1308C165.35 50.2149 165.308 50.2989 165.266 50.383C165.14 50.5721 165.014 50.7822 164.888 50.9923C164.804 51.1394 164.72 51.2655 164.636 51.4126C164.531 51.6016 164.425 51.7908 164.32 52.0009C163.9 52.7993 163.543 53.7028 163.207 54.6485C163.102 54.9215 163.018 55.2158 162.913 55.5098C162.681 56.2243 162.471 56.9597 162.261 57.7372C162.219 57.9263 162.156 58.0944 162.093 58.3045C162.051 58.5146 162.009 58.7247 161.967 58.9348C161.925 59.166 161.862 59.3761 161.82 59.6073C161.778 59.8174 161.736 60.0275 161.694 60.2376C161.589 60.7629 161.505 61.3092 161.421 61.8345C161.421 61.8765 161.421 61.9396 161.421 61.9815C161.421 62.0657 161.421 62.1288 161.4 62.2127C161.358 62.5699 161.295 62.9481 161.253 63.3263C161.211 63.7887 161.148 64.2509 161.127 64.7342C161.127 64.7762 161.127 64.8393 161.127 64.8813C161.127 64.9443 161.127 65.0074 161.127 65.0705C161.106 65.4276 161.085 65.7639 161.064 66.121C161.043 66.5832 161.021 67.0245 161.021 67.4869C161.021 67.5709 161.021 67.6759 161.021 67.7599C161.021 67.844 161.021 67.9491 161.021 68.033C161.021 68.3062 161.021 68.5794 161.021 68.8526C161.021 69.3148 161.021 69.7772 161.064 70.2394C161.064 70.3655 161.064 70.4706 161.085 70.5965C161.085 70.7018 161.085 70.8277 161.106 70.9328C161.106 71.1639 161.127 71.416 161.148 71.6472C161.19 72.1514 161.232 72.6558 161.295 73.1602C161.295 73.2861 161.316 73.3912 161.337 73.5173L184.155 76.3119C184.05 75.4713 183.966 74.6098 183.903 73.7274C183.903 73.6223 183.903 73.4962 183.882 73.3912C183.84 72.5507 183.819 71.6892 183.819 70.8277C183.819 70.7437 183.819 70.6387 183.819 70.5545C183.819 69.6721 183.861 68.7686 183.945 67.886C183.945 67.8229 183.945 67.7599 183.945 67.697C184.008 66.7935 184.113 65.9109 184.239 65.0285C184.239 64.9443 184.239 64.8813 184.26 64.7973C184.365 63.9988 184.512 63.2004 184.681 62.4228C184.723 62.1919 184.765 61.9815 184.828 61.7505C184.912 61.3512 185.017 60.9521 185.122 60.5739C185.311 59.7963 185.521 59.061 185.773 58.3465C185.878 58.0524 185.962 57.7581 186.067 57.4852C186.404 56.5395 186.782 55.636 187.181 54.8375C187.37 54.4804 187.559 54.1652 187.748 53.829C187.874 53.6189 188 53.4297 188.127 53.2196C188.316 52.9255 188.526 52.6523 188.736 52.3791L188.673 52.3372Z" fill="#FDC558" stroke="black" stroke-width="0.5" stroke-miterlimit="10"/>
<path d="M145.18 59.8209C145.18 60.6142 145.266 61.4248 145.392 62.29C145.52 63.2278 145.691 63.9527 145.882 64.6723L145.881 64.6724L145.884 64.6818L146.052 65.2265C146.052 65.2268 146.052 65.2271 146.052 65.2273C146.305 66.0712 146.54 66.7359 146.821 67.3196C147.228 68.2186 147.762 69.1156 148.381 69.9475L148.386 69.9544L148.392 69.9609L148.641 70.2516C149.126 70.8635 149.639 71.462 150.198 71.9782L150.198 71.9782L150.201 71.9814L150.485 72.2335L150.769 72.4858L150.77 72.4871L150.938 72.6341L150.939 72.6346C151.425 73.0569 151.915 73.4619 152.428 73.826C152.429 73.8262 152.429 73.8264 152.429 73.8265L152.953 74.2037L152.953 74.2039L152.963 74.2107C153.68 74.6743 154.402 75.1209 155.149 75.5049L155.149 75.505L155.156 75.5085L155.553 75.6964C156.187 76.0131 156.821 76.3093 157.478 76.5847L157.479 76.5853L157.482 76.5865C157.836 76.732 158.196 76.8805 158.558 77.0084C158.982 77.1778 159.405 77.3259 159.822 77.4719L159.824 77.4726L159.826 77.4733C160.879 77.8315 161.934 78.169 162.907 78.4437L162.908 78.444C163.276 78.5464 163.631 78.6416 163.976 78.734C164.352 78.8349 164.716 78.9324 165.071 79.0322L165.075 79.0332C166.197 79.3299 167.424 79.5834 168.773 79.8154L168.777 79.816L169.176 79.8789L169.18 79.8794C170.508 80.0692 171.841 80.2176 173.115 80.26L173.117 80.2601C173.682 80.2811 174.253 80.3023 174.804 80.3023H174.809C175.327 80.3023 175.856 80.3023 176.388 80.2603C176.462 80.2636 176.52 80.3133 176.535 80.3796L176.535 80.3797C176.556 80.4751 176.507 80.5602 176.457 80.5849L176.457 80.5849L176.452 80.5875L164.475 86.9114C163.799 86.9882 163.277 86.9883 162.743 86.9883H162.47H161.869L161.908 87.0274C161.628 87.0232 161.348 87.0131 161.062 86.9892L161.052 86.9883H161.041C160.653 86.9883 160.282 86.9512 159.88 86.9109L159.827 86.9056L159.827 86.9055L159.82 86.905C158.969 86.8427 158.116 86.7389 157.278 86.6342L156.867 86.552L156.867 86.5518L156.857 86.5503C156.059 86.4242 155.436 86.3202 154.793 86.1751L154.793 86.1751L154.789 86.1742C154.183 86.0489 153.558 85.903 152.955 85.7367L152.955 85.7366L152.95 85.7351C152.471 85.6155 151.973 85.4748 151.448 85.3269C151.241 85.2683 151.029 85.2085 150.813 85.1484L150.811 85.148C149.81 84.8769 148.766 84.5426 147.698 84.1659L147.698 84.1658L147.691 84.1634L147.235 84.0184C147.148 83.9859 146.95 83.9096 146.77 83.8402L146.528 83.7467L146.452 83.7173L146.431 83.7092L146.425 83.707L146.424 83.7065L146.424 83.7065C146.316 83.6644 146.211 83.6247 146.108 83.5856C145.842 83.4848 145.589 83.3886 145.321 83.2697L145.321 83.2695L145.311 83.2654L144.832 83.078C144.398 82.8893 143.98 82.6828 143.545 82.4573L143.515 82.1108L143.037 82.0309L142.972 82.1786C142.286 81.8251 141.69 81.4957 141.137 81.1274C141.136 81.1269 141.136 81.1265 141.135 81.126L139.966 80.3119C139.879 80.2463 139.792 80.1865 139.709 80.1299L139.709 80.1298C139.624 80.0716 139.545 80.0167 139.465 79.9573C139.307 79.8386 139.148 79.6995 139.009 79.5604L139.009 79.5603L139.002 79.5539L138.708 79.2808L138.708 79.2807L138.703 79.2765C138.575 79.1635 138.468 79.071 138.375 78.9909C138.201 78.8405 138.077 78.7335 137.959 78.6148L137.959 78.6145L137.949 78.6056C137.842 78.5092 137.766 78.4447 137.711 78.397L137.711 78.3968C137.654 78.3487 137.626 78.3241 137.603 78.3014C137.17 77.848 136.757 77.3519 136.363 76.8332L136.357 76.8255L136.351 76.8183C136.269 76.7268 136.219 76.6662 136.18 76.6196L136.176 76.6148C136.144 76.5767 136.115 76.5418 136.082 76.5071C135.569 75.808 135.118 75.0686 134.748 74.3301L134.498 73.8297C134.272 73.3356 134.065 72.7983 133.878 72.2771L133.878 72.2771L133.875 72.27C133.875 72.2699 133.873 72.2644 133.868 72.2498C133.863 72.2341 133.857 72.213 133.849 72.1867C133.833 72.1343 133.813 72.0644 133.789 71.9824C133.742 71.8188 133.683 71.6099 133.626 71.4039C133.568 71.198 133.512 70.9953 133.47 70.8441L133.419 70.6619L133.405 70.6111L133.401 70.5978L133.401 70.5973C133.278 70.0824 133.175 69.5676 133.092 69.0529L133.092 69.0515L133.09 69.0252L133.082 68.944C133.08 68.914 133.077 68.8838 133.075 68.86C133.073 68.8372 133.073 68.8286 133.073 68.8286C133.073 68.8286 133.073 68.8297 133.073 68.8316V68.8147L133.07 68.7979C133.056 68.6927 133.042 68.5929 133.028 68.4974C132.981 68.1644 132.941 67.8828 132.925 67.5991L132.926 67.5991L132.925 67.5905C132.883 67.1364 132.863 66.702 132.842 66.2417V66.2396V66.237V66.2345V66.2319V66.2293V66.2267V66.2241V66.2215V66.219V66.2164V66.2138V66.2112V66.2086V66.2061V66.2035V66.2009V66.1983V66.1958V66.1932V66.1906V66.188V66.1855V66.1829V66.1803V66.1777V66.1752V66.1726V66.17V66.1674V66.1649V66.1623V66.1597V66.1572V66.1546V66.152V66.1495V66.1469V66.1443V66.1418V66.1392V66.1366V66.1341V66.1315V66.1289V66.1264V66.1238V66.1213V66.1187V66.1161V66.1136V66.111V66.1084V66.1059V66.1033V66.1008V66.0982V66.0957V66.0931V66.0905V66.088V66.0854V66.0829V66.0803V66.0778V66.0752V66.0727V66.0701V66.0676V66.065V66.0625V66.0599V66.0574V66.0548V66.0523V66.0497V66.0472V66.0446V66.0421V66.0395V66.037V66.0344V66.0319V66.0293V66.0268V66.0242V66.0217V66.0192V66.0166V66.0141V66.0115V66.009V66.0064V66.0039V66.0014V65.9988V65.9963V65.9937V65.9912V65.9887V65.9861V65.9836V65.9811V65.9785V65.976V65.9735V65.9709V65.9684V65.9659V65.9633V65.9608V65.9583V65.9557V65.9532V65.9507V65.9481V65.9456V65.9431V65.9406V65.938V65.9355V65.933V65.9305V65.9279V65.9254V65.9229V65.9204V65.9178V65.9153V65.9128V65.9103V65.9077V65.9052V65.9027V65.9002V65.8977V65.8951V65.8926V65.8901V65.8876V65.8851V65.8825V65.88V65.8775V65.875V65.8725V65.87V65.8675V65.8649V65.8624V65.8599V65.8574V65.8549V65.8524V65.8499V65.8474V65.8448V65.8423V65.8398V65.8373V65.8348V65.8323V65.8298V65.8273V65.8248V65.8223V65.8198V65.8173V65.8148V65.8123V65.8098V65.8073V65.8048V65.8023V65.7998V65.7973V65.7948V65.7922V65.7898V65.7873V65.7848V65.7823V65.7798V65.7773V65.7748V65.7723V65.7698V65.7673V65.7648V65.7623V65.7598V65.7573V65.7548V65.7523V65.7498V65.7473V65.7448V65.7424V65.7399V65.7374V65.7349V65.7324V65.7299V65.7274V65.7249V65.7225V65.72V65.7175V65.715V65.7125V65.71V65.7075V65.7051V65.7026V65.7001V65.6976V65.6951V65.6927V65.6902V65.6877V65.6852V65.6827V65.6803V65.6778V65.6753V65.6728V65.6704V65.6679V65.6654V65.6629V65.6605V65.658V65.6555V65.653V65.6506V65.6481V65.6456V65.6431V65.6407V65.6382V65.6357V65.6333V65.6308V65.6283V65.6259V65.6234V65.6209V65.6185V65.616V65.6135V65.6111V65.6086V65.6061V65.6037V65.6012V65.5988V65.5963V65.5938V65.5914V65.5889V65.5864V65.584V65.5815V65.5791V65.5766V65.5742V65.5717V65.5692V65.5668V65.5643V65.5619V65.5594V65.557V65.5545V65.5521V65.5496V65.5472V65.5447V65.5423V65.5398V65.5374V65.5349V65.5325V65.53V65.5276V65.5251V65.5227V65.5202V65.5178V65.5153V65.5129V65.5104V65.508V65.5055V65.5031V65.5007V65.4982V65.4958V65.4933V65.4909V65.4884V65.486V65.4836V65.4811V65.4787V65.4763V65.4738V65.4714V65.4689V65.4665V65.4641V65.4616V65.4592V65.4568V65.4543V65.4519V65.4495V65.447V65.4446V65.4422V65.4397V65.4373V65.4349V65.4324V65.43V65.4276V65.4252V65.4227V65.4203V65.4179V65.4155V65.413V65.4106V65.4082V65.4058V65.4033V65.4009V65.3985V65.3961V65.3936V65.3912V65.3888V65.3864V65.384V65.3815V65.3791V65.3767V65.3743V65.3719V65.3694V65.367V65.3646V65.3622V65.3598V65.3574V65.355V65.3525V65.3501V65.3477V65.3453V65.3429V65.3405V65.3381V65.3357V65.3332V65.3308V65.3284V65.326V65.3236V65.3212V65.3188V65.3164V65.314V65.3116V65.3092V65.3068V65.3044V65.302V65.2996V65.2972V65.2948V65.2924V65.29V65.2875V65.2852V65.2827V65.2803V65.278V65.2756V65.2732V65.2708V65.2684V65.266V65.2636V65.2612V65.2588V65.2564V65.254V65.2516V65.2492V65.2468V65.2444V65.242V65.2396V65.2372V65.2349V65.2325V65.2301V65.2277V65.2253V65.2229V65.2205V65.2181V65.2157V65.2134V65.211V65.2086V65.2062V65.2038V65.2014V65.1991V65.1967V65.1943V65.1919V65.1895V65.1871V65.1848V65.1824V65.18V65.1776V65.1753V65.1729V65.1705V65.1681V65.1657V65.1634V65.161V65.1586V65.1562V65.1539V65.1515V65.1491V65.1467V65.1444V65.142V65.1396V65.1373V65.1349V65.1325V65.1302V65.1278V65.1254V65.1231V65.1207V65.1183V65.116V65.1136V65.1112V65.1089V65.1065V65.1041V65.1018V65.0994V65.097V65.0947V65.0923V65.09V65.0876V65.0852V65.0829V65.0805V65.0782V65.0758V65.0734V65.0711V65.0687V65.0664V65.064V65.0617V65.0593V65.0569V65.0546V65.0522V65.0499V65.0475V65.0452V65.0428V65.0405V65.0381V65.0358V65.0334V65.0311V65.0287V65.0264V65.024V65.0217V65.0193V65.017V65.0147V65.0123V65.01V65.0076V65.0053V65.0029V65.0006V64.9982V64.9959V64.9936V64.9912V64.9889V64.9865C132.842 64.603 132.882 64.2164 132.924 63.8374L132.924 63.8375L132.925 63.8326L132.925 63.8326L132.925 63.8326L132.925 63.8326L132.925 63.8326L132.925 63.8323L132.925 63.8307L132.925 63.8289H132.942L132.966 63.6064C133.007 63.2358 133.049 62.9896 133.09 62.7627C133.153 62.4262 133.214 62.0981 133.296 61.7711L133.547 60.8297C133.628 60.5469 133.729 60.2632 133.851 59.9791C133.881 59.9083 133.91 59.8402 133.938 59.7741C134.029 59.5555 134.112 59.3588 134.219 59.1592C134.219 59.159 134.219 59.1588 134.22 59.1586L134.345 58.9289L134.345 58.929L134.349 58.9209C134.433 58.753 134.504 58.6291 134.577 58.5034C134.61 58.4457 134.643 58.3876 134.678 58.3247C134.858 58.0249 135.059 57.7427 135.263 57.4778L135.675 57.0243C136.273 56.3852 136.761 55.9808 137.242 55.6801L137.242 55.6802L137.248 55.6762C137.326 55.6241 137.399 55.5838 137.488 55.535C137.53 55.5114 137.577 55.4858 137.629 55.456L149.603 49.1229C149.613 49.1197 149.627 49.1158 149.641 49.1119C149.658 49.1076 149.673 49.1039 149.686 49.1015C149.693 49.1001 149.697 49.0996 149.699 49.0993C149.748 49.1006 149.811 49.1301 149.853 49.1983C149.893 49.2879 149.854 49.3904 149.784 49.4293L149.784 49.4291L149.777 49.4334C149.729 49.4618 149.676 49.4908 149.617 49.5228L149.615 49.5241C149.559 49.5546 149.498 49.588 149.441 49.6221C148.953 49.9107 148.495 50.3056 148.004 50.8176L147.753 51.0679L147.745 51.0763L147.737 51.0854C147.328 51.5806 146.962 52.1195 146.66 52.6811L146.659 52.681L146.656 52.6878C146.293 53.4133 146.014 54.0995 145.799 54.8303L145.799 54.8303L145.798 54.8361C145.564 55.7062 145.415 56.4307 145.308 57.1987L145.308 57.1987L145.307 57.2055C145.201 58.1587 145.159 58.9889 145.18 59.8209ZM145.18 59.8209C145.18 59.8198 145.18 59.8187 145.18 59.8176H145.43L145.18 59.8241C145.18 59.823 145.18 59.8219 145.18 59.8209Z" fill="#ED932C" stroke="black" stroke-width="0.5"/>
<path d="M152.742 59.2082C153.457 59.7756 154.108 60.364 154.739 60.9943C154.949 61.2044 155.159 61.4565 155.369 61.6666C155.684 62.0028 155.978 62.3391 156.272 62.6751C156.482 62.9274 156.672 63.2006 156.882 63.4527C157.134 63.7889 157.407 64.125 157.638 64.4823C157.827 64.7555 157.995 65.0285 158.185 65.3017C158.416 65.6379 158.626 65.9951 158.836 66.3524C159.004 66.6256 159.151 66.9196 159.319 67.1928C159.508 67.55 159.697 67.8862 159.886 68.2434C160.012 68.4956 160.139 68.7266 160.244 68.9789C160.538 69.5882 160.811 70.1976 161.063 70.7859C161.126 70.933 161.189 71.08 161.252 71.2272C161.546 71.9626 161.82 72.656 162.051 73.3494C162.114 73.5175 162.156 73.7065 162.219 73.8746C162.387 74.379 162.534 74.8623 162.66 75.3245C162.723 75.5135 162.765 75.7027 162.828 75.8917C162.954 76.375 163.08 76.8374 163.185 77.2576C163.206 77.3627 163.248 77.4677 163.269 77.5517C163.29 77.6567 163.311 77.7409 163.332 77.846C163.395 78.1191 163.458 78.3923 163.5 78.6444C163.521 78.7495 163.542 78.8545 163.563 78.9596C163.605 79.1697 163.648 79.3798 163.69 79.569C163.69 79.653 163.732 79.7371 163.732 79.8211C163.774 80.0523 163.815 80.2624 163.837 80.4305L175.855 74.0847C175.834 73.9166 175.792 73.7065 175.75 73.4755C175.75 73.4124 175.729 73.3283 175.708 73.2443C175.666 73.0551 175.645 72.8661 175.582 72.6349C175.561 72.5298 175.54 72.4248 175.519 72.3197C175.456 72.0676 175.414 71.7945 175.33 71.5002C175.309 71.4162 175.288 71.3323 175.267 71.2272C175.267 71.2061 175.267 71.1641 175.267 71.1431C175.267 71.08 175.225 70.996 175.204 70.9119C175.099 70.4916 174.973 70.0295 174.847 69.5462C174.805 69.3572 174.742 69.189 174.678 68.9998C174.553 68.5376 174.384 68.0543 174.237 67.55C174.195 67.424 174.153 67.2979 174.111 67.1508C174.111 67.1089 174.069 67.0667 174.069 67.0247C173.838 66.3313 173.565 65.6379 173.271 64.9025C173.208 64.7553 173.145 64.6083 173.082 64.4612C172.83 63.8729 172.556 63.2635 172.262 62.6542C172.199 62.5281 172.157 62.402 172.094 62.276C172.031 62.1499 171.968 62.0239 171.905 61.9189C171.737 61.5615 171.548 61.2253 171.338 60.8681C171.191 60.5741 171.023 60.3009 170.854 60.0277C170.644 59.6706 170.434 59.3343 170.203 58.9981C170.014 58.7249 169.846 58.4517 169.657 58.1785C169.426 57.8425 169.153 57.5062 168.9 57.1491C168.69 56.8968 168.501 56.6236 168.291 56.3715C168.018 56.0353 167.703 55.6992 167.388 55.363C167.219 55.174 167.051 54.9639 166.862 54.7747C166.82 54.7327 166.778 54.7116 166.757 54.6696C166.127 54.0393 165.475 53.451 164.782 52.8835C164.74 52.8415 164.698 52.8206 164.677 52.7785C164.236 52.4424 163.774 52.1272 163.311 51.8119C163.227 51.749 163.143 51.6859 163.059 51.644C163.059 51.644 163.059 51.644 163.038 51.644C162.576 51.3497 162.114 51.0766 161.63 50.8244C161.441 50.7193 161.231 50.6143 161.021 50.5302C160.643 50.3411 160.265 50.173 159.907 50.0049C159.739 49.9209 159.571 49.8788 159.382 49.7948C159.151 49.7108 158.941 49.6057 158.71 49.5216C158.563 49.4586 158.416 49.3956 158.29 49.3536C157.953 49.2275 157.638 49.1434 157.302 49.0384C157.218 49.0174 157.134 48.9753 157.05 48.9543C157.029 48.9543 156.987 48.9543 156.966 48.9333C156.587 48.8283 156.23 48.7442 155.852 48.6602C155.705 48.6391 155.579 48.6181 155.453 48.5761C155.369 48.5761 155.264 48.5341 155.18 48.5341C155.075 48.5341 154.97 48.4921 154.886 48.4711C154.592 48.429 154.297 48.387 154.003 48.366C153.877 48.366 153.751 48.366 153.625 48.345C153.478 48.345 153.331 48.345 153.205 48.345C152.932 48.345 152.68 48.345 152.427 48.366C152.427 48.366 152.427 48.366 152.406 48.366C152.385 48.366 152.343 48.366 152.322 48.366C152.091 48.366 151.881 48.408 151.671 48.429C151.566 48.429 151.461 48.4711 151.377 48.4921C151.293 48.4921 151.188 48.5341 151.104 48.5551C151.041 48.5551 150.957 48.5761 150.872 48.5971C150.704 48.6391 150.536 48.7022 150.347 48.7652C150.242 48.8072 150.137 48.8283 150.032 48.8703C150.011 48.8703 149.969 48.8703 149.948 48.8913C149.654 48.9963 149.36 49.1434 149.065 49.2905L137.047 55.6362C137.362 55.4681 137.677 55.3419 138.013 55.216C138.118 55.174 138.224 55.1529 138.329 55.1109C138.581 55.0268 138.812 54.9639 139.064 54.9008C139.148 54.9008 139.253 54.8586 139.337 54.8377C139.652 54.7747 139.967 54.7327 140.304 54.7116C140.325 54.7116 140.346 54.7116 140.388 54.7116C140.787 54.6907 141.186 54.6696 141.627 54.7116C142.132 54.7327 142.657 54.7958 143.182 54.8797C143.266 54.8797 143.35 54.9217 143.455 54.9217C143.981 55.0268 144.506 55.1318 145.052 55.2999C145.136 55.321 145.22 55.363 145.283 55.3841C145.746 55.5311 146.208 55.6782 146.691 55.8674C146.901 55.9513 147.132 56.0353 147.342 56.1195C147.889 56.3507 148.414 56.5817 148.981 56.8339C149.696 57.17 150.368 57.5693 151.02 57.9684C151.104 58.0315 151.167 58.0735 151.251 58.1366C151.755 58.4728 152.259 58.83 152.742 59.2082Z" fill="#FDC558" stroke="black" stroke-width="0.5" stroke-miterlimit="10"/>
<path d="M195.605 86.9229C181.737 91.9659 169.172 88.793 164.003 87.1541C168.815 84.6747 173.606 82.1952 178.417 79.7368C181.443 80.6824 185.183 81.5648 189.533 81.9642C196.886 82.6365 203.064 81.6488 207.35 80.5983C204.409 82.8046 200.501 85.179 195.626 86.944L195.605 86.9229Z" fill="#ED932C" stroke="black" stroke-width="0.5" stroke-miterlimit="10"/>
<path d="M186.134 77.3203C185.86 76.6269 185.65 75.8704 185.398 74.8199L185.314 74.4208M186.134 77.3203L174.304 82.7436H174.304H174.304L174.305 82.7436L174.305 82.7436L174.306 82.7436L174.302 82.7434C174.297 82.7431 174.289 82.7424 174.282 82.7412C174.274 82.7401 174.269 82.7389 174.267 82.7382L174.262 82.7351L174.253 82.7291L174.229 82.7194C174.207 82.7107 174.187 82.6973 174.171 82.6805M186.134 77.3203C186.218 77.5304 186.134 77.7616 185.903 77.8458L186.134 77.3203ZM185.314 74.4208C185.146 73.6221 185.041 72.8448 184.957 72.0674V71.7521M185.314 74.4208L185.07 74.4723M185.314 74.4208L185.07 74.4723C184.899 73.6623 184.793 72.8759 184.708 72.0943L184.707 72.0809V72.0674V71.7619M184.957 71.7521C184.894 70.9536 184.894 70.1763 184.957 69.3778L184.978 69.1677C185.062 68.3271 185.188 67.5287 185.377 66.7093C185.566 65.9318 185.818 65.1544 186.197 64.2509C186.491 63.5364 186.848 62.8431 187.247 62.2336L187.394 62.0446M184.957 71.7521L184.708 71.7718C184.707 71.7685 184.707 71.7652 184.707 71.7619M184.957 71.7521H184.707V71.7619M187.394 62.0446C187.751 61.4983 188.151 61.015 188.571 60.5317C188.697 60.3847 188.823 60.2376 188.97 60.0904C189.558 59.502 190.063 59.0399 190.588 58.6616M187.394 62.0446L187.197 61.891L187.191 61.8991M187.394 62.0446L187.185 61.9078C187.187 61.9049 187.189 61.902 187.191 61.8991M190.588 58.6616C191.281 58.1573 192.059 57.7161 192.878 57.3588H192.899M190.588 58.6616L190.442 58.4588C190.442 58.4589 190.442 58.459 190.441 58.4592M190.588 58.6616L190.441 58.4595C190.441 58.4594 190.441 58.4593 190.441 58.4592M192.899 57.3588C193.109 57.2748 193.193 57.0228 193.109 56.8126C193.046 56.6445 192.899 56.5604 192.731 56.5604C192.681 56.5604 192.645 56.5736 192.6 56.5895C192.589 56.5937 192.576 56.5981 192.563 56.6025M192.899 57.3588V57.1088H192.878H192.836M192.899 57.3588L192.878 57.3061L192.807 57.1267C192.817 57.1226 192.827 57.1166 192.836 57.1088M192.563 56.6025L181.091 61.6453M192.563 56.6025L192.642 56.8396C192.646 56.8383 192.65 56.837 192.654 56.8358M192.563 56.6025L192.664 56.8314L192.654 56.8358M181.091 61.6453C180.208 62.0446 179.368 62.5068 178.611 63.0532M181.091 61.6453L181.191 61.8742L181.193 61.8736C180.323 62.2672 179.5 62.7205 178.761 63.2536M181.091 61.6453L181.194 61.8731L192.654 56.8358M178.611 63.0532C178.065 63.4734 177.498 63.9567 176.888 64.587C176.741 64.7342 176.3 65.2175 176.3 65.2175M178.611 63.0532L178.758 63.2558C178.759 63.2551 178.76 63.2544 178.761 63.2536M178.611 63.0532L178.764 63.2513C178.763 63.2521 178.762 63.2529 178.761 63.2536M176.3 65.2175L176.3 65.2175C176.195 65.3226 176.09 65.4276 176.006 65.5327C175.712 65.8891 175.461 66.2664 175.167 66.7066L175.165 66.7093L175.018 66.9194M176.3 65.2175L176.485 65.3861L176.477 65.3945L176.477 65.3943C176.369 65.5017 176.275 65.5966 176.201 65.6887L176.199 65.6916L176.199 65.6916C175.914 66.0373 175.669 66.4046 175.373 66.848L175.37 66.8527L175.37 66.8527L175.228 67.0564M176.3 65.2175L176.485 65.3861L176.485 65.3861L176.485 65.386L176.485 65.3857L176.486 65.3847L176.49 65.3807L176.504 65.3652L176.556 65.3087C176.599 65.2612 176.659 65.1965 176.723 65.1272C176.852 64.9868 176.996 64.8331 177.065 64.7636L177.065 64.7637L177.068 64.7608C177.666 64.1419 178.223 63.6673 178.761 63.2536M175.018 66.9194C174.787 67.2977 174.556 67.6968 174.346 68.117M175.018 66.9194L175.223 67.0628L175.228 67.0564M175.018 66.9194L175.232 67.0498C175.23 67.052 175.229 67.0542 175.228 67.0564M174.346 68.117C174.275 68.2838 174.203 68.4438 174.128 68.6124C174.07 68.7412 174.011 68.8749 173.947 69.0205M174.346 68.117L174.57 68.2288C174.571 68.2266 174.572 68.2245 174.573 68.2223M174.346 68.117L174.576 68.2155C174.575 68.2178 174.574 68.22 174.573 68.2223M173.947 69.0205L173.842 69.2728M173.947 69.0205L174.176 69.1207C174.176 69.12 174.176 69.1194 174.177 69.1187M173.947 69.0205L174.178 69.1166L174.177 69.1187M173.842 69.2728C173.695 69.6299 173.569 70.0081 173.443 70.3863L173.442 70.3864M173.842 69.2728L174.073 69.3689L174.073 69.3684C173.93 69.7142 173.808 70.0819 173.682 70.4594M173.842 69.2728L174.073 69.368L174.177 69.1187M173.442 70.3864C173.337 70.7646 173.232 71.1428 173.106 71.647C173.023 71.9802 172.961 72.3135 172.898 72.6467L172.896 72.6558C172.812 73.0549 172.77 73.4331 172.728 73.8324M173.442 70.3864L173.68 70.4655C173.68 70.4635 173.681 70.4615 173.682 70.4594M173.442 70.3864L173.683 70.4533C173.683 70.4553 173.682 70.4574 173.682 70.4594M172.728 73.8324V73.8345H172.748L172.728 73.8324ZM172.728 73.8324H172.978V73.8326V73.8327V73.8328V73.833V73.8331V73.8333V73.8334V73.8336V73.8337V73.8339V73.8341V73.8343V73.8344V73.8345H172.979M172.979 73.8345C172.979 73.8382 172.979 73.8419 172.978 73.8456V73.8459V73.8463V73.8466V73.847V73.8474V73.8477V73.8481V73.8485V73.8489V73.8493V73.8497V73.8501V73.8505V73.8509V73.8513V73.8517V73.8521V73.8525V73.8529V73.8534V73.8538V73.8542V73.8546V73.8551V73.8555V73.856V73.8564V73.8569V73.8573V73.8578V73.8582V73.8587V73.8591V73.8596V73.8601V73.8606V73.861V73.8615V73.862V73.8625V73.863V73.8635V73.864V73.8645V73.865V73.8655V73.866V73.8665V73.867V73.8675V73.868V73.8685V73.8691V73.8696V73.8701V73.8707V73.8712V73.8717V73.8723V73.8728V73.8734V73.8739V73.8744V73.875V73.8756V73.8761V73.8767V73.8772V73.8778V73.8784V73.8789V73.8795V73.8801V73.8807V73.8812V73.8818V73.8824V73.883V73.8836V73.8842V73.8847V73.8853V73.8859V73.8865V73.8871V73.8877V73.8883V73.8889V73.8896V73.8902V73.8908V73.8914V73.892V73.8926V73.8932V73.8939V73.8945V73.8951V73.8957V73.8964V73.897V73.8975L173.01 73.8765L173.148 74.0845V74.2219L173.18 74.3636M172.979 73.8345H173.148H173.974L173.287 74.2926L173.18 74.3636M172.979 73.8345C173.021 73.4442 173.061 73.0847 173.141 72.7074L173.141 72.7074L173.142 72.7019L173.143 72.6962C173.206 72.3606 173.267 72.0337 173.349 71.7077L173.349 71.7076C173.473 71.2096 173.577 70.8354 173.682 70.4594M173.18 74.3636L173.135 74.3941L173.127 74.399V74.6286H172.825L172.927 74.6576C172.917 74.6897 172.911 74.724 172.906 74.7609M173.18 74.3636L173.235 74.6043L172.906 74.7609M172.906 74.7609L172.794 74.8144L172.705 74.6286H172.676C172.644 74.7659 172.644 74.9188 172.644 75.0719V75.072V76.3748M172.906 74.7609C172.895 74.8472 172.894 74.9483 172.894 75.072V75.0746V75.0772V75.0798V75.0823V75.0849V75.0875V75.0901V75.0927V75.0953V75.0978V75.1004V75.103V75.1056V75.1082V75.1107V75.1133V75.1159V75.1185V75.121V75.1236V75.1262V75.1288V75.1313V75.1339V75.1365V75.1391V75.1416V75.1442V75.1468V75.1494V75.1519V75.1545V75.1571V75.1596V75.1622V75.1648V75.1674V75.1699V75.1725V75.1751V75.1776V75.1802V75.1828V75.1853V75.1879V75.1905V75.193V75.1956V75.1982V75.2007V75.2033V75.2058V75.2084V75.211V75.2135V75.2161V75.2187V75.2212V75.2238V75.2263V75.2289V75.2315V75.234V75.2366V75.2391V75.2417V75.2443V75.2468V75.2494V75.2519V75.2545V75.257V75.2596V75.2621V75.2647V75.2673V75.2698V75.2724V75.2749V75.2775V75.28V75.2826V75.2851V75.2877V75.2902V75.2928V75.2953V75.2979V75.3004V75.303V75.3055V75.3081V75.3106V75.3132V75.3157V75.3183V75.3208V75.3234V75.3259V75.3285V75.331V75.3336V75.3361V75.3387V75.3412V75.3438V75.3463V75.3488V75.3514V75.3539V75.3565V75.359V75.3616V75.3641V75.3666V75.3692V75.3717V75.3743V75.3768V75.3794V75.3819V75.3844V75.387V75.3895V75.3921V75.3946V75.3971V75.3997V75.4022V75.4048V75.4073V75.4098V75.4124V75.4149V75.4174V75.42V75.4225V75.4251V75.4276V75.4301V75.4327V75.4352V75.4377V75.4403V75.4428V75.4454V75.4479V75.4504V75.453V75.4555V75.458V75.4606V75.4631V75.4656V75.4682V75.4707V75.4732V75.4758V75.4783V75.4808V75.4834V75.4859V75.4884V75.491V75.4935V75.496V75.4986V75.5011V75.5036V75.5061V75.5087V75.5112V75.5137V75.5163V75.5188V75.5213V75.5239V75.5264V75.5289V75.5314V75.534V75.5365V75.539V75.5416V75.5441V75.5466V75.5492V75.5517V75.5542V75.5567V75.5593V75.5618V75.5643V75.5668V75.5694V75.5719V75.5744V75.577V75.5795V75.582V75.5845V75.5871V75.5896V75.5921V75.5946V75.5972V75.5997V75.6022V75.6047V75.6073V75.6098V75.6123V75.6149V75.6174V75.6199V75.6224V75.625V75.6275V75.63V75.6325V75.6351V75.6376V75.6401V75.6426V75.6452V75.6477V75.6502V75.6527V75.6553V75.6578V75.6603V75.6628V75.6654V75.6679V75.6704V75.6729V75.6754V75.678V75.6805V75.683V75.6855V75.6881V75.6906V75.6931V75.6956V75.6982V75.7007V75.7032V75.7057V75.7083V75.7108V75.7133V75.7158V75.7184V75.7209V75.7234V75.7259V75.7285V75.731V75.7335V75.736V75.7386V75.7411V75.7436V75.7461V75.7486V75.7512V75.7537V75.7562V75.7587V75.7613V75.7638V75.7663V75.7688V75.7714V75.7739V75.7764V75.7789V75.7815V75.784V75.7865V75.789V75.7916V75.7941V75.7966V75.7991V75.8017V75.8042V75.8067V75.8092V75.8118V75.8143V75.8168V75.8193V75.8219V75.8244V75.8269V75.8294V75.832V75.8345V75.837V75.8395V75.8421V75.8446V75.8471V75.8496V75.8522V75.8547V75.8572V75.8598V75.8623V75.8648V75.8673V75.8699V75.8724V75.8749V75.8774V75.88V75.8825V75.885V75.8876V75.8901V75.8926V75.8951V75.8977V75.9002V75.9027V75.9053V75.9078V75.9103V75.9128V75.9154V75.9179V75.9204V75.923V75.9255V75.928V75.9305V75.9331V75.9356V75.9381V75.9407V75.9432V75.9457V75.9483V75.9508V75.9533V75.9559V75.9584V75.9609V75.9635V75.966V75.9685V75.9711V75.9736V75.9761V75.9787V75.9812V75.9837V75.9863V75.9888V75.9913V75.9939V75.9964V75.9989V76.0015V76.004V76.0065V76.0091V76.0116V76.0141V76.0167V76.0192V76.0218V76.0243V76.0268V76.0294V76.0319V76.0344V76.037V76.0395V76.0421V76.0446V76.0471V76.0497V76.0522V76.0548V76.0573V76.0598V76.0624V76.0649V76.0675V76.07V76.0725V76.0751V76.0776V76.0802V76.0827V76.0853V76.0878V76.0903V76.0929V76.0954V76.098V76.1005V76.1031V76.1056V76.1082V76.1107V76.1132V76.1158V76.1183V76.1209V76.1234V76.126V76.1285V76.1311V76.1336V76.1362V76.1387V76.1413V76.1438V76.1464V76.1489V76.1515V76.154V76.1566V76.1591V76.1617V76.1642V76.1668V76.1693V76.1719V76.1744V76.177V76.1796V76.1821V76.1847V76.1872V76.1898V76.1923V76.1949V76.1974V76.2V76.2026V76.2051V76.2077V76.2102V76.2128V76.2154V76.2179V76.2205V76.223V76.2256V76.2282V76.2307V76.2333V76.2358V76.2384V76.241V76.2435V76.2461V76.2487V76.2512V76.2538V76.2564V76.2589V76.2615V76.264V76.2666V76.2692V76.2718V76.2743V76.2769V76.2795V76.282V76.2846V76.2872V76.2897V76.2923V76.2949V76.2975V76.3V76.3026V76.3052V76.3077V76.3103V76.3129V76.3155V76.318V76.3206V76.3232V76.3258V76.3283V76.3309V76.3335V76.3361V76.3387V76.3412V76.3438V76.3464V76.349V76.3516V76.3541V76.3567V76.3593V76.3619V76.3645V76.3671L172.894 76.3597L172.644 76.3748M172.644 76.3748L172.728 77.7616M172.644 76.3748H172.894V76.3722V76.3696V76.3672L172.977 77.7385M172.728 77.7616C172.791 78.266 172.875 78.7912 172.959 79.2954M172.728 77.7616L172.978 77.7465L172.977 77.7385M172.728 77.7616L172.976 77.7306C172.977 77.7332 172.977 77.7358 172.977 77.7385M172.959 79.2954L173.232 80.5143C173.275 80.7244 173.317 80.9134 173.38 81.1235C173.523 81.6355 173.706 82.1675 173.89 82.6805H174.005L174.137 82.6276C174.137 82.6286 174.138 82.6297 174.138 82.6307M172.959 79.2954L173.206 79.2543C173.206 79.252 173.205 79.2497 173.205 79.2475M172.959 79.2954L173.203 79.2408L173.205 79.2475M174.138 82.6307C174.139 82.6323 174.139 82.634 174.14 82.6357L174.016 82.6805H174.171M174.138 82.6307C174.146 82.6492 174.157 82.6661 174.171 82.6805M174.138 82.6307C173.95 82.1081 173.764 81.5706 173.62 81.0561L173.62 81.0561L173.619 81.0516C173.559 80.8524 173.519 80.672 173.477 80.4651L173.478 80.465L173.476 80.4596L173.205 79.2475M174.171 82.6805H174.257M174.257 82.6805L184.729 69.1429C184.814 68.2928 184.942 67.4838 185.133 66.6531L185.134 66.6502L185.134 66.6502C185.327 65.8594 185.583 65.0697 185.966 64.155C186.265 63.4282 186.629 62.7208 187.038 62.0967L187.044 62.0881L187.05 62.08L187.191 61.8991M174.257 82.6805C174.256 82.6807 174.255 82.6807 174.255 82.6807C174.255 82.6807 174.258 82.6805 174.262 82.6805H174.257ZM174.257 82.6805C174.258 82.6803 174.26 82.6799 174.263 82.6793C174.272 82.6774 174.284 82.6744 174.296 82.6705C174.308 82.6668 174.319 82.663 174.327 82.6601L174.335 82.6573M174.257 82.6805L174.329 82.6596L174.335 82.6573M173.205 79.2475C173.122 78.7487 173.039 78.2329 172.977 77.7385M174.177 69.1187C174.238 68.9784 174.297 68.8461 174.355 68.7177C174.43 68.549 174.502 68.387 174.573 68.2223M174.573 68.2223C174.777 67.8155 175.001 67.4274 175.228 67.0564M192.654 56.8358C192.666 56.8317 192.677 56.8277 192.685 56.8245L192.691 56.8224C192.705 56.8175 192.713 56.8149 192.719 56.8129C192.728 56.8103 192.73 56.8103 192.731 56.8104L192.731 56.8104C192.81 56.8104 192.854 56.8433 192.875 56.9005L192.875 56.9005L192.877 56.9054C192.912 56.9928 192.882 57.0711 192.836 57.1088M192.836 57.1088H192.826L192.778 57.1297C191.943 57.4938 191.15 57.9436 190.441 58.4592M190.441 58.4592C189.9 58.8491 189.385 59.3222 188.793 59.9136L188.793 59.9137C188.639 60.0684 188.507 60.2222 188.382 60.3684M188.382 60.3684C187.962 60.8514 187.556 61.3421 187.191 61.8991M188.382 60.3684C188.381 60.3686 188.381 60.3688 188.381 60.3691L188.571 60.5317L188.382 60.3677C188.382 60.3679 188.382 60.3681 188.382 60.3684ZM174.335 82.6573L185.802 77.6169L185.809 77.6136L185.817 77.6109C185.869 77.5918 185.894 77.5618 185.905 77.5341C185.918 77.5043 185.921 77.462 185.901 77.4133L185.901 77.4119C185.621 76.7017 185.408 75.9315 185.155 74.8782L185.153 74.8714L185.154 74.8714L185.07 74.4723M174.335 82.6573L185.07 74.4723M185.07 74.4723L184.707 71.7619" fill="#ED932C" stroke="black" stroke-width="0.5"/>
<path d="M213.361 71.7101C213.361 71.3739 213.361 71.0167 213.361 70.6596C213.361 70.2394 213.319 69.8401 213.277 69.4199C213.277 69.3779 213.277 69.3359 213.277 69.3148C213.277 69.2517 213.277 69.1887 213.256 69.1256C213.214 68.7685 213.172 68.4113 213.109 68.054C213.045 67.6968 212.94 67.3397 212.856 66.9615C212.835 66.8564 212.814 66.7514 212.772 66.6252C212.772 66.5621 212.751 66.5202 212.73 66.4571C212.541 65.7637 212.289 65.0914 212.016 64.4189C212.016 64.398 211.974 64.356 211.974 64.3349C211.596 63.4734 211.155 62.633 210.629 61.8345C210.524 61.6873 210.398 61.5614 210.293 61.4143C209.831 60.7629 209.347 60.1535 208.78 59.5862C208.738 59.5443 208.696 59.4812 208.654 59.4181C208.213 58.9979 207.751 58.5777 207.246 58.1995C207.099 58.0944 206.973 57.9894 206.826 57.8843C206.574 57.7162 206.343 57.5481 206.091 57.401C205.755 57.1909 205.418 57.0017 205.082 56.8336C204.977 56.7705 204.851 56.7285 204.746 56.6655C204.683 56.6446 204.62 56.6026 204.557 56.5815C204.431 56.5184 204.284 56.4553 204.158 56.3923C203.863 56.2663 203.548 56.1613 203.254 56.0562C202.981 55.9721 202.729 55.8881 202.456 55.825C202.456 55.825 202.414 55.825 202.393 55.825C202.393 55.825 202.351 55.825 202.33 55.825C202.014 55.7411 201.72 55.678 201.405 55.6149C201.09 55.5519 200.775 55.5099 200.439 55.4679C200.355 55.4679 200.292 55.4679 200.207 55.4679C200.144 55.4679 200.081 55.4679 199.997 55.4679C199.808 55.4679 199.598 55.4259 199.409 55.4259C199.031 55.4259 198.674 55.4259 198.295 55.4259C198.148 55.4259 198.022 55.4257 197.875 55.4468C197.602 55.4468 197.329 55.4888 197.056 55.531C196.572 55.5938 196.089 55.678 195.627 55.783C195.543 55.783 195.459 55.8461 195.375 55.867C195.186 55.909 195.018 55.9721 194.849 56.0142C194.513 56.0982 194.156 56.1822 193.841 56.3083C193.463 56.4345 193.084 56.5815 192.727 56.7496L181.255 61.7926C181.927 61.4983 182.642 61.2671 183.377 61.057C183.566 61.015 183.734 60.9519 183.924 60.91C184.743 60.7209 185.583 60.5737 186.445 60.5106C187.138 60.4687 187.853 60.4687 188.567 60.5317C188.63 60.5317 188.693 60.5317 188.777 60.5317C189.491 60.5948 190.227 60.7209 190.941 60.91C190.941 60.91 190.983 60.91 191.004 60.91C191.719 61.099 192.412 61.3513 193.106 61.6664C193.169 61.6873 193.232 61.7295 193.295 61.7504C194.009 62.0866 194.702 62.486 195.396 62.9692C196.11 63.4734 196.762 64.0407 197.35 64.6501C197.917 65.2175 198.4 65.8479 198.863 66.4782C198.968 66.6252 199.094 66.7514 199.199 66.8984C199.724 67.6968 200.165 68.5373 200.544 69.3988C200.859 70.1552 201.132 70.9117 201.342 71.6892C201.363 71.7943 201.384 71.9202 201.426 72.0253C201.615 72.7398 201.741 73.4752 201.846 74.1896C201.846 74.2527 201.846 74.3156 201.867 74.3786C201.951 75.1982 201.993 75.9966 201.972 76.7742C201.972 76.7742 201.972 76.8162 201.972 76.8371C201.951 77.6146 201.846 78.392 201.72 79.1064C201.72 79.1695 201.699 79.2115 201.678 79.2746C201.531 79.9888 201.342 80.7033 201.09 81.3336C200.817 82.0061 200.502 82.5945 200.123 83.1408C200.06 83.2248 200.018 83.2879 199.955 83.3718C199.577 83.8971 199.157 84.3804 198.695 84.8217C198.232 85.2419 197.728 85.6201 197.203 85.9775C197.077 86.0614 196.93 86.1454 196.804 86.2296C196.257 86.5658 195.69 86.8599 195.102 87.1331L206.574 82.0901C207.183 81.8169 207.751 81.5229 208.276 81.1866C208.402 81.1026 208.549 81.0185 208.675 80.9345C209.2 80.5772 209.726 80.22 210.167 79.7787C210.503 79.4636 210.818 79.1275 211.112 78.7702C211.217 78.6232 211.323 78.4761 211.428 78.3289C211.491 78.2449 211.533 78.1819 211.596 78.0979C211.659 78.0137 211.722 77.9298 211.764 77.8458C211.911 77.5935 212.079 77.3414 212.205 77.0682C212.331 76.8371 212.436 76.6061 212.52 76.3538C212.52 76.3329 212.541 76.2909 212.562 76.2698C212.646 76.0386 212.73 75.8076 212.814 75.5553C212.898 75.2821 212.982 74.9881 213.045 74.7149C213.088 74.5468 213.109 74.3786 213.15 74.2105C213.15 74.1476 213.172 74.1055 213.193 74.0426C213.193 73.9584 213.235 73.8954 213.235 73.8114C213.298 73.4962 213.34 73.1811 213.361 72.8448C213.403 72.5086 213.424 72.1514 213.445 71.7943C213.445 71.7943 213.445 71.7732 213.445 71.7521C213.445 71.7521 213.445 71.7101 213.445 71.6892L213.361 71.7101Z" fill="#FDC558" stroke="black" stroke-width="0.5" stroke-miterlimit="10"/>
<path d="M174.122 82.9593L151.163 80.5677V80.5435L150.936 80.523C150.848 80.515 150.775 80.432 150.784 80.3325L150.784 80.3324C150.868 79.4067 150.91 78.5237 150.952 77.6466L150.953 77.6321L150.953 77.6321V77.6202V77.3532C150.995 76.5083 150.995 75.6836 150.953 74.8794C150.932 73.8645 150.868 73.0817 150.805 72.3254L150.805 72.3254L150.805 72.3207C150.726 71.551 150.646 70.9049 150.531 70.2819L150.801 69.9964L151.34 69.4258L150.57 69.5796L150.401 69.6135C150.299 69.0671 150.169 68.5547 150.041 68.0787L150.039 68.0716L150.037 68.0645L149.954 67.8165C149.799 67.2948 149.662 66.9292 149.544 66.6161C149.532 66.5843 149.52 66.5529 149.508 66.5221L149.509 66.522L149.504 66.5116L149.315 66.0701L149.312 66.0634L149.309 66.0568C149.16 65.7584 149.01 65.4805 148.86 65.2233L148.856 65.2168L148.852 65.2106L148.642 64.8954L148.642 64.8952L148.634 64.8841C148.375 64.5392 148.13 64.2689 147.897 64.0824L147.897 64.0822L147.888 64.076C147.545 63.8244 147.169 63.6571 146.761 63.6091L146.761 63.609L146.755 63.6084C146.667 63.6004 146.594 63.5178 146.603 63.4189C146.611 63.3421 146.685 63.2725 146.764 63.2671L169.928 65.6801C170.424 65.8006 170.857 65.979 171.25 66.215C172.795 67.1462 173.606 68.9626 174.027 71.1692C174.446 73.3603 174.469 75.8714 174.49 78.1382L174.49 78.1665C174.49 78.1669 174.49 78.1672 174.49 78.1676C174.49 79.7154 174.428 81.262 174.281 82.8077L174.28 82.8194V82.8312C174.28 82.84 174.271 82.8791 174.22 82.9347C174.195 82.9504 174.169 82.9583 174.122 82.9593Z" fill="#ED932C" stroke="black" stroke-width="0.5"/>
<path d="M168.809 88.776C168.809 88.776 152.82 66.1814 170.224 65.5975L146.486 62.8011C132.939 67.1425 140.793 82.644 146.507 84.2718L168.809 88.776Z" fill="#FDC558" stroke="black" stroke-width="0.5"/>
</g>
<defs>
<filter id="filter0_d_12234_33293" x="88.1387" y="96.8456" width="166.335" height="124.943" filterUnits="userSpaceOnUse" color-interpolation-filters="sRGB">
<feFlood flood-opacity="0" result="BackgroundImageFix"/>
<feColorMatrix in="SourceAlpha" type="matrix" values="0 0 0 0 0 0 0 0 0 0 0 0 0 0 0 0 0 0 127 0" result="hardAlpha"/>
<feOffset dy="7.74604"/>
<feComposite in2="hardAlpha" operator="out"/>
<feColorMatrix type="matrix" values="0 0 0 0 0.0682422 0 0 0 0 0.0427386 0 0 0 0 0.370361 0 0 0 0.14 0"/>
<feBlend mode="normal" in2="BackgroundImageFix" result="effect1_dropShadow_12234_33293"/>
<feBlend mode="normal" in="SourceGraphic" in2="effect1_dropShadow_12234_33293" result="shape"/>
</filter>
<clipPath id="clip0_12234_33293">
<rect width="343" height="240" fill="white" transform="translate(0.344727)"/>
</clipPath>
</defs>
</svg>
