<svg width="344" height="240" viewBox="0 0 344 240" fill="none" xmlns="http://www.w3.org/2000/svg">
<path d="M96.7183 118.022C96.7183 117.937 96.8006 117.877 96.881 117.903L171.385 141.885C171.437 141.902 171.472 141.95 171.472 142.004V222.725C171.472 222.978 171.225 223.158 170.983 223.081L96.8047 199.203C96.7532 199.186 96.7183 199.138 96.7183 199.084V118.022Z" fill="#8B8FFC" stroke="black" stroke-width="0.464336"/>
<path opacity="0.12" d="M151.705 181.631C147.816 183.746 145.369 188.917 146.79 194.048C147.652 197.151 149.385 199.37 151.964 200.503C156.467 202.479 161.16 198.133 160.637 192.478C160.41 190.075 159.427 188.249 157.429 187.483C155.944 186.92 154.517 187.182 153.349 188.524C152.366 189.656 151.986 191.057 152.382 192.687C152.599 193.584 153.122 194.14 153.835 194.402C154.459 194.638 154.945 194.297 155.32 193.656C155.246 193.499 155.178 193.328 155.088 193.184C154.602 192.406 154.993 191.273 155.416 190.802C155.986 190.16 156.911 190.101 157.524 190.632C158.507 191.489 158.962 193.774 158.423 195.214C157.524 197.616 155.215 199.01 153.101 198.329C149.761 197.256 148.112 193.165 149.19 189.218C150.622 183.968 155.442 181.671 159.548 184.191C162.867 186.226 164.099 189.774 163.972 194.009C163.755 200.974 158.084 206.138 152.392 204.797C146.875 203.494 142.774 196.948 143.07 190.763C143.175 188.478 143.593 186.338 144.534 184.374C146.981 179.262 150.807 176.859 155.59 176.467C156.848 176.362 158.121 176.447 159.321 176.447C159.258 176.414 159.104 176.316 158.951 176.251C156.61 175.171 154.195 174.824 151.721 175.262C150.189 175.498 148.767 176.015 147.483 176.742C147.462 176.742 147.43 176.755 147.398 176.774C146.822 177.082 146.722 176.382 146.516 176.166C146.315 175.963 146.341 176.218 146.341 176.218C146.516 177.246 146.077 177.658 146.019 177.71C145.654 177.992 145.305 178.293 144.967 178.614C144.956 178.614 144.946 178.614 144.941 178.627C144.143 179.078 143.81 178.313 143.445 178.083C143.054 177.841 143.202 178.241 143.202 178.241C143.683 179.425 143.265 180.44 143.186 180.604C142.848 181.055 142.531 181.533 142.229 182.031C142.198 182.057 142.166 182.076 142.129 182.116C141.347 182.993 140.734 182.299 140.253 182.168C139.719 182.024 140.02 182.456 140.02 182.456C141.009 183.713 140.697 185.218 140.697 185.218C139.434 188.622 138.979 192.556 139.508 196.503C141.246 209.483 154.137 215.617 162.582 207.251C165.325 204.535 167.228 199.305 167.428 194.978C167.571 191.901 166.805 189.113 165.388 186.593C162.386 181.232 156.388 179.085 151.7 181.631H151.705Z" fill="#3C2CFF"/>
<path d="M246.225 118.021C246.225 117.937 246.142 117.877 246.062 117.903L171.558 141.885C171.506 141.902 171.471 141.95 171.471 142.004V222.519C171.471 222.867 171.819 223.108 172.144 222.986L246.144 195.297C246.192 195.278 246.225 195.232 246.225 195.18V118.021Z" fill="#6558FF" stroke="black" stroke-width="0.464336"/>
<path d="M97.1392 117.988C97.0191 117.949 97.026 117.777 97.1488 117.748L171.443 100.212C171.462 100.207 171.481 100.207 171.5 100.212L245.794 117.748C245.917 117.777 245.924 117.949 245.804 117.988L171.51 141.906C171.485 141.914 171.458 141.914 171.433 141.906L97.1392 117.988Z" fill="#B2B0FF" stroke="black" stroke-width="0.464336"/>
<path d="M104.693 117.988C104.573 117.949 104.58 117.777 104.702 117.748L171.443 101.995C171.462 101.99 171.482 101.99 171.5 101.995L238.241 117.748C238.364 117.777 238.371 117.949 238.251 117.988L171.51 139.474C171.485 139.482 171.458 139.482 171.434 139.474L104.693 117.988Z" fill="#231863" stroke="black" stroke-width="0.464336"/>
<path d="M196.476 51.2704L121.69 37.1476L182.24 86.8666L250.343 105.487L196.476 51.2704Z" fill="#4236CF" stroke="black" stroke-width="0.464336"/>
<path d="M202.751 42.4167L129.58 28.5989L188.822 77.244L255.455 95.4627L202.751 42.4167Z" fill="#231863" stroke="black" stroke-width="0.464336"/>
<path d="M181.932 34.8001C188.465 30.5934 186.881 22.8606 185.273 19.5201C182.48 16.4192 180.374 11.6808 194.292 17.5339C208.211 23.3869 203.304 33.6535 199.11 38.0551C190.662 38.7229 175.4 39.0068 181.932 34.8001Z" fill="#ED932C" stroke="black" stroke-width="0.464336"/>
<path d="M177.793 14.7088C168.737 20.9654 169.355 30.0757 170.795 33.8489C174.593 40.5965 181.485 35.8976 181.485 35.8976C180.921 21.3424 189.688 17.2869 194.031 17.4825C189.67 14.7088 181.353 12.2489 177.793 14.7088Z" fill="#FFE04A" stroke="black" stroke-width="0.464336"/>
<path d="M226.614 35.6896C213.244 23.5244 206.522 35.918 204.832 43.6354C207.389 52.2662 214.285 54.3211 216.34 54.3211C219.408 42.1559 226.386 42.1285 229.491 43.6354C234.104 46.0557 239.985 47.8549 226.614 35.6896Z" fill="#FFE04A" stroke="black" stroke-width="0.464336"/>
<path d="M226.162 35.2517C225.422 48.8098 220.908 52.5229 217.378 54.0608H217.071C218.3 56.9274 220.288 59.9796 224.752 61.6176C229.216 63.2557 238.254 56.6484 237.597 49.2414C236.941 41.8343 230.766 38.1212 226.162 35.2517Z" fill="#ED932C" stroke="black" stroke-width="0.464336"/>
<path d="M121.667 37.217L128.73 24.1461L202.885 38.2061L196.256 51.7025L121.667 37.217Z" fill="#8388F9" stroke="black" stroke-width="0.464336"/>
<path d="M250.934 105.84L257.996 92.7694L202.884 38.2061L196.256 51.7025L250.934 105.84Z" fill="#6558FF" stroke="black" stroke-width="0.464336"/>
<path d="M137.933 212.496L137.979 212.596L137.93 212.695L137.008 214.561L136.92 214.739L136.73 214.68L120.778 209.672L120.667 209.637L120.629 209.528C119.867 207.392 117.452 200.983 114.687 194.626C113.304 191.448 111.836 188.286 110.444 185.679C109.069 183.104 107.785 181.102 106.747 180.147C103.296 179.65 99.931 182.261 97.9347 186.704C96.376 190.173 94.0261 193.435 90.9368 195.209C87.8359 196.989 84.0194 197.252 79.587 194.779C74.2 193.267 65.3288 188.932 58.9374 181.912C52.5251 174.869 48.602 165.109 53.2164 152.806L53.2696 152.665L53.4207 152.656L53.6768 152.642L53.8606 152.631L53.9126 152.808C55.6559 158.73 57.9508 161.816 60.4793 162.894C62.9921 163.964 65.8355 163.088 68.7861 160.821L69.2127 160.493L69.1586 161.028C68.5237 167.301 68.7696 171.955 69.6245 175.744C70.4741 179.51 71.9277 182.434 73.7343 185.254C73.7433 185.257 73.7563 185.26 73.7743 185.263C73.8284 185.272 73.9065 185.277 74.0099 185.272C74.216 185.262 74.4963 185.216 74.8335 185.128C75.5065 184.952 76.3826 184.61 77.3055 184.066C79.1509 182.98 81.1657 181.1 82.13 178.156C83.2042 174.877 84.9307 172.78 86.8796 171.458C88.8251 170.138 90.9767 169.599 92.889 169.41C94.2896 169.271 95.6642 169.672 96.8762 170.332L110.423 177.717C116.102 179.355 121.148 184.064 125.68 190.33C130.221 196.61 134.268 204.486 137.933 212.496Z" fill="#ED932C" stroke="black" stroke-width="0.464336"/>
<mask id="mask0_12234_32626" style="mask-type:alpha" maskUnits="userSpaceOnUse" x="51" y="152" width="87" height="63">
<path d="M110.334 177.933C121.562 181.153 130.396 196.581 137.722 212.592L136.8 214.458L120.847 209.45C119.321 205.17 111.179 183.794 106.851 179.928C103.222 179.362 99.75 182.097 97.7229 186.609C94.6268 193.499 88.43 199.463 79.6762 194.563C68.9751 191.571 44.2792 177.295 53.4338 152.888L53.6899 152.873C57.1859 164.75 62.9771 165.577 68.9276 161.005C67.6544 173.585 69.908 179.725 73.5694 185.427C74.1104 185.91 80.3785 184.248 82.3506 178.228C84.4693 171.762 89.1365 170.015 92.9119 169.641C94.2535 169.508 95.5813 169.891 96.7651 170.536L110.334 177.933Z" fill="#ED932C"/>
</mask>
<g mask="url(#mask0_12234_32626)">
<path d="M113.765 177.537L114.328 177.813L113.721 177.97L109.924 178.955L109.914 178.958L109.904 178.959L103.72 180.011L95.119 196.124L95.0617 196.232L94.9409 196.246L86.2635 197.249L86.182 197.259L86.1127 197.215L76.789 191.319L76.7625 191.302L76.7414 191.279L73.1813 187.37L73.1057 187.287L73.1238 187.176L73.5059 184.842L73.5143 184.791L73.5438 184.748L84.2286 169.246L84.2786 169.173L84.3642 169.152L92.4717 167.153L92.5537 167.133L92.6295 167.17L113.765 177.537Z" fill="#FFE04A" stroke="black" stroke-width="0.464336"/>
<path d="M67.1295 164.031C65.4318 165.411 63.756 166.042 62.1564 166.084C60.4043 166.129 58.7745 165.465 57.3396 164.359C54.4777 162.153 52.3519 158.161 51.487 154.32L51.4582 154.193L51.5527 154.102L53.2585 152.464L53.5206 152.213L53.6388 152.556C55.3282 157.468 57.2385 160.885 59.6325 162.433C60.8195 163.2 62.1308 163.512 63.6131 163.312C65.102 163.111 66.7757 162.393 68.6737 161.077L69.1083 160.776L69.0359 161.3C68.13 167.859 69.1198 175.185 71.7994 181.358C74.479 187.531 78.8344 192.525 84.6407 194.477C86.8653 195.106 89.3171 194.639 91.4958 193.587C93.6762 192.533 95.5537 190.907 96.6215 189.267L97.0215 189.502C95.6727 192.067 93.5011 193.977 91.1419 195.145C88.7852 196.311 86.2239 196.746 84.087 196.338L84.0789 196.336L84.0709 196.334C77.1946 194.508 72.5074 188.844 69.7821 182.379C67.1659 176.172 66.3384 169.184 67.1295 164.031Z" fill="#FAC45F" stroke="black" stroke-width="0.464336"/>
<path d="M110.377 177.699L110.388 177.701L110.398 177.704C116.087 179.336 121.141 184.049 125.679 190.324C130.221 196.604 134.268 204.48 137.933 212.49L137.979 212.59L137.93 212.689L137.008 214.555L136.809 214.958L136.595 214.563C135.773 213.042 134.96 211.516 134.151 209.997C130.578 203.289 127.082 196.726 123.233 191.46C118.523 185.015 113.328 180.575 106.884 180.163C105.37 180.711 103.575 182.12 101.952 183.561C101.235 184.198 100.558 184.835 99.9591 185.398C99.8773 185.475 99.7969 185.551 99.7181 185.625C99.0676 186.236 98.5151 186.749 98.1328 187.036L97.5875 187.446L97.7696 186.788C98.5717 183.894 100.122 181.321 102.276 179.62C104.436 177.916 107.193 177.095 110.377 177.699Z" fill="#FAC45F" stroke="black" stroke-width="0.464336"/>
</g>
<path d="M204.878 208.707L204.839 208.811L204.895 208.906L205.94 210.706L206.039 210.878L206.225 210.806L221.807 204.743L221.914 204.701L221.946 204.589C222.563 202.407 224.544 195.851 226.878 189.323C228.045 186.059 229.298 182.807 230.513 180.113C231.712 177.451 232.859 175.368 233.832 174.346C237.242 173.619 240.774 175.999 243.063 180.298C244.85 183.655 247.413 186.753 250.614 188.316C253.827 189.885 257.652 189.892 261.909 187.128C267.183 185.259 275.744 180.341 281.652 172.909C287.579 165.453 290.841 155.452 285.414 143.486L285.351 143.348L285.2 143.35L284.943 143.352L284.759 143.354L284.719 143.534C283.376 149.56 281.292 152.793 278.842 154.036C276.406 155.273 273.511 154.588 270.415 152.524L269.967 152.225L270.057 152.756C271.11 158.972 271.176 163.632 270.576 167.47C269.981 171.284 268.726 174.298 267.112 177.234C267.103 177.237 267.09 177.241 267.073 177.245C267.019 177.258 266.941 177.267 266.838 177.269C266.632 177.273 266.349 177.247 266.007 177.181C265.323 177.05 264.426 176.768 263.469 176.287C261.555 175.326 259.419 173.585 258.26 170.713C256.969 167.513 255.106 165.536 253.073 164.347C251.044 163.16 248.861 162.767 246.94 162.706C245.534 162.661 244.189 163.152 243.024 163.893L230.001 172.167C224.444 174.181 219.724 179.217 215.622 185.772C211.511 192.341 207.999 200.471 204.878 208.707Z" fill="#ED932C" stroke="black" stroke-width="0.464336"/>
<mask id="mask1_12234_32626" style="mask-type:alpha" maskUnits="userSpaceOnUse" x="205" y="143" width="83" height="68">
<path d="M230.104 172.377C219.117 176.34 211.334 192.324 205.096 208.79L206.141 210.59L221.722 204.526C222.959 200.153 229.653 178.281 233.713 174.134C237.296 173.327 240.943 175.823 243.267 180.189C246.817 186.857 253.399 192.394 261.806 186.919C272.283 183.218 295.969 167.322 285.202 143.582L284.946 143.585C282.252 155.668 276.529 156.881 270.286 152.717C272.398 165.184 270.56 171.461 267.288 177.395C266.78 177.913 260.415 176.674 258.045 170.8C255.498 164.489 250.725 163.059 246.933 162.938C245.585 162.895 244.286 163.366 243.148 164.089L230.104 172.377Z" fill="#2EF3C5"/>
</mask>
<g mask="url(#mask1_12234_32626)">
<path d="M226.654 172.211L226.111 172.524L226.727 172.64L230.582 173.369L230.592 173.371L230.602 173.372L236.842 174.007L246.502 189.509L246.566 189.613L246.688 189.618L255.413 190.039L255.495 190.043L255.561 189.995L264.469 183.489L264.495 183.47L264.514 183.446L267.805 179.307L267.875 179.219L267.849 179.11L267.312 176.807L267.3 176.757L267.268 176.716L255.57 161.963L255.515 161.894L255.429 161.878L247.206 160.426L247.123 160.412L247.049 160.454L226.654 172.211Z" fill="#FFE04A" stroke="black" stroke-width="0.464336"/>
<path d="M272.282 155.616C274.069 156.88 275.783 157.397 277.382 157.331C279.133 157.259 280.715 156.488 282.072 155.288C284.78 152.896 286.634 148.771 287.241 144.881L287.261 144.752L287.16 144.667L285.349 143.148L285.071 142.914L284.976 143.265C283.618 148.278 281.941 151.815 279.656 153.52C278.523 154.365 277.235 154.764 275.743 154.664C274.244 154.563 272.526 153.958 270.544 152.772L270.09 152.501L270.198 153.018C271.54 159.503 271.043 166.878 268.782 173.217C266.521 179.555 262.509 184.829 256.847 187.165C254.669 187.942 252.191 187.64 249.947 186.735C247.701 185.83 245.719 184.333 244.544 182.768L244.161 183.029C245.678 185.498 247.973 187.259 250.405 188.266C252.834 189.272 255.419 189.535 257.524 188.985L257.532 188.983L257.539 188.98C264.278 186.698 268.576 180.734 270.863 174.1C273.058 167.732 273.416 160.704 272.282 155.616Z" fill="#FAC45F" stroke="black" stroke-width="0.464336"/>
<path d="M230.046 172.146L230.035 172.149L230.025 172.152C224.458 174.16 219.73 179.201 215.622 185.766C211.511 192.335 207.999 200.465 204.878 208.701L204.839 208.805L204.895 208.9L205.94 210.7L206.165 211.089L206.352 210.68C207.07 209.108 207.779 207.531 208.485 205.961C211.602 199.029 214.651 192.247 218.139 186.735C222.407 179.99 227.294 175.212 233.696 174.37C235.243 174.816 237.128 176.102 238.844 177.432C239.602 178.019 240.32 178.609 240.955 179.131C241.042 179.202 241.127 179.272 241.211 179.341C241.901 179.907 242.486 180.382 242.887 180.643L243.458 181.015L243.233 180.371C242.239 177.537 240.52 175.074 238.257 173.521C235.988 171.964 233.182 171.33 230.046 172.146Z" fill="#FAC45F" stroke="black" stroke-width="0.464336"/>
</g>
<mask id="mask2_12234_32626" style="mask-type:alpha" maskUnits="userSpaceOnUse" x="101" y="78" width="141" height="62">
<path d="M171.472 139.558L101.404 117L150.54 78.5217L241.364 117.057L171.472 139.558ZM150.485 78.4984L150.486 78.4985C150.486 78.4985 150.486 78.4984 150.485 78.4984L150.525 78.4051L150.485 78.4984Z" fill="#2E2274" stroke="black" stroke-width="0.464336"/>
</mask>
<g mask="url(#mask2_12234_32626)">
<path d="M186.197 126.599C186.197 136.754 178.145 144.977 168.222 144.977C158.3 144.977 150.248 136.754 150.248 126.599C150.248 116.444 158.3 108.221 168.222 108.221C178.145 108.221 186.197 116.444 186.197 126.599Z" fill="white" stroke="black" stroke-width="0.464336"/>
<g filter="url(#filter0_i_12234_32626)">
<ellipse cx="168.222" cy="126.599" rx="14.0084" ry="14.3187" fill="white"/>
</g>
<path d="M181.998 126.599C181.998 134.384 175.826 140.685 168.222 140.685C160.619 140.685 154.446 134.384 154.446 126.599C154.446 118.814 160.619 112.512 168.222 112.512C175.826 112.512 181.998 118.814 181.998 126.599Z" stroke="black" stroke-width="0.464336"/>
<path d="M171.948 140.88C171.857 139.826 172.124 138.692 172.665 137.492C173.221 136.26 174.061 134.971 175.074 133.643C176.525 131.743 178.313 129.786 180.11 127.82C180.828 127.034 181.548 126.246 182.248 125.461C183.626 123.914 184.899 122.298 186.105 120.762L186.224 120.611C187.387 119.129 188.486 117.729 189.56 116.535C190.672 115.299 191.746 114.296 192.823 113.655C193.877 113.027 194.922 112.752 196.006 112.932C196.009 112.934 196.012 112.937 196.015 112.94C196.025 112.949 196.037 112.959 196.05 112.97C196.099 113.012 196.164 113.069 196.244 113.14C196.404 113.281 196.621 113.474 196.878 113.704C197.393 114.164 198.067 114.769 198.761 115.392C199.247 115.829 199.743 116.275 200.201 116.687C201.049 117.449 201.765 118.093 202.043 118.34C204.07 120.146 204.608 123.312 203.753 127.042C202.9 130.764 200.669 134.989 197.252 138.824C193.836 142.66 189.897 145.363 186.298 146.64C182.691 147.92 179.484 147.75 177.457 145.945C176.844 145.399 175.452 144.119 174.21 142.973C173.59 142.401 173.009 141.863 172.582 141.467L172.073 140.996L171.948 140.88Z" fill="#FDB311" stroke="black" stroke-width="0.464336"/>
<path d="M176.868 120.54C180.284 116.705 184.224 114.001 187.822 112.725C191.429 111.445 194.636 111.615 196.663 113.42C198.69 115.225 199.228 118.391 198.373 122.122C197.52 125.843 195.289 130.068 191.873 133.904C188.456 137.74 184.517 140.443 180.919 141.72C177.311 143 174.104 142.83 172.077 141.025C170.05 139.219 169.512 136.053 170.367 132.322C171.221 128.601 173.452 124.376 176.868 120.54Z" fill="white" stroke="black" stroke-width="0.464336"/>
<g filter="url(#filter1_i_12234_32626)">
<ellipse cx="184.237" cy="127.104" rx="7.38134" ry="14.6636" transform="rotate(-138.31 184.237 127.104)" fill="white"/>
</g>
<path d="M178.899 122.349C181.573 119.346 184.599 117.182 187.321 116.105C190.057 115.022 192.414 115.061 193.836 116.327C195.257 117.593 195.567 119.929 194.807 122.772C194.051 125.6 192.25 128.856 189.576 131.858C186.902 134.861 183.875 137.025 181.153 138.102C178.417 139.185 176.061 139.147 174.639 137.88C173.217 136.614 172.908 134.278 173.668 131.435C174.424 128.607 176.224 125.351 178.899 122.349Z" stroke="black" stroke-width="0.464336"/>
<path d="M140.448 99.9271C141.602 100.314 142.673 101.121 143.688 102.247C144.729 103.402 145.699 104.882 146.63 106.56C147.956 108.951 149.188 111.719 150.423 114.491C150.924 115.617 151.425 116.744 151.933 117.846C152.923 119.992 154.033 122.062 155.089 124.024L155.194 124.218C156.214 126.111 157.177 127.9 157.937 129.57C158.724 131.299 159.285 132.884 159.465 134.308C159.642 135.703 159.452 136.932 158.763 137.993C158.739 138.003 158.71 138.015 158.673 138.03C158.587 138.065 158.469 138.111 158.321 138.169C158.025 138.283 157.614 138.44 157.123 138.625C156.139 138.995 154.832 139.481 153.468 139.982C150.735 140.986 147.783 142.045 146.731 142.363C143.658 143.291 140.162 142.596 136.808 140.327C133.454 138.058 130.254 134.219 127.797 128.891C122.877 118.219 124.606 109.38 129.817 105.757C130.703 105.142 133.373 103.677 135.84 102.357C137.07 101.699 138.244 101.081 139.11 100.626C139.543 100.399 139.899 100.213 140.147 100.084L140.434 99.9346L140.448 99.9271Z" fill="#FDB311" stroke="black" stroke-width="0.464336"/>
<path d="M163.447 112.58C165.899 117.897 166.541 123.429 165.606 128.068C164.671 132.709 162.167 136.44 158.338 138.205C154.509 139.97 150.045 139.452 145.91 137.15C141.774 134.847 137.984 130.768 135.532 125.45C133.081 120.133 132.439 114.601 133.374 109.961C134.308 105.321 136.813 101.59 140.642 99.8247C144.471 98.0594 148.935 98.5775 153.07 100.88C157.206 103.182 160.996 107.262 163.447 112.58Z" fill="white" stroke="black" stroke-width="0.464336"/>
<g filter="url(#filter2_i_12234_32626)">
<ellipse cx="150.301" cy="118.661" rx="11.5782" ry="16.739" transform="rotate(-24.7528 150.301 118.661)" fill="white"/>
</g>
<path d="M160.605 113.911C162.523 118.071 163.089 122.366 162.463 125.942C161.838 129.519 160.028 132.354 157.213 133.652C154.398 134.949 151.067 134.485 147.941 132.638C144.815 130.791 141.916 127.572 139.998 123.412C138.08 119.252 137.514 114.957 138.139 111.38C138.765 107.803 140.575 104.969 143.39 103.671C146.205 102.373 149.536 102.837 152.662 104.684C155.788 106.531 158.687 109.75 160.605 113.911Z" stroke="black" stroke-width="0.464336"/>
</g>
<path d="M226.78 97.0147L226.759 96.9634L226.716 96.9275C225.636 96.0172 224.318 95.6679 222.829 95.6917C221.346 95.7155 219.682 96.1099 217.889 96.6983C216.156 97.2669 214.287 98.0225 212.329 98.814C212.259 98.842 212.19 98.8701 212.12 98.8982C210.084 99.7214 207.95 100.579 205.756 101.311C204.648 101.681 203.514 102.043 202.378 102.406C199.517 103.32 196.643 104.238 194.143 105.288C192.394 106.023 190.816 106.827 189.54 107.749C188.265 108.67 187.282 109.717 186.742 110.941L186.706 111.021L186.732 111.104L186.954 111.035L186.732 111.104L186.732 111.104L186.733 111.105L186.734 111.108L186.738 111.122L186.755 111.176L186.819 111.381L187.051 112.126C187.246 112.751 187.513 113.602 187.797 114.507C188.366 116.318 189.009 118.351 189.303 119.232C190.352 122.378 193.605 124.404 197.916 125.19C202.237 125.977 207.678 125.532 213.221 123.682C218.764 121.833 223.382 118.921 226.364 115.697C229.34 112.481 230.724 108.907 229.674 105.761C229.543 105.366 229.205 104.339 228.806 103.122C228.589 102.464 228.355 101.75 228.125 101.05C227.797 100.053 227.478 99.0855 227.233 98.3483C226.991 97.6198 226.816 97.0993 226.78 97.0147Z" fill="#35CB8C" stroke="black" stroke-width="0.464336"/>
<mask id="mask3_12234_32626" style="mask-type:alpha" maskUnits="userSpaceOnUse" x="186" y="95" width="44" height="31">
<path d="M205.83 101.531C214.635 98.5929 222.463 93.6453 226.566 97.105C226.691 97.3989 229.047 104.615 229.454 105.835C231.475 111.891 224.174 119.783 213.147 123.462C202.121 127.141 191.543 125.215 189.523 119.159C188.936 117.401 186.954 111.035 186.954 111.035C189.025 106.341 198.002 104.143 205.83 101.531Z" fill="#35CB8C"/>
</mask>
<g mask="url(#mask3_12234_32626)">
<path d="M213.196 128.636L208.387 113.967L184.259 107.474L184.74 127.274L213.196 128.636Z" fill="#1A9763"/>
<path d="M209.418 126.564L206 115.893H202.685L206 126.564H209.418Z" fill="#35CB8C"/>
</g>
<path d="M203.411 93.9401C208.894 92.1104 214.255 91.6787 218.485 92.4493C222.725 93.2215 225.771 95.1865 226.742 98.0969C227.713 101.007 226.457 104.408 223.531 107.571C220.611 110.727 216.065 113.601 210.582 115.431C205.098 117.26 199.737 117.692 195.507 116.922C191.268 116.149 188.222 114.184 187.251 111.274C186.28 108.363 187.535 104.963 190.462 101.8C193.381 98.6438 197.927 95.7698 203.411 93.9401Z" fill="white" stroke="black" stroke-width="0.464336"/>
<g filter="url(#filter3_i_12234_32626)">
<ellipse cx="206.933" cy="104.495" rx="8.30141" ry="16.4914" transform="rotate(-108.452 206.933 104.495)" fill="white"/>
</g>
<path d="M204.378 96.8406C208.671 95.4082 212.839 94.9914 216.103 95.4656C219.381 95.9419 221.673 97.3017 222.356 99.3487C223.039 101.396 222.023 103.859 219.687 106.209C217.363 108.547 213.779 110.717 209.487 112.149C205.194 113.582 201.026 113.999 197.762 113.524C194.484 113.048 192.192 111.688 191.509 109.641C190.826 107.594 191.842 105.131 194.178 102.781C196.502 100.443 200.086 98.273 204.378 96.8406Z" stroke="black" stroke-width="0.464336"/>
<mask id="path-43-outside-1_12234_32626" maskUnits="userSpaceOnUse" x="193.291" y="98.5528" width="26.1509" height="14.3994" fill="black">
<rect fill="white" x="193.291" y="98.5528" width="26.1509" height="14.3994"/>
<path d="M205.042 105.251L205.044 105.25C205.085 105.287 205.303 105.475 205.846 105.867C206.281 106.18 206.608 106.39 206.726 106.463L206.724 106.464C208.533 107.606 210.322 108.261 210.974 107.967C211.624 107.675 210.922 106.531 209.39 105.265L207.265 106.22C207.142 106.148 206.793 105.938 206.361 105.626C205.842 105.252 205.623 105.046 205.583 105.008L207.706 104.053C205.899 102.914 204.112 102.262 203.462 102.554C202.812 102.846 203.513 103.988 205.04 105.252M207.926 103.954L209.827 103.099L207.501 101.422L210.399 100.119L216.733 104.685L213.834 105.989L211.508 104.311L209.607 105.166C211.335 106.602 212.057 107.941 211.218 108.319C210.379 108.696 208.257 107.985 206.202 106.697L200.109 109.437L198.427 108.224L204.52 105.484C202.795 104.05 202.076 102.713 202.915 102.335C203.752 101.959 205.873 102.667 207.923 103.954"/>
</mask>
<path d="M205.042 105.251L205.044 105.25C205.085 105.287 205.303 105.475 205.846 105.867C206.281 106.18 206.608 106.39 206.726 106.463L206.724 106.464C208.533 107.606 210.322 108.261 210.974 107.967C211.624 107.675 210.922 106.531 209.39 105.265L207.265 106.22C207.142 106.148 206.793 105.938 206.361 105.626C205.842 105.252 205.623 105.046 205.583 105.008L207.706 104.053C205.899 102.914 204.112 102.262 203.462 102.554C202.812 102.846 203.513 103.988 205.04 105.252M207.926 103.954L209.827 103.099L207.501 101.422L210.399 100.119L216.733 104.685L213.834 105.989L211.508 104.311L209.607 105.166C211.335 106.602 212.057 107.941 211.218 108.319C210.379 108.696 208.257 107.985 206.202 106.697L200.109 109.437L198.427 108.224L204.52 105.484C202.795 104.05 202.076 102.713 202.915 102.335C203.752 101.959 205.873 102.667 207.923 103.954" fill="#45E09F"/>
<path d="M205.044 105.25L204.72 105.016L205.129 104.832L205.444 105.114L205.044 105.25ZM206.726 106.463L207.062 106.279L207.448 106.518L207.05 106.697L206.726 106.463ZM206.724 106.464L206.384 106.644L206.007 106.406L206.399 106.23L206.724 106.464ZM209.39 105.265L209.066 105.031L209.458 104.854L209.778 105.118L209.39 105.265ZM207.265 106.22L207.589 106.454L207.265 106.6L206.941 106.411L207.265 106.22ZM205.583 105.008L205.174 105.135L204.945 104.915L205.259 104.774L205.583 105.008ZM207.706 104.053L208.046 103.872L208.424 104.11L208.031 104.287L207.706 104.053ZM209.827 103.099L210.192 102.935L210.516 103.169L210.152 103.333L209.827 103.099ZM207.501 101.422L207.136 101.586L206.811 101.352L207.176 101.188L207.501 101.422ZM210.399 100.119L210.075 99.8849L210.44 99.7209L210.764 99.9548L210.399 100.119ZM216.733 104.685L217.098 104.521L217.422 104.755L217.058 104.919L216.733 104.685ZM213.834 105.989L214.159 106.222L213.794 106.386L213.47 106.153L213.834 105.989ZM211.508 104.311L211.183 104.077L211.548 103.913L211.873 104.147L211.508 104.311ZM209.607 105.166L209.219 105.312L208.945 105.084L209.283 104.932L209.607 105.166ZM206.202 106.697L205.878 106.463L206.216 106.311L206.541 106.515L206.202 106.697ZM200.109 109.437L200.433 109.671L200.069 109.835L199.744 109.601L200.109 109.437ZM198.427 108.224L198.062 108.388L197.738 108.154L198.102 107.99L198.427 108.224ZM204.52 105.484L204.909 105.339L205.183 105.566L204.845 105.718L204.52 105.484ZM204.718 105.017L204.72 105.016L205.369 105.484L205.366 105.485L204.718 105.017ZM205.444 105.114C205.471 105.139 205.676 105.317 206.211 105.703L205.481 106.031C204.929 105.633 204.699 105.435 204.644 105.386L205.444 105.114ZM206.211 105.703C206.636 106.009 206.954 106.212 207.062 106.279L206.39 106.646C206.262 106.567 205.925 106.351 205.481 106.031L206.211 105.703ZM207.05 106.697L207.048 106.698L206.399 106.23L206.402 106.229L207.05 106.697ZM207.064 106.283C207.946 106.84 208.805 107.266 209.501 107.515C209.85 107.64 210.134 107.711 210.343 107.738C210.553 107.766 210.628 107.743 210.65 107.733L211.299 108.201C210.995 108.338 210.601 108.343 210.235 108.295C209.869 108.247 209.47 108.138 209.065 107.993C208.251 107.702 207.311 107.23 206.384 106.644L207.064 106.283ZM210.65 107.733C210.671 107.724 210.727 107.688 210.728 107.565C210.729 107.443 210.673 107.269 210.541 107.046C210.278 106.603 209.749 106.028 209.003 105.411L209.778 105.118C210.563 105.767 211.152 106.397 211.46 106.916C211.613 107.174 211.707 107.42 211.705 107.634C211.703 107.848 211.603 108.065 211.299 108.201L210.65 107.733ZM209.715 105.499L207.589 106.454L206.941 105.986L209.066 105.031L209.715 105.499ZM206.941 106.411C206.806 106.332 206.443 106.113 205.996 105.79L206.726 105.462C207.143 105.763 207.478 105.965 207.589 106.03L206.941 106.411ZM205.996 105.79C205.461 105.405 205.228 105.187 205.174 105.135L205.992 104.881C206.019 104.906 206.222 105.099 206.726 105.462L205.996 105.79ZM205.259 104.774L207.382 103.819L208.031 104.287L205.908 105.242L205.259 104.774ZM207.366 104.234C206.485 103.679 205.627 103.254 204.933 103.006C204.584 102.882 204.301 102.811 204.092 102.783C203.882 102.756 203.808 102.778 203.787 102.788L203.138 102.32C203.441 102.184 203.835 102.178 204.199 102.226C204.565 102.275 204.963 102.383 205.368 102.527C206.181 102.817 207.12 103.288 208.046 103.872L207.366 104.234ZM203.787 102.788C203.765 102.798 203.71 102.833 203.708 102.956C203.707 103.078 203.762 103.251 203.894 103.474C204.157 103.916 204.684 104.489 205.428 105.106L204.652 105.398C203.87 104.75 203.283 104.121 202.975 103.604C202.823 103.346 202.729 103.1 202.732 102.887C202.734 102.673 202.834 102.457 203.138 102.32L203.787 102.788ZM207.602 103.72L209.503 102.866L210.152 103.333L208.251 104.188L207.602 103.72ZM209.462 103.264L207.136 101.586L207.865 101.258L210.192 102.935L209.462 103.264ZM207.176 101.188L210.075 99.8849L210.724 100.353L207.825 101.656L207.176 101.188ZM210.764 99.9548L217.098 104.521L216.368 104.849L210.034 100.283L210.764 99.9548ZM217.058 104.919L214.159 106.222L213.51 105.755L216.409 104.451L217.058 104.919ZM213.47 106.153L211.143 104.475L211.873 104.147L214.199 105.824L213.47 106.153ZM211.832 104.545L209.932 105.4L209.283 104.932L211.183 104.077L211.832 104.545ZM209.996 105.02C210.882 105.757 211.528 106.482 211.841 107.086C211.998 107.387 212.079 107.673 212.051 107.921C212.022 108.17 211.877 108.402 211.542 108.553L210.893 108.085C210.979 108.046 211.058 107.97 211.076 107.817C211.094 107.663 211.045 107.453 210.909 107.193C210.64 106.674 210.06 106.011 209.219 105.312L209.996 105.02ZM211.542 108.553C211.208 108.703 210.777 108.729 210.345 108.688C209.915 108.646 209.445 108.535 208.967 108.378C208.008 108.065 206.918 107.539 205.864 106.878L206.541 106.515C207.542 107.143 208.54 107.617 209.365 107.887C209.778 108.022 210.125 108.098 210.394 108.124C210.659 108.15 210.808 108.123 210.893 108.085L211.542 108.553ZM206.527 106.931L200.433 109.671L199.784 109.203L205.878 106.463L206.527 106.931ZM199.744 109.601L198.062 108.388L198.792 108.06L200.474 109.273L199.744 109.601ZM198.102 107.99L204.196 105.25L204.845 105.718L198.751 108.458L198.102 107.99ZM204.132 105.63C203.247 104.894 202.603 104.17 202.29 103.567C202.134 103.266 202.053 102.98 202.082 102.733C202.111 102.484 202.257 102.252 202.591 102.101L203.24 102.569C203.154 102.608 203.074 102.684 203.056 102.837C203.038 102.991 203.088 103.201 203.222 103.46C203.491 103.979 204.069 104.64 204.909 105.339L204.132 105.63ZM202.591 102.101C202.924 101.951 203.355 101.925 203.787 101.967C204.216 102.008 204.685 102.119 205.163 102.275C206.121 102.588 207.21 103.112 208.262 103.773L207.584 104.136C206.586 103.509 205.59 103.036 204.766 102.767C204.353 102.632 204.006 102.556 203.738 102.53C203.473 102.505 203.325 102.531 203.24 102.569L202.591 102.101Z" fill="black" mask="url(#path-43-outside-1_12234_32626)"/>
<path d="M188.45 202.685C189.193 202.417 190.085 202.381 191.1 202.525C192.156 202.675 193.329 203.019 194.576 203.482C196.353 204.14 198.255 205.028 200.163 205.919C200.938 206.282 201.715 206.644 202.484 206.992C203.981 207.669 205.503 208.256 206.947 208.81C206.995 208.829 207.042 208.847 207.089 208.865C208.483 209.4 209.798 209.905 210.955 210.434C212.152 210.982 213.163 211.549 213.907 212.191C214.627 212.813 215.084 213.494 215.226 214.285C215.221 214.293 215.217 214.303 215.211 214.314C215.184 214.367 215.145 214.44 215.097 214.531C215 214.712 214.864 214.963 214.699 215.262C214.371 215.861 213.932 216.654 213.471 217.479C212.546 219.132 211.538 220.901 211.152 221.499C208.917 224.966 202.671 226.571 195.256 223.219C187.844 219.868 184.802 214.011 185.763 210.041C185.927 209.366 186.604 207.512 187.248 205.808C187.568 204.96 187.878 204.155 188.108 203.562C188.223 203.266 188.318 203.023 188.384 202.854L188.45 202.685Z" fill="#5D42FF" stroke="black" stroke-width="0.464336"/>
<path d="M206.216 198.866C210.031 200.591 212.966 203.278 214.632 206.218C216.297 209.158 216.687 212.334 215.452 215.066C214.217 217.797 211.575 219.603 208.268 220.295C204.96 220.987 201.004 220.559 197.189 218.834C193.374 217.109 190.439 214.422 188.773 211.482C187.108 208.542 186.718 205.366 187.953 202.634C189.188 199.903 191.83 198.097 195.137 197.405C198.445 196.713 202.401 197.141 206.216 198.866Z" fill="white" stroke="black" stroke-width="0.464336"/>
<g filter="url(#filter4_i_12234_32626)">
<ellipse cx="201.976" cy="208.277" rx="8.30343" ry="12.0046" transform="rotate(-65.6733 201.976 208.277)" fill="white"/>
</g>
<path d="M205.301 200.922C208.284 202.271 210.598 204.324 211.931 206.543C213.265 208.763 213.608 211.126 212.704 213.127C211.799 215.127 209.799 216.43 207.251 216.896C204.704 217.36 201.635 216.98 198.652 215.632C195.668 214.283 193.355 212.23 192.022 210.011C190.688 207.791 190.345 205.428 191.249 203.428C192.153 201.427 194.154 200.124 196.702 199.659C199.248 199.194 202.318 199.574 205.301 200.922Z" stroke="black" stroke-width="0.464336"/>
<path fill-rule="evenodd" clip-rule="evenodd" d="M205.283 211.062C205.081 211.509 205.493 212.133 206.205 212.454C206.916 212.776 207.657 212.674 207.859 212.227C208.062 211.78 207.649 211.156 206.938 210.834C206.226 210.513 205.485 210.614 205.283 211.062ZM199.921 213.043C198.473 212.388 197.634 211.12 198.045 210.21C198.457 209.3 199.964 209.092 201.411 209.747C202.859 210.402 203.698 211.67 203.287 212.58C202.875 213.49 201.368 213.698 199.921 213.043ZM196.211 207.935C195.5 207.613 195.087 206.989 195.29 206.542C195.492 206.095 196.233 205.993 196.944 206.315C197.655 206.636 198.068 207.26 197.866 207.707C197.663 208.155 196.923 208.256 196.211 207.935ZM207.07 206.874C206.178 206.185 204.894 206.007 204.232 206.465C203.798 206.774 203.729 207.281 204.006 207.793C204.206 208.237 204.147 208.664 203.761 208.927C203.52 209.104 203.194 209.175 202.826 209.16L202.775 209.154C202.617 209.15 202.445 209.173 202.35 209.265C202.081 209.446 202.171 209.84 202.533 210.104C202.888 210.383 203.418 210.454 203.665 210.263C203.782 210.181 203.832 210.07 203.816 209.928C203.806 209.654 203.92 209.403 204.161 209.226C204.518 208.967 205.07 208.93 205.625 209.064L205.676 209.07C205.698 209.08 205.72 209.09 205.726 209.076L205.771 209.096C206.437 209.279 207.09 209.255 207.495 208.951C208.179 208.503 207.991 207.56 207.07 206.874ZM202.013 205.461C201.919 204.662 200.938 203.814 199.831 203.6C198.702 203.375 197.876 203.842 197.991 204.652C198.03 205.157 198.443 205.663 199.021 206.042L199.065 206.063C199.059 206.076 199.081 206.087 199.103 206.097L199.141 206.131C199.608 206.459 199.945 206.898 199.987 207.337C200.013 207.635 199.899 207.886 199.687 208.06C199.57 208.141 199.519 208.253 199.535 208.395C199.555 208.706 199.958 209.057 200.402 209.14C200.84 209.237 201.194 209.044 201.153 208.723C201.159 208.591 201.063 208.447 200.955 208.331L200.917 208.297C200.663 208.03 200.501 207.738 200.475 207.44C200.417 206.977 200.699 206.65 201.165 206.507C201.732 206.377 202.067 205.99 202.013 205.461Z" fill="#6558FF"/>
<path d="M204.232 206.465L204.118 206.301L204.116 206.302L204.232 206.465ZM207.07 206.874L206.948 207.032L206.951 207.034L207.07 206.874ZM204.006 207.793L204.188 207.711L204.185 207.704L204.182 207.698L204.006 207.793ZM203.761 208.927L203.648 208.761L203.642 208.766L203.761 208.927ZM202.826 209.16L202.802 209.359L202.81 209.36L202.818 209.36L202.826 209.16ZM202.775 209.154L202.799 208.955L202.79 208.954L202.781 208.954L202.775 209.154ZM202.35 209.265L202.462 209.431L202.477 209.421L202.489 209.409L202.35 209.265ZM202.533 210.104L202.656 209.947L202.651 209.943L202.533 210.104ZM203.665 210.263L203.55 210.099L203.542 210.105L203.665 210.263ZM203.816 209.928L203.616 209.935L203.617 209.943L203.617 209.95L203.816 209.928ZM204.161 209.226L204.043 209.063L204.042 209.064L204.161 209.226ZM205.625 209.064L205.578 209.258L205.59 209.261L205.601 209.262L205.625 209.064ZM205.676 209.07L205.758 208.887L205.73 208.875L205.7 208.871L205.676 209.07ZM205.726 209.076L205.809 208.894L205.627 208.811L205.544 208.993L205.726 209.076ZM205.771 209.096L205.688 209.278L205.703 209.285L205.718 209.289L205.771 209.096ZM207.495 208.951L207.385 208.783L207.375 208.791L207.495 208.951ZM199.831 203.6L199.792 203.796L199.793 203.796L199.831 203.6ZM202.013 205.461L202.211 205.44L202.211 205.438L202.013 205.461ZM197.991 204.652L198.191 204.636L198.189 204.623L197.991 204.652ZM199.021 206.042L198.911 206.21L198.924 206.218L198.938 206.225L199.021 206.042ZM199.065 206.063L199.247 206.145L199.33 205.963L199.148 205.88L199.065 206.063ZM199.103 206.097L199.237 205.947L199.214 205.927L199.186 205.914L199.103 206.097ZM199.141 206.131L199.008 206.28L199.017 206.287L199.026 206.294L199.141 206.131ZM199.987 207.337L200.186 207.32L200.186 207.318L199.987 207.337ZM199.687 208.06L199.801 208.224L199.807 208.219L199.813 208.215L199.687 208.06ZM199.535 208.395L199.735 208.382L199.734 208.372L199.535 208.395ZM200.402 209.14L200.445 208.945L200.439 208.944L200.402 209.14ZM201.153 208.723L200.953 208.713L200.952 208.731L200.954 208.748L201.153 208.723ZM200.955 208.331L201.102 208.194L201.096 208.188L201.089 208.181L200.955 208.331ZM200.917 208.297L200.773 208.435L200.778 208.44L200.784 208.446L200.917 208.297ZM200.475 207.44L200.675 207.423L200.674 207.416L200.475 207.44ZM201.165 206.507L201.12 206.312L201.113 206.314L201.106 206.316L201.165 206.507ZM206.287 212.272C205.96 212.124 205.711 211.911 205.568 211.695C205.423 211.476 205.403 211.283 205.465 211.144L205.101 210.979C204.961 211.288 205.046 211.63 205.235 211.916C205.425 212.204 205.738 212.463 206.122 212.637L206.287 212.272ZM207.677 212.145C207.614 212.283 207.455 212.395 207.196 212.431C206.939 212.466 206.614 212.42 206.287 212.272L206.122 212.637C206.507 212.811 206.908 212.874 207.25 212.827C207.589 212.781 207.902 212.618 208.042 212.309L207.677 212.145ZM206.855 211.017C207.182 211.164 207.431 211.378 207.574 211.594C207.719 211.813 207.74 212.006 207.677 212.145L208.042 212.309C208.181 212.001 208.097 211.659 207.908 211.373C207.717 211.085 207.405 210.826 207.02 210.652L206.855 211.017ZM205.465 211.144C205.528 211.005 205.687 210.893 205.947 210.858C206.203 210.823 206.528 210.869 206.855 211.017L207.02 210.652C206.635 210.478 206.234 210.414 205.892 210.462C205.553 210.508 205.24 210.671 205.101 210.979L205.465 211.144ZM197.863 210.127C197.619 210.667 197.758 211.286 198.119 211.833C198.482 212.381 199.086 212.885 199.838 213.225L200.003 212.861C199.308 212.547 198.768 212.088 198.453 211.612C198.135 211.132 198.06 210.662 198.228 210.292L197.863 210.127ZM201.494 209.565C200.741 209.224 199.965 209.104 199.313 209.193C198.664 209.283 198.107 209.587 197.863 210.127L198.228 210.292C198.395 209.922 198.798 209.668 199.367 209.59C199.934 209.512 200.634 209.615 201.329 209.929L201.494 209.565ZM203.469 212.663C203.713 212.123 203.574 211.504 203.213 210.957C202.85 210.409 202.246 209.905 201.494 209.565L201.329 209.929C202.024 210.243 202.564 210.702 202.879 211.178C203.197 211.658 203.272 212.128 203.104 212.498L203.469 212.663ZM199.838 213.225C200.591 213.566 201.367 213.686 202.019 213.597C202.668 213.507 203.225 213.203 203.469 212.663L203.104 212.498C202.937 212.868 202.534 213.122 201.965 213.2C201.398 213.278 200.698 213.175 200.003 212.861L199.838 213.225ZM195.107 206.46C194.968 206.768 195.052 207.11 195.241 207.396C195.432 207.684 195.744 207.943 196.129 208.117L196.294 207.752C195.967 207.605 195.717 207.391 195.574 207.175C195.43 206.957 195.409 206.763 195.472 206.624L195.107 206.46ZM197.026 206.132C196.642 205.958 196.241 205.895 195.899 205.942C195.56 205.988 195.247 206.151 195.107 206.46L195.472 206.624C195.534 206.486 195.693 206.374 195.953 206.338C196.21 206.303 196.535 206.349 196.862 206.497L197.026 206.132ZM198.048 207.79C198.188 207.481 198.103 207.139 197.914 206.853C197.724 206.565 197.411 206.306 197.026 206.132L196.862 206.497C197.188 206.645 197.438 206.858 197.581 207.074C197.725 207.293 197.746 207.486 197.683 207.625L198.048 207.79ZM196.129 208.117C196.513 208.291 196.914 208.355 197.257 208.308C197.596 208.261 197.908 208.098 198.048 207.79L197.683 207.625C197.621 207.764 197.462 207.876 197.202 207.911C196.946 207.947 196.62 207.9 196.294 207.752L196.129 208.117ZM204.346 206.63C204.62 206.44 205.049 206.368 205.537 206.437C206.019 206.506 206.53 206.71 206.948 207.032L207.192 206.716C206.718 206.349 206.141 206.119 205.593 206.041C205.05 205.964 204.506 206.033 204.118 206.301L204.346 206.63ZM204.182 207.698C204.06 207.471 204.022 207.261 204.05 207.084C204.078 206.911 204.172 206.753 204.348 206.628L204.116 206.302C203.858 206.485 203.701 206.735 203.655 207.021C203.61 207.303 203.676 207.602 203.83 207.888L204.182 207.698ZM203.873 209.092C204.107 208.933 204.251 208.716 204.3 208.466C204.348 208.22 204.301 207.96 204.188 207.711L203.824 207.875C203.912 208.07 203.935 208.245 203.907 208.39C203.88 208.53 203.801 208.658 203.648 208.761L203.873 209.092ZM202.818 209.36C203.212 209.376 203.589 209.301 203.879 209.088L203.642 208.766C203.451 208.907 203.175 208.974 202.834 208.96L202.818 209.36ZM202.751 209.353L202.802 209.359L202.85 208.962L202.799 208.955L202.751 209.353ZM202.489 209.409C202.501 209.398 202.528 209.381 202.583 209.368C202.636 209.357 202.701 209.352 202.77 209.354L202.781 208.954C202.691 208.952 202.591 208.957 202.495 208.978C202.401 209 202.295 209.04 202.212 209.121L202.489 209.409ZM202.651 209.943C202.499 209.832 202.421 209.705 202.4 209.61C202.381 209.524 202.405 209.469 202.462 209.431L202.239 209.099C202.026 209.242 201.961 209.474 202.01 209.696C202.056 209.909 202.205 210.112 202.415 210.266L202.651 209.943ZM203.542 210.105C203.479 210.154 203.348 210.187 203.167 210.162C202.992 210.137 202.804 210.063 202.656 209.947L202.409 210.262C202.617 210.424 202.872 210.525 203.112 210.558C203.346 210.59 203.603 210.563 203.787 210.421L203.542 210.105ZM203.617 209.95C203.622 209.991 203.616 210.018 203.608 210.036C203.6 210.053 203.584 210.075 203.55 210.099L203.779 210.427C203.862 210.369 203.93 210.294 203.973 210.2C204.015 210.107 204.026 210.006 204.015 209.905L203.617 209.95ZM204.042 209.064C203.748 209.281 203.604 209.596 203.616 209.935L204.016 209.92C204.008 209.712 204.092 209.524 204.279 209.387L204.042 209.064ZM205.672 208.869C205.09 208.73 204.469 208.756 204.043 209.063L204.278 209.388C204.568 209.178 205.049 209.131 205.578 209.258L205.672 208.869ZM205.7 208.871L205.649 208.865L205.601 209.262L205.652 209.268L205.7 208.871ZM205.544 208.993C205.555 208.97 205.571 208.946 205.596 208.926C205.62 208.906 205.646 208.895 205.668 208.889C205.71 208.878 205.742 208.885 205.75 208.886C205.766 208.89 205.776 208.896 205.758 208.887L205.593 209.252C205.598 209.254 205.63 209.269 205.664 209.277C205.681 209.281 205.721 209.288 205.769 209.276C205.829 209.26 205.881 209.219 205.909 209.158L205.544 208.993ZM205.853 208.914L205.809 208.894L205.644 209.258L205.688 209.278L205.853 208.914ZM207.375 208.791C207.044 209.04 206.468 209.08 205.824 208.903L205.718 209.289C206.406 209.478 207.136 209.471 207.615 209.11L207.375 208.791ZM206.951 207.034C207.384 207.357 207.624 207.726 207.688 208.041C207.75 208.345 207.654 208.607 207.386 208.783L207.605 209.118C208.02 208.846 208.172 208.413 208.08 207.962C207.991 207.522 207.676 207.076 207.19 206.714L206.951 207.034ZM199.793 203.796C200.311 203.896 200.802 204.146 201.172 204.463C201.546 204.783 201.775 205.153 201.814 205.484L202.211 205.438C202.157 204.97 201.849 204.516 201.432 204.159C201.012 203.799 200.458 203.517 199.869 203.403L199.793 203.796ZM198.189 204.623C198.144 204.305 198.277 204.064 198.544 203.912C198.823 203.753 199.259 203.69 199.792 203.796L199.87 203.403C199.275 203.285 198.733 203.343 198.346 203.564C197.946 203.792 197.723 204.188 197.793 204.68L198.189 204.623ZM199.131 205.875C198.572 205.509 198.222 205.049 198.191 204.636L197.792 204.667C197.838 205.264 198.314 205.818 198.911 206.21L199.131 205.875ZM199.148 205.88L199.103 205.86L198.938 206.225L198.983 206.245L199.148 205.88ZM199.186 205.914C199.168 205.906 199.179 205.91 199.192 205.92C199.198 205.925 199.225 205.944 199.244 205.982C199.255 206.004 199.263 206.031 199.264 206.062C199.265 206.094 199.258 206.122 199.247 206.145L198.883 205.98C198.856 206.041 198.859 206.107 198.887 206.162C198.909 206.206 198.941 206.232 198.956 206.242C198.984 206.263 199.017 206.277 199.021 206.279L199.186 205.914ZM199.275 205.982L199.237 205.947L198.97 206.246L199.008 206.28L199.275 205.982ZM200.186 207.318C200.136 206.795 199.745 206.311 199.257 205.967L199.026 206.294C199.471 206.607 199.754 207 199.788 207.356L200.186 207.318ZM199.813 208.215C200.076 208 200.218 207.684 200.186 207.32L199.787 207.355C199.808 207.586 199.722 207.773 199.56 207.905L199.813 208.215ZM199.734 208.372C199.729 208.331 199.735 208.305 199.743 208.287C199.751 208.269 199.767 208.247 199.801 208.224L199.572 207.896C199.489 207.953 199.421 208.028 199.379 208.122C199.336 208.216 199.325 208.317 199.336 208.417L199.734 208.372ZM200.439 208.944C200.254 208.909 200.074 208.817 199.94 208.702C199.801 208.582 199.74 208.462 199.735 208.382L199.336 208.407C199.35 208.639 199.5 208.85 199.679 209.005C199.862 209.163 200.106 209.288 200.365 209.337L200.439 208.944ZM200.954 208.748C200.963 208.816 200.937 208.871 200.86 208.913C200.775 208.96 200.629 208.986 200.445 208.945L200.359 209.335C200.612 209.392 200.863 209.369 201.054 209.263C201.253 209.153 201.384 208.951 201.351 208.697L200.954 208.748ZM200.809 208.467C200.856 208.517 200.895 208.569 200.921 208.617C200.948 208.666 200.954 208.698 200.953 208.713L201.352 208.732C201.358 208.616 201.319 208.51 201.272 208.425C201.225 208.339 201.163 208.26 201.102 208.194L200.809 208.467ZM200.784 208.446L200.822 208.48L201.089 208.181L201.051 208.147L200.784 208.446ZM200.276 207.458C200.307 207.816 200.5 208.149 200.773 208.435L201.062 208.158C200.827 207.912 200.695 207.66 200.674 207.423L200.276 207.458ZM201.106 206.316C200.845 206.396 200.618 206.533 200.465 206.731C200.31 206.933 200.242 207.184 200.277 207.465L200.674 207.416C200.651 207.233 200.695 207.089 200.782 206.976C200.872 206.859 201.019 206.761 201.223 206.699L201.106 206.316ZM201.814 205.482C201.836 205.696 201.779 205.871 201.668 206.007C201.554 206.144 201.371 206.255 201.12 206.312L201.209 206.702C201.526 206.63 201.794 206.482 201.976 206.261C202.16 206.038 202.244 205.755 202.211 205.44L201.814 205.482Z" fill="black"/>
<path d="M172.976 219.254C173.059 218.694 173.333 218.129 173.763 217.553C174.215 216.948 174.831 216.343 175.551 215.735C176.582 214.865 177.805 214.005 179.038 213.139C179.533 212.791 180.029 212.443 180.515 212.092C181.469 211.403 182.374 210.663 183.228 209.962L183.311 209.893C184.137 209.215 184.914 208.578 185.652 208.05C186.415 207.505 187.122 207.089 187.782 206.871C188.415 206.661 188.993 206.638 189.535 206.848L189.538 206.851C189.56 206.88 189.588 206.92 189.624 206.968C189.695 207.066 189.791 207.199 189.905 207.358C190.134 207.675 190.433 208.092 190.74 208.521C190.955 208.822 191.175 209.13 191.378 209.414C191.754 209.939 192.071 210.383 192.195 210.554C193.063 211.757 192.989 213.53 192.066 215.475C191.147 217.411 189.408 219.462 187.06 221.157C184.712 222.853 182.218 223.858 180.091 224.121C177.955 224.385 176.249 223.898 175.38 222.695C175.108 222.319 174.496 221.441 173.949 220.656C173.676 220.263 173.42 219.894 173.233 219.624L173.009 219.3L172.976 219.254Z" fill="#35CB8C" stroke="black" stroke-width="0.464336"/>
<path d="M178.141 208.712C180.489 207.017 182.983 206.012 185.11 205.748C187.246 205.484 188.952 205.971 189.821 207.174C190.69 208.377 190.615 210.15 189.692 212.095C188.774 214.031 187.035 216.082 184.687 217.777C182.339 219.473 179.844 220.478 177.718 220.741C175.582 221.005 173.875 220.518 173.007 219.315C172.138 218.112 172.212 216.339 173.135 214.395C174.054 212.459 175.793 210.408 178.141 208.712Z" fill="white" stroke="black" stroke-width="0.464336"/>
<g filter="url(#filter5_i_12234_32626)">
<ellipse cx="181.355" cy="213.163" rx="4.18152" ry="8.30692" transform="rotate(-125.831 181.355 213.163)" fill="white"/>
</g>
<path d="M179.043 209.961C180.88 208.635 182.804 207.816 184.423 207.556C186.057 207.294 187.304 207.609 187.901 208.436C188.499 209.263 188.405 210.546 187.642 212.014C186.886 213.469 185.503 215.038 183.667 216.365C181.83 217.691 179.906 218.51 178.287 218.769C176.653 219.031 175.405 218.717 174.808 217.89C174.211 217.063 174.305 215.78 175.068 214.311C175.823 212.856 177.206 211.287 179.043 209.961Z" stroke="black" stroke-width="0.464336"/>
<path d="M149.174 109.819C144.501 121.892 131.516 128.092 120.188 123.707C108.859 119.322 103.433 105.995 108.107 93.9221C112.78 81.8494 125.765 75.6487 137.093 80.0338C148.422 84.4189 153.848 97.7463 149.174 109.819Z" fill="#6558FF" stroke="black" stroke-width="0.464336"/>
<path d="M145.958 108.341C141.284 120.414 128.299 126.614 116.971 122.229C105.643 117.844 100.217 104.517 104.89 92.4441C109.563 80.3714 122.548 74.1708 133.876 78.5559C145.205 82.9409 150.631 96.2683 145.958 108.341Z" fill="white" stroke="black" stroke-width="0.464336"/>
<g filter="url(#filter6_i_12234_32626)">
<ellipse cx="125.424" cy="100.393" rx="17.583" ry="18.687" transform="rotate(21.161 125.424 100.393)" fill="white"/>
</g>
<path d="M141.604 106.656C137.92 116.174 127.686 121.058 118.762 117.603C109.837 114.149 105.558 103.647 109.243 94.1291C112.927 84.6114 123.161 79.7277 132.086 83.1821C141.01 86.6366 145.289 97.1384 141.604 106.656Z" stroke="black" stroke-width="0.464336"/>
<path d="M119.142 99.0412L118.291 103.046L120.994 105.722L120.49 108.066L116.202 103.835L117.57 97.4783L119.142 99.0412ZM120.003 95.0382L119.501 97.3709L117.928 95.8065L118.43 93.4738L120.507 92.6946L122.089 94.2609L120.003 95.0382ZM124.708 94.8242L126.785 94.045L128.367 95.6113L126.281 96.3886L124.708 94.8242Z" fill="#F0B90B" stroke="black" stroke-width="0.4"/>
<path d="M119.778 102.498L120.282 100.155L121.855 101.719L121.353 104.052L119.778 102.498ZM122.122 106.843L123.695 108.407L125.781 107.63L125.279 109.963L123.193 110.74L121.62 109.176L122.122 106.843ZM130.984 96.1743L133.061 95.3951L134.643 96.9614L134.141 99.2941L132.055 100.071L132.557 97.7387L130.984 96.1743ZM130.835 105.745L131.706 101.744L133.783 100.965L132.415 107.321L126.767 109.415L127.272 107.071L130.835 105.745Z" fill="#F0B90B" stroke="black" stroke-width="0.4"/>
<path d="M129.705 104.634L127.63 105.402L128.132 103.069L130.209 102.29L129.705 104.634Z" fill="#F0B90B" stroke="black" stroke-width="0.4"/>
<path d="M131.07 98.2869L130.575 100.633L127.002 101.958L126.139 105.971L124.064 106.739L122.489 105.186L123.352 101.173L120.64 98.4954L121.144 96.1518L123.229 95.3743L125.92 98.0575L129.495 96.7223L131.07 98.2869ZM122.004 92.1498L127.645 90.0431L131.93 94.2851L129.853 95.0643L127.143 92.377L123.577 93.7142L122.004 92.1498Z" fill="#F0B90B" stroke="black" stroke-width="0.4"/>
<path d="M187.249 97.4264L187.293 97.3924L187.316 97.3425C189.011 93.7417 187.32 89.6924 184.39 85.2526C182.968 83.0983 181.238 80.8286 179.423 78.4473C179.359 78.3635 179.295 78.2795 179.231 78.1954C177.344 75.7196 175.372 73.1214 173.551 70.3929C172.631 69.0137 171.712 67.597 170.792 66.1785C168.477 62.6086 166.154 59.0278 163.786 56.0076C162.129 53.8951 160.441 52.0456 158.707 50.6571C156.972 49.2687 155.179 48.332 153.312 48.0638L153.227 48.0515L153.154 48.0979L153.279 48.2936C153.154 48.0979 153.154 48.0979 153.154 48.098L153.154 48.0981L153.153 48.0989L153.148 48.1017L153.131 48.1128L153.063 48.1562L152.803 48.3223C152.578 48.4661 152.255 48.6731 151.859 48.9263C151.068 49.4325 149.991 50.1228 148.844 50.8593C146.551 52.3316 143.98 53.9901 142.872 54.7295C138.958 57.3408 137.356 62.5268 137.856 68.7207C138.358 74.9234 140.968 82.194 145.557 89.0716C150.146 95.9491 155.857 101.15 161.392 103.995C166.919 106.835 172.323 107.346 176.237 104.735C176.735 104.403 178.03 103.547 179.564 102.534C180.394 101.985 181.294 101.391 182.176 100.808C183.432 99.9776 184.652 99.17 185.58 98.5524C186.501 97.9399 187.15 97.5044 187.249 97.4264Z" fill="#6558FF" stroke="black" stroke-width="0.464336"/>
<mask id="mask4_12234_32626" style="mask-type:alpha" maskUnits="userSpaceOnUse" x="137" y="48" width="51" height="59">
<path d="M153.238 48.3966C154.967 48.6679 156.66 49.5514 158.331 50.8918C160.03 52.2539 161.696 54.0785 163.346 56.1833C165.707 59.1951 168.018 62.7579 170.336 66.3306C171.261 67.7572 172.187 69.1853 173.118 70.5806C174.953 73.3307 176.939 75.9474 178.83 78.4294C178.893 78.5118 178.955 78.5939 179.018 78.6759C180.841 81.0694 182.567 83.3346 183.984 85.4815C186.913 89.9194 188.452 93.7529 186.921 97.0919C186.75 97.2132 186.162 97.608 185.323 98.1658C184.395 98.783 183.176 99.5902 181.92 100.421C181.04 101.003 180.141 101.596 179.312 102.144C177.776 103.159 176.478 104.016 175.979 104.349C172.269 106.824 167.06 106.38 161.591 103.561C156.13 100.747 150.463 95.5877 145.896 88.7438C141.33 81.9 138.742 74.6864 138.24 68.5635C137.737 62.4316 139.326 57.451 143.036 54.9758C144.14 54.2392 146.708 52.5833 149.002 51.1102C150.148 50.374 151.226 49.6839 152.016 49.1778C152.412 48.9247 152.736 48.7177 152.96 48.574L153.22 48.4079L153.238 48.3966Z" fill="#6558FF" stroke="black" stroke-width="0.464336"/>
</mask>
<g mask="url(#mask4_12234_32626)">
<path d="M144.564 96.2978L162.638 83.5026L193.986 94.6984L181.99 106.374L166.316 109.253L144.564 96.2978Z" fill="#4C42C5"/>
<path d="M150.846 99.7446L165.105 89.887L163.795 86.8418L149.494 96.6043L150.846 99.7446Z" fill="#6558FF"/>
</g>
<path d="M183.507 63.923C188.12 70.8374 190.751 78.115 191.284 84.2842C191.817 90.463 190.246 95.4709 186.537 97.9455C182.828 100.42 177.601 99.9486 172.1 97.0839C166.608 94.2236 160.898 89.0006 156.285 82.0862C151.671 75.1718 149.041 67.8943 148.508 61.725C147.974 55.5462 149.546 50.5384 153.255 48.0638C156.964 45.5892 162.191 46.0606 167.691 48.9254C173.183 51.7857 178.893 57.0086 183.507 63.923Z" fill="white" stroke="black" stroke-width="0.464336"/>
<g filter="url(#filter7_i_12234_32626)">
<ellipse cx="170.136" cy="72.8447" rx="11.917" ry="23.6741" transform="rotate(-33.7123 170.136 72.8447)" fill="white"/>
</g>
<path d="M179.856 66.3594C183.468 71.7738 185.627 77.4034 186.206 82.121C186.786 86.8536 185.772 90.5927 183.146 92.3445C180.521 94.0964 176.679 93.5976 172.532 91.2448C168.398 88.8994 164.028 84.7445 160.416 79.3301C156.803 73.9157 154.644 68.286 154.065 63.5684C153.485 58.8358 154.499 55.0967 157.125 53.3449C159.75 51.5931 163.592 52.0919 167.739 54.4447C171.874 56.7901 176.243 60.945 179.856 66.3594Z" stroke="black" stroke-width="0.464336"/>
<path fill-rule="evenodd" clip-rule="evenodd" d="M173.431 80.3369C172.683 80.8261 172.708 82.1863 173.486 83.375C174.264 84.5637 175.501 85.1307 176.248 84.6415C176.996 84.1522 176.971 82.792 176.193 81.6034C175.415 80.4147 174.178 79.8476 173.431 80.3369ZM163.264 78.1419C161.681 75.7236 161.631 72.9563 163.151 71.9609C164.672 70.9656 167.188 72.1192 168.771 74.5376C170.354 76.9559 170.404 79.7233 168.883 80.7186C167.362 81.7139 164.846 80.5603 163.264 78.1419ZM162.557 66.6773C161.779 65.4886 161.754 64.1284 162.502 63.6392C163.249 63.15 164.486 63.717 165.264 64.9057C166.042 66.0944 166.067 67.4546 165.319 67.9438C164.572 68.433 163.335 67.866 162.557 66.6773ZM180.264 75.6527C179.567 73.7231 177.769 72.1972 176.306 72.2536C175.339 72.3036 174.738 73.0149 174.662 74.0713C174.537 74.9486 174.028 75.5465 173.178 75.5725C172.636 75.6095 172.065 75.3999 171.515 75.0178L171.443 74.9589C171.204 74.7973 170.919 74.6663 170.683 74.7143C170.093 74.7294 169.846 75.4212 170.143 76.1808C170.417 76.9557 171.16 77.5822 171.726 77.53C171.986 77.5191 172.172 77.3969 172.286 77.1634C172.538 76.7335 172.958 76.4586 173.501 76.4216C174.303 76.3738 175.185 76.8563 175.907 77.6029L175.979 77.6619C176.003 77.699 176.028 77.7361 176.051 77.7208L176.099 77.795C176.943 78.7271 177.969 79.3276 178.889 79.2558C180.376 79.2364 181.007 77.604 180.264 75.6527ZM173.879 68.5445C174.516 67.2264 173.838 64.9673 172.348 63.557C170.834 62.1097 169.109 62.0198 168.496 63.375C168.062 64.189 168.202 65.3698 168.718 66.5158L168.767 66.59C168.743 66.6052 168.768 66.6423 168.792 66.6795L168.817 66.7689C169.213 67.7294 169.302 68.7312 168.937 69.447C168.686 69.9292 168.266 70.2042 167.771 70.263C167.511 70.2738 167.325 70.396 167.211 70.6295C166.936 71.1271 167.213 72.0591 167.814 72.6201C168.391 73.1965 169.124 73.2468 169.374 72.7121C169.512 72.5157 169.506 72.2015 169.454 71.9177L169.429 71.8282C169.299 71.1712 169.335 70.5645 169.586 70.0822C169.95 69.314 170.701 69.0872 171.556 69.3231C172.554 69.6769 173.446 69.4108 173.879 68.5445Z" fill="#6558FF"/>
<path d="M176.306 72.2536L176.298 72.0537L176.296 72.0538L176.306 72.2536ZM180.264 75.6527L180.076 75.7206L180.077 75.7239L180.264 75.6527ZM174.662 74.0713L174.86 74.0997L174.861 74.0926L174.862 74.0855L174.662 74.0713ZM173.178 75.5725L173.172 75.3725L173.165 75.373L173.178 75.5725ZM171.515 75.0178L171.389 75.1725L171.395 75.1775L171.401 75.1821L171.515 75.0178ZM171.443 74.9589L171.57 74.8042L171.563 74.7983L171.555 74.7932L171.443 74.9589ZM170.683 74.7143L170.688 74.9142L170.706 74.9137L170.723 74.9102L170.683 74.7143ZM170.143 76.1808L170.332 76.1141L170.33 76.1079L170.143 76.1808ZM171.726 77.53L171.718 77.3299L171.708 77.3308L171.726 77.53ZM172.286 77.1634L172.114 77.0623L172.11 77.0689L172.106 77.0758L172.286 77.1634ZM173.501 76.4216L173.489 76.222L173.487 76.2221L173.501 76.4216ZM175.907 77.6029L175.763 77.7419L175.771 77.7503L175.78 77.7576L175.907 77.6029ZM175.979 77.6619L176.146 77.5523L176.129 77.5266L176.106 77.5072L175.979 77.6619ZM176.051 77.7208L176.218 77.6113L176.109 77.4439L175.941 77.5535L176.051 77.7208ZM176.099 77.795L175.932 77.9045L175.941 77.9176L175.951 77.9292L176.099 77.795ZM178.889 79.2558L178.886 79.0553L178.873 79.0564L178.889 79.2558ZM172.348 63.557L172.21 63.7016L172.211 63.7023L172.348 63.557ZM173.879 68.5445L174.058 68.6339L174.059 68.6315L173.879 68.5445ZM168.496 63.375L168.673 63.4693L168.678 63.4574L168.496 63.375ZM168.718 66.5158L168.536 66.598L168.542 66.6122L168.551 66.6253L168.718 66.5158ZM168.767 66.59L168.876 66.7573L169.044 66.6478L168.934 66.4804L168.767 66.59ZM168.792 66.6795L168.985 66.6252L168.976 66.5956L168.959 66.5699L168.792 66.6795ZM168.817 66.7689L168.625 66.8232L168.628 66.8344L168.632 66.8451L168.817 66.7689ZM168.937 69.447L169.114 69.5393L169.115 69.5378L168.937 69.447ZM167.771 70.263L167.779 70.4628L167.787 70.4625L167.794 70.4616L167.771 70.263ZM167.211 70.6295L167.386 70.7262L167.391 70.7172L167.211 70.6295ZM167.814 72.6201L167.955 72.4785L167.95 72.474L167.814 72.6201ZM169.374 72.7121L169.21 72.5971L169.2 72.6115L169.193 72.6274L169.374 72.7121ZM169.454 71.9177L169.651 71.8814L169.649 71.8723L169.646 71.8634L169.454 71.9177ZM169.429 71.8282L169.232 71.867L169.234 71.8749L169.236 71.8825L169.429 71.8282ZM169.586 70.0822L169.763 70.1746L169.767 70.1678L169.586 70.0822ZM171.556 69.3231L171.622 69.1346L171.616 69.1322L171.609 69.1303L171.556 69.3231ZM173.653 83.2655C173.282 82.6977 173.096 82.0966 173.086 81.59C173.077 81.0803 173.245 80.6978 173.54 80.5042L173.321 80.1695C172.87 80.4652 172.676 81.0074 172.686 81.5973C172.697 82.1903 172.912 82.8636 173.319 83.4845L173.653 83.2655ZM176.139 84.4741C175.843 84.6677 175.425 84.6681 174.962 84.4556C174.501 84.2445 174.025 83.8333 173.653 83.2655L173.319 83.4845C173.725 84.1054 174.256 84.572 174.795 84.8192C175.331 85.0651 175.906 85.1045 176.358 84.8088L176.139 84.4741ZM176.026 81.7129C176.397 82.2807 176.584 82.8818 176.593 83.3883C176.602 83.8981 176.434 84.2806 176.139 84.4741L176.358 84.8088C176.809 84.5131 177.003 83.9709 176.993 83.3811C176.982 82.7881 176.767 82.1147 176.36 81.4938L176.026 81.7129ZM173.54 80.5042C173.836 80.3107 174.254 80.3102 174.717 80.5227C175.178 80.7339 175.654 81.1451 176.026 81.7129L176.36 81.4938C175.954 80.873 175.423 80.4063 174.884 80.1591C174.348 79.9132 173.773 79.8738 173.321 80.1695L173.54 80.5042ZM163.042 71.7936C162.203 72.3423 161.823 73.3628 161.844 74.5214C161.865 75.6832 162.287 77.0157 163.096 78.2515L163.431 78.0324C162.657 76.8498 162.263 75.5895 162.244 74.5142C162.224 73.4357 162.579 72.5749 163.261 72.1283L163.042 71.7936ZM168.938 74.4281C168.129 73.1923 167.077 72.2716 166.021 71.7873C164.968 71.3044 163.88 71.2449 163.042 71.7936L163.261 72.1283C163.943 71.6817 164.874 71.7014 165.855 72.1509C166.832 72.5992 167.829 73.4645 168.603 74.6471L168.938 74.4281ZM168.993 80.8859C169.831 80.3372 170.212 79.3167 170.191 78.1581C170.17 76.9963 169.747 75.6638 168.938 74.4281L168.603 74.6471C169.378 75.8297 169.771 77.09 169.791 78.1653C169.81 79.2438 169.456 80.1046 168.773 80.5512L168.993 80.8859ZM163.096 78.2515C163.905 79.4872 164.957 80.4079 166.013 80.8922C167.067 81.3752 168.154 81.4346 168.993 80.8859L168.773 80.5512C168.091 80.9978 167.16 80.9782 166.18 80.5286C165.202 80.0803 164.205 79.2151 163.431 78.0324L163.096 78.2515ZM162.392 63.4718C161.941 63.7675 161.747 64.3097 161.757 64.8996C161.768 65.4926 161.983 66.166 162.39 66.7868L162.724 66.5678C162.353 66 162.167 65.3989 162.157 64.8923C162.148 64.3826 162.316 64.0001 162.611 63.8065L162.392 63.4718ZM165.431 64.7962C165.025 64.1753 164.494 63.7086 163.955 63.4614C163.419 63.2155 162.844 63.1762 162.392 63.4718L162.611 63.8065C162.907 63.613 163.325 63.6125 163.788 63.825C164.249 64.0362 164.725 64.4474 165.097 65.0152L165.431 64.7962ZM165.429 68.1111C165.88 67.8155 166.074 67.2733 166.064 66.6834C166.053 66.0904 165.838 65.417 165.431 64.7962L165.097 65.0152C165.468 65.583 165.655 66.1841 165.664 66.6907C165.673 67.2004 165.505 67.5829 165.21 67.7764L165.429 68.1111ZM162.39 66.7868C162.796 67.4077 163.327 67.8744 163.866 68.1216C164.402 68.3675 164.977 68.4068 165.429 68.1111L165.21 67.7764C164.914 67.97 164.496 67.9705 164.033 67.758C163.572 67.5468 163.096 67.1356 162.724 66.5678L162.39 66.7868ZM176.314 72.4534C176.976 72.4279 177.744 72.7631 178.442 73.3604C179.137 73.9546 179.74 74.7899 180.076 75.7206L180.452 75.5848C180.091 74.5859 179.447 73.6935 178.702 73.0564C177.961 72.4224 177.098 72.0229 176.298 72.0537L176.314 72.4534ZM174.862 74.0855C174.897 73.5908 175.054 73.1939 175.299 72.9178C175.542 72.6443 175.883 72.4757 176.316 72.4533L176.296 72.0538C175.762 72.0814 175.318 72.2935 175 72.6523C174.684 73.0085 174.503 73.4955 174.463 74.0571L174.862 74.0855ZM173.184 75.7724C173.659 75.7579 174.049 75.5819 174.337 75.2789C174.621 74.979 174.793 74.568 174.86 74.0997L174.464 74.0429C174.406 74.4519 174.26 74.7785 174.047 75.0035C173.836 75.2253 173.548 75.3611 173.172 75.3726L173.184 75.7724ZM171.401 75.1821C171.973 75.5795 172.589 75.8132 173.192 75.7721L173.165 75.373C172.683 75.4058 172.157 75.2202 171.629 74.8535L171.401 75.1821ZM171.317 75.1135L171.389 75.1725L171.642 74.8631L171.57 74.8042L171.317 75.1135ZM170.723 74.9102C170.792 74.8963 170.883 74.9061 170.994 74.9462C171.104 74.9858 171.221 75.0496 171.331 75.1246L171.555 74.7932C171.427 74.7065 171.281 74.6241 171.13 74.5698C170.98 74.516 170.81 74.4843 170.643 74.5183L170.723 74.9102ZM170.33 76.1079C170.194 75.7614 170.191 75.4501 170.268 75.2369C170.343 75.0327 170.487 74.9194 170.688 74.9142L170.678 74.5143C170.289 74.5243 170.015 74.7644 169.893 75.0998C169.774 75.4262 169.795 75.8406 169.957 76.2537L170.33 76.1079ZM171.708 77.3308C171.501 77.3499 171.225 77.243 170.955 77.0131C170.689 76.7875 170.456 76.4661 170.332 76.1142L169.955 76.2474C170.104 76.6703 170.38 77.0497 170.696 77.318C171.007 77.582 171.386 77.7622 171.745 77.7291L171.708 77.3308ZM172.106 77.0758C172.063 77.1655 172.01 77.2245 171.951 77.2628C171.893 77.3011 171.818 77.326 171.718 77.3301L171.735 77.7298C171.894 77.7231 172.042 77.6814 172.17 77.5975C172.299 77.5136 172.396 77.3948 172.466 77.2511L172.106 77.0758ZM173.487 76.2221C172.878 76.2636 172.399 76.5759 172.114 77.0623L172.459 77.2645C172.678 76.8912 173.038 76.6536 173.514 76.6212L173.487 76.2221ZM176.051 77.4639C175.31 76.6979 174.374 76.1691 173.489 76.222L173.513 76.6213C174.231 76.5784 175.06 77.0147 175.763 77.7419L176.051 77.4639ZM176.106 77.5072L176.034 77.4482L175.78 77.7576L175.852 77.8165L176.106 77.5072ZM175.941 77.5535C175.961 77.5404 175.987 77.5296 176.017 77.5258C176.047 77.522 176.073 77.5261 176.094 77.5329C176.132 77.5451 176.153 77.5661 176.157 77.5694C176.162 77.5748 176.163 77.5773 176.16 77.5724C176.157 77.568 176.153 77.5624 176.146 77.5523L175.812 77.7714C175.82 77.7836 175.844 77.8226 175.874 77.8525C175.889 77.8678 175.922 77.8976 175.972 77.9136C176.033 77.9334 176.102 77.9263 176.16 77.8881L175.941 77.5535ZM176.267 77.6855L176.218 77.6113L175.884 77.8303L175.932 77.9045L176.267 77.6855ZM178.873 79.0564C178.046 79.121 177.075 78.5757 176.248 77.6608L175.951 77.9292C176.81 78.8786 177.892 79.5342 178.904 79.4551L178.873 79.0564ZM180.077 75.7239C180.437 76.6686 180.454 77.5117 180.226 78.1072C180.002 78.6908 179.542 79.0473 178.886 79.0558L178.891 79.4557C179.723 79.4449 180.322 78.9755 180.6 78.2503C180.873 77.5368 180.834 76.5881 180.451 75.5814L180.077 75.7239ZM172.211 63.7023C172.929 64.3824 173.453 65.2694 173.72 66.1436C173.988 67.0224 173.988 67.8602 173.699 68.4574L174.059 68.6315C174.408 67.9106 174.387 66.9598 174.103 66.027C173.817 65.0896 173.257 64.1418 172.486 63.4118L172.211 63.7023ZM168.678 63.4574C168.949 62.8597 169.454 62.5845 170.074 62.6148C170.709 62.6457 171.476 62.9995 172.21 63.7016L172.486 63.4125C171.707 62.6671 170.854 62.2523 170.094 62.2153C169.32 62.1776 168.656 62.5351 168.314 63.2926L168.678 63.4574ZM168.901 66.4335C168.393 65.3088 168.282 64.2015 168.672 63.4691L168.319 63.2809C167.842 64.1765 168.01 65.4308 168.536 66.598L168.901 66.4335ZM168.934 66.4804L168.886 66.4062L168.551 66.6253L168.599 66.6995L168.934 66.4804ZM168.959 66.5699C168.953 66.5599 168.949 66.5542 168.946 66.5495C168.943 66.5444 168.945 66.5466 168.948 66.5537C168.95 66.558 168.96 66.5855 168.956 66.6252C168.954 66.6473 168.947 66.6734 168.932 66.6992C168.916 66.7252 168.896 66.7443 168.876 66.7573L168.657 66.4226C168.599 66.4607 168.565 66.5211 168.559 66.5851C168.553 66.6372 168.567 66.6792 168.575 66.6994C168.591 66.7388 168.617 66.7767 168.625 66.789L168.959 66.5699ZM169.01 66.7147L168.985 66.6252L168.6 66.7337L168.625 66.8232L169.01 66.7147ZM169.115 69.5378C169.518 68.7473 169.408 67.6781 169.002 66.6928L168.632 66.8451C169.017 67.7806 169.085 68.715 168.759 69.3561L169.115 69.5378ZM167.794 70.4616C168.354 70.395 168.832 70.0808 169.114 69.5393L168.759 69.3546C168.539 69.7777 168.177 70.0133 167.747 70.0644L167.794 70.4616ZM167.391 70.7172C167.434 70.6274 167.487 70.5684 167.546 70.5301C167.604 70.4918 167.68 70.467 167.779 70.4628L167.763 70.0631C167.603 70.0698 167.455 70.1115 167.327 70.1954C167.199 70.2793 167.101 70.3981 167.031 70.5419L167.391 70.7172ZM167.95 72.474C167.677 72.2192 167.476 71.8771 167.376 71.5434C167.273 71.2033 167.286 70.9082 167.386 70.7261L167.036 70.533C166.862 70.8484 166.875 71.2681 166.993 71.6587C167.112 72.0556 167.349 72.4601 167.677 72.7663L167.95 72.474ZM169.193 72.6274C169.107 72.8098 168.946 72.8966 168.729 72.8831C168.502 72.8691 168.218 72.7415 167.955 72.4786L167.672 72.7617C167.986 73.0751 168.357 73.2608 168.704 73.2824C169.06 73.3045 169.39 73.1492 169.555 72.7969L169.193 72.6274ZM169.257 71.954C169.281 72.0856 169.294 72.2176 169.286 72.3343C169.278 72.4528 169.25 72.5399 169.21 72.5971L169.537 72.8272C169.635 72.6879 169.674 72.5198 169.685 72.3611C169.696 72.2006 169.679 72.0335 169.651 71.8814L169.257 71.954ZM169.236 71.8825L169.261 71.972L169.646 71.8634L169.621 71.7739L169.236 71.8825ZM169.408 69.9899C169.129 70.5263 169.097 71.1836 169.232 71.867L169.625 71.7894C169.5 71.1589 169.54 70.6027 169.763 70.1746L169.408 69.9899ZM171.609 69.1303C171.153 69.0044 170.707 68.9973 170.319 69.1381C169.926 69.2804 169.608 69.5679 169.405 69.9966L169.767 70.1678C169.927 69.8284 170.167 69.6184 170.455 69.5142C170.746 69.4085 171.104 69.4059 171.502 69.5159L171.609 69.1303ZM173.7 68.4551C173.506 68.8435 173.215 69.0882 172.867 69.2011C172.516 69.3152 172.09 69.3003 171.622 69.1346L171.489 69.5116C172.019 69.6997 172.538 69.7287 172.991 69.5816C173.447 69.4334 173.819 69.1118 174.058 68.6339L173.7 68.4551Z" fill="black"/>
<path d="M71.6794 122.578C63.4726 111.563 72.2193 103.411 77.6185 100.711C70.7075 107.082 74.7389 113.984 77.6185 116.639L71.6794 122.578Z" fill="#FE6C6E" stroke="black" stroke-width="0.4"/>
<path d="M270.279 116.785C274.658 115.782 280.515 108.09 278.652 100.732L284.595 104.078C285.516 105.549 285.543 115.985 275.931 119.936L270.279 116.785Z" fill="#724FEB" stroke="black" stroke-width="0.41037"/>
<path d="M59.8814 72.2521C62.6131 73.0636 68.2479 70.641 69.5139 65.9953L71.7533 69.6974C71.8033 70.7973 68.563 76.5711 62.0207 75.7551L59.8814 72.2521Z" fill="#FFE04A" stroke="black" stroke-width="0.4"/>
<path d="M110.28 49.1611L111.374 52.1151L114.328 53.2082L111.374 54.3013L110.28 57.2553L109.187 54.3013L106.233 53.2082L109.187 52.1151L110.28 49.1611Z" fill="#8388F9" stroke="black" stroke-width="0.4"/>
<path d="M257.067 135.289L258.16 138.243L261.114 139.336L258.16 140.429L257.067 143.383L255.974 140.429L253.02 139.336L255.974 138.243L257.067 135.289Z" fill="#1EF5CF" stroke="black" stroke-width="0.4"/>
<defs>
<filter id="filter0_i_12234_32626" x="154.214" y="112.28" width="28.0166" height="28.6374" filterUnits="userSpaceOnUse" color-interpolation-filters="sRGB">
<feFlood flood-opacity="0" result="BackgroundImageFix"/>
<feBlend mode="normal" in="SourceGraphic" in2="BackgroundImageFix" result="shape"/>
<feColorMatrix in="SourceAlpha" type="matrix" values="0 0 0 0 0 0 0 0 0 0 0 0 0 0 0 0 0 0 127 0" result="hardAlpha"/>
<feOffset dx="-0.585064" dy="1.94093"/>
<feComposite in2="hardAlpha" operator="arithmetic" k2="-1" k3="1"/>
<feColorMatrix type="matrix" values="0 0 0 0 0 0 0 0 0 0 0 0 0 0 0 0 0 0 1 0"/>
<feBlend mode="normal" in2="shape" result="effect1_innerShadow_12234_32626"/>
</filter>
<filter id="filter1_i_12234_32626" x="173.033" y="115.1" width="22.4092" height="24.0066" filterUnits="userSpaceOnUse" color-interpolation-filters="sRGB">
<feFlood flood-opacity="0" result="BackgroundImageFix"/>
<feBlend mode="normal" in="SourceGraphic" in2="BackgroundImageFix" result="shape"/>
<feColorMatrix in="SourceAlpha" type="matrix" values="0 0 0 0 0 0 0 0 0 0 0 0 0 0 0 0 0 0 127 0" result="hardAlpha"/>
<feOffset dx="-0.585064" dy="1.94093"/>
<feComposite in2="hardAlpha" operator="arithmetic" k2="-1" k3="1"/>
<feColorMatrix type="matrix" values="0 0 0 0 0 0 0 0 0 0 0 0 0 0 0 0 0 0 1 0"/>
<feBlend mode="normal" in2="shape" result="effect1_innerShadow_12234_32626"/>
</filter>
<filter id="filter2_i_12234_32626" x="137.664" y="102.702" width="25.2749" height="31.9194" filterUnits="userSpaceOnUse" color-interpolation-filters="sRGB">
<feFlood flood-opacity="0" result="BackgroundImageFix"/>
<feBlend mode="normal" in="SourceGraphic" in2="BackgroundImageFix" result="shape"/>
<feColorMatrix in="SourceAlpha" type="matrix" values="0 0 0 0 0 0 0 0 0 0 0 0 0 0 0 0 0 0 127 0" result="hardAlpha"/>
<feOffset dx="-0.585063" dy="1.94092"/>
<feComposite in2="hardAlpha" operator="arithmetic" k2="-1" k3="1"/>
<feColorMatrix type="matrix" values="0 0 0 0 0 0 0 0 0 0 0 0 0 0 0 0 0 0 1 0"/>
<feBlend mode="normal" in2="shape" result="effect1_innerShadow_12234_32626"/>
</filter>
<filter id="filter3_i_12234_32626" x="191.067" y="95.0464" width="31.7305" height="18.8971" filterUnits="userSpaceOnUse" color-interpolation-filters="sRGB">
<feFlood flood-opacity="0" result="BackgroundImageFix"/>
<feBlend mode="normal" in="SourceGraphic" in2="BackgroundImageFix" result="shape"/>
<feColorMatrix in="SourceAlpha" type="matrix" values="0 0 0 0 0 0 0 0 0 0 0 0 0 0 0 0 0 0 127 0" result="hardAlpha"/>
<feOffset dx="-0.585064" dy="1.94093"/>
<feComposite in2="hardAlpha" operator="arithmetic" k2="-1" k3="1"/>
<feColorMatrix type="matrix" values="0 0 0 0 0 0 0 0 0 0 0 0 0 0 0 0 0 0 1 0"/>
<feBlend mode="normal" in2="shape" result="effect1_innerShadow_12234_32626"/>
</filter>
<filter id="filter4_i_12234_32626" x="190.512" y="199.237" width="22.9282" height="18.0798" filterUnits="userSpaceOnUse" color-interpolation-filters="sRGB">
<feFlood flood-opacity="0" result="BackgroundImageFix"/>
<feBlend mode="normal" in="SourceGraphic" in2="BackgroundImageFix" result="shape"/>
<feColorMatrix in="SourceAlpha" type="matrix" values="0 0 0 0 0 0 0 0 0 0 0 0 0 0 0 0 0 0 127 0" result="hardAlpha"/>
<feOffset dx="-0.585064" dy="1.94093"/>
<feComposite in2="hardAlpha" operator="arithmetic" k2="-1" k3="1"/>
<feColorMatrix type="matrix" values="0 0 0 0 0 0 0 0 0 0 0 0 0 0 0 0 0 0 1 0"/>
<feBlend mode="normal" in2="shape" result="effect1_innerShadow_12234_32626"/>
</filter>
<filter id="filter5_i_12234_32626" x="174.187" y="207.234" width="14.3354" height="11.857" filterUnits="userSpaceOnUse" color-interpolation-filters="sRGB">
<feFlood flood-opacity="0" result="BackgroundImageFix"/>
<feBlend mode="normal" in="SourceGraphic" in2="BackgroundImageFix" result="shape"/>
<feColorMatrix in="SourceAlpha" type="matrix" values="0 0 0 0 0 0 0 0 0 0 0 0 0 0 0 0 0 0 127 0" result="hardAlpha"/>
<feOffset dx="-0.585064" dy="1.94093"/>
<feComposite in2="hardAlpha" operator="arithmetic" k2="-1" k3="1"/>
<feColorMatrix type="matrix" values="0 0 0 0 0 0 0 0 0 0 0 0 0 0 0 0 0 0 1 0"/>
<feBlend mode="normal" in2="shape" result="effect1_innerShadow_12234_32626"/>
</filter>
<filter id="filter6_i_12234_32626" x="107.688" y="81.8406" width="35.4712" height="37.1039" filterUnits="userSpaceOnUse" color-interpolation-filters="sRGB">
<feFlood flood-opacity="0" result="BackgroundImageFix"/>
<feBlend mode="normal" in="SourceGraphic" in2="BackgroundImageFix" result="shape"/>
<feColorMatrix in="SourceAlpha" type="matrix" values="0 0 0 0 0 0 0 0 0 0 0 0 0 0 0 0 0 0 127 0" result="hardAlpha"/>
<feOffset dx="-0.585064" dy="1.94093"/>
<feComposite in2="hardAlpha" operator="arithmetic" k2="-1" k3="1"/>
<feColorMatrix type="matrix" values="0 0 0 0 0 0 0 0 0 0 0 0 0 0 0 0 0 0 1 0"/>
<feBlend mode="normal" in2="shape" result="effect1_innerShadow_12234_32626"/>
</filter>
<filter id="filter7_i_12234_32626" x="153.675" y="52.0651" width="32.9209" height="41.5593" filterUnits="userSpaceOnUse" color-interpolation-filters="sRGB">
<feFlood flood-opacity="0" result="BackgroundImageFix"/>
<feBlend mode="normal" in="SourceGraphic" in2="BackgroundImageFix" result="shape"/>
<feColorMatrix in="SourceAlpha" type="matrix" values="0 0 0 0 0 0 0 0 0 0 0 0 0 0 0 0 0 0 127 0" result="hardAlpha"/>
<feOffset dx="-0.585064" dy="1.94093"/>
<feComposite in2="hardAlpha" operator="arithmetic" k2="-1" k3="1"/>
<feColorMatrix type="matrix" values="0 0 0 0 0 0 0 0 0 0 0 0 0 0 0 0 0 0 1 0"/>
<feBlend mode="normal" in2="shape" result="effect1_innerShadow_12234_32626"/>
</filter>
</defs>
</svg>
