<svg width="48" height="48" viewBox="0 0 48 48" fill="none" xmlns="http://www.w3.org/2000/svg">
<path d="M10.0445 24C10.0445 22.4413 10.3106 20.9461 10.7813 19.5449L2.51729 13.3674C0.856917 16.6658 -0.00531582 20.3077 2.46576e-05 24C2.46576e-05 27.821 0.904603 31.4252 2.5132 34.6244L10.7731 28.4367C10.2915 27.007 10.0454 25.5086 10.0445 24Z" fill="#FBBC05"/>
<path d="M24.5588 9.81846C28.0174 9.81846 31.1425 11.0171 33.5984 12.9808L40.7429 5.99949C36.3899 2.29097 30.809 0 24.5588 0C14.854 0 6.51222 5.43084 2.51733 13.3674L10.7854 19.5449C12.6887 13.887 18.1162 9.81846 24.5588 9.81846Z" fill="#EA4335"/>
<path d="M24.5588 38.1815C18.1142 38.1815 12.6867 34.113 10.7813 28.4551L2.51733 34.6326C6.51017 42.5691 14.8519 48 24.5588 48C30.547 48 36.2651 45.9197 40.5588 42.0189L32.7123 36.0828C30.4999 37.4472 27.7125 38.1815 24.5567 38.1815" fill="#34A853"/>
<path d="M48 24C48 22.5824 47.7748 21.0544 47.4413 19.6369H24.5566V28.9092H37.7283C37.0713 32.0716 35.2786 34.5016 32.7142 36.0828L40.5587 42.0189C45.0672 37.9238 48 31.8241 48 24Z" fill="#4285F4"/>
</svg>
