<svg width="64" height="64" viewBox="0 0 64 64" fill="none" xmlns="http://www.w3.org/2000/svg">
<g clip-path="url(#clip0_3033_3652)">
<path d="M64 32C64 14.3269 49.6731 0 32 0C14.3269 0 0 14.3269 0 32C0 49.6731 14.3269 64 32 64C49.6731 64 64 49.6731 64 32Z" fill="#B8E1FF"/>
<path fill-rule="evenodd" clip-rule="evenodd" d="M23.5961 16.8C22.1147 16.8 20.9138 18.001 20.9138 19.4824V44.5177C20.9138 45.9991 22.1147 47.2001 23.5961 47.2001H40.4056C41.887 47.2001 43.0879 45.9991 43.0879 44.5177V19.4824C43.0879 18.001 41.887 16.8 40.4056 16.8H23.5961ZM23.5959 21.2766C23.5959 20.289 24.3965 19.4883 25.3842 19.4883H38.6171C39.6048 19.4883 40.4054 20.289 40.4054 21.2766V38.2587C40.4054 39.2463 39.6048 40.0469 38.6171 40.0469H25.3842C24.3965 40.0469 23.5959 39.2463 23.5959 38.2587V21.2766ZM29.766 43.1573C29.766 42.5153 30.2864 41.9949 30.9283 41.9949H33.0742C33.7162 41.9949 34.2366 42.5153 34.2366 43.1573C34.2366 43.7992 33.7162 44.3196 33.0742 44.3196H30.9283C30.2864 44.3196 29.766 43.7992 29.766 43.1573Z" fill="#0A4370"/>
</g>
<defs>
<clipPath id="clip0_3033_3652">
<rect width="64" height="64" rx="32" fill="white"/>
</clipPath>
</defs>
</svg>
