<svg width="64" height="64" viewBox="0 0 64 64" fill="none" xmlns="http://www.w3.org/2000/svg">
<path d="M32 0.75C49.2589 0.75 63.25 14.7411 63.25 32C63.25 49.2589 49.2589 63.25 32 63.25C14.7411 63.25 0.75 49.2589 0.75 32C0.75 14.7411 14.7411 0.75 32 0.75Z" fill="#F5F6F7" stroke="#EBEBEC" stroke-width="1.5"/>
<g clip-path="url(#clip0_3033_3667)">
<path d="M48.001 32.0002C48.001 40.8368 40.8375 48.0002 32.001 48.0002C23.1644 48.0002 16.001 40.8368 16.001 32.0002C16.001 23.1637 23.1644 16.0002 32.001 16.0002C40.8375 16.0002 48.001 23.1637 48.001 32.0002Z" fill="#4DA2E2"/>
<path d="M32.5745 27.8121C31.0182 28.4594 27.908 29.7991 23.2436 31.8313C22.4862 32.1325 22.0895 32.4272 22.0533 32.7153C21.9923 33.2022 22.6021 33.3939 23.4324 33.655L23.4324 33.655L23.4326 33.6551C23.5455 33.6906 23.6625 33.7274 23.7824 33.7663C24.5993 34.0319 25.6982 34.3426 26.2695 34.3549C26.7877 34.3661 27.3661 34.1525 28.0046 33.714C32.3627 30.7722 34.6123 29.2853 34.7535 29.2532C34.8532 29.2306 34.9913 29.2022 35.0848 29.2853C35.1784 29.3685 35.1692 29.526 35.1593 29.5682C35.0988 29.8257 32.7054 32.0509 31.4667 33.2025L31.4666 33.2026L31.4666 33.2026C31.0804 33.5616 30.8065 33.8162 30.7506 33.8744C30.6251 34.0047 30.4973 34.1279 30.3744 34.2463C29.6155 34.978 29.0463 35.5266 30.4059 36.4226C31.0593 36.8531 31.5821 37.2092 32.1037 37.5644L32.1037 37.5644C32.6734 37.9523 33.2415 38.3392 33.9766 38.8211C34.1639 38.9439 34.3428 39.0714 34.517 39.1956C35.1799 39.6682 35.7755 40.0928 36.5112 40.025C36.9388 39.9857 37.3804 39.5837 37.6047 38.3847C38.1347 35.5511 39.1766 29.4115 39.4174 26.8815C39.4385 26.6598 39.412 26.3762 39.3907 26.2516C39.3693 26.1271 39.3248 25.9497 39.1629 25.8183C38.9712 25.6628 38.6753 25.63 38.5429 25.6323C37.9411 25.6429 37.0179 25.964 32.5745 27.8121Z" fill="white"/>
</g>
<defs>
<clipPath id="clip0_3033_3667">
<rect width="32" height="32" fill="white" transform="translate(16.001 16.0002)"/>
</clipPath>
</defs>
</svg>
