<svg width="64" height="64" viewBox="0 0 64 64" fill="none" xmlns="http://www.w3.org/2000/svg">
<g clip-path="url(#clip0_3033_3647)">
<path d="M64 32C64 14.3269 49.6731 0 32 0C14.3269 0 0 14.3269 0 32C0 49.6731 14.3269 64 32 64C49.6731 64 64 49.6731 64 32Z" fill="#B8E1FF"/>
<path fill-rule="evenodd" clip-rule="evenodd" d="M17.05 22.3283C17.05 20.8021 18.2873 19.5648 19.8136 19.5648H44.6864C46.2127 19.5648 47.45 20.8021 47.45 22.3283V23.5481V41.673C47.45 43.1992 46.2127 44.4365 44.6864 44.4365H19.8136C18.2873 44.4365 17.05 43.1992 17.05 41.673V23.5481V22.3283ZM19.8136 26.5996V40.2912C19.8136 41.0543 20.4323 41.673 21.1954 41.673H43.3045C44.0677 41.673 44.6864 41.0543 44.6864 40.2912V26.5996L34.235 32.3001C32.9977 32.975 31.5023 32.975 30.265 32.3001L19.8136 26.5996Z" fill="#0A4370"/>
</g>
<defs>
<clipPath id="clip0_3033_3647">
<rect width="64" height="64" rx="32" fill="white"/>
</clipPath>
</defs>
</svg>
