<svg width="64" height="64" viewBox="0 0 64 64" fill="none" xmlns="http://www.w3.org/2000/svg">
<path d="M64 32C64 49.6731 49.6731 64 32 64C14.3269 64 0 49.6731 0 32C0 14.3269 14.3269 0 32 0C49.6731 0 64 14.3269 64 32Z" fill="#EBEBEC"/>
<path d="M63.1111 32C63.1111 49.1822 49.1822 63.1111 32 63.1111C14.8178 63.1111 0.888885 49.1822 0.888885 32C0.888885 14.8178 14.8178 0.888916 32 0.888916C49.1822 0.888916 63.1111 14.8178 63.1111 32Z" fill="#F9F9FA"/>
<path d="M40.7021 18H45.3006L35.2039 29.4576L47 45H37.7431L30.4955 35.555L22.1983 45H17.5998L28.2962 32.7454L17 18H26.4868L33.0347 26.628L40.7021 18ZM39.0926 42.31H41.6418L25.1473 20.5904H22.4082L39.0926 42.31Z" fill="black"/>
</svg>
