<svg width="64" height="64" viewBox="0 0 64 64" fill="none" xmlns="http://www.w3.org/2000/svg">
<path d="M64 32C64 49.6731 49.6731 64 32 64C14.3269 64 0 49.6731 0 32C0 14.3269 14.3269 0 32 0C49.6731 0 64 14.3269 64 32Z" fill="#EBEBEC"/>
<path d="M63.1111 32C63.1111 49.1822 49.1822 63.1111 32 63.1111C14.8178 63.1111 0.888885 49.1822 0.888885 32C0.888885 14.8178 14.8178 0.888916 32 0.888916C49.1822 0.888916 63.1111 14.8178 63.1111 32Z" fill="#F9F9FA"/>
<path d="M34.9584 34.1296V49.0371C32.7114 49.0371 30.1088 49.0371 28.2917 49.0371V34.1296H22.8751V27.963H28.2917V23.263C28.2917 17.9163 31.4766 14.963 36.3496 14.963C38.6837 14.963 41.125 15.3797 41.125 15.3797V20.6297H38.435C38.1037 20.6297 37.8009 20.6554 37.5247 20.7036C36.1845 20.9378 35.4692 21.7032 35.1564 22.6424C35.018 23.0583 34.9584 23.5082 34.9584 23.9612V27.963H40.875L39.9292 34.1296H34.9584Z" fill="#1877F2"/>
</svg>
