<svg width="64" height="64" viewBox="0 0 64 64" fill="none" xmlns="http://www.w3.org/2000/svg">
<path d="M32 0.75C49.2589 0.75 63.25 14.7411 63.25 32C63.25 49.2589 49.2589 63.25 32 63.25C14.7411 63.25 0.75 49.2589 0.75 32C0.75 14.7411 14.7411 0.75 32 0.75Z" fill="#F5F6F7" stroke="#EBEBEC" stroke-width="1.5"/>
<path d="M41.1426 32.9109C41.1272 30.2879 42.3156 28.311 44.7156 26.8534C43.3733 24.9304 41.3426 23.8727 38.6658 23.6689C36.1313 23.4689 33.3583 25.1458 32.343 25.1458C31.2699 25.1458 28.8162 23.7381 26.8855 23.7381C22.901 23.7997 18.6666 26.9149 18.6666 33.2532C18.6666 35.1262 19.0089 37.0607 19.6934 39.0529C20.6088 41.6759 23.9087 48.1026 27.3508 47.9987C29.1508 47.9564 30.4238 46.7219 32.766 46.7219C35.039 46.7219 36.2159 47.9987 38.2235 47.9987C41.6964 47.9487 44.6809 42.1067 45.5501 39.476C40.8926 37.2799 41.1426 33.0455 41.1426 32.9109Z" fill="black"/>
<path d="M37.1006 21.1806C39.0505 18.8653 38.8736 16.7577 38.8159 16C37.0929 16.1 35.1006 17.173 33.9661 18.4922C32.7161 19.9075 31.9815 21.6575 32.1392 23.6305C34.0007 23.7728 35.7006 22.8151 37.1006 21.1806Z" fill="black"/>
</svg>
