<svg width="64" height="64" viewBox="0 0 64 64" fill="none" xmlns="http://www.w3.org/2000/svg">
<path d="M32 0.75C49.2589 0.75 63.25 14.7411 63.25 32C63.25 49.2589 49.2589 63.25 32 63.25C14.7411 63.25 0.75 49.2589 0.75 32C0.75 14.7411 14.7411 0.75 32 0.75Z" fill="#F5F6F7" stroke="#EBEBEC" stroke-width="1.5"/>
<path d="M22.6964 32C22.6964 30.9609 22.8737 29.964 23.1875 29.0299L17.6782 24.9116C16.5713 27.1105 15.9965 29.5385 16 32C16 34.5473 16.6031 36.9501 17.6755 39.0829L23.1821 34.9578C22.861 34.0047 22.6969 33.0057 22.6964 32Z" fill="#FBBC05"/>
<path d="M32.3726 22.5456C34.6784 22.5456 36.7618 23.3448 38.399 24.6539L43.162 19.9997C40.26 17.5273 36.5394 16 32.3726 16C25.9027 16 20.3415 19.6206 17.6783 24.9116L23.1903 29.0299C24.4592 25.258 28.0775 22.5456 32.3726 22.5456Z" fill="#EA4335"/>
<path d="M32.3726 41.4544C28.0762 41.4544 24.4578 38.742 23.1876 34.9701L17.6783 39.0884C20.3402 44.3795 25.9014 48 32.3726 48C36.3647 48 40.1768 46.6132 43.0392 44.0126L37.8082 40.0552C36.3333 40.9648 34.4751 41.4544 32.3712 41.4544" fill="#34A853"/>
<path d="M48 32C48 31.055 47.85 30.0363 47.6276 29.0913H32.3712V35.2728H41.1523C40.7143 37.3811 39.5191 39.0011 37.8095 40.0553L43.0392 44.0126C46.0449 41.2826 48 37.2161 48 32Z" fill="#4285F4"/>
</svg>
