<svg width="20" height="20" viewBox="0 0 20 20" fill="none" xmlns="http://www.w3.org/2000/svg">
<path d="M2.96875 2.3125C2.96875 1.89829 3.30454 1.5625 3.71875 1.5625H16.2812C16.6955 1.5625 17.0312 1.89829 17.0312 2.3125V8.23979C17.0312 8.37786 16.9193 8.48979 16.7812 8.48979H15.7188C15.5807 8.48979 15.4688 8.37786 15.4688 8.23979V3.125H4.53125V16.875H7.875C8.01307 16.875 8.125 16.9869 8.125 17.125V18.1875C8.125 18.3256 8.01307 18.4375 7.875 18.4375H3.71875C3.30454 18.4375 2.96875 18.1017 2.96875 17.6875V2.3125ZM16.25 14.2081C16.25 12.5626 14.9161 11.2286 13.2706 11.2286C11.6251 11.2286 10.2911 12.5626 10.2911 14.2081C10.2911 15.8536 11.6251 17.1875 13.2706 17.1875C14.9161 17.1875 16.25 15.8536 16.25 14.2081ZM17.8125 14.2081C17.8125 16.7165 15.779 18.75 13.2706 18.75C10.7621 18.75 8.72864 16.7165 8.72864 14.2081C8.72864 11.6996 10.7621 9.66614 13.2706 9.66614C15.779 9.66614 17.8125 11.6996 17.8125 14.2081ZM12.619 14.8643C12.6412 14.8854 12.6653 14.9052 12.6912 14.9233L14.2271 15.9988C14.3402 16.078 14.4961 16.0505 14.5753 15.9374L15.1847 15.067C15.2639 14.9539 15.2365 14.798 15.1234 14.7188L13.9737 13.9138V12.524C13.9737 12.3859 13.8618 12.274 13.7237 12.274H12.6612C12.5231 12.274 12.4112 12.3859 12.4112 12.524V14.399C12.4112 14.5838 12.4914 14.7499 12.619 14.8643ZM13.5 5.54054C13.6381 5.54054 13.75 5.65247 13.75 5.79054V6.85304C13.75 6.99111 13.6381 7.10304 13.5 7.10304H6.5C6.36193 7.10304 6.25 6.99111 6.25 6.85304V5.79054C6.25 5.65247 6.36193 5.54054 6.5 5.54054H13.5Z" fill="#55585E"/>
</svg>
