<svg width="25" height="24" viewBox="0 0 25 24" fill="none" xmlns="http://www.w3.org/2000/svg">
<path d="M12.7232 3.9247L19.1284 9.58838L19.3138 9.73274V20.1202H16.3214V15.9386C16.3214 15.0067 15.5659 14.2511 14.6339 14.2511H10.8646C9.93267 14.2511 9.17715 15.0067 9.17715 15.9386V20.1202H5.49876V9.71869L12.7232 3.9247ZM23.2451 10.4171L13.7556 2.35348C13.1719 1.90576 12.3655 1.88766 11.7624 2.30875C8.26813 4.74839 4.7727 7.93597 1.2896 10.3915C0.866426 10.6899 0.765226 11.2748 1.06356 11.698C1.3619 12.1211 1.9468 12.2223 2.36998 11.924L3.62376 11.0401V20.3077C3.62376 21.2397 4.37928 21.9952 5.31126 21.9952H9.36465C10.2966 21.9952 11.0521 21.2397 11.0521 20.3077V16.1261H14.4464V20.3077C14.4464 21.2397 15.202 21.9952 16.1339 21.9952H19.5013C20.4333 21.9952 21.1888 21.2397 21.1888 20.3077V11.1934L22.0945 11.8975C22.5031 12.2153 23.0924 12.142 23.4103 11.7334C23.7282 11.3249 23.6547 10.736 23.2463 10.418L23.2451 10.4171Z" fill="#25272A"/>
</svg>
