<svg width="25" height="24" viewBox="0 0 25 24" fill="none" xmlns="http://www.w3.org/2000/svg">
<path d="M21.4998 10.5L21.8998 10.8C22.2998 11.1 22.9998 11.1 23.2998 10.6C23.5998 10.2 23.5998 9.5 23.0998 9.2L19.4998 6.4V4C19.4998 3.4 19.0998 3 18.4998 3C17.8998 3 17.4998 3.4 17.4998 4V4.8L14.8998 2.8C14.1998 2.3 13.3998 2 12.4998 2C11.5998 2 10.7998 2.3 10.0998 2.8L1.89982 9.2C1.49982 9.5 1.39982 10.2 1.69982 10.6C1.99982 11 2.69982 11.1 3.09982 10.8L3.49982 10.5V17.4C3.49982 18 3.49982 18.4 3.59982 18.8C3.89982 20.4 5.19982 21.6 6.69982 21.9C7.09982 22 7.59982 22 8.09982 22H8.19982H8.29982H8.89982C9.69982 21.8 10.2998 21.2 10.4998 20.4C10.4998 20.2 10.4998 20 10.4998 19.8V19.7V17C10.4998 16.5 10.4998 16.2 10.4998 16C10.4998 15.8 10.4998 15.7 10.5998 15.6C10.6998 15.4 10.8998 15.2 11.0998 15.1C11.0998 15.1 11.1998 15.1 11.4998 15H12.4998C12.4998 15 13.2998 15 13.4998 15C13.6998 15 13.7998 15 13.8998 15.1C14.0998 15.2 14.2998 15.4 14.3998 15.6C14.3998 15.6 14.3998 15.7 14.4998 16V17V19.8V19.9V20.5C14.6998 21.3 15.2998 21.9 16.0998 22.1H16.6998H16.7998H16.8998C17.4998 22.1 17.8998 22.1 18.2998 22C19.8998 21.7 21.0998 20.4 21.3998 18.9C21.4998 18.5 21.4998 18.1 21.4998 17.5V10.5Z" fill="#68C3FF"/>
</svg>
