<svg width="23" height="21" viewBox="0 0 23 21" fill="none" xmlns="http://www.w3.org/2000/svg">
<path d="M20.4998 8.5L20.8998 8.8C21.2998 9.1 21.9998 9.1 22.2998 8.6C22.5998 8.2 22.5998 7.5 22.0998 7.2L18.4998 4.4V2C18.4998 1.4 18.0998 1 17.4998 1C16.8998 1 16.4998 1.4 16.4998 2V2.8L13.8998 0.8C13.1998 0.3 12.3998 0 11.4998 0C10.5998 0 9.79982 0.3 9.09982 0.8L0.899824 7.2C0.499824 7.5 0.399824 8.2 0.699824 8.6C0.999824 9 1.69982 9.1 2.09982 8.8L2.49982 8.5V15.4C2.49982 16 2.49982 16.4 2.59982 16.8C2.89982 18.4 4.19982 19.6 5.69982 19.9C6.09982 20 6.59982 20 7.09982 20H7.19982H7.29982H7.89982C8.69982 19.8 9.29982 19.2 9.49982 18.4C9.49982 18.2 9.49982 18 9.49982 17.8V17.7V15C9.49982 14.5 9.49982 14.2 9.49982 14C9.49982 13.8 9.49982 13.7 9.59982 13.6C9.69982 13.4 9.89982 13.2 10.0998 13.1C10.0998 13.1 10.1998 13.1 10.4998 13H11.4998C11.4998 13 12.2998 13 12.4998 13C12.6998 13 12.7998 13 12.8998 13.1C13.0998 13.2 13.2998 13.4 13.3998 13.6C13.3998 13.6 13.3998 13.7 13.4998 14V15V17.8V17.9V18.5C13.6998 19.3 14.2998 19.9 15.0998 20.1H15.6998H15.7998H15.8998C16.4998 20.1 16.8998 20.1 17.2998 20C18.8998 19.7 20.0998 18.4 20.3998 16.9C20.4998 16.5 20.4998 16.1 20.4998 15.5V8.5Z" fill="#68C3FF"/>
</svg>
