<svg width="12" height="12" viewBox="0 0 12 12" fill="none" xmlns="http://www.w3.org/2000/svg">
<g id="lock-filled">
<g id="Union">
<path d="M4.3125 4.59375V3.65625C4.3125 2.72427 5.06802 1.96875 6 1.96875C6.93198 1.96875 7.6875 2.72427 7.6875 3.65625V4.59375H4.3125ZM3.375 4.59375H2.25C1.83579 4.59375 1.5 4.92954 1.5 5.34375V10.2188C1.5 10.633 1.83579 10.9688 2.25 10.9688H9.75C10.1642 10.9688 10.5 10.633 10.5 10.2188V5.34375C10.5 4.92954 10.1642 4.59375 9.75 4.59375H8.625V3.65625C8.625 2.2065 7.44975 1.03125 6 1.03125C4.55025 1.03125 3.375 2.2065 3.375 3.65625V4.59375Z" fill="#C0C3C7"/>
</g>
</g>
</svg>
