<svg width="16" height="16" viewBox="0 0 16 16" fill="none" xmlns="http://www.w3.org/2000/svg">
<path d="M12.1482 6.41602H3.85189C3.56552 6.41602 3.33337 6.72128 3.33337 7.09783V13.2342C3.33337 13.6108 3.56552 13.916 3.85189 13.916H12.1482C12.4346 13.916 12.6667 13.6108 12.6667 13.2342V7.09783C12.6667 6.72128 12.4346 6.41602 12.1482 6.41602Z" fill="white"/>
<path fill-rule="evenodd" clip-rule="evenodd" d="M4.08337 7.16602V13.166H11.9167V7.16602H4.08337ZM2.88826 6.16172C3.09049 5.89581 3.42418 5.66602 3.85189 5.66602H12.1482C12.5759 5.66602 12.9096 5.89581 13.1118 6.16172C13.3136 6.42706 13.4167 6.76051 13.4167 7.09783V13.2342C13.4167 13.5715 13.3136 13.905 13.1118 14.1703C12.9096 14.4362 12.5759 14.666 12.1482 14.666H3.85189C3.42418 14.666 3.09049 14.4362 2.88827 14.1703C2.68648 13.905 2.58337 13.5715 2.58337 13.2342V7.09783C2.58337 6.76051 2.68648 6.42705 2.88826 6.16172Z" fill="white"/>
<path fill-rule="evenodd" clip-rule="evenodd" d="M8.00004 2.83398C6.80344 2.83398 5.83337 3.80404 5.83337 5.00065V7.33398C5.83337 7.7482 5.49759 8.08398 5.08337 8.08398C4.66916 8.08398 4.33337 7.7482 4.33337 7.33398V5.00065C4.33337 2.9756 5.97501 1.33398 8.00004 1.33398C10.0251 1.33398 11.6667 2.9756 11.6667 5.00065V7.33398C11.6667 7.7482 11.3309 8.08398 10.9167 8.08398C10.5025 8.08398 10.1667 7.7482 10.1667 7.33398V5.00065C10.1667 3.80404 9.19665 2.83398 8.00004 2.83398Z" fill="white"/>
</svg>
