<svg width="33" height="32" viewBox="0 0 33 32" fill="none" xmlns="http://www.w3.org/2000/svg">
<g id="album-filled">
<g id="Union">
<path d="M10.3728 15.0513L5.25 20.4264V7.75H27.75V25.25H25.7759L13.4499 14.8818C12.5404 14.1168 11.1927 14.191 10.3728 15.0513ZM5 5.25C3.75736 5.25 2.75 6.25736 2.75 7.5V25.5C2.75 26.7426 3.75736 27.75 5 27.75H28C29.2426 27.75 30.25 26.7426 30.25 25.5V7.5C30.25 6.25736 29.2426 5.25 28 5.25H5ZM22.1421 9.75C20.1472 9.75 18.53 11.3671 18.53 13.362C18.53 15.3569 20.1472 16.974 22.1421 16.974C24.1369 16.974 25.7541 15.3569 25.7541 13.362C25.7541 11.3671 24.1369 9.75 22.1421 9.75ZM21.03 13.362C21.03 12.7478 21.5279 12.25 22.1421 12.25C22.7563 12.25 23.2541 12.7478 23.2541 13.362C23.2541 13.9762 22.7563 14.474 22.1421 14.474C21.5279 14.474 21.03 13.9762 21.03 13.362Z" fill="#DCDEE1"/>
</g>
</g>
</svg>
