<svg width="20" height="20" viewBox="0 0 20 20" fill="none" xmlns="http://www.w3.org/2000/svg">
<path d="M8.83325 2.75L1.83325 8C1.16659 8.5 0.833252 9.25 0.833252 10C0.833252 10.75 1.16659 11.5 1.83325 12L8.83325 17.25C9.08325 17.4167 9.33325 17.5 9.66659 17.5C10.3333 17.5 10.9166 17 10.9999 16.25L11.2499 13.3333L16.6666 12.75C16.9166 12.75 16.9999 12.75 17.0833 12.6667C18.1666 12.4167 18.9999 11.5 19.0833 10.4167V9.58333C18.9999 8.5 18.1666 7.5 17.0833 7.33333C16.9999 7.33333 16.8333 7.33333 16.6666 7.25L11.2499 6.66667L10.9166 3.75C10.8333 3.08333 10.2499 2.5 9.58325 2.5C9.33325 2.5 8.99992 2.58333 8.83325 2.75Z" fill="white"/>
</svg>
