<svg width="20" height="20" viewBox="0 0 20 20" fill="none" xmlns="http://www.w3.org/2000/svg">
<path d="M5.00004 18.3333C4.54171 18.3333 4.14935 18.1701 3.82296 17.8437C3.49657 17.5173 3.33337 17.125 3.33337 16.6666V8.33331C3.33337 7.87498 3.49657 7.48262 3.82296 7.15623C4.14935 6.82984 4.54171 6.66665 5.00004 6.66665H5.83337V4.99998C5.83337 3.8472 6.23962 2.86456 7.05212 2.05206C7.86462 1.23956 8.84726 0.833313 10 0.833313C11.1528 0.833313 12.1355 1.23956 12.948 2.05206C13.7605 2.86456 14.1667 3.8472 14.1667 4.99998V6.66665H15C15.4584 6.66665 15.8507 6.82984 16.1771 7.15623C16.5035 7.48262 16.6667 7.87498 16.6667 8.33331V16.6666C16.6667 17.125 16.5035 17.5173 16.1771 17.8437C15.8507 18.1701 15.4584 18.3333 15 18.3333H5.00004ZM10 14.1666C10.4584 14.1666 10.8507 14.0035 11.1771 13.6771C11.5035 13.3507 11.6667 12.9583 11.6667 12.5C11.6667 12.0416 11.5035 11.6493 11.1771 11.3229C10.8507 10.9965 10.4584 10.8333 10 10.8333C9.54171 10.8333 9.14935 10.9965 8.82296 11.3229C8.49657 11.6493 8.33337 12.0416 8.33337 12.5C8.33337 12.9583 8.49657 13.3507 8.82296 13.6771C9.14935 14.0035 9.54171 14.1666 10 14.1666ZM7.50004 6.66665H12.5V4.99998C12.5 4.30554 12.257 3.71526 11.7709 3.22915C11.2848 2.74304 10.6945 2.49998 10 2.49998C9.3056 2.49998 8.71532 2.74304 8.22921 3.22915C7.7431 3.71526 7.50004 4.30554 7.50004 4.99998V6.66665Z" fill="white" fill-opacity="0.7"/>
</svg>
