<svg width="25" height="24" viewBox="0 0 25 24" fill="none" xmlns="http://www.w3.org/2000/svg">
<path d="M10.8158 5.22895C8.34038 6.31487 6.54828 9.2598 7.42914 12.5298C8.05026 14.3385 9.23235 15.6428 11.0886 16.3016C14.3345 17.4537 17.7785 14.8859 17.2855 11.59C17.0757 10.1877 16.1771 9.26402 14.9463 8.92062C13.8928 8.6739 12.8298 8.85777 12.0648 9.58787C11.5335 10.0949 11.2257 10.8993 11.391 11.7497C11.5483 12.2705 11.799 12.5945 12.4402 12.7491C12.7927 12.8341 13.2427 12.7491 13.3808 12.4309C13.4744 12.215 13.3877 12.0383 13.3239 11.8338C13.1505 11.2778 13.263 10.9572 13.5664 10.6825C13.9734 10.2798 14.6647 10.2734 15.1034 10.5826C15.6679 10.8715 16.1172 11.7912 15.5884 13.2046C14.9834 14.6587 13.4069 15.0968 11.9368 14.7158C9.81187 14.1651 8.65361 11.7497 9.16256 9.82955C10.0094 6.63467 13.5703 5.64626 16.5316 7.11259C18.5298 8.2376 19.781 10.0529 19.7444 12.5188C19.588 16.574 15.4857 19.5649 11.3825 18.7829C7.26202 17.9195 4.78864 14.351 4.73401 10.855C4.71371 9.55538 4.96145 8.24354 5.63942 6.86075C7.2487 3.82033 10.0443 2.39765 13.6036 2.18495C14.5374 2.12915 15.2144 2.18495 16.3955 2.30147C16.348 2.2804 16.2395 2.22708 16.1266 2.18495C14.4416 1.55396 12.7001 1.35274 10.9156 1.60729C9.76806 1.77097 8.82704 2.09946 7.89849 2.52699C7.49853 2.6674 7.43914 2.3278 7.13022 2.07021C6.98592 1.95011 7.00026 2.1027 7.00026 2.1027C7.12619 2.70187 6.84643 3.00416 6.80386 3.03374C6.65512 3.17897 6.29352 3.44787 6.0447 3.55673C5.53137 3.78131 5.29313 3.41157 4.88428 3.20334C4.60419 3.06083 4.71371 3.29675 4.71371 3.29675C5.06057 3.986 4.81769 4.61794 4.76167 4.71743C4.5229 5.06347 4.32319 5.30913 4.00117 5.60027C3.43562 6.11161 2.76378 5.61837 2.56372 5.54372C2.18648 5.40295 2.45958 5.72461 2.45958 5.72461C2.60991 5.92448 3.15185 7.07187 2.98366 7.43533C2.02503 9.42135 1.71147 11.71 2.13487 13.9945C3.70987 21.8765 12.6688 24.6099 18.244 20.8007C21.2026 18.6149 22.2119 15.2124 22.2455 13.0906C22.2791 10.9687 21.7453 9.42581 20.7602 8.0486C18.4237 4.78206 14.1961 3.74603 10.8158 5.22895Z" fill="#547AFF"/>
</svg>
