
<svg width="100px" height="100px" viewBox="0 0 100 100" version="1.1" xmlns="http://www.w3.org/2000/svg" xmlns:xlink="http://www.w3.org/1999/xlink">
    <title>jrosmjmwjg</title>
    <g id="vcnpicntxf" stroke="none" stroke-width="1" fill="none" fill-rule="evenodd">
        <g transform="translate(-138.000000, -251.000000)" fill="#FFFFFF" id="kswwzmynue">
            <g transform="translate(138.000000, 251.000000)">
                <rect id="uyztjwwefj" opacity="0" x="0" y="0" width="100" height="100"></rect>
                <path d="M45.203585,18.1890315 C31.8239565,24.0581146 23.4093243,38.4123614 28.3080637,52.6768408 C31.2703904,61.3030678 37.2399275,67.4500026 46.0927105,70.5918642 C61.5733254,76.0869161 77.7336084,64.0046413 75.9211603,48.2996077 C75.1517248,41.6247547 71.7619339,36.5422057 64.8776235,34.439082 C59.7566027,32.8745631 54.855726,33.6055268 50.8567987,37.3266024 C47.4627331,40.481288 46.176066,44.3669373 47.535402,48.8830963 C48.2856017,51.3666631 50.0873631,52.9119461 52.5388702,53.6493218 C54.6911523,54.2947927 56.3561252,53.3607835 57.6385177,51.5739833 C57.3799019,51.1422444 57.1533459,50.6698965 56.8391597,50.2638056 C55.1656375,48.1008369 56.5228362,44.9547006 57.9698025,43.6445229 C59.9361376,41.8641346 63.1207457,41.7016982 65.2131828,43.1764496 C68.6072483,45.563837 70.150394,51.9138173 68.3058861,55.8977833 C65.2195948,62.5619498 57.2837225,66.4411871 50.0018703,64.5539328 C38.5052214,61.5745075 32.8370465,50.2231965 36.5474355,39.2501912 C41.4782347,24.6693884 58.0510206,18.2916229 72.1744368,25.2849368 C83.5920048,30.9360131 87.8303121,40.8040235 87.3750628,52.5507389 C86.6291378,71.8913553 67.1132611,86.2391902 47.5439513,82.5095653 C28.5645422,78.8932184 14.4710484,60.7195792 15.4820012,43.5333822 C15.853895,37.1876766 17.2666641,31.2459246 20.5132545,25.7936191 C28.9599465,11.6146326 42.1172937,4.94191688 58.5746643,3.86256985 C62.9070136,3.57830617 67.2756975,3.81982343 71.402864,3.82196075 C71.176308,3.72150667 70.6590764,3.46716549 70.1204715,3.26625733 C62.0841451,0.256909566 53.7785163,-0.702747498 45.2677046,0.511250747 C39.9906594,1.16099629 35.1197052,2.5865893 30.6911764,4.62559339 C30.6099582,4.63841732 30.5137788,4.66620249 30.3962261,4.71536087 C28.4042431,5.56387725 28.070821,3.61464063 27.3633678,3.02474007 C26.6751505,2.45193808 26.764918,3.16366593 26.764918,3.16366593 C27.3655052,6.02126391 25.8608313,7.17327985 25.6577858,7.31434302 C24.4031785,8.09019049 23.1998668,8.92802027 22.0371643,9.80859646 C22.0029671,9.82355771 21.9773193,9.82355771 21.9409848,9.84065627 C19.1945275,11.0931263 18.0531982,8.97717865 16.7900416,8.33384507 C15.454216,7.65417704 15.9586238,8.76985853 15.9586238,8.76985853 C17.6129101,12.057058 16.1851798,14.8697722 15.9180147,15.3442575 C14.7467628,16.6074141 13.6503172,17.9346903 12.6244032,19.3132623 C12.5175372,19.3816566 12.4128085,19.4457762 12.2909812,19.5547796 C9.59368226,21.9934626 7.49483318,20.0634619 5.82772291,19.7001174 C3.98962698,19.3025757 5.03050223,20.5058873 5.03050223,20.5058873 C8.43097971,23.987583 7.35590732,28.1745946 7.35590732,28.1745946 L7.36445661,28.1788692 C2.99577278,37.6194154 1.42697928,48.5453996 3.24156468,59.5141302 C9.20682718,95.5685957 53.5540976,112.596631 82.6237985,89.3703652 C92.0643447,81.8277599 98.6130958,67.2982528 99.3034504,55.2779603 C99.7950342,46.7415008 97.155443,38.9937127 92.2887634,31.9790257 C81.9633664,17.0947232 61.3253962,11.1166368 45.203585,18.1890315" id="zhumtwjtrf"></path>
            </g>
        </g>
    </g>
</svg>