
<svg width="200px" height="50px" viewBox="0 0 200 50" version="1.1" xmlns="http://www.w3.org/2000/svg" xmlns:xlink="http://www.w3.org/1999/xlink">
    <title>zjqebghwfq</title>
    <defs>
        <polygon id="lnphjjhszf" points="0 0 29 0 29 30 0 30"></polygon>
        <polygon id="ujpixccsbl" points="0 0 27 0 27 29 0 29"></polygon>
        <polygon id="vtnhmmknpw" points="0 0 51 0 51 40 0 40"></polygon>
    </defs>
    <g id="wjyolkuqqm" stroke="none" stroke-width="1" fill="none" fill-rule="evenodd">
        <g id="bugngkkzfz" transform="translate(-90.000000, -100.000000)">
            <g id="nzhjduhblv" transform="translate(90.000000, 100.000000)">
                <rect id="kswvibujqu" fill="#FFFFFF" opacity="0" x="0" y="0" width="200" height="50"></rect>
                <g id="higqhrmemk" transform="translate(3.000000, 7.000000)">
                    <g id="iypplgdyqm" transform="translate(25.000000, 0.000000)">
                        <mask id="sdwmeecuvm" fill="white">
                            <use xlink:href="#path-1"></use>
                        </mask>
                        <g id="jeinxmzmou"></g>
                        <path d="M12.7852858,5.45592952 C8.77935708,7.21572752 6.25970739,11.5226016 7.72750039,15.8016893 C8.61298256,18.3895186 10.4005844,20.2345279 13.0514851,21.1774091 C17.6859398,22.826062 22.5237411,19.2008781 21.9820996,14.4883243 C21.7510239,12.4877118 20.7361393,10.9613186 18.6749439,10.3314962 C17.1424497,9.86098177 15.6746567,10.0814196 14.4767601,11.1965758 C13.4618756,12.1431619 13.0773656,13.3101858 13.4840588,14.6643041 C13.7077401,15.4089765 14.247533,15.8720813 14.9814295,16.0943715 C15.6247443,16.2870231 16.1238679,16.0073078 16.5083779,15.4719588 C16.4307365,15.3422894 16.362338,15.1996532 16.2680591,15.0792459 C15.767087,14.4290469 16.1737803,13.4861656 16.6082026,13.0934528 C17.1960593,12.5581038 18.1499398,12.5099409 18.7766172,12.952669 C19.7915018,13.6677027 20.2536532,15.5738418 19.7027687,16.768652 C18.7784658,18.7674121 16.4011588,19.9325836 14.2216525,19.3657434 C10.7795486,18.471025 9.08252843,15.066279 10.1935405,11.7745305 C11.6687279,7.39911699 16.6322345,5.48742064 20.8599959,7.58435889 C24.278068,9.27932222 25.5480602,12.2413401 25.4112634,15.764641 C25.1875821,21.5664171 19.3441392,25.8714387 13.4859074,24.7525777 C7.80329323,23.6670602 3.58477481,18.2153912 3.88609755,13.0601093 C3.99886251,11.1558226 4.42034463,9.37379559 5.39271127,7.73625724 C7.921604,3.48310334 11.8609829,1.48249088 16.7875174,1.15831757 C18.0852386,1.0731063 19.3940515,1.14535063 20.6289202,1.14535063 C20.5605218,1.11571193 20.4070875,1.03976275 20.2444102,0.978632929 C17.8393741,0.0765049025 15.3529993,-0.212472453 12.8037719,0.152454079 C11.2250625,0.346958069 9.76651258,0.774866845 8.44106222,1.3861651 C8.41703035,1.38986993 8.38745266,1.39913203 8.35232915,1.41395138 C7.75522948,1.66773278 7.65540476,1.08422081 7.4446637,0.90638859 C7.23761985,0.734113628 7.26534894,0.947141807 7.26534894,0.947141807 C7.4446637,1.80481178 6.99360389,2.15121412 6.9325999,2.19381976 C6.55733292,2.42537213 6.1987034,2.6773011 5.8493169,2.94219701 C5.83822527,2.94590185 5.83267945,2.94590185 5.82158782,2.95145911 C4.99895824,3.32750015 4.65696617,2.69212045 4.27800198,2.49946888 C3.87870313,2.2957028 4.03028881,2.63099063 4.03028881,2.63099063 C4.52571516,3.61647751 4.09683861,4.45932813 4.01734856,4.60196439 C3.66796207,4.98171027 3.33891024,5.37998034 3.03204168,5.79306977 C2.99876677,5.81344638 2.96734048,5.83382299 2.93221697,5.86531411 C2.12437623,6.59701959 1.49585026,6.01906488 0.996726701,5.90977216 C0.445842175,5.78936493 0.758256554,6.15058663 0.758256554,6.15058663 C1.77683835,7.19535091 1.45333233,8.45129096 1.45333233,8.45129096 L1.45702954,8.45314337 C0.148216643,11.2854919 -0.321329228,14.5624211 0.222160874,17.8541695 C2.00791407,28.6704437 15.2846009,33.7794152 23.9878369,26.8106151 C26.8143552,24.5469592 28.7757259,20.1882174 28.9827698,16.5834101 C29.1288096,14.0215147 28.339455,11.6967289 26.8827536,9.59423344 C23.7900361,5.12805137 17.6119956,3.33490983 12.7852858,5.45592952" id="cckcxiihmm" fill="#5B8EF4" mask="url(#mask-2)"></path>
                    </g>
                    <path d="M149.24892,15.4277123 L158.466955,15.4277123 L158.466955,12.9646001 L149.24892,12.9646001 L149.24892,2.30130192 L164.420307,2.30130192 L164.420307,0 L143.461194,0 L143.461194,0 L142.134341,0 C142.134341,0 142.132501,0 142.132501,0 C142.058889,0 142,0.057532548 142,0.129448233 C142,0.177991321 142.029445,0.219342839 142.069931,0.240917545 L142.068091,0.246311221 C142.892543,0.638251705 143.461194,1.4616863 143.461194,2.41636702 L143.461194,21.7437074 C143.461194,22.700186 142.892543,23.5236206 142.068091,23.917359 L142.069931,23.9209547 C142.029445,23.9425294 142,23.983881 142,24.0342219 C142,24.1043397 142.058889,24.1636702 142.132501,24.1636702 C142.132501,24.1636702 142.134341,24.1618723 142.134341,24.1618723 L143.461194,24.1618723 L143.461194,24.1636702 C143.461194,25.1183509 142.892543,25.9417855 142.068091,26.3355239 L142.069931,26.3391197 C142.029445,26.3606944 142,26.4020459 142,26.4523869 C142,26.5225046 142.058889,26.5818351 142.132501,26.5818351 C142.132501,26.5818351 142.134341,26.5800372 142.134341,26.5800372 L143.461194,26.5800372 L143.461194,26.5818351 C143.461194,27.5365158 142.892543,28.3617483 142.068091,28.7536888 L142.069931,28.7572846 C142.029445,28.7788593 142,28.8202108 142,28.8705518 C142,28.9424675 142.058889,29 142.132501,29 C142.132501,29 142.134341,28.9982021 142.134341,28.9982021 L143.461194,28.9982021 L143.461194,28.9982021 L165,28.9982021 L165,26.4937384 L149.24892,26.4937384 L149.24892,15.4277123 Z" id="nulzjznbeu" fill="#5B8EF4"></path>
                    <path d="M82.2007435,3.718 L82.2037175,3.72 C82.529368,2.826 83.2104089,2.206 84,2.206 L82.001487,2.206 L82.001487,3.648 C82.001487,3.648 82,3.65 82,3.65 C82,3.73 82.0490706,3.794 82.1070632,3.794 C82.1486989,3.794 82.1828996,3.764 82.2007435,3.718" id="ghrhkbygkl" fill="#5B8EF4"></path>
                    <path d="M109,2.206 L107,2.206 C107.791078,2.206 108.472119,2.824 108.796283,3.72 L108.800743,3.718 C108.818587,3.762 108.852788,3.794 108.892937,3.794 C108.952416,3.794 109,3.73 109,3.65 C109,3.648 109,3.648 109,3.648 L109,2.206 Z" id="ddmkmxtfjs" fill="#5B8EF4"></path>
                    <path d="M109,2.374034 L109,0 L82,0 L82,2.374034 L92.5886263,2.374034 L92.5886263,22.6460587 C92.5414932,23.5752705 92.0012757,24.3690881 91.2253928,24.7548686 L91.2272056,24.7604328 C91.1873238,24.7826893 91.1583188,24.8253478 91.1583188,24.875425 C91.1583188,24.9496136 91.2163287,25.0089645 91.2888411,25.0089645 C91.2888411,25.0089645 91.290654,25.0089645 91.290654,25.0089645 L92.5886263,25.0089645 L92.5886263,25.1406491 C92.5414932,26.0698609 92.0012757,26.8636785 91.2253928,27.2513138 L91.2272056,27.2550232 C91.1873238,27.2772798 91.1583188,27.3199382 91.1583188,27.3718702 C91.1583188,27.444204 91.2163287,27.5054096 91.2888411,27.5054096 C91.2888411,27.5054096 91.290654,27.5035549 91.290654,27.5035549 L92.5886263,27.5035549 L92.5886263,27.6352396 C92.5414932,28.5644513 92.0012757,29.3582689 91.2253928,29.7459042 L91.2272056,29.7496136 C91.1873238,29.7718702 91.1583188,29.8145286 91.1583188,29.8664606 C91.1583188,29.9387944 91.2163287,30 91.2888411,30 C91.2888411,30 91.290654,29.9981453 91.290654,29.9981453 L92.5976903,29.9981453 L92.5976903,29.9981453 L98.2736001,29.9981453 L98.2736001,29.9981453 L99.5788237,29.9981453 C99.5806365,29.9981453 99.5806365,30 99.5824493,30 C99.6531489,30 99.7129717,29.9387944 99.7129717,29.8664606 C99.7129717,29.8145286 99.6839667,29.7718702 99.6422721,29.7496136 L99.6458977,29.7459042 C98.8990197,29.3731066 98.3714919,28.6238022 98.2899154,27.7391036 L98.2899154,2.374034 L109,2.374034 Z" id="pzjwuvwtsz" fill="#5B8EF4"></path>
                    <g id="nzepsnvosx" transform="translate(168.000000, 0.000000)">
                        <mask id="sesnweipvf" fill="white">
                            <use xlink:href="#path-3"></use>
                        </mask>
                        <g id="efwubyvwii"></g>
                        <path d="M17.7470501,28.7555473 L17.7488938,28.7519524 C16.9358407,28.363704 16.3735251,27.558448 16.3569322,26.620181 L16.3569322,17.4496095 L27.0003687,0.046733606 L24.1021386,0.046733606 L15.3632006,14.9062229 L6.99668142,0.00718978555 L1.46386431,0.00718978555 L1.46386431,0 L0.136430678,0 C0.134587021,0 0.134587021,0 0.132743363,0 C0.0589970501,0 0,0.0575182844 0,0.12941614 C0,0.179744639 0.0294985251,0.219288459 0.0719026549,0.242655262 L0.0682153392,0.246250155 C0.554941003,0.478120739 0.947640118,0.860976819 1.19284661,1.33011033 L1.19284661,1.32831288 L10.5586283,18.055349 L10.5586283,26.6812942 C10.5199115,27.5943969 9.96681416,28.3744887 9.17035398,28.7537498 L9.17219764,28.7573447 C9.13163717,28.7789141 9.10213864,28.8202554 9.10213864,28.8705839 C9.10213864,28.9406843 9.16113569,29 9.23488201,29 C9.23672566,29 9.23672566,28.9982026 9.23672566,28.9982026 L10.5660029,28.9982026 L10.5660029,28.9982026 L16.3569322,28.9982026 L16.3569322,28.9964051 L17.6825221,28.9964051 C17.6825221,28.9964051 17.6843658,28.9982026 17.6843658,28.9982026 C17.7581121,28.9982026 17.8171091,28.9388868 17.8171091,28.8687864 C17.8171091,28.8184579 17.7894543,28.7771166 17.7470501,28.7555473" id="okthdyjheh" fill="#5B8EF4" mask="url(#mask-4)"></path>
                    </g>
                    <g id="qerjuqphqy" transform="translate(57.000000, 0.000000)">
                        <mask id="kvipruxovh" fill="white">
                            <use xlink:href="#path-5"></use>
                        </mask>
                        <g id="lukxfoysbj"></g>
                        <path d="M7.16756501,13.8054651 L7.16756501,2.13629879 L8.31211905,2.13629879 C10.8468787,2.13629879 12.7665997,2.09606028 14.2805408,2.91729158 C15.8745461,3.69828438 16.7334166,5.6699711 16.7334166,7.93064345 C16.7334166,13.8054651 11.827665,13.8054651 7.16756501,13.8054651 M45.609296,30.0691371 C45.6911798,30.7239273 45.9186349,30.5190767 46.0514687,30.0435307 C46.1588275,29.6539489 46.2934809,29.4344661 46.5991806,29.2204704 C49.7016681,27.0567363 53.4173745,36.7962834 38.4399113,36.7962834 C23.2131573,36.7962834 15.3013593,15.2851447 15.3013593,15.2851447 C21.269781,13.6829206 22.8237542,10.5589494 22.8237542,7.31426272 C22.8237542,3.45136628 19.6757757,0 14.3624246,0 C10.0280403,0 4.63280541,0.0420675275 4.63280541,0.0420675275 L1.44479477,0.0420675275 L1.44479477,0.0420675275 L0.132833776,0.0420675275 C0.132833776,0.0420675275 0.131014136,0.0402385046 0.131014136,0.0402385046 C0.0582285048,0.0402385046 0,0.100596261 0,0.171928156 C0,0.223140798 0.0291142524,0.265208326 0.0691463494,0.287156601 L0.0673267086,0.290814647 C0.882525775,0.69137067 1.44479477,1.52906317 1.44479477,2.50027435 L1.44479477,2.50210338 L0.132833776,2.50210338 C0.132833776,2.50210338 0.131014136,2.50027435 0.131014136,2.50027435 C0.0582285048,2.50027435 0,2.56063211 0,2.63379303 C0,2.68317665 0.0291142524,2.72524417 0.0691463494,2.74719245 L0.0673267086,2.7508505 C0.882525775,3.15140652 1.44479477,3.98909902 1.44479477,4.96213923 L1.44479477,4.96213923 L0.132833776,4.96213923 C0.132833776,4.96213923 0.131014136,4.96213923 0.131014136,4.96213923 C0.0582285048,4.96213923 0,5.02066796 0,5.09382888 C0,5.1432125 0.0291142524,5.18528002 0.0691463494,5.2072283 L0.0673267086,5.21271537 C0.882525775,5.61144237 1.44479477,6.44913487 1.44479477,7.42217507 L1.44479477,27.0841716 C1.44479477,28.0553828 0.882525775,28.8930753 0.0673267086,29.2936313 L0.0691463494,29.2972894 C0.0291142524,29.3192377 0,29.3613052 0,29.4125178 C0,29.4838497 0.0582285048,29.5442075 0.131014136,29.5442075 C0.131014136,29.5442075 0.132833776,29.5423785 0.132833776,29.5423785 L1.44479477,29.5423785 L1.44479477,29.5423785 L7.15118824,29.5423785 L7.15118824,29.5423785 L8.4613296,29.5423785 C8.46314924,29.5423785 8.46314924,29.5442075 8.46496888,29.5442075 C8.53775451,29.5442075 8.59598301,29.4838497 8.59598301,29.4125178 C8.59598301,29.3613052 8.56686876,29.3192377 8.52683667,29.2972894 L8.52865631,29.2936313 C7.77896431,28.9259977 7.24944884,28.1852434 7.16756501,27.3127995 L7.16756501,15.6143688 L7.94455162,15.5723013 L10.4738523,15.6564363 C17.1228197,34.4551341 27.9806162,40.0007316 38.6455307,40.0007316 C47.2469727,40.0007316 51.8925156,35.0788309 50.85714,30.7495336 C49.8217644,26.4202363 45.3545463,28.0188024 45.609296,30.0691371" id="vfqklshztv" fill="#5B8EF4" mask="url(#mask-6)"></path>
                    </g>
                    <path d="M120.72,0.203717472 L120.718,0.200743494 C120.762,0.181412639 120.794,0.147211896 120.794,0.107063197 C120.794,0.0475836431 120.73,0 120.65,0 C120.648,0 120.648,0 120.646,0 L119.206,0 L119.206,2 C119.206,1.20892193 119.824,0.527881041 120.72,0.203717472" id="ceghvixcox" fill="#5B8EF4"></path>
                    <path d="M138.928431,28.7519063 L138.930266,28.7483107 C138.686196,28.631455 138.469653,28.4732503 138.276966,28.2898766 L123.293278,13.6127952 L125.86427,11.0257889 L136.95385,0.00179778067 L133.656154,0.00179778067 L119.228505,14.6195524 L119.228505,0.00179778067 L113.457079,0.00179778067 L113.457079,0.00179778067 L112.133963,0.00179778067 C112.133963,0.00179778067 112.132128,0 112.132128,0 C112.058724,0 112,0.0593267621 112,0.129440208 C112,0.179778067 112.027527,0.221127023 112.069734,0.242700391 L112.067899,0.246295952 C112.888194,0.640009919 113.457079,1.46339347 113.457079,2.418015 L113.457079,26.7725497 C113.385509,27.6444734 112.847822,28.3869568 112.080745,28.753704 L112.084415,28.7572996 C112.042208,28.778873 112.012846,28.8202219 112.012846,28.8705598 C112.012846,28.9406732 112.071569,29 112.144974,29 C112.146809,29 112.146809,28.9982022 112.148644,28.9982022 L113.469925,28.9982022 L113.469925,28.9982022 L119.224835,28.9982022 L119.224835,28.9982022 L120.547951,28.9982022 C120.547951,28.9982022 120.549786,29 120.549786,29 C120.62319,29 120.681914,28.9406732 120.681914,28.8705598 C120.681914,28.8202219 120.654387,28.778873 120.61218,28.7572996 L120.614015,28.753704 C119.802895,28.3653834 119.241351,27.5563821 119.228505,26.6161428 L119.228505,17.6488128 L119.243186,17.6362284 L130.12907,28.3006633 C129.940053,28.4822392 129.72351,28.6386461 129.48311,28.753704 L129.484945,28.7572996 C129.444573,28.778873 129.415211,28.8202219 129.415211,28.8705598 C129.415211,28.9406732 129.473935,29 129.547339,29 C129.549174,29 129.549174,28.9982022 129.551009,28.9982022 L130.87229,28.9982022 L130.87229,28.9982022 L137.509889,28.9982022 L137.509889,28.9982022 L138.862367,28.9982022 C138.864202,28.9982022 138.864202,29 138.866037,29 C138.939441,29 139,28.9406732 139,28.8669642 C139,28.8166264 138.970638,28.7734796 138.928431,28.7519063" id="qekjknemqd" fill="#5B8EF4"></path>
                    <path d="M13.1312057,0 L4.7193746,0.0412926391 L1.47179239,0.0412926391 L1.47179239,0.0412926391 L0.367021277,0.0412926391 C0.367021277,0.0412926391 0.367021277,0.039497307 0.365167634,0.039497307 C0.303997421,0.039497307 0.255802708,0.0897666068 0.255802708,0.150807899 C0.255802708,0.192100539 0.279900064,0.228007181 0.313265635,0.245960503 L0.311411992,0.249551167 C0.997259832,0.585278276 1.47179239,1.28904847 1.47179239,2.10412926 L1.47179239,2.09694794 L7.30149903,2.09694794 L8.21719858,2.09694794 C10.799323,2.09694794 12.7567698,2.05745063 14.297147,2.86355476 C15.9209381,3.79174147 16.7958575,5.96947935 16.7958575,8.59066427 C16.7958575,15.0035907 11.9652643,15.1651706 7.30149903,15.1651706 L1.47179239,15.1651706 L1.47179239,21.7540395 C1.47179239,22.7091562 0.899016763,23.5314183 0.068584784,23.9228007 L0.0704384268,23.9281867 C0.029658285,23.9497307 0,23.9910233 0,24.0394973 C0,24.1113106 0.05931657,24.1687612 0.133462282,24.1687612 C0.133462282,24.1687612 0.135315925,24.1687612 0.135315925,24.1687612 L1.47179239,24.1687612 L1.47179239,24.1687612 C1.47179239,25.1238779 0.899016763,25.94614 0.068584784,26.3393178 L0.0704384268,26.3429084 C0.029658285,26.3644524 0,26.4057451 0,26.4560144 C0,26.5260323 0.05931657,26.5852783 0.133462282,26.5852783 C0.133462282,26.5852783 0.135315925,26.5834829 0.135315925,26.5834829 L1.47179239,26.5834829 L1.47179239,26.5852783 C1.47179239,27.5385996 0.899016763,28.3608618 0.068584784,28.7540395 L0.0704384268,28.7576302 C0.029658285,28.7791741 0,28.8204668 0,28.8707361 C0,28.940754 0.05931657,29 0.133462282,29 C0.133462282,29 0.135315925,28.9982047 0.135315925,28.9982047 L1.47179239,28.9982047 L1.47179239,28.9982047 L7.27740168,28.9982047 L7.27740168,28.9982047 L8.61387814,28.9982047 C8.61573179,28.9982047 8.61573179,29 8.61573179,29 C8.6898775,29 8.74919407,28.940754 8.74919407,28.8707361 C8.74919407,28.8204668 8.72138943,28.7791741 8.67875564,28.7576302 L8.68060928,28.7540395 C7.94471309,28.4057451 7.4127176,27.7163375 7.30149903,26.8976661 L7.30149903,17.0197487 C8.00959059,17.1005386 9.42577369,17.1813285 12.2562863,17.1813285 C19.08696,17.1813285 23,12.8258528 23,7.98563734 C23,3.79174147 19.294568,0 13.1312057,0" id="ixxvmxydyr" fill="#5B8EF4"></path>
                </g>
            </g>
        </g>
    </g>
</svg>