<svg width="104" height="24" viewBox="0 0 104 24" fill="none" xmlns="http://www.w3.org/2000/svg">
<path fill-rule="evenodd" clip-rule="evenodd" d="M10.1793 4.36537C6.99009 5.77395 4.98437 9.21896 6.15205 12.6424C6.85815 14.7127 8.28107 16.188 10.3912 16.942C14.0812 18.2608 17.9333 15.3611 17.5012 11.5919C17.3177 9.98994 16.5098 8.77014 14.8688 8.26539C13.6482 7.88989 12.48 8.06533 11.5268 8.95839C10.7178 9.71552 10.4111 10.6481 10.7351 11.732C10.9139 12.328 11.3434 12.6989 11.9278 12.8758C12.4408 13.0308 12.8376 12.8066 13.1433 12.3778C13.0817 12.2741 13.0277 12.1608 12.9528 12.0633C12.5539 11.5442 12.8774 10.7891 13.2223 10.4747C13.691 10.0474 14.4501 10.0084 14.9488 10.3623C15.7579 10.9353 16.1257 12.4593 15.686 13.4155C14.9504 15.0149 13.0587 15.9459 11.323 15.4929C8.58268 14.7779 7.23158 12.0536 8.11601 9.42006C9.29133 5.92067 13.2416 4.38999 16.608 6.06839C19.3297 7.42465 20.34 9.79297 20.2315 12.6122C20.0537 17.254 15.4018 20.6975 10.7371 19.8023C6.21317 18.9344 2.85381 14.5727 3.09479 10.448C3.18345 8.92503 3.5202 7.49903 4.29406 6.19047C6.30744 2.78751 9.44364 1.18607 13.3665 0.927011C14.3991 0.858803 15.4405 0.916763 16.4243 0.917267C16.3703 0.893171 16.2469 0.832115 16.1186 0.783899C14.203 0.0616668 12.2233 -0.168661 10.1946 0.122699C8.93673 0.278651 7.77569 0.620795 6.72008 1.11015C6.70073 1.11323 6.67781 1.1199 6.64978 1.13168C6.17496 1.33532 6.09549 0.867514 5.92686 0.725938C5.76282 0.588466 5.78421 0.759275 5.78421 0.759275C5.92739 1.4451 5.56872 1.72158 5.52031 1.75544C5.22126 1.94166 4.93445 2.14273 4.65729 2.35407C4.64914 2.35765 4.64303 2.35765 4.63438 2.36175C3.97972 2.66235 3.70768 2.15451 3.40658 2.00012C3.08818 1.83699 3.20842 2.10476 3.20842 2.10476C3.60273 2.89369 3.26239 3.56874 3.19871 3.68262C2.91955 3.98579 2.65818 4.30434 2.41364 4.63518C2.38817 4.65159 2.36322 4.66698 2.33417 4.69314C1.69125 5.27843 1.19096 4.81523 0.793581 4.72803C0.355441 4.63261 0.603543 4.92143 0.603543 4.92143C1.41409 5.75703 1.15784 6.76191 1.15784 6.76191C0.116515 9.02766 -0.255388 11.6509 0.177136 14.2834C1.59904 22.9364 12.1698 27.0232 19.0989 21.4489C21.3491 19.6386 22.9101 16.1516 23.0748 13.2667C23.1919 11.218 22.5627 9.3585 21.4026 7.67497C18.9414 4.10274 14.0221 2.66799 10.1793 4.36537Z" fill="#E3E3E3"/>
<path d="M31.6878 15.4127V13.3533H34.8396C35.9242 13.3533 36.7308 13.1427 37.2595 12.7213C37.8017 12.2863 38.0729 11.5727 38.0729 10.5804C38.0729 9.69685 37.8221 9.0308 37.3205 8.58223C36.8189 8.13366 36.0462 7.90938 35.0023 7.90938H31.6878V5.87044H35.0633C35.9309 5.87044 36.7104 5.97239 37.4018 6.17628C38.0932 6.38018 38.6829 6.67922 39.1709 7.07342C39.659 7.46761 40.0318 7.97055 40.2893 8.58223C40.5469 9.18032 40.6757 9.87356 40.6757 10.6619C40.6757 11.695 40.4384 12.565 39.964 13.2718C39.5031 13.9786 38.8117 14.5155 37.8898 14.8826C36.9816 15.236 35.8496 15.4127 34.494 15.4127H31.6878ZM30 19.3274V5.87044H32.5622V19.3274H30Z" fill="#E3E3E3"/>
<path d="M46.8661 19.5925C45.8223 19.5925 44.9005 19.3818 44.1006 18.9604C43.3008 18.5255 42.6704 17.8934 42.2095 17.0642C41.7621 16.2215 41.5385 15.1884 41.5385 13.965C41.5385 12.7145 41.7689 11.6814 42.2298 10.8658C42.7043 10.0367 43.3415 9.41819 44.1413 9.01041C44.9411 8.60262 45.8426 8.39873 46.8458 8.39873C47.8896 8.39873 48.8115 8.60942 49.6113 9.0308C50.4111 9.45218 51.0415 10.0842 51.5024 10.927C51.9633 11.7562 52.1938 12.7892 52.1938 14.0262C52.1938 15.2767 51.9633 16.3166 51.5024 17.1458C51.0415 17.9749 50.4044 18.5934 49.591 19.0012C48.7911 19.3954 47.8829 19.5925 46.8661 19.5925ZM46.9678 17.6351C47.5372 17.6351 48.0184 17.506 48.4116 17.2477C48.8047 16.9759 49.1029 16.5749 49.3063 16.0447C49.5232 15.5146 49.6316 14.8825 49.6316 14.1485C49.6316 13.3737 49.5164 12.7145 49.286 12.1708C49.069 11.6135 48.7505 11.1853 48.3302 10.8862C47.9235 10.5872 47.4084 10.4377 46.7848 10.4377C46.2425 10.4377 45.7681 10.5736 45.3614 10.8455C44.9547 11.1037 44.6429 11.4911 44.426 12.0076C44.2226 12.5242 44.121 13.163 44.121 13.9242C44.121 15.1204 44.3718 16.0379 44.8733 16.6768C45.3885 17.3157 46.0866 17.6351 46.9678 17.6351Z" fill="#E3E3E3"/>
<path d="M53.8859 19.3274V8.66379H56.0414L56.0007 12.3339H56.3667C56.4887 11.4639 56.6785 10.7435 56.9361 10.1726C57.1936 9.58811 57.5529 9.15313 58.0138 8.86768C58.4747 8.56864 59.0441 8.41911 59.7219 8.41911C59.8575 8.41911 59.9998 8.42591 60.1489 8.4395C60.3116 8.4531 60.4879 8.48708 60.6776 8.54145L60.576 11.2532C60.3591 11.1717 60.1354 11.1173 59.9049 11.0901C59.688 11.0493 59.4847 11.029 59.2949 11.029C58.7662 11.029 58.3053 11.1649 57.9121 11.4367C57.5326 11.7086 57.2208 12.096 56.9767 12.5989C56.7463 13.0883 56.5701 13.6728 56.448 14.3524V19.3274H53.8859Z" fill="#E3E3E3"/>
<path d="M67.0463 19.5721C65.9211 19.5721 65.0942 19.2731 64.5655 18.675C64.0368 18.0633 63.7724 17.1186 63.7724 15.8408V10.7231H62.2067L62.2473 8.68418H63.2844C63.6775 8.68418 63.969 8.62301 64.1588 8.50067C64.3486 8.37834 64.4638 8.16085 64.5045 7.84821L64.7485 6.29862H66.2329V8.66379H69.0391V10.8047H66.2329V15.7389C66.2329 16.2418 66.3481 16.6089 66.5786 16.8399C66.8226 17.071 67.1819 17.1865 67.6563 17.1865C67.9139 17.1865 68.1647 17.1594 68.4087 17.105C68.6663 17.037 68.9035 16.9283 69.1204 16.7788V19.2255C68.7002 19.3614 68.3138 19.4498 67.9614 19.4905C67.6225 19.5449 67.3174 19.5721 67.0463 19.5721Z" fill="#E3E3E3"/>
<path d="M71.0167 19.3274V4.83058H73.5382V12.9659C73.9992 12.6805 74.4397 12.3679 74.86 12.028C75.2802 11.6746 75.6666 11.3076 76.0191 10.927C76.3715 10.5464 76.6833 10.1658 76.9544 9.7852C77.2256 9.39101 77.4493 9.0172 77.6255 8.66379H80.574C80.3571 9.19391 80.0724 9.71724 79.72 10.2338C79.3675 10.7503 78.954 11.2261 78.4795 11.661C78.0186 12.096 77.4967 12.4766 76.9138 12.8028C76.3309 13.1155 75.7073 13.333 75.043 13.4553V13.7407C75.8835 13.6184 76.5884 13.6592 77.1578 13.8631C77.7272 14.067 78.2084 14.3728 78.6016 14.7806C78.9947 15.1884 79.32 15.6641 79.5776 16.2079C79.8487 16.738 80.0995 17.2817 80.33 17.839L80.8587 19.3274H78.0322L77.7068 18.3487C77.4493 17.6691 77.1781 17.071 76.8934 16.5545C76.6223 16.0244 76.2766 15.6166 75.8564 15.3311C75.4497 15.0321 74.921 14.8826 74.2703 14.8826H73.5382V19.3274H71.0167Z" fill="#E3E3E3"/>
<path d="M87.0203 19.5925C86.1663 19.5925 85.4003 19.4702 84.7225 19.2255C84.0582 18.9808 83.4957 18.6274 83.0347 18.1652C82.5738 17.6895 82.2214 17.1186 81.9773 16.4525C81.7333 15.7865 81.6113 15.0321 81.6113 14.1893C81.6113 13.3465 81.7265 12.5718 81.957 11.8649C82.201 11.1581 82.5467 10.5464 82.9941 10.0299C83.4414 9.51334 83.9837 9.11235 84.6208 8.8269C85.2715 8.54145 86.0104 8.39873 86.8373 8.39873C87.61 8.39873 88.3014 8.52786 88.9114 8.78612C89.5215 9.04439 90.0366 9.43179 90.4569 9.94832C90.8771 10.4513 91.1889 11.0833 91.3923 11.8445C91.5956 12.5921 91.6634 13.4621 91.5956 14.4544L83.2788 14.5155V13.0271L90.1112 12.9659L89.2165 13.8019C89.2978 13.0271 89.2368 12.395 89.0334 11.9057C88.8301 11.4028 88.5386 11.0358 88.1591 10.8047C87.7795 10.56 87.3457 10.4377 86.8576 10.4377C86.3018 10.4377 85.8138 10.5872 85.3935 10.8862C84.9733 11.1717 84.648 11.5931 84.4175 12.1504C84.2006 12.6941 84.0921 13.3601 84.0921 14.1485C84.0921 15.3311 84.3497 16.2147 84.8649 16.7992C85.3936 17.3836 86.112 17.6759 87.0203 17.6759C87.427 17.6759 87.7659 17.6283 88.0371 17.5332C88.3217 17.4244 88.559 17.2885 88.7488 17.1254C88.9386 16.9487 89.0877 16.7516 89.1961 16.5341C89.3181 16.3166 89.413 16.0855 89.4808 15.8408L91.7176 16.3506C91.6092 16.8535 91.4329 17.3021 91.1889 17.6963C90.9449 18.0905 90.6263 18.4303 90.2332 18.7158C89.8536 19.0012 89.3995 19.2187 88.8708 19.3682C88.3421 19.5177 87.7253 19.5925 87.0203 19.5925Z" fill="#E3E3E3"/>
<path d="M97.6434 22.9771C97.1011 22.9771 96.5521 22.9228 95.9963 22.814C95.4405 22.7053 94.9185 22.5354 94.4305 22.3043C93.956 22.0868 93.5561 21.8013 93.2308 21.4479L94.1052 19.3274C94.4983 19.776 95.0067 20.1158 95.6303 20.3469C96.2539 20.578 96.8842 20.6935 97.5214 20.6935C98.267 20.6935 98.8838 20.5372 99.3718 20.2246C99.8599 19.9255 100.233 19.4566 100.49 18.8177C100.748 18.1788 100.89 17.3836 100.917 16.4321L101.06 14.4952H100.633C100.497 15.4195 100.273 16.1739 99.9615 16.7584C99.6497 17.3293 99.2566 17.7507 98.7821 18.0225C98.3212 18.2808 97.779 18.4099 97.1554 18.4099C96.3826 18.4099 95.7319 18.2128 95.2032 17.8186C94.6745 17.4244 94.2746 16.8399 94.0035 16.0651C93.7459 15.2903 93.6171 14.332 93.6171 13.1902V8.66379H96.1996V12.5989C96.1996 13.8767 96.3555 14.8078 96.6673 15.3923C96.9791 15.9632 97.4536 16.2486 98.0908 16.2486C98.4297 16.2486 98.7415 16.1603 99.0261 15.9836C99.3108 15.7933 99.5481 15.5282 99.7379 15.1884C99.9412 14.835 100.097 14.4 100.206 13.8835C100.328 13.3669 100.395 12.7756 100.409 12.1096V8.66379H102.991V16.5341C102.991 17.3904 102.917 18.1652 102.768 18.8585C102.632 19.5381 102.422 20.1294 102.137 20.6324C101.853 21.1489 101.493 21.5839 101.06 21.9373C100.639 22.2907 100.145 22.549 99.5752 22.7121C99.0058 22.8888 98.3619 22.9771 97.6434 22.9771Z" fill="#E3E3E3"/>
</svg>
