<svg width="24" height="24" viewBox="0 0 24 24" fill="none" xmlns="http://www.w3.org/2000/svg">
<path fill-rule="evenodd" clip-rule="evenodd" d="M10.6948 5.00159C7.75132 6.29279 5.9001 9.45072 6.97782 12.5889C7.62953 14.4867 8.94283 15.839 10.8904 16.5302C14.2962 17.7391 17.8514 15.081 17.4527 11.6259C17.2834 10.1574 16.5377 9.03929 15.0231 8.5766C13.8965 8.2324 12.8183 8.39322 11.9385 9.21185C11.1918 9.90588 10.9088 10.7607 11.2078 11.7543C11.3729 12.3007 11.7693 12.6406 12.3086 12.8029C12.7821 12.9449 13.1484 12.7394 13.4305 12.3463C13.3736 12.2513 13.3238 12.1474 13.2547 12.058C12.8865 11.5822 13.1851 10.89 13.5034 10.6018C13.936 10.2101 14.6366 10.1744 15.0969 10.4988C15.8436 11.024 16.1831 12.421 15.7773 13.2975C15.0984 14.7636 13.3525 15.6171 11.7505 15.2019C9.2212 14.5464 7.9742 12.0491 8.79048 9.63504C9.87526 6.42727 13.5213 5.02416 16.6284 6.56269C19.1403 7.80592 20.0727 9.97689 19.9726 12.5612C19.8085 16.8161 15.515 19.9726 11.2097 19.1521C7.03425 18.3565 3.93368 14.3583 4.15609 10.5773C4.23791 9.18129 4.54871 7.8741 5.26296 6.6746C7.12124 3.55522 10.0159 2.08722 13.6365 1.84977C14.5896 1.78723 15.5507 1.84036 16.4587 1.84083C16.4088 1.81873 16.295 1.76278 16.1766 1.71858C14.4086 1.05652 12.5813 0.845396 10.7089 1.11248C9.54799 1.25542 8.47638 1.56905 7.50211 2.01763C7.48424 2.02045 7.46308 2.02656 7.43722 2.03738C6.99898 2.22405 6.92563 1.79522 6.76999 1.66544C6.61858 1.53943 6.63833 1.69601 6.63833 1.69601C6.77046 2.32468 6.43943 2.57812 6.39476 2.60916C6.11875 2.77984 5.85402 2.96416 5.59822 3.15789C5.5907 3.16118 5.58506 3.16118 5.57706 3.16494C4.97284 3.44049 4.72175 2.97498 4.44386 2.83345C4.14998 2.68392 4.26095 2.92937 4.26095 2.92937C4.62489 3.65255 4.31079 4.27135 4.25201 4.37574C3.99434 4.65363 3.75312 4.94563 3.52742 5.24892C3.50391 5.26396 3.48087 5.27807 3.45406 5.30205C2.86066 5.83856 2.39891 5.41396 2.03215 5.33403C1.62777 5.24657 1.85676 5.5113 1.85676 5.5113C2.60486 6.27727 2.36835 7.19841 2.36835 7.19841L2.37023 7.19935C1.40912 9.27627 1.06398 11.68 1.46319 14.0931C2.77555 22.0251 12.5319 25.7713 18.9273 20.6615C21.0042 19.0021 22.4449 15.8056 22.5968 13.1612C22.705 11.2831 22.1242 9.57862 21.0536 8.03539C18.782 4.76084 14.2416 3.44566 10.6948 5.00159Z" fill="#B6BABF"/>
</svg>
