<svg width="16" height="16" viewBox="0 0 16 16" fill="none" xmlns="http://www.w3.org/2000/svg">
<g clip-path="url(#clip0_4820_15486)">
<path d="M13.8192 12.5459C9.93856 12.5463 6.0579 12.5473 2.17725 12.5458C2.17736 12.9996 2.17726 13.4533 2.17726 13.907C2.17733 14.0273 2.22116 14.1426 2.29912 14.2277C2.37707 14.3128 2.48279 14.3606 2.59304 14.3607H13.4034C13.5137 14.3606 13.6194 14.3128 13.6974 14.2277C13.7753 14.1426 13.8191 14.0273 13.8192 13.907C13.8192 13.4533 13.8191 12.9996 13.8192 12.5459Z" fill="#F9CB27"/>
<path d="M7.1282 2.05364C7.21872 1.90333 7.34656 1.77898 7.49931 1.69266C7.65206 1.60634 7.82454 1.56097 8 1.56097C8.17546 1.56097 8.34794 1.60634 8.50069 1.69266C8.65344 1.77898 8.78129 1.90333 8.8718 2.05364L11.7311 6.80002L15.3623 4.53794C15.4339 4.49336 15.5173 4.47151 15.6015 4.47528C15.6857 4.47904 15.7668 4.50825 15.8341 4.55904C15.9015 4.60984 15.9518 4.67983 15.9785 4.7598C16.0052 4.83977 16.0071 4.92596 15.9838 5.00701L13.8205 12.5459H2.17952L0.01617 5.00701C-0.00707852 4.92596 -0.00521985 4.83977 0.0215009 4.7598C0.0482217 4.67983 0.0985499 4.60984 0.165851 4.55904C0.233151 4.50825 0.314265 4.47904 0.398497 4.47528C0.48273 4.47151 0.566126 4.49336 0.637692 4.53794L4.26892 6.80002L7.1282 2.05364Z" fill="#FF9B4C"/>
<path d="M1.47531 10.0598L0.0393633 5.00701C0.0161148 4.92596 0.0179735 4.83977 0.0446943 4.7598C0.071415 4.67983 0.121743 4.60984 0.189044 4.55904C0.256345 4.50825 0.337458 4.47904 0.421691 4.47528C0.505923 4.47151 0.58932 4.49336 0.660886 4.53794L4.29212 6.80002L7.15139 2.05364C7.24191 1.90333 7.36975 1.77898 7.5225 1.69266C7.67526 1.60634 7.84774 1.56097 8.02319 1.56097C8.19865 1.56097 8.37113 1.60634 8.52388 1.69266C8.67664 1.77898 8.80448 1.90333 8.895 2.05364L11.7057 6.71935L11.6144 8.14321C11.6144 9.74943 10.3104 10.6741 8.70419 10.6741H2.8698C2.51765 10.6741 1.7852 10.4964 1.47531 10.0598Z" fill="#F9CB27"/>
<path d="M11.7059 6.71936L11.6146 8.14321C11.6146 9.74944 10.3106 10.6753 8.70438 10.6753H7.88354L7.88357 1.57069C8.08095 1.5433 8.28204 1.57447 8.46188 1.66032C8.64172 1.74618 8.79239 1.88294 8.89521 2.05364L11.7059 6.71936Z" fill="#FAAD14"/>
<path d="M7.52801 6.73625C7.56703 6.67774 7.61989 6.62975 7.6819 6.59657C7.74392 6.56338 7.81317 6.54602 7.8835 6.54602C7.95384 6.54602 8.02309 6.56338 8.0851 6.59657C8.14712 6.62975 8.19998 6.67774 8.239 6.73625L9.21796 8.20466C9.26475 8.27484 9.28971 8.3573 9.28971 8.44165C9.28971 8.526 9.26475 8.60847 9.21796 8.67865L8.239 10.1471C8.19998 10.2056 8.14712 10.2536 8.0851 10.2867C8.02309 10.3199 7.95384 10.3373 7.8835 10.3373C7.81317 10.3373 7.74392 10.3199 7.6819 10.2867C7.61989 10.2536 7.56703 10.2056 7.52801 10.1471L6.54905 8.67865C6.50226 8.60847 6.47729 8.526 6.47729 8.44165C6.47729 8.3573 6.50226 8.27484 6.54905 8.20466L7.52801 6.73625Z" fill="#EA4F45"/>
</g>
<defs>
<clipPath id="clip0_4820_15486">
<rect width="16" height="16" fill="white"/>
</clipPath>
</defs>
</svg>
