<?xml version="1.0" encoding="UTF-8"?>
<svg width="80px" height="80px" viewBox="0 0 80 80" version="1.1" xmlns="http://www.w3.org/2000/svg" xmlns:xlink="http://www.w3.org/1999/xlink">
    <title>master6</title>
    <g id="icon" stroke="none" stroke-width="1" fill="none" fill-rule="evenodd">
        <g id="Special" transform="translate(-150.000000, -213.000000)" fill-rule="nonzero">
            <g id="master6" transform="translate(150.000000, 213.000000)">
                <circle id="shape" fill="#F9D778" cx="40" cy="40" r="40"></circle>
                <ellipse id="shape" fill="#CC811D" cx="40" cy="38.792" rx="19.904" ry="24.104"></ellipse>
                <ellipse id="shape" fill="#F7A328" cx="40.192" cy="38.192" rx="19.16" ry="23.504"></ellipse>
                <circle id="shape" fill="#FFFFFF" cx="40.192" cy="35.496" r="9.824"></circle>
                <circle id="shape" fill="#383838" cx="39.944" cy="34.936" r="3.264"></circle>
                <circle id="shape" fill="#FFFFFF" cx="40.192" cy="35.496" r="1.208"></circle>
                <path d="M50.312,56.12 C50.312,55.92 50.296,55.744 50.272,55.584 C49.84,52.336 45.496,49.792 40.192,49.792 C34.6,49.792 30.072,52.624 30.072,56.12 C29.952,58.952 28.312,57.528 28.312,57.528 L28.888,58.84 L31.688,60.296 L32.584,60.296 C34.44,61.616 37.152,62.456 40.184,62.456 C41.912,62.456 43.536,62.184 44.96,61.704 L45.768,61.704 L51.416,58.872 L51.848,57.648 C51.848,57.648 50.296,59.28 50.304,56.128 L50.312,56.12 Z" id="shape" fill="#CC811D"></path>
                <ellipse id="shape" fill="#724110" cx="40.184" cy="55.696" rx="8.528" ry="4.736"></ellipse>
                <path d="M37.328,60.176 C37.328,60.176 36.848,57.904 37.72,57.168 C38.592,56.432 39.8,56.664 39.816,58.016 C39.832,59.368 39.512,60.408 39.512,60.408 C39.512,60.408 37.832,60.328 37.328,60.176 L37.328,60.176 Z" id="shape" fill="#FFFFFF"></path>
                <path d="M40.472,60.424 C40.472,60.424 39.912,57.2 40.688,56.456 C41.368,55.808 42.792,55.656 42.896,57.16 C43,58.664 42.592,60.232 42.592,60.232 C42.592,60.232 41.176,60.432 40.472,60.424 Z" id="shape" fill="#FFFFFF"></path>
                <path d="M36.76,15.576 L35.008,12.344 C34.856,12.064 35.192,11.784 35.44,11.976 L38.824,14.616 C38.992,14.744 39.232,14.664 39.28,14.456 L40.464,9.68 C40.536,9.376 40.968,9.392 41.032,9.696 L41.92,14.344 C41.96,14.568 42.232,14.656 42.4,14.504 L46.096,11.24 C46.336,11.032 46.688,11.296 46.552,11.584 L44.416,16.104 C44.368,16.208 44.256,16.496 44.048,16.496 C42.952,16.496 37.232,16.424 36.76,15.56 L36.76,15.576 Z" id="shape" fill="#CC811D"></path>
                <path d="M36.192,61.208 L36.192,68.648 C36.192,68.648 34.968,67.528 33.008,67.808 C31.048,68.088 30.488,70.008 31.408,70.376 C32.128,70.656 35.4,70.496 36.808,70.416 C37.168,70.392 37.44,70.088 37.416,69.728 L36.896,61.216 L36.192,61.216 L36.192,61.208 Z" id="shape" fill="#CC811D"></path>
                <path d="M42.816,61.208 L42.816,68.648 C42.816,68.648 44.04,67.528 46,67.808 C47.96,68.088 48.52,70.008 47.6,70.376 C46.88,70.656 43.608,70.496 42.2,70.416 C41.84,70.392 41.568,70.088 41.592,69.728 L42.112,61.216 L42.816,61.216 L42.816,61.208 Z" id="shape" fill="#CC811D"></path>
                <ellipse id="shape" fill="#CC811D" cx="23.744" cy="37.512" rx="1.512" ry="1.696"></ellipse>
                <circle id="shape" fill="#CC811D" cx="56.456" cy="43.176" r="1.64"></circle>
                <ellipse id="shape" fill="#CC811D" cx="49.248" cy="49.792" rx="1.112" ry="1.288"></ellipse>
                <ellipse id="shape" fill="#CC811D" cx="53.824" cy="50.112" rx="1" ry="1"></ellipse>
                <ellipse id="shape" fill="#CC811D" transform="translate(27.021213, 52.488987) rotate(-13.360000) translate(-27.021213, -52.488987) " cx="27.0212127" cy="52.4889873" rx="1.296" ry="1.128"></ellipse>
                <ellipse id="shape" fill="#CC811D" cx="22.848" cy="43.128" rx="1" ry="1"></ellipse>
            </g>
        </g>
    </g>
</svg>