<?xml version="1.0" encoding="UTF-8"?>
<svg width="80px" height="80px" viewBox="0 0 80 80" version="1.1" xmlns="http://www.w3.org/2000/svg" xmlns:xlink="http://www.w3.org/1999/xlink">
    <title>master2</title>
    <g id="icon" stroke="none" stroke-width="1" fill="none" fill-rule="evenodd">
        <g id="Special" transform="translate(-450.000000, -213.000000)" fill-rule="nonzero">
            <g id="master2" transform="translate(450.000000, 213.000000)">
                <circle id="shape" fill="#BBE5FF" cx="40" cy="40" r="40"></circle>
                <path d="M58.92,15.04 C57.784,15.04 56.856,15.96 56.856,17.104 C56.856,17.368 56.912,17.616 57,17.848 C56.712,18.072 56.384,18.32 55.976,18.648 C53.712,20.448 51.96,18.648 51.96,18.648 L52.312,21.816 C52.312,21.816 55.544,23.264 55.44,21.528 C55.384,20.544 56.512,19.4 57.496,18.6 C57.864,18.952 58.368,19.176 58.92,19.176 C60.056,19.176 60.984,18.256 60.984,17.112 C60.984,15.968 60.064,15.048 58.92,15.048 L58.92,15.04 Z" id="shape" fill="#365299"></path>
                <path d="M23.32,13.92 C24.52,13.92 25.488,14.896 25.488,16.088 C25.488,16.368 25.432,16.624 25.336,16.872 C25.64,17.104 25.984,17.376 26.416,17.712 C28.8,19.608 30.64,17.712 30.64,17.712 L30.272,21.04 C30.272,21.04 26.872,22.56 26.976,20.736 C27.04,19.696 25.848,18.496 24.808,17.648 C24.416,18.016 23.896,18.248 23.312,18.248 C22.112,18.248 21.144,17.272 21.144,16.08 C21.144,14.888 22.12,13.912 23.312,13.912 L23.32,13.92 Z" id="shape" fill="#365299"></path>
                <path d="M59.192,39.584 C59.192,39.584 62.152,40.384 64.328,36.856 C66.504,33.328 69.408,31.68 70.752,33.72 C72.096,35.76 72.584,42.304 65.944,44.328 C59.304,46.352 57.064,40.128 57.064,40.128 L59.184,39.576 L59.192,39.584 Z" id="shape" fill="#849DF7"></path>
                <ellipse id="shape" fill="#365299" cx="67.04" cy="39.136" rx="1.944" ry="2.384"></ellipse>
                <ellipse id="shape" fill="#365299" transform="translate(67.369601, 35.537055) rotate(-83.190000) translate(-67.369601, -35.537055) " cx="67.369601" cy="35.5370548" rx="1" ry="1"></ellipse>
                <ellipse id="shape" fill="#365299" transform="translate(68.860027, 36.158593) rotate(-50.460000) translate(-68.860027, -36.158593) " cx="68.8600268" cy="36.1585928" rx="1" ry="1"></ellipse>
                <ellipse id="shape" fill="#365299" transform="translate(69.933958, 37.333671) rotate(-36.120000) translate(-69.933958, -37.333671) " cx="69.9339576" cy="37.3336708" rx="1" ry="1"></ellipse>
                <path d="M20.808,37.864 C20.808,37.864 17.848,38.664 15.672,35.136 C13.496,31.616 10.592,29.96 9.248,32 C7.904,34.04 7.416,40.584 14.056,42.608 C20.696,44.632 22.936,38.408 22.936,38.408 L20.816,37.856 L20.808,37.864 Z" id="shape" fill="#849DF7"></path>
                <ellipse id="shape" fill="#365299" cx="12.96" cy="37.416" rx="1.944" ry="2.384"></ellipse>
                <ellipse id="shape" fill="#365299" transform="translate(12.632688, 33.815554) rotate(-6.810000) translate(-12.632688, -33.815554) " cx="12.6326881" cy="33.8155542" rx="1" ry="1"></ellipse>
                <ellipse id="shape" fill="#365299" transform="translate(11.142038, 34.452256) rotate(-39.540000) translate(-11.142038, -34.452256) " cx="11.1420383" cy="34.4522557" rx="1" ry="1"></ellipse>
                <ellipse id="shape" fill="#365299" transform="translate(10.062551, 35.617322) rotate(-53.880000) translate(-10.062551, -35.617322) " cx="10.0625511" cy="35.6173215" rx="1" ry="1"></ellipse>
                <ellipse id="shape" fill="#849DF7" cx="27.112" cy="58.896" rx="6.632" ry="7.184"></ellipse>
                <ellipse id="shape" fill="#365299" cx="27.944" cy="58.128" rx="4.064" ry="4.368"></ellipse>
                <ellipse id="shape" fill="#849DF7" cx="52.072" cy="58.896" rx="6.632" ry="7.184"></ellipse>
                <ellipse id="shape" fill="#365299" cx="52.072" cy="58.128" rx="4.328" ry="5.224"></ellipse>
                <ellipse id="shape" fill="#4D75F4" cx="40.2" cy="38.792" rx="22.192" ry="23.744"></ellipse>
                <circle id="shape" fill="#FFFFFF" cx="39.816" cy="33.808" r="11.288"></circle>
                <circle id="shape" fill="#BBE5FF" cx="56.264" cy="42.376" r="3.584"></circle>
                <circle id="shape" fill="#BBE5FF" cx="23.632" cy="41.52" r="3.152"></circle>
                <circle id="shape" fill="#383838" cx="39.816" cy="34.768" r="5.952"></circle>
                <circle id="shape" fill="#FFFFFF" cx="39.816" cy="34.768" r="1.392"></circle>
                <path d="M39.256,49.384 C42.552,49.272 44.64,49.064 46.672,47.416 C48.704,45.768 50.848,48.512 49.128,51.12 C47.416,53.728 44.12,55.424 40.16,55.488 C36.2,55.552 32.808,53.656 31.224,51.712 C29.64,49.768 31.608,47.624 33.52,48.448 C35.432,49.272 39.256,49.384 39.256,49.384 L39.256,49.384 Z" id="shape" fill="#365299"></path>
                <path d="M34.44,51.2 C34.912,51.352 36.864,49.2 36.864,49.2 C36.864,49.2 35.36,49.072 34.44,48.76 C34.44,48.76 33.888,50.032 33.888,50.64 C33.888,51.248 34.44,51.208 34.44,51.208 L34.44,51.2 Z" id="shape" fill="#FFFFFF"></path>
                <path d="M43.104,49.048 C43.104,49.048 44.024,51.224 45.056,51.208 C46.088,51.192 45.44,48.24 45.44,48.24 C45.44,48.24 44.608,48.768 43.104,49.048 L43.104,49.048 Z" id="shape" fill="#FFFFFF"></path>
                <path d="M36.68,55.064 C37.712,55.336 38.88,55.504 40.128,55.488 C41.552,55.472 42.856,55.256 43.984,54.888 C43.344,54 41.976,53.392 40.392,53.392 C38.704,53.392 37.256,54.088 36.68,55.064 Z" id="shape" fill="#CCFFDD"></path>
            </g>
        </g>
    </g>
</svg>