<svg width="41" height="40" viewBox="0 0 41 40" fill="none" xmlns="http://www.w3.org/2000/svg">
<path d="M39.5 20C39.5 30.4934 30.9934 39 20.5 39C10.0066 39 1.5 30.4934 1.5 20C1.5 9.50659 10.0066 1 20.5 1C30.9934 1 39.5 9.50659 39.5 20Z" fill="#00B75F" stroke="white" stroke-width="2"/>
<path fill-rule="evenodd" clip-rule="evenodd" d="M18.5202 22.5174L13.7925 17.7897C13.6025 17.5997 13.2945 17.5997 13.1045 17.7897L11.6425 19.2517C11.4525 19.4417 11.4525 19.7497 11.6425 19.9397L17.6589 25.9562C17.8892 26.1864 18.1889 26.3051 18.4906 26.3121C18.8121 26.3201 19.1361 26.2015 19.3814 25.9562L29.3575 15.9801C29.5475 15.7901 29.5475 15.4821 29.3575 15.2921L27.8955 13.8301C27.7055 13.6401 27.3975 13.6401 27.2075 13.8301L18.5202 22.5174Z" fill="white"/>
</svg>
