<svg width="49" height="49" viewBox="0 0 49 49" fill="none" xmlns="http://www.w3.org/2000/svg">
<g filter="url(#filter0_d_13650_5760)">
<path d="M43.5039 20.039C43.5039 30.5324 34.9973 39.039 24.5039 39.039C14.0105 39.039 5.50391 30.5324 5.50391 20.039C5.50391 9.54559 14.0105 1.039 24.5039 1.039C34.9973 1.039 43.5039 9.54559 43.5039 20.039Z" fill="#F53F3F" stroke="white" stroke-width="2"/>
<path fill-rule="evenodd" clip-rule="evenodd" d="M17.6486 15.3668C17.4557 15.1739 17.4557 14.8611 17.6486 14.6682L19.1332 13.1836C19.3261 12.9907 19.6389 12.9907 19.8318 13.1836L24.504 17.8558L29.176 13.1838C29.3689 12.9909 29.6817 12.9909 29.8746 13.1838L31.3592 14.6684C31.5521 14.8613 31.5521 15.1741 31.3592 15.367L26.6872 20.039L31.3591 24.711C31.5521 24.9039 31.5521 25.2167 31.3591 25.4096L29.8746 26.8942C29.6816 27.0871 29.3689 27.0871 29.1759 26.8942L24.504 22.2223L19.8319 26.8944C19.639 27.0873 19.3262 27.0873 19.1332 26.8944L17.6487 25.4098C17.4557 25.2169 17.4557 24.9041 17.6487 24.7112L22.3208 20.039L17.6486 15.3668Z" fill="white"/>
</g>
<defs>
<filter id="filter0_d_13650_5760" x="0.503906" y="0.0390015" width="48" height="48" filterUnits="userSpaceOnUse" color-interpolation-filters="sRGB">
<feFlood flood-opacity="0" result="BackgroundImageFix"/>
<feColorMatrix in="SourceAlpha" type="matrix" values="0 0 0 0 0 0 0 0 0 0 0 0 0 0 0 0 0 0 127 0" result="hardAlpha"/>
<feOffset dy="4"/>
<feGaussianBlur stdDeviation="2"/>
<feComposite in2="hardAlpha" operator="out"/>
<feColorMatrix type="matrix" values="0 0 0 0 0 0 0 0 0 0 0 0 0 0 0 0 0 0 0.1 0"/>
<feBlend mode="normal" in2="BackgroundImageFix" result="effect1_dropShadow_13650_5760"/>
<feBlend mode="normal" in="SourceGraphic" in2="effect1_dropShadow_13650_5760" result="shape"/>
</filter>
</defs>
</svg>
