<svg width="22" height="22" viewBox="0 0 22 22" fill="none" xmlns="http://www.w3.org/2000/svg">
<path d="M12.6499 4.26273C12.6499 5.17396 11.9112 5.91266 11 5.91266C10.0887 5.91266 9.35003 5.17396 9.35003 4.26273C9.35003 3.35149 10.0887 2.61279 11 2.61279C11.9112 2.61279 12.6499 3.35149 12.6499 4.26273ZM10.9998 12.6501C10.0886 12.6501 9.3499 11.9114 9.3499 11.0002C9.3499 10.0889 10.0886 9.35022 10.9998 9.35022C11.9111 9.35022 12.6498 10.0889 12.6498 11.0002C12.6498 11.9114 11.9111 12.6501 10.9998 12.6501ZM11 19.3872C11.9112 19.3872 12.6499 18.6485 12.6499 17.7372C12.6499 16.826 11.9112 16.0873 11 16.0873C10.0887 16.0873 9.35003 16.826 9.35003 17.7372C9.35003 18.6485 10.0887 19.3872 11 19.3872Z" fill="#55585E"/>
</svg>
