<svg width="20" height="20" viewBox="0 0 20 20" fill="none" xmlns="http://www.w3.org/2000/svg">
<path fill-rule="evenodd" clip-rule="evenodd" d="M5.75 10C5.75 10.825 5.075 11.5 4.25 11.5C3.425 11.5 2.75 10.825 2.75 10C2.75 9.175 3.425 8.5 4.25 8.5C5.075 8.5 5.75 9.175 5.75 10ZM10.25 8.5C9.425 8.5 8.75 9.175 8.75 10C8.75 10.825 9.425 11.5 10.25 11.5C11.075 11.5 11.75 10.825 11.75 10C11.75 9.175 11.075 8.5 10.25 8.5ZM16.25 8.5C15.425 8.5 14.75 9.175 14.75 10C14.75 10.825 15.425 11.5 16.25 11.5C17.075 11.5 17.75 10.825 17.75 10C17.75 9.175 17.075 8.5 16.25 8.5Z" fill="white"/>
</svg>
