<svg width="20" height="20" viewBox="0 0 20 20" fill="none" xmlns="http://www.w3.org/2000/svg">
<rect width="20" height="20" rx="4" fill="white"/>
<path d="M6.2999 10.0001C6.2999 10.6628 5.76264 11.2001 5.0999 11.2001C4.43716 11.2001 3.8999 10.6628 3.8999 10.0001C3.8999 9.33735 4.43716 8.80009 5.0999 8.80009C5.76264 8.80009 6.2999 9.33735 6.2999 10.0001ZM11.2001 10.0001C11.2001 10.6628 10.6628 11.2001 10.0001 11.2001C9.33731 11.2001 8.80005 10.6628 8.80005 10.0001C8.80005 9.33735 9.33731 8.80009 10.0001 8.80009C10.6628 8.80009 11.2001 9.33735 11.2001 10.0001ZM14.9 11.2001C15.5627 11.2001 16.1 10.6628 16.1 10.0001C16.1 9.33735 15.5627 8.80009 14.9 8.80009C14.2372 8.80009 13.7 9.33735 13.7 10.0001C13.7 10.6628 14.2372 11.2001 14.9 11.2001Z" fill="#979AA1"/>
</svg>
