<svg width="32" height="32" viewBox="0 0 32 32" fill="none" xmlns="http://www.w3.org/2000/svg">
<g id="suggest-circle info">
<path id="Union" d="M16 27.5C22.3513 27.5 27.5 22.3513 27.5 16C27.5 9.64872 22.3513 4.5 16 4.5C9.64872 4.5 4.5 9.64872 4.5 16C4.5 22.3513 9.64872 27.5 16 27.5ZM16 30C8.26801 30 2 23.732 2 16C2 8.26801 8.26801 2 16 2C23.732 2 30 8.26801 30 16C30 23.732 23.732 30 16 30ZM17.4043 20.5V14.4C17.4043 14.1791 17.2252 14 17.0043 14H14.0499C13.829 14 13.6499 14.1791 13.6499 14.4V16.1C13.6499 16.3209 13.829 16.5 14.0499 16.5H14.9043V20.5H14.0499C13.829 20.5 13.6499 20.6791 13.6499 20.9V22.6C13.6499 22.8209 13.829 23 14.0499 23H17.9499C18.1708 23 18.3499 22.8209 18.3499 22.6V20.9C18.3499 20.6791 18.1708 20.5 17.9499 20.5H17.4043ZM16.0002 12.6C16.9943 12.6 17.8002 11.7941 17.8002 10.8C17.8002 9.80589 16.9943 9 16.0002 9C15.0061 9 14.2002 9.80589 14.2002 10.8C14.2002 11.7941 15.0061 12.6 16.0002 12.6Z" fill="#55585E"/>
</g>
</svg>
