<svg width="20" height="20" viewBox="0 0 20 20" fill="none" xmlns="http://www.w3.org/2000/svg">
<rect width="20" height="20" rx="4" fill="#EFECFF"/>
<path d="M6.29989 10.0001C6.29989 10.6628 5.76263 11.2001 5.09989 11.2001C4.43715 11.2001 3.89989 10.6628 3.89989 10.0001C3.89989 9.33735 4.43715 8.80009 5.09989 8.80009C5.76263 8.80009 6.29989 9.33735 6.29989 10.0001ZM11.2 10.0001C11.2 10.6628 10.6628 11.2001 10 11.2001C9.33729 11.2001 8.80003 10.6628 8.80003 10.0001C8.80003 9.33735 9.33729 8.80009 10 8.80009C10.6628 8.80009 11.2 9.33735 11.2 10.0001ZM14.8999 11.2001C15.5627 11.2001 16.0999 10.6628 16.0999 10.0001C16.0999 9.33735 15.5627 8.80009 14.8999 8.80009C14.2372 8.80009 13.6999 9.33735 13.6999 10.0001C13.6999 10.6628 14.2372 11.2001 14.8999 11.2001Z" fill="#5D42FF"/>
</svg>
