<svg width="24" height="24" viewBox="0 0 24 24" fill="none" xmlns="http://www.w3.org/2000/svg">
<path fill-rule="evenodd" clip-rule="evenodd" d="M5.79573 7.55769C5.79573 4.21839 8.51412 1.5 11.8534 1.5C15.1927 1.5 17.9111 4.21839 17.9111 7.55769C17.9111 10.897 15.1927 13.6154 11.8534 13.6154C8.51412 13.6154 5.79573 10.897 5.79573 7.55769ZM16.1216 13.9309C16.6794 13.5573 17.4114 13.57 17.9566 13.9612C20.1247 15.516 21.6795 17.8734 22.1793 20.5969C22.361 21.5888 21.5962 22.5 20.5891 22.5H3.1152C2.10559 22.5 1.34333 21.5838 1.52758 20.5893C1.92133 18.459 2.95871 16.5534 4.43275 15.0793C4.83912 14.6704 5.28083 14.2969 5.7503 13.9612C6.29549 13.57 7.02999 13.5573 7.58528 13.9309C8.80439 14.7512 10.2759 15.2308 11.8534 15.2308C13.4309 15.2308 14.8999 14.7512 16.1216 13.9309Z" fill="#B6BABF"/>
</svg>
