
<svg width="22px" height="22px" viewBox="0 0 22 22" version="1.1" xmlns="http://www.w3.org/2000/svg" xmlns:xlink="http://www.w3.org/1999/xlink">
    <title>rewbbtbkvk</title>
    <g id="vjlytbudms" stroke="none" stroke-width="1" fill="none" fill-rule="evenodd">
        <g id="rmjhlncmjy" transform="translate(-250.000000, -737.000000)">
            <g id="xdplbxnhyu" transform="translate(0.000000, 729.000000)">
                <g id="coggteyqni" transform="translate(250.000000, 8.000000)">
                    <rect id="kvbldhespk" opacity="0" x="0" y="0" width="22" height="22"></rect>
                    <path d="M10.8656394,1.375 C7.80461171,1.375 5.31275474,3.86685697 5.31275474,6.92788462 C5.31275474,9.98891226 7.80461171,12.4807692 10.8656394,12.4807692 C13.926667,12.4807692 16.418524,9.98891226 16.418524,6.92788462 C16.418524,3.86685697 13.926667,1.375 10.8656394,1.375 Z M16.4601706,12.7977464 C15.960411,12.4391226 15.2894374,12.4275541 14.7781093,12.769982 C13.6582776,13.5219351 12.3117031,13.9615385 10.8656394,13.9615385 C9.41957565,13.9615385 8.07068743,13.5219351 6.9531694,12.769982 C6.44415498,12.4275541 5.77086772,12.4391226 5.2711081,12.7977464 C4.84075954,13.1054687 4.43586171,13.4478966 4.0633557,13.8227163 C2.71215377,15.1739183 1.76122228,16.9207632 1.40028478,18.8735276 C1.23138454,19.7851262 1.93012252,20.625 2.85560329,20.625 L18.8733617,20.625 C19.7965288,20.625 20.4975805,19.7897536 20.3309939,18.8804687 C19.8728809,16.3839844 18.4476406,14.2229868 16.4601706,12.7977464 Z" id="dfxztwfwhl" fill="#5B8EF4"></path>
                </g>
            </g>
        </g>
    </g>
</svg>