<svg width="25" height="24" viewBox="0 0 25 24" fill="none" xmlns="http://www.w3.org/2000/svg">
<path d="M22.1299 12.1088C22.1299 17.7006 17.5968 22.2338 12.0049 22.2338C6.413 22.2338 1.87988 17.7006 1.87988 12.1088C1.87988 6.51688 6.413 1.98376 12.0049 1.98376C17.5968 1.98376 22.1299 6.51688 22.1299 12.1088ZM7.59863 15.1562V16.6875C7.59863 16.8946 7.76653 17.0625 7.97363 17.0625H16.2236C16.4307 17.0625 16.5986 16.8946 16.5986 16.6875V15.1562C16.5986 14.8657 16.4309 14.6013 16.168 14.4776L15.9614 14.3804C13.5149 13.229 10.6823 13.229 8.23585 14.3804L8.02927 14.4776C7.76641 14.6013 7.59863 14.8657 7.59863 15.1562ZM12.0986 12.1875C13.5484 12.1875 14.7236 11.0122 14.7236 9.5625C14.7236 8.11275 13.5484 6.9375 12.0986 6.9375C10.6489 6.9375 9.47363 8.11275 9.47363 9.5625C9.47363 11.0122 10.6489 12.1875 12.0986 12.1875Z" fill="#B6BABF"/>
</svg>
