<svg width="37" height="36" viewBox="0 0 37 36" fill="none" xmlns="http://www.w3.org/2000/svg">
<path fill-rule="evenodd" clip-rule="evenodd" d="M9.37012 26.3465C8.25212 26.9398 7.1196 27.5376 6.1311 28.058V4.72194C6.1311 4.21316 6.58086 3.68506 7.26937 3.68506H24.4916C25.1801 3.68506 25.6299 4.21316 25.6299 4.72194V5.6333H27.6299V4.72194C27.6299 3.04719 26.2223 1.68506 24.4916 1.68506H7.26937C5.53871 1.68506 4.1311 3.04719 4.1311 4.72194V28.0639C4.1311 29.5667 5.72529 30.5319 7.05499 29.8319C7.76812 29.4564 8.56025 29.0386 9.37012 28.61V26.3465Z" fill="#DEE2E8"/>
<path d="M11.3701 32.0063C14.1466 30.5445 18.0594 28.4725 19.595 27.6033C20.541 27.0678 21.698 27.0678 22.6441 27.6033L21.6588 29.3438C21.324 29.1543 20.915 29.1543 20.5802 29.3438C19.01 30.2326 15.0585 32.3247 12.294 33.7801C10.9643 34.4802 9.37012 33.5149 9.37012 32.0122V8.67018C9.37012 6.99543 10.7777 5.6333 12.5084 5.6333H21.1195V7.6333H12.5084C11.8199 7.6333 11.3701 8.1614 11.3701 8.67018V32.0063Z" fill="#DEE2E8"/>
<path d="M30.8679 32.0063C28.0914 30.5445 24.1787 28.4725 22.6431 27.6033C21.697 27.0678 20.54 27.0678 19.594 27.6033L20.5792 29.3438C20.914 29.1543 21.3231 29.1543 21.6578 29.3438C23.228 30.2326 27.1796 32.3247 29.944 33.7801C31.2737 34.4802 32.8679 33.5149 32.8679 32.0122V8.67018C32.8679 6.99543 31.4603 5.6333 29.7297 5.6333H21.1185V7.6333H29.7297C30.4182 7.6333 30.8679 8.1614 30.8679 8.67018V32.0063Z" fill="#DEE2E8"/>
<path fill-rule="evenodd" clip-rule="evenodd" d="M21.6271 11.8187C21.9698 11.8178 22.2832 12.0117 22.4356 12.3186L23.7741 15.0156L26.7596 15.4509C27.0982 15.5003 27.3794 15.7373 27.4855 16.0626C27.5915 16.3879 27.5039 16.7451 27.2595 16.9845L25.0874 19.1117L25.6027 22.064C25.6619 22.4028 25.5227 22.7458 25.2441 22.9476C24.9656 23.1494 24.5963 23.1747 24.2928 23.013L21.6295 21.5934L18.9668 23.0129C18.663 23.1748 18.2935 23.1493 18.0149 22.9473C17.7363 22.7452 17.5974 22.4019 17.657 22.0629L18.1759 19.1117L16.0006 16.9851C15.7558 16.7457 15.668 16.3882 15.7741 16.0626C15.8801 15.7371 16.1618 15.5 16.5006 15.4508L19.5019 15.0156L20.8212 12.3228C20.972 12.015 21.2844 11.8196 21.6271 11.8187ZM21.6346 14.7537L20.9094 16.2341C20.7786 16.501 20.5245 16.6862 20.2303 16.7288L18.561 16.9709L19.7736 18.1565C19.9861 18.3641 20.0823 18.6633 20.0309 18.9559L19.7496 20.5558L21.206 19.7793C21.4706 19.6383 21.7881 19.6383 22.0527 19.7793L23.5125 20.5574L23.2328 18.9547C23.1819 18.6628 23.2779 18.3644 23.4897 18.157L24.7018 16.9699L23.0477 16.7287C22.7555 16.6861 22.5027 16.5028 22.3714 16.2382L21.6346 14.7537Z" fill="#DEE2E8"/>
</svg>
