<svg width="65" height="64" viewBox="0 0 65 64" fill="none" xmlns="http://www.w3.org/2000/svg">
<g clip-path="url(#clip0_8598_3152)">
<path d="M56.8506 32.9991C56.8506 33.3915 56.841 33.784 56.8218 34.1765C56.8026 34.5689 56.774 34.9606 56.736 35.3514C56.698 35.7422 56.6501 36.132 56.5921 36.5208C56.5341 36.9096 56.4669 37.2963 56.3905 37.681C56.3141 38.0661 56.2282 38.4492 56.1326 38.8302C56.037 39.2113 55.9319 39.5898 55.8171 39.966C55.7032 40.3417 55.5806 40.7145 55.4495 41.0845C55.3184 41.4545 55.1765 41.8204 55.0238 42.1823C54.8731 42.5449 54.7138 42.9039 54.5459 43.2592C54.3781 43.6145 54.2017 43.9651 54.0166 44.311C53.8312 44.6577 53.6376 44.9993 53.4359 45.3358C53.2341 45.6723 53.024 46.0042 52.8055 46.3313C52.5874 46.658 52.3614 46.979 52.1273 47.2943C51.8933 47.6095 51.6518 47.9191 51.4026 48.2229C51.1531 48.5268 50.8966 48.8241 50.6332 49.1148C50.3698 49.4056 50.099 49.6901 49.8209 49.9682C49.5436 50.2455 49.2591 50.5162 48.9675 50.7805C48.6759 51.0447 48.3786 51.3011 48.0755 51.5499C47.7721 51.799 47.4625 52.0405 47.1468 52.2745C46.8311 52.5085 46.5101 52.7346 46.1838 52.9527C45.8571 53.1712 45.5252 53.3813 45.1883 53.583C44.8514 53.7848 44.5097 53.9783 44.1634 54.1637C43.8175 54.3487 43.4669 54.5252 43.1115 54.693C42.7562 54.8609 42.3972 55.0201 42.0346 55.1708C41.6715 55.3207 41.3051 55.462 40.9355 55.5947C40.5659 55.7274 40.1931 55.85 39.8169 55.9623C39.4408 56.0762 39.0622 56.181 38.6811 56.2765C38.3001 56.3721 37.917 56.4581 37.5319 56.5344C37.1467 56.6112 36.76 56.6784 36.3716 56.736C35.9832 56.7935 35.5934 56.843 35.2021 56.8842C34.8113 56.9226 34.4196 56.9516 34.0271 56.9712C33.6346 56.9908 33.2422 57.0004 32.8497 57C32.4568 57 32.0643 56.9904 31.6722 56.9712C31.2802 56.952 30.8885 56.923 30.4972 56.8842C30.1064 56.8462 29.7166 56.7982 29.3278 56.7403C28.939 56.6823 28.5522 56.6151 28.1675 56.5387C27.7824 56.4623 27.3991 56.3764 27.0176 56.2808C26.6362 56.1853 26.2578 56.0801 25.8824 55.9653C25.5067 55.8514 25.1338 55.7289 24.7638 55.5978C24.3938 55.4667 24.0274 55.3254 23.6648 55.1739C23.3021 55.0232 22.9431 54.8639 22.5878 54.6961C22.2325 54.5282 21.8819 54.3518 21.536 54.1668C21.1892 53.9814 20.8474 53.7878 20.5104 53.5861C20.1735 53.3843 19.8419 53.1742 19.5156 52.9557C19.1888 52.7376 18.8678 52.5116 18.5525 52.2776C18.2372 52.0436 17.9277 51.802 17.6238 51.5529C17.32 51.3034 17.0226 51.0469 16.7319 50.7835C16.4411 50.5201 16.1566 50.2493 15.8785 49.9712C15.6008 49.6939 15.33 49.4095 15.0662 49.1179C14.8023 48.8263 14.5458 48.529 14.2967 48.226C14.0472 47.9226 13.8056 47.613 13.572 47.2973C13.3384 46.9816 13.1123 46.6606 12.8938 46.3343C12.6753 46.0076 12.4652 45.6758 12.2635 45.3389C12.0617 45.002 11.8681 44.6604 11.6827 44.3141C11.4977 43.9682 11.3211 43.6175 11.1528 43.2623C10.9845 42.907 10.8255 42.547 10.6756 42.1823C10.5257 41.8192 10.3844 41.4529 10.2516 41.0833C10.1189 40.7137 9.99639 40.3409 9.88407 39.9647C9.77013 39.5886 9.66537 39.21 9.5698 38.829C9.47424 38.448 9.38827 38.0649 9.3119 37.6798C9.23552 37.2947 9.16834 36.908 9.11035 36.5196C9.05235 36.1312 9.00436 35.7414 8.96638 35.3502C8.92799 34.9593 8.89899 34.5677 8.87939 34.1752C8.85979 33.7828 8.85019 33.3903 8.8506 32.9979C8.8506 32.605 8.8602 32.2125 8.87939 31.8205C8.89859 31.4284 8.92758 31.0368 8.96638 30.6455C9.00436 30.2547 9.05235 29.8649 9.11035 29.4761C9.16834 29.0873 9.23552 28.7006 9.3119 28.3159C9.38868 27.9308 9.47465 27.5477 9.5698 27.1667C9.66496 26.7857 9.76972 26.4071 9.88407 26.031C9.99802 25.6553 10.1205 25.2824 10.2516 24.9124C10.3827 24.5424 10.5241 24.1761 10.6756 23.8134C10.8263 23.4508 10.9853 23.0918 11.1528 22.7365C11.3202 22.3812 11.4969 22.0306 11.6827 21.6847C11.8677 21.338 12.0613 20.9962 12.2635 20.6593C12.4656 20.3223 12.6757 19.9907 12.8938 19.6644C13.1119 19.3377 13.338 19.0167 13.572 18.7015C13.806 18.3862 14.0476 18.0766 14.2967 17.7728C14.5463 17.4689 14.8027 17.1716 15.0662 16.8809C15.3296 16.5901 15.6004 16.3056 15.8785 16.0275C16.1558 15.7498 16.4402 15.4791 16.7319 15.2153C17.0235 14.9514 17.3208 14.695 17.6238 14.4459C17.9273 14.1963 18.2368 13.9548 18.5525 13.7212C18.8682 13.4876 19.1892 13.2615 19.5156 13.043C19.8423 12.8246 20.1739 12.6144 20.5104 12.4127C20.847 12.211 21.1888 12.0174 21.536 11.832C21.8819 11.647 22.2325 11.4703 22.5878 11.3021C22.9431 11.1338 23.3021 10.9748 23.6648 10.8249C24.0283 10.675 24.3946 10.5337 24.7638 10.401C25.133 10.2683 25.5059 10.1457 25.8824 10.0334C26.2586 9.9195 26.637 9.81474 27.0176 9.71918C27.3982 9.62362 27.7815 9.53765 28.1675 9.46129C28.553 9.38492 28.9398 9.31774 29.3278 9.25975C29.7158 9.20176 30.1056 9.15377 30.4972 9.11579C30.8881 9.0774 31.2798 9.04841 31.6722 9.0288C32.0647 9.0092 32.4572 8.9996 32.8497 9.00001C33.2422 9.00001 33.6346 9.00961 34.0271 9.0288C34.4196 9.048 34.8113 9.07699 35.2021 9.11579C35.593 9.15377 35.9828 9.20176 36.3716 9.25975C36.7604 9.31774 37.1471 9.38492 37.5319 9.46129C37.917 9.53806 38.3001 9.62403 38.6811 9.71918C39.0622 9.81434 39.4408 9.91909 39.8169 10.0334C40.1926 10.1474 40.5655 10.2699 40.9355 10.401C41.3056 10.5321 41.6715 10.6738 42.0333 10.8261C42.396 10.9768 42.755 11.1359 43.1103 11.3033C43.4656 11.4708 43.8162 11.6474 44.1622 11.8332C44.5089 12.0182 44.8505 12.2118 45.1871 12.4139C45.5236 12.6161 45.8554 12.8262 46.1826 13.0443C46.5093 13.2623 46.8303 13.4884 47.1456 13.7224C47.4609 13.9564 47.7705 14.198 48.0743 14.4471C48.3782 14.6966 48.6755 14.9531 48.9663 15.2165C49.2571 15.4799 49.5415 15.7506 49.8196 16.0288C50.0969 16.3061 50.3677 16.5905 50.632 16.8821C50.8962 17.1737 51.1527 17.471 51.4014 17.774C51.6505 18.0774 51.8921 18.387 52.1261 18.7027C52.3601 19.0184 52.5862 19.3393 52.8043 19.6657C53.0228 19.9924 53.2329 20.324 53.4347 20.6605C53.6364 20.997 53.83 21.3388 54.0154 21.6859C54.2004 22.0318 54.3769 22.3824 54.5447 22.7377C54.7126 23.093 54.8719 23.452 55.0226 23.8147C55.1724 24.1781 55.3137 24.5444 55.4465 24.9136C55.5792 25.2828 55.7017 25.6557 55.814 26.0322C55.928 26.4083 56.0327 26.7869 56.1283 27.1679C56.2239 27.549 56.3099 27.932 56.3862 28.3171C56.463 28.7026 56.5302 29.0894 56.5878 29.4774C56.6454 29.8653 56.6934 30.2551 56.7317 30.6468C56.7701 31.0376 56.7991 31.4292 56.8187 31.8217C56.8383 32.2142 56.849 32.6066 56.8506 32.9991Z" fill="#EEF2FF"/>
<path d="M21.3129 8.82976L24.4414 12.2902M32.3213 5.15732L32.3882 11.2193M43.7195 9.09468L40.3676 12.1684" stroke="#101114" stroke-width="0.8"/>
<path d="M25.3662 54.5556H52.2169C52.709 54.5551 53.2503 54.02 53.2514 53.1611V19.4422H25.3662V54.5556Z" fill="white" stroke="#101114" stroke-width="0.8"/>
<rect x="30.5847" y="45.1193" width="17.4482" height="5.0531" rx="1" fill="#547AFF"/>
<path d="M25.6137 19.4422H11.7174V53.1614C11.7174 53.5883 11.8351 53.9568 12.0045 54.2072C12.1754 54.4599 12.3695 54.5576 12.5327 54.5578H25.6137V19.4422Z" fill="white" stroke="#101114" stroke-width="0.8"/>
<path d="M58.9552 29.7774L58.9564 29.7796L59.6414 31.0364C59.714 31.1697 59.6175 31.3321 59.4658 31.3321H32.6771C32.4531 31.3321 32.2478 31.2074 32.1446 31.0086L31.8707 30.4811L31.8706 30.4808L26.1296 19.4422H53.4076L58.9552 29.7774Z" fill="white" stroke="#101114" stroke-width="0.8"/>
<path d="M20.0659 30.5053L20.0566 30.5313C19.8859 31.011 19.4316 31.3316 18.9218 31.3321H6.8312C6.43952 31.3321 6.07227 31.1417 5.84618 30.8217L20.0659 30.5053ZM20.0659 30.5053L20.0786 30.4808M20.0659 30.5053L20.0786 30.4808M20.0786 30.4808L25.3635 20.3191C25.5712 19.9197 25.2814 19.4422 24.8312 19.4422H11.5776C11.3566 19.4422 11.1535 19.5637 11.049 19.7585L5.70677 29.7109C5.69064 29.7409 5.68216 29.7616 5.67771 29.7762M20.0786 30.4808L5.67771 29.7762M5.67771 29.7762C5.56989 30.1308 5.63099 30.5164 5.84601 30.8215L5.67771 29.7762Z" fill="white" stroke="#101114" stroke-width="0.8"/>
</g>
<defs>
<clipPath id="clip0_8598_3152">
<rect width="64" height="64" fill="white" transform="translate(0.850586)"/>
</clipPath>
</defs>
</svg>
