<svg width="64" height="64" viewBox="0 0 64 64" fill="none" xmlns="http://www.w3.org/2000/svg">
<g clip-path="url(#clip0_23527_18567)">
<path d="M56 32.9991C56 33.3915 55.9904 33.784 55.9712 34.1765C55.952 34.5689 55.9234 34.9606 55.8854 35.3514C55.8475 35.7422 55.7995 36.132 55.7415 36.5208C55.6835 36.9096 55.6163 37.2963 55.5399 37.681C55.4636 38.0661 55.3776 38.4492 55.282 38.8302C55.1865 39.2113 55.0813 39.5898 54.9665 39.966C54.8526 40.3417 54.7301 40.7145 54.599 41.0845C54.4679 41.4545 54.3259 41.8204 54.1732 42.1823C54.0225 42.5449 53.8632 42.9039 53.6954 43.2592C53.5275 43.6145 53.3511 43.9651 53.1661 44.311C52.9806 44.6577 52.7871 44.9993 52.5853 45.3358C52.3835 45.6723 52.1734 46.0042 51.9549 46.3313C51.7368 46.658 51.5108 46.979 51.2768 47.2943C51.0427 47.6095 50.8012 47.9191 50.552 48.2229C50.3025 48.5268 50.046 48.8241 49.7826 49.1148C49.5192 49.4056 49.2484 49.6901 48.9703 49.9682C48.693 50.2455 48.4085 50.5162 48.1169 50.7805C47.8253 51.0447 47.528 51.3011 47.2249 51.5499C46.9215 51.799 46.6119 52.0405 46.2962 52.2745C45.9805 52.5085 45.6595 52.7346 45.3332 52.9527C45.0065 53.1712 44.6746 53.3813 44.3377 53.583C44.0008 53.7848 43.6591 53.9783 43.3128 54.1637C42.9669 54.3487 42.6163 54.5252 42.261 54.693C41.9056 54.8609 41.5466 55.0201 41.184 55.1708C40.8209 55.3207 40.4546 55.462 40.085 55.5947C39.7153 55.7274 39.3425 55.85 38.9663 55.9623C38.5902 56.0762 38.2116 56.181 37.8305 56.2765C37.4495 56.3721 37.0664 56.4581 36.6813 56.5344C36.2962 56.6112 35.9094 56.6784 35.521 56.736C35.1326 56.7935 34.7428 56.843 34.3515 56.8842C33.9607 56.9226 33.569 56.9516 33.1765 56.9712C32.784 56.9908 32.3916 57.0004 31.9991 57C31.6062 57 31.2137 56.9904 30.8216 56.9712C30.4296 56.952 30.0379 56.923 29.6467 56.8842C29.2558 56.8462 28.866 56.7982 28.4772 56.7403C28.0884 56.6823 27.7016 56.6151 27.3169 56.5387C26.9318 56.4623 26.5485 56.3764 26.167 56.2808C25.7856 56.1853 25.4072 56.0801 25.0319 55.9653C24.6561 55.8514 24.2832 55.7289 23.9132 55.5978C23.5432 55.4667 23.1769 55.3254 22.8142 55.1739C22.4515 55.0232 22.0925 54.8639 21.7372 54.6961C21.3819 54.5282 21.0313 54.3518 20.6854 54.1668C20.3386 53.9814 19.9968 53.7878 19.6599 53.5861C19.3229 53.3843 18.9913 53.1742 18.665 52.9557C18.3382 52.7376 18.0172 52.5116 17.7019 52.2776C17.3867 52.0436 17.0771 51.802 16.7732 51.5529C16.4694 51.3034 16.1721 51.0469 15.8813 50.7835C15.5905 50.5201 15.306 50.2493 15.0279 49.9712C14.7502 49.6939 14.4794 49.4095 14.2156 49.1179C13.9517 48.8263 13.6953 48.529 13.4461 48.226C13.1966 47.9226 12.955 47.613 12.7214 47.2973C12.4878 46.9816 12.2618 46.6606 12.0433 46.3343C11.8248 46.0076 11.6146 45.6758 11.4129 45.3389C11.2111 45.002 11.0175 44.6604 10.8321 44.3141C10.6471 43.9681 10.4705 43.6176 10.3022 43.2623C10.1339 42.907 9.97487 42.547 9.82498 42.1823C9.6751 41.8192 9.53379 41.4529 9.40106 41.0833C9.26832 40.7137 9.1458 40.3409 9.03349 39.9647C8.91954 39.5886 8.81479 39.21 8.71922 38.829C8.62365 38.448 8.53768 38.0649 8.46131 37.6798C8.38494 37.2947 8.31775 36.908 8.25976 36.5196C8.20177 36.1312 8.15378 35.7414 8.1158 35.3502C8.07741 34.9593 8.04841 34.5677 8.02881 34.1752C8.0092 33.7828 7.9996 33.3903 8.00001 32.9979C8.00001 32.605 8.00961 32.2125 8.02881 31.8205C8.048 31.4284 8.077 31.0368 8.1158 30.6455C8.15378 30.2547 8.20177 29.8649 8.25976 29.4761C8.31775 29.0873 8.38494 28.7006 8.46131 28.3159C8.53809 27.9308 8.62406 27.5477 8.71922 27.1667C8.81438 26.7857 8.91913 26.4071 9.03349 26.031C9.14743 25.6553 9.26996 25.2824 9.40106 24.9124C9.53215 24.5424 9.67346 24.1761 9.82498 23.8134C9.97569 23.4508 10.1348 23.0918 10.3022 22.7365C10.4697 22.3812 10.6463 22.0306 10.8321 21.6847C11.0171 21.338 11.2107 20.9962 11.4129 20.6593C11.615 20.3223 11.8252 19.9907 12.0433 19.6644C12.2613 19.3377 12.4874 19.0167 12.7214 18.7015C12.9554 18.3862 13.197 18.0766 13.4461 17.7728C13.6957 17.4689 13.9522 17.1716 14.2156 16.8809C14.479 16.5901 14.7498 16.3056 15.0279 16.0275C15.3052 15.7498 15.5897 15.4791 15.8813 15.2153C16.1729 14.9514 16.4702 14.695 16.7732 14.4459C17.0767 14.1963 17.3862 13.9548 17.7019 13.7212C18.0176 13.4876 18.3387 13.2615 18.665 13.043C18.9917 12.8246 19.3233 12.6144 19.6599 12.4127C19.9964 12.211 20.3382 12.0174 20.6854 11.832C21.0313 11.647 21.3819 11.4703 21.7372 11.3021C22.0925 11.1338 22.4515 10.9748 22.8142 10.8249C23.1777 10.675 23.544 10.5337 23.9132 10.401C24.2824 10.2683 24.6553 10.1457 25.0319 10.0334C25.408 9.9195 25.7864 9.81474 26.167 9.71918C26.5477 9.62362 26.9309 9.53765 27.3169 9.46129C27.7024 9.38492 28.0892 9.31774 28.4772 9.25975C28.8652 9.20176 29.255 9.15377 29.6467 9.11579C30.0375 9.0774 30.4292 9.04841 30.8216 9.0288C31.2141 9.0092 31.6066 8.9996 31.9991 9.00001C32.3916 9.00001 32.784 9.00961 33.1765 9.0288C33.569 9.048 33.9607 9.07699 34.3515 9.11579C34.7424 9.15377 35.1322 9.20176 35.521 9.25975C35.9098 9.31774 36.2966 9.38492 36.6813 9.46129C37.0664 9.53806 37.4495 9.62403 37.8305 9.71918C38.2116 9.81434 38.5902 9.91909 38.9663 10.0334C39.3421 10.1474 39.7149 10.2699 40.085 10.401C40.455 10.5321 40.8209 10.6738 41.1828 10.8261C41.5454 10.9768 41.9044 11.1359 42.2597 11.3033C42.615 11.4708 42.9657 11.6474 43.3116 11.8332C43.6583 12.0182 44 12.2118 44.3365 12.4139C44.673 12.6161 45.0048 12.8262 45.332 13.0443C45.6587 13.2623 45.9797 13.4884 46.295 13.7224C46.6103 13.9564 46.9199 14.198 47.2237 14.4471C47.5276 14.6966 47.8249 14.9531 48.1157 15.2165C48.4065 15.4799 48.6909 15.7506 48.9691 16.0288C49.2464 16.3061 49.5171 16.5905 49.7814 16.8821C50.0456 17.1737 50.3021 17.471 50.5508 17.774C50.7999 18.0774 51.0415 18.387 51.2755 18.7027C51.5096 19.0184 51.7356 19.3394 51.9537 19.6657C52.1722 19.9924 52.3823 20.324 52.5841 20.6605C52.7858 20.997 52.9794 21.3388 53.1648 21.6859C53.3498 22.0318 53.5263 22.3824 53.6941 22.7377C53.862 23.093 54.0213 23.452 54.172 23.8147C54.3219 24.1781 54.4632 24.5444 54.5959 24.9136C54.7286 25.2828 54.8511 25.6557 54.9635 26.0322C55.0774 26.4083 55.1822 26.7869 55.2777 27.1679C55.3733 27.549 55.4593 27.932 55.5356 28.3171C55.6124 28.7026 55.6796 29.0894 55.7372 29.4774C55.7948 29.8653 55.8428 30.2551 55.8812 30.6468C55.9195 31.0376 55.9485 31.4292 55.9681 31.8217C55.9877 32.2142 55.9984 32.6066 56 32.9991Z" fill="#EFECFF"/>
<path d="M20.4624 8.82982L23.5909 12.2902M31.4709 5.15738L31.5377 11.2194M42.8691 9.09474L39.5172 12.1684" stroke="#101114" stroke-width="0.8"/>
<path d="M24.5156 54.5556H51.3663C51.8584 54.5551 52.3997 54.02 52.4008 53.1611V19.4422H24.5156V54.5556Z" fill="white" stroke="#101114" stroke-width="0.8"/>
<rect x="29.7341" y="45.1193" width="17.4482" height="5.0531" rx="1" fill="#5D42FF"/>
<path d="M24.7631 19.4422H10.8668V53.1614C10.8668 53.5883 10.9845 53.9568 11.1539 54.2072C11.3248 54.4599 11.5189 54.5576 11.6821 54.5578H24.7631V19.4422Z" fill="white" stroke="#101114" stroke-width="0.8"/>
<path d="M58.1046 29.7774L58.1058 29.7796L58.7908 31.0364C58.8634 31.1697 58.7669 31.3321 58.6152 31.3321H31.8265C31.6025 31.3321 31.3972 31.2074 31.294 31.0086L31.0201 30.4811L31.02 30.4808L25.279 19.4422H52.557L58.1046 29.7774Z" fill="white" stroke="#101114" stroke-width="0.8"/>
<path d="M19.206 30.5313L19.2153 30.5053L19.228 30.4808L24.5129 20.3191C24.7207 19.9197 24.4308 19.4422 23.9806 19.4422H10.727C10.506 19.4422 10.3029 19.5637 10.1984 19.7585L4.85618 29.7109C4.84005 29.7409 4.83158 29.7616 4.82713 29.7762C4.71928 30.1309 4.78043 30.5166 4.9956 30.8217C5.22169 31.1417 5.58893 31.3321 5.98062 31.3321H18.0712C18.581 31.3316 19.0353 31.011 19.206 30.5313Z" fill="white" stroke="#101114" stroke-width="0.8"/>
</g>
<defs>
<clipPath id="clip0_23527_18567">
<rect width="64" height="64" fill="white"/>
</clipPath>
</defs>
</svg>
