<svg width="65" height="64" viewBox="0 0 65 64" fill="none" xmlns="http://www.w3.org/2000/svg">
<g clip-path="url(#clip0_10973_57628)">
<path d="M56.5 32.9991C56.5 33.3915 56.4904 33.784 56.4712 34.1765C56.452 34.5689 56.4234 34.9606 56.3854 35.3514C56.3475 35.7422 56.2995 36.132 56.2415 36.5208C56.1835 36.9096 56.1163 37.2963 56.0399 37.681C55.9636 38.0661 55.8776 38.4492 55.782 38.8302C55.6865 39.2113 55.5813 39.5898 55.4665 39.966C55.3526 40.3417 55.2301 40.7145 55.099 41.0845C54.9679 41.4545 54.8259 41.8204 54.6732 42.1823C54.5225 42.5449 54.3632 42.9039 54.1954 43.2592C54.0275 43.6145 53.8511 43.9651 53.6661 44.311C53.4806 44.6577 53.2871 44.9993 53.0853 45.3358C52.8835 45.6723 52.6734 46.0042 52.4549 46.3313C52.2368 46.658 52.0108 46.979 51.7768 47.2943C51.5427 47.6095 51.3012 47.9191 51.052 48.2229C50.8025 48.5268 50.546 48.8241 50.2826 49.1148C50.0192 49.4056 49.7484 49.6901 49.4703 49.9682C49.193 50.2455 48.9085 50.5162 48.6169 50.7805C48.3253 51.0447 48.028 51.3011 47.7249 51.5499C47.4215 51.799 47.1119 52.0405 46.7962 52.2745C46.4805 52.5085 46.1595 52.7346 45.8332 52.9527C45.5065 53.1712 45.1746 53.3813 44.8377 53.583C44.5008 53.7848 44.1591 53.9783 43.8128 54.1637C43.4669 54.3487 43.1163 54.5252 42.761 54.693C42.4056 54.8609 42.0466 55.0201 41.684 55.1708C41.3209 55.3207 40.9546 55.462 40.585 55.5947C40.2153 55.7274 39.8425 55.85 39.4663 55.9623C39.0902 56.0762 38.7116 56.181 38.3305 56.2765C37.9495 56.3721 37.5664 56.4581 37.1813 56.5344C36.7962 56.6112 36.4094 56.6784 36.021 56.736C35.6326 56.7935 35.2428 56.843 34.8515 56.8842C34.4607 56.9226 34.069 56.9516 33.6765 56.9712C33.284 56.9908 32.8916 57.0004 32.4991 57C32.1062 57 31.7137 56.9904 31.3216 56.9712C30.9296 56.952 30.5379 56.923 30.1467 56.8842C29.7558 56.8462 29.366 56.7982 28.9772 56.7403C28.5884 56.6823 28.2016 56.6151 27.8169 56.5387C27.4318 56.4623 27.0485 56.3764 26.667 56.2808C26.2856 56.1853 25.9072 56.0801 25.5319 55.9653C25.1561 55.8514 24.7832 55.7289 24.4132 55.5978C24.0432 55.4667 23.6769 55.3254 23.3142 55.1739C22.9515 55.0232 22.5925 54.8639 22.2372 54.6961C21.8819 54.5282 21.5313 54.3518 21.1854 54.1668C20.8386 53.9814 20.4968 53.7878 20.1599 53.5861C19.8229 53.3843 19.4913 53.1742 19.165 52.9557C18.8382 52.7376 18.5172 52.5116 18.2019 52.2776C17.8867 52.0436 17.5771 51.802 17.2732 51.5529C16.9694 51.3034 16.6721 51.0469 16.3813 50.7835C16.0905 50.5201 15.806 50.2493 15.5279 49.9712C15.2502 49.6939 14.9794 49.4095 14.7156 49.1179C14.4517 48.8263 14.1953 48.529 13.9461 48.226C13.6966 47.9226 13.455 47.613 13.2214 47.2973C12.9878 46.9816 12.7618 46.6606 12.5433 46.3343C12.3248 46.0076 12.1146 45.6758 11.9129 45.3389C11.7111 45.002 11.5175 44.6604 11.3321 44.3141C11.1471 43.9682 10.9705 43.6175 10.8022 43.2623C10.6339 42.907 10.4749 42.547 10.325 42.1823C10.1751 41.8192 10.0338 41.4529 9.90106 41.0833C9.76832 40.7137 9.6458 40.3409 9.53349 39.9647C9.41954 39.5886 9.31479 39.21 9.21922 38.829C9.12365 38.448 9.03768 38.0649 8.96131 37.6798C8.88494 37.2947 8.81775 36.908 8.75976 36.5196C8.70177 36.1312 8.65378 35.7414 8.6158 35.3502C8.57741 34.9593 8.54841 34.5677 8.52881 34.1752C8.5092 33.7828 8.4996 33.3903 8.50001 32.9979C8.50001 32.605 8.50961 32.2125 8.52881 31.8205C8.548 31.4284 8.577 31.0368 8.6158 30.6455C8.65378 30.2547 8.70177 29.8649 8.75976 29.4761C8.81775 29.0873 8.88494 28.7006 8.96131 28.3159C9.03809 27.9308 9.12406 27.5477 9.21922 27.1667C9.31438 26.7857 9.41913 26.4071 9.53349 26.031C9.64743 25.6553 9.76996 25.2824 9.90106 24.9124C10.0322 24.5424 10.1735 24.1761 10.325 23.8134C10.4757 23.4508 10.6348 23.0918 10.8022 22.7365C10.9697 22.3812 11.1463 22.0306 11.3321 21.6847C11.5171 21.338 11.7107 20.9962 11.9129 20.6593C12.115 20.3223 12.3252 19.9907 12.5433 19.6644C12.7613 19.3377 12.9874 19.0167 13.2214 18.7015C13.4554 18.3862 13.697 18.0766 13.9461 17.7728C14.1957 17.4689 14.4522 17.1716 14.7156 16.8809C14.979 16.5901 15.2498 16.3056 15.5279 16.0275C15.8052 15.7498 16.0897 15.4791 16.3813 15.2153C16.6729 14.9514 16.9702 14.695 17.2732 14.4459C17.5767 14.1963 17.8862 13.9548 18.2019 13.7212C18.5176 13.4876 18.8387 13.2615 19.165 13.043C19.4917 12.8246 19.8233 12.6144 20.1599 12.4127C20.4964 12.211 20.8382 12.0174 21.1854 11.832C21.5313 11.647 21.8819 11.4703 22.2372 11.3021C22.5925 11.1338 22.9515 10.9748 23.3142 10.8249C23.6777 10.675 24.044 10.5337 24.4132 10.401C24.7824 10.2683 25.1553 10.1457 25.5319 10.0334C25.908 9.9195 26.2864 9.81474 26.667 9.71918C27.0477 9.62362 27.4309 9.53765 27.8169 9.46129C28.2024 9.38492 28.5892 9.31774 28.9772 9.25975C29.3652 9.20176 29.755 9.15377 30.1467 9.11579C30.5375 9.0774 30.9292 9.04841 31.3216 9.0288C31.7141 9.0092 32.1066 8.9996 32.4991 9.00001C32.8916 9.00001 33.284 9.00961 33.6765 9.0288C34.069 9.048 34.4607 9.07699 34.8515 9.11579C35.2424 9.15377 35.6322 9.20176 36.021 9.25975C36.4098 9.31774 36.7966 9.38492 37.1813 9.46129C37.5664 9.53806 37.9495 9.62403 38.3305 9.71918C38.7116 9.81434 39.0902 9.91909 39.4663 10.0334C39.8421 10.1474 40.2149 10.2699 40.585 10.401C40.955 10.5321 41.3209 10.6738 41.6828 10.8261C42.0454 10.9768 42.4044 11.1359 42.7597 11.3033C43.115 11.4708 43.4657 11.6474 43.8116 11.8332C44.1583 12.0182 44.5 12.2118 44.8365 12.4139C45.173 12.6161 45.5048 12.8262 45.832 13.0443C46.1587 13.2623 46.4797 13.4884 46.795 13.7224C47.1103 13.9564 47.4199 14.198 47.7237 14.4471C48.0276 14.6966 48.3249 14.9531 48.6157 15.2165C48.9065 15.4799 49.1909 15.7506 49.4691 16.0288C49.7464 16.3061 50.0171 16.5905 50.2814 16.8821C50.5456 17.1737 50.8021 17.471 51.0508 17.774C51.2999 18.0774 51.5415 18.387 51.7755 18.7027C52.0096 19.0184 52.2356 19.3393 52.4537 19.6657C52.6722 19.9924 52.8823 20.324 53.0841 20.6605C53.2858 20.997 53.4794 21.3388 53.6648 21.6859C53.8498 22.0318 54.0263 22.3824 54.1941 22.7377C54.362 23.093 54.5213 23.452 54.672 23.8147C54.8219 24.1781 54.9632 24.5444 55.0959 24.9136C55.2286 25.2828 55.3511 25.6557 55.4635 26.0322C55.5774 26.4083 55.6822 26.7869 55.7777 27.1679C55.8733 27.549 55.9593 27.932 56.0356 28.3171C56.1124 28.7026 56.1796 29.0894 56.2372 29.4774C56.2948 29.8653 56.3428 30.2551 56.3812 30.6468C56.4195 31.0376 56.4485 31.4292 56.4681 31.8217C56.4877 32.2142 56.4984 32.6066 56.5 32.9991Z" fill="#EFECFF"/>
<path d="M20.9623 8.82982L24.0908 12.2902M31.9707 5.15738L32.0376 11.2194M43.3689 9.09474L40.017 12.1684" stroke="#101114" stroke-width="0.8"/>
<path d="M25.0156 54.5556H51.8663C52.3584 54.5551 52.8997 54.02 52.9008 53.1611V19.4422H25.0156V54.5556Z" fill="white" stroke="#101114" stroke-width="0.8"/>
<rect x="30.2341" y="45.1194" width="17.4482" height="5.0531" rx="1" fill="#5D42FF"/>
<path d="M25.2631 19.4422H11.3668V53.1614C11.3668 53.5883 11.4845 53.9568 11.6539 54.2072C11.8248 54.4599 12.0189 54.5576 12.1821 54.5578H25.2631V19.4422Z" fill="white" stroke="#101114" stroke-width="0.8"/>
<path d="M58.6046 29.7774L58.6058 29.7796L59.2908 31.0364C59.3634 31.1697 59.2669 31.3321 59.1152 31.3321H32.3265C32.1025 31.3321 31.8972 31.2074 31.794 31.0086L31.5201 30.4811L31.52 30.4808L25.779 19.4422H53.057L58.6046 29.7774Z" fill="white" stroke="#101114" stroke-width="0.8"/>
<path d="M19.7153 30.5053L19.706 30.5313C19.5353 31.011 19.081 31.3316 18.5712 31.3321H6.48062C6.08893 31.3321 5.72169 31.1417 5.4956 30.8217L19.7153 30.5053ZM19.7153 30.5053L19.728 30.4808M19.7153 30.5053L19.728 30.4808M19.728 30.4808L25.0129 20.3191C25.2207 19.9197 24.9308 19.4422 24.4806 19.4422H11.227C11.006 19.4422 10.8029 19.5637 10.6984 19.7585L5.35619 29.7109C5.34005 29.7409 5.33158 29.7616 5.32712 29.7762M19.728 30.4808L5.32712 29.7762M5.32712 29.7762C5.21931 30.1308 5.2804 30.5164 5.49543 30.8215L5.32712 29.7762Z" fill="white" stroke="#101114" stroke-width="0.8"/>
</g>
<defs>
<clipPath id="clip0_10973_57628">
<rect width="64" height="64" fill="white" transform="translate(0.5)"/>
</clipPath>
</defs>
</svg>
