<svg width="65" height="64" viewBox="0 0 65 64" fill="none" xmlns="http://www.w3.org/2000/svg">
<path d="M58.1965 33.999C58.1965 34.4079 58.1865 34.8167 58.1665 35.2255C58.1465 35.6343 58.1168 36.0423 58.0772 36.4494C58.0376 36.8565 57.9876 37.2625 57.9272 37.6675C57.8668 38.0725 57.7968 38.4753 57.7173 38.8761C57.6377 39.2772 57.5482 39.6763 57.4486 40.0732C57.3491 40.4701 57.2395 40.8644 57.12 41.2562C57.0013 41.6476 56.8737 42.036 56.7371 42.4214C56.6005 42.8068 56.4527 43.188 56.2936 43.5649C56.1366 43.9426 55.9707 44.3166 55.7959 44.6867C55.621 45.0568 55.4372 45.422 55.2445 45.7823C55.0514 46.1435 54.8497 46.4993 54.6396 46.8498C54.4294 47.2004 54.2105 47.546 53.9829 47.8868C53.7557 48.2271 53.5203 48.5614 53.2765 48.8899C53.0327 49.2183 52.7811 49.5407 52.5216 49.8572C52.2616 50.1737 51.9945 50.4834 51.7201 50.7863C51.4457 51.0892 51.1636 51.3855 50.8739 51.6752C50.585 51.964 50.2887 52.2461 49.985 52.5213C49.6812 52.7965 49.3715 53.0637 49.0559 53.3228C48.7398 53.5823 48.4173 53.8339 48.0884 54.0776C47.7596 54.3214 47.4252 54.5569 47.0853 54.784C46.7449 55.0116 46.3993 55.2305 46.0483 55.4406C45.6973 55.6508 45.3415 55.8524 44.9807 56.0456C44.6204 56.2383 44.2551 56.422 43.885 56.5969C43.5149 56.7717 43.141 56.9376 42.7632 57.0946C42.385 57.2507 42.0034 57.3979 41.6184 57.5362C41.2333 57.6744 40.8449 57.802 40.4531 57.919C40.0613 58.0377 39.6669 58.1468 39.27 58.2464C38.8731 58.3459 38.474 58.4355 38.0729 58.515C37.6717 58.595 37.2688 58.665 36.8642 58.725C36.4597 58.7849 36.0536 58.8364 35.646 58.8794C35.2389 58.9194 34.8309 58.9496 34.4221 58.97C34.0132 58.9904 33.6044 59.0004 33.1956 59C32.7863 59 32.3775 58.99 31.9691 58.97C31.5607 58.95 31.1527 58.9198 30.7451 58.8794C30.338 58.8398 29.9319 58.7898 29.5269 58.7294C29.1219 58.669 28.719 58.599 28.3183 58.5195C27.9171 58.4399 27.5179 58.3504 27.1205 58.2509C26.7232 58.1513 26.329 58.0418 25.938 57.9222C25.5467 57.8035 25.1582 57.6759 24.7728 57.5394C24.3874 57.4028 24.0058 57.2556 23.628 57.0978C23.2502 56.9408 22.8763 56.7749 22.5061 56.6001C22.136 56.4252 21.7708 56.2415 21.4105 56.0488C21.0493 55.8556 20.6932 55.654 20.3422 55.4438C19.9912 55.2337 19.6458 55.0148 19.3059 54.7872C18.9655 54.5601 18.6312 54.3246 18.3027 54.0808C17.9743 53.8371 17.6518 53.5855 17.3353 53.326C17.0188 53.066 16.7091 52.7989 16.4062 52.5245C16.1033 52.2501 15.807 51.9681 15.5173 51.6784C15.228 51.3895 14.9459 51.0932 14.6711 50.7895C14.3963 50.4858 14.1291 50.1761 13.8696 49.8604C13.6097 49.5443 13.358 49.2219 13.1147 48.893C12.8713 48.5642 12.6359 48.2298 12.4083 47.8899C12.1807 47.5496 11.9618 47.204 11.7516 46.853C11.5414 46.5021 11.3398 46.1462 11.1467 45.7855C10.9539 45.4252 10.7699 45.0599 10.5947 44.6898C10.4194 44.3197 10.2537 43.9448 10.0976 43.5649C9.94143 43.1867 9.79423 42.8051 9.65597 42.4201C9.5177 42.0351 9.39008 41.6467 9.27308 41.2549C9.15439 40.8631 9.04527 40.4688 8.94572 40.0719C8.84617 39.675 8.75662 39.276 8.67706 38.8748C8.59751 38.4736 8.52753 38.0708 8.46712 37.6662C8.40671 37.2617 8.35672 36.8556 8.31716 36.4481C8.27717 36.041 8.24696 35.633 8.22654 35.2242C8.20612 34.8154 8.19612 34.4066 8.19655 33.9978C8.19655 33.5885 8.20654 33.1797 8.22654 32.7713C8.24653 32.3629 8.27674 31.955 8.31716 31.5474C8.35672 31.1403 8.40671 30.7343 8.46712 30.3293C8.52753 29.9243 8.59751 29.5215 8.67706 29.1207C8.75704 28.7196 8.84659 28.3205 8.94572 27.9236C9.04484 27.5267 9.15396 27.1324 9.27308 26.7406C9.39178 26.3492 9.5194 25.9608 9.65597 25.5754C9.79253 25.19 9.93973 24.8084 10.0976 24.4307C10.2545 24.0529 10.4202 23.679 10.5947 23.3089C10.7691 22.9388 10.9531 22.5736 11.1467 22.2132C11.3394 21.8521 11.541 21.496 11.7516 21.1451C11.9622 20.7941 12.1811 20.4487 12.4083 20.1088C12.6354 19.7685 12.8709 19.4341 13.1147 19.1057C13.3584 18.7773 13.6101 18.4548 13.8696 18.1383C14.1295 17.8218 14.3967 17.5121 14.6711 17.2092C14.9455 16.9063 15.2275 16.6101 15.5173 16.3204C15.8061 16.0311 16.1024 15.749 16.4062 15.4742C16.7099 15.1994 17.0196 14.9323 17.3353 14.6728C17.6514 14.4128 17.9739 14.1612 18.3027 13.9179C18.6316 13.6746 18.966 13.4391 19.3059 13.2115C19.6462 12.9839 19.9917 12.765 20.3422 12.5549C20.6928 12.3447 21.0488 12.1431 21.4105 11.95C21.7708 11.7573 22.136 11.5733 22.5061 11.398C22.8763 11.2227 23.2502 11.057 23.628 10.9009C24.0066 10.7448 24.3882 10.5976 24.7728 10.4594C25.1574 10.3211 25.5458 10.1935 25.938 10.0765C26.3299 9.95781 26.724 9.84869 27.1205 9.74915C27.517 9.6496 27.9163 9.56006 28.3183 9.48051C28.7199 9.40096 29.1228 9.33098 29.5269 9.27057C29.9311 9.21016 30.3372 9.16018 30.7451 9.12061C31.1523 9.08063 31.5602 9.05042 31.9691 9.03C32.3779 9.00958 32.7868 8.99959 33.1956 9.00001C33.6044 9.00001 34.0132 9.01001 34.4221 9.03C34.8309 9.05 35.2389 9.0802 35.646 9.12061C36.0532 9.16018 36.4592 9.21016 36.8642 9.27057C37.2692 9.33098 37.6721 9.40096 38.0729 9.48051C38.474 9.56048 38.8731 9.65003 39.27 9.74915C39.6669 9.84827 40.0613 9.95738 40.4531 10.0765C40.8445 10.1952 41.2329 10.3228 41.6184 10.4594C42.0038 10.5959 42.385 10.7435 42.7619 10.9022C43.1397 11.0592 43.5136 11.2249 43.8837 11.3993C44.2539 11.5737 44.6191 11.7577 44.9794 11.9512C45.3406 12.144 45.6965 12.3456 46.047 12.5562C46.3976 12.7667 46.7432 12.9856 47.084 13.2128C47.4243 13.4399 47.7587 13.6754 48.0872 13.9192C48.4156 14.1629 48.7381 14.4145 49.0546 14.674C49.3711 14.934 49.6808 15.2011 49.9837 15.4755C50.2866 15.7499 50.5829 16.0319 50.8726 16.3216C51.1615 16.6105 51.4435 16.9068 51.7188 17.2105C51.994 17.5142 52.2612 17.8239 52.5203 18.1396C52.7798 18.4557 53.0314 18.7781 53.2752 19.107C53.519 19.4358 53.7545 19.7702 53.9816 20.1101C54.2092 20.4504 54.4281 20.7958 54.6383 21.1463C54.8484 21.4969 55.0501 21.8529 55.2432 22.2145C55.4359 22.5748 55.6197 22.9401 55.7946 23.3102C55.9694 23.6803 56.1353 24.0542 56.2923 24.4319C56.4485 24.8105 56.5957 25.1921 56.7339 25.5767C56.8722 25.9613 56.9998 26.3497 57.1168 26.7419C57.2355 27.1337 57.3446 27.528 57.4442 27.9249C57.5437 28.3218 57.6333 28.7209 57.7128 29.122C57.7928 29.5236 57.8628 29.9264 57.9228 30.3306C57.9828 30.7347 58.0327 31.1408 58.0727 31.5487C58.1127 31.9558 58.1429 32.3638 58.1633 32.7726C58.1838 33.1814 58.1948 33.5902 58.1965 33.999Z" fill="#EEF2FF"/>
<path d="M23.6659 4.00001L22.6965 10M12.7443 5.64853L17.1511 12.3998M6.81725 15.5162L12.6965 16.5" stroke="#101114" stroke-width="0.8"/>
<path d="M10.7538 25.6165C10.6268 25.0779 10.9614 24.5386 11.5003 24.4131L36.4116 18.6124L42.1475 42.9382C42.2637 43.429 42.2818 43.938 42.2007 44.4359C42.1197 44.9337 41.9411 45.4107 41.6752 45.8393C41.4094 46.268 41.0615 46.6399 40.6515 46.9337C40.2415 47.2276 39.7775 47.4375 39.2862 47.5515L20.8885 51.8371C19.8941 52.0689 18.8484 51.8968 17.9806 51.3586C17.1129 50.8204 16.494 49.9601 16.2596 48.9663L10.7538 25.6165Z" fill="#547AFF"/>
<path d="M55.5682 51.7643V51.7644C55.5683 52.2166 55.4792 52.6645 55.3062 53.0823C55.1332 53.5002 54.8796 53.8798 54.5598 54.1997C54.2401 54.5195 53.8604 54.7732 53.4426 54.9463C53.0248 55.1194 52.577 55.2084 52.1248 55.2084H22.5869C22.5869 55.2084 22.5868 55.2084 22.5868 55.2084C21.6735 55.2083 20.7977 54.8453 20.1519 54.1995C19.5062 53.5536 19.1434 52.6776 19.1434 51.7643V16.2468C19.1434 15.9154 19.412 15.6468 19.7434 15.6468H54.9682C55.2996 15.6468 55.5682 15.9154 55.5682 16.2468V51.7643Z" fill="white" stroke="#101114" stroke-width="0.8"/>
<path d="M27.1965 28L49.1965 27" stroke="#101114" stroke-width="0.8"/>
<path d="M27.1965 36.7193L45.6305 38.2807" stroke="#101114" stroke-width="0.8"/>
<path d="M9.47153 51.7643V46.3987H47.4937V51.38C47.4937 52.4821 47.9224 53.5409 48.6891 54.3325C49.043 54.6978 49.456 54.993 49.9066 55.2085H12.9156C12.4633 55.2085 12.0155 55.1194 11.5976 54.9463C11.1798 54.7732 10.8001 54.5195 10.4803 54.1997C10.1605 53.8799 9.90678 53.5002 9.7337 53.0823C9.56062 52.6645 9.47153 52.2166 9.47153 51.7643Z" fill="white" stroke="#101114" stroke-width="0.8"/>
</svg>
