
<svg width="160px" height="140px" viewBox="0 0 160 140" version="1.1" xmlns="http://www.w3.org/2000/svg" xmlns:xlink="http://www.w3.org/1999/xlink">
    <title>nsgwxrxohh</title>
    <g id="jifgclmzpf" stroke="none" stroke-width="1" fill="none" fill-rule="evenodd">
        <g id="ozphyifpbk" transform="translate(-107.000000, -500.000000)">
            <g id="weqldsdvey" transform="translate(107.000000, 500.000000)">
                <rect id="vqihjzmfdn" fill="#FFFFFF" opacity="0" x="0" y="0" width="160" height="140"></rect>
                <g id="hhlbrenpjo" transform="translate(9.000000, 14.848485)">
                    <path d="M25.7207303,37.2616495 L66.2055788,37.2616495 C68.4147178,37.2616495 70.2055788,39.0525105 70.2055788,41.2616495 L70.2055788,95.0798313 C70.2055788,97.2889703 68.4147178,99.0798313 66.2055788,99.0798313 L25.7207303,99.0798313 C23.5115913,99.0798313 21.7207303,97.2889703 21.7207303,95.0798313 L21.7207303,41.2616495 C21.7207303,39.0525105 23.5115913,37.2616495 25.7207303,37.2616495 Z" id="plcgdyqvhw" fill="#C0DDFF" fill-rule="nonzero" transform="translate(45.963155, 68.170740) rotate(-18.777800) translate(-45.963155, -68.170740) "></path>
                    <path d="M27.8776479,52.3338805 L55.1806782,52.3338805 C56.0091053,52.3338805 56.6806782,53.0054533 56.6806782,53.8338805 L56.6806782,54.4702441 C56.6806782,55.2986712 56.0091053,55.9702441 55.1806782,55.9702441 L27.8776479,55.9702441 C27.0492208,55.9702441 26.3776479,55.2986712 26.3776479,54.4702441 L26.3776479,53.8338805 C26.3776479,53.0054533 27.0492208,52.3338805 27.8776479,52.3338805 Z" id="eseefwyzgw" fill="#FFFFFF" fill-rule="nonzero" transform="translate(41.529163, 54.152062) rotate(-19.952500) translate(-41.529163, -54.152062) "></path>
                    <path d="M30.3018903,60.8187289 L57.6049206,60.8187289 C58.4333478,60.8187289 59.1049206,61.4903018 59.1049206,62.3187289 L59.1049206,62.9550926 C59.1049206,63.7835197 58.4333478,64.4550926 57.6049206,64.4550926 L30.3018903,64.4550926 C29.4734632,64.4550926 28.8018903,63.7835197 28.8018903,62.9550926 L28.8018903,62.3187289 C28.8018903,61.4903018 29.4734632,60.8187289 30.3018903,60.8187289 Z" id="wihbiidwzj" fill="#FFFFFF" fill-rule="nonzero" transform="translate(43.953405, 62.636911) rotate(-19.952500) translate(-43.953405, -62.636911) "></path>
                    <path d="M32.7261328,68.0914562 L60.0291631,68.0914562 C60.8575902,68.0914562 61.5291631,68.7630291 61.5291631,69.5914562 L61.5291631,70.2278198 C61.5291631,71.056247 60.8575902,71.7278198 60.0291631,71.7278198 L32.7261328,71.7278198 C31.8977056,71.7278198 31.2261328,71.056247 31.2261328,70.2278198 L31.2261328,69.5914562 C31.2261328,68.7630291 31.8977056,68.0914562 32.7261328,68.0914562 Z" id="hukvyscxyh" fill="#FFFFFF" fill-rule="nonzero" transform="translate(46.377648, 69.909638) rotate(-19.952500) translate(-46.377648, -69.909638) "></path>
                    <path d="M36.3624964,76.5763047 L63.6655267,76.5763047 C64.4939538,76.5763047 65.1655267,77.2478776 65.1655267,78.0763047 L65.1655267,78.7126683 C65.1655267,79.5410955 64.4939538,80.2126683 63.6655267,80.2126683 L36.3624964,80.2126683 C35.5340693,80.2126683 34.8624964,79.5410955 34.8624964,78.7126683 L34.8624964,78.0763047 C34.8624964,77.2478776 35.5340693,76.5763047 36.3624964,76.5763047 Z" id="becockwssp" fill="#FFFFFF" fill-rule="nonzero" transform="translate(50.014012, 78.394487) rotate(-19.952500) translate(-50.014012, -78.394487) "></path>
                    <path d="M54.0430844,13.0667187 L111.921872,13.0667187 C114.683296,13.0667187 116.921872,15.305295 116.921872,18.0667187 L116.921872,95.4550824 C116.921872,98.2165061 114.683296,100.455082 111.921872,100.455082 L54.0430844,100.455082 C51.2816606,100.455082 49.0430844,98.2165061 49.0430844,95.4550824 L49.0430844,18.0667187 C49.0430844,15.305295 51.2816606,13.0667187 54.0430844,13.0667187 Z" id="kgtcbehsom" fill="#5287C5" fill-rule="nonzero" transform="translate(82.982478, 56.760901) rotate(4.464640) translate(-82.982478, -56.760901) "></path>
                    <rect id="vqpbrwlddd" fill="#C0DDFF" fill-rule="nonzero" x="52.1212121" y="10.9090909" width="67.8787879" height="84.8484848" rx="4"></rect>
                    <circle id="uhrcgikrsf" stroke="#FFFFFF" stroke-width="2" cx="68.4848485" cy="36.969697" r="3.03030303"></circle>
                    <circle id="huspeklxjl" stroke="#FFFFFF" stroke-width="2" cx="68.4848485" cy="56.3636364" r="3.03030303"></circle>
                    <circle id="xgwudhxtzp" stroke="#FFFFFF" stroke-width="2" cx="68.4848485" cy="75.7575758" r="3.03030303"></circle>
                    <rect id="zcyvoihzld" fill="#FFFFFF" fill-rule="nonzero" x="80" y="33.9393939" width="33.9393939" height="4.84848485" rx="2"></rect>
                    <path d="M38.1818182,8.48484848 C40.5248485,8.48484848 42.4242424,6.58545455 42.4242424,4.24242424 C42.4242424,1.89939394 40.5248485,0 38.1818182,0 C35.8387879,0 33.9393939,1.89939394 33.9393939,4.24242424 C33.9393939,6.58545455 35.8387879,8.48484848 38.1818182,8.48484848 Z" id="vkvsryigel" stroke="#A6CAFF" stroke-width="2"></path>
                    <path d="M143.030303,47.2727273 C144.369697,47.2727273 145.454545,46.1873939 145.454545,44.8484848 C145.454545,43.5095758 144.369697,42.4242424 143.030303,42.4242424 C141.690909,42.4242424 140.606061,43.5095758 140.606061,44.8484848 C140.606061,46.1873939 141.690909,47.2727273 143.030303,47.2727273 Z" id="jsntnimioc" stroke="#A6CAFF" stroke-width="2"></path>
                    <path d="M2.42424242,71.5151515 C3.76311515,71.5151515 4.84848485,70.4298182 4.84848485,69.0909091 C4.84848485,67.752 3.76311515,66.6666667 2.42424242,66.6666667 C1.0853697,66.6666667 0,67.752 0,69.0909091 C0,70.4298182 1.0853697,71.5151515 2.42424242,71.5151515 Z" id="yubtoipwrh" stroke="#A6CAFF"></path>
                    <path d="M76.3636364,115.151515 C77.7025455,115.151515 78.7878788,114.066182 78.7878788,112.727273 C78.7878788,111.388364 77.7025455,110.30303 76.3636364,110.30303 C75.0247273,110.30303 73.9393939,111.388364 73.9393939,112.727273 C73.9393939,114.066182 75.0247273,115.151515 76.3636364,115.151515 Z" id="ehcbbdhdjk" stroke="#A6CAFF"></path>
                    <rect id="kzxyvcbheb" fill="#FFFFFF" fill-rule="nonzero" x="80" y="53.3333333" width="25.4545455" height="4.84848485" rx="2"></rect>
                    <rect id="dmelujsjxz" fill="#FFFFFF" fill-rule="nonzero" x="80" y="71.5151515" width="19.3939394" height="4.84848485" rx="2"></rect>
                </g>
            </g>
        </g>
    </g>
</svg>