<?xml version="1.0" encoding="UTF-8"?>
<svg width="160px" height="140px" viewBox="0 0 160 140" version="1.1" xmlns="http://www.w3.org/2000/svg" xmlns:xlink="http://www.w3.org/1999/xlink">
    <title>Img</title>
    <g id="send/receive" stroke="none" stroke-width="1" fill="none" fill-rule="evenodd">
        <g id="sss-Activity-sss" transform="translate(-108.000000, -389.000000)">
            <g id="Img" transform="translate(108.000000, 389.000000)">
                <rect id="ww" fill="#FFFFFF" opacity="0" x="0" y="0" width="160" height="140"></rect>
                <path d="M44.7069096,50.7496784 C40.1635158,53.2221118 35.4359006,55.305759 30.570468,56.9801681 C30.339214,57.0532728 30.0947772,56.9180328 30.0226272,56.6770632 C29.9855605,56.5624659 29.9943033,56.4370867 30.0468758,56.3293161 C30.0994482,56.2215456 30.1914032,56.1405002 30.3019186,56.1045317 C35.1106512,54.4493657 39.7812033,52.3843064 44.2664885,49.9301726 C47.0701445,48.4146481 49.7878646,46.7868625 52.3229712,45.0804942 C52.4201951,45.0097705 52.5410442,44.984131 52.6569608,45.0096343 C52.7728775,45.0351377 52.8735772,45.1095212 52.9352639,45.2152074 C53.0606373,45.4294808 52.9984959,45.7092315 52.7956182,45.8438695 C50.2819956,47.57269 47.5427915,49.2229278 44.7069096,50.7496784 Z" id="aaa" fill="#85BFFF" fill-rule="nonzero"></path>
                <path d="M65.8728833,34.9548797 C65.7043416,35.0362166 65.5027272,35.0057501 65.3661791,34.8783104 C65.2820848,34.7960717 65.2347322,34.6837678 65.2347322,34.5665639 C65.2347322,34.4493601 65.2820848,34.3370561 65.3661791,34.2548175 C69.4198123,29.8794286 70.9619553,26.1056557 69.7723021,23.7210688 C67.54721,19.5972648 57.446173,20.0129268 44.6023245,24.7821006 C44.4914018,24.8242531 44.3680399,24.8201529 44.2602037,24.7707295 C44.1523676,24.7213062 44.0691907,24.6307457 44.0295285,24.5195773 C43.9867382,24.4079136 43.990585,24.2839107 44.0402156,24.1750742 C44.0898463,24.0662377 44.1811578,23.9815652 44.2938959,23.9398383 C57.7986629,18.9190796 68.0869601,18.6893716 70.4882971,23.2944684 C71.9202871,26.0290864 70.3230675,30.1310135 65.9940517,34.8345565 C65.9605193,34.8809399 65.9195925,34.9215813 65.8728833,34.9548797 L65.8728833,34.9548797 Z" id="aaa" fill="#85BFFF" fill-rule="nonzero"></path>
                <path d="M24.1869107,58.9909802 C24.149719,58.9975397 24.1116791,58.9975397 24.0744874,58.9909802 C15.3167156,60.9280937 9.24585958,60.0444981 7.52578372,56.6120688 C4.33296317,50.3815867 15.9912551,38.1245293 34.0801574,28.6768528 C35.20439,28.1104453 36.238684,27.5440378 37.3179473,27.0569274 C37.4680917,26.9742156 37.6513529,26.9821226 37.793931,27.0774642 C37.9365091,27.1728057 38.0149363,27.339889 37.9976296,27.511429 C37.980323,27.6829691 37.8701311,27.8307309 37.7114287,27.8952105 C36.6434077,28.4049772 35.5753868,28.9374002 34.4961235,29.5038077 C17.4639998,38.407733 5.47968041,50.6081497 8.33523118,56.1815992 C9.87542983,59.1835587 15.6877123,59.9085603 23.8608832,58.1300408 C24.0910874,58.0737633 24.3261466,58.20247 24.4045302,58.4277147 C24.4829137,58.6529594 24.3790987,58.9013992 24.164426,59.0023083 L24.1869107,58.9909802 Z" id="aaa" fill="#85BFFF" fill-rule="nonzero"></path>
                <circle id="" fill="#85BFFF" fill-rule="nonzero" cx="26.5" cy="57.5" r="1.5"></circle>
                <circle id="nodata" fill="#85BFFF" fill-rule="nonzero" cx="60" cy="39" r="3"></circle>
                <circle id="no da ta" fill="#85BFFF" fill-rule="nonzero" cx="40.5" cy="25.5" r="2.5"></circle>
                <path d="M58.2477107,46.1350066 L56.1113945,40.6977543 C55.7068153,39.6752752 54.7260802,39.0032582 53.6337082,39 L31.6098297,39 C30.1595983,39.0301998 29,40.223666 29,41.6853369 L29,120.314663 C29,121.797734 30.1931116,123 31.6648894,123 L121.335111,123 C122.806888,123 124,121.797734 124,120.314663 L124,50.5180978 C124,49.0350272 122.806888,47.8327609 121.335111,47.8327609 L60.7694448,47.8327609 C59.6591541,47.8542289 58.6529983,47.1768358 58.2477107,46.1350066 Z" id="aaa" fill="#358FFF" fill-rule="nonzero" opacity="0.1"></path>
                <path d="M121.170928,123 L31.4215981,123 C30.7429462,123 30.0956188,122.717292 29.6370369,122.222185 C29.178455,121.727079 28.9506358,121.064364 29.0089816,120.395205 L34.4154357,60.1706656 C34.52918,58.9374049 35.5767571,57.9948939 36.8280521,58 L126.577383,58 C127.257127,57.9972346 127.906521,58.2783678 128.365845,58.7742757 C128.825169,59.2701835 129.0518,59.9348479 128.989999,60.6047946 L123.583545,120.829334 C123.469801,122.062595 122.422223,123.005106 121.170928,123 L121.170928,123 Z" id="aaa" fill="#358FFF" fill-rule="nonzero"></path>
                <path d="M123.869076,123 L32.9987124,123 C32.3757408,123.001645 31.7878171,122.71054 31.4095521,122.213122 C31.0312871,121.715705 30.9061822,121.069179 31.0713929,120.465562 L46.2036046,65.471963 C46.4420899,64.6006033 47.2316273,63.9976081 48.1309242,64 L139.001288,64 C139.624259,63.998344 140.212183,64.2894498 140.590448,64.7868674 C140.968713,65.2842849 141.093818,65.9308099 140.928607,66.5344274 L125.796395,121.539094 C125.553787,122.406063 124.765263,123.003755 123.869076,123 Z" id="aaa" fill="#85BFFF" fill-rule="nonzero"></path>
                <path d="M75.7341262,81.2234501 L70.9673796,85.9186954 L66.2721343,81.2234501 C65.9825481,80.9338639 65.5130362,80.9338639 65.2234501,81.2234501 C64.9338639,81.5130362 64.9338639,81.9825481 65.2234501,82.2721343 L69.9186954,86.9673796 L65.2234501,91.7341262 C65.0806945,91.8712016 65,92.0605571 65,92.2584683 C65,92.4563795 65.0806945,92.645735 65.2234501,92.7828104 C65.5150863,93.0674042 65.9804981,93.0674042 66.2721343,92.7828104 L70.9673796,88.0160639 L75.7341262,92.7828104 C76.0237123,93.0723965 76.4932242,93.0723965 76.7828104,92.7828104 C77.0723965,92.4932242 77.0723965,92.0237123 76.7828104,91.7341262 L72.0160639,86.9673796 L76.7828104,82.2721343 C77.0674042,81.9804981 77.0674042,81.5150863 76.7828104,81.2234501 C76.645735,81.0806945 76.4563795,81 76.2584683,81 C76.0605571,81 75.8712016,81.0806945 75.7341262,81.2234501 Z" id="aaa" fill="#FFFFFF" fill-rule="nonzero"></path>
                <path d="M102.719399,81.1657249 L98,85.8850483 L93.2806006,81.1657249 C92.9816244,80.9261721 92.5505888,80.9486582 92.2781622,81.2180195 C92.0057355,81.4873808 91.9783803,81.9181279 92.2145434,82.219787 L96.945921,86.9391104 L92.2145434,91.7303017 C91.9284855,92.0234335 91.9284855,92.491232 92.2145434,92.7843638 C92.511737,93.0718787 92.983407,93.0718787 93.2806006,92.7843638 L98,87.9931725 L102.719399,92.7843638 C103.016593,93.0718787 103.488263,93.0718787 103.785457,92.7843638 C104.071514,92.491232 104.071514,92.0234335 103.785457,91.7303017 L98.9941882,86.9391104 L103.785457,82.219787 C104.02162,81.9181279 103.994264,81.4873808 103.721838,81.2180195 C103.449411,80.9486582 103.018376,80.9261721 102.719399,81.1657249 L102.719399,81.1657249 Z" id="aaa" fill="#FFFFFF" fill-rule="nonzero"></path>
                <path d="M95.3008592,109.926988 C95.1027872,109.925388 94.9125726,109.849446 94.7680353,109.714263 C92.0132453,107.528111 88.5664448,106.396444 85.0493262,106.523379 C81.5259869,106.480373 78.0922287,107.631539 75.3093043,109.788717 C75.107523,109.978716 74.8195138,110.046837 74.5537668,109.96742 C74.2880199,109.888003 74.0849086,109.673113 74.0209429,109.403697 C73.9569772,109.134281 74.0418751,108.85127 74.2436563,108.661271 C77.2922912,106.230477 81.0946269,104.936598 84.9960438,105.002391 C91.8907859,105.002391 95.652523,108.533636 95.7697443,108.682544 C95.9905982,108.896038 96.060052,109.221697 95.9454623,109.506461 C95.8308727,109.791225 95.5550287,109.978462 95.2475768,109.98017 L95.3008592,109.926988 Z" id="aaa" fill="#FFFFFF" fill-rule="nonzero"></path>
            </g>
        </g>
    </g>
</svg>