<svg width="48" height="48" viewBox="0 0 48 48" fill="none" xmlns="http://www.w3.org/2000/svg">
<g clip-path="url(#clip0_13233_39795)">
<rect width="48" height="48" rx="24" fill="#5D42FF"/>
<path d="M22.2895 14.9719C18.989 16.4198 16.5995 20.3463 17.774 24.7063C18.6022 27.1179 20.1783 28.857 22.6532 29.7354C26.9811 31.2716 31.5732 27.8478 30.9158 23.4533C30.636 21.5835 29.438 20.352 27.7969 19.8941C26.3922 19.5651 24.9749 19.8103 23.9549 20.7838C23.2465 21.4598 22.8361 22.5323 23.0566 23.6663C23.2663 24.3606 23.6005 24.7926 24.4554 24.9987C24.9254 25.1121 25.5254 24.9987 25.7095 24.5744C25.8344 24.2866 25.7187 24.051 25.6337 23.7784C25.4025 23.037 25.5525 22.6095 25.957 22.2432C26.4997 21.7064 27.4214 21.6978 28.0064 22.1101C28.759 22.4952 29.358 23.7216 28.653 25.6061C27.8464 27.5448 25.7443 28.129 23.7842 27.621C20.951 26.8867 19.4066 23.6663 20.0852 21.106C21.2143 16.8462 25.9622 15.5283 29.9106 17.4834C32.5749 18.9834 34.2431 21.4038 34.1944 24.6916C33.9859 30.0987 28.5161 34.0865 23.0451 33.0438C17.5512 31.8927 14.2533 27.1345 14.1805 22.4733C14.1534 20.7404 14.4838 18.9913 15.3877 17.1476C17.5334 13.0937 21.2609 11.1968 26.0066 10.9132C27.2517 10.8388 28.1544 10.9132 29.7291 11.0686C29.6658 11.0405 29.5212 10.9694 29.3706 10.9132C27.1239 10.0719 24.8019 9.80359 22.4226 10.143C20.8926 10.3612 19.6379 10.7992 18.3998 11.3693C17.8665 11.5565 17.7873 11.1037 17.3755 10.7602C17.183 10.6001 17.2022 10.8035 17.2022 10.8035C17.3701 11.6024 16.9971 12.0055 16.9403 12.0449C16.742 12.2386 16.2599 12.5971 15.9281 12.7422C15.2437 13.0417 14.926 12.5487 14.3809 12.2711C14.0074 12.081 14.1534 12.3956 14.1534 12.3956C14.6159 13.3146 14.2921 14.1572 14.2174 14.2898C13.899 14.7512 13.6327 15.0788 13.2034 15.467C12.4493 16.1488 11.5535 15.4911 11.2868 15.3916C10.7838 15.2039 11.1479 15.6327 11.1479 15.6327C11.3484 15.8992 12.071 17.4291 11.8467 17.9137C10.5685 20.5617 10.1505 23.6133 10.715 26.6593C12.815 37.1686 24.7602 40.8131 32.1938 35.7342C36.1386 32.8198 37.4844 28.2832 37.5292 25.4541C37.574 22.6249 36.8622 20.5677 35.5487 18.7314C32.4335 14.376 26.7966 12.9946 22.2895 14.9719Z" fill="white"/>
</g>
<defs>
<clipPath id="clip0_13233_39795">
<rect width="48" height="48" rx="24" fill="white"/>
</clipPath>
</defs>
</svg>
