<svg width="32" height="33" viewBox="0 0 32 33" fill="none" xmlns="http://www.w3.org/2000/svg">
<path d="M32 16.1309C32 24.9674 24.8366 32.1309 16 32.1309C7.16344 32.1309 0 24.9674 0 16.1309C0 7.2943 7.16344 0.130859 16 0.130859C24.8366 0.130859 32 7.2943 32 16.1309Z" fill="#E7F0FC"/>
<path d="M11.0698 7.13086H20.7019C21.4999 7.13086 22.1467 7.73527 22.1467 8.48086V23.7809C22.1467 24.5264 21.4999 25.1309 20.7019 25.1309H11.0698C10.2719 25.1309 9.625 24.5264 9.625 23.7809V8.48086C9.625 7.73527 10.2719 7.13086 11.0698 7.13086ZM15.1033 21.6091C14.671 21.6091 14.3207 21.9595 14.3207 22.3917C14.3207 22.824 14.671 23.1743 15.1033 23.1743H16.6685C17.1007 23.1743 17.4511 22.824 17.4511 22.3917C17.4511 21.9595 17.1007 21.6091 16.6685 21.6091H15.1033Z" fill="#5B8EF4"/>
<path d="M11.1902 9.07109C11.1902 8.86398 11.3581 8.69609 11.5652 8.69609H20.2065C20.4136 8.69609 20.5815 8.86398 20.5815 9.07109V19.6689C20.5815 19.876 20.4136 20.0439 20.2065 20.0439H11.5652C11.3581 20.0439 11.1902 19.876 11.1902 19.6689V9.07109Z" fill="#BDD4FF"/>
</svg>
