<svg width="20" height="20" viewBox="0 0 20 20" fill="none" xmlns="http://www.w3.org/2000/svg">
<path fill-rule="evenodd" clip-rule="evenodd" d="M4.74758 0.5C3.82169 0.5 3.07111 1.25058 3.07111 2.17647V17.8235C3.07111 18.7494 3.82169 19.5 4.74758 19.5H15.2535C16.1794 19.5 16.93 18.7494 16.93 17.8235V2.17647C16.93 1.25058 16.1794 0.5 15.2535 0.5H4.74758ZM4.74665 3.29781C4.74665 2.68055 5.24704 2.18016 5.86431 2.18016H14.1349C14.7522 2.18016 15.2526 2.68055 15.2526 3.29781V13.9116C15.2526 14.5289 14.7522 15.0293 14.1349 15.0293H5.86431C5.24704 15.0293 4.74665 14.5289 4.74665 13.9116V3.29781ZM8.60295 16.9733C8.60295 16.572 8.9282 16.2468 9.32942 16.2468H10.6706C11.0718 16.2468 11.3971 16.572 11.3971 16.9733C11.3971 17.3745 11.0718 17.6997 10.6706 17.6997H9.32942C8.9282 17.6997 8.60295 17.3745 8.60295 16.9733Z" fill="#515A62"/>
</svg>
