<svg width="32" height="32" viewBox="0 0 32 32" fill="none" xmlns="http://www.w3.org/2000/svg">
<path d="M14.7591 4.1731C14.1178 3.2799 14.7562 2.03579 15.8557 2.03578L25.0152 2.03577C26.1438 2.03577 26.7742 3.33832 26.074 4.22341L23.9936 6.85282L26.1087 13.7215C27.1329 14.1292 28.0325 14.6573 28.7007 15.4251C29.5192 16.3657 29.8713 17.5251 29.8812 18.8835C29.8864 19.5909 29.3171 20.1933 28.5815 20.1933L23.4297 20.1933L21.6378 28.8824C21.342 30.3166 19.2943 30.3197 18.9942 28.8863L17.1744 20.1933L12.054 20.1933C11.2761 20.1933 10.6906 19.5225 10.7597 18.7736C10.879 17.4806 11.2376 16.3333 12.0068 15.3993C12.6529 14.6147 13.5109 14.075 14.5308 13.6958L16.6572 6.81696L14.7591 4.1731ZM18.0969 4.53583L19.0212 5.82329C19.2677 6.1666 19.3392 6.60552 19.2144 7.0093L16.7449 14.9979C16.6083 15.4399 16.2603 15.7681 15.8396 15.8934C14.855 16.1869 14.2882 16.5614 13.9366 16.9885C13.7786 17.1803 13.6418 17.4097 13.5308 17.6933L18.1085 17.6933C18.7474 17.6933 19.2989 18.1413 19.4298 18.7667L20.3071 22.957L21.1704 18.7707C21.2997 18.1434 21.8521 17.6933 22.4925 17.6933L27.1887 17.6933C27.0928 17.4411 26.9651 17.2391 26.8148 17.0663C26.4461 16.6427 25.8182 16.253 24.7356 15.8781C24.3381 15.7405 24.0158 15.42 23.8863 14.9993L21.4263 7.01078C21.2955 6.58612 21.3821 6.1243 21.6578 5.77583L22.6389 4.53582L18.0969 4.53583ZM2.4 14.235C2.17909 14.235 2 14.0559 2 13.835V12.135C2 11.9141 2.17909 11.735 2.4 11.735H9.93569C10.1566 11.735 10.3357 11.9141 10.3357 12.135V13.835C10.3357 14.0559 10.1566 14.235 9.93569 14.235H2.4ZM2 19.7349C2 19.9558 2.17909 20.1349 2.4 20.1349H8.27944C8.50036 20.1349 8.67944 19.9558 8.67944 19.7349V18.0349C8.67944 17.814 8.50036 17.6349 8.27944 17.6349H2.4C2.17909 17.6349 2 17.814 2 18.0349V19.7349ZM2.4 26.0348C2.17909 26.0348 2 25.8557 2 25.6348V23.9348C2 23.7139 2.17909 23.5348 2.4 23.5348H14.2191C14.4401 23.5348 14.6191 23.7139 14.6191 23.9348V25.6348C14.6191 25.8557 14.4401 26.0348 14.2191 26.0348H2.4Z" fill="#55585E"/>
</svg>
