<svg width="21" height="20" viewBox="0 0 21 20" fill="none" xmlns="http://www.w3.org/2000/svg">
<path d="M2.16669 8.14815V2.5926C2.16669 2.33025 2.25542 2.11034 2.43289 1.93288C2.61036 1.75541 2.83027 1.66667 3.09261 1.66667H8.64817C8.91051 1.66667 9.13042 1.75541 9.30789 1.93288C9.48536 2.11034 9.57409 2.33025 9.57409 2.5926V8.14815C9.57409 8.4105 9.48536 8.63041 9.30789 8.80788C9.13042 8.98534 8.91051 9.07408 8.64817 9.07408H3.09261C2.83027 9.07408 2.61036 8.98534 2.43289 8.80788C2.25542 8.63041 2.16669 8.4105 2.16669 8.14815ZM4.01854 7.22223H7.72224V3.51852H4.01854V7.22223ZM2.16669 17.4074V11.8519C2.16669 11.5895 2.25542 11.3696 2.43289 11.1921C2.61036 11.0147 2.83027 10.9259 3.09261 10.9259H8.64817C8.91051 10.9259 9.13042 11.0147 9.30789 11.1921C9.48536 11.3696 9.57409 11.5895 9.57409 11.8519V17.4074C9.57409 17.6698 9.48536 17.8897 9.30789 18.0671C9.13042 18.2446 8.91051 18.3333 8.64817 18.3333H3.09261C2.83027 18.3333 2.61036 18.2446 2.43289 18.0671C2.25542 17.8897 2.16669 17.6698 2.16669 17.4074ZM4.01854 16.4815H7.72224V12.7778H4.01854V16.4815ZM11.4259 8.14815V2.5926C11.4259 2.33025 11.5147 2.11034 11.6922 1.93288C11.8696 1.75541 12.0895 1.66667 12.3519 1.66667H17.9074C18.1698 1.66667 18.3897 1.75541 18.5672 1.93288C18.7446 2.11034 18.8334 2.33025 18.8334 2.5926V8.14815C18.8334 8.4105 18.7446 8.63041 18.5672 8.80788C18.3897 8.98534 18.1698 9.07408 17.9074 9.07408H12.3519C12.0895 9.07408 11.8696 8.98534 11.6922 8.80788C11.5147 8.63041 11.4259 8.4105 11.4259 8.14815ZM13.2778 7.22223H16.9815V3.51852H13.2778V7.22223ZM16.9815 18.3333V16.4815H18.8334V18.3333H16.9815ZM11.4259 12.7778V10.9259H13.2778V12.7778H11.4259ZM13.2778 14.6296V12.7778H15.1297V14.6296H13.2778ZM11.4259 16.4815V14.6296H13.2778V16.4815H11.4259ZM13.2778 18.3333V16.4815H15.1297V18.3333H13.2778ZM15.1297 16.4815V14.6296H16.9815V16.4815H15.1297ZM15.1297 12.7778V10.9259H16.9815V12.7778H15.1297ZM16.9815 14.6296V12.7778H18.8334V14.6296H16.9815Z" fill="white"/>
</svg>
