<svg width="12" height="12" viewBox="0 0 12 12" fill="none" xmlns="http://www.w3.org/2000/svg">
<path d="M6.00391 10.3125C8.38563 10.3125 10.3164 8.38173 10.3164 6C10.3164 3.61827 8.38563 1.6875 6.00391 1.6875C3.62218 1.6875 1.69141 3.61827 1.69141 6C1.69141 8.38173 3.62218 10.3125 6.00391 10.3125ZM6.00391 11.25C3.10441 11.25 0.753906 8.89949 0.753906 6C0.753906 3.1005 3.10441 0.75 6.00391 0.75C8.9034 0.75 11.2539 3.1005 11.2539 6C11.2539 8.89949 8.9034 11.25 6.00391 11.25ZM6.73995 8.32501C6.73995 8.6978 6.43775 9.00001 6.06495 9.00001C5.69216 9.00001 5.38995 8.6978 5.38995 8.32501C5.38995 7.95222 5.69216 7.65001 6.06495 7.65001C6.43775 7.65001 6.73995 7.95222 6.73995 8.32501ZM5.19528 4.93139C5.27812 4.93139 5.34351 4.86334 5.36215 4.78262C5.42959 4.4905 5.69133 4.27272 6.00394 4.27272C6.36771 4.27272 6.66261 4.56762 6.66261 4.93139C6.66261 5.14149 6.56476 5.32849 6.41026 5.44985C6.2461 5.57882 6.03527 5.75049 5.8661 5.95847C5.69489 6.16895 5.53519 6.45441 5.53519 6.8088V6.9375C5.53519 7.02035 5.60235 7.0875 5.68519 7.0875H6.32269C6.40553 7.0875 6.47269 7.02035 6.47269 6.9375V6.8088C6.47269 6.74898 6.49808 6.66721 6.59338 6.55005C6.69072 6.43038 6.82785 6.31399 6.98941 6.18708C7.36041 5.89563 7.60011 5.44137 7.60011 4.93139C7.60011 4.04985 6.88548 3.33522 6.00394 3.33522C5.17294 3.33522 4.49026 3.97026 4.41472 4.78153C4.40704 4.86401 4.47493 4.93139 4.55778 4.93139H5.19528Z" fill="#808080"/>
</svg>
