<svg width="25" height="24" viewBox="0 0 25 24" fill="none" xmlns="http://www.w3.org/2000/svg">
<g id="arrow_11104563" clip-path="url(#clip0_3069_3681)">
<path id="Arrow-Down" d="M12.375 0C12.175 0 11.975 0 11.775 0C9.975 0.2 8.475 1.5 8.175 3.3C8.175 3.5 8.175 3.6 8.075 3.9L7.475 9.6L4.775 9.9C3.375 10 2.375 11.1 2.375 12.5C2.375 13 2.575 13.6 2.875 14L9.175 22.4C9.975 23.4 11.075 24 12.375 24C13.675 24 14.775 23.4 15.575 22.4L21.875 14C22.175 13.5 22.375 13 22.375 12.4C22.375 11.1 21.375 9.9 19.975 9.8L17.275 9.5L16.675 3.8C16.675 3.6 16.675 3.4 16.575 3.2C16.275 1.4 14.775 0.1 12.975 0C12.875 0 12.675 0 12.375 0Z" fill="#151318"/>
</g>
<defs>
<clipPath id="clip0_3069_3681">
<rect width="24" height="24" fill="white" transform="translate(0.375)"/>
</clipPath>
</defs>
</svg>
