<svg width="49" height="48" viewBox="0 0 49 48" fill="none" xmlns="http://www.w3.org/2000/svg">
<circle cx="24" cy="24" r="24" fill="#F7F7F9"/>
<path d="M23.625 29.5297V15.6293C23.625 15.4912 23.737 15.3793 23.875 15.3793H25.125C25.2631 15.3793 25.375 15.4912 25.375 15.6293V29.5289L29.2731 25.6308C29.3707 25.5332 29.529 25.5332 29.6266 25.6308L30.5105 26.5147C30.6082 26.6124 30.6082 26.7707 30.5105 26.8683L24.942 32.4376C24.6979 32.6817 24.3021 32.6817 24.0581 32.4376L18.4896 26.8691C18.392 26.7715 18.392 26.6132 18.4896 26.5156L19.3735 25.6317C19.4711 25.5341 19.6294 25.5341 19.727 25.6317L23.625 29.5297Z" fill="#25272A"/>
</svg>
