<svg width="49" height="48" viewBox="0 0 49 48" fill="none" xmlns="http://www.w3.org/2000/svg">
<circle cx="24" cy="24" r="24" fill="#F7F7F9"/>
<path d="M25.3751 18.4703V32.3707C25.3751 32.5087 25.2632 32.6207 25.1251 32.6207H23.8751C23.737 32.6207 23.6251 32.5087 23.6251 32.3707V18.4711L19.727 22.3691C19.6294 22.4668 19.4711 22.4668 19.3735 22.3691L18.4896 21.4852C18.392 21.3876 18.392 21.2293 18.4896 21.1317L24.0582 15.5624C24.3022 15.3183 24.698 15.3183 24.9421 15.5624L30.5105 21.1308C30.6082 21.2285 30.6082 21.3867 30.5105 21.4844L29.6266 22.3683C29.529 22.4659 29.3707 22.4659 29.2731 22.3683L25.3751 18.4703Z" fill="#25272A"/>
</svg>
