<svg width="40" height="40" viewBox="0 0 40 40" fill="none" xmlns="http://www.w3.org/2000/svg">
<path d="M6.25 5.65674L6.25 34.3442C6.25 35.7422 7.40427 36.8755 8.82812 36.8755L31.1719 36.8755C32.5957 36.8755 33.75 35.7422 33.75 34.3442L33.75 5.65674C33.75 4.25876 32.5957 3.12549 31.1719 3.12549L8.82812 3.12549C7.40426 3.12549 6.25 4.25877 6.25 5.65674Z" fill="#EA4F45"/>
<path d="M33.75 12.1338C29.6886 14.4277 24.9972 15.7368 20 15.7368C15.0028 15.7368 10.3114 14.4277 6.25 12.1338V5.65674C6.25 4.25877 7.40426 3.12549 8.82812 3.12549H31.1719C32.5957 3.12549 33.75 4.25876 33.75 5.65674V12.1338Z" fill="#FF655B"/>
<path d="M24.5 15.1255C24.5 17.6108 22.4853 19.6255 20 19.6255C17.5147 19.6255 15.5 17.6108 15.5 15.1255C15.5 12.6402 17.5147 10.6255 20 10.6255C22.4853 10.6255 24.5 12.6402 24.5 15.1255Z" fill="#FFD49F"/>
<path d="M19.6532 13.3554C18.8424 13.7076 18.3325 14.5688 18.6293 15.4247C18.8088 15.9423 19.1706 16.3111 19.707 16.4996C20.6451 16.8293 21.6244 16.1044 21.5146 15.1621C21.468 14.7616 21.2625 14.4566 20.8454 14.3304C20.535 14.2366 20.2381 14.2804 19.9957 14.5037C19.7901 14.693 19.7121 14.9261 19.7945 15.1971C19.8399 15.3461 19.9491 15.4388 20.0977 15.4831C20.2281 15.5218 20.329 15.4657 20.4067 15.3585C20.391 15.3326 20.3773 15.3043 20.3583 15.2799C20.2568 15.1501 20.3391 14.9614 20.4268 14.8828C20.5459 14.7759 20.7389 14.7662 20.8657 14.8547C21.0714 14.9979 21.1649 15.3789 21.0531 15.618C20.8661 16.0178 20.3852 16.2506 19.9439 16.1373C19.2473 15.9586 18.9038 15.2775 19.1286 14.6191C19.4274 13.7443 20.4317 13.3616 21.2875 13.7812C21.9794 14.1203 22.2362 14.7123 22.2087 15.4171C22.1635 16.5776 20.9808 17.4385 19.795 17.2147C18.6449 16.9977 17.7908 15.9073 17.8521 14.8761C17.8746 14.4954 17.9603 14.1389 18.157 13.8117C18.6688 12.961 19.4661 12.5606 20.4634 12.4959C20.726 12.4788 20.9907 12.4933 21.2408 12.4934C21.2271 12.4874 21.1957 12.4721 21.1631 12.4601C20.6761 12.2795 20.1728 12.2219 19.6571 12.2948C19.3373 12.3338 19.0421 12.4193 18.7737 12.5416C18.7688 12.5424 18.763 12.5441 18.7559 12.547C18.6352 12.5979 18.615 12.481 18.5721 12.4456C18.5304 12.4112 18.5358 12.4539 18.5358 12.4539C18.5722 12.6254 18.481 12.6945 18.4687 12.703C18.3927 12.7495 18.3198 12.7998 18.2493 12.8526C18.2473 12.8535 18.2457 12.8535 18.2435 12.8545C18.0771 12.9297 18.0079 12.8027 17.9314 12.7641C17.8504 12.7233 17.881 12.7903 17.881 12.7903C17.9812 12.9875 17.8947 13.1563 17.8785 13.1848C17.8076 13.2605 17.7411 13.3402 17.6789 13.4229C17.6725 13.427 17.6661 13.4308 17.6587 13.4374C17.4953 13.5837 17.3681 13.4679 17.2671 13.4461C17.1557 13.4223 17.2188 13.4945 17.2188 13.4945C17.4248 13.7034 17.3597 13.9546 17.3597 13.9546L17.3602 13.9548C17.0955 14.5213 17.0004 15.1768 17.1104 15.8349C17.4718 17.9982 20.1592 19.0199 21.9207 17.6263C22.4928 17.1738 22.8897 16.302 22.9315 15.5808C22.9613 15.0686 22.8013 14.6037 22.5064 14.1828C21.8807 13.2898 20.6301 12.9311 19.6532 13.3554" fill="#F39B31"/>
</svg>
