<svg width="28" height="29" viewBox="0 0 28 29" fill="none" xmlns="http://www.w3.org/2000/svg">
<rect y="0.5" width="28" height="28" rx="6" fill="#FD634E"/>
<path d="M20.7149 9.25804H17.8214L17.86 9.251C17.9188 9.24071 18.1242 9.03302 18.1746 9.001C18.2249 8.96897 18.2684 8.92733 18.3026 8.87847C18.3369 8.8296 18.3611 8.77447 18.374 8.71622C18.3869 8.65797 18.3882 8.59776 18.3778 8.53901L18.2089 7.53872C18.1986 7.47996 18.1768 7.4238 18.1448 7.37347C18.1128 7.32313 18.0711 7.27961 18.0223 7.24539C17.9734 7.21116 17.9183 7.18691 17.86 7.17402C17.8018 7.16113 17.7415 7.15985 17.6828 7.17026L14.3086 8.4879C14.1077 8.55237 13.8917 8.55237 13.6908 8.4879L10.3164 7.17026C10.2576 7.15989 10.1974 7.16119 10.1392 7.1741C10.0809 7.18701 10.0258 7.21127 9.97697 7.24548C9.92811 7.2797 9.88648 7.32321 9.85444 7.37352C9.82241 7.42384 9.8006 7.47997 9.79027 7.53872L9.62138 8.53901C9.60051 8.65763 9.62761 8.77968 9.6967 8.87834C9.76579 8.97699 10.049 9.11101 10.2754 9.251L10.314 9.25804H7.28506C7.0769 9.25804 6.87726 9.34071 6.73004 9.48788C6.58282 9.63505 6.50007 9.83466 6.5 10.0428V10.561C6.49993 10.6642 6.52018 10.7663 6.5596 10.8616C6.59902 10.9569 6.65683 11.0436 6.72974 11.1165C6.80265 11.1895 6.88922 11.2473 6.9845 11.2868C7.07978 11.3263 7.18192 11.3466 7.28506 11.3466H20.7149C20.8181 11.3466 20.9202 11.3263 21.0155 11.2868C21.1108 11.2473 21.1974 11.1895 21.2703 11.1165C21.3432 11.0436 21.401 10.9569 21.4404 10.8616C21.4798 10.7663 21.5001 10.6642 21.5 10.561V10.0428C21.4999 9.83466 21.4172 9.63505 21.27 9.48788C21.1227 9.34071 20.9231 9.25804 20.7149 9.25804Z" fill="white"/>
<path d="M8.14688 12.5455H13.3C13.3 12.5455 13.3 12.8072 13.3 13.3306V20.8211C13.3 21.3445 13.3 21.6062 13.3 21.6062H8.14688C7.6235 21.6062 7.36182 21.3445 7.36182 20.8211V13.3306C7.36182 12.8072 7.6235 12.5455 8.14688 12.5455Z" fill="white"/>
<path d="M14.7001 12.5455H19.8531C20.3765 12.5455 20.6381 12.8072 20.6381 13.3306V20.8211C20.6381 21.3445 20.3765 21.6062 19.8531 21.6062H14.7001C14.7001 21.6062 14.7 21.3445 14.7 20.8211V13.3306C14.7 12.8072 14.7001 12.5455 14.7001 12.5455Z" fill="white"/>
</svg>
