<?xml version="1.0" encoding="UTF-8"?>
<svg width="16px" height="16px" viewBox="0 0 16 16" version="1.1" xmlns="http://www.w3.org/2000/svg" xmlns:xlink="http://www.w3.org/1999/xlink">
    <title>right02</title>
    <g id="icon" stroke="none" stroke-width="1" fill="none" fill-rule="evenodd">
        <g id="Common" transform="translate(-147.000000, -113.000000)">
            <g id="right02" transform="translate(147.000000, 113.000000)">
                <rect id="Rectangle" x="0" y="0" width="16" height="16"></rect>
                <path d="M10.2868174,4.21769467 L13.4454368,7.37482557 C13.6173381,7.54672686 13.6874337,7.78232192 13.6557238,8.00616765 C13.6836197,8.22538539 13.6130315,8.4560912 13.4439483,8.62517443 L10.2868174,11.7823053 C9.99655782,12.0725649 9.52469997,12.0725649 9.23444041,11.7823053 C8.94418085,11.4920458 8.94418085,11.0201879 9.23444041,10.7299284 L11.219,8.744 L2.59666015,8.74425528 C2.26730375,8.74425528 2,8.41082891 2,8 C2,7.58917109 2.26730375,7.25574472 2.59666015,7.25574472 L11.219,7.255 L9.23444041,5.27007163 C8.94418085,4.97981208 8.94418085,4.50795423 9.23444041,4.21769467 C9.52469997,3.92743511 9.99655782,3.92743511 10.2868174,4.21769467 Z" id="Shape" fill="#515A62" fill-rule="nonzero"></path>
            </g>
        </g>
    </g>
</svg>