
<svg width="240px" height="240px" viewBox="0 0 240 240" version="1.1" xmlns="http://www.w3.org/2000/svg" xmlns:xlink="http://www.w3.org/1999/xlink">
    <title>vzbmmmilfr</title>
    <g id="buvpnsieuv" stroke="none" stroke-width="1" fill="none" fill-rule="evenodd" opacity="0.300000012">
        <g id="mpjzpcggxw" transform="translate(-68.000000, -216.000000)" fill="#FFFFFF">
            <g id="esqodwthoq" transform="translate(68.000000, 216.000000)">
                <path d="M30.5753425,-1.64309768e-15 C33.5712981,-3.96980264e-15 36,2.42870191 36,5.42465753 C36,8.42061316 33.5712981,10.8493151 30.5753425,10.8493151 L10.849,10.849 L10.8493151,30.5753425 C10.8493151,33.5712981 8.42061316,36 5.42465753,36 C2.42870191,36 3.66898747e-16,33.5712981 0,30.5753425 L0,5.91780822 C-1.98790088e-16,4.29456397 0.712969919,2.83784276 1.84283837,1.84371599 C2.83784276,0.712969919 4.29456397,1.64925972e-16 5.91780822,-1.3325916e-16 L30.5753425,-1.64309768e-15 Z" id="mxfvxbhppc"></path>
                <path d="M31,203.5 C33.7614237,203.5 36,205.738576 36,208.5 C36,211.261424 33.7614237,213.5 31,213.5 L10,213.5 L10,234.5 C10,237.261424 7.76142375,239.5 5,239.5 C2.23857625,239.5 -3.2145368e-15,237.261424 -3.55271368e-15,234.5 L-3.55271368e-15,208.5 C-3.89089055e-15,205.738576 2.23857625,203.5 5,203.5 L31,203.5 Z" id="gqhjeypmci" transform="translate(18.000000, 221.500000) rotate(270.000000) translate(-18.000000, -221.500000) "></path>
                <path d="M235,203.5 C237.761424,203.5 240,205.738576 240,208.5 C240,211.261424 237.761424,213.5 235,213.5 L214,213.5 L214,234.5 C214,237.261424 211.761424,239.5 209,239.5 C206.238576,239.5 204,237.261424 204,234.5 L204,208.5 C204,205.738576 206.238576,203.5 209,203.5 L235,203.5 Z" id="gljtqkfuyc" transform="translate(222.000000, 221.500000) rotate(180.000000) translate(-222.000000, -221.500000) "></path>
                <path d="M235,0.5 C237.761424,0.5 240,2.73857625 240,5.5 C240,8.26142375 237.761424,10.5 235,10.5 L214,10.5 L214,31.5 C214,34.2614237 211.761424,36.5 209,36.5 C206.238576,36.5 204,34.2614237 204,31.5 L204,5.5 C204,2.73857625 206.238576,0.5 209,0.5 L235,0.5 Z" id="dtcvrsjwuu" transform="translate(222.000000, 18.500000) rotate(450.000000) translate(-222.000000, -18.500000) "></path>
            </g>
        </g>
    </g>
</svg>