<svg width="20" height="20" viewBox="0 0 20 20" fill="none" xmlns="http://www.w3.org/2000/svg">
<path d="M3.90625 3.90625H6.9375C7.07557 3.90625 7.1875 3.79432 7.1875 3.65625V2.59375C7.1875 2.45568 7.07557 2.34375 6.9375 2.34375H2.96875C2.62357 2.34375 2.34375 2.62357 2.34375 2.96875V6.9375C2.34375 7.07557 2.45568 7.1875 2.59375 7.1875H3.65625C3.79432 7.1875 3.90625 7.07557 3.90625 6.9375V3.90625ZM16.0938 3.90625H13.0625C12.9244 3.90625 12.8125 3.79432 12.8125 3.65625V2.59375C12.8125 2.45568 12.9244 2.34375 13.0625 2.34375H17.0312C17.3764 2.34375 17.6562 2.62357 17.6562 2.96875V6.9375C17.6562 7.07557 17.5443 7.1875 17.4063 7.1875H16.3437C16.2057 7.1875 16.0938 7.07557 16.0938 6.9375V3.90625ZM12.8125 16.3437C12.8125 16.2057 12.9244 16.0938 13.0625 16.0938H16.0938V13.0625C16.0938 12.9244 16.2057 12.8125 16.3437 12.8125H17.4063C17.5443 12.8125 17.6562 12.9244 17.6562 13.0625V17.0312C17.6562 17.3764 17.3764 17.6562 17.0312 17.6562H13.0625C12.9244 17.6562 12.8125 17.5443 12.8125 17.4063V16.3437ZM3.90625 16.0938H6.9375C7.07557 16.0938 7.1875 16.2057 7.1875 16.3437V17.4063C7.1875 17.5443 7.07557 17.6562 6.9375 17.6562H2.96875C2.62357 17.6562 2.34375 17.3764 2.34375 17.0312V13.0625C2.34375 12.9244 2.45568 12.8125 2.59375 12.8125H3.65625C3.79432 12.8125 3.90625 12.9244 3.90625 13.0625V16.0938ZM2.33429 10.5313C2.33429 10.6693 2.44622 10.7812 2.58429 10.7812H17.4157C17.5538 10.7812 17.6657 10.6693 17.6657 10.5313V9.46875C17.6657 9.33068 17.5538 9.21875 17.4157 9.21875H2.58429C2.44622 9.21875 2.33429 9.33068 2.33429 9.46875V10.5313Z" fill="#25272A"/>
</svg>
