<svg width="24" height="24" viewBox="0 0 24 24" fill="none" xmlns="http://www.w3.org/2000/svg">
<path d="M8 2C8.6 2 9 2.4 9 3C9 3.6 8.6 4 8 4H7.8C6.9 4 6.4 4 5.9 4C5.5 4 5.2 4.1 5.1 4.2C4.7 4.4 4.4 4.7 4.2 5.1C4.1 5.2 4.1 5.5 4 5.9V7.8V8C4 8.6 3.6 9 3 9C2.4 9 2 8.6 2 8V7.8C2 7 2 6.3 2 5.8C2 5.2 2.1 4.7 2.4 4.2C2.8 3.4 3.4 2.8 4.1 2.5C4.6 2.3 5.1 2.2 5.7 2.1H7.7H8V2ZM16.2 4H18.1C18.5 4 18.8 4.1 18.9 4.2C19.3 4.4 19.6 4.7 19.8 5.1C19.9 5.3 19.9 5.5 20 5.9V7.8V8C20 8.6 20.4 9 21 9C21.6 9 22 8.6 22 8V7.8C22 7 22 6.3 22 5.8C22 5.2 21.9 4.7 21.6 4.2C21.2 3.4 20.6 2.8 19.9 2.5C19.4 2.3 18.9 2.2 18.3 2.1C17.8 2.1 17.1 2.1 16.3 2.1H16C15.4 2.1 15 2.5 15 3.1C15 3.7 15.4 4.1 16 4.1H16.2V4ZM3 11C2.4 11 2 11.4 2 12C2 12.6 2.4 13 3 13H21C21.6 13 22 12.6 22 12C22 11.4 21.6 11 21 11H18C18 10.5 18 10.1 18 9.7C18 9.1 17.9 8.6 17.6 8.1C17.2 7.3 16.6 6.7 15.9 6.4C15.4 6.2 14.9 6.1 14.3 6C13.8 6 13.1 6 12.3 6H11.8C11 6 10.3 6 9.8 6C9.2 6 8.7 6.1 8.2 6.4C7.4 6.8 6.8 7.4 6.5 8.1C6.2 8.7 6.1 9.2 6 9.7V11H3ZM4 16C4 15.4 3.6 15 3 15C2.4 15 2 15.4 2 16V16.2V18.2C2 18.8 2.1 19.3 2.4 19.8C2.8 20.6 3.4 21.2 4.1 21.5C4.6 21.7 5.1 21.8 5.7 21.9H7.7H8C8.6 21.9 9 21.5 9 20.9C9 20.3 8.6 19.9 8 19.9H7.8C6.9 19.9 6.4 19.9 5.9 19.9C5.5 19.9 5.2 19.8 5.1 19.7C4.7 19.5 4.4 19.2 4.2 18.8C4.1 18.6 4.1 18.4 4 18C4 17.5 4 17 4 16.1V16ZM22 16C22 15.4 21.6 15 21 15C20.4 15 20 15.4 20 16V16.2V18.1C20 18.5 19.9 18.8 19.8 18.9C19.6 19.3 19.3 19.6 18.9 19.8C18.7 19.9 18.5 19.9 18.1 20C17.6 20 17.1 20 16.2 20H16C15.4 20 15 20.4 15 21C15 21.6 15.4 22 16 22H16.2H18.2C18.8 22 19.3 21.9 19.8 21.6C20.6 21.2 21.2 20.6 21.5 19.9C21.7 19.4 21.8 18.9 21.9 18.3C21.9 17.8 21.9 17.1 21.9 16.3V16H22ZM8.2 17.6C8.7 17.8 9.2 17.9 9.8 18H11.8H12.3H14.3C14.9 18 15.4 17.9 15.9 17.6C16.7 17.2 17.3 16.6 17.6 15.9C17.8 15.5 17.9 15.1 18 14.6H6.1C6.2 15.1 6.3 15.5 6.5 15.9C6.8 16.6 7.4 17.2 8.2 17.6Z" fill="white" fill-opacity="0.7"/>
</svg>
