
<svg width="16px" height="16px" viewBox="0 0 16 16" version="1.1" xmlns="http://www.w3.org/2000/svg" xmlns:xlink="http://www.w3.org/1999/xlink">
    <title>ihxupooxxr</title>
    <g id="jwjxoktgsr" stroke="none" stroke-width="1" fill="none" fill-rule="evenodd">
        <g id="pizgpjuvov" transform="translate(-333.000000, -240.000000)">
            <g id="mwuzdowqzr" transform="translate(16.000000, 196.000000)">
                <g id="zhlibekled" transform="translate(0.000000, 28.000000)">
                    <g id="pqobzjtyhq" transform="translate(254.000000, 1.000000)">
                        <g id="ndpdxiyhhf" transform="translate(63.000000, 15.000000)">
                            <rect id="znzpxszueb" x="0" y="0" width="16" height="16"></rect>
                            <g id="djrnprnuqh" transform="translate(1.000000, 1.000000)" fill="#464B53">
                                <path d="M0.583333338,4.66666666 C0.2625,4.66666666 0,4.40416666 0,4.08333334 L0,1.45833334 C0,0.641666676 0.641666662,0 1.45833334,0 L4.08333334,0 C4.40416668,0 4.66666666,0.2625 4.66666666,0.583333338 C4.66666666,0.904166676 4.40416666,1.16666668 4.08333334,1.16666666 L1.45833334,1.16666666 C1.3125,1.16666666 1.16666668,1.3125 1.16666666,1.45833334 L1.16666666,4.08333334 C1.16666666,4.40416668 0.904166662,4.66666666 0.583333338,4.66666666 Z M13.4166667,4.66666666 C13.0958333,4.66666666 12.8333333,4.40416666 12.8333333,4.08333334 L12.8333333,1.45833334 C12.8333333,1.3125 12.6875,1.16666668 12.5416667,1.16666666 L9.91666666,1.16666666 C9.59583332,1.16666666 9.33333334,0.904166662 9.33333334,0.583333338 C9.33333334,0.262500014 9.59583334,0 9.91666666,0 L12.5416667,0 C13.3583333,0 14,0.641666662 14,1.45833334 L14,4.08333334 C14,4.40416668 13.7375,4.66666666 13.4166667,4.66666666 L13.4166667,4.66666666 Z M12.5416667,14 L9.91666666,14 C9.59583332,14 9.33333334,13.7375 9.33333334,13.4166667 C9.33333334,13.0958333 9.59583334,12.8333333 9.91666666,12.8333333 L12.5416667,12.8333333 C12.6875,12.8333333 12.8333333,12.6875 12.8333333,12.5416667 L12.8333333,9.91666666 C12.8333333,9.59583332 13.0958333,9.33333334 13.4166667,9.33333334 C13.7375,9.33333334 14,9.59583334 14,9.91666666 L14,12.5416667 C14,13.3583333 13.3583333,14 12.5416667,14 Z M4.08333334,14 L1.45833334,14 C0.641666676,14 0,13.3583333 0,12.5416667 L0,9.91666666 C0,9.59583332 0.2625,9.33333334 0.583333338,9.33333334 C0.904166676,9.33333334 1.16666668,9.59583334 1.16666666,9.91666666 L1.16666666,12.5416667 C1.16666666,12.6875 1.3125,12.8333333 1.45833334,12.8333333 L4.08333334,12.8333333 C4.40416668,12.8333333 4.66666666,13.0958333 4.66666666,13.4166667 C4.66666666,13.7375 4.40416666,14 4.08333334,14 Z" id="elveueovey"></path>
                                <path d="M13.4166667,7.72916666 L0.583333338,7.72916666 C0.2625,7.72916666 0,7.46666666 0,7.14583334 C0,6.82500001 0.2625,6.5625 0.583333338,6.5625 L13.4166667,6.5625 C13.7375,6.5625 14,6.825 14,7.14583334 C14,7.46666668 13.7375,7.72916666 13.4166667,7.72916666 Z" id="qopxnwfhll"></path>
                            </g>
                        </g>
                    </g>
                </g>
            </g>
        </g>
    </g>
</svg>