<svg width="32" height="32" viewBox="0 0 32 32" fill="none" xmlns="http://www.w3.org/2000/svg">
<path d="M22.5 14C22.5 9.30558 18.6944 5.5 14 5.5C9.30558 5.5 5.5 9.30558 5.5 14C5.5 18.6944 9.30558 22.5 14 22.5C18.6944 22.5 22.5 18.6944 22.5 14ZM20.8441 22.6121C18.9657 24.1068 16.5871 25 14 25C7.92487 25 3 20.0751 3 14C3 7.92487 7.92487 3 14 3C20.0751 3 25 7.92487 25 14C25 16.5872 24.1068 18.9659 22.6119 20.8443L29.0654 27.2978C29.2216 27.454 29.2216 27.7073 29.0654 27.8635L27.8633 29.0656C27.7071 29.2218 27.4538 29.2218 27.2976 29.0656L20.8441 22.6121Z" fill="#55585E"/>
</svg>
