
<svg width="24px" height="24px" viewBox="0 0 24 24" version="1.1" xmlns="http://www.w3.org/2000/svg" xmlns:xlink="http://www.w3.org/1999/xlink">
    <title>rgvfghecdq</title>
    <g id="bnhdotgjwh" stroke="none" stroke-width="1" fill="none" fill-rule="evenodd">
        <g id="udnhlohgvb" transform="translate(-326.000000, -568.000000)">
            <g id="mddkskmlou" transform="translate(0.000000, 432.000000)">
                <g id="pvtxeusnzp" transform="translate(0.000000, 34.000000)">
                    <g id="oifecqcysy" transform="translate(0.000000, 76.000000)">
                        <g id="lregjzeomn" transform="translate(326.000000, 26.000000)">
                            <rect id="mzzlpipggw" x="0" y="0" width="24" height="24"></rect>
                            <path d="M12,1.5 C6.2015625,1.5 1.5,6.2015625 1.5,12 C1.5,17.7984375 6.2015625,22.5 12,22.5 C17.7984375,22.5 22.5,17.7984375 22.5,12 C22.5,6.2015625 17.7984375,1.5 12,1.5 Z M16.5351562,8.57109375 L11.5992188,15.4148437 C11.3015625,15.8296875 10.6851563,15.8296875 10.3875,15.4148437 L7.46484375,11.3648437 C7.37578125,11.240625 7.46484375,11.0671875 7.6171875,11.0671875 L8.71640625,11.0671875 C8.95546875,11.0671875 9.1828125,11.1820312 9.3234375,11.3789062 L10.9921875,13.6945312 L14.6765625,8.58515625 C14.8171875,8.390625 15.0421875,8.2734375 15.2835937,8.2734375 L16.3828125,8.2734375 C16.5351562,8.2734375 16.6242187,8.446875 16.5351562,8.57109375 Z" id="emrvtpxwcc" fill="#5B8EF4"></path>
                        </g>
                    </g>
                </g>
            </g>
        </g>
    </g>
</svg>