<svg width="24" height="25" viewBox="0 0 24 25" fill="none" xmlns="http://www.w3.org/2000/svg">
<path d="M20.625 12.1099C20.625 16.8733 16.7635 20.7349 12 20.7349C7.23654 20.7349 3.375 16.8733 3.375 12.1099C3.375 7.34641 7.23654 3.48486 12 3.48486C16.7635 3.48486 20.625 7.34641 20.625 12.1099ZM22.5 12.1099C22.5 6.31087 17.799 1.60986 12 1.60986C6.20101 1.60986 1.5 6.31087 1.5 12.1099C1.5 17.9088 6.20101 22.6099 12 22.6099C17.799 22.6099 22.5 17.9088 22.5 12.1099ZM12 16.6099C9.51472 16.6099 7.5 14.5951 7.5 12.1099C7.5 9.62458 9.51472 7.60986 12 7.60986C14.4853 7.60986 16.5 9.62458 16.5 12.1099C16.5 14.5951 14.4853 16.6099 12 16.6099Z" fill="#5D42FF"/>
</svg>
