<svg width="25" height="24" viewBox="0 0 25 24" fill="none" xmlns="http://www.w3.org/2000/svg">
<g id="paper_11105622">
<path id="Paper-Plane" d="M3.325 1C2.125 1 1.125 2 1.125 3.2V3.4V3.8L1.725 7.2V7.4C1.825 8.1 1.925 8.7 2.225 9.3C2.525 9.7 2.925 10.1 3.325 10.4C3.825 10.7 4.525 10.7 5.225 10.8H5.425L12.425 11.4C12.725 11.4 13.025 11.7 13.025 12C13.025 12.3 12.725 12.6 12.425 12.6L5.425 13.2H5.225C4.525 13.3 3.825 13.3 3.325 13.6C2.825 13.8 2.425 14.2 2.225 14.7C1.925 15.2 1.825 15.8 1.725 16.6V16.8L1.125 20.2V20.6V20.8C1.125 22 2.125 23 3.325 23C3.625 23 4.025 22.9 4.325 22.8L21.625 14.4C22.525 13.9 23.125 13 23.125 12C23.125 11 22.525 10.1 21.625 9.7L4.325 1.2C4.025 1.1 3.725 1 3.325 1Z" fill="#151318"/>
</g>
</svg>
