<svg width="17" height="16" viewBox="0 0 17 16" fill="none" xmlns="http://www.w3.org/2000/svg">
<g id="send">
<path id="Vector" d="M2.63341 0.666992C1.83341 0.666992 1.16675 1.33366 1.16675 2.13366V2.26699V2.53366L1.56675 4.80032V4.93366C1.63341 5.40033 1.70008 5.80033 1.90008 6.20033C2.10008 6.46699 2.36675 6.73366 2.63341 6.93366C2.96675 7.13366 3.43341 7.13366 3.90008 7.20033H4.03341L8.70008 7.60032C8.90008 7.60032 9.10008 7.80032 9.10008 8.00033C9.10008 8.20033 8.90008 8.40033 8.70008 8.40033L4.03341 8.80032H3.90008C3.43341 8.86699 2.96675 8.86699 2.63341 9.06699C2.30008 9.20033 2.03341 9.46699 1.90008 9.80032C1.70008 10.1337 1.63341 10.5337 1.56675 11.067V11.2003L1.16675 13.467V13.7337V13.867C1.16675 14.667 1.83341 15.3337 2.63341 15.3337C2.83341 15.3337 3.10008 15.267 3.30008 15.2003L14.8334 9.60032C15.4334 9.26699 15.8334 8.66699 15.8334 8.00033C15.8334 7.33366 15.4334 6.73366 14.8334 6.46699L3.30008 0.800326C3.10008 0.733659 2.90008 0.666992 2.63341 0.666992Z" fill="#242424"/>
</g>
</svg>
