
<svg width="26px" height="26px" viewBox="0 0 26 26" version="1.1" xmlns="http://www.w3.org/2000/svg" xmlns:xlink="http://www.w3.org/1999/xlink">
    <title>qgmvghoedy</title>
    <g id="sobwhploxe" stroke="none" stroke-width="1" fill="none" fill-rule="evenodd">
        <g transform="translate(-16.000000, -123.000000)" id="oishmetbfd">
            <g transform="translate(0.000000, 104.000000)">
                <g id="utsofydtuj" transform="translate(16.000000, 19.000000)">
                    <rect id="xohfghkowq" fill="#31B939" x="0" y="0" width="26" height="26" rx="6"></rect>
                    <g id="gwqlsmzgxw" transform="translate(6.500000, 5.416667)" fill="#FFFFFF">
                        <g id="fwmtocelwe" transform="translate(0.000000, 0.000000)">
                            <path d="M11.6526384,14.8890283 C11.4748695,14.7112594 11.375,14.4701531 11.375,14.21875 C11.375,11.6054622 9.24870443,9.47916667 6.63541667,9.47916667 C4.02212891,9.47916667 1.89583333,11.6054622 1.89583333,14.21875 C1.89583333,14.7422699 1.47143659,15.1666667 0.947916667,15.1666667 C0.424396748,15.1666667 0,14.7422699 0,14.21875 C0,10.5541106 2.97077723,7.58333333 6.63541667,7.58333333 C10.3000561,7.58333333 13.2708333,10.5541106 13.2708333,14.21875 C13.2708333,14.4701531 13.1709638,14.7112594 12.993195,14.8890283 C12.8154261,15.0667972 12.5743198,15.1666667 12.3229167,15.1666667 C12.0715135,15.1666667 11.8304072,15.0667972 11.6526384,14.8890283 Z" id="ytfgfcvmwy"></path>
                            <path d="M6.63541667,2.65861407e-14 C9.24870443,2.65861407e-14 11.375,2.12629557 11.375,4.73958333 C11.375,7.35287109 9.24870443,9.47916667 6.63541667,9.47916667 C4.02212891,9.47916667 1.89583333,7.35287109 1.89583333,4.73958333 C1.89583333,2.12629557 4.02212891,2.65861407e-14 6.63541667,2.65861407e-14 Z M6.63541667,1.89583333 C5.06485691,1.89583333 3.79166667,3.16902358 3.79166667,4.73958333 C3.79166667,6.31014309 5.06485691,7.58333333 6.63541667,7.58333333 C8.20597642,7.58333333 9.47916667,6.31014309 9.47916667,4.73958333 C9.477371,3.16976797 8.20523203,1.897629 6.63541667,1.89583333 Z" id="ryyljvggep"></path>
                        </g>
                    </g>
                </g>
            </g>
        </g>
    </g>
</svg>