<svg width="18" height="18" viewBox="0 0 18 18" fill="none" xmlns="http://www.w3.org/2000/svg">
<path fill-rule="evenodd" clip-rule="evenodd" d="M4.38884 3.30556C5.01665 2.79837 5.72925 2.39283 6.50167 2.11342C7.09117 2.83824 7.99095 3.30274 9 3.30274C10.009 3.30274 10.9088 2.83824 11.4983 2.11342C12.2707 2.39283 12.9834 2.79837 13.6112 3.30556C13.5386 3.5741 13.5 3.85615 13.5 4.14648C13.5 5.72811 14.6408 7.04331 16.1444 7.31414C16.2747 7.86139 16.3438 8.43294 16.3438 9.02148C16.3438 9.3167 16.3264 9.60757 16.2926 9.89319C14.7164 10.1017 13.5 11.4508 13.5 13.084C13.5 13.6069 13.6251 14.1016 13.8469 14.5387C13.2242 15.0862 12.5085 15.5297 11.727 15.8425C11.1579 14.9368 10.1501 14.334 9 14.334C7.84994 14.334 6.84205 14.9368 6.27296 15.8425C5.49147 15.5297 4.77578 15.0862 4.15308 14.5387C4.37486 14.1016 4.5 13.6069 4.5 13.084C4.5 11.4508 3.28362 10.1017 1.70737 9.89319C1.67363 9.60757 1.65625 9.3167 1.65625 9.02148C1.65625 8.43293 1.72533 7.86139 1.85557 7.31414C3.35922 7.04331 4.5 5.72811 4.5 4.14648C4.5 3.85615 4.46137 3.5741 4.38884 3.30556ZM7.53939 0.86586C7.3579 0.527838 6.9588 0.340709 6.56508 0.452388C5.20765 0.837417 3.98309 1.53572 2.97418 2.46319C2.6943 2.72047 2.62983 3.12027 2.7817 3.44381C2.8814 3.6562 2.9375 3.89371 2.9375 4.14648C2.9375 5.0612 2.19597 5.80273 1.28125 5.80273C0.927184 5.80273 0.600344 6.03056 0.490528 6.38543C0.23244 7.21944 0.09375 8.10499 0.09375 9.02148C0.09375 9.61373 0.15166 10.1932 0.262363 10.7543C0.347884 11.1878 0.743037 11.4635 1.15467 11.4325C1.19643 11.4293 1.23864 11.4277 1.28125 11.4277C2.19597 11.4277 2.9375 12.1693 2.9375 13.084C2.9375 13.4777 2.80112 13.8374 2.57237 14.1215C2.31352 14.443 2.31656 14.9247 2.6251 15.241C3.65399 16.2954 4.94334 17.0963 6.3905 17.5391C6.8406 17.6769 7.29147 17.4212 7.43508 17.0083C7.6606 16.36 8.27719 15.8965 9 15.8965C9.72281 15.8965 10.3394 16.36 10.5649 17.0083C10.7085 17.4212 11.1594 17.6769 11.6095 17.5391C13.0567 17.0963 14.346 16.2954 15.3749 15.241C15.6834 14.9247 15.6865 14.443 15.4276 14.1215C15.1989 13.8374 15.0625 13.4777 15.0625 13.084C15.0625 12.1693 15.804 11.4277 16.7188 11.4277C16.7614 11.4277 16.8036 11.4293 16.8453 11.4325C17.257 11.4635 17.6521 11.1878 17.7376 10.7543C17.8483 10.1932 17.9062 9.61373 17.9062 9.02148C17.9062 8.10498 17.7675 7.21943 17.5095 6.38543C17.3997 6.03057 17.0728 5.80273 16.7188 5.80273C15.804 5.80273 15.0625 5.0612 15.0625 4.14648C15.0625 3.89371 15.1186 3.6562 15.2183 3.44381C15.3702 3.12028 15.3057 2.72047 15.0258 2.46319C14.0169 1.53572 12.7924 0.837417 11.4349 0.452388C11.0412 0.34071 10.6421 0.527837 10.4606 0.86586C10.1803 1.38801 9.63065 1.74024 9 1.74024C8.36935 1.74024 7.81975 1.38801 7.53939 0.86586ZM9 5.24998C6.92893 5.24998 5.25 6.92891 5.25 8.99998C5.25 11.0711 6.92893 12.75 9 12.75C11.0711 12.75 12.75 11.0711 12.75 8.99998C12.75 6.92891 11.0711 5.24998 9 5.24998ZM6.8125 8.99998C6.8125 7.79186 7.79187 6.81248 9 6.81248C10.2081 6.81248 11.1875 7.79186 11.1875 8.99998C11.1875 10.2081 10.2081 11.1875 9 11.1875C7.79187 11.1875 6.8125 10.2081 6.8125 8.99998Z" fill="#515A62"/>
</svg>
