
<svg width="26px" height="26px" viewBox="0 0 26 26" version="1.1" xmlns="http://www.w3.org/2000/svg" xmlns:xlink="http://www.w3.org/1999/xlink">
    <title>vuuzuuyxty</title>
    <g id="ovlicnkhyj" stroke="none" stroke-width="1" fill="none" fill-rule="evenodd">
        <g transform="translate(-16.000000, -251.000000)" id="jtyhmpfnyd">
            <g transform="translate(0.000000, 232.000000)">
                <g id="qkdmvlzqml" transform="translate(16.000000, 19.000000)">
                    <rect id="mzrepmreup" fill="#32BEA6" x="0" y="0" width="26" height="26" rx="6"></rect>
                    <g id="setnfqrzes" transform="translate(5.416667, 5.416667)" fill="#FFFFFF" fill-rule="nonzero">
                        <path d="M15.124341,6.5763602 C15.080745,6.01056008 14.975546,5.95938218 14.41638,6.0039259 C13.7975065,6.05320832 13.2743546,5.74519318 13.0611134,5.20592976 C12.8421857,4.65434571 13.0004581,4.08570239 13.4828572,3.69049526 C13.8079316,3.42418063 13.8477367,3.20809616 13.5529899,2.89629007 C13.1094481,2.42715932 12.6469515,1.97414012 12.1645524,1.54576214 C11.7901955,1.21405353 11.6158116,1.25670177 11.2992668,1.65569985 C10.9125893,2.14283764 10.2937158,2.2878417 9.73170665,2.02531802 C9.20476383,1.7789059 8.95740397,1.32872992 8.99815674,0.689953909 C9.02564116,0.252098537 8.89674867,0.0985648357 8.45984104,0.0653939775 C8.11865504,0.038857291 7.77746904,0.0208502537 7.45713328,0 C7.12068599,0.0369618134 6.80698441,0.0644462387 6.49612606,0.106146761 C6.0611139,0.163958828 5.96728776,0.290955843 6.00519731,0.736393125 C6.06300938,1.41213095 5.78153092,1.92011901 5.22046951,2.15231503 C4.67646737,2.3778769 4.11351047,2.21581355 3.68608024,1.71161644 C3.43303394,1.41307869 3.21221079,1.36948271 2.93262781,1.63390185 C2.46254931,2.07554819 2.00100046,2.53046286 1.57262249,3.01380969 C1.20679527,3.42607612 1.24754804,3.56634146 1.67023959,3.91890034 C2.07208089,4.25439991 2.24646484,4.68372563 2.13463165,5.20308654 C2.01995525,5.73097711 1.68540341,6.07026764 1.16225155,6.19252596 C0.969860554,6.23706968 0.758514771,6.20863752 0.556646391,6.20674204 C0.281802108,6.20389882 0.108365892,6.32900036 0.0723518177,6.59815819 C-0.0271607716,7.34497645 -0.0309517269,8.09274244 0.104574937,8.83671747 C0.15764831,9.13051653 0.315920705,9.2442452 0.612562981,9.22623817 C0.768939898,9.21676078 0.927212293,9.17979896 1.08074599,9.19496279 C1.62853908,9.2489839 2.05881253,9.61291564 2.2066598,10.1256424 C2.35450707,10.6355259 2.17917537,11.1558346 1.73942452,11.5093412 C1.37738827,11.800297 1.33758323,12.0021654 1.65223254,12.3367172 C2.08819243,12.8001615 2.54026389,13.2512853 3.01792429,13.6711336 C3.42450428,14.0284311 3.57898572,13.9867306 3.91827624,13.553614 C4.38361604,12.9584339 5.21762628,12.8788239 5.78816508,13.3669094 C6.1710516,13.6948271 6.27340739,14.108989 6.22317724,14.5904403 C6.18621542,14.9458424 6.31700339,15.150554 6.62880949,15.1571882 C7.32918854,15.1714043 8.03146305,15.1742475 8.72994663,15.132547 C9.1848613,15.1050625 9.2748965,14.9429992 9.22371859,14.4842936 C9.14884722,13.8189809 9.42843019,13.2967767 9.9866484,13.059842 C10.550553,12.8210118 11.1220396,12.9830752 11.5399924,13.5005406 C11.795882,13.8170854 12.0204961,13.8635246 12.3105042,13.5867849 C12.7910078,13.129027 13.2582431,12.6542098 13.6989417,12.1585423 C14.0192774,11.7984016 13.9737859,11.6041151 13.5880562,11.3131592 C13.265825,11.0705381 13.0838591,10.7483068 13.0611134,10.3474133 C13.0137264,9.52761917 13.6818824,8.90590244 14.5121016,8.98835573 C14.9357409,9.03005623 15.1432957,8.90969339 15.1527731,8.54007523 C15.1688847,7.88613536 15.1745711,7.22840457 15.124341,6.5763602 Z M7.59834639,10.8895199 C5.77679223,10.8696174 4.31537885,9.38735378 4.33907233,7.58380666 C4.3627658,5.803953 5.8317611,4.34064415 7.58697353,4.34819673 C9.40094577,4.35580798 10.8974255,5.847549 10.8784707,7.63214135 C10.8604637,9.44042715 9.38009552,10.9094224 7.59834639,10.8895199 Z" id="zlxquxxieg"></path>
                    </g>
                </g>
            </g>
        </g>
    </g>
</svg>