<svg width="32" height="32" viewBox="0 0 32 32" fill="none" xmlns="http://www.w3.org/2000/svg">
<g id="interactive-jump">
<g id="Union">
<path d="M3.75 27.25C3.75 27.8023 4.19772 28.25 4.75 28.25L27.25 28.25C27.8023 28.25 28.25 27.8023 28.25 27.25V18.3862C28.25 18.1653 28.0709 17.9862 27.85 17.9862H26.15C25.9291 17.9862 25.75 18.1653 25.75 18.3862V25.75L6.25 25.75L6.25 6.25L13.6044 6.25C13.8253 6.25 14.0044 6.07091 14.0044 5.85V4.15C14.0044 3.92909 13.8253 3.75 13.6044 3.75H4.75C4.19771 3.75 3.75 4.19772 3.75 4.75V27.25ZM27.292 4.27844C27.5366 4.25962 27.7403 4.46336 27.7215 4.70794L27.1169 12.5679C27.0907 12.9086 26.6769 13.0617 26.4352 12.8201L23.6912 10.0761L13.7731 19.9943C13.6169 20.1505 13.3636 20.1505 13.2074 19.9943L12.0053 18.7922C11.8491 18.636 11.8491 18.3827 12.0053 18.2265L21.9235 8.30833L19.1799 5.56471C18.9382 5.32307 19.0913 4.90926 19.432 4.88305L27.292 4.27844Z" fill="#55585E"/>
</g>
</g>
</svg>
