<svg width="22" height="22" viewBox="0 0 22 22" fill="none" xmlns="http://www.w3.org/2000/svg">
<g id="interactive-share-external">
<path id="Union" d="M11.486 2.2734C11.2176 2.00492 10.7822 2.00492 10.5138 2.2734L7.30527 5.4819C7.19787 5.58929 7.19787 5.76341 7.30527 5.87081L8.1317 6.69724C8.23909 6.80463 8.41321 6.80463 8.52061 6.69724L10.1405 5.07736L10.1405 14.7882C10.1405 14.9401 10.2636 15.0632 10.4155 15.0632H11.5842C11.7361 15.0632 11.8592 14.9401 11.8592 14.7882V5.07745L13.4793 6.69754C13.5867 6.80493 13.7608 6.80493 13.8682 6.69754L14.6947 5.8711C14.8021 5.76371 14.8021 5.58959 14.6947 5.4822L11.486 2.2734ZM7.51103 9.65934C7.51103 9.81121 7.38791 9.93434 7.23603 9.93434H4.88135V18.3906H17.1188V9.93434H14.7642C14.6123 9.93434 14.4892 9.81121 14.4892 9.65934V8.49059C14.4892 8.33871 14.6123 8.21559 14.7642 8.21559H17.7032C18.3297 8.21559 18.8376 8.72346 18.8376 9.34996V18.975C18.8376 19.6015 18.3297 20.1093 17.7032 20.1093H4.29697C3.67047 20.1093 3.1626 19.6015 3.1626 18.975V9.34996C3.1626 8.72346 3.67048 8.21559 4.29697 8.21559H7.23603C7.38791 8.21559 7.51103 8.33871 7.51103 8.49059V9.65934Z" fill="#5D42FF"/>
</g>
</svg>
