<svg width="64" height="64" viewBox="0 0 64 64" fill="none" xmlns="http://www.w3.org/2000/svg">
<circle cx="32" cy="32" r="32" fill="white"/>
<path d="M32 54C19.8497 54 10 44.1503 10 32C10 19.8497 19.8497 10 32 10C44.1503 10 54 19.8497 54 32C54 44.1503 44.1503 54 32 54ZM32 64C49.6731 64 64 49.6731 64 32C64 14.3269 49.6731 0 32 0C14.3269 0 0 14.3269 0 32C0 49.6731 14.3269 64 32 64Z" fill="#006EFF"/>
<path d="M33.5678 22.3536C35.3223 22.3536 36.7446 20.9313 36.7446 19.1768C36.7446 17.4223 35.3223 16 33.5678 16C31.8133 16 30.391 17.4223 30.391 19.1768C30.391 20.9313 31.8133 22.3536 33.5678 22.3536Z" fill="#006EFF"/>
<path d="M47.9175 31.5003C47.9175 35.0698 45.0239 37.9634 41.4544 37.9634C37.8849 37.9634 34.9913 35.0698 34.9913 31.5003C34.9913 27.9308 37.8849 25.0371 41.4544 25.0371C45.0239 25.0371 47.9175 27.9308 47.9175 31.5003Z" fill="#006EFF"/>
<path d="M36.7449 43.8232C36.7449 45.5777 35.3226 47 33.5682 47C31.8137 47 30.3914 45.5777 30.3914 43.8232C30.3914 42.0687 31.8137 40.6464 33.5682 40.6464C35.3226 40.6464 36.7449 42.0687 36.7449 43.8232Z" fill="#006EFF"/>
<path d="M17.3001 22.5731C16.369 25.0378 17.6836 27.8312 20.1483 28.7623C21.7915 29.3648 23.5442 29.0362 24.804 27.9955C25.9542 27.1739 27.433 26.9001 28.8571 27.4478C29.7882 27.7764 30.5003 28.3789 30.9932 29.1457L31.048 29.2553C31.2671 29.5839 31.5957 29.9125 32.0339 30.0221C33.0198 30.4055 34.17 29.8578 34.4987 28.8719C34.8821 27.886 34.3343 26.7358 33.3484 26.4071C32.9103 26.2428 32.4721 26.2428 32.0339 26.4071C31.1575 26.681 30.1716 26.681 29.2405 26.3523C27.8712 25.8594 26.9401 24.764 26.5567 23.5042L26.5019 23.3946C26.5019 23.3399 26.5019 23.2851 26.4471 23.2851V23.1756C26.0637 21.6419 25.023 20.3274 23.4346 19.7797C20.9699 18.7938 18.1765 20.0535 17.3001 22.5731Z" fill="#006EFF"/>
<path d="M20.1483 34.2388C17.6836 35.17 16.369 37.9634 17.3001 40.4281C18.2313 42.9476 20.9699 44.2074 23.4346 43.2215C25.023 42.6738 26.0637 41.3592 26.4471 39.8256V39.7161C26.5019 39.7161 26.5019 39.6613 26.5019 39.6065L26.5567 39.497C26.9401 38.2372 27.8712 37.1418 29.2405 36.6488C30.1716 36.3202 31.1575 36.3202 32.0339 36.5941C32.4721 36.7584 32.9103 36.7584 33.3484 36.5941C34.3343 36.2654 34.8821 35.1152 34.4987 34.1293C34.17 33.1434 33.0198 32.5957 32.0339 32.9791C31.5957 33.0886 31.2671 33.4173 31.048 33.7459L30.9932 33.8554C30.5003 34.6223 29.7882 35.2247 28.8571 35.5534C27.433 36.1011 25.9542 35.8272 24.804 35.0057C23.5442 33.965 21.7915 33.6364 20.1483 34.2388Z" fill="#006EFF"/>
</svg>
