
<svg width="32px" height="32px" viewBox="0 0 32 32" version="1.1" xmlns="http://www.w3.org/2000/svg" xmlns:xlink="http://www.w3.org/1999/xlink">
    <title>cjrewsnkts</title>
    <g id="ejgmbdlkwo" stroke="none" stroke-width="1" fill="none" fill-rule="evenodd">
        <g id="vtvvqjhnxl" transform="translate(-20.000000, -443.000000)" fill="#5B8EF4">
            <g id="wlbzxnqjym" transform="translate(0.000000, 408.000000)">
                <g id="cextcbzoyy" transform="translate(0.000000, 14.000000)">
                    <g id="znsscbbcsv" transform="translate(20.000000, 21.000000)">
                        <path d="M16,0 C24.836556,0 32,7.163444 32,16 C32,24.836556 24.836556,32 16,32 C7.163444,32 0,24.836556 0,16 C0,7.163444 7.163444,0 16,0 Z M16,1.6 C8.0470996,1.6 1.6,8.0470996 1.6,16 C1.6,23.9529004 8.0470996,30.4 16,30.4 C23.9529004,30.4 30.4,23.9529004 30.4,16 C30.4,8.0470996 23.9529004,1.6 16,1.6 Z" id="dbebjwylmb" fill-rule="nonzero" transform="translate(16.000000, 16.000000) rotate(180.000000) translate(-16.000000, -16.000000) "></path>
                        <g id="ijxhtbuyhg" transform="translate(9.355957, 10.285714)">
                            <path d="M3.18528893,9.45283587 L1.91957183,10.7181375 C1.52698925,11.1105912 0.890670073,11.1107412 0.497902505,10.7184726 C0.105474075,10.3265428 0.10506991,9.69069473 0.496999776,9.2982663 C0.49714873,9.29811715 0.497297731,9.29796806 0.497446778,9.29781901 L1.75639635,8.03885448 L1.75639635,8.03885448 L0.497279172,6.77972234 C0.105102361,6.38754087 0.105106139,5.75169285 0.49728761,5.35951604 C0.497380871,5.35942278 0.49747415,5.35932954 0.497567448,5.35923631 C0.8901342,4.96698344 1.52629124,4.96702702 1.91880425,5.35933366 L3.18514924,6.62501284 C3.96700692,7.40525196 3.96733991,8.67158187 3.18649673,9.45283581 C3.18629544,9.4530372 3.18609411,9.45323856 3.18528893,9.45283587 Z M14.0069425,10.3835203 C14.0069425,10.9384874 13.5570528,11.3883772 13.0020857,11.3883772 L7.09226785,11.3883772 C6.53730076,11.3883772 6.08741104,10.9384874 6.08741104,10.3835203 C6.08741104,9.82855325 6.53730076,9.37866354 7.09226785,9.37866354 L13.0020857,9.37866354 C13.5570528,9.37866354 14.0069425,9.82855325 14.0069425,10.3835203 Z M14.0069425,5.69418858 C14.0069425,6.24915567 13.5570528,6.69904539 13.0020857,6.69904539 L7.09226785,6.69904539 C6.53730076,6.69904539 6.08741104,6.24915567 6.08741104,5.69418858 C6.08741104,5.13922149 6.53730076,4.68933177 7.09226785,4.68933177 L13.0020857,4.68933177 C13.5570528,4.68933177 14.0069425,5.13922149 14.0069425,5.69418858 Z M14.0726147,1.00485681 C14.0726147,1.5598239 13.622725,2.00971362 13.0677579,2.00971362 L1.00485681,2.00971362 C0.449889718,2.00971362 6.79638673e-17,1.5598239 0,1.00485681 C-6.79638673e-17,0.449889718 0.449889718,1.01945801e-16 1.00485681,0 L13.0677579,0 C13.622725,2.4450224e-16 14.0726147,0.449889718 14.0726147,1.00485681 Z" id="oslvtlpzuk"></path>
                        </g>
                    </g>
                </g>
            </g>
        </g>
    </g>
</svg>