<svg width="20" height="20" viewBox="0 0 20 20" fill="none" xmlns="http://www.w3.org/2000/svg">
<path d="M11.8871 8.18937L16.1065 8.80249L13.0533 11.7787L13.7741 15.9811L10.0001 13.997L6.22609 15.9811L6.94686 11.7787L3.89363 8.80249L8.11309 8.18937L10.0001 4.36589L11.8871 8.18937ZM7.07549 6.76123L1.78911 7.52939C1.27647 7.60388 1.07177 8.23386 1.44272 8.59544L5.26798 12.3242L4.36496 17.5892C4.27739 18.0997 4.81329 18.4891 5.2718 18.248L10.0001 15.7622L14.7284 18.248C15.1869 18.4891 15.7228 18.0997 15.6352 17.5892L14.7322 12.3242L18.5575 8.59544C18.9284 8.23386 18.7237 7.60388 18.2111 7.52939L12.9247 6.76123L10.5605 1.97096C10.3313 1.50643 9.66889 1.50643 9.43963 1.97095L7.07549 6.76123Z" fill="#55585E"/>
</svg>
