<svg width="49" height="49" viewBox="0 0 49 49" fill="none" xmlns="http://www.w3.org/2000/svg">
<path d="M26.6038 42.189C26.6038 42.5204 26.3351 42.789 26.0038 42.789H23.0038C22.6724 42.789 22.4038 42.5204 22.4038 42.189V26.139H6.35391C6.02254 26.139 5.75391 25.8704 5.75391 25.539V22.539C5.75391 22.2077 6.02253 21.939 6.35391 21.939H22.4038V5.889C22.4038 5.55763 22.6724 5.289 23.0038 5.289H26.0038C26.3351 5.289 26.6038 5.55763 26.6038 5.889V21.939H42.6539C42.9853 21.939 43.2539 22.2077 43.2539 22.539V25.539C43.2539 25.8704 42.9853 26.139 42.6539 26.139H26.6038V42.189Z" fill="#C0C3C7"/>
</svg>
