<svg width="20" height="20" viewBox="0 0 20 20" fill="none" xmlns="http://www.w3.org/2000/svg">
<path d="M4.60832 16.6291C4.51069 16.7267 4.3524 16.7267 4.25477 16.6291L3.37088 15.7452C3.27325 15.6476 3.27325 15.4893 3.37088 15.3916L8.76253 10L3.37083 4.60829C3.2732 4.51066 3.2732 4.35237 3.37083 4.25474L4.25471 3.37086C4.35235 3.27322 4.51064 3.27322 4.60827 3.37086L9.99997 8.76256L15.3917 3.37083C15.4893 3.2732 15.6476 3.2732 15.7452 3.37083L16.6291 4.25471C16.7268 4.35235 16.7268 4.51064 16.6291 4.60827L11.2374 10L16.6291 15.3917C16.7267 15.4893 16.7267 15.6476 16.6291 15.7452L15.7452 16.6291C15.6476 16.7267 15.4893 16.7267 15.3916 16.6291L9.99997 11.2374L4.60832 16.6291Z" fill="#979AA1"/>
</svg>
