<svg width="25" height="24" viewBox="0 0 25 24" fill="none" xmlns="http://www.w3.org/2000/svg">
<g id="transfer_11104515">
<path id="Repeat" d="M12.875 3H13.275C14.875 3 16.175 3 17.275 3.1C18.375 3.2 19.175 3.4 20.075 3.8C21.375 4.5 22.475 5.5 23.175 6.9C23.575 7.7 23.775 8.6 23.875 9.7C23.975 10.7 23.975 12 23.975 13.7V14C23.975 14.5 23.575 14.9 23.075 15C22.575 15.1 22.075 14.7 21.975 14.2C21.475 11.8 19.375 10 16.875 10H12.875C12.775 11.1 11.875 12 10.775 12C10.275 12 9.875 11.8 9.475 11.6L6.075 8.9C5.275 8.3 4.875 7.4 4.875 6.5C4.875 5.6 5.275 4.7 6.075 4.1L9.475 1.4C9.875 1.2 10.275 1 10.775 1C11.875 1 12.775 1.9 12.875 3ZM3.875 9.8C3.775 9.3 3.275 9 2.775 9C2.275 9.1 1.875 9.5 1.875 10V10.4C1.875 12 1.875 13.3 1.975 14.4C2.075 15.5 2.275 16.3 2.675 17.2C3.375 18.5 4.375 19.6 5.775 20.3C6.575 20.7 7.475 20.9 8.575 21C9.575 21.1 10.875 21.1 12.575 21.1H12.875C12.975 22.2 13.875 23.1 14.975 23.1C15.475 23.1 15.875 22.9 16.275 22.7L19.675 20C20.375 19.4 20.875 18.5 20.875 17.6C20.875 16.7 20.475 15.8 19.675 15.2L16.275 12.5C15.875 12.2 15.475 12 14.975 12C13.875 12 12.875 12.9 12.875 14H8.975C6.475 14 4.375 12.2 3.875 9.8Z" fill="#151318"/>
</g>
</svg>
