<svg width="48" height="48" viewBox="0 0 49 48" fill="none" xmlns="http://www.w3.org/2000/svg">
<circle cx="24" cy="24" r="24" fill="#F7F7F9"/>
<path d="M28.2597 17.2433C28.1621 17.1457 28.0038 17.1457 27.9061 17.2433L27.0223 18.1272C26.9246 18.2248 26.9246 18.3831 27.0223 18.4808L29.229 20.6875L16.5715 20.6875C16.4334 20.6875 16.3215 20.7994 16.3215 20.9375V22.1875C16.3215 22.3256 16.4334 22.4375 16.5715 22.4375L31.945 22.4375C32.5018 22.4375 32.7807 21.7643 32.3869 21.3706L28.2597 17.2433ZM20.633 30.7567C20.7306 30.8543 20.8889 30.8543 20.9866 30.7567L21.8704 29.8728C21.9681 29.7752 21.9681 29.6169 21.8704 29.5193L19.6637 27.3125L32.3212 27.3125C32.4593 27.3125 32.5712 27.2006 32.5712 27.0625V25.8125C32.5712 25.6744 32.4593 25.5625 32.3212 25.5625L16.9477 25.5625C16.3909 25.5625 16.1121 26.2358 16.5058 26.6295L20.633 30.7567Z" fill="#25272A"/>
</svg>
