<svg width="16" height="16" viewBox="0 0 16 16" fill="none" xmlns="http://www.w3.org/2000/svg">
<path d="M6.0002 8.6667C5.81131 8.6667 5.65297 8.60281 5.5252 8.47503C5.39742 8.34726 5.33353 8.18892 5.33353 8.00003V3.88337L4.08353 5.13337C3.96131 5.25559 3.80853 5.3167 3.6252 5.3167C3.44186 5.3167 3.28353 5.25559 3.1502 5.13337C3.01686 5.00003 2.9502 4.8417 2.9502 4.65837C2.9502 4.47503 3.01686 4.3167 3.1502 4.18337L5.53353 1.80003C5.6002 1.73337 5.67242 1.68614 5.7502 1.65837C5.82797 1.63059 5.91131 1.6167 6.0002 1.6167C6.08908 1.6167 6.17242 1.63059 6.2502 1.65837C6.32797 1.68614 6.4002 1.73337 6.46686 1.80003L8.86686 4.20003C9.0002 4.33337 9.06408 4.48892 9.05853 4.6667C9.05297 4.84448 8.98353 5.00003 8.8502 5.13337C8.71686 5.25559 8.56131 5.31948 8.38353 5.32503C8.20575 5.33059 8.0502 5.2667 7.91686 5.13337L6.66686 3.88337V8.00003C6.66686 8.18892 6.60297 8.34726 6.4752 8.47503C6.34742 8.60281 6.18908 8.6667 6.0002 8.6667ZM10.0002 14.3834C9.91131 14.3834 9.82797 14.3695 9.7502 14.3417C9.67242 14.3139 9.6002 14.2667 9.53353 14.2L7.13353 11.8C7.0002 11.6667 6.93631 11.5111 6.94186 11.3334C6.94742 11.1556 7.01686 11 7.1502 10.8667C7.28353 10.7445 7.43908 10.6806 7.61686 10.675C7.79464 10.6695 7.9502 10.7334 8.08353 10.8667L9.33353 12.1167V8.00003C9.33353 7.81114 9.39742 7.65281 9.5252 7.52503C9.65297 7.39725 9.81131 7.33337 10.0002 7.33337C10.1891 7.33337 10.3474 7.39725 10.4752 7.52503C10.603 7.65281 10.6669 7.81114 10.6669 8.00003V12.1167L11.9169 10.8667C12.0391 10.7445 12.1919 10.6834 12.3752 10.6834C12.5585 10.6834 12.7169 10.7445 12.8502 10.8667C12.9835 11 13.0502 11.1584 13.0502 11.3417C13.0502 11.525 12.9835 11.6834 12.8502 11.8167L10.4669 14.2C10.4002 14.2667 10.328 14.3139 10.2502 14.3417C10.1724 14.3695 10.0891 14.3834 10.0002 14.3834Z" fill="white" fill-opacity="0.7"/>
</svg>
