<svg width="17" height="16" viewBox="0 0 17 16" fill="none" xmlns="http://www.w3.org/2000/svg">
<g clip-path="url(#clip0_4044_10613)">
<path d="M14.8662 1.77606C12.8434 2.61385 4.16982 6.20653 1.77333 7.18571C0.166134 7.81291 1.10701 8.40097 1.10701 8.40097C1.10701 8.40097 2.47894 8.87133 3.65508 9.22413C4.83105 9.57694 5.45824 9.18501 5.45824 9.18501L10.9854 5.46097C12.9454 4.12816 12.4751 5.22571 12.0046 5.69623C10.9854 6.71552 9.29983 8.32255 7.8886 9.61623C7.2614 10.165 7.57492 10.6354 7.84947 10.8706C8.8686 11.7331 11.6519 13.4971 11.8086 13.6147C12.6367 14.2009 14.2656 15.0448 14.5133 13.2619L15.4934 7.10746C15.807 5.0299 16.1205 3.10903 16.1597 2.56026C16.2774 1.22728 14.8662 1.77606 14.8662 1.77606Z" fill="white"/>
</g>
<defs>
<clipPath id="clip0_4044_10613">
<rect width="16" height="16" fill="white" transform="translate(0.5)"/>
</clipPath>
</defs>
</svg>
