<svg width="28" height="28" viewBox="0 0 28 28" fill="none" xmlns="http://www.w3.org/2000/svg">
<g clip-path="url(#clip0_700_3768)">
<path fill-rule="evenodd" clip-rule="evenodd" d="M6.09992 13.7082C10.3949 11.837 13.2589 10.6033 14.6919 10.0073C18.7834 8.30549 19.6335 8.00987 20.1877 8.0001C20.3095 7.99796 20.5821 8.02816 20.7586 8.17139C20.9076 8.29234 20.9486 8.45571 20.9683 8.57038C20.9879 8.68505 21.0123 8.94626 20.9929 9.15037C20.7712 11.48 19.8118 17.1334 19.3237 19.7426C19.1172 20.8467 18.7105 21.2169 18.3169 21.2531C17.4613 21.3318 16.8116 20.6877 15.9829 20.1445C14.6862 19.2945 13.9537 18.7653 12.695 17.9359C11.2404 16.9773 12.1834 16.4505 13.0124 15.5895C13.2293 15.3642 16.999 11.9354 17.0719 11.6243C17.0811 11.5854 17.0895 11.4404 17.0034 11.3638C16.9172 11.2873 16.7901 11.3135 16.6983 11.3343C16.5683 11.3638 14.4968 12.733 10.4839 15.4418C9.89591 15.8455 9.36333 16.0423 8.88616 16.032C8.36012 16.0206 7.34822 15.7345 6.59598 15.49C5.67333 15.1901 4.94002 15.0315 5.00388 14.5222C5.03714 14.2569 5.40248 13.9855 6.09992 13.7082Z" fill="#515A62"/>
</g>
<defs>
<clipPath id="clip0_700_3768">
<rect width="16" height="16" fill="white" transform="translate(5 6)"/>
</clipPath>
</defs>
</svg>
