<svg width="32" height="32" viewBox="0 0 32 32" fill="none" xmlns="http://www.w3.org/2000/svg">
<path d="M32 16C32 24.8366 24.8366 32 16 32C7.16344 32 0 24.8366 0 16C0 7.16344 7.16344 0 16 0C24.8366 0 32 7.16344 32 16Z" fill="#DEE2E8"/>
<path d="M31.5556 15.9999C31.5556 24.591 24.5911 31.5554 16 31.5554C7.40892 31.5554 0.444458 24.591 0.444458 15.9999C0.444458 7.40879 7.40892 0.444336 16 0.444336C24.5911 0.444336 31.5556 7.40879 31.5556 15.9999Z" fill="#F7F7F9"/>
<g clip-path="url(#clip0_5848_2254)">
<path d="M24.8889 16C24.8889 20.9092 20.9092 24.8889 16 24.8889C11.0908 24.8889 7.11111 20.9092 7.11111 16C7.11111 11.0908 11.0908 7.11108 16 7.11108C20.9092 7.11108 24.8889 11.0908 24.8889 16ZM16.3186 13.6733C15.4541 14.0329 13.7261 14.7772 11.1348 15.9061C10.714 16.0735 10.4936 16.2372 10.4736 16.3972C10.4396 16.6677 10.7784 16.7743 11.2397 16.9193C11.3025 16.9391 11.3675 16.9595 11.4341 16.9812C11.888 17.1287 12.4985 17.3013 12.8159 17.3081C13.1038 17.3144 13.4251 17.1957 13.7798 16.9521C16.201 15.3178 17.4507 14.4917 17.5292 14.4739C17.5846 14.4613 17.6613 14.4455 17.7133 14.4917C17.7652 14.5379 17.7601 14.6254 17.7546 14.6489C17.7211 14.7919 16.3913 16.0282 15.7031 16.668C15.4886 16.8674 15.3364 17.0089 15.3053 17.0412C15.2357 17.1136 15.1646 17.182 15.0964 17.2478C14.6747 17.6543 14.3585 17.9591 15.1139 18.4569C15.4769 18.6961 15.7673 18.8939 16.0571 19.0912C16.3736 19.3067 16.6892 19.5217 17.0976 19.7894C17.2016 19.8576 17.301 19.9284 17.3978 19.9974C17.7661 20.26 18.0969 20.4958 18.5057 20.4582C18.7432 20.4364 18.9886 20.213 19.1132 19.5469C19.4077 17.9727 19.9865 14.5618 20.1203 13.1562C20.132 13.0331 20.1172 12.8755 20.1054 12.8063C20.0936 12.7371 20.0688 12.6386 19.9789 12.5656C19.8724 12.4792 19.708 12.461 19.6344 12.4623C19.3001 12.4681 18.7872 12.6465 16.3186 13.6733Z" fill="#26A4E3"/>
</g>
<defs>
<clipPath id="clip0_5848_2254">
<rect width="17.7778" height="17.7778" fill="white" transform="translate(7.11111 7.11108)"/>
</clipPath>
</defs>
</svg>
