<svg width="18" height="18" viewBox="0 0 18 18" fill="none" xmlns="http://www.w3.org/2000/svg">
<g clip-path="url(#clip0_7053_1256)">
<path d="M17.8889 9.00022C17.8889 13.9094 13.9092 17.8891 9 17.8891C4.09081 17.8891 0.111115 13.9094 0.111115 9.00022C0.111115 4.09102 4.09081 0.111328 9 0.111328C13.9092 0.111328 17.8889 4.09102 17.8889 9.00022Z" fill="#4DA2E2"/>
<path d="M9.31864 6.67346C8.45406 7.03307 6.72613 7.77736 4.13484 8.90635C3.71405 9.07368 3.49363 9.23738 3.47356 9.39744C3.43965 9.66796 3.77841 9.77448 4.23971 9.91953L4.23978 9.91955C4.30251 9.93928 4.3675 9.95971 4.43413 9.98137C4.88798 10.1289 5.49849 10.3015 5.81587 10.3084C6.10377 10.3146 6.42509 10.1959 6.77984 9.95228C9.20096 8.31796 10.4508 7.49189 10.5292 7.47408C10.5846 7.46152 10.6613 7.44572 10.7133 7.49192C10.7652 7.53811 10.7601 7.6256 10.7546 7.64907C10.7211 7.79214 9.39131 9.02839 8.70316 9.66816L8.70316 9.66816L8.70312 9.66819C8.48861 9.86762 8.33645 10.0091 8.30535 10.0414C8.23566 10.1138 8.16465 10.1822 8.09639 10.248L8.09639 10.248C7.67474 10.6545 7.35856 10.9593 8.11389 11.4571C8.47687 11.6963 8.76733 11.8941 9.0571 12.0914L9.05711 12.0914C9.37357 12.3069 9.68921 12.5219 10.0976 12.7896C10.2016 12.8578 10.301 12.9286 10.3978 12.9976C10.7661 13.2602 11.097 13.496 11.5057 13.4584C11.7432 13.4366 11.9886 13.2132 12.1132 12.5471C12.4077 10.9729 12.9865 7.562 13.1203 6.15646C13.132 6.03331 13.1172 5.87571 13.1054 5.80653C13.0936 5.73735 13.0688 5.63878 12.9789 5.56581C12.8724 5.47939 12.708 5.46117 12.6344 5.46247C12.3001 5.46835 11.7872 5.64671 9.31864 6.67346Z" fill="white"/>
</g>
<defs>
<clipPath id="clip0_7053_1256">
<rect width="17.7778" height="17.7778" fill="white" transform="translate(0.111115 0.111328)"/>
</clipPath>
</defs>
</svg>
