<svg width="64" height="64" viewBox="0 0 64 64" fill="none" xmlns="http://www.w3.org/2000/svg">
<circle cx="32" cy="32" r="32" fill="black"/>
<circle cx="32" cy="32" r="31.5" stroke="white" stroke-opacity="0.5"/>
<path fill-rule="evenodd" clip-rule="evenodd" d="M33.522 20.87C35.6953 20.87 37.457 19.1082 37.457 16.935C37.457 14.7618 35.6953 13 33.522 13C31.3488 13 29.5871 14.7618 29.5871 16.935C29.5871 19.1082 31.3488 20.87 33.522 20.87ZM51.2965 32.1997C51.2965 36.6211 47.7122 40.2053 43.2908 40.2053C38.8694 40.2053 35.2852 36.6211 35.2852 32.1997C35.2852 27.7783 38.8694 24.194 43.2908 24.194C47.7122 24.194 51.2965 27.7783 51.2965 32.1997ZM37.4572 47.4636C37.4572 49.6369 35.6955 51.3986 33.5222 51.3986C31.349 51.3986 29.5872 49.6369 29.5872 47.4636C29.5872 45.2904 31.349 43.5286 33.5222 43.5286C35.6955 43.5286 37.4572 45.2904 37.4572 47.4636ZM13.3718 21.1418C12.2184 24.1948 13.8467 27.6548 16.8997 28.8082C18.935 29.5545 21.1061 29.1474 22.6665 27.8584C24.0912 26.8407 25.923 26.5015 27.687 27.1799C28.8403 27.587 29.7223 28.3333 30.3329 29.2831L30.4008 29.4188C30.6721 29.8259 31.0792 30.2329 31.622 30.3686C32.8432 30.8435 34.2679 30.1651 34.675 28.9439C35.1499 27.7227 34.4714 26.2979 33.2502 25.8909C32.7075 25.6873 32.1647 25.6873 31.622 25.8909C30.5364 26.2301 29.3152 26.2301 28.1619 25.823C26.4658 25.2124 25.3124 23.8555 24.8375 22.2951L24.7697 22.1594C24.7697 22.0916 24.7697 22.0237 24.7018 22.0237V21.888C24.2269 19.9884 22.9379 18.3601 20.9704 17.6817C17.9174 16.4605 14.4573 18.0209 13.3718 21.1418ZM16.8997 35.5918C13.8467 36.7452 12.2184 40.2052 13.3718 43.2582C14.5251 46.3791 17.9174 47.9395 20.9704 46.7183C22.9379 46.0399 24.2269 44.4116 24.7018 42.512V42.3763C24.7697 42.3763 24.7697 42.3084 24.7697 42.2406L24.8375 42.1049C25.3124 40.5445 26.4658 39.1876 28.1619 38.577C29.3152 38.1699 30.5364 38.1699 31.622 38.5091C32.1647 38.7127 32.7075 38.7127 33.2502 38.5091C34.4714 38.1021 35.1499 36.6773 34.675 35.4561C34.2679 34.2349 32.8432 33.5565 31.622 34.0314C31.0792 34.1671 30.6721 34.5741 30.4008 34.9812L30.3329 35.1169C29.7223 36.0667 28.8403 36.813 27.687 37.2201C25.923 37.8985 24.0912 37.5593 22.6665 36.5416C21.1061 35.2526 18.935 34.8455 16.8997 35.5918Z" fill="white"/>
</svg>
