<svg width="41" height="40" viewBox="0 0 41 40" fill="none" xmlns="http://www.w3.org/2000/svg">
<path d="M40.0986 20C40.0986 31.0457 31.1443 40 20.0986 40C9.05294 40 0.0986328 31.0457 0.0986328 20C0.0986328 8.9543 9.05294 0 20.0986 0C31.1443 0 40.0986 8.9543 40.0986 20Z" fill="url(#paint0_linear_8728_630)"/>
<path d="M11.3499 14.9469L16.7176 11.1128C17.1147 10.8292 17.6664 11.113 17.6664 11.6011V19.2692C17.6664 19.7573 17.1147 20.0411 16.7176 19.7575L11.3499 15.9234C11.0149 15.6841 11.0149 15.1862 11.3499 14.9469ZM28.9831 24.8791L23.6154 28.7132C23.2183 28.9969 22.6667 28.713 22.6667 28.225V20.5568C22.6667 20.0688 23.2183 19.7849 23.6154 20.0686L28.9831 23.9027C29.3181 24.142 29.3181 24.6399 28.9831 24.8791ZM17.6665 14.1788H23.1665C24.9296 14.1788 26.5117 15.5962 26.9393 17.3067L27.1665 18.1788C26.2061 17.2184 24.9034 16.6788 23.5452 16.6788H17.6665V14.1788ZM17.1665 25.6472H22.6665V23.1472H16.7878C15.4296 23.1472 14.1269 22.6076 13.1665 21.6472L13.3937 22.5194C13.8213 24.2298 15.4034 25.6472 17.1665 25.6472Z" fill="white"/>
<defs>
<linearGradient id="paint0_linear_8728_630" x1="20.0986" y1="0" x2="20.0986" y2="40" gradientUnits="userSpaceOnUse">
<stop stop-color="#5B8EF4"/>
<stop offset="1" stop-color="#547AFF"/>
</linearGradient>
</defs>
</svg>
