<svg width="40" height="40" viewBox="0 0 40 40" fill="none" xmlns="http://www.w3.org/2000/svg">
<path d="M40 20C40 31.0457 31.0457 40 20 40C8.9543 40 0 31.0457 0 20C0 8.9543 8.9543 0 20 0C31.0457 0 40 8.9543 40 20Z" fill="url(#paint0_linear_1925_107)"/>
<path d="M11.2513 14.9469L16.619 11.1128C17.0161 10.8292 17.5677 11.113 17.5677 11.6011V19.2692C17.5677 19.7573 17.0161 20.0411 16.619 19.7575L11.2513 15.9234C10.9162 15.6841 10.9162 15.1862 11.2513 14.9469ZM28.8845 24.8791L23.5168 28.7132C23.1196 28.9969 22.568 28.713 22.568 28.225V20.5568C22.568 20.0688 23.1196 19.7849 23.5168 20.0686L28.8845 23.9027C29.2195 24.142 29.2195 24.6399 28.8845 24.8791ZM17.5679 14.1788H23.0679C24.831 14.1788 26.4131 15.5962 26.8407 17.3067L27.0679 18.1788C26.1074 17.2184 24.8048 16.6788 23.4466 16.6788H17.5679V14.1788ZM17.0679 25.6472H22.5679V23.1472H16.6892C15.3309 23.1472 14.0283 22.6076 13.0679 21.6472L13.295 22.5194C13.7227 24.2298 15.3048 25.6472 17.0679 25.6472Z" fill="white"/>
<defs>
<linearGradient id="paint0_linear_1925_107" x1="20" y1="0" x2="20" y2="40" gradientUnits="userSpaceOnUse">
<stop stop-color="#6558FF"/>
<stop offset="1" stop-color="#5D42FF"/>
</linearGradient>
</defs>
</svg>
