<svg width="21" height="22" viewBox="0 0 21 22" fill="none" xmlns="http://www.w3.org/2000/svg">
<path d="M10.5312 21.2338C16.1231 21.2338 20.6562 16.7006 20.6562 11.1088C20.6562 5.51688 16.1231 0.983765 10.5312 0.983765C4.93937 0.983765 0.40625 5.51688 0.40625 11.1088C0.40625 16.7006 4.93937 21.2338 10.5312 21.2338ZM8.48558 5.68192C8.73192 5.50596 9.0741 5.68206 9.0741 5.98479V10.7415C9.0741 11.0443 8.73192 11.2203 8.48558 11.0444L5.15586 8.66602C4.94805 8.51758 4.94805 8.20873 5.15586 8.06029L8.48558 5.68192ZM12.7644 16.3181C12.5181 16.4941 12.1759 16.318 12.1759 16.0153V11.2585C12.1759 10.9558 12.5181 10.7797 12.7644 10.9557L16.0941 13.334C16.302 13.4825 16.302 13.7913 16.0941 13.9398L12.7644 16.3181ZM12.486 7.58384C13.5797 7.58384 14.5611 8.46306 14.8263 9.52411L14.9673 10.0651C14.3715 9.46935 13.5634 9.13464 12.7209 9.13464H9.0742V7.58384H12.486ZM12.1758 14.4162H8.76403C7.67033 14.4162 6.68893 13.537 6.42367 12.4759L6.28274 11.9349C6.87852 12.5307 7.68657 12.8654 8.52913 12.8654H12.1758V14.4162Z" fill="#B6BABF"/>
</svg>
