
<svg width="64px" height="64px" viewBox="0 0 64 64" version="1.1" xmlns="http://www.w3.org/2000/svg" xmlns:xlink="http://www.w3.org/1999/xlink">
    <title>iyvgjvxgxm</title>
    <g id="cvkurtsruy" stroke="none" stroke-width="1" fill="none" fill-rule="evenodd">
        <g id="vmljofhsxx" transform="translate(-156.000000, -124.000000)" fill="#5B8EF4">
            <g id="yqkimfnluq" transform="translate(156.000000, 124.000000)">
                <path d="M32,0 C49.673112,0 64,14.326888 64,32 C64,49.673112 49.673112,64 32,64 C14.326888,64 0,49.673112 0,32 C0,14.326888 14.326888,0 32,0 Z M32,3.2 C16.0941992,3.2 3.2,16.0941992 3.2,32 C3.2,47.9058008 16.0941992,60.8 32,60.8 C47.9058008,60.8 60.8,47.9058008 60.8,32 C60.8,16.0941992 47.9058008,3.2 32,3.2 Z" id="pidhounlnx" fill-rule="nonzero"></path>
                <g id="lyvvhbrezn" transform="translate(32.000000, 31.578914) rotate(90.000000) translate(-32.000000, -31.578914) translate(17.421086, 21.578914)">
                    <path d="M25.3580566,11.8606382 L1.49165039,11.8606382 C0.668259373,11.8606382 7.10542736e-15,11.0270723 7.10542736e-15,10 C7.10542736e-15,8.97292771 0.668259373,8.1393618 1.49165039,8.1393618 L25.3580566,8.1393618 C26.1814476,8.1393618 26.8497069,8.97292771 26.8497069,10 C26.8497069,11.0270723 26.1814476,11.8606382 25.3580566,11.8606382 Z" id="mhdifecmxz"></path>
                    <path d="M25.9789283,11.0680063 L18.086101,3.17517909 C17.3604521,2.44953019 17.3604521,1.26988557 18.086101,0.544236673 C18.8117499,-0.181412224 19.9913945,-0.181412224 20.7170434,0.544236673 L28.613592,8.43706391 C29.3392409,9.16271281 29.3392409,10.3423574 28.613592,11.0680063 C27.8842218,11.7973765 26.7082984,11.7973765 25.9789283,11.0680063 Z" id="urdqulbold"></path>
                    <path d="M18.086101,16.8248209 L25.9789283,8.93199367 C26.7045772,8.20634478 27.8842218,8.20634478 28.6098707,8.93199367 C29.3355196,9.65764257 29.3355196,10.8372872 28.6098707,11.5629361 L20.7170434,19.4557633 C19.9913945,20.1814122 18.8117499,20.1814122 18.086101,19.4557633 C17.3604521,18.7301144 17.3604521,17.5504698 18.086101,16.8248209 Z" id="tdcieprkvc"></path>
                </g>
            </g>
        </g>
    </g>
</svg>