<svg width="32" height="32" viewBox="0 0 32 32" fill="none" xmlns="http://www.w3.org/2000/svg">
<path d="M32 16C32 24.8366 24.8366 32 16 32C7.16344 32 0 24.8366 0 16C0 7.16344 7.16344 0 16 0C24.8366 0 32 7.16344 32 16Z" fill="#DEE2E8"/>
<path d="M31.5556 15.9999C31.5556 24.591 24.5911 31.5554 16 31.5554C7.40892 31.5554 0.444458 24.591 0.444458 15.9999C0.444458 7.40879 7.40892 0.444336 16 0.444336C24.5911 0.444336 31.5556 7.40879 31.5556 15.9999Z" fill="#F7F7F9"/>
<path d="M20.2285 9.41602H22.463L17.5568 15.0042L23.2888 22.5846H18.7907L15.2689 17.978L11.237 22.5846H9.00252L14.2002 16.6077L8.71106 9.41602H13.321L16.5027 13.6241L20.2285 9.41602ZM19.4464 21.2726H20.6851L12.67 10.6794H11.339L19.4464 21.2726Z" fill="black"/>
</svg>
