<svg width="28" height="28" viewBox="0 0 28 28" fill="none" xmlns="http://www.w3.org/2000/svg">
<path fill-rule="evenodd" clip-rule="evenodd" d="M20.4581 11.9096C20.4581 16.0651 17.2942 20.8599 11.5078 20.8599C9.73341 20.8599 8.07642 20.338 6.69995 19.4378C6.94785 19.4704 7.19574 19.4834 7.45016 19.4834C8.92449 19.4834 10.2814 18.9811 11.3578 18.1396C9.9813 18.1135 8.82011 17.2067 8.42217 15.9542C8.61788 15.9933 8.81358 16.0129 9.01581 16.0129C9.30285 16.0129 9.58336 15.9738 9.84431 15.902C8.4026 15.6084 7.31969 14.3429 7.31969 12.8164V12.7772C7.74372 13.0121 8.22646 13.1556 8.74183 13.1686C7.89376 12.6076 7.33926 11.6421 7.33926 10.5527C7.33926 9.9786 7.49582 9.43715 7.76329 8.97398C9.3159 10.8789 11.6318 12.1314 14.2477 12.2619C14.189 12.0335 14.1629 11.7922 14.1629 11.5443C14.1629 9.80899 15.572 8.3999 17.3073 8.3999C18.214 8.3999 19.0295 8.77827 19.6036 9.39148C20.3211 9.24797 20.9931 8.98702 21.5998 8.62823C21.3649 9.36539 20.8691 9.9786 20.2168 10.37C20.8561 10.2917 21.4628 10.1221 22.0238 9.87423C21.5998 10.507 21.0648 11.0615 20.4516 11.5051C20.4581 11.6356 20.4581 11.7726 20.4581 11.9096Z" fill="#515A62"/>
</svg>
