<svg width="281" height="281" viewBox="0 0 281 281" fill="none" xmlns="http://www.w3.org/2000/svg">
<rect x="1.00391" y="0.539001" width="279" height="279" rx="11.5" fill="#F9F9FA"/>
<rect x="1.00391" y="0.539001" width="279" height="279" rx="11.5" stroke="#DCDEE1" stroke-dasharray="4 4"/>
<path d="M142.604 117.189C142.604 117.52 142.335 117.789 142.004 117.789H139.004C138.672 117.789 138.404 117.52 138.404 117.189V101.139H122.354C122.023 101.139 121.754 100.87 121.754 100.539V97.539C121.754 97.2077 122.023 96.939 122.354 96.939H138.404V80.889C138.404 80.5576 138.672 80.289 139.004 80.289H142.004C142.335 80.289 142.604 80.5576 142.604 80.889V96.939H158.654C158.985 96.939 159.254 97.2077 159.254 97.539V100.539C159.254 100.87 158.985 101.139 158.654 101.139H142.604V117.189Z" fill="#C0C3C7"/>
<path d="M96.6855 145.086H97.998V151.819C97.998 152.567 97.8317 153.189 97.499 153.685C97.1663 154.182 96.7243 154.556 96.1729 154.807C95.626 155.053 95.0312 155.176 94.3887 155.176C93.7142 155.176 93.1035 155.053 92.5566 154.807C92.0143 154.556 91.5837 154.182 91.2646 153.685C90.9502 153.189 90.793 152.567 90.793 151.819V145.086H92.0986V151.819C92.0986 152.339 92.1943 152.767 92.3857 153.104C92.5771 153.442 92.8438 153.692 93.1855 153.856C93.5319 154.02 93.9329 154.102 94.3887 154.102C94.849 154.102 95.25 154.02 95.5918 153.856C95.9382 153.692 96.207 153.442 96.3984 153.104C96.5898 152.767 96.6855 152.339 96.6855 151.819V145.086ZM101.143 149.064V157.883H99.8711V147.643H101.033L101.143 149.064ZM106.126 151.279V151.423C106.126 151.961 106.062 152.46 105.935 152.92C105.807 153.376 105.62 153.772 105.374 154.109C105.132 154.447 104.834 154.709 104.479 154.895C104.123 155.082 103.715 155.176 103.255 155.176C102.785 155.176 102.371 155.098 102.011 154.943C101.651 154.788 101.345 154.563 101.095 154.267C100.844 153.97 100.644 153.615 100.493 153.2C100.347 152.785 100.247 152.318 100.192 151.799V151.033C100.247 150.486 100.35 149.996 100.5 149.563C100.65 149.13 100.849 148.761 101.095 148.456C101.345 148.146 101.648 147.911 102.004 147.752C102.359 147.588 102.77 147.506 103.234 147.506C103.699 147.506 104.112 147.597 104.472 147.779C104.832 147.957 105.135 148.212 105.381 148.545C105.627 148.878 105.812 149.276 105.935 149.741C106.062 150.201 106.126 150.714 106.126 151.279ZM104.854 151.423V151.279C104.854 150.91 104.816 150.564 104.738 150.24C104.661 149.912 104.54 149.625 104.376 149.379C104.216 149.128 104.011 148.932 103.761 148.791C103.51 148.645 103.212 148.572 102.865 148.572C102.546 148.572 102.268 148.627 102.031 148.736C101.799 148.846 101.601 148.994 101.437 149.181C101.272 149.363 101.138 149.573 101.033 149.81C100.933 150.042 100.858 150.283 100.808 150.534V152.305C100.899 152.624 101.026 152.924 101.19 153.207C101.354 153.485 101.573 153.711 101.847 153.884C102.12 154.052 102.464 154.137 102.879 154.137C103.221 154.137 103.515 154.066 103.761 153.925C104.011 153.779 104.216 153.581 104.376 153.33C104.54 153.079 104.661 152.792 104.738 152.469C104.816 152.141 104.854 151.792 104.854 151.423ZM109.113 144.539V155.039H107.842V144.539H109.113ZM110.809 151.423V151.266C110.809 150.732 110.886 150.238 111.041 149.782C111.196 149.322 111.419 148.923 111.711 148.586C112.003 148.244 112.356 147.98 112.771 147.793C113.185 147.602 113.65 147.506 114.165 147.506C114.685 147.506 115.152 147.602 115.566 147.793C115.986 147.98 116.341 148.244 116.633 148.586C116.929 148.923 117.155 149.322 117.31 149.782C117.465 150.238 117.542 150.732 117.542 151.266V151.423C117.542 151.956 117.465 152.45 117.31 152.906C117.155 153.362 116.929 153.761 116.633 154.102C116.341 154.44 115.988 154.704 115.573 154.895C115.163 155.082 114.698 155.176 114.179 155.176C113.659 155.176 113.192 155.082 112.777 154.895C112.363 154.704 112.007 154.44 111.711 154.102C111.419 153.761 111.196 153.362 111.041 152.906C110.886 152.45 110.809 151.956 110.809 151.423ZM112.073 151.266V151.423C112.073 151.792 112.117 152.141 112.203 152.469C112.29 152.792 112.42 153.079 112.593 153.33C112.771 153.581 112.992 153.779 113.256 153.925C113.52 154.066 113.828 154.137 114.179 154.137C114.525 154.137 114.828 154.066 115.088 153.925C115.352 153.779 115.571 153.581 115.744 153.33C115.917 153.079 116.047 152.792 116.134 152.469C116.225 152.141 116.271 151.792 116.271 151.423V151.266C116.271 150.901 116.225 150.557 116.134 150.233C116.047 149.905 115.915 149.616 115.737 149.365C115.564 149.11 115.345 148.909 115.081 148.764C114.821 148.618 114.516 148.545 114.165 148.545C113.819 148.545 113.513 148.618 113.249 148.764C112.989 148.909 112.771 149.11 112.593 149.365C112.42 149.616 112.29 149.905 112.203 150.233C112.117 150.557 112.073 150.901 112.073 151.266ZM123.489 153.774V149.967C123.489 149.675 123.43 149.422 123.312 149.208C123.198 148.989 123.024 148.821 122.792 148.702C122.56 148.584 122.272 148.524 121.931 148.524C121.612 148.524 121.331 148.579 121.09 148.688C120.853 148.798 120.666 148.941 120.529 149.119C120.397 149.297 120.331 149.488 120.331 149.693H119.066C119.066 149.429 119.135 149.167 119.271 148.907C119.408 148.647 119.604 148.413 119.859 148.203C120.119 147.989 120.429 147.82 120.789 147.697C121.154 147.57 121.559 147.506 122.006 147.506C122.544 147.506 123.018 147.597 123.428 147.779C123.842 147.962 124.166 148.237 124.398 148.606C124.635 148.971 124.754 149.429 124.754 149.98V153.426C124.754 153.672 124.774 153.934 124.815 154.212C124.861 154.49 124.927 154.729 125.014 154.93V155.039H123.694C123.631 154.893 123.58 154.699 123.544 154.458C123.507 154.212 123.489 153.984 123.489 153.774ZM123.708 150.555L123.722 151.443H122.443C122.083 151.443 121.762 151.473 121.479 151.532C121.197 151.587 120.96 151.671 120.769 151.785C120.577 151.899 120.431 152.043 120.331 152.216C120.231 152.384 120.181 152.583 120.181 152.81C120.181 153.043 120.233 153.255 120.338 153.446C120.443 153.638 120.6 153.79 120.81 153.904C121.024 154.014 121.286 154.068 121.596 154.068C121.983 154.068 122.325 153.986 122.621 153.822C122.917 153.658 123.152 153.458 123.325 153.221C123.503 152.984 123.599 152.754 123.612 152.53L124.152 153.139C124.12 153.33 124.034 153.542 123.893 153.774C123.751 154.007 123.562 154.23 123.325 154.444C123.093 154.654 122.815 154.829 122.491 154.971C122.172 155.107 121.812 155.176 121.411 155.176C120.91 155.176 120.47 155.078 120.092 154.882C119.718 154.686 119.426 154.424 119.217 154.096C119.012 153.763 118.909 153.392 118.909 152.981C118.909 152.585 118.987 152.236 119.142 151.935C119.297 151.63 119.52 151.377 119.812 151.177C120.103 150.972 120.454 150.817 120.864 150.712C121.274 150.607 121.732 150.555 122.238 150.555H123.708ZM131.405 153.603V144.539H132.677V155.039H131.515L131.405 153.603ZM126.429 151.423V151.279C126.429 150.714 126.497 150.201 126.634 149.741C126.775 149.276 126.973 148.878 127.229 148.545C127.488 148.212 127.796 147.957 128.151 147.779C128.511 147.597 128.912 147.506 129.354 147.506C129.819 147.506 130.225 147.588 130.571 147.752C130.922 147.911 131.218 148.146 131.46 148.456C131.706 148.761 131.9 149.13 132.041 149.563C132.182 149.996 132.28 150.486 132.335 151.033V151.662C132.285 152.204 132.187 152.692 132.041 153.125C131.9 153.558 131.706 153.927 131.46 154.232C131.218 154.538 130.922 154.772 130.571 154.936C130.22 155.096 129.81 155.176 129.341 155.176C128.908 155.176 128.511 155.082 128.151 154.895C127.796 154.709 127.488 154.447 127.229 154.109C126.973 153.772 126.775 153.376 126.634 152.92C126.497 152.46 126.429 151.961 126.429 151.423ZM127.7 151.279V151.423C127.7 151.792 127.737 152.138 127.81 152.462C127.887 152.785 128.006 153.07 128.165 153.316C128.325 153.562 128.527 153.756 128.773 153.897C129.02 154.034 129.313 154.102 129.655 154.102C130.075 154.102 130.419 154.014 130.688 153.836C130.961 153.658 131.18 153.423 131.344 153.132C131.508 152.84 131.635 152.523 131.727 152.182V150.534C131.672 150.283 131.592 150.042 131.487 149.81C131.387 149.573 131.255 149.363 131.091 149.181C130.931 148.994 130.733 148.846 130.496 148.736C130.264 148.627 129.988 148.572 129.669 148.572C129.323 148.572 129.024 148.645 128.773 148.791C128.527 148.932 128.325 149.128 128.165 149.379C128.006 149.625 127.887 149.912 127.81 150.24C127.737 150.564 127.7 150.91 127.7 151.279ZM142.479 153.774V149.967C142.479 149.675 142.42 149.422 142.302 149.208C142.188 148.989 142.015 148.821 141.782 148.702C141.55 148.584 141.263 148.524 140.921 148.524C140.602 148.524 140.322 148.579 140.08 148.688C139.843 148.798 139.656 148.941 139.52 149.119C139.387 149.297 139.321 149.488 139.321 149.693H138.057C138.057 149.429 138.125 149.167 138.262 148.907C138.398 148.647 138.594 148.413 138.85 148.203C139.109 147.989 139.419 147.82 139.779 147.697C140.144 147.57 140.549 147.506 140.996 147.506C141.534 147.506 142.008 147.597 142.418 147.779C142.833 147.962 143.156 148.237 143.389 148.606C143.626 148.971 143.744 149.429 143.744 149.98V153.426C143.744 153.672 143.765 153.934 143.806 154.212C143.851 154.49 143.917 154.729 144.004 154.93V155.039H142.685C142.621 154.893 142.571 154.699 142.534 154.458C142.498 154.212 142.479 153.984 142.479 153.774ZM142.698 150.555L142.712 151.443H141.434C141.074 151.443 140.752 151.473 140.47 151.532C140.187 151.587 139.95 151.671 139.759 151.785C139.567 151.899 139.422 152.043 139.321 152.216C139.221 152.384 139.171 152.583 139.171 152.81C139.171 153.043 139.223 153.255 139.328 153.446C139.433 153.638 139.59 153.79 139.8 153.904C140.014 154.014 140.276 154.068 140.586 154.068C140.973 154.068 141.315 153.986 141.611 153.822C141.908 153.658 142.142 153.458 142.315 153.221C142.493 152.984 142.589 152.754 142.603 152.53L143.143 153.139C143.111 153.33 143.024 153.542 142.883 153.774C142.742 154.007 142.552 154.23 142.315 154.444C142.083 154.654 141.805 154.829 141.481 154.971C141.162 155.107 140.802 155.176 140.401 155.176C139.9 155.176 139.46 155.078 139.082 154.882C138.708 154.686 138.417 154.424 138.207 154.096C138.002 153.763 137.899 153.392 137.899 152.981C137.899 152.585 137.977 152.236 138.132 151.935C138.287 151.63 138.51 151.377 138.802 151.177C139.093 150.972 139.444 150.817 139.854 150.712C140.265 150.607 140.723 150.555 141.229 150.555H142.698ZM150.471 149.064V157.883H149.199V147.643H150.361L150.471 149.064ZM155.454 151.279V151.423C155.454 151.961 155.39 152.46 155.263 152.92C155.135 153.376 154.948 153.772 154.702 154.109C154.461 154.447 154.162 154.709 153.807 154.895C153.451 155.082 153.043 155.176 152.583 155.176C152.114 155.176 151.699 155.098 151.339 154.943C150.979 154.788 150.674 154.563 150.423 154.267C150.172 153.97 149.972 153.615 149.821 153.2C149.675 152.785 149.575 152.318 149.521 151.799V151.033C149.575 150.486 149.678 149.996 149.828 149.563C149.979 149.13 150.177 148.761 150.423 148.456C150.674 148.146 150.977 147.911 151.332 147.752C151.688 147.588 152.098 147.506 152.562 147.506C153.027 147.506 153.44 147.597 153.8 147.779C154.16 147.957 154.463 148.212 154.709 148.545C154.955 148.878 155.14 149.276 155.263 149.741C155.39 150.201 155.454 150.714 155.454 151.279ZM154.183 151.423V151.279C154.183 150.91 154.144 150.564 154.066 150.24C153.989 149.912 153.868 149.625 153.704 149.379C153.545 149.128 153.34 148.932 153.089 148.791C152.838 148.645 152.54 148.572 152.193 148.572C151.874 148.572 151.596 148.627 151.359 148.736C151.127 148.846 150.929 148.994 150.765 149.181C150.601 149.363 150.466 149.573 150.361 149.81C150.261 150.042 150.186 150.283 150.136 150.534V152.305C150.227 152.624 150.354 152.924 150.519 153.207C150.683 153.485 150.901 153.711 151.175 153.884C151.448 154.052 151.792 154.137 152.207 154.137C152.549 154.137 152.843 154.066 153.089 153.925C153.34 153.779 153.545 153.581 153.704 153.33C153.868 153.079 153.989 152.792 154.066 152.469C154.144 152.141 154.183 151.792 154.183 151.423ZM158.441 147.643V155.039H157.17V147.643H158.441ZM157.074 145.681C157.074 145.476 157.136 145.302 157.259 145.161C157.386 145.02 157.573 144.949 157.819 144.949C158.061 144.949 158.245 145.02 158.373 145.161C158.505 145.302 158.571 145.476 158.571 145.681C158.571 145.877 158.505 146.045 158.373 146.186C158.245 146.323 158.061 146.392 157.819 146.392C157.573 146.392 157.386 146.323 157.259 146.186C157.136 146.045 157.074 145.877 157.074 145.681ZM163.432 154.137C163.732 154.137 164.01 154.075 164.266 153.952C164.521 153.829 164.73 153.66 164.895 153.446C165.059 153.227 165.152 152.979 165.175 152.701H166.378C166.355 153.139 166.207 153.546 165.934 153.925C165.665 154.298 165.312 154.602 164.874 154.834C164.437 155.062 163.956 155.176 163.432 155.176C162.876 155.176 162.39 155.078 161.976 154.882C161.565 154.686 161.224 154.417 160.95 154.075C160.681 153.733 160.479 153.341 160.342 152.899C160.21 152.453 160.144 151.981 160.144 151.484V151.197C160.144 150.7 160.21 150.231 160.342 149.789C160.479 149.342 160.681 148.948 160.95 148.606C161.224 148.265 161.565 147.996 161.976 147.8C162.39 147.604 162.876 147.506 163.432 147.506C164.01 147.506 164.516 147.624 164.949 147.861C165.382 148.094 165.722 148.413 165.968 148.818C166.218 149.219 166.355 149.675 166.378 150.185H165.175C165.152 149.88 165.065 149.604 164.915 149.358C164.769 149.112 164.569 148.916 164.313 148.77C164.063 148.62 163.769 148.545 163.432 148.545C163.044 148.545 162.718 148.622 162.454 148.777C162.194 148.928 161.987 149.133 161.832 149.393C161.682 149.648 161.572 149.933 161.504 150.247C161.44 150.557 161.408 150.874 161.408 151.197V151.484C161.408 151.808 161.44 152.127 161.504 152.441C161.568 152.756 161.675 153.041 161.825 153.296C161.98 153.551 162.188 153.756 162.447 153.911C162.712 154.061 163.04 154.137 163.432 154.137ZM170.896 147.643V148.613H166.897V147.643H170.896ZM168.251 145.845H169.516V153.207C169.516 153.458 169.554 153.647 169.632 153.774C169.709 153.902 169.81 153.986 169.933 154.027C170.056 154.068 170.188 154.089 170.329 154.089C170.434 154.089 170.543 154.08 170.657 154.061C170.776 154.039 170.865 154.02 170.924 154.007L170.931 155.039C170.83 155.071 170.698 155.101 170.534 155.128C170.375 155.16 170.181 155.176 169.953 155.176C169.643 155.176 169.358 155.114 169.099 154.991C168.839 154.868 168.632 154.663 168.477 154.376C168.326 154.084 168.251 153.692 168.251 153.2V145.845ZM176.905 153.33V147.643H178.177V155.039H176.967L176.905 153.33ZM177.145 151.771L177.671 151.758C177.671 152.25 177.618 152.706 177.514 153.125C177.413 153.54 177.249 153.9 177.021 154.205C176.794 154.51 176.495 154.75 176.126 154.923C175.757 155.091 175.308 155.176 174.779 155.176C174.419 155.176 174.089 155.123 173.788 155.018C173.492 154.914 173.237 154.752 173.022 154.533C172.808 154.314 172.642 154.03 172.523 153.679C172.41 153.328 172.353 152.906 172.353 152.414V147.643H173.617V152.428C173.617 152.76 173.654 153.036 173.727 153.255C173.804 153.469 173.907 153.64 174.034 153.768C174.166 153.891 174.312 153.977 174.472 154.027C174.636 154.077 174.804 154.102 174.978 154.102C175.515 154.102 175.941 154 176.256 153.795C176.57 153.585 176.796 153.305 176.933 152.954C177.074 152.599 177.145 152.204 177.145 151.771ZM181.369 148.805V155.039H180.104V147.643H181.335L181.369 148.805ZM183.68 147.602L183.673 148.777C183.568 148.754 183.468 148.741 183.372 148.736C183.281 148.727 183.176 148.723 183.058 148.723C182.766 148.723 182.508 148.768 182.285 148.859C182.062 148.95 181.873 149.078 181.718 149.242C181.563 149.406 181.44 149.602 181.349 149.83C181.262 150.053 181.205 150.299 181.178 150.568L180.822 150.773C180.822 150.327 180.866 149.907 180.952 149.516C181.043 149.124 181.182 148.777 181.369 148.477C181.556 148.171 181.793 147.934 182.08 147.766C182.372 147.592 182.718 147.506 183.119 147.506C183.21 147.506 183.315 147.517 183.434 147.54C183.552 147.558 183.634 147.579 183.68 147.602ZM187.781 155.176C187.266 155.176 186.799 155.089 186.38 154.916C185.965 154.738 185.607 154.49 185.307 154.171C185.01 153.852 184.783 153.474 184.623 153.036C184.464 152.599 184.384 152.12 184.384 151.601V151.313C184.384 150.712 184.473 150.176 184.65 149.707C184.828 149.233 185.07 148.832 185.375 148.504C185.68 148.176 186.027 147.927 186.414 147.759C186.801 147.59 187.202 147.506 187.617 147.506C188.146 147.506 188.602 147.597 188.984 147.779C189.372 147.962 189.688 148.217 189.935 148.545C190.181 148.868 190.363 149.251 190.481 149.693C190.6 150.131 190.659 150.609 190.659 151.129V151.696H185.136V150.664H189.395V150.568C189.376 150.24 189.308 149.921 189.189 149.611C189.076 149.301 188.893 149.046 188.643 148.846C188.392 148.645 188.05 148.545 187.617 148.545C187.33 148.545 187.066 148.606 186.824 148.729C186.583 148.848 186.375 149.026 186.202 149.263C186.029 149.5 185.895 149.789 185.799 150.131C185.703 150.473 185.655 150.867 185.655 151.313V151.601C185.655 151.951 185.703 152.282 185.799 152.592C185.899 152.897 186.043 153.166 186.229 153.398C186.421 153.631 186.651 153.813 186.92 153.945C187.193 154.077 187.503 154.143 187.85 154.143C188.296 154.143 188.674 154.052 188.984 153.87C189.294 153.688 189.565 153.444 189.798 153.139L190.563 153.747C190.404 153.989 190.201 154.219 189.955 154.437C189.709 154.656 189.406 154.834 189.046 154.971C188.69 155.107 188.269 155.176 187.781 155.176ZM19.8086 167.086V177.039H18.4893V167.086H19.8086ZM23.9785 171.563V172.643H19.5215V171.563H23.9785ZM24.6553 167.086V168.166H19.5215V167.086H24.6553ZM25.5508 173.423V173.266C25.5508 172.732 25.6283 172.238 25.7832 171.782C25.9382 171.322 26.1615 170.923 26.4531 170.586C26.7448 170.244 27.098 169.98 27.5127 169.793C27.9274 169.602 28.3923 169.506 28.9072 169.506C29.4268 169.506 29.8939 169.602 30.3086 169.793C30.7279 169.98 31.0833 170.244 31.375 170.586C31.6712 170.923 31.8968 171.322 32.0518 171.782C32.2067 172.238 32.2842 172.732 32.2842 173.266V173.423C32.2842 173.956 32.2067 174.45 32.0518 174.906C31.8968 175.362 31.6712 175.761 31.375 176.102C31.0833 176.44 30.7301 176.704 30.3154 176.895C29.9053 177.082 29.4404 177.176 28.9209 177.176C28.4014 177.176 27.9342 177.082 27.5195 176.895C27.1048 176.704 26.7493 176.44 26.4531 176.102C26.1615 175.761 25.9382 175.362 25.7832 174.906C25.6283 174.45 25.5508 173.956 25.5508 173.423ZM26.8154 173.266V173.423C26.8154 173.792 26.8587 174.141 26.9453 174.469C27.0319 174.792 27.1618 175.079 27.335 175.33C27.5127 175.581 27.7337 175.779 27.998 175.925C28.2624 176.066 28.57 176.137 28.9209 176.137C29.2673 176.137 29.5703 176.066 29.8301 175.925C30.0944 175.779 30.3132 175.581 30.4863 175.33C30.6595 175.079 30.7894 174.792 30.876 174.469C30.9671 174.141 31.0127 173.792 31.0127 173.423V173.266C31.0127 172.901 30.9671 172.557 30.876 172.233C30.7894 171.905 30.6572 171.616 30.4795 171.365C30.3063 171.11 30.0876 170.909 29.8232 170.764C29.5635 170.618 29.2581 170.545 28.9072 170.545C28.5609 170.545 28.2555 170.618 27.9912 170.764C27.7314 170.909 27.5127 171.11 27.335 171.365C27.1618 171.616 27.0319 171.905 26.9453 172.233C26.8587 172.557 26.8154 172.901 26.8154 173.266ZM35.1348 170.805V177.039H33.8701V169.643H35.1006L35.1348 170.805ZM37.4453 169.602L37.4385 170.777C37.3337 170.754 37.2334 170.741 37.1377 170.736C37.0465 170.727 36.9417 170.723 36.8232 170.723C36.5316 170.723 36.2741 170.768 36.0508 170.859C35.8275 170.95 35.6383 171.078 35.4834 171.242C35.3285 171.406 35.2054 171.602 35.1143 171.83C35.0277 172.053 34.9707 172.299 34.9434 172.568L34.5879 172.773C34.5879 172.327 34.6312 171.907 34.7178 171.516C34.8089 171.124 34.9479 170.777 35.1348 170.477C35.3216 170.171 35.5586 169.934 35.8457 169.766C36.1374 169.592 36.4837 169.506 36.8848 169.506C36.9759 169.506 37.0807 169.517 37.1992 169.54C37.3177 169.558 37.3997 169.579 37.4453 169.602ZM39.8721 171.112V177.039H38.6006V169.643H39.8037L39.8721 171.112ZM39.6123 173.06L39.0244 173.04C39.029 172.534 39.0951 172.067 39.2227 171.639C39.3503 171.206 39.5394 170.83 39.79 170.511C40.0407 170.192 40.3529 169.946 40.7266 169.772C41.1003 169.595 41.5332 169.506 42.0254 169.506C42.3717 169.506 42.6908 169.556 42.9824 169.656C43.2741 169.752 43.527 169.905 43.7412 170.114C43.9554 170.324 44.1217 170.593 44.2402 170.921C44.3587 171.249 44.418 171.645 44.418 172.11V177.039H43.1533V172.172C43.1533 171.784 43.0872 171.475 42.9551 171.242C42.8275 171.01 42.6452 170.841 42.4082 170.736C42.1712 170.627 41.8932 170.572 41.5742 170.572C41.2005 170.572 40.8883 170.638 40.6377 170.77C40.387 170.903 40.1865 171.085 40.0361 171.317C39.8857 171.55 39.7764 171.816 39.708 172.117C39.6442 172.413 39.6123 172.728 39.6123 173.06ZM44.4043 172.363L43.5566 172.623C43.5612 172.217 43.6273 171.828 43.7549 171.454C43.887 171.08 44.0762 170.748 44.3223 170.456C44.5729 170.164 44.8805 169.934 45.2451 169.766C45.6097 169.592 46.0267 169.506 46.4961 169.506C46.8926 169.506 47.2435 169.558 47.5488 169.663C47.8587 169.768 48.1185 169.93 48.3281 170.148C48.5423 170.363 48.7041 170.638 48.8135 170.976C48.9229 171.313 48.9775 171.714 48.9775 172.179V177.039H47.7061V172.165C47.7061 171.75 47.64 171.429 47.5078 171.201C47.3802 170.969 47.1979 170.807 46.9609 170.716C46.7285 170.62 46.4505 170.572 46.127 170.572C45.849 170.572 45.6029 170.62 45.3887 170.716C45.1745 170.811 44.9945 170.944 44.8486 171.112C44.7028 171.276 44.5911 171.465 44.5137 171.68C44.4408 171.894 44.4043 172.122 44.4043 172.363ZM55.2529 175.774V171.967C55.2529 171.675 55.1937 171.422 55.0752 171.208C54.9613 170.989 54.7881 170.821 54.5557 170.702C54.3232 170.584 54.0361 170.524 53.6943 170.524C53.3753 170.524 53.0951 170.579 52.8535 170.688C52.6165 170.798 52.4297 170.941 52.293 171.119C52.1608 171.297 52.0947 171.488 52.0947 171.693H50.8301C50.8301 171.429 50.8984 171.167 51.0352 170.907C51.1719 170.647 51.3678 170.413 51.623 170.203C51.8828 169.989 52.1927 169.82 52.5527 169.697C52.9173 169.57 53.3229 169.506 53.7695 169.506C54.3073 169.506 54.7812 169.597 55.1914 169.779C55.6061 169.962 55.9297 170.237 56.1621 170.606C56.3991 170.971 56.5176 171.429 56.5176 171.98V175.426C56.5176 175.672 56.5381 175.934 56.5791 176.212C56.6247 176.49 56.6908 176.729 56.7773 176.93V177.039H55.458C55.3942 176.893 55.3441 176.699 55.3076 176.458C55.2712 176.212 55.2529 175.984 55.2529 175.774ZM55.4717 172.555L55.4854 173.443H54.207C53.847 173.443 53.5257 173.473 53.2432 173.532C52.9606 173.587 52.7236 173.671 52.5322 173.785C52.3408 173.899 52.195 174.043 52.0947 174.216C51.9945 174.384 51.9443 174.583 51.9443 174.81C51.9443 175.043 51.9967 175.255 52.1016 175.446C52.2064 175.638 52.3636 175.79 52.5732 175.904C52.7874 176.014 53.0495 176.068 53.3594 176.068C53.7467 176.068 54.0885 175.986 54.3848 175.822C54.681 175.658 54.9157 175.458 55.0889 175.221C55.2666 174.984 55.3623 174.754 55.376 174.53L55.916 175.139C55.8841 175.33 55.7975 175.542 55.6562 175.774C55.515 176.007 55.3258 176.23 55.0889 176.444C54.8564 176.654 54.5785 176.829 54.2549 176.971C53.9359 177.107 53.5758 177.176 53.1748 177.176C52.6735 177.176 52.2337 177.078 51.8555 176.882C51.4818 176.686 51.1901 176.424 50.9805 176.096C50.7754 175.763 50.6729 175.392 50.6729 174.981C50.6729 174.585 50.7503 174.236 50.9053 173.935C51.0602 173.63 51.2835 173.377 51.5752 173.177C51.8669 172.972 52.2178 172.817 52.6279 172.712C53.0381 172.607 53.4961 172.555 54.002 172.555H55.4717ZM61.6035 169.643V170.613H57.6045V169.643H61.6035ZM58.958 167.845H60.2227V175.207C60.2227 175.458 60.2614 175.647 60.3389 175.774C60.4163 175.902 60.5166 175.986 60.6396 176.027C60.7627 176.068 60.8949 176.089 61.0361 176.089C61.141 176.089 61.2503 176.08 61.3643 176.061C61.4827 176.039 61.5716 176.02 61.6309 176.007L61.6377 177.039C61.5374 177.071 61.4053 177.101 61.2412 177.128C61.0817 177.16 60.888 177.176 60.6602 177.176C60.3503 177.176 60.0654 177.114 59.8057 176.991C59.5459 176.868 59.3385 176.663 59.1836 176.376C59.0332 176.084 58.958 175.692 58.958 175.2V167.845ZM67.3936 175.077C67.3936 174.895 67.3525 174.726 67.2705 174.571C67.193 174.412 67.0312 174.268 66.7852 174.141C66.5436 174.008 66.179 173.894 65.6914 173.799C65.2812 173.712 64.9098 173.61 64.5771 173.491C64.249 173.373 63.9688 173.229 63.7363 173.06C63.5085 172.892 63.333 172.694 63.21 172.466C63.0869 172.238 63.0254 171.971 63.0254 171.666C63.0254 171.374 63.0892 171.099 63.2168 170.839C63.349 170.579 63.5335 170.349 63.7705 170.148C64.012 169.948 64.3014 169.791 64.6387 169.677C64.9759 169.563 65.3519 169.506 65.7666 169.506C66.359 169.506 66.8649 169.611 67.2842 169.82C67.7035 170.03 68.0247 170.31 68.248 170.661C68.4714 171.007 68.583 171.393 68.583 171.816H67.3184C67.3184 171.611 67.2568 171.413 67.1338 171.222C67.0153 171.026 66.8398 170.864 66.6074 170.736C66.3796 170.609 66.0993 170.545 65.7666 170.545C65.4157 170.545 65.1309 170.6 64.9121 170.709C64.6979 170.814 64.5407 170.948 64.4404 171.112C64.3447 171.276 64.2969 171.449 64.2969 171.632C64.2969 171.768 64.3197 171.892 64.3652 172.001C64.4154 172.106 64.502 172.204 64.625 172.295C64.748 172.381 64.9212 172.463 65.1445 172.541C65.3678 172.618 65.6527 172.696 65.999 172.773C66.6051 172.91 67.1042 173.074 67.4961 173.266C67.888 173.457 68.1797 173.692 68.3711 173.97C68.5625 174.248 68.6582 174.585 68.6582 174.981C68.6582 175.305 68.5898 175.601 68.4531 175.87C68.321 176.139 68.1273 176.371 67.8721 176.567C67.6214 176.759 67.3206 176.909 66.9697 177.018C66.6234 177.123 66.2337 177.176 65.8008 177.176C65.1491 177.176 64.5977 177.06 64.1465 176.827C63.6953 176.595 63.3535 176.294 63.1211 175.925C62.8887 175.556 62.7725 175.166 62.7725 174.756H64.0439C64.0622 175.102 64.1624 175.378 64.3447 175.583C64.527 175.783 64.7503 175.927 65.0146 176.014C65.279 176.096 65.541 176.137 65.8008 176.137C66.1471 176.137 66.4365 176.091 66.6689 176C66.9059 175.909 67.0859 175.783 67.209 175.624C67.332 175.464 67.3936 175.282 67.3936 175.077ZM78.0986 175.077C78.0986 174.895 78.0576 174.726 77.9756 174.571C77.8981 174.412 77.7363 174.268 77.4902 174.141C77.2487 174.008 76.8841 173.894 76.3965 173.799C75.9863 173.712 75.6149 173.61 75.2822 173.491C74.9541 173.373 74.6738 173.229 74.4414 173.06C74.2135 172.892 74.0381 172.694 73.915 172.466C73.792 172.238 73.7305 171.971 73.7305 171.666C73.7305 171.374 73.7943 171.099 73.9219 170.839C74.054 170.579 74.2386 170.349 74.4756 170.148C74.7171 169.948 75.0065 169.791 75.3438 169.677C75.681 169.563 76.057 169.506 76.4717 169.506C77.0641 169.506 77.57 169.611 77.9893 169.82C78.4085 170.03 78.7298 170.31 78.9531 170.661C79.1764 171.007 79.2881 171.393 79.2881 171.816H78.0234C78.0234 171.611 77.9619 171.413 77.8389 171.222C77.7204 171.026 77.5449 170.864 77.3125 170.736C77.0846 170.609 76.8044 170.545 76.4717 170.545C76.1208 170.545 75.8359 170.6 75.6172 170.709C75.403 170.814 75.2458 170.948 75.1455 171.112C75.0498 171.276 75.002 171.449 75.002 171.632C75.002 171.768 75.0247 171.892 75.0703 172.001C75.1204 172.106 75.207 172.204 75.3301 172.295C75.4531 172.381 75.6263 172.463 75.8496 172.541C76.0729 172.618 76.3577 172.696 76.7041 172.773C77.3102 172.91 77.8092 173.074 78.2012 173.266C78.5931 173.457 78.8848 173.692 79.0762 173.97C79.2676 174.248 79.3633 174.585 79.3633 174.981C79.3633 175.305 79.2949 175.601 79.1582 175.87C79.026 176.139 78.8324 176.371 78.5771 176.567C78.3265 176.759 78.0257 176.909 77.6748 177.018C77.3285 177.123 76.9388 177.176 76.5059 177.176C75.8542 177.176 75.3027 177.06 74.8516 176.827C74.4004 176.595 74.0586 176.294 73.8262 175.925C73.5938 175.556 73.4775 175.166 73.4775 174.756H74.749C74.7673 175.102 74.8675 175.378 75.0498 175.583C75.2321 175.783 75.4554 175.927 75.7197 176.014C75.984 176.096 76.2461 176.137 76.5059 176.137C76.8522 176.137 77.1416 176.091 77.374 176C77.611 175.909 77.791 175.783 77.9141 175.624C78.0371 175.464 78.0986 175.282 78.0986 175.077ZM85.5498 175.33V169.643H86.8213V177.039H85.6113L85.5498 175.33ZM85.7891 173.771L86.3154 173.758C86.3154 174.25 86.263 174.706 86.1582 175.125C86.0579 175.54 85.8939 175.9 85.666 176.205C85.4382 176.51 85.1396 176.75 84.7705 176.923C84.4014 177.091 83.9525 177.176 83.4238 177.176C83.0638 177.176 82.7334 177.123 82.4326 177.018C82.1364 176.914 81.8812 176.752 81.667 176.533C81.4528 176.314 81.2865 176.03 81.168 175.679C81.054 175.328 80.9971 174.906 80.9971 174.414V169.643H82.2617V174.428C82.2617 174.76 82.2982 175.036 82.3711 175.255C82.4486 175.469 82.5511 175.64 82.6787 175.768C82.8109 175.891 82.9567 175.977 83.1162 176.027C83.2803 176.077 83.4489 176.102 83.6221 176.102C84.1598 176.102 84.5859 176 84.9004 175.795C85.2148 175.585 85.4404 175.305 85.5771 174.954C85.7184 174.599 85.7891 174.204 85.7891 173.771ZM90.0137 171.064V179.883H88.7422V169.643H89.9043L90.0137 171.064ZM94.9971 173.279V173.423C94.9971 173.961 94.9333 174.46 94.8057 174.92C94.6781 175.376 94.4912 175.772 94.2451 176.109C94.0036 176.447 93.7051 176.709 93.3496 176.895C92.9941 177.082 92.5863 177.176 92.126 177.176C91.6566 177.176 91.2419 177.098 90.8818 176.943C90.5218 176.788 90.2165 176.563 89.9658 176.267C89.7152 175.97 89.5146 175.615 89.3643 175.2C89.2184 174.785 89.1182 174.318 89.0635 173.799V173.033C89.1182 172.486 89.2207 171.996 89.3711 171.563C89.5215 171.13 89.7197 170.761 89.9658 170.456C90.2165 170.146 90.5195 169.911 90.875 169.752C91.2305 169.588 91.6406 169.506 92.1055 169.506C92.5703 169.506 92.9827 169.597 93.3428 169.779C93.7028 169.957 94.0059 170.212 94.252 170.545C94.498 170.878 94.6826 171.276 94.8057 171.741C94.9333 172.201 94.9971 172.714 94.9971 173.279ZM93.7256 173.423V173.279C93.7256 172.91 93.6868 172.564 93.6094 172.24C93.5319 171.912 93.4111 171.625 93.2471 171.379C93.0876 171.128 92.8825 170.932 92.6318 170.791C92.3812 170.645 92.0827 170.572 91.7363 170.572C91.4173 170.572 91.1393 170.627 90.9023 170.736C90.6699 170.846 90.4717 170.994 90.3076 171.181C90.1436 171.363 90.0091 171.573 89.9043 171.81C89.804 172.042 89.7288 172.283 89.6787 172.534V174.305C89.7699 174.624 89.8975 174.924 90.0615 175.207C90.2256 175.485 90.4443 175.711 90.7178 175.884C90.9912 176.052 91.3353 176.137 91.75 176.137C92.0918 176.137 92.3857 176.066 92.6318 175.925C92.8825 175.779 93.0876 175.581 93.2471 175.33C93.4111 175.079 93.5319 174.792 93.6094 174.469C93.6868 174.141 93.7256 173.792 93.7256 173.423ZM97.875 171.064V179.883H96.6035V169.643H97.7656L97.875 171.064ZM102.858 173.279V173.423C102.858 173.961 102.795 174.46 102.667 174.92C102.539 175.376 102.353 175.772 102.106 176.109C101.865 176.447 101.566 176.709 101.211 176.895C100.855 177.082 100.448 177.176 99.9873 177.176C99.5179 177.176 99.1032 177.098 98.7432 176.943C98.3831 176.788 98.0778 176.563 97.8271 176.267C97.5765 175.97 97.376 175.615 97.2256 175.2C97.0798 174.785 96.9795 174.318 96.9248 173.799V173.033C96.9795 172.486 97.082 171.996 97.2324 171.563C97.3828 171.13 97.5811 170.761 97.8271 170.456C98.0778 170.146 98.3809 169.911 98.7363 169.752C99.0918 169.588 99.502 169.506 99.9668 169.506C100.432 169.506 100.844 169.597 101.204 169.779C101.564 169.957 101.867 170.212 102.113 170.545C102.359 170.878 102.544 171.276 102.667 171.741C102.795 172.201 102.858 172.714 102.858 173.279ZM101.587 173.423V173.279C101.587 172.91 101.548 172.564 101.471 172.24C101.393 171.912 101.272 171.625 101.108 171.379C100.949 171.128 100.744 170.932 100.493 170.791C100.243 170.645 99.944 170.572 99.5977 170.572C99.2786 170.572 99.0007 170.627 98.7637 170.736C98.5312 170.846 98.333 170.994 98.1689 171.181C98.0049 171.363 97.8704 171.573 97.7656 171.81C97.6654 172.042 97.5902 172.283 97.54 172.534V174.305C97.6312 174.624 97.7588 174.924 97.9229 175.207C98.0869 175.485 98.3057 175.711 98.5791 175.884C98.8525 176.052 99.1966 176.137 99.6113 176.137C99.9531 176.137 100.247 176.066 100.493 175.925C100.744 175.779 100.949 175.581 101.108 175.33C101.272 175.079 101.393 174.792 101.471 174.469C101.548 174.141 101.587 173.792 101.587 173.423ZM104.137 173.423V173.266C104.137 172.732 104.214 172.238 104.369 171.782C104.524 171.322 104.747 170.923 105.039 170.586C105.331 170.244 105.684 169.98 106.099 169.793C106.513 169.602 106.978 169.506 107.493 169.506C108.013 169.506 108.48 169.602 108.895 169.793C109.314 169.98 109.669 170.244 109.961 170.586C110.257 170.923 110.483 171.322 110.638 171.782C110.793 172.238 110.87 172.732 110.87 173.266V173.423C110.87 173.956 110.793 174.45 110.638 174.906C110.483 175.362 110.257 175.761 109.961 176.102C109.669 176.44 109.316 176.704 108.901 176.895C108.491 177.082 108.026 177.176 107.507 177.176C106.987 177.176 106.52 177.082 106.105 176.895C105.691 176.704 105.335 176.44 105.039 176.102C104.747 175.761 104.524 175.362 104.369 174.906C104.214 174.45 104.137 173.956 104.137 173.423ZM105.401 173.266V173.423C105.401 173.792 105.445 174.141 105.531 174.469C105.618 174.792 105.748 175.079 105.921 175.33C106.099 175.581 106.32 175.779 106.584 175.925C106.848 176.066 107.156 176.137 107.507 176.137C107.853 176.137 108.156 176.066 108.416 175.925C108.68 175.779 108.899 175.581 109.072 175.33C109.245 175.079 109.375 174.792 109.462 174.469C109.553 174.141 109.599 173.792 109.599 173.423V173.266C109.599 172.901 109.553 172.557 109.462 172.233C109.375 171.905 109.243 171.616 109.065 171.365C108.892 171.11 108.674 170.909 108.409 170.764C108.149 170.618 107.844 170.545 107.493 170.545C107.147 170.545 106.841 170.618 106.577 170.764C106.317 170.909 106.099 171.11 105.921 171.365C105.748 171.616 105.618 171.905 105.531 172.233C105.445 172.557 105.401 172.901 105.401 173.266ZM113.721 170.805V177.039H112.456V169.643H113.687L113.721 170.805ZM116.031 169.602L116.024 170.777C115.92 170.754 115.819 170.741 115.724 170.736C115.632 170.727 115.528 170.723 115.409 170.723C115.118 170.723 114.86 170.768 114.637 170.859C114.413 170.95 114.224 171.078 114.069 171.242C113.914 171.406 113.791 171.602 113.7 171.83C113.614 172.053 113.557 172.299 113.529 172.568L113.174 172.773C113.174 172.327 113.217 171.907 113.304 171.516C113.395 171.124 113.534 170.777 113.721 170.477C113.908 170.171 114.145 169.934 114.432 169.766C114.723 169.592 115.07 169.506 115.471 169.506C115.562 169.506 115.667 169.517 115.785 169.54C115.904 169.558 115.986 169.579 116.031 169.602ZM120.639 169.643V170.613H116.64V169.643H120.639ZM117.993 167.845H119.258V175.207C119.258 175.458 119.297 175.647 119.374 175.774C119.451 175.902 119.552 175.986 119.675 176.027C119.798 176.068 119.93 176.089 120.071 176.089C120.176 176.089 120.285 176.08 120.399 176.061C120.518 176.039 120.607 176.02 120.666 176.007L120.673 177.039C120.573 177.071 120.44 177.101 120.276 177.128C120.117 177.16 119.923 177.176 119.695 177.176C119.385 177.176 119.101 177.114 118.841 176.991C118.581 176.868 118.374 176.663 118.219 176.376C118.068 176.084 117.993 175.692 117.993 175.2V167.845ZM125.191 177.176C124.676 177.176 124.209 177.089 123.79 176.916C123.375 176.738 123.018 176.49 122.717 176.171C122.421 175.852 122.193 175.474 122.033 175.036C121.874 174.599 121.794 174.12 121.794 173.601V173.313C121.794 172.712 121.883 172.176 122.061 171.707C122.238 171.233 122.48 170.832 122.785 170.504C123.09 170.176 123.437 169.927 123.824 169.759C124.212 169.59 124.613 169.506 125.027 169.506C125.556 169.506 126.012 169.597 126.395 169.779C126.782 169.962 127.099 170.217 127.345 170.545C127.591 170.868 127.773 171.251 127.892 171.693C128.01 172.131 128.069 172.609 128.069 173.129V173.696H122.546V172.664H126.805V172.568C126.786 172.24 126.718 171.921 126.6 171.611C126.486 171.301 126.303 171.046 126.053 170.846C125.802 170.645 125.46 170.545 125.027 170.545C124.74 170.545 124.476 170.606 124.234 170.729C123.993 170.848 123.785 171.026 123.612 171.263C123.439 171.5 123.305 171.789 123.209 172.131C123.113 172.473 123.065 172.867 123.065 173.313V173.601C123.065 173.951 123.113 174.282 123.209 174.592C123.309 174.897 123.453 175.166 123.64 175.398C123.831 175.631 124.061 175.813 124.33 175.945C124.604 176.077 124.913 176.143 125.26 176.143C125.706 176.143 126.085 176.052 126.395 175.87C126.704 175.688 126.976 175.444 127.208 175.139L127.974 175.747C127.814 175.989 127.611 176.219 127.365 176.437C127.119 176.656 126.816 176.834 126.456 176.971C126.101 177.107 125.679 177.176 125.191 177.176ZM134.208 175.603V166.539H135.479V177.039H134.317L134.208 175.603ZM129.231 173.423V173.279C129.231 172.714 129.3 172.201 129.437 171.741C129.578 171.276 129.776 170.878 130.031 170.545C130.291 170.212 130.599 169.957 130.954 169.779C131.314 169.597 131.715 169.506 132.157 169.506C132.622 169.506 133.028 169.588 133.374 169.752C133.725 169.911 134.021 170.146 134.263 170.456C134.509 170.761 134.702 171.13 134.844 171.563C134.985 171.996 135.083 172.486 135.138 173.033V173.662C135.088 174.204 134.99 174.692 134.844 175.125C134.702 175.558 134.509 175.927 134.263 176.232C134.021 176.538 133.725 176.772 133.374 176.936C133.023 177.096 132.613 177.176 132.144 177.176C131.711 177.176 131.314 177.082 130.954 176.895C130.599 176.709 130.291 176.447 130.031 176.109C129.776 175.772 129.578 175.376 129.437 174.92C129.3 174.46 129.231 173.961 129.231 173.423ZM130.503 173.279V173.423C130.503 173.792 130.539 174.138 130.612 174.462C130.69 174.785 130.808 175.07 130.968 175.316C131.127 175.562 131.33 175.756 131.576 175.897C131.822 176.034 132.116 176.102 132.458 176.102C132.877 176.102 133.221 176.014 133.49 175.836C133.764 175.658 133.982 175.423 134.146 175.132C134.311 174.84 134.438 174.523 134.529 174.182V172.534C134.475 172.283 134.395 172.042 134.29 171.81C134.19 171.573 134.058 171.363 133.894 171.181C133.734 170.994 133.536 170.846 133.299 170.736C133.066 170.627 132.791 170.572 132.472 170.572C132.125 170.572 131.827 170.645 131.576 170.791C131.33 170.932 131.127 171.128 130.968 171.379C130.808 171.625 130.69 171.912 130.612 172.24C130.539 172.564 130.503 172.91 130.503 173.279ZM137.394 176.369C137.394 176.155 137.46 175.975 137.592 175.829C137.729 175.679 137.924 175.603 138.18 175.603C138.435 175.603 138.629 175.679 138.761 175.829C138.897 175.975 138.966 176.155 138.966 176.369C138.966 176.579 138.897 176.756 138.761 176.902C138.629 177.048 138.435 177.121 138.18 177.121C137.924 177.121 137.729 177.048 137.592 176.902C137.46 176.756 137.394 176.579 137.394 176.369ZM137.4 170.333C137.4 170.119 137.466 169.939 137.599 169.793C137.735 169.643 137.931 169.567 138.187 169.567C138.442 169.567 138.635 169.643 138.768 169.793C138.904 169.939 138.973 170.119 138.973 170.333C138.973 170.543 138.904 170.72 138.768 170.866C138.635 171.012 138.442 171.085 138.187 171.085C137.931 171.085 137.735 171.012 137.599 170.866C137.466 170.72 137.4 170.543 137.4 170.333ZM148.68 174.134V167.086H149.992V174.134C149.992 174.79 149.858 175.344 149.589 175.795C149.32 176.246 148.949 176.59 148.475 176.827C148.005 177.06 147.465 177.176 146.854 177.176C146.244 177.176 145.701 177.071 145.228 176.861C144.754 176.652 144.382 176.333 144.113 175.904C143.844 175.476 143.71 174.936 143.71 174.284H145.029C145.029 174.703 145.107 175.047 145.262 175.316C145.417 175.585 145.631 175.783 145.904 175.911C146.182 176.039 146.499 176.102 146.854 176.102C147.201 176.102 147.511 176.03 147.784 175.884C148.062 175.733 148.281 175.512 148.44 175.221C148.6 174.924 148.68 174.562 148.68 174.134ZM155.898 173.136H153.239V172.062H155.898C156.413 172.062 156.83 171.98 157.149 171.816C157.468 171.652 157.701 171.424 157.847 171.133C157.997 170.841 158.072 170.508 158.072 170.135C158.072 169.793 157.997 169.472 157.847 169.171C157.701 168.87 157.468 168.629 157.149 168.446C156.83 168.259 156.413 168.166 155.898 168.166H153.547V177.039H152.228V167.086H155.898C156.65 167.086 157.286 167.216 157.806 167.476C158.325 167.735 158.719 168.095 158.988 168.556C159.257 169.011 159.392 169.533 159.392 170.121C159.392 170.759 159.257 171.304 158.988 171.755C158.719 172.206 158.325 172.55 157.806 172.787C157.286 173.019 156.65 173.136 155.898 173.136ZM168.415 172.083V175.727C168.292 175.909 168.096 176.114 167.827 176.342C167.558 176.565 167.187 176.761 166.713 176.93C166.243 177.094 165.637 177.176 164.895 177.176C164.288 177.176 163.73 177.071 163.22 176.861C162.714 176.647 162.274 176.337 161.9 175.932C161.531 175.521 161.244 175.025 161.039 174.441C160.839 173.853 160.738 173.188 160.738 172.445V171.673C160.738 170.93 160.825 170.267 160.998 169.684C161.176 169.1 161.436 168.606 161.777 168.2C162.119 167.79 162.538 167.48 163.035 167.27C163.532 167.056 164.102 166.949 164.744 166.949C165.505 166.949 166.141 167.081 166.651 167.346C167.166 167.605 167.567 167.965 167.854 168.426C168.146 168.886 168.333 169.41 168.415 169.998H167.096C167.036 169.638 166.918 169.31 166.74 169.014C166.567 168.717 166.319 168.48 165.995 168.303C165.672 168.12 165.255 168.029 164.744 168.029C164.284 168.029 163.885 168.114 163.548 168.282C163.211 168.451 162.933 168.692 162.714 169.007C162.495 169.321 162.331 169.702 162.222 170.148C162.117 170.595 162.064 171.099 162.064 171.659V172.445C162.064 173.019 162.131 173.532 162.263 173.983C162.399 174.435 162.593 174.82 162.844 175.139C163.094 175.453 163.393 175.692 163.739 175.856C164.09 176.02 164.478 176.102 164.901 176.102C165.371 176.102 165.751 176.064 166.043 175.986C166.335 175.904 166.562 175.809 166.727 175.699C166.891 175.585 167.016 175.478 167.103 175.378V173.149H164.799V172.083H168.415ZM171.56 175.535V176.554C171.56 176.968 171.455 177.406 171.245 177.866C171.035 178.331 170.742 178.718 170.363 179.028L169.646 178.529C169.791 178.329 169.914 178.124 170.015 177.914C170.115 177.709 170.19 177.495 170.24 177.271C170.295 177.053 170.322 176.82 170.322 176.574V175.535H171.56ZM180.508 173.136H177.849V172.062H180.508C181.023 172.062 181.44 171.98 181.759 171.816C182.078 171.652 182.31 171.424 182.456 171.133C182.606 170.841 182.682 170.508 182.682 170.135C182.682 169.793 182.606 169.472 182.456 169.171C182.31 168.87 182.078 168.629 181.759 168.446C181.44 168.259 181.023 168.166 180.508 168.166H178.156V177.039H176.837V167.086H180.508C181.26 167.086 181.896 167.216 182.415 167.476C182.935 167.735 183.329 168.095 183.598 168.556C183.867 169.011 184.001 169.533 184.001 170.121C184.001 170.759 183.867 171.304 183.598 171.755C183.329 172.206 182.935 172.55 182.415 172.787C181.896 173.019 181.26 173.136 180.508 173.136ZM193.325 167.086V177.039H191.999L186.988 169.362V177.039H185.669V167.086H186.988L192.02 174.783V167.086H193.325ZM203.019 172.083V175.727C202.896 175.909 202.7 176.114 202.431 176.342C202.162 176.565 201.79 176.761 201.316 176.93C200.847 177.094 200.241 177.176 199.498 177.176C198.892 177.176 198.334 177.071 197.823 176.861C197.317 176.647 196.878 176.337 196.504 175.932C196.135 175.521 195.848 175.025 195.643 174.441C195.442 173.853 195.342 173.188 195.342 172.445V171.673C195.342 170.93 195.428 170.267 195.602 169.684C195.779 169.1 196.039 168.606 196.381 168.2C196.723 167.79 197.142 167.48 197.639 167.27C198.135 167.056 198.705 166.949 199.348 166.949C200.109 166.949 200.744 167.081 201.255 167.346C201.77 167.605 202.171 167.965 202.458 168.426C202.75 168.886 202.937 169.41 203.019 169.998H201.699C201.64 169.638 201.521 169.31 201.344 169.014C201.171 168.717 200.922 168.48 200.599 168.303C200.275 168.12 199.858 168.029 199.348 168.029C198.887 168.029 198.489 168.114 198.151 168.282C197.814 168.451 197.536 168.692 197.317 169.007C197.099 169.321 196.935 169.702 196.825 170.148C196.72 170.595 196.668 171.099 196.668 171.659V172.445C196.668 173.019 196.734 173.532 196.866 173.983C197.003 174.435 197.197 174.82 197.447 175.139C197.698 175.453 197.996 175.692 198.343 175.856C198.694 176.02 199.081 176.102 199.505 176.102C199.974 176.102 200.355 176.064 200.646 175.986C200.938 175.904 201.166 175.809 201.33 175.699C201.494 175.585 201.619 175.478 201.706 175.378V173.149H199.402V172.083H203.019ZM206.163 175.535V176.554C206.163 176.968 206.058 177.406 205.849 177.866C205.639 178.331 205.345 178.718 204.967 179.028L204.249 178.529C204.395 178.329 204.518 178.124 204.618 177.914C204.718 177.709 204.794 177.495 204.844 177.271C204.898 177.053 204.926 176.82 204.926 176.574V175.535H206.163ZM215.61 175.774V171.967C215.61 171.675 215.551 171.422 215.433 171.208C215.319 170.989 215.146 170.821 214.913 170.702C214.681 170.584 214.394 170.524 214.052 170.524C213.733 170.524 213.452 170.579 213.211 170.688C212.974 170.798 212.787 170.941 212.65 171.119C212.518 171.297 212.452 171.488 212.452 171.693H211.188C211.188 171.429 211.256 171.167 211.393 170.907C211.529 170.647 211.725 170.413 211.98 170.203C212.24 169.989 212.55 169.82 212.91 169.697C213.275 169.57 213.68 169.506 214.127 169.506C214.665 169.506 215.139 169.597 215.549 169.779C215.964 169.962 216.287 170.237 216.52 170.606C216.757 170.971 216.875 171.429 216.875 171.98V175.426C216.875 175.672 216.896 175.934 216.937 176.212C216.982 176.49 217.048 176.729 217.135 176.93V177.039H215.815C215.752 176.893 215.701 176.699 215.665 176.458C215.629 176.212 215.61 175.984 215.61 175.774ZM215.829 172.555L215.843 173.443H214.564C214.204 173.443 213.883 173.473 213.601 173.532C213.318 173.587 213.081 173.671 212.89 173.785C212.698 173.899 212.552 174.043 212.452 174.216C212.352 174.384 212.302 174.583 212.302 174.81C212.302 175.043 212.354 175.255 212.459 175.446C212.564 175.638 212.721 175.79 212.931 175.904C213.145 176.014 213.407 176.068 213.717 176.068C214.104 176.068 214.446 175.986 214.742 175.822C215.038 175.658 215.273 175.458 215.446 175.221C215.624 174.984 215.72 174.754 215.733 174.53L216.273 175.139C216.242 175.33 216.155 175.542 216.014 175.774C215.872 176.007 215.683 176.23 215.446 176.444C215.214 176.654 214.936 176.829 214.612 176.971C214.293 177.107 213.933 177.176 213.532 177.176C213.031 177.176 212.591 177.078 212.213 176.882C211.839 176.686 211.548 176.424 211.338 176.096C211.133 175.763 211.03 175.392 211.03 174.981C211.03 174.585 211.108 174.236 211.263 173.935C211.418 173.63 211.641 173.377 211.933 173.177C212.224 172.972 212.575 172.817 212.985 172.712C213.396 172.607 213.854 172.555 214.359 172.555H215.829ZM220.129 171.222V177.039H218.864V169.643H220.061L220.129 171.222ZM219.828 173.06L219.302 173.04C219.306 172.534 219.382 172.067 219.527 171.639C219.673 171.206 219.878 170.83 220.143 170.511C220.407 170.192 220.721 169.946 221.086 169.772C221.455 169.595 221.863 169.506 222.31 169.506C222.674 169.506 223.002 169.556 223.294 169.656C223.586 169.752 223.834 169.907 224.039 170.121C224.249 170.335 224.408 170.613 224.518 170.955C224.627 171.292 224.682 171.705 224.682 172.192V177.039H223.41V172.179C223.41 171.791 223.353 171.481 223.239 171.249C223.125 171.012 222.959 170.841 222.74 170.736C222.521 170.627 222.253 170.572 221.934 170.572C221.619 170.572 221.332 170.638 221.072 170.77C220.817 170.903 220.596 171.085 220.409 171.317C220.227 171.55 220.083 171.816 219.979 172.117C219.878 172.413 219.828 172.728 219.828 173.06ZM231.265 175.603V166.539H232.536V177.039H231.374L231.265 175.603ZM226.288 173.423V173.279C226.288 172.714 226.356 172.201 226.493 171.741C226.634 171.276 226.833 170.878 227.088 170.545C227.348 170.212 227.655 169.957 228.011 169.779C228.371 169.597 228.772 169.506 229.214 169.506C229.679 169.506 230.084 169.588 230.431 169.752C230.782 169.911 231.078 170.146 231.319 170.456C231.565 170.761 231.759 171.13 231.9 171.563C232.042 171.996 232.14 172.486 232.194 173.033V173.662C232.144 174.204 232.046 174.692 231.9 175.125C231.759 175.558 231.565 175.927 231.319 176.232C231.078 176.538 230.782 176.772 230.431 176.936C230.08 177.096 229.67 177.176 229.2 177.176C228.767 177.176 228.371 177.082 228.011 176.895C227.655 176.709 227.348 176.447 227.088 176.109C226.833 175.772 226.634 175.376 226.493 174.92C226.356 174.46 226.288 173.961 226.288 173.423ZM227.56 173.279V173.423C227.56 173.792 227.596 174.138 227.669 174.462C227.746 174.785 227.865 175.07 228.024 175.316C228.184 175.562 228.387 175.756 228.633 175.897C228.879 176.034 229.173 176.102 229.515 176.102C229.934 176.102 230.278 176.014 230.547 175.836C230.82 175.658 231.039 175.423 231.203 175.132C231.367 174.84 231.495 174.523 231.586 174.182V172.534C231.531 172.283 231.451 172.042 231.347 171.81C231.246 171.573 231.114 171.363 230.95 171.181C230.791 170.994 230.592 170.846 230.355 170.736C230.123 170.627 229.847 170.572 229.528 170.572C229.182 170.572 228.883 170.645 228.633 170.791C228.387 170.932 228.184 171.128 228.024 171.379C227.865 171.625 227.746 171.912 227.669 172.24C227.596 172.564 227.56 172.91 227.56 173.279ZM245.524 172.083V175.727C245.401 175.909 245.205 176.114 244.937 176.342C244.668 176.565 244.296 176.761 243.822 176.93C243.353 177.094 242.747 177.176 242.004 177.176C241.398 177.176 240.84 177.071 240.329 176.861C239.823 176.647 239.383 176.337 239.01 175.932C238.641 175.521 238.354 175.025 238.148 174.441C237.948 173.853 237.848 173.188 237.848 172.445V171.673C237.848 170.93 237.934 170.267 238.107 169.684C238.285 169.1 238.545 168.606 238.887 168.2C239.229 167.79 239.648 167.48 240.145 167.27C240.641 167.056 241.211 166.949 241.854 166.949C242.615 166.949 243.25 167.081 243.761 167.346C244.276 167.605 244.677 167.965 244.964 168.426C245.256 168.886 245.442 169.41 245.524 169.998H244.205C244.146 169.638 244.027 169.31 243.85 169.014C243.676 168.717 243.428 168.48 243.104 168.303C242.781 168.12 242.364 168.029 241.854 168.029C241.393 168.029 240.994 168.114 240.657 168.282C240.32 168.451 240.042 168.692 239.823 169.007C239.604 169.321 239.44 169.702 239.331 170.148C239.226 170.595 239.174 171.099 239.174 171.659V172.445C239.174 173.019 239.24 173.532 239.372 173.983C239.509 174.435 239.702 174.82 239.953 175.139C240.204 175.453 240.502 175.692 240.849 175.856C241.2 176.02 241.587 176.102 242.011 176.102C242.48 176.102 242.861 176.064 243.152 175.986C243.444 175.904 243.672 175.809 243.836 175.699C244 175.585 244.125 175.478 244.212 175.378V173.149H241.908V172.083H245.524ZM249.127 167.086V177.039H247.808V167.086H249.127ZM252.846 167.086V177.039H251.526V167.086H252.846ZM257.016 171.563V172.643H252.559V171.563H257.016ZM257.692 167.086V168.166H252.559V167.086H257.692ZM257.494 176.369C257.494 176.155 257.56 175.975 257.692 175.829C257.829 175.679 258.025 175.603 258.28 175.603C258.535 175.603 258.729 175.679 258.861 175.829C258.998 175.975 259.066 176.155 259.066 176.369C259.066 176.579 258.998 176.756 258.861 176.902C258.729 177.048 258.535 177.121 258.28 177.121C258.025 177.121 257.829 177.048 257.692 176.902C257.56 176.756 257.494 176.579 257.494 176.369ZM89.1387 189.086H90.417L93.6777 197.2L96.9316 189.086H98.2168L94.1699 199.039H93.1719L89.1387 189.086ZM88.7217 189.086H89.8496L90.0342 195.156V199.039H88.7217V189.086ZM97.499 189.086H98.627V199.039H97.3145V195.156L97.499 189.086ZM105.114 197.774V193.967C105.114 193.675 105.055 193.422 104.937 193.208C104.823 192.989 104.649 192.821 104.417 192.702C104.185 192.584 103.897 192.524 103.556 192.524C103.237 192.524 102.956 192.579 102.715 192.688C102.478 192.798 102.291 192.941 102.154 193.119C102.022 193.297 101.956 193.488 101.956 193.693H100.691C100.691 193.429 100.76 193.167 100.896 192.907C101.033 192.647 101.229 192.413 101.484 192.203C101.744 191.989 102.054 191.82 102.414 191.697C102.779 191.57 103.184 191.506 103.631 191.506C104.169 191.506 104.643 191.597 105.053 191.779C105.467 191.962 105.791 192.237 106.023 192.606C106.26 192.971 106.379 193.429 106.379 193.98V197.426C106.379 197.672 106.399 197.934 106.44 198.212C106.486 198.49 106.552 198.729 106.639 198.93V199.039H105.319C105.256 198.893 105.205 198.699 105.169 198.458C105.132 198.212 105.114 197.984 105.114 197.774ZM105.333 194.555L105.347 195.443H104.068C103.708 195.443 103.387 195.473 103.104 195.532C102.822 195.587 102.585 195.671 102.394 195.785C102.202 195.899 102.056 196.043 101.956 196.216C101.856 196.384 101.806 196.583 101.806 196.81C101.806 197.043 101.858 197.255 101.963 197.446C102.068 197.638 102.225 197.79 102.435 197.904C102.649 198.014 102.911 198.068 103.221 198.068C103.608 198.068 103.95 197.986 104.246 197.822C104.542 197.658 104.777 197.458 104.95 197.221C105.128 196.984 105.224 196.754 105.237 196.53L105.777 197.139C105.745 197.33 105.659 197.542 105.518 197.774C105.376 198.007 105.187 198.23 104.95 198.444C104.718 198.654 104.44 198.829 104.116 198.971C103.797 199.107 103.437 199.176 103.036 199.176C102.535 199.176 102.095 199.078 101.717 198.882C101.343 198.686 101.051 198.424 100.842 198.096C100.637 197.763 100.534 197.392 100.534 196.981C100.534 196.585 100.612 196.236 100.767 195.935C100.922 195.63 101.145 195.377 101.437 195.177C101.728 194.972 102.079 194.817 102.489 194.712C102.899 194.607 103.357 194.555 103.863 194.555H105.333ZM109.223 191.643L110.843 194.336L112.483 191.643H113.967L111.547 195.293L114.042 199.039H112.579L110.87 196.264L109.161 199.039H107.691L110.18 195.293L107.767 191.643H109.223ZM123.093 197.077C123.093 196.895 123.052 196.726 122.97 196.571C122.892 196.412 122.73 196.268 122.484 196.141C122.243 196.008 121.878 195.894 121.391 195.799C120.98 195.712 120.609 195.61 120.276 195.491C119.948 195.373 119.668 195.229 119.436 195.06C119.208 194.892 119.032 194.694 118.909 194.466C118.786 194.238 118.725 193.971 118.725 193.666C118.725 193.374 118.788 193.099 118.916 192.839C119.048 192.579 119.233 192.349 119.47 192.148C119.711 191.948 120.001 191.791 120.338 191.677C120.675 191.563 121.051 191.506 121.466 191.506C122.058 191.506 122.564 191.611 122.983 191.82C123.403 192.03 123.724 192.31 123.947 192.661C124.171 193.007 124.282 193.393 124.282 193.816H123.018C123.018 193.611 122.956 193.413 122.833 193.222C122.715 193.026 122.539 192.864 122.307 192.736C122.079 192.609 121.799 192.545 121.466 192.545C121.115 192.545 120.83 192.6 120.611 192.709C120.397 192.814 120.24 192.948 120.14 193.112C120.044 193.276 119.996 193.449 119.996 193.632C119.996 193.768 120.019 193.892 120.064 194.001C120.115 194.106 120.201 194.204 120.324 194.295C120.447 194.381 120.62 194.463 120.844 194.541C121.067 194.618 121.352 194.696 121.698 194.773C122.304 194.91 122.803 195.074 123.195 195.266C123.587 195.457 123.879 195.692 124.07 195.97C124.262 196.248 124.357 196.585 124.357 196.981C124.357 197.305 124.289 197.601 124.152 197.87C124.02 198.139 123.826 198.371 123.571 198.567C123.321 198.759 123.02 198.909 122.669 199.018C122.323 199.123 121.933 199.176 121.5 199.176C120.848 199.176 120.297 199.06 119.846 198.827C119.395 198.595 119.053 198.294 118.82 197.925C118.588 197.556 118.472 197.166 118.472 196.756H119.743C119.761 197.102 119.862 197.378 120.044 197.583C120.226 197.783 120.45 197.927 120.714 198.014C120.978 198.096 121.24 198.137 121.5 198.137C121.846 198.137 122.136 198.091 122.368 198C122.605 197.909 122.785 197.783 122.908 197.624C123.031 197.464 123.093 197.282 123.093 197.077ZM127.393 191.643V199.039H126.121V191.643H127.393ZM126.025 189.681C126.025 189.476 126.087 189.302 126.21 189.161C126.338 189.02 126.524 188.949 126.771 188.949C127.012 188.949 127.197 189.02 127.324 189.161C127.456 189.302 127.522 189.476 127.522 189.681C127.522 189.877 127.456 190.045 127.324 190.186C127.197 190.323 127.012 190.392 126.771 190.392C126.524 190.392 126.338 190.323 126.21 190.186C126.087 190.045 126.025 189.877 126.025 189.681ZM134.933 198V199.039H129.553V198H134.933ZM134.734 192.538L129.84 199.039H129.067V198.109L133.928 191.643H134.734V192.538ZM134.174 191.643V192.688H129.122V191.643H134.174ZM139.328 199.176C138.813 199.176 138.346 199.089 137.927 198.916C137.512 198.738 137.154 198.49 136.854 198.171C136.557 197.852 136.329 197.474 136.17 197.036C136.01 196.599 135.931 196.12 135.931 195.601V195.313C135.931 194.712 136.02 194.176 136.197 193.707C136.375 193.233 136.617 192.832 136.922 192.504C137.227 192.176 137.574 191.927 137.961 191.759C138.348 191.59 138.749 191.506 139.164 191.506C139.693 191.506 140.148 191.597 140.531 191.779C140.919 191.962 141.235 192.217 141.481 192.545C141.728 192.868 141.91 193.251 142.028 193.693C142.147 194.131 142.206 194.609 142.206 195.129V195.696H136.683V194.664H140.941V194.568C140.923 194.24 140.855 193.921 140.736 193.611C140.622 193.301 140.44 193.046 140.189 192.846C139.939 192.645 139.597 192.545 139.164 192.545C138.877 192.545 138.613 192.606 138.371 192.729C138.13 192.848 137.922 193.026 137.749 193.263C137.576 193.5 137.441 193.789 137.346 194.131C137.25 194.473 137.202 194.867 137.202 195.313V195.601C137.202 195.951 137.25 196.282 137.346 196.592C137.446 196.897 137.59 197.166 137.776 197.398C137.968 197.631 138.198 197.813 138.467 197.945C138.74 198.077 139.05 198.143 139.396 198.143C139.843 198.143 140.221 198.052 140.531 197.87C140.841 197.688 141.112 197.444 141.345 197.139L142.11 197.747C141.951 197.989 141.748 198.219 141.502 198.437C141.256 198.656 140.953 198.834 140.593 198.971C140.237 199.107 139.816 199.176 139.328 199.176ZM143.628 198.369C143.628 198.155 143.694 197.975 143.826 197.829C143.963 197.679 144.159 197.603 144.414 197.603C144.669 197.603 144.863 197.679 144.995 197.829C145.132 197.975 145.2 198.155 145.2 198.369C145.2 198.579 145.132 198.756 144.995 198.902C144.863 199.048 144.669 199.121 144.414 199.121C144.159 199.121 143.963 199.048 143.826 198.902C143.694 198.756 143.628 198.579 143.628 198.369ZM143.635 192.333C143.635 192.119 143.701 191.939 143.833 191.793C143.97 191.643 144.166 191.567 144.421 191.567C144.676 191.567 144.87 191.643 145.002 191.793C145.139 191.939 145.207 192.119 145.207 192.333C145.207 192.543 145.139 192.72 145.002 192.866C144.87 193.012 144.676 193.085 144.421 193.085C144.166 193.085 143.97 193.012 143.833 192.866C143.701 192.72 143.635 192.543 143.635 192.333ZM154.565 189.031V199.039H153.301V190.61L150.751 191.54V190.398L154.367 189.031H154.565ZM164.532 193.269V194.787C164.532 195.603 164.459 196.291 164.313 196.852C164.168 197.412 163.958 197.863 163.685 198.205C163.411 198.547 163.081 198.795 162.693 198.95C162.311 199.101 161.878 199.176 161.395 199.176C161.012 199.176 160.659 199.128 160.335 199.032C160.011 198.936 159.72 198.784 159.46 198.574C159.205 198.36 158.986 198.082 158.804 197.74C158.621 197.398 158.482 196.984 158.387 196.496C158.291 196.008 158.243 195.439 158.243 194.787V193.269C158.243 192.454 158.316 191.77 158.462 191.219C158.612 190.667 158.824 190.225 159.098 189.893C159.371 189.555 159.699 189.314 160.082 189.168C160.469 189.022 160.902 188.949 161.381 188.949C161.768 188.949 162.124 188.997 162.447 189.093C162.775 189.184 163.067 189.332 163.322 189.537C163.577 189.738 163.794 190.006 163.972 190.344C164.154 190.676 164.293 191.084 164.389 191.567C164.484 192.05 164.532 192.618 164.532 193.269ZM163.261 194.992V193.058C163.261 192.611 163.233 192.219 163.179 191.882C163.129 191.54 163.053 191.248 162.953 191.007C162.853 190.765 162.725 190.569 162.57 190.419C162.42 190.268 162.244 190.159 162.044 190.091C161.848 190.018 161.627 189.981 161.381 189.981C161.08 189.981 160.813 190.038 160.581 190.152C160.349 190.262 160.153 190.437 159.993 190.679C159.838 190.92 159.72 191.237 159.638 191.629C159.556 192.021 159.515 192.497 159.515 193.058V194.992C159.515 195.439 159.54 195.833 159.59 196.175C159.645 196.517 159.724 196.813 159.829 197.063C159.934 197.31 160.062 197.512 160.212 197.672C160.362 197.831 160.535 197.95 160.731 198.027C160.932 198.1 161.153 198.137 161.395 198.137C161.704 198.137 161.976 198.077 162.208 197.959C162.44 197.84 162.634 197.656 162.789 197.405C162.949 197.15 163.067 196.824 163.145 196.428C163.222 196.027 163.261 195.548 163.261 194.992ZM170.377 189.086H171.655L174.916 197.2L178.17 189.086H179.455L175.408 199.039H174.41L170.377 189.086ZM169.96 189.086H171.088L171.272 195.156V199.039H169.96V189.086ZM178.737 189.086H179.865V199.039H178.553V195.156L178.737 189.086ZM185.73 194.384H183.208L183.194 193.324H185.484C185.863 193.324 186.193 193.26 186.476 193.133C186.758 193.005 186.977 192.823 187.132 192.586C187.291 192.344 187.371 192.057 187.371 191.725C187.371 191.36 187.3 191.064 187.159 190.836C187.022 190.603 186.811 190.435 186.523 190.33C186.241 190.221 185.881 190.166 185.443 190.166H183.502V199.039H182.183V189.086H185.443C185.954 189.086 186.41 189.138 186.811 189.243C187.212 189.343 187.551 189.503 187.829 189.722C188.112 189.936 188.326 190.209 188.472 190.542C188.618 190.875 188.69 191.273 188.69 191.738C188.69 192.148 188.586 192.52 188.376 192.852C188.166 193.181 187.875 193.449 187.501 193.659C187.132 193.869 186.699 194.003 186.202 194.062L185.73 194.384ZM185.669 199.039H182.688L183.434 197.966H185.669C186.088 197.966 186.444 197.893 186.735 197.747C187.032 197.601 187.257 197.396 187.412 197.132C187.567 196.863 187.645 196.546 187.645 196.182C187.645 195.812 187.578 195.493 187.446 195.225C187.314 194.956 187.107 194.748 186.824 194.602C186.542 194.457 186.177 194.384 185.73 194.384H183.851L183.864 193.324H186.435L186.715 193.707C187.193 193.748 187.599 193.885 187.932 194.117C188.264 194.345 188.517 194.637 188.69 194.992C188.868 195.348 188.957 195.74 188.957 196.168C188.957 196.788 188.82 197.312 188.547 197.74C188.278 198.164 187.897 198.488 187.405 198.711C186.913 198.93 186.334 199.039 185.669 199.039ZM190.734 198.369C190.734 198.155 190.8 197.975 190.933 197.829C191.069 197.679 191.265 197.603 191.521 197.603C191.776 197.603 191.969 197.679 192.102 197.829C192.238 197.975 192.307 198.155 192.307 198.369C192.307 198.579 192.238 198.756 192.102 198.902C191.969 199.048 191.776 199.121 191.521 199.121C191.265 199.121 191.069 199.048 190.933 198.902C190.8 198.756 190.734 198.579 190.734 198.369Z" fill="#C0C3C7"/>
</svg>
