<svg width="80" height="80" viewBox="0 0 80 80" fill="none" xmlns="http://www.w3.org/2000/svg">
<g clip-path="url(#clip0_10676_36451)">
<circle cx="40" cy="40" r="40" fill="#EFECFF"/>
<path d="M36.4971 27.9267C36.1034 27.9267 35.7368 28.1271 35.5242 28.4584L33.5301 31.5658H29.0826C27.3801 31.5658 26 32.9459 26 34.6484V48.9907C26 50.6932 27.3801 52.0733 29.0826 52.0733H50.9174C52.6199 52.0733 54 50.6932 54 48.9907V34.6484C54 32.9459 52.6199 31.5658 50.9174 31.5658H46.4699L44.4758 28.4584C44.2632 28.1271 43.8966 27.9267 43.5029 27.9267H36.4971ZM49.0183 33.7065C49.905 33.7065 50.6238 34.4253 50.6238 35.312C50.6238 36.1987 49.905 36.9175 49.0183 36.9175C48.1316 36.9175 47.4128 36.1987 47.4128 35.312C47.4128 34.4253 48.1316 33.7065 49.0183 33.7065ZM46.0368 41.2202C46.0368 44.5541 43.3341 47.2568 40.0001 47.2568C36.6661 47.2568 33.9634 44.5541 33.9634 41.2202C33.9634 37.8863 36.6661 35.1836 40.0001 35.1836C43.3341 35.1836 46.0368 37.8863 46.0368 41.2202ZM40.0001 44.6395C41.8885 44.6395 43.4194 43.1086 43.4194 41.2202C43.4194 39.3318 41.8885 37.801 40.0001 37.801C38.1117 37.801 36.5808 39.3318 36.5808 41.2202C36.5808 43.1086 38.1117 44.6395 40.0001 44.6395Z" fill="#5D42FF"/>
</g>
<defs>
<clipPath id="clip0_10676_36451">
<rect width="80" height="80" fill="white"/>
</clipPath>
</defs>
</svg>
