<svg width="20" height="20" viewBox="0 0 20 20" fill="none" xmlns="http://www.w3.org/2000/svg">
<path d="M13.6088 2.9761L10.0536 4.09198L13.9719 4.09445L13.6088 2.9761ZM13.4065 1.40191C14.077 1.19147 14.7918 1.5603 15.0089 2.22864L15.6149 4.09498C16.3578 4.09498 17.1007 4.09498 17.8436 4.09498C18.2578 4.09498 18.5936 4.43076 18.5936 4.84498V8.78248V9.56373V12.6887V13.47V17.4075C18.5936 17.8217 18.2578 18.1575 17.8436 18.1575C12.6145 18.1575 7.38533 18.1575 2.15617 18.1575C1.74196 18.1575 1.40617 17.8221 1.40617 17.4079C1.40618 13.5436 1.40626 8.70886 1.4061 4.84457C1.40608 4.43035 1.74187 4.09498 2.1561 4.09498H4.8266L13.4065 1.40191ZM2.9686 5.65748V16.595H17.0311V13.47H15.078C13.7768 13.47 12.6561 12.4561 12.6561 11.1262C12.6561 9.79634 13.7768 8.78248 15.078 8.78248H17.0311V5.65748H2.9686ZM17.0311 10.345H15.078C14.567 10.345 14.2186 10.7302 14.2186 11.1262C14.2186 11.5222 14.567 11.9075 15.078 11.9075H17.0311V10.345Z" fill="#55585E"/>
</svg>
