<svg width="20" height="20" viewBox="0 0 20 20" fill="none" xmlns="http://www.w3.org/2000/svg">
<g clip-path="url(#clip0_1799_15039)">
<path d="M13.6917 1.38746C14.667 1.0458 15.6876 1.76967 15.6876 2.80311V5.17534L2.87857 5.17534L13.6917 1.38746Z" stroke="white" stroke-width="1.6" stroke-linecap="round" stroke-linejoin="round"/>
<path d="M1.45001 7.1753C1.45001 6.07073 2.34544 5.17531 3.45001 5.17531H16.55C17.6546 5.17531 18.55 6.07074 18.55 7.17531V16.5253C18.55 17.6299 17.6546 18.5253 16.55 18.5253H3.45001C2.34544 18.5253 1.45001 17.6299 1.45001 16.5253V7.1753Z" stroke="white" stroke-width="1.6" stroke-linecap="round" stroke-linejoin="round"/>
<path d="M14.8805 13.8122H18.5614V9.87555H14.8805C13.7391 9.87555 12.8138 10.7568 12.8138 11.8439C12.8138 12.931 13.7391 13.8122 14.8805 13.8122Z" stroke="white" stroke-width="1.6" stroke-linejoin="round"/>
</g>
<defs>
<clipPath id="clip0_1799_15039">
<rect width="20" height="20" fill="white"/>
</clipPath>
</defs>
</svg>
