<svg width="16" height="16" viewBox="0 0 16 16" fill="none" xmlns="http://www.w3.org/2000/svg">
<path d="M7.14699 1.98462C7.53559 1.33846 8.47231 1.33846 8.86091 1.98462L15.2116 12.5443C15.6124 13.2108 15.1324 14.0597 14.3546 14.0597H1.65328C0.875524 14.0597 0.395479 13.2108 0.79632 12.5443L7.14699 1.98462ZM8.42878 10.1349C8.53924 10.1349 8.62878 10.0454 8.62878 9.93495V5.83495C8.62878 5.72449 8.53924 5.63495 8.42878 5.63495H7.57878C7.46833 5.63495 7.37878 5.72449 7.37878 5.83495V9.93495C7.37878 10.0454 7.46833 10.1349 7.57878 10.1349H8.42878ZM8.00388 12.635C8.50094 12.635 8.90388 12.232 8.90388 11.735C8.90388 11.2379 8.50094 10.835 8.00388 10.835C7.50683 10.835 7.10388 11.2379 7.10388 11.735C7.10388 12.232 7.50683 12.635 8.00388 12.635Z" fill="#FF9417"/>
</svg>
