<svg width="32" height="32" viewBox="0 0 32 32" fill="none" xmlns="http://www.w3.org/2000/svg">
<g clip-path="url(#clip0_5235_5567)">
<circle cx="16" cy="16" r="16" fill="#5B8EF4"/>
<g clip-path="url(#clip1_5235_5567)">
<path d="M11.3333 9.42761C10.0662 9.42761 9.03889 10.4549 9.03889 11.7221V20.2776C9.03889 21.5448 10.0662 22.5721 11.3333 22.5721L14.47 22.5721L14.4833 22.5721V22.5719C14.8852 22.5648 15.2088 22.2368 15.2088 21.8332C15.2088 21.4296 14.8852 21.1015 14.4833 21.0944V21.0943H14.47H11.3333C10.8823 21.0943 10.5167 20.7286 10.5167 20.2776V11.7221C10.5167 11.271 10.8823 10.9054 11.3333 10.9054H20.6667C21.1177 10.9054 21.4833 11.271 21.4833 11.7221V13.2698C21.4833 13.2724 21.4833 13.275 21.4833 13.2776C21.4833 13.2802 21.4833 13.2828 21.4833 13.2854V13.3165H21.4843C21.5045 13.7065 21.8272 14.0165 22.2222 14.0165C22.6172 14.0165 22.9398 13.7065 22.9601 13.3165H22.9611V11.7221C22.9611 10.4549 21.9339 9.42761 20.6667 9.42761H11.3333ZM19.4562 15.1105C19.7296 14.8371 20.1728 14.8371 20.4462 15.1105L22.7561 17.4204C22.8942 17.5585 22.9625 17.74 22.9611 17.921L22.9611 17.9283C22.9611 17.9664 22.9581 18.0037 22.9522 18.0401C22.9318 18.1852 22.8657 18.3252 22.7541 18.4368L20.4442 20.7467C20.1709 21.02 19.7276 21.02 19.4543 20.7467C19.1809 20.4733 19.1809 20.0301 19.4543 19.7567L20.5827 18.6283H15.8833C15.4967 18.6283 15.1833 18.3149 15.1833 17.9283C15.1833 17.5417 15.4967 17.2283 15.8833 17.2283H20.5841L19.4562 16.1005C19.1829 15.8271 19.1829 15.3839 19.4562 15.1105Z" fill="white"/>
</g>
</g>
<defs>
<clipPath id="clip0_5235_5567">
<rect width="32" height="32" fill="white"/>
</clipPath>
<clipPath id="clip1_5235_5567">
<rect width="14" height="14" fill="white" transform="translate(9 9)"/>
</clipPath>
</defs>
</svg>
