<svg width="46" height="16" viewBox="0 0 46 16" fill="none" xmlns="http://www.w3.org/2000/svg">
<rect x="0.5" y="0.5" width="45" height="15" rx="3.5" fill="#5D42FF"/>
<rect x="0.5" y="0.5" width="45" height="15" rx="3.5" stroke="white"/>
<path d="M10.1387 10.0625V11H6.20312V10.0625H10.1387ZM10.0312 6.44922L6.60352 11H5.8418V10.2432L9.25 5.7168H10.0312V6.44922ZM9.57715 5.7168V6.6543H5.90039V5.7168H9.57715ZM12.2676 3.5V11H11.0859V3.5H12.2676ZM15.5488 5.7168L13.249 8.26562L11.9893 9.55469L11.6816 8.55859L12.6338 7.38184L14.1279 5.7168H15.5488ZM14.3818 11L12.668 8.51953L13.4102 7.69434L15.7441 11H14.3818ZM20.8662 10.0283V11H17.2969V10.0283H20.8662ZM17.6387 3.89062V11H16.4131V3.89062H17.6387ZM21.4717 8.41699V8.30469C21.4717 7.92383 21.527 7.57064 21.6377 7.24512C21.7484 6.91634 21.9079 6.63151 22.1162 6.39062C22.3278 6.14648 22.585 5.95768 22.8877 5.82422C23.1937 5.6875 23.5387 5.61914 23.9229 5.61914C24.3102 5.61914 24.6553 5.6875 24.958 5.82422C25.264 5.95768 25.5228 6.14648 25.7344 6.39062C25.946 6.63151 26.1071 6.91634 26.2178 7.24512C26.3285 7.57064 26.3838 7.92383 26.3838 8.30469V8.41699C26.3838 8.79785 26.3285 9.15104 26.2178 9.47656C26.1071 9.80208 25.946 10.0869 25.7344 10.3311C25.5228 10.5719 25.2656 10.7607 24.9629 10.8975C24.6602 11.0309 24.3167 11.0977 23.9326 11.0977C23.5452 11.0977 23.1986 11.0309 22.8926 10.8975C22.5898 10.7607 22.3327 10.5719 22.1211 10.3311C21.9095 10.0869 21.7484 9.80208 21.6377 9.47656C21.527 9.15104 21.4717 8.79785 21.4717 8.41699ZM22.6484 8.30469V8.41699C22.6484 8.65462 22.6729 8.87923 22.7217 9.09082C22.7705 9.30241 22.847 9.48796 22.9512 9.64746C23.0553 9.80697 23.1888 9.93229 23.3516 10.0234C23.5143 10.1146 23.708 10.1602 23.9326 10.1602C24.1507 10.1602 24.3395 10.1146 24.499 10.0234C24.6618 9.93229 24.7952 9.80697 24.8994 9.64746C25.0036 9.48796 25.0801 9.30241 25.1289 9.09082C25.181 8.87923 25.207 8.65462 25.207 8.41699V8.30469C25.207 8.07031 25.181 7.84896 25.1289 7.64062C25.0801 7.42904 25.002 7.24186 24.8945 7.0791C24.7904 6.91634 24.6569 6.78939 24.4941 6.69824C24.3346 6.60384 24.1442 6.55664 23.9229 6.55664C23.7015 6.55664 23.5094 6.60384 23.3467 6.69824C23.1872 6.78939 23.0553 6.91634 22.9512 7.0791C22.847 7.24186 22.7705 7.42904 22.7217 7.64062C22.6729 7.84896 22.6484 8.07031 22.6484 8.30469ZM30.7539 5.7168H31.8232V10.8535C31.8232 11.3288 31.7223 11.7324 31.5205 12.0645C31.3187 12.3965 31.0371 12.6488 30.6758 12.8213C30.3145 12.9971 29.8962 13.085 29.4209 13.085C29.2191 13.085 28.9945 13.0557 28.7471 12.9971C28.5029 12.9385 28.2653 12.8441 28.0342 12.7139C27.8063 12.5869 27.6159 12.4193 27.4629 12.2109L28.0146 11.5176C28.2035 11.7422 28.4118 11.9066 28.6396 12.0107C28.8675 12.1149 29.1068 12.167 29.3574 12.167C29.6276 12.167 29.8571 12.1165 30.0459 12.0156C30.238 11.918 30.3861 11.7731 30.4902 11.5811C30.5944 11.389 30.6465 11.1546 30.6465 10.8779V6.91309L30.7539 5.7168ZM27.165 8.41699V8.31445C27.165 7.91406 27.2139 7.54948 27.3115 7.2207C27.4092 6.88867 27.5492 6.60384 27.7314 6.36621C27.9137 6.12533 28.1351 5.94141 28.3955 5.81445C28.6559 5.68424 28.9505 5.61914 29.2793 5.61914C29.6211 5.61914 29.9124 5.68099 30.1533 5.80469C30.3975 5.92839 30.6009 6.10579 30.7637 6.33691C30.9264 6.56478 31.0534 6.83822 31.1445 7.15723C31.2389 7.47298 31.3089 7.82454 31.3545 8.21191V8.53906C31.3122 8.91667 31.2406 9.26172 31.1396 9.57422C31.0387 9.88672 30.9053 10.1569 30.7393 10.3848C30.5732 10.6126 30.3682 10.7884 30.124 10.9121C29.8831 11.0358 29.5983 11.0977 29.2695 11.0977C28.9473 11.0977 28.6559 11.0309 28.3955 10.8975C28.1383 10.764 27.917 10.5768 27.7314 10.3359C27.5492 10.0951 27.4092 9.81185 27.3115 9.48633C27.2139 9.15755 27.165 8.80111 27.165 8.41699ZM28.3418 8.31445V8.41699C28.3418 8.65788 28.3646 8.88249 28.4102 9.09082C28.459 9.29915 28.5322 9.48307 28.6299 9.64258C28.7308 9.79883 28.8577 9.92253 29.0107 10.0137C29.167 10.1016 29.3509 10.1455 29.5625 10.1455C29.8392 10.1455 30.0654 10.0869 30.2412 9.96973C30.4202 9.85254 30.557 9.69466 30.6514 9.49609C30.749 9.29427 30.8174 9.06966 30.8564 8.82227V7.93848C30.8369 7.74642 30.7962 7.56738 30.7344 7.40137C30.6758 7.23535 30.596 7.09049 30.4951 6.9668C30.3942 6.83984 30.2673 6.74219 30.1143 6.67383C29.9613 6.60221 29.7806 6.56641 29.5723 6.56641C29.3607 6.56641 29.1768 6.61198 29.0205 6.70312C28.8643 6.79427 28.7357 6.9196 28.6348 7.0791C28.5371 7.23861 28.4639 7.42415 28.415 7.63574C28.3662 7.84733 28.3418 8.07357 28.3418 8.31445ZM34.3037 5.7168V11H33.1221V5.7168H34.3037ZM33.0439 4.33008C33.0439 4.15104 33.1025 4.00293 33.2197 3.88574C33.3402 3.7653 33.5062 3.70508 33.7178 3.70508C33.9261 3.70508 34.0905 3.7653 34.2109 3.88574C34.3314 4.00293 34.3916 4.15104 34.3916 4.33008C34.3916 4.50586 34.3314 4.65234 34.2109 4.76953C34.0905 4.88672 33.9261 4.94531 33.7178 4.94531C33.5062 4.94531 33.3402 4.88672 33.2197 4.76953C33.1025 4.65234 33.0439 4.50586 33.0439 4.33008ZM36.7598 6.84473V11H35.583V5.7168H36.6914L36.7598 6.84473ZM36.5498 8.16309L36.1689 8.1582C36.1722 7.78385 36.2243 7.44043 36.3252 7.12793C36.4294 6.81543 36.5726 6.54688 36.7549 6.32227C36.9404 6.09766 37.1618 5.92513 37.4189 5.80469C37.6761 5.68099 37.9626 5.61914 38.2783 5.61914C38.5322 5.61914 38.7617 5.65495 38.9668 5.72656C39.1751 5.79492 39.3525 5.90723 39.499 6.06348C39.6488 6.21973 39.7627 6.42318 39.8408 6.67383C39.9189 6.92122 39.958 7.22559 39.958 7.58691V11H38.7764V7.58203C38.7764 7.32812 38.7389 7.12793 38.6641 6.98145C38.5924 6.83171 38.4867 6.72591 38.3467 6.66406C38.21 6.59896 38.0391 6.56641 37.834 6.56641C37.6322 6.56641 37.4515 6.60872 37.292 6.69336C37.1325 6.77799 36.9974 6.89355 36.8867 7.04004C36.7793 7.18652 36.6963 7.35579 36.6377 7.54785C36.5791 7.73991 36.5498 7.94499 36.5498 8.16309Z" fill="white"/>
</svg>
