<svg width="1200" height="700" viewBox="0 0 1200 700" fill="none" xmlns="http://www.w3.org/2000/svg">
<mask id="mask0_231_10740" style="mask-type:luminance" maskUnits="userSpaceOnUse" x="0" y="0" width="1200" height="700">
<rect width="1200" height="700" fill="white"/>
</mask>
<g mask="url(#mask0_231_10740)">
<rect width="1200" height="700" fill="#458AFF"/>
<path fill-rule="evenodd" clip-rule="evenodd" d="M238 224C155.555 248.47 136 323.5 79.0004 334.254C-42.4377 357.164 -44.4141 301.5 -44.4141 301.5V787.966H1250.17C1250.17 517.5 1244 400.253 1244 87.5001C1150.62 48.4877 1114.5 142.5 973 157.5C876.882 167.689 826.5 89.0716 681 96C535.5 102.928 527 181 438 209C349 237 347.5 191.5 238 224Z" fill="#3379FF"/>
<path fill-rule="evenodd" clip-rule="evenodd" d="M-32.4203 457C-32.4203 457 26.5001 522.5 95.5001 558C164.5 593.5 247.671 525.077 320 512.5C415 495.981 432 558 547 558C681.5 558 736.5 440 858 491C979.5 542 1004.5 620.5 1104 620.5C1203.5 620.5 1233 534.5 1285 604C1337 673.5 1226.5 752 1226.5 752H-32.4203V457Z" fill="#3162FF"/>
</g>
</svg>
