<?xml version="1.0" encoding="UTF-8"?>
<svg width="64px" height="64px" viewBox="0 0 64 64" version="1.1" xmlns="http://www.w3.org/2000/svg" xmlns:xlink="http://www.w3.org/1999/xlink">
    <title>Icon___Fill___Aelf</title>
    <g id="aaaa" stroke="none" stroke-width="1" fill="none" fill-rule="evenodd">
        <g id="aaaa" transform="translate(-156.000000, -216.000000)">
            <g id="Icon___Fill___Aelf" transform="translate(156.000000, 216.000000)">
                <rect id="Rectangle" fill="#FFFFFF" opacity="0" x="0" y="0" width="64" height="64"></rect>
                <path d="M28.9302944,11.6409802 C20.3673321,15.3971933 14.9819675,24.5839113 18.1171607,33.7131781 C20.0130498,39.2339634 23.8335536,43.1680016 29.4993347,45.1787931 C39.4069283,48.6956263 49.7495094,40.9629705 48.5895426,30.9117489 C48.0971039,26.639843 45.9276377,23.3870116 41.521679,22.0410125 C38.2442257,21.0397204 35.1076646,21.5075372 32.5483511,23.8890256 C30.3761492,25.9080243 29.5526822,28.3948399 30.4226573,31.2851816 C30.9027851,32.8746644 32.0559124,33.8636455 33.6248769,34.335566 C35.0023375,34.7486673 36.0679201,34.1509014 36.8886513,33.0073493 C36.7231372,32.7310364 36.5781414,32.4287338 36.3770622,32.1688356 C35.306008,30.7845356 36.1746152,28.7710084 37.1006736,27.9324947 C38.3591281,26.7930462 40.3972773,26.6890869 41.736437,27.6329278 C43.9086389,29.1608557 44.8962522,33.2248431 43.7157671,35.7745813 C41.7405407,40.0396479 36.6615824,42.5223598 32.001197,41.314517 C24.6433417,39.4076848 21.0157098,32.1428457 23.3903587,25.1201224 C26.5460702,15.7884085 37.1526532,11.7066387 46.1916396,16.1823595 C53.4988831,19.7990484 56.2113997,26.114575 55.9200402,33.6324729 C55.4426482,46.0104674 42.9524871,55.1930817 30.4281289,52.8061218 C18.281307,50.4916598 9.261471,38.8605307 9.90848077,27.8613646 C10.1464928,23.800113 11.050665,19.9973918 13.1284829,16.5079162 C18.5343658,7.43336485 26.955068,3.1628268 37.4877851,2.4720447 C40.2604887,2.29011595 43.0564464,2.44468699 45.697833,2.44605488 C45.5528371,2.38176427 45.2218089,2.21898591 44.8771018,2.09040469 C39.7338529,0.164422122 34.4182504,-0.449758398 28.971331,0.327200478 C25.594022,0.743037624 22.4766113,1.65541715 19.6423529,2.96037977 C19.5903733,2.96858708 19.5288184,2.98636959 19.4535847,3.01783095 C18.1787156,3.56088144 17.9653255,2.31337 17.5125554,1.93583365 C17.0720963,1.56924037 17.1295475,2.02474619 17.1295475,2.02474619 C17.5139233,3.8536089 16.550932,4.5908991 16.4209829,4.68117954 C15.6180342,5.17772192 14.8479148,5.71393297 14.1037851,6.27750173 C14.081899,6.28707693 14.0654843,6.28707693 14.0422303,6.29802001 C12.2844976,7.09960083 11.5540468,5.74539433 10.7456266,5.33366085 C9.89069826,4.89867331 10.2135192,5.61270946 10.2135192,5.61270946 C11.2722625,7.71651712 10.3585151,9.51665423 10.1875294,9.82032478 C9.43792821,10.628745 8.73620303,11.4782018 8.07961807,12.3604879 C8.0112238,12.4042602 7.94419742,12.4452968 7.86622795,12.5150589 C6.13995664,14.0758161 4.79669323,12.8406156 3.72974266,12.6080751 C2.55336127,12.3536484 3.21952143,13.1237679 3.21952143,13.1237679 C5.39582702,15.3520531 4.70778069,18.0317405 4.70778069,18.0317405 L4.71325223,18.0344763 C1.91729458,24.0764259 0.913266736,31.0690558 2.0746014,38.0890433 C5.8923694,61.1639013 34.2746224,72.0618438 52.879231,57.1970337 C58.9211806,52.3697664 63.1123813,43.0708818 63.5542083,35.3778946 C63.8688219,29.9145605 62.1794835,24.9559761 59.0648086,20.4665764 C52.4565545,10.9406229 39.2482536,7.11464757 28.9302944,11.6409802" id="Shape" fill="#5B8EF4"></path>
            </g>
        </g>
    </g>
</svg>