<svg width="20" height="21" viewBox="0 0 20 21" fill="none" xmlns="http://www.w3.org/2000/svg">
<path d="M12.1226 1.10881C12.3977 0.939296 12.7505 0.965087 12.9981 1.17282L18.6648 5.92777C18.9122 6.13533 18.9989 6.47792 18.8801 6.77819C18.7614 7.07845 18.4637 7.26899 18.1413 7.25116L16.3499 7.1521L13.9713 12.4799C14.377 13.2182 14.6508 13.9651 14.6833 14.7254C14.7223 15.6356 14.4125 16.4779 13.7543 17.2624C13.6265 17.4147 13.4433 17.5101 13.2451 17.5274C13.047 17.5448 12.8501 17.4827 12.6977 17.3548L9.29661 14.501L2.7699 20.2703C2.49199 20.516 2.07625 20.5216 1.7918 20.2836C1.50736 20.0455 1.43967 19.6352 1.63255 19.3184L6.16499 11.8732L2.78124 9.03394C2.46393 8.76769 2.42216 8.29431 2.6884 7.977C3.34927 7.18937 4.15017 6.73003 5.05929 6.60391C5.82005 6.49836 6.60187 6.63352 7.37586 6.92293L12.199 3.6699L11.786 1.91957C11.7118 1.60503 11.8474 1.27833 12.1226 1.10881ZM4.39284 8.42813L7.62276 11.1383C7.90663 11.3765 7.97399 11.7863 7.78129 12.1029L5.49369 15.8606L8.78714 12.9493C9.06531 12.7034 9.48154 12.698 9.76595 12.9367L13.0154 15.6633C13.1496 15.3653 13.197 15.0779 13.1847 14.7896C13.1625 14.2711 12.9432 13.664 12.4885 12.9109C12.3616 12.7007 12.3456 12.4417 12.4457 12.2175L15.1908 6.06897C15.3176 5.78497 15.6065 5.6087 15.917 5.62587L15.9753 5.62909L13.7648 3.77426L13.7779 3.82975C13.8495 4.13325 13.7258 4.44939 13.4673 4.62376L7.8832 8.39004C7.6698 8.53398 7.3975 8.55842 7.16188 8.45479C6.41712 8.12725 5.78862 8.01709 5.26541 8.08968C4.96512 8.13134 4.67404 8.23648 4.39284 8.42813Z" fill="#515A62"/>
</svg>
