<svg width="20" height="20" viewBox="0 0 20 20" fill="none" xmlns="http://www.w3.org/2000/svg">
<path d="M10.0762 8.35107C11.733 8.35107 13.0762 7.00793 13.0762 5.35107C13.0762 3.69422 11.733 2.35107 10.0762 2.35107C8.41931 2.35107 7.07617 3.69422 7.07617 5.35107C7.07617 7.00793 8.41931 8.35107 10.0762 8.35107Z" stroke="#5B8EF4" stroke-width="1.5" stroke-linejoin="round"/>
<path d="M10.071 16.8H2.5078C2.5078 13.5967 5.89395 11 10.071 11C10.3302 11 10.5864 11.01 10.8389 11.0295" stroke="#5B8EF4" stroke-width="1.5" stroke-linecap="round" stroke-linejoin="round"/>
<path d="M14.732 16.8665C15.9647 16.8665 16.9639 15.8672 16.9639 14.6346C16.9639 13.4019 15.9647 12.4026 14.732 12.4026C13.4993 12.4026 12.5 13.4019 12.5 14.6346C12.5 15.8672 13.4993 16.8665 14.732 16.8665Z" stroke="#5B8EF4" stroke-width="1.5" stroke-linejoin="round"/>
<path d="M16.5918 16.1223L18.4775 17.8752" stroke="#5B8EF4" stroke-width="1.5" stroke-linecap="round" stroke-linejoin="round"/>
</svg>
