<svg width="21" height="20" viewBox="0 0 21 20" fill="none" xmlns="http://www.w3.org/2000/svg">
<path d="M6.82617 5.35107C6.82617 3.28001 8.5051 1.60107 10.5762 1.60107C12.6472 1.60107 14.3262 3.28001 14.3262 5.35107C14.3262 7.42214 12.6472 9.10107 10.5762 9.10107C8.5051 9.10107 6.82617 7.42214 6.82617 5.35107ZM10.5762 3.10107C9.33353 3.10107 8.32617 4.10843 8.32617 5.35107C8.32617 6.59372 9.33353 7.60107 10.5762 7.60107C11.8188 7.60107 12.8262 6.59372 12.8262 5.35107C12.8262 4.10843 11.8188 3.10107 10.5762 3.10107ZM5.21973 11.8989C5.63394 11.8989 5.96973 12.2347 5.96973 12.6489V14.3989H7.71973C8.13394 14.3989 8.46973 14.7347 8.46973 15.1489C8.46973 15.5631 8.13394 15.8989 7.71973 15.8989H5.96973V17.6489C5.96973 18.0631 5.63394 18.3989 5.21973 18.3989C4.80551 18.3989 4.46973 18.0631 4.46973 17.6489V15.8989H2.71973C2.30551 15.8989 1.96973 15.5631 1.96973 15.1489C1.96973 14.7347 2.30551 14.3989 2.71973 14.3989H4.46973V12.6489C4.46973 12.2347 4.80551 11.8989 5.21973 11.8989ZM9.16709 11.9652C9.7802 11.8255 10.4313 11.75 11.1071 11.75C14.6295 11.75 17.2721 13.7318 17.748 16.05H10.0004C9.58619 16.05 9.25041 16.3858 9.25041 16.8C9.25041 17.2142 9.58619 17.55 10.0004 17.55H18.5748C18.9891 17.55 19.3248 17.2142 19.3248 16.8C19.3248 13.0172 15.4582 10.25 11.1071 10.25C10.3198 10.25 9.55685 10.3379 8.83373 10.5027C8.42987 10.5948 8.17711 10.9968 8.26916 11.4007C8.36122 11.8045 8.76323 12.0573 9.16709 11.9652Z" fill="#515A62"/>
</svg>
