<svg width="16" height="16" viewBox="0 0 16 16" fill="none" xmlns="http://www.w3.org/2000/svg">
<g id="Contract">
<path id="shape" fill-rule="evenodd" clip-rule="evenodd" d="M8 16C3.58172 16 0 12.4183 0 8C0 3.58172 3.58172 0 8 0C12.4183 0 16 3.58172 16 8C16 12.4183 12.4183 16 8 16ZM8 15.2C11.9764 15.2 15.2 11.9764 15.2 8C15.2 4.02355 11.9764 0.8 8 0.8C4.02355 0.8 0.8 4.02355 0.8 8C0.8 11.9765 4.02355 15.2 8 15.2ZM6.94456 9.19556C6.96294 9.17718 6.96294 9.14739 6.94456 9.12902L5.63719 7.82234C5.44104 7.62629 5.12313 7.62626 4.92695 7.82229C4.73062 8.01846 4.73056 8.33666 4.92681 8.53291L5.55618 9.16228L4.92696 9.79151C4.73064 9.98783 4.73074 10.3062 4.92718 10.5023C5.12343 10.6983 5.44136 10.6983 5.63751 10.5022L6.94456 9.19556ZM11.6814 10.3346C11.6814 10.0571 11.4565 9.83219 11.179 9.83219H8.22411C7.94663 9.83219 7.72168 10.0571 7.72168 10.3346C7.72168 10.6121 7.94663 10.837 8.22411 10.837H11.179C11.4565 10.837 11.6814 10.6121 11.6814 10.3346ZM11.6814 7.98995C11.6814 7.71247 11.4565 7.48752 11.179 7.48752H8.22411C7.94663 7.48752 7.72168 7.71247 7.72168 7.98995C7.72168 8.26744 7.94663 8.49238 8.22411 8.49238H11.179C11.4565 8.49238 11.6814 8.26744 11.6814 7.98995ZM11.7143 5.64529C11.7143 5.3678 11.4893 5.14286 11.2119 5.14286H5.18041C4.90292 5.14286 4.67798 5.3678 4.67798 5.64529C4.67798 5.92277 4.90292 6.14771 5.18041 6.14771H11.2119C11.4893 6.14771 11.7143 5.92277 11.7143 5.64529Z" fill="#5B8EF4"/>
</g>
</svg>
