<svg width="53" height="53" viewBox="0 0 53 53" fill="none" xmlns="http://www.w3.org/2000/svg">
<rect x="0.333313" y="0.461548" width="52" height="52" rx="6" fill="white"/>
<path d="M21.8488 20.6773V18.3678C21.8488 17.5911 22.3621 16.9615 22.9954 16.9615H32.9325C33.5658 16.9615 34.0791 17.5911 34.0791 18.3678V30.5553C34.0791 31.3319 33.5658 31.9615 32.9325 31.9615H31.0282" stroke="#25272A" stroke-width="1.8" stroke-linecap="round" stroke-linejoin="round"/>
<path d="M29.6712 20.9615H19.734C19.1008 20.9615 18.5874 21.5911 18.5874 22.3678V34.5553C18.5874 35.3319 19.1008 35.9615 19.734 35.9615H29.6712C30.3044 35.9615 30.8178 35.3319 30.8178 34.5553V22.3678C30.8178 21.5911 30.3044 20.9615 29.6712 20.9615Z" stroke="#25272A" stroke-width="1.8" stroke-linejoin="round"/>
</svg>
