<svg width="36" height="36" viewBox="0 0 36 36" fill="none" xmlns="http://www.w3.org/2000/svg">
<circle cx="18" cy="18" r="18" fill="#E7F0FC"/>
<path fill-rule="evenodd" clip-rule="evenodd" d="M19.061 19.0972L27 12.5023V23.3507C26.9882 24.1677 26.3164 24.8206 25.4993 24.8092H10.4986C10.1065 24.8145 9.72826 24.6639 9.44721 24.3903C9.16615 24.1168 9.00528 23.7428 9 23.3507V12.5023L16.9395 19.0972C17.532 19.6661 18.468 19.6661 19.061 19.0972Z" fill="#5B8EF4"/>
<path opacity="0.4" fill-rule="evenodd" clip-rule="evenodd" d="M18.5487 17.9113C18.2351 18.2124 17.7397 18.2124 17.4261 17.9113L9.67114 11.4954C9.91837 11.334 10.2075 11.2487 10.5027 11.25H25.5014C25.7864 11.2525 26.0651 11.3338 26.3067 11.4851H26.3129L18.5487 17.9113Z" fill="#5B8EF4"/>
</svg>
