
<svg width="14px" height="14px" viewBox="0 0 14 14" version="1.1" xmlns="http://www.w3.org/2000/svg" xmlns:xlink="http://www.w3.org/1999/xlink">
    <title>gjgrrybzwe</title>
    <g id="zqgipgbdvy" stroke="none" stroke-width="1" fill="none" fill-rule="evenodd">
        <g id="bfkjqymory" transform="translate(-1.000000, -1.000000)">
            <rect id="hlkwefinrf" x="0" y="0" width="16" height="16"></rect>
            <path d="M8,1 C4.134375,1 1,4.134375 1,8 C1,11.865625 4.134375,15 8,15 C11.865625,15 15,11.865625 15,8 C15,4.134375 11.865625,1 8,1 Z M10.584375,10.659375 L9.553125,10.6546875 L8,8.803125 L6.4484375,10.653125 L5.415625,10.6578125 C5.346875,10.6578125 5.290625,10.603125 5.290625,10.5328125 C5.290625,10.503125 5.3015625,10.475 5.3203125,10.4515625 L7.353125,8.0296875 L5.3203125,5.609375 C5.3015625,5.5859375 5.290625,5.5578125 5.290625,5.528125 C5.290625,5.459375 5.346875,5.403125 5.415625,5.403125 L6.4484375,5.4078125 L8,7.259375 L9.5515625,5.409375 L10.5828125,5.4046875 C10.6515625,5.4046875 10.7078125,5.459375 10.7078125,5.5296875 C10.7078125,5.559375 10.696875,5.5875 10.678125,5.6109375 L8.6484375,8.03125 L10.6796875,10.453125 C10.6984375,10.4765625 10.709375,10.5046875 10.709375,10.534375 C10.709375,10.603125 10.653125,10.659375 10.584375,10.659375 Z" id="xrjolpccqw" fill="#B34B4B"></path>
        </g>
    </g>
</svg>