<svg width="36" height="36" viewBox="0 0 36 36" fill="none" xmlns="http://www.w3.org/2000/svg">
<rect x="0.25" y="0.25" width="35.5" height="35.5" rx="17.75" fill="#F7F7F9"/>
<path d="M12.1852 18C12.1852 17.3506 12.2961 16.7275 12.4922 16.1437L9.04887 13.5698C8.35705 14.9441 7.99779 16.4615 8.00001 18C8.00001 19.5921 8.37692 21.0938 9.04717 22.4268L12.4888 19.8486C12.2881 19.2529 12.1856 18.6286 12.1852 18Z" fill="#FBBC05"/>
<path d="M18.2328 12.091C19.6739 12.091 20.976 12.5905 21.9993 13.4087L24.9762 10.4998C23.1624 8.95457 20.837 8 18.2328 8C14.1891 8 10.7134 10.2628 9.04883 13.5698L12.4939 16.1437C13.2869 13.7862 15.5484 12.091 18.2328 12.091Z" fill="#EA4335"/>
<path d="M18.2328 23.909C15.5475 23.909 13.2861 22.2137 12.4922 19.8563L9.04883 22.4302C10.7125 25.7371 14.1882 28 18.2328 28C20.7279 28 23.1104 27.1332 24.8994 25.5079L21.63 23.0345C20.7082 23.603 19.5468 23.909 18.2319 23.909" fill="#34A853"/>
<path d="M28 18C28 17.4093 27.9062 16.7727 27.7672 16.182H18.2319V20.0455H23.7201C23.4464 21.3632 22.6994 22.3757 21.6309 23.0345L24.8994 25.5079C26.778 23.8016 28 21.26 28 18Z" fill="#4285F4"/>
<rect x="0.25" y="0.25" width="35.5" height="35.5" rx="17.75" stroke="#DEE2E8" stroke-width="0.5"/>
</svg>
