
<svg width="48px" height="48px" viewBox="0 0 48 48" version="1.1" xmlns="http://www.w3.org/2000/svg" xmlns:xlink="http://www.w3.org/1999/xlink">
    <title>vsdccgmdvr</title>
    <g id="zznzkqzuqe" stroke="none" stroke-width="1" fill="none" fill-rule="evenodd">
        <g id="slwgknfrto" transform="translate(-16.000000, -283.000000)">
            <g id="sllupchegt" transform="translate(0.000000, 271.000000)">
                <g id="uckrsyibmx" transform="translate(16.000000, 12.000000)">
                    <rect id="yxryywmbbe" x="0" y="0" width="48" height="48"></rect>
                    <circle id="pszdhvtsir" fill="#266CD3" cx="24" cy="24" r="24"></circle>
                    <path d="M24.9912017,32.4975265 C26.6211247,32.4975265 27.9424384,33.8188402 27.9424384,35.4487633 C27.9424384,37.0786863 26.6211247,38.4 24.9912017,38.4 C23.3612786,38.4 22.0399649,37.0786863 22.0399649,35.4487633 C22.0399649,33.8188402 23.3612786,32.4975265 24.9912017,32.4975265 Z M25.8562193,26.4424028 C26.2124031,27.3583039 25.7035692,28.4268551 24.7876681,28.7321555 C24.4314844,28.8657244 24.0753006,28.8824205 23.7191169,28.7822438 L23.5664667,28.7321555 C22.7523324,28.4777385 21.8364314,28.4777385 20.9714137,28.7830389 C19.7741574,29.2140511 18.9374865,30.1408684 18.5462447,31.224116 L18.4781275,31.4289753 L18.4272441,31.530742 C18.4272441,31.5816254 18.4272441,31.6325088 18.3763607,31.6325088 L18.3763607,31.7342756 C18.0201769,33.1590106 17.0533925,34.380212 15.5777741,34.8890459 C13.2880215,35.804947 10.7438518,34.634629 9.87883418,32.2939929 C9.01381651,30.0042403 10.2350179,27.4091873 12.5247706,26.5441696 C13.9749473,26.0124382 15.5169685,26.2613852 16.6709465,27.116506 L16.8498589,27.2565371 C17.9184102,28.019788 19.2922617,28.2742049 20.6152299,27.765371 C21.4016096,27.4878252 22.0197798,27.0000175 22.4697404,26.3784067 L22.5996822,26.1879859 L22.6505656,26.0862191 C22.8540992,25.7809187 23.1593996,25.4756184 23.5664667,25.3738516 C24.4823678,25.0176678 25.550919,25.5265018 25.8562193,26.4424028 Z M32.3184102,17.9957597 C35.6344605,17.9957597 38.3226504,20.6839497 38.3226504,24 C38.3226504,27.3160503 35.6344605,30.0042403 32.3184102,30.0042403 C29.0023598,30.0042403 26.3141699,27.3160503 26.3141699,24 C26.3141699,20.6839497 29.0023598,17.9957597 32.3184102,17.9957597 Z M9.87883418,15.7060071 C10.6929685,13.365371 13.2880215,12.195053 15.5777741,13.1109541 C17.0533925,13.619788 18.0201769,14.8409894 18.3763607,16.2657244 L18.3763607,16.2657244 L18.3763607,16.3674912 C18.4272441,16.3674912 18.4272441,16.4183746 18.4272441,16.469258 L18.4272441,16.469258 L18.4781275,16.5710247 L18.5462447,16.775884 C18.9374865,17.8591316 19.7741574,18.7859489 20.9714137,19.2169611 C21.8364314,19.5222615 22.7523324,19.5222615 23.5664667,19.2678445 L23.5664667,19.2678445 L23.7191169,19.2177562 C24.0753006,19.1175795 24.4314844,19.1342756 24.7876681,19.2678445 C25.7035692,19.5731449 26.2124031,20.6416961 25.8562193,21.5575972 C25.550919,22.4734982 24.4823678,22.9823322 23.5664667,22.6261484 C23.1593996,22.5243816 22.8540992,22.2190813 22.6505656,21.9137809 L22.6505656,21.9137809 L22.5996822,21.8120141 L22.4697404,21.6215933 C22.0197798,20.9999825 21.4016096,20.5121748 20.6152299,20.234629 C19.2922617,19.7257951 17.9184102,19.980212 16.8498589,20.7434629 L16.8498589,20.7434629 L16.6709465,20.883494 C15.5169685,21.7386148 13.9749473,21.9875618 12.5247706,21.4558304 C10.2350179,20.5908127 9.01381651,17.9957597 9.87883418,15.7060071 Z M24.9912017,9.6 C26.6211247,9.6 27.9424384,10.9213137 27.9424384,12.5512367 C27.9424384,14.1811598 26.6211247,15.5024735 24.9912017,15.5024735 C23.3612786,15.5024735 22.0399649,14.1811598 22.0399649,12.5512367 C22.0399649,10.9213137 23.3612786,9.6 24.9912017,9.6 Z" id="qxelmetogg" fill="#FFFFFF" fill-rule="nonzero"></path>
                </g>
            </g>
        </g>
    </g>
</svg>