
<svg width="22px" height="22px" viewBox="0 0 22 22" version="1.1" xmlns="http://www.w3.org/2000/svg" xmlns:xlink="http://www.w3.org/1999/xlink">
    <title>rokdjfskko</title>
    <g id="cllehrnftq" stroke="none" stroke-width="1" fill="none" fill-rule="evenodd">
        <g id="tehkgtpsvn" transform="translate(-177.000000, -737.000000)" fill="#B6BABF">
            <g id="omvbupywqh" transform="translate(0.000000, 729.000000)">
                <g id="scmexmdktk" transform="translate(177.916667, 8.916667)">
                    <path d="M10.0833333,0 C15.6521062,0 20.1666667,4.51456041 20.1666667,10.0833333 C20.1666667,15.6521063 15.6521062,20.1666667 10.0833333,20.1666667 C4.51456043,20.1666667 0,15.6521062 0,10.0833333 C0,4.51456043 4.51456043,0 10.0833333,0 Z M13.6084667,5.26778543 L8.48008333,7.11404374 C7.84387928,7.34314422 7.34302682,7.84408911 7.11404374,8.48033543 L5.26778543,13.6084667 C5.13536825,13.976018 5.22718287,14.3869835 5.50343302,14.6632336 C5.77968317,14.9394838 6.19064866,15.0312984 6.55819999,14.8988812 L11.6865833,13.0526229 C12.3227874,12.8235224 12.8236398,12.3225776 13.0526229,11.6863312 L14.8988812,6.55819999 C15.0312984,6.19064866 14.9394838,5.77968317 14.6632336,5.50343302 C14.3869835,5.22718287 13.976018,5.13536825 13.6084667,5.26778543 L13.6084667,5.26778543 Z M10.0833333,11.34375 C10.7794422,11.34375 11.34375,10.7794422 11.34375,10.0833333 C11.34375,9.38722443 10.7794422,8.82291668 10.0833333,8.82291668 C9.38722446,8.82291668 8.82291673,9.38722446 8.82291673,10.0833333 C8.82291673,10.7794422 9.38722446,11.34375 10.0833333,11.34375 L10.0833333,11.34375 Z" id="kcwydohfjd"></path>
                </g>
            </g>
        </g>
    </g>
</svg>