<svg width="20" height="20" viewBox="0 0 20 20" fill="none" xmlns="http://www.w3.org/2000/svg">
<g id="Network">
<path id="Union" d="M11.452 15.5178C12.0185 14.3251 12.4259 12.6367 12.5046 10.6894H7.33955C7.41826 12.6367 7.82558 14.3251 8.39216 15.5178C9.03261 16.8661 9.6358 17.153 9.87473 17.1864C9.90376 17.1869 9.93284 17.1872 9.96196 17.1874C10.1956 17.159 10.8048 16.8803 11.452 15.5178ZM12.4963 9.12941C12.4003 7.25865 12.0009 5.63778 11.452 4.48216C10.8047 3.11962 10.1956 2.84101 9.96193 2.8126C9.93283 2.81275 9.90378 2.81307 9.87476 2.81357C9.63587 2.84693 9.03265 3.13381 8.39216 4.48216C7.84323 5.63778 7.44379 7.25865 7.34785 9.12941H12.4963ZM14.0657 10.6894C13.9764 13.1015 13.4225 15.2391 12.5922 16.7059C15.0761 15.745 16.8927 13.4438 17.1549 10.6894H14.0657ZM17.1353 9.12941C16.8125 6.45554 15.0215 4.23384 12.5922 3.29414C13.4016 4.72408 13.9484 6.79155 14.0581 9.12941H17.1353ZM5.786 9.12941C5.89363 6.83555 6.42204 4.802 7.2065 3.37555C4.87998 4.35784 3.17855 6.52995 2.86469 9.12941H5.786ZM2.84514 10.6894C3.10012 13.3689 4.82613 15.6194 7.2065 16.6244C6.40145 15.1606 5.86606 13.0573 5.7784 10.6894H2.84514ZM9.92206 1.25L9.94716 1.25016L10 1.25C14.8325 1.25 18.75 5.16751 18.75 10C18.75 14.8325 14.8325 18.75 10 18.75L9.94742 18.7498L9.92206 18.75C9.89842 18.75 9.87482 18.7496 9.85128 18.7488C5.08739 18.6694 1.25 14.7828 1.25 10C1.25 5.21709 5.08753 1.33049 9.85153 1.25123C9.875 1.25041 9.8985 1.25 9.92206 1.25Z" fill="#55585E"/>
</g>
</svg>
