<svg width="18" height="18" viewBox="0 0 18 18" fill="none" xmlns="http://www.w3.org/2000/svg">
<path fill-rule="evenodd" clip-rule="evenodd" d="M10.452 14.5178C9.80476 15.8803 9.19562 16.159 8.96196 16.1874C8.93284 16.1872 8.90376 16.1869 8.87473 16.1864C8.6358 16.153 8.03261 15.8661 7.39216 14.5178C6.82558 13.3251 6.41826 11.6367 6.33955 9.68941H11.5046C11.4259 11.6367 11.0185 13.3251 10.452 14.5178ZM11.4963 8.12941H6.34785C6.44379 6.25865 6.84323 4.63778 7.39216 3.48216C8.03265 2.13381 8.63587 1.84693 8.87476 1.81357C8.90378 1.81307 8.93283 1.81275 8.96193 1.8126C9.19555 1.84101 9.80472 2.11962 10.452 3.48216C11.0009 4.63778 11.4003 6.25865 11.4963 8.12941ZM13.0657 9.68941C12.9764 12.1015 12.4225 14.2391 11.5922 15.7059C14.0761 14.745 15.8927 12.4438 16.1549 9.68941H13.0657ZM16.1353 8.12941H13.0581C12.9484 5.79155 12.4016 3.72408 11.5922 2.29414C14.0215 3.23384 15.8125 5.45554 16.1353 8.12941ZM4.786 8.12941C4.89363 5.83555 5.42204 3.802 6.2065 2.37555C3.87998 3.35784 2.17855 5.52995 1.86469 8.12941H4.786ZM1.84514 9.68941C2.10012 12.3689 3.82613 14.6194 6.2065 15.6244C5.40145 14.1606 4.86606 12.0573 4.7784 9.68941H1.84514ZM8.92206 0.25L8.94716 0.250156L9 0.25C13.8325 0.25 17.75 4.16751 17.75 9C17.75 13.8325 13.8325 17.75 9 17.75L8.94742 17.7498L8.92206 17.75C8.89842 17.75 8.87482 17.7496 8.85128 17.7488C4.08739 17.6694 0.25 13.7828 0.25 9C0.25 4.21709 4.08753 0.330491 8.85153 0.251234C8.875 0.250412 8.8985 0.25 8.92206 0.25Z" fill="#55585E"/>
</svg>
