<svg width="17" height="16" viewBox="0 0 17 16" fill="none" xmlns="http://www.w3.org/2000/svg">
<g id="interactive-more">
<g id="Union">
<path d="M4.7999 8.00009C4.7999 8.66284 4.26264 9.20009 3.5999 9.20009C2.93716 9.20009 2.3999 8.66284 2.3999 8.00009C2.3999 7.33735 2.93716 6.80009 3.5999 6.80009C4.26264 6.80009 4.7999 7.33735 4.7999 8.00009ZM9.70005 8.00009C9.70005 8.66284 9.16279 9.20009 8.50005 9.20009C7.83731 9.20009 7.30005 8.66284 7.30005 8.00009C7.30005 7.33735 7.83731 6.80009 8.50005 6.80009C9.16279 6.80009 9.70005 7.33735 9.70005 8.00009ZM13.4 9.20009C14.0627 9.20009 14.6 8.66284 14.6 8.00009C14.6 7.33735 14.0627 6.80009 13.4 6.80009C12.7372 6.80009 12.2 7.33735 12.2 8.00009C12.2 8.66284 12.7372 9.20009 13.4 9.20009Z" fill="#5D42FF"/>
</g>
</g>
</svg>
