<svg width="20" height="20" viewBox="0 0 20 20" fill="none" xmlns="http://www.w3.org/2000/svg">
<path fill-rule="evenodd" clip-rule="evenodd" d="M20 10C20 4.47715 15.5228 0 10 0C4.47715 0 0 4.47715 0 10C0 15.5228 4.47715 20 10 20C15.5228 20 20 15.5228 20 10ZM1.625 10C1.625 5.37461 5.37461 1.625 10 1.625C14.6254 1.625 18.375 5.37461 18.375 10C18.375 14.6254 14.6254 18.375 10 18.375C5.37461 18.375 1.625 14.6254 1.625 10ZM5.79225 9.14889C5.3222 9.14889 4.94114 9.52995 4.94114 10C4.94114 10.4701 5.3222 10.8511 5.79225 10.8511H9.14889V14.2078C9.14889 14.6778 9.52995 15.0589 10 15.0589C10.4701 15.0589 10.8511 14.6778 10.8511 14.2078V10.8511H14.2078C14.6778 10.8511 15.0589 10.4701 15.0589 10C15.0589 9.52995 14.6778 9.14889 14.2078 9.14889H10.8511V5.79225C10.8511 5.3222 10.4701 4.94114 10 4.94114C9.52995 4.94114 9.14889 5.3222 9.14889 5.79225V9.14889H5.79225Z" fill="#55585e"/>
</svg>
