<svg width="21" height="20" viewBox="0 0 21 20" fill="none" xmlns="http://www.w3.org/2000/svg">
<path d="M11.3749 17.5625C11.3749 17.7006 11.263 17.8125 11.1249 17.8125H9.87494C9.73687 17.8125 9.62494 17.7006 9.62494 17.5625V10.875H2.9375C2.79943 10.875 2.6875 10.7631 2.6875 10.625V9.37501C2.6875 9.23694 2.79943 9.12501 2.9375 9.12501H9.62494V2.4375C9.62494 2.29943 9.73687 2.1875 9.87494 2.1875H11.1249C11.263 2.1875 11.3749 2.29943 11.3749 2.4375V9.12501H18.0625C18.2006 9.12501 18.3125 9.23694 18.3125 9.37501V10.625C18.3125 10.7631 18.2006 10.875 18.0625 10.875H11.3749V17.5625Z" fill="#25272A"/>
</svg>
