<svg width="16" height="17" viewBox="0 0 16 17" fill="none" xmlns="http://www.w3.org/2000/svg">
<path d="M16 8.26917C16 3.85089 12.4183 0.269165 8 0.269165C3.58172 0.269165 0 3.85089 0 8.26917C0 12.6874 3.58172 16.2692 8 16.2692C12.4183 16.2692 16 12.6874 16 8.26917ZM1.2998 8.26921C1.2998 4.56891 4.2995 1.56921 7.9998 1.56921C11.7001 1.56921 14.6998 4.56891 14.6998 8.26921C14.6998 11.9695 11.7001 14.9692 7.9998 14.9692C4.2995 14.9692 1.2998 11.9695 1.2998 8.26921ZM7.31889 7.58826H4.63401C4.25797 7.58826 3.95313 7.8931 3.95313 8.26914C3.95313 8.64519 4.25797 8.95003 4.63401 8.95003H7.31889V11.6353C7.31889 12.0114 7.62374 12.3162 7.99978 12.3162C8.37582 12.3162 8.68066 12.0114 8.68066 11.6353V8.95003H11.3664C11.7425 8.95003 12.0473 8.64519 12.0473 8.26914C12.0473 7.8931 11.7425 7.58826 11.3664 7.58826H8.68066V4.90293C8.68066 4.52689 8.37582 4.22205 7.99978 4.22205C7.62374 4.22205 7.31889 4.52689 7.31889 4.90293V7.58826Z" fill="#5d42ff"/>
</svg>
