<svg width="20" height="20" viewBox="0 0 20 20" fill="none" xmlns="http://www.w3.org/2000/svg">
<g id="Icon_chat_find more">
<g id="Union">
<path d="M10.0763 1.60107C8.00521 1.60107 6.32628 3.28001 6.32628 5.35107C6.32628 7.42214 8.00521 9.10107 10.0763 9.10107C12.1474 9.10107 13.8263 7.42214 13.8263 5.35107C13.8263 3.28001 12.1474 1.60107 10.0763 1.60107ZM7.82628 5.35107C7.82628 4.10843 8.83364 3.10107 10.0763 3.10107C11.3189 3.10107 12.3263 4.10843 12.3263 5.35107C12.3263 6.59372 11.3189 7.60107 10.0763 7.60107C8.83364 7.60107 7.82628 6.59372 7.82628 5.35107ZM10.7811 11.7773C10.5478 11.7593 10.3109 11.75 10.071 11.75C8.13301 11.75 6.40608 12.3532 5.17942 13.2939C4.18875 14.0536 3.54434 15.0132 3.3335 16.05H10.071C10.4852 16.05 10.821 16.3858 10.821 16.8C10.821 17.2142 10.4852 17.55 10.071 17.55H2.50781C2.0936 17.55 1.75781 17.2142 1.75781 16.8C1.75781 14.9165 2.75519 13.2627 4.26661 12.1036C5.77728 10.9451 7.83193 10.25 10.071 10.25C10.3495 10.25 10.625 10.2607 10.8968 10.2818C11.3097 10.3137 11.6186 10.6744 11.5867 11.0874C11.5548 11.5003 11.1941 11.8092 10.7811 11.7773ZM14.7321 13.1526C13.9136 13.1526 13.2501 13.8161 13.2501 14.6346C13.2501 15.453 13.9136 16.1165 14.7321 16.1165C15.5506 16.1165 16.2141 15.453 16.2141 14.6346C16.2141 13.8161 15.5506 13.1526 14.7321 13.1526ZM11.7501 14.6346C11.7501 12.9877 13.0852 11.6526 14.7321 11.6526C16.379 11.6526 17.7141 12.9877 17.7141 14.6346C17.7141 15.0816 17.6157 15.5056 17.4395 15.8862L18.9882 17.3258C19.2916 17.6078 19.3089 18.0824 19.0269 18.3858C18.7448 18.6891 18.2703 18.7065 17.9669 18.4244L16.4852 17.0471C15.9931 17.4052 15.3873 17.6165 14.7321 17.6165C13.0852 17.6165 11.7501 16.2815 11.7501 14.6346Z" fill="#5d42ff"/>
</g>
</g>
</svg>
