<svg width="20" height="21" viewBox="0 0 20 21" fill="none" xmlns="http://www.w3.org/2000/svg">
<path d="M10.0762 8.85107C11.733 8.85107 13.0762 7.50793 13.0762 5.85107C13.0762 4.19422 11.733 2.85107 10.0762 2.85107C8.41931 2.85107 7.07617 4.19422 7.07617 5.85107C7.07617 7.50793 8.41931 8.85107 10.0762 8.85107Z" stroke="#5B8EF4" stroke-width="1.5" stroke-linejoin="round"/>
<path d="M10.0709 17.3H2.50774C2.50774 14.0967 5.89389 11.5 10.0709 11.5C10.3301 11.5 10.5863 11.51 10.8389 11.5295" stroke="#5B8EF4" stroke-width="1.5" stroke-linecap="round" stroke-linejoin="round"/>
<path d="M14.732 17.3663C15.9647 17.3663 16.9639 16.367 16.9639 15.1343C16.9639 13.9016 15.9647 12.9023 14.732 12.9023C13.4993 12.9023 12.5 13.9016 12.5 15.1343C12.5 16.367 13.4993 17.3663 14.732 17.3663Z" stroke="#5B8EF4" stroke-width="1.5" stroke-linejoin="round"/>
<path d="M16.5918 16.6221L18.4775 18.375" stroke="#5B8EF4" stroke-width="1.5" stroke-linecap="round" stroke-linejoin="round"/>
</svg>
