<?xml version="1.0" encoding="UTF-8"?>
<svg width="14px" height="15px" viewBox="0 0 14 15" version="1.1" xmlns="http://www.w3.org/2000/svg" xmlns:xlink="http://www.w3.org/1999/xlink">
    <title>Address_book</title>
    <g id="Icon" stroke="none" stroke-width="1" fill="none" fill-rule="evenodd">
        <g id="Common" transform="translate(-147.000000, -26.000000)" fill="#55585e" fill-rule="nonzero">
            <g id="Address_book" transform="translate(147.000000, 26.000000)">
                <path d="M12.9433962,0 C13.5266784,0.00063692 13.9993631,0.47332165 14,1.05660377 L14,13.7358491 C13.9994055,14.2802457 13.587605,14.7282997 13.0584709,14.7861386 L12.9433962,14.7924528 L12.9433962,14.7924528 L1.58490566,14.7924528 C1.00162353,14.7918159 0.52893881,14.3191312 0.52830189,13.7358491 L0.52830189,11.8867925 C0.52830189,11.5950194 0.7648307,11.3584906 1.05660377,11.3584906 C1.34837685,11.3584906 1.58490566,11.5950194 1.58490566,11.8867925 L1.58490566,13.7358491 L12.9433962,13.7358491 L12.9433962,1.05660377 L1.58490566,1.05660377 L1.58490566,3.43396226 C1.58490566,3.69331611 1.3980187,3.90902016 1.15156671,3.9537525 L1.05660377,3.96226415 L1.05660377,3.96226415 C0.7648307,3.96226415 0.52830189,3.72573534 0.52830189,3.43396226 L0.52830189,1.05660377 C0.52893881,0.47332165 1.00162353,0.00063692 1.58490566,0 L12.9433962,0 Z M7.13207547,3.16981132 C8.58853774,3.16981132 9.7735849,4.35485849 9.7735849,5.81132075 C9.7735849,6.59556967 9.4299913,7.30112426 8.88544228,7.78534648 L8.84675699,7.81691932 L8.84675699,7.81691932 L8.9452852,7.8704983 C10.0703922,8.50466141 10.8301887,9.7107705 10.8301887,11.0943396 C10.8301887,11.234454 10.7745285,11.3688296 10.6754526,11.4679055 C10.596192,11.5471661 10.4943394,11.5986408 10.3850303,11.6160602 L10.3018868,11.6226415 L10.3018868,11.6226415 C10.1617724,11.6226415 10.0273968,11.5669813 9.9283209,11.4679055 C9.8292451,11.3688296 9.7735849,11.234454 9.7735849,11.0943396 C9.7735849,9.6378774 8.58853774,8.45283019 7.13207547,8.45283019 C5.67561321,8.45283019 4.49056604,9.6378774 4.49056604,11.0943396 C4.49056604,11.3536935 4.30367908,11.5693975 4.05722708,11.6141299 L3.96226415,11.6226415 L3.96226415,11.6226415 C3.67049108,11.6226415 3.43396226,11.3861127 3.43396226,11.0943396 C3.43396226,9.6709989 4.23806828,8.43546728 5.41678773,7.81723721 L5.41695571,7.81870949 L5.37870866,7.78534648 C4.8341596,7.30112426 4.49056604,6.59556967 4.49056604,5.81132075 C4.49056604,4.35485849 5.67561321,3.16981132 7.13207547,3.16981132 Z M1.58490566,9.245283 C1.87667874,9.245283 2.11320755,9.4818118 2.11320755,9.7735849 C2.11320755,10.0329388 1.92632059,10.2486428 1.67986859,10.2933751 L1.58490566,10.3018868 L1.58490566,10.3018868 L0.52830189,10.3018868 C0.23652881,10.3018868 0,10.065358 0,9.7735849 C0,9.4818118 0.23652881,9.245283 0.52830189,9.245283 L1.58490566,9.245283 Z M1.58490566,7.13207547 C1.87667873,7.13207547 2.11320753,7.36860429 2.11320753,7.66037736 C2.11320753,7.9197312 1.92632057,8.13543526 1.67986859,8.18016759 L1.58490566,8.18867925 L1.58490566,8.18867925 L0.52830189,8.18867925 C0.23652881,8.18867925 0,7.95215043 0,7.66037736 C0,7.36860428 0.23652881,7.13207547 0.52830189,7.13207547 L1.58490566,7.13207547 Z M7.13207547,4.22641509 C6.25675625,4.22641509 5.54716981,4.93600153 5.54716981,5.81132075 C5.54716981,6.68663998 6.25675625,7.39622642 7.13207547,7.39622642 C8.0073947,7.39622642 8.71698113,6.68663998 8.71698113,5.81132075 C8.71598036,4.9364164 8.00697983,4.22741587 7.13207547,4.22641509 Z M1.58490566,5.01886792 C1.87667874,5.01886792 2.11320755,5.25539674 2.11320755,5.54716981 C2.11320755,5.80652366 1.92632059,6.02222771 1.67986859,6.06696005 L1.58490566,6.0754717 L1.58490566,6.0754717 L0.52830189,6.0754717 C0.23652881,6.0754717 0,5.83894289 0,5.54716981 C0,5.25539674 0.23652881,5.01886792 0.52830189,5.01886792 L1.58490566,5.01886792 Z" id="Shape"></path>
            </g>
        </g>
    </g>
</svg>
