
<svg width="56px" height="64px" viewBox="0 0 56 64" version="1.1" xmlns="http://www.w3.org/2000/svg" xmlns:xlink="http://www.w3.org/1999/xlink">
    <g id="yjeozeypie" stroke="none" stroke-width="1" fill="none" fill-rule="evenodd">
        <g id="sgwerfmkxy" transform="translate(-152.000000, -257.000000)" fill="#dcdee1">
            <g id="ybkdwjllde" transform="translate(152.000000, 257.000000)">
                <path d="M49.5384615,0 L6.46153846,0 C2.8,0 0,2.77333333 0,6.4 L0,18.7733333 L4.30769231,18.7733333 C5.6,18.7733333 6.46153846,19.6266667 6.46153846,20.9066667 C6.46153846,22.1866667 5.6,23.04 4.30769231,23.04 L0,23.04 L0,40.1066667 L4.30769231,40.1066667 C5.6,40.1066667 6.46153846,40.96 6.46153846,42.24 C6.46153846,43.52 5.6,44.3733333 4.30769231,44.3733333 L0,44.3733333 L0,57.6 C0,61.2266667 2.8,64 6.46153846,64 L49.5384615,64 C53.2,64 56,61.2266667 56,57.6 L56,6.4 C56,2.77333333 53.2,0 49.5384615,0 Z M30.1538462,14.72 C34.8923077,14.72 38.7692308,18.56 38.7692308,23.2533333 C38.7692308,27.9466667 34.8923077,31.7866667 30.1538462,31.7866667 C25.4153846,31.7866667 21.5384615,27.9466667 21.5384615,23.2533333 C21.5384615,18.56 25.4153846,14.72 30.1538462,14.72 Z M40.9230769,49.28 L19.3846154,49.28 C15.0769231,49.28 15.0769231,46.08 15.0769231,45.0133333 C15.0769231,40.32 20.2461538,34.28 26.9230769,34.28 L33.3846154,34.28 C40.0615385,34.28 45.2307692,40.32 45.2307692,45.0133333 C45.2307692,46.08 45.2307692,49.28 40.9230769,49.28 Z" id="pizqnuefel"></path>
            </g>
        </g>
    </g>
</svg>
