<?xml version="1.0" encoding="UTF-8"?>
<svg width="20px" height="20px" viewBox="0 0 20 20" version="1.1" xmlns="http://www.w3.org/2000/svg" xmlns:xlink="http://www.w3.org/1999/xlink">
    <title>Aelf</title>
    <g id="Icon" stroke="none" stroke-width="1" fill="none" fill-rule="evenodd">
        <g id="Special" transform="translate(-153.000000, -78.000000)" fill-rule="nonzero">
            <g id="Aelf" transform="translate(153.000000, 78.000000)">
                <circle id="Circle" fill="#266CD3" cx="10" cy="10" r="10"></circle>
                <path d="M10.4130007,13.540636 C11.0921353,13.540636 11.6426827,14.0911834 11.6426827,14.770318 C11.6426827,15.4494526 11.0921353,16 10.4130007,16 C9.7338661,16 9.1833187,15.4494526 9.1833187,14.770318 C9.1833187,14.0911834 9.7338661,13.540636 10.4130007,13.540636 Z M10.7734248,11.0176678 C10.9218346,11.3992933 10.7098205,11.8445229 10.328195,11.9717315 C10.1828139,12.0262494 10.0374328,12.0340376 9.8920517,11.9950962 L9.8193611,11.9717315 C9.4801385,11.8657244 9.09851305,11.8657244 8.73808905,11.9929328 C8.2433894,12.1710248 7.89644005,12.5522732 7.73171605,12.9987781 L7.6992198,13.0954063 L7.67801835,13.1378092 C7.67801835,13.1590106 7.67801835,13.180212 7.65681695,13.180212 L7.65681695,13.2226148 C7.50840705,13.8162544 7.1055802,14.3250883 6.4907392,14.5371024 C5.5366756,14.9187279 4.47660493,14.4310954 4.11618091,13.4558304 C3.75575688,12.5017668 4.2645908,11.4204947 5.2186544,11.0600707 C5.81728255,10.8405737 6.4534717,10.940345 6.93278845,11.2886817 L7.02077455,11.3568904 C7.46600425,11.6749116 8.0384424,11.7809187 8.58967915,11.5689046 C8.91005605,11.4558304 9.16342605,11.2589975 9.3497891,11.0081868 L9.41653425,10.9116608 L9.4377357,10.8692579 C9.52254135,10.7420494 9.6497498,10.614841 9.8193611,10.5724381 C10.2009865,10.4240282 10.6462162,10.6360424 10.7734248,11.0176678 Z M13.4660042,7.4982332 C14.8476919,7.4982332 15.967771,8.61831235 15.967771,10 C15.967771,11.3816876 14.8476919,12.5017668 13.4660042,12.5017668 C12.0843166,12.5017668 10.9642374,11.3816876 10.9642374,10 C10.9642374,8.61831235 12.0843166,7.4982332 13.4660042,7.4982332 Z M4.11618091,6.5441696 C4.45540352,5.5689046 5.5366756,5.0812721 6.4907392,5.46289755 C7.1055802,5.67491165 7.50840705,6.1837456 7.65681695,6.77738515 L7.65681695,6.77738515 L7.65681695,6.819788 C7.67801835,6.819788 7.67801835,6.8409894 7.67801835,6.8621908 L7.67801835,6.8621908 L7.6992198,6.90459365 L7.73171605,7.00122185 C7.89644005,7.44772675 8.2433894,7.82897525 8.73808905,8.00706715 C9.09851305,8.1342756 9.4801385,8.1342756 9.8193611,8.02826855 L9.8193611,8.02826855 L9.8920517,8.00490375 C10.0374328,7.96596235 10.1828139,7.97375065 10.328195,8.02826855 C10.7098205,8.15547705 10.9218346,8.6007067 10.7734248,8.98233215 C10.6462162,9.3639576 10.2009865,9.57597175 9.8193611,9.42756185 C9.6497498,9.385159 9.52254135,9.25795055 9.4377357,9.13074205 L9.4377357,9.13074205 L9.41653425,9.0883392 L9.3497891,8.99181315 C9.16342605,8.7410025 8.91005605,8.5441696 8.58967915,8.4310954 C8.0384424,8.21908125 7.46600425,8.32508835 7.02077455,8.64310955 L7.02077455,8.64310955 L6.93278845,8.7113183 C6.4534717,9.05965495 5.81728255,9.1594263 5.2186544,8.93992935 C4.2645908,8.5795053 3.75575688,7.4982332 4.11618091,6.5441696 Z M10.4130007,4 C11.0921353,4 11.6426827,4.55054737 11.6426827,5.229682 C11.6426827,5.9088166 11.0921353,6.45936395 10.4130007,6.45936395 C9.7338661,6.45936395 9.1833187,5.9088166 9.1833187,5.229682 C9.1833187,4.55054737 9.7338661,4 10.4130007,4 Z" id="Shape" fill="#FFFFFF"></path>
            </g>
        </g>
    </g>
</svg>