<svg width="25" height="24" viewBox="0 0 25 24" fill="none" xmlns="http://www.w3.org/2000/svg">
<path d="M3.93945 5C3.66331 5 3.43945 5.22386 3.43945 5.5V18.5C3.43945 18.7761 3.66331 19 3.93945 19H20.9395C21.2156 19 21.4395 18.7761 21.4395 18.5V5.5C21.4395 5.22386 21.2156 5 20.9395 5H3.93945ZM1.43945 5.5C1.43945 4.11929 2.55874 3 3.93945 3H20.9395C22.3202 3 23.4395 4.11929 23.4395 5.5V18.5C23.4395 19.8807 22.3202 21 20.9395 21H3.93945C2.55874 21 1.43945 19.8807 1.43945 18.5V5.5Z" fill="#25272A"/>
<path d="M9.46172 11.836L4.11518 16.7369C3.70806 17.1101 3.0755 17.0826 2.7023 16.6755C2.32911 16.2684 2.35662 15.6358 2.76373 15.2626L8.11026 10.3617C8.11027 10.3617 8.11028 10.3616 8.11028 10.3616C8.85611 9.67793 9.99511 9.65895 10.7633 10.3175L17.0903 15.7405C17.5096 16.1 17.5581 16.7313 17.1987 17.1506C16.8393 17.5699 16.208 17.6185 15.7887 17.259L9.46172 11.836Z" fill="#25272A"/>
<path d="M17.5333 12.3203L17.5333 12.3203L15.1466 14.707C14.756 15.0976 14.1229 15.0976 13.7323 14.707C13.3418 14.3165 13.3418 13.6834 13.7323 13.2928L16.1191 10.9061C16.8229 10.2023 17.9371 10.1232 18.7333 10.7203L18.7333 10.7203L22.0395 13.1999C22.4813 13.5313 22.5708 14.1581 22.2395 14.5999C21.9081 15.0418 21.2813 15.1313 20.8395 14.7999L17.5333 12.3204L17.5333 12.3203L17.5333 12.3203Z" fill="#25272A"/>
<path d="M2.43945 9V14" stroke="#25272A" stroke-width="2" stroke-linecap="round" stroke-linejoin="round"/>
<path d="M22.4395 9V14" stroke="#25272A" stroke-width="2" stroke-linecap="round" stroke-linejoin="round"/>
</svg>
