<svg width="32" height="33" viewBox="0 0 32 33" fill="none" xmlns="http://www.w3.org/2000/svg">
<g id="album-filled">
<g id="Union">
<path d="M9.87277 15.5513L4.75 20.9264V8.25H27.25V25.75H25.2759L12.9499 15.3818C12.0404 14.6168 10.6927 14.691 9.87277 15.5513ZM4.5 5.75C3.25736 5.75 2.25 6.75736 2.25 8V26C2.25 27.2426 3.25736 28.25 4.5 28.25H27.5C28.7426 28.25 29.75 27.2426 29.75 26V8C29.75 6.75736 28.7426 5.75 27.5 5.75H4.5ZM21.6421 10.25C19.6472 10.25 18.03 11.8671 18.03 13.862C18.03 15.8569 19.6472 17.474 21.6421 17.474C23.6369 17.474 25.2541 15.8569 25.2541 13.862C25.2541 11.8671 23.6369 10.25 21.6421 10.25ZM20.53 13.862C20.53 13.2478 21.0279 12.75 21.6421 12.75C22.2563 12.75 22.7541 13.2478 22.7541 13.862C22.7541 14.4762 22.2563 14.974 21.6421 14.974C21.0279 14.974 20.53 14.4762 20.53 13.862Z" fill="#DCDEE1"/>
</g>
</g>
</svg>
