<svg width="25" height="24" viewBox="0 0 25 24" fill="none" xmlns="http://www.w3.org/2000/svg">
<path d="M3.93955 4.89998C3.60818 4.89998 3.33955 5.1686 3.33955 5.49998V18.5C3.33955 18.8313 3.60818 19.1 3.93955 19.1H20.9396C21.2709 19.1 21.5396 18.8313 21.5396 18.5V5.49998C21.5396 5.1686 21.2709 4.89998 20.9396 4.89998H3.93955ZM1.53955 5.49998C1.53955 4.17449 2.61407 3.09998 3.93955 3.09998H20.9396C22.265 3.09998 23.3396 4.17449 23.3396 5.49998V18.5C23.3396 19.8255 22.265 20.9 20.9396 20.9H3.93955C2.61407 20.9 1.53955 19.8255 1.53955 18.5V5.49998Z" fill="#101114"/>
<path d="M9.52687 11.76C9.48848 11.7271 9.43155 11.728 9.39428 11.7622L4.04771 16.6632C3.6813 16.9991 3.11199 16.9743 2.77612 16.6079C2.44024 16.2415 2.465 15.6722 2.8314 15.3363L8.17793 10.4353C8.17792 10.4353 8.17794 10.4353 8.17793 10.4353C8.88646 9.78583 9.96852 9.76776 10.6983 10.3933C10.6983 10.3933 10.6983 10.3933 10.6983 10.3933L17.0253 15.8164C17.4027 16.1399 17.4464 16.7081 17.1229 17.0855C16.7994 17.4629 16.2312 17.5066 15.8538 17.1831L9.52687 11.76Z" fill="#101114"/>
<path d="M17.5934 12.2403C17.5535 12.2104 17.4978 12.2144 17.4627 12.2496L15.0759 14.6363C14.7245 14.9878 14.1546 14.9878 13.8032 14.6363C13.4517 14.2848 13.4517 13.715 13.8032 13.3635L16.1899 10.9768C16.8585 10.3082 17.917 10.233 18.6734 10.8003L18.6734 10.8003L21.9795 13.2799C22.3772 13.5781 22.4578 14.1423 22.1596 14.5399C21.8613 14.9376 21.2972 15.0182 20.8996 14.7199L17.5934 12.2403C17.5934 12.2403 17.5934 12.2403 17.5934 12.2403Z" fill="#101114"/>
</svg>
