<svg width="49" height="48" viewBox="0 0 49 48" fill="none" xmlns="http://www.w3.org/2000/svg">
<path d="M38.2141 25.3663C38.191 21.4318 39.9736 18.4666 43.5735 16.2801C41.5601 13.3956 38.5141 11.8091 34.4988 11.5034C30.6971 11.2034 26.5376 13.7187 25.0146 13.7187C23.405 13.7187 19.7244 11.6072 16.8284 11.6072C10.8517 11.6995 4.5 16.3724 4.5 25.8797C4.5 28.6892 5.01344 31.591 6.04032 34.5794C7.41335 38.5139 12.3632 48.1539 17.5264 47.9981C20.2263 47.9346 22.1359 46.0828 25.6492 46.0828C29.0587 46.0828 30.824 47.9981 33.8354 47.9981C39.0448 47.9231 43.5216 39.16 44.8254 35.214C37.8391 31.9199 38.2141 25.5682 38.2141 25.3663Z" fill="black"/>
<path d="M32.1508 7.77085C35.0757 4.29791 34.8103 1.13649 34.7238 0C32.1393 0.149994 29.1509 1.75955 27.4491 3.73832C25.5742 5.86131 24.4723 8.48621 24.7088 11.4457C27.501 11.6592 30.0509 10.2227 32.1508 7.77085Z" fill="black"/>
</svg>
