<svg width="50" height="50" viewBox="0 0 50 50" fill="none" xmlns="http://www.w3.org/2000/svg">
<rect x="1" y="1" width="48" height="48" rx="24" fill="white"/>
<rect x="1" y="1" width="48" height="48" rx="24" stroke="#C5CBD5" stroke-width="0.5" stroke-miterlimit="0" stroke-linejoin="bevel"/>
<path d="M30.7143 25.5693C30.7047 23.9299 31.4474 22.6944 32.9474 21.7834C32.1085 20.5815 30.8393 19.9205 29.1663 19.7931C27.5822 19.6681 25.8491 20.7161 25.2145 20.7161C24.5438 20.7161 23.0103 19.8363 21.8036 19.8363C19.3133 19.8748 16.6667 21.8218 16.6667 25.7832C16.6667 26.9538 16.8807 28.1629 17.3086 29.4081C17.8806 31.0474 19.9431 35.0641 22.0944 34.9992C23.2194 34.9728 24.015 34.2012 25.4789 34.2012C26.8995 34.2012 27.6351 34.9992 28.8898 34.9992C31.0604 34.968 32.9257 31.3167 33.469 29.6725C30.558 28.2999 30.7143 25.6534 30.7143 25.5693Z" fill="black"/>
<path d="M28.1878 18.2379C29.4065 16.7908 29.2959 15.4735 29.2599 15C28.183 15.0625 26.9378 15.7331 26.2287 16.5576C25.4475 17.4422 24.9884 18.5359 25.087 19.769C26.2504 19.858 27.3128 19.2594 28.1878 18.2379Z" fill="black"/>
</svg>
