<svg width="16" height="16" viewBox="0 0 16 16" fill="none" xmlns="http://www.w3.org/2000/svg">
<g id="Group 48097331">
<path id="Vector" d="M1.44586 4.86346V11.1348C1.44586 11.5379 1.65704 11.9027 2.009 12.1074L7.44199 15.2431C7.78755 15.4415 8.2163 15.4415 8.56186 15.2431L13.9949 12.1074C14.3404 11.9091 14.558 11.5379 14.558 11.1348V4.86346C14.558 4.4603 14.3468 4.09555 13.9949 3.89077L8.56186 0.755122C8.2163 0.556744 7.78755 0.556744 7.44199 0.755122L2.009 3.89077C1.66344 4.08915 1.45226 4.4603 1.45226 4.86346H1.44586Z" fill="#213147"/>
<path id="Vector_2" d="M9.18227 9.21488L8.40795 11.3394C8.38876 11.397 8.38876 11.461 8.40795 11.525L9.739 15.179L11.2812 14.2895L9.43184 9.21488C9.38704 9.0997 9.22706 9.0997 9.18227 9.21488Z" fill="#12AAFF"/>
<path id="Vector_3" d="M10.7374 5.64418C10.6926 5.52899 10.5326 5.52899 10.4878 5.64418L9.7135 7.76874C9.6943 7.82633 9.6943 7.89032 9.7135 7.95432L11.8956 13.9376L13.4379 13.0481L10.7374 5.65057V5.64418Z" fill="#12AAFF"/>
<path id="Vector_4" d="M7.99855 0.991888C8.03694 0.991888 8.07534 1.00469 8.10733 1.02388L13.9819 4.4155C14.0523 4.4539 14.0907 4.53069 14.0907 4.60748V11.3907C14.0907 11.4675 14.0459 11.5443 13.9819 11.5827L8.10733 14.9743C8.07534 14.9935 8.03694 15.0063 7.99855 15.0063C7.96015 15.0063 7.92175 14.9935 7.88976 14.9743L2.01522 11.5827C1.94483 11.5443 1.90643 11.4675 1.90643 11.3907V4.60108C1.90643 4.52429 1.95122 4.4475 2.01522 4.4091L7.88976 1.01749C7.92175 0.998288 7.96015 0.985489 7.99855 0.985489V0.991888ZM7.99855 0C7.78737 0 7.58259 0.0511942 7.39061 0.159982L1.51607 3.5516C1.13852 3.76918 0.908142 4.16593 0.908142 4.60108V11.3843C0.908142 11.8195 1.13852 12.2162 1.51607 12.4338L7.39061 15.8254C7.57619 15.9342 7.78737 15.9854 7.99855 15.9854C8.20972 15.9854 8.4145 15.9342 8.60648 15.8254L14.481 12.4338C14.8586 12.2162 15.0889 11.8195 15.0889 11.3843V4.60108C15.0889 4.16593 14.8586 3.76918 14.481 3.5516L8.60008 0.159982C8.4145 0.0511942 8.20332 0 7.99215 0H7.99855Z" fill="#9DCCED"/>
<path id="Vector_5" d="M4.10797 13.944L4.65191 12.4594L5.73979 13.3617L4.7223 14.296L4.10797 13.944Z" fill="#213147"/>
<path id="Vector_6" d="M7.49958 4.12113H6.00855C5.89976 4.12113 5.79737 4.19152 5.75898 4.29391L2.56573 13.0481L4.10796 13.9376L7.62757 4.29391C7.65956 4.20432 7.59557 4.11473 7.50598 4.11473L7.49958 4.12113Z" fill="white"/>
<path id="Vector_7" d="M10.1105 4.12113H8.61945C8.51066 4.12113 8.40828 4.19152 8.36988 4.29391L4.72229 14.2896L6.26452 15.1791L10.2321 4.29391C10.2641 4.20432 10.2001 4.11473 10.1105 4.11473V4.12113Z" fill="white"/>
</g>
</svg>
