<svg width="16" height="16" viewBox="0 0 16 16" fill="none" xmlns="http://www.w3.org/2000/svg">
<g id="Type=avax" clip-path="url(#clip0_2225_45014)">
<path id="Vector" fill-rule="evenodd" clip-rule="evenodd" d="M15.9929 7.99911C15.9929 12.4111 12.414 15.9876 7.99909 15.9876C3.58424 15.9876 0.00531006 12.4111 0.00531006 7.99911C0.00531006 3.5872 3.58424 0.0106449 7.99909 0.0106449C12.414 0.0106449 15.9929 3.5872 15.9929 7.99911Z" fill="#E84142"/>
<g id="Vector_2">
<path d="M4.18254 11.1781H5.73391C6.09917 11.1781 6.28179 11.1781 6.44479 11.133C6.62349 11.0799 6.78649 10.9858 6.92199 10.8562C7.04642 10.7378 7.13622 10.5807 7.31335 10.2709L7.31346 10.2707L7.31866 10.2616L9.33074 6.70722C9.50945 6.39519 9.59782 6.23819 9.63709 6.07335C9.68029 5.89476 9.68029 5.70637 9.63709 5.52778C9.59811 5.36418 9.50884 5.2083 9.3328 4.90092L9.32879 4.89392L8.54131 3.5202C8.37832 3.23368 8.29584 3.09042 8.19176 3.03743C8.07983 2.98052 7.94629 2.98052 7.83435 3.03743C7.73027 3.09042 7.6478 3.23368 7.48481 3.5202L3.65429 10.2675C3.49326 10.5501 3.41274 10.6915 3.41864 10.8072C3.42649 10.9328 3.49129 11.0466 3.59734 11.1154C3.69552 11.1781 3.85655 11.1781 4.18254 11.1781Z" fill="white"/>
<path d="M11.8746 11.1781H9.65162C9.32368 11.1781 9.15872 11.1781 9.06249 11.1154C8.95645 11.0466 8.89165 10.9309 8.8838 10.8053C8.87794 10.6904 8.9591 10.5504 9.12149 10.2703L9.12153 10.2702L9.12533 10.2637L10.2349 8.36007C10.3979 8.07944 10.4803 7.9401 10.5824 7.88712C10.6943 7.8302 10.826 7.8302 10.9379 7.88712C11.0393 7.93871 11.1182 8.07213 11.2745 8.33629L11.2748 8.33668L11.2874 8.35811L12.4009 10.2617L12.417 10.2893L12.417 10.2894C12.5713 10.5555 12.6501 10.6914 12.6444 10.8034C12.6385 10.9289 12.5717 11.0447 12.4657 11.1134C12.3675 11.1781 12.2025 11.1781 11.8746 11.1781H11.8746Z" fill="white"/>
</g>
</g>
<defs>
<clipPath id="clip0_2225_45014">
<rect width="15.9982" height="15.9982" fill="white"/>
</clipPath>
</defs>
</svg>
