
<svg width="12px" height="12px" viewBox="0 0 12 12" version="1.1" xmlns="http://www.w3.org/2000/svg"
    xmlns:xlink="http://www.w3.org/1999/xlink">
    <g id="mxklhfsglt" stroke="none" stroke-width="1" fill="none" fill-rule="evenodd">
        <g id="eofqjcyjkh" transform="translate(-230.000000, -72.000000)">
            <g id="stubogoidu" transform="translate(230.000000, 68.000000)">
                <g id="oogxwhdmgd" transform="translate(0.000000, 4.000000)">
                    <g id="wqwdhsurnh">
                        <rect id="qjynioqwkz" x="0" y="0" width="12" height="12"></rect>
                    </g>
                    <path
                        d="M11.1398205,3 L10.1036191,3 C10.0331574,3 9.96684055,3.02929687 9.92539249,3.07734375 L6.0002618,7.66640625 L2.0751311,3.07734375 C2.03368305,3.02929687 1.96736616,3 1.89690447,3 L0.860703128,3 C0.770899012,3 0.718398144,3.08671875 0.770899012,3.14882812 L5.64242693,8.8453125 C5.81927196,9.0515625 6.18125163,9.0515625 6.35671506,8.8453125 L11.228243,3.14882812 C11.2821255,3.08671875 11.2296246,3 11.1398205,3 Z"
                        id="yiiubvmuil" fill="#55585e"
                        transform="translate(6.000000, 6.000000) rotate(90.000000) translate(-6.000000, -6.000000) ">
                    </path>
                </g>
            </g>
        </g>
    </g>
</svg>
