<svg width="16" height="16" viewBox="0 0 16 16" fill="none" xmlns="http://www.w3.org/2000/svg">
<g clip-path="url(#clip0_5016_32878)">
<path fill-rule="evenodd" clip-rule="evenodd" d="M7.9991 0C12.4172 0 15.9982 3.58101 15.9982 7.9991C15.9982 12.4172 12.4172 15.9982 7.9991 15.9982C3.58101 15.9982 0 12.4172 0 7.9991C0 3.58101 3.58101 0 7.9991 0Z" fill="#F0B90B"/>
<path d="M4.39629 7.9991L4.40206 10.1142L6.19929 11.1718V12.4101L3.35025 10.7392V7.38058L4.39629 7.9991ZM4.39629 5.88395V7.11651L3.34961 6.49734V5.26479L4.39629 4.64563L5.44809 5.26479L4.39629 5.88395ZM6.94985 5.26479L7.99652 4.64563L9.04833 5.26479L7.99652 5.88395L6.94985 5.26479Z" fill="white"/>
<path d="M5.15259 9.67583V8.43751L6.19927 9.05667V10.2892L5.15259 9.67583ZM6.94982 11.6154L7.9965 12.2345L9.0483 11.6154V12.8479L7.9965 13.4671L6.94982 12.8479V11.6154ZM10.5494 5.26479L11.5961 4.64563L12.6479 5.26479V6.49734L11.5961 7.11651V5.88395L10.5494 5.26479ZM11.5961 10.1142L11.6019 7.9991L12.6485 7.37994V10.7385L9.7995 12.4095V11.1712L11.5961 10.1142Z" fill="white"/>
<path d="M10.8456 9.67582L9.79889 10.2892V9.05666L10.8456 8.4375V9.67582Z" fill="white"/>
<path d="M10.8455 6.32237L10.8513 7.56069L9.04894 8.61826V10.7385L8.00227 11.3519L6.95559 10.7385V8.61826L5.15323 7.56069V6.32237L6.20439 5.70321L7.99586 6.76591L9.79822 5.70321L10.85 6.32237H10.8455ZM5.15259 4.20786L7.9965 2.53113L10.8455 4.20786L9.79886 4.82702L7.9965 3.76432L6.19927 4.82702L5.15259 4.20786Z" fill="white"/>
</g>
<defs>
<clipPath id="clip0_5016_32878">
<rect width="15.9982" height="15.9982" fill="white"/>
</clipPath>
</defs>
</svg>
