
<svg width="32px" height="32px" viewBox="0 0 32 32" version="1.1" xmlns="http://www.w3.org/2000/svg" xmlns:xlink="http://www.w3.org/1999/xlink">
    <g id="rvcghvvzrk" stroke="none" stroke-width="1" fill="none" fill-rule="evenodd">
        <g id="ygrltboqec" transform="translate(-16.000000, -460.000000)">
            <g id="qikbivucxj" transform="translate(0.000000, 428.000000)">
                <g id="hhzgqcgrsy" transform="translate(16.000000, 32.000000)">
                    <circle id="xkkvqpzvkm" fill="#5d42ff" cx="16" cy="16" r="16"></circle>
                    <g id="flprmbkwer" transform="translate(6.400000, 6.400000)" fill="#FFFFFF" fill-rule="nonzero">
                        <circle id="qzwdgikmdc" cx="15.1456068" cy="9.6" r="4.00282686"></circle>
                        <circle id="wpqzgpuxuq" cx="10.2608011" cy="17.2325088" r="1.96749117"></circle>
                        <circle id="ryclxmwqio" cx="10.2608011" cy="1.96749117" r="1.96749117"></circle>
                        <path d="M0.185889454,4.07067138 C-0.390788991,5.59717314 0.423345285,7.32720848 1.94984705,7.90388693 C2.9675149,8.2770318 4.05302726,8.07349823 4.83323928,7.42897527 L4.83323928,7.42897527 L4.83323928,7.42897527 C5.54560677,6.92014134 6.46150783,6.75053004 7.34348663,7.08975265 C7.92016507,7.29328622 8.36115447,7.6664311 8.66645483,8.14134276 L8.66645483,8.14134276 L8.70037709,8.20918728 L8.70037709,8.20918728 C8.83606613,8.41272085 9.0395997,8.61625442 9.31097779,8.68409894 C9.9215785,8.92155477 10.633946,8.58233216 10.8374796,7.97173145 C11.0749354,7.36113074 10.7357128,6.64876325 10.1251121,6.44522968 C9.85373398,6.3434629 9.58235589,6.3434629 9.31097779,6.44522968 L9.31097779,6.44522968 L9.31097779,6.44522968 L9.31097779,6.44522968 C8.76822161,6.61484099 8.1576209,6.61484099 7.58094246,6.41130742 C6.73288592,6.10600707 6.15620748,5.42756184 5.91875165,4.64734982 L5.91875165,4.64734982 L5.88482938,4.5795053 C5.88482938,4.54558304 5.88482938,4.51166078 5.85090712,4.51166078 L5.85090712,4.44381625 C5.61345129,3.49399293 4.96892832,2.67985866 3.98518274,2.34063604 C2.45868097,1.73003534 0.728645638,2.51024735 0.185889454,4.07067138 Z" id="vlfocjbwqh"></path>
                        <path d="M0.185889454,15.1293286 C-0.390788991,13.6028269 0.423345285,11.8727915 1.94984705,11.2961131 C2.9675149,10.9229682 4.05302726,11.1265018 4.83323928,11.7710247 L4.83323928,11.7710247 L4.83323928,11.7710247 C5.54560677,12.2798587 6.46150783,12.44947 7.34348663,12.1102473 C7.92016507,11.9067138 8.36115447,11.5335689 8.66645483,11.0586572 L8.66645483,11.0586572 L8.70037709,10.9908127 L8.70037709,10.9908127 C8.83606613,10.7872792 9.0395997,10.5837456 9.31097779,10.5159011 C9.9215785,10.2784452 10.633946,10.6176678 10.8374796,11.2282686 C11.0749354,11.8388693 10.7357128,12.5512367 10.1251121,12.7547703 C9.85373398,12.8565371 9.58235589,12.8565371 9.31097779,12.7547703 L9.31097779,12.7547703 L9.31097779,12.7547703 L9.31097779,12.7547703 C8.76822161,12.585159 8.1576209,12.585159 7.58094246,12.7886926 C6.73288592,13.0939929 6.15620748,13.7724382 5.91875165,14.5526502 L5.91875165,14.5526502 L5.88482938,14.6204947 C5.88482938,14.654417 5.88482938,14.6883392 5.85090712,14.6883392 L5.85090712,14.7561837 C5.61345129,15.7060071 4.96892832,16.5201413 3.98518274,16.859364 C2.45868097,17.4699647 0.7625679,16.6897527 0.185889454,15.1293286 Z" id="jvxnpewttl"></path>
                    </g>
                </g>
            </g>
        </g>
    </g>
</svg>
