<svg width="16" height="16" viewBox="0 0 16 16" fill="none" xmlns="http://www.w3.org/2000/svg">
<path d="M12.3237 11.7906L2.95837 5.23292C2.50685 6.05383 2.25 6.99692 2.25 8C2.25 11.1756 4.82436 13.75 8 13.75C9.72348 13.75 11.2699 12.9917 12.3237 11.7906ZM13.0415 10.7673C13.4931 9.9463 13.75 9.00315 13.75 8C13.75 4.82436 11.1756 2.25 8 2.25C6.27645 2.25 4.73001 3.00833 3.67614 4.20954L13.0415 10.7673ZM15 8C15 11.866 11.866 15 8 15C4.13401 15 1 11.866 1 8C1 4.13401 4.13401 1 8 1C11.866 1 15 4.13401 15 8Z" fill="#55585E"/>
</svg>
