<svg width="25" height="24" viewBox="0 0 25 24" fill="none" xmlns="http://www.w3.org/2000/svg">
<path d="M12.4363 1.59998C12.779 1.5991 13.0925 1.79291 13.2448 2.09987L16.1315 7.91624L22.5692 8.85494C22.9077 8.90431 23.189 9.14134 23.295 9.46662C23.401 9.79189 23.3135 10.1492 23.0691 10.3885L18.3866 14.9742L19.4986 21.3452C19.5578 21.6841 19.4186 22.027 19.14 22.2288C18.8615 22.4306 18.4923 22.456 18.1887 22.2942L12.4387 19.2295L6.68992 22.2942C6.38619 22.4561 6.01671 22.4306 5.7381 22.2285C5.45948 22.0264 5.32052 21.6831 5.38013 21.3441L6.50017 14.9742L1.81017 10.3891C1.56535 10.1497 1.47754 9.79219 1.58363 9.46665C1.68972 9.14112 1.97133 8.90398 2.31018 8.85484L8.78289 7.91626L11.6304 2.10402C11.7812 1.79627 12.0936 1.60086 12.4363 1.59998ZM12.4439 4.53496L10.1903 9.13474C10.0596 9.40166 9.80545 9.5868 9.51129 9.62946L4.37053 10.3749L8.09794 14.019C8.31037 14.2267 8.40663 14.5258 8.35518 14.8184L7.47274 19.837L12.0152 17.4154C12.2799 17.2743 12.5973 17.2743 12.862 17.4153L17.4085 19.8386L16.532 14.8173C16.4811 14.5253 16.5771 14.2269 16.7889 14.0195L20.5114 10.3739L15.4051 9.62936C15.1129 9.58674 14.8601 9.40344 14.7288 9.13888L12.4439 4.53496Z" fill="#101114"/>
</svg>
