<svg width="344" height="240" viewBox="0 0 344 240" fill="none" xmlns="http://www.w3.org/2000/svg">
<g clip-path="url(#clip0_24673_12231)">
<g filter="url(#filter0_d_24673_12231)">
<path d="M88.3647 97.2435C88.3647 97.1498 88.4561 97.0832 88.5453 97.1119L171.177 123.711C171.234 123.729 171.273 123.782 171.273 123.842V213.368C171.273 213.649 170.999 213.849 170.731 213.763L88.4606 187.28C88.4035 187.262 88.3647 187.209 88.3647 187.149V97.2435Z" fill="#8B8FFC" stroke="black" stroke-width="0.518708"/>
<path d="M254.181 97.2435C254.181 97.1498 254.09 97.0832 254.001 97.1119L171.369 123.711C171.312 123.729 171.273 123.782 171.273 123.842V213.14C171.273 213.526 171.658 213.793 172.02 213.658L254.091 182.948C254.145 182.928 254.181 182.876 254.181 182.819V97.2435Z" fill="#6558FF" stroke="black" stroke-width="0.518708"/>
<path d="M207.373 200.421V112.808L225.736 106.687V193.577L207.373 200.421Z" fill="#ECAB2D" stroke="black" stroke-width="0.518708"/>
<path d="M134.545 202.108V114.749L116.182 108.628V196.121L134.545 202.108Z" fill="#ECAB2D" stroke="black" stroke-width="0.518708"/>
<path opacity="0.12" d="M151.374 172.659C147.485 174.774 145.038 179.945 146.459 185.077C147.321 188.179 149.054 190.398 151.633 191.531C156.136 193.507 160.829 189.161 160.306 183.506C160.079 181.103 159.096 179.277 157.098 178.511C155.613 177.948 154.186 178.21 153.018 179.552C152.035 180.684 151.654 182.085 152.051 183.715C152.268 184.612 152.791 185.168 153.504 185.43C154.128 185.666 154.614 185.325 154.989 184.684C154.915 184.527 154.847 184.356 154.757 184.212C154.271 183.434 154.662 182.301 155.084 181.83C155.655 181.188 156.58 181.129 157.193 181.66C158.176 182.517 158.631 184.802 158.092 186.242C157.193 188.644 154.884 190.038 152.77 189.357C149.43 188.284 147.781 184.193 148.859 180.246C150.291 174.996 155.111 172.699 159.217 175.219C162.536 177.254 163.768 180.802 163.641 185.037C163.424 192.002 157.753 197.166 152.061 195.825C146.544 194.522 142.443 187.976 142.739 181.791C142.844 179.506 143.262 177.366 144.203 175.402C146.65 170.29 150.476 167.887 155.259 167.495C156.517 167.39 157.79 167.475 158.99 167.475C158.927 167.442 158.773 167.344 158.62 167.279C156.279 166.199 153.864 165.852 151.39 166.29C149.858 166.526 148.436 167.043 147.152 167.77C147.131 167.77 147.099 167.783 147.067 167.802C146.491 168.11 146.391 167.41 146.185 167.194C145.984 166.991 146.01 167.246 146.01 167.246C146.185 168.274 145.746 168.686 145.688 168.738C145.323 169.02 144.974 169.321 144.636 169.642C144.625 169.642 144.615 169.642 144.61 169.655C143.812 170.106 143.479 169.341 143.114 169.111C142.723 168.869 142.871 169.269 142.871 169.269C143.352 170.453 142.934 171.468 142.855 171.632C142.517 172.083 142.2 172.561 141.898 173.059C141.867 173.085 141.835 173.104 141.798 173.144C141.016 174.021 140.403 173.327 139.922 173.196C139.388 173.052 139.689 173.484 139.689 173.484C140.678 174.741 140.366 176.246 140.366 176.246C139.103 179.65 138.648 183.584 139.177 187.531C140.915 200.511 153.805 206.645 162.251 198.279C164.994 195.563 166.896 190.333 167.097 186.006C167.24 182.93 166.474 180.141 165.057 177.621C162.055 172.26 156.057 170.113 151.369 172.659H151.374Z" fill="#3C2CFF"/>
</g>
<path d="M88.8316 97.2059C88.6984 97.163 88.706 96.972 88.8422 96.9399L171.241 77.491C171.262 77.4861 171.284 77.4861 171.305 77.491L253.703 96.9399C253.84 96.972 253.847 97.163 253.714 97.2059L171.315 123.733C171.288 123.742 171.258 123.742 171.23 123.733L88.8316 97.2059Z" fill="#B2B0FF" stroke="black" stroke-width="0.514989"/>
<path d="M97.2096 97.2059C97.0764 97.163 97.084 96.972 97.2202 96.9399L171.241 79.4684C171.262 79.4635 171.284 79.4635 171.305 79.4684L245.326 96.9399C245.462 96.972 245.47 97.163 245.337 97.2059L171.316 121.036C171.288 121.045 171.258 121.045 171.231 121.036L97.2096 97.2059Z" fill="#231863" stroke="black" stroke-width="0.514989"/>
<path d="M68.803 143.562C53.1084 137.621 56.7498 123.474 60.5323 117.143C57.6087 128.249 66.2994 132.702 71.0102 133.54L68.803 143.562Z" fill="#FE6C6E" stroke="black" stroke-width="0.518708"/>
<path d="M275.882 102.875C280.738 101.762 287.234 93.231 285.168 85.0703L291.759 88.7813C292.781 90.4128 292.81 101.988 282.149 106.369L275.882 102.875Z" fill="#724FEB" stroke="black" stroke-width="0.518708"/>
<path d="M45.1943 60.7528C48.6568 61.7815 55.799 58.7108 57.4038 52.8221L60.2423 57.5147C60.3057 58.9088 56.1984 66.2273 47.9059 65.1929L45.1943 60.7528Z" fill="#FFE04A" stroke="black" stroke-width="0.518708"/>
<path d="M145.113 14.219L146.925 19.1167L151.823 20.9289L146.925 22.7412L145.113 27.6389L143.301 22.7412L138.403 20.9289L143.301 19.1167L145.113 14.219Z" fill="#8388F9" stroke="black" stroke-width="0.518708"/>
<path d="M83.9282 86.1502C83.9282 86.0572 84.0182 85.9908 84.1071 86.0181L169.684 112.358C169.742 112.376 169.781 112.43 169.781 112.49V131.041C169.781 131.32 169.512 131.52 169.245 131.437L84.0258 105.207C83.9678 105.19 83.9282 105.136 83.9282 105.075V86.1502Z" fill="#A4A8FF" stroke="black" stroke-width="0.518708"/>
<path d="M132.469 120.148V99.9879L114.105 93.8669V114.476L132.469 120.148Z" fill="#FDC558" stroke="black" stroke-width="0.887269"/>
<path d="M258.617 82.2795C258.617 82.1847 258.524 82.1181 258.434 82.1487L169.901 112.408C169.845 112.427 169.808 112.48 169.808 112.539V130.878C169.808 131.258 170.183 131.525 170.542 131.4L258.524 100.875C258.58 100.855 258.617 100.803 258.617 100.744V82.2795Z" fill="#7B70FF" stroke="black" stroke-width="0.518708"/>
<path d="M206.013 119.023V96.888L224.376 90.767V112.671L206.013 119.023Z" fill="#FDC558" stroke="black" stroke-width="0.518708"/>
<path d="M84.0717 86.0228C83.9381 85.9813 83.9435 85.7905 84.0792 85.7567L171.97 63.8939C171.99 63.8889 172.011 63.8885 172.031 63.8928L258.236 81.8869C258.373 81.9156 258.386 82.1071 258.253 82.1528L169.825 112.605C169.797 112.615 169.767 112.615 169.739 112.607L84.0717 86.0228Z" fill="#A4A8FF" stroke="black" stroke-width="0.5"/>
<mask id="mask0_24673_12231" style="mask-type:alpha" maskUnits="userSpaceOnUse" x="85" y="64" width="173" height="49">
<path d="M85.7626 85.877L171.994 64.427L256.552 82.0775L169.796 111.954L85.7626 85.877ZM256.968 81.9342L256.967 81.9345L256.968 81.9342ZM172.02 64.4203C172.02 64.4204 172.02 64.4204 172.02 64.4205L172.02 64.4203L171.991 64.3028L172.02 64.4203Z" fill="#A4A8FF" stroke="black" stroke-width="0.518708"/>
</mask>
<g mask="url(#mask0_24673_12231)">
<path d="M131.709 101.544L230.447 70.2089L210.86 65.0099L111.734 95.9118L131.709 101.544Z" fill="#FDC558" stroke="black" stroke-width="0.518708"/>
<path d="M207.896 100.785L109.158 69.45L130.565 64.4724L229.691 95.3743L207.896 100.785Z" fill="#FDC558" stroke="black" stroke-width="0.518708"/>
</g>
<path d="M273.134 152.577L275.559 159.129L282.112 161.554L275.559 163.979L273.134 170.531L270.71 163.979L264.157 161.554L270.71 159.129L273.134 152.577Z" fill="#1EF5CF" stroke="black" stroke-width="0.518708"/>
<path d="M158.123 78.0857L180.607 80.8317C181.049 80.8308 181.493 80.7903 182.003 80.7089L182.004 80.7087C182.531 80.6274 183.06 80.5061 183.65 80.3236C183.736 80.281 183.832 80.2357 184.055 80.1543C184.11 80.1331 184.164 80.112 184.22 80.0907C184.55 79.9632 184.902 79.8274 185.361 79.6154C185.75 79.4313 186.12 79.2259 186.516 78.9967L186.993 78.7061L188.082 77.9939L188.085 77.9924C188.834 77.5139 189.562 76.9938 190.29 76.411L190.297 76.4061L190.297 76.4062L190.54 76.2239L190.742 76.0422L190.748 76.0361L190.755 76.0306C190.885 75.9298 191.001 75.8208 191.164 75.668C191.225 75.6114 191.292 75.5488 191.368 75.4784C191.369 75.4779 191.369 75.4775 191.37 75.477L191.801 75.066L192.719 74.0438L192.721 74.042C192.94 73.8029 193.141 73.5218 193.353 73.2249L193.356 73.2202L193.356 73.2202L193.48 73.0552C193.724 72.7092 193.949 72.3415 194.175 71.9303L194.299 71.6827L194.303 71.6754L194.307 71.6684C194.404 71.5021 194.478 71.3324 194.56 71.1455C194.596 71.0644 194.633 70.98 194.674 70.8913L194.677 70.8841L194.677 70.8841L194.799 70.6413C194.846 70.5243 194.893 70.4124 194.94 70.3012C195.026 70.0994 195.111 69.8997 195.19 69.675C195.294 69.3619 195.398 69.0515 195.543 68.5333L195.546 68.5216L195.546 68.5217L195.651 68.2063L195.654 68.1973L195.655 68.1974C195.718 68.0277 195.775 67.8754 195.813 67.7059L195.814 67.6993L195.814 67.6994C195.844 67.5807 195.9 67.3041 195.951 67.0498C195.975 66.9242 195.998 66.8064 196.015 66.72L196.035 66.6169L196.04 66.5886L196.041 66.5821C196.072 66.4069 196.098 66.2364 196.125 66.0626L196.125 66.0594C196.151 65.889 196.177 65.7152 196.209 65.536L196.313 64.784L196.314 64.7771L196.314 64.7771L196.356 64.5302C196.397 64.1959 196.438 63.8475 196.459 63.5214L158.123 78.0857ZM158.123 78.0857L158.19 77.9728L157.798 77.9334C157.723 77.9258 157.657 77.8558 157.665 77.7636L157.666 77.7523V77.7409C157.666 77.6769 157.735 77.5916 157.837 77.5916C158.293 77.5916 158.747 77.5481 159.196 77.484L159.196 77.4841L159.201 77.4831C159.718 77.3972 160.231 77.2686 160.759 77.1209M158.123 78.0857L160.759 77.1209M160.759 77.1209C160.819 77.1055 160.87 77.0835 160.904 77.0689L160.908 77.067C160.947 77.0504 160.966 77.0427 160.986 77.0377L160.999 77.0344L161.012 77.0297C161.066 77.0097 161.118 76.9905 161.168 76.9718C161.641 76.7974 161.98 76.6724 162.317 76.4947C162.744 76.3021 163.169 76.0682 163.584 75.8401L163.588 75.8376L163.596 75.8334L163.603 75.8287L165.137 74.8413L165.137 74.8413L165.142 74.8381C165.856 74.3547 166.599 73.8457 167.321 73.272L167.323 73.2705L167.764 72.9134L167.764 72.9135L167.772 72.907C167.939 72.7603 168.107 72.6139 168.274 72.4673L168.276 72.4659L168.276 72.466L168.282 72.4601C168.33 72.4152 168.376 72.3722 168.42 72.3308C168.683 72.0856 168.887 71.8953 169.074 71.6894L169.076 71.6873L169.412 71.3091L169.412 71.3084C169.731 70.9474 170.032 70.5818 170.313 70.1712C170.697 69.6162 170.976 69.1452 171.233 68.6532L171.233 68.6532L171.234 68.6494C171.362 68.3941 171.489 68.1189 171.616 67.8233L171.718 67.6198L171.721 67.6132L171.724 67.6065C171.746 67.5543 171.769 67.5022 171.792 67.4497C171.894 67.2156 171.998 66.9762 172.087 66.71C172.195 66.4265 172.282 66.1236 172.365 65.8337L172.365 65.8327L172.365 65.8314L172.512 65.3059L172.512 65.3055C172.536 65.2197 172.562 65.1312 172.588 65.0405C172.673 64.7432 172.765 64.4218 172.832 64.0908C172.832 64.0905 172.832 64.0903 172.832 64.09L172.587 64.041L160.759 77.1209ZM173.202 61.6744L173.368 61.691L173.432 62.1733L173.131 62.2881L173.202 61.6744ZM173.202 61.6744C173.267 61.0988 173.304 60.5231 173.34 59.9382L173.341 59.9382L173.341 59.9348C173.383 59.0706 173.404 58.3518 173.404 57.6324C173.404 56.8878 173.362 56.1449 173.298 55.4461M173.202 61.6744L173.298 55.4461M173.298 55.4461C173.234 54.704 173.149 54.0663 173.043 53.4701L173.043 53.4693C172.915 52.7682 172.788 52.2368 172.661 51.7304L172.661 51.7303C172.552 51.2936 172.4 50.9032 172.253 50.5449M173.298 55.4461L196.459 63.521L196.521 62.4918L196.522 62.4838L196.523 62.4759C196.563 62.1579 196.563 61.8375 196.563 61.4775V61.4756V61.4736V61.4716V61.4697V61.4677V61.4657V61.4637V61.4618V61.4598V61.4578V61.4558V61.4539V61.4519V61.4499V61.4479V61.446V61.444V61.442V61.44V61.438V61.4361V61.4341V61.4321V61.4301V61.4281V61.4262V61.4242V61.4222V61.4202V61.4182V61.4162V61.4143V61.4123V61.4103V61.4083V61.4063V61.4043V61.4023V61.4004V61.3984V61.3964V61.3944V61.3924V61.3904V61.3884V61.3864V61.3844V61.3824V61.3804V61.3785V61.3765V61.3745V61.3725V61.3705V61.3685V61.3665V61.3645V61.3625V61.3605V61.3585V61.3565V61.3545V61.3525V61.3505V61.3485V61.3465V61.3445V61.3425V61.3405V61.3385V61.3365V61.3345V61.3325V61.3305V61.3285V61.3265V61.3245V61.3225V61.3205V61.3185V61.3165V61.3145V61.3125V61.3105V61.3084V61.3064V61.3044V61.3024V61.3004V61.2984V61.2964V61.2944V61.2924V61.2904V61.2884V61.2863V61.2843V61.2823V61.2803V61.2783V61.2763V61.2743V61.2722V61.2702V61.2682V61.2662V61.2642V61.2622V61.2602V61.2581V61.2561V61.2541V61.2521V61.2501V61.248V61.246V61.244V61.242V61.24V61.2379V61.2359V61.2339V61.2319V61.2299V61.2278V61.2258V61.2238V61.2218V61.2197V61.2177V61.2157V61.2137V61.2116V61.2096V61.2076V61.2056V61.2035V61.2015V61.1995V61.1975V61.1954V61.1934V61.1914V61.1893V61.1873V61.1853V61.1832V61.1812V61.1792V61.1772V61.1751V61.1731V61.1711V61.169V61.167V61.165V61.1629V61.1609V61.1589V61.1568V61.1548V61.1528V61.1507V61.1487V61.1466V61.1446V61.1426V61.1405V61.1385V61.1365V61.1344V61.1324V61.1303V61.1283V61.1263V61.1242V61.1222V61.1201V61.1181V61.1161V61.114V61.112V61.1099V61.1079V61.1059V61.1038V61.1018V61.0997V61.0977V61.0956V61.0936V61.0915V61.0895V61.0875V61.0854V61.0834V61.0813V61.0793V61.0772V61.0752V61.0731V61.0711V61.069V61.067V61.0649V61.0629V61.0608V61.0588V61.0567V61.0547V61.0526V61.0506V61.0485V61.0465V61.0444V61.0424V61.0403V61.0383V61.0362V61.0342V61.0321V61.0301V61.028V61.026V61.0239V61.0218V61.0198V61.0177V61.0157V61.0136V61.0116V61.0095V61.0075V61.0054V61.0033V61.0013V60.9992V60.9972V60.9951V60.9931V60.991V60.9889V60.9869V60.9848V60.9828V60.9807V60.9786V60.9766V60.9745V60.9725V60.9704V60.9683V60.9663V60.9642V60.9622V60.9601V60.958V60.956V60.9539V60.9518V60.9498V60.9477V60.9456V60.9436V60.9415V60.9395V60.9374V60.9353V60.9333V60.9312V60.9291V60.9271V60.925V60.9229V60.9209V60.9188V60.9167V60.9147V60.9126V60.9105V60.9085V60.9064V60.9043V60.9023V60.9002V60.8981V60.896V60.894V60.8919V60.8898V60.8878V60.8857V60.8836V60.8816V60.8795V60.8774V60.8753V60.8733V60.8712V60.8691V60.8671V60.865V60.8629V60.8608V60.8588V60.8567V60.8546V60.8525V60.8505V60.8484V60.8463V60.8442V60.8422V60.8401V60.838V60.8359V60.8339V60.8318V60.8297V60.8276V60.8256V60.8235V60.8214V60.8193V60.8173V60.8152V60.8131V60.811V60.809V60.8069V60.8048V60.8027V60.8006V60.7986V60.7965V60.7944V60.7923V60.7903V60.7882V60.7861V60.784V60.7819V60.7799V60.7778V60.7757V60.7736V60.7715V60.7695V60.7674V60.7653V60.7632V60.7611V60.7591V60.757V60.7549V60.7528V60.7507V60.7486V60.7466V60.7445V60.7424V60.7403V60.7382V60.7361V60.7341V60.732V60.7299V60.7278V60.7257V60.7236V60.7216V60.7195V60.7174V60.7153V60.7132V60.7111V60.7091V60.707V60.7049V60.7028V60.7007V60.6986V60.6965V60.6945V60.6924V60.6903V60.6882V60.6861V60.684V60.6819V60.6799V60.6778V60.6757V60.6736V60.6715V60.6694V60.6673V60.6652V60.6632V60.6611V60.659V60.6569V60.6548V60.6527V60.6506V60.6485V60.6465V60.6444V60.6423V60.6402V60.6381V60.636V60.6339V60.6318V60.6298V60.6277V60.6256V60.6235V60.6214V60.6193V60.6172V60.6151V60.613V60.6109V60.6089V60.6068V60.6047V60.6026V60.6005V60.5984V60.5963V60.5942V60.5921V60.59V60.588V60.5859V60.5838V60.5817V60.5796V60.5775V60.5754V60.5733V60.5712V60.5691V60.567V60.565V60.5629V60.5608V60.5587V60.5566V60.5545V60.5524V60.5503V60.5482V60.5461V60.544V60.5419V60.5398V60.5378V60.5357V60.5336V60.5315V60.5294V60.5273V60.5252V60.5231V60.521V60.5189V60.5168V60.5147V60.5126V60.5106V60.5085V60.5064V60.5043V60.5022V60.5001V60.498V60.4959V60.4938V60.4917V60.4896V60.4875V60.4854V60.4833V60.4812V60.4792V60.4771V60.475V60.4729V60.4708V60.4687V60.4666V60.4645V60.4624V60.4603V60.4582V60.4561V60.454V60.4519V60.4498V60.4478V60.4457V60.4436V60.4415V60.4394V60.4373V60.4352V60.4331V60.431V60.4289V60.4268C196.563 60.2526 196.558 60.0777 196.553 59.8985L196.553 59.8971C196.547 59.7218 196.542 59.5424 196.542 59.3622C196.521 58.9873 196.5 58.6346 196.459 58.1582L196.459 58.1522L196.459 58.1522C196.438 57.8253 196.397 57.4973 196.355 57.1602C196.335 57.0076 196.309 56.8543 196.283 56.6963L196.283 56.6946C196.256 56.5382 196.23 56.3773 196.208 56.2157L196.206 56.1992V56.1962M172.253 50.5449L172.252 50.5446L172.247 50.5296L172.227 50.4757L172.165 50.3048C172.118 50.1777 172.064 50.0318 172.041 49.9752L172.042 49.975L172.036 49.9632C171.782 49.4112 171.518 48.9461 171.224 48.6048M172.253 50.5449L172.254 50.5485L172.254 50.5495L172.254 50.5497L172.254 50.5498L172.254 50.5498L172.019 50.6353M172.253 50.5449C172.252 50.5433 172.251 50.5417 172.251 50.5401L172.019 50.6353M171.224 48.6048C170.754 48.0244 170.217 47.6861 169.612 47.6134L169.612 47.6133L169.605 47.6127C169.513 47.6044 169.456 47.5244 169.471 47.4441L169.473 47.4343L169.474 47.4244C169.481 47.3476 169.554 47.2779 169.634 47.2716M171.224 48.6048C171.225 48.6059 171.226 48.607 171.226 48.6081L171.032 48.7652M171.224 48.6048C171.223 48.6037 171.222 48.6026 171.221 48.6015L171.032 48.7652M169.634 47.2716L192.496 50.064L192.498 50.0642C193.151 50.1388 193.769 50.5126 194.328 51.1915M169.634 47.2716L169.615 47.2693L169.645 47.0212V47.2712C169.641 47.2712 169.637 47.2713 169.634 47.2716ZM194.328 51.1915C194.629 51.5722 194.912 52.0366 195.177 52.6286L195.177 52.6287L195.182 52.6381C195.223 52.7211 195.253 52.8131 195.287 52.9177C195.296 52.9457 195.305 52.9747 195.315 53.0046L195.317 53.0117L195.32 53.0186L195.403 53.2254M194.328 51.1915C194.328 51.1908 194.327 51.1901 194.327 51.1895L194.523 51.0345M194.328 51.1915C194.329 51.1921 194.329 51.1928 194.33 51.1934L194.523 51.0345M195.403 53.2254C195.55 53.6237 195.693 54.013 195.816 54.4418M195.403 53.2254C195.403 53.2244 195.402 53.2233 195.402 53.2222L195.636 53.1358M195.403 53.2254L195.404 53.2287L195.636 53.1358M195.816 54.4418C195.983 55.0681 196.085 55.5007 196.168 55.973L196.168 55.9749L196.168 55.9749L196.168 55.975L196.168 55.9755L196.168 55.9774L196.17 55.9846L196.174 56.0107L196.189 56.0912C196.194 56.1211 196.199 56.1507 196.202 56.1736L196.206 56.1962M195.816 54.4418C195.815 54.4411 195.815 54.4404 195.815 54.4397L196.057 54.3753M195.816 54.4418C195.816 54.4425 195.816 54.4433 195.816 54.4441L196.057 54.3753M196.206 56.1962L196.206 56.1997C196.207 56.201 196.207 56.2021 196.207 56.203C196.206 56.1992 196.206 56.1915 196.206 56.1825V56.1962ZM196.057 54.3753C195.931 53.9342 195.784 53.5349 195.636 53.1358M196.057 54.3753C196.225 55.0058 196.33 55.4469 196.414 55.9302C196.414 55.9302 196.456 56.1614 196.456 56.1825L195.636 53.1358M195.636 53.1358L195.552 52.9257M195.636 53.1358L195.552 52.9257M195.552 52.9257C195.544 52.9011 195.536 52.8757 195.528 52.8498C195.493 52.743 195.456 52.6279 195.405 52.5263C195.132 51.9169 194.838 51.4337 194.523 51.0345M195.552 52.9257L192.527 49.8158C193.262 49.8998 193.934 50.3201 194.523 51.0345M171.032 48.7652C171.305 49.0804 171.557 49.5216 171.809 50.0679M171.032 48.7652C170.591 48.2189 170.107 47.9247 169.582 47.8617C169.351 47.8407 169.183 47.6305 169.225 47.3994L171.809 50.0679M171.809 50.0679C171.851 50.173 172.019 50.6353 172.019 50.6353M171.809 50.0679L172.019 50.6353" fill="#D08126" stroke="black" stroke-width="0.5"/>
<path d="M188.64 52.3372C188.64 52.3372 188.745 52.1899 188.808 52.106C189.081 51.7697 189.354 51.4756 189.627 51.2234C189.669 51.1814 189.732 51.1184 189.774 51.0764C190.068 50.8032 190.362 50.5721 190.657 50.404C190.951 50.2149 191.266 50.0888 191.56 50.0048C191.602 50.0048 191.623 50.0048 191.665 49.9837C191.959 49.9207 192.275 49.8787 192.569 49.9207L169.75 47.1261C169.75 47.1261 169.624 47.1261 169.561 47.1261C169.414 47.1261 169.246 47.1261 169.099 47.1471C169.015 47.1471 168.931 47.1891 168.868 47.2102C168.826 47.2102 168.805 47.2102 168.763 47.2312C168.721 47.2312 168.679 47.2312 168.636 47.2522C168.489 47.2942 168.321 47.3572 168.174 47.4413C168.069 47.5043 167.964 47.5464 167.838 47.6094C167.775 47.6514 167.733 47.6724 167.67 47.7144C167.502 47.8195 167.334 47.9456 167.166 48.0927C167.082 48.1557 167.019 48.2187 166.956 48.3028C166.914 48.3448 166.851 48.3868 166.809 48.4499C166.746 48.5129 166.703 48.5549 166.641 48.5969C166.43 48.8071 166.241 49.0172 166.052 49.2483C166.052 49.2693 166.01 49.2904 165.989 49.3114C165.926 49.3744 165.884 49.4584 165.821 49.5425C165.674 49.7316 165.527 49.9207 165.38 50.1308C165.317 50.2149 165.275 50.2989 165.233 50.383C165.107 50.5721 164.981 50.7822 164.854 50.9923C164.77 51.1394 164.686 51.2655 164.602 51.4126C164.497 51.6016 164.392 51.7908 164.287 52.0009C163.867 52.7993 163.51 53.7028 163.173 54.6485C163.068 54.9215 162.984 55.2158 162.879 55.5098C162.648 56.2243 162.438 56.9597 162.228 57.7372C162.186 57.9263 162.123 58.0944 162.06 58.3045C162.018 58.5146 161.976 58.7247 161.934 58.9348C161.892 59.166 161.829 59.3761 161.787 59.6073C161.745 59.8174 161.703 60.0275 161.661 60.2376C161.556 60.7629 161.472 61.3092 161.388 61.8345C161.388 61.8765 161.388 61.9396 161.388 61.9815C161.388 62.0657 161.388 62.1288 161.367 62.2127C161.325 62.5699 161.261 62.9481 161.219 63.3263C161.177 63.7887 161.114 64.2509 161.093 64.7342C161.093 64.7762 161.093 64.8393 161.093 64.8813C161.093 64.9443 161.093 65.0074 161.093 65.0705C161.072 65.4276 161.051 65.7639 161.03 66.121C161.009 66.5832 160.988 67.0245 160.988 67.4869C160.988 67.5709 160.988 67.6759 160.988 67.7599C160.988 67.844 160.988 67.9491 160.988 68.033C160.988 68.3062 160.988 68.5794 160.988 68.8526C160.988 69.3148 160.988 69.7772 161.03 70.2394C161.03 70.3655 161.03 70.4706 161.051 70.5965C161.051 70.7018 161.051 70.8277 161.072 70.9328C161.072 71.1639 161.093 71.416 161.114 71.6472C161.156 72.1514 161.198 72.6558 161.261 73.1602C161.261 73.2861 161.283 73.3912 161.303 73.5173L184.122 76.3119C184.017 75.4713 183.933 74.6098 183.87 73.7274C183.87 73.6223 183.87 73.4962 183.849 73.3912C183.807 72.5507 183.786 71.6892 183.786 70.8277C183.786 70.7437 183.786 70.6387 183.786 70.5545C183.786 69.6721 183.828 68.7686 183.912 67.886C183.912 67.8229 183.912 67.7599 183.912 67.697C183.975 66.7935 184.08 65.9109 184.206 65.0285C184.206 64.9443 184.206 64.8813 184.227 64.7973C184.332 63.9988 184.479 63.2004 184.647 62.4228C184.689 62.1919 184.732 61.9815 184.794 61.7505C184.879 61.3512 184.984 60.9521 185.089 60.5739C185.278 59.7963 185.488 59.061 185.74 58.3465C185.845 58.0524 185.929 57.7581 186.034 57.4852C186.37 56.5395 186.749 55.636 187.148 54.8375C187.337 54.4804 187.526 54.1652 187.715 53.829C187.841 53.6189 187.967 53.4297 188.093 53.2196C188.282 52.9255 188.492 52.6523 188.703 52.3791L188.64 52.3372Z" fill="#FDC558" stroke="black" stroke-width="0.5" stroke-miterlimit="10"/>
<path d="M145.147 59.8209C145.147 60.6142 145.233 61.4248 145.359 62.29C145.487 63.2278 145.658 63.9527 145.848 64.6723L145.848 64.6724L145.851 64.6818L146.019 65.2265C146.019 65.2268 146.019 65.2271 146.019 65.2273C146.272 66.0712 146.507 66.7359 146.788 67.3196C147.195 68.2186 147.729 69.1156 148.348 69.9475L148.353 69.9544L148.359 69.9609L148.608 70.2516C149.093 70.8635 149.606 71.462 150.165 71.9782L150.165 71.9782L150.168 71.9814L150.452 72.2335L150.736 72.4858L150.737 72.4871L150.905 72.6341L150.906 72.6346C151.391 73.0569 151.882 73.4619 152.395 73.826C152.395 73.8262 152.396 73.8264 152.396 73.8265L152.92 74.2037L152.919 74.2039L152.93 74.2107C153.647 74.6743 154.369 75.1209 155.116 75.5049L155.116 75.505L155.123 75.5085L155.52 75.6964C156.153 76.0131 156.788 76.3093 157.445 76.5847L157.446 76.5853L157.449 76.5865C157.803 76.732 158.163 76.8805 158.525 77.0084C158.949 77.1778 159.372 77.3259 159.789 77.4719L159.791 77.4726L159.793 77.4733C160.846 77.8315 161.901 78.169 162.873 78.4437L162.874 78.444C163.243 78.5464 163.598 78.6416 163.943 78.734C164.319 78.8349 164.683 78.9324 165.038 79.0322L165.042 79.0332C166.164 79.3299 167.391 79.5834 168.74 79.8154L168.744 79.816L169.143 79.8789L169.146 79.8794C170.474 80.0692 171.808 80.2176 173.082 80.26L173.084 80.2601C173.649 80.2811 174.22 80.3023 174.771 80.3023H174.776C175.294 80.3023 175.823 80.3023 176.354 80.2603C176.429 80.2636 176.487 80.3133 176.502 80.3796L176.502 80.3797C176.523 80.4751 176.474 80.5602 176.424 80.5849L176.424 80.5849L176.419 80.5875L164.442 86.9114C163.766 86.9882 163.244 86.9883 162.71 86.9883H162.437H161.835L161.874 87.0274C161.595 87.0232 161.315 87.0131 161.029 86.9892L161.019 86.9883H161.008C160.62 86.9883 160.249 86.9512 159.847 86.9109L159.793 86.9056L159.793 86.9055L159.787 86.905C158.936 86.8427 158.083 86.7389 157.245 86.6342L156.834 86.552L156.834 86.5518L156.824 86.5503C156.026 86.4242 155.403 86.3202 154.76 86.1751L154.76 86.1751L154.755 86.1742C154.15 86.0489 153.525 85.903 152.922 85.7367L152.922 85.7366L152.916 85.7351C152.438 85.6155 151.939 85.4748 151.415 85.3269C151.207 85.2683 150.996 85.2085 150.779 85.1484L150.778 85.148C149.777 84.8769 148.732 84.5426 147.665 84.1659L147.665 84.1658L147.658 84.1634L147.201 84.0184C147.115 83.9859 146.917 83.9096 146.737 83.8402L146.495 83.7467L146.419 83.7173L146.398 83.7092L146.392 83.707L146.391 83.7065L146.391 83.7065C146.283 83.6644 146.178 83.6247 146.075 83.5856C145.809 83.4848 145.556 83.3886 145.288 83.2697L145.288 83.2695L145.278 83.2654L144.799 83.078C144.365 82.8893 143.947 82.6828 143.512 82.4573L143.481 82.1108L143.004 82.0309L142.938 82.1786C142.253 81.8251 141.657 81.4957 141.104 81.1274C141.103 81.1269 141.103 81.1265 141.102 81.126L139.933 80.3119C139.845 80.2463 139.758 80.1865 139.676 80.1299L139.676 80.1298C139.591 80.0716 139.511 80.0167 139.432 79.9573C139.274 79.8386 139.115 79.6995 138.976 79.5604L138.976 79.5603L138.969 79.5539L138.675 79.2808L138.675 79.2807L138.67 79.2765C138.542 79.1635 138.435 79.071 138.342 78.9909C138.168 78.8405 138.044 78.7335 137.925 78.6148L137.926 78.6145L137.916 78.6056C137.808 78.5092 137.733 78.4447 137.678 78.397L137.677 78.3968C137.621 78.3487 137.593 78.3241 137.57 78.3014C137.137 77.848 136.724 77.3519 136.33 76.8332L136.324 76.8255L136.317 76.8183C136.236 76.7268 136.185 76.6662 136.147 76.6196L136.143 76.6148C136.111 76.5767 136.082 76.5418 136.048 76.5071C135.536 75.808 135.084 75.0686 134.715 74.3301L134.465 73.8297C134.239 73.3356 134.032 72.7983 133.844 72.2771L133.844 72.2771L133.842 72.27C133.842 72.2699 133.84 72.2644 133.835 72.2498C133.83 72.2341 133.824 72.213 133.816 72.1867C133.8 72.1343 133.78 72.0644 133.756 71.9824C133.709 71.8188 133.65 71.6099 133.592 71.4039C133.535 71.198 133.478 70.9953 133.436 70.8441L133.386 70.6619L133.372 70.6111L133.368 70.5978L133.368 70.5973C133.244 70.0824 133.141 69.5676 133.059 69.0529L133.059 69.0515L133.056 69.0252L133.049 68.944C133.047 68.914 133.044 68.8838 133.042 68.86C133.04 68.8372 133.04 68.8286 133.04 68.8286C133.04 68.8286 133.04 68.8297 133.04 68.8316V68.8147L133.037 68.7979C133.023 68.6927 133.009 68.5929 132.995 68.4974C132.948 68.1644 132.908 67.8828 132.892 67.5991L132.892 67.5991L132.892 67.5905C132.85 67.1364 132.829 66.702 132.809 66.2417V66.2396V66.237V66.2345V66.2319V66.2293V66.2267V66.2241V66.2215V66.219V66.2164V66.2138V66.2112V66.2086V66.2061V66.2035V66.2009V66.1983V66.1958V66.1932V66.1906V66.188V66.1855V66.1829V66.1803V66.1777V66.1752V66.1726V66.17V66.1674V66.1649V66.1623V66.1597V66.1572V66.1546V66.152V66.1495V66.1469V66.1443V66.1418V66.1392V66.1366V66.1341V66.1315V66.1289V66.1264V66.1238V66.1213V66.1187V66.1161V66.1136V66.111V66.1084V66.1059V66.1033V66.1008V66.0982V66.0957V66.0931V66.0905V66.088V66.0854V66.0829V66.0803V66.0778V66.0752V66.0727V66.0701V66.0676V66.065V66.0625V66.0599V66.0574V66.0548V66.0523V66.0497V66.0472V66.0446V66.0421V66.0395V66.037V66.0344V66.0319V66.0293V66.0268V66.0242V66.0217V66.0192V66.0166V66.0141V66.0115V66.009V66.0064V66.0039V66.0014V65.9988V65.9963V65.9937V65.9912V65.9887V65.9861V65.9836V65.9811V65.9785V65.976V65.9735V65.9709V65.9684V65.9659V65.9633V65.9608V65.9583V65.9557V65.9532V65.9507V65.9481V65.9456V65.9431V65.9406V65.938V65.9355V65.933V65.9305V65.9279V65.9254V65.9229V65.9204V65.9178V65.9153V65.9128V65.9103V65.9077V65.9052V65.9027V65.9002V65.8977V65.8951V65.8926V65.8901V65.8876V65.8851V65.8825V65.88V65.8775V65.875V65.8725V65.87V65.8675V65.8649V65.8624V65.8599V65.8574V65.8549V65.8524V65.8499V65.8474V65.8448V65.8423V65.8398V65.8373V65.8348V65.8323V65.8298V65.8273V65.8248V65.8223V65.8198V65.8173V65.8148V65.8123V65.8098V65.8073V65.8048V65.8023V65.7998V65.7973V65.7948V65.7922V65.7898V65.7873V65.7848V65.7823V65.7798V65.7773V65.7748V65.7723V65.7698V65.7673V65.7648V65.7623V65.7598V65.7573V65.7548V65.7523V65.7498V65.7473V65.7448V65.7424V65.7399V65.7374V65.7349V65.7324V65.7299V65.7274V65.7249V65.7225V65.72V65.7175V65.715V65.7125V65.71V65.7075V65.7051V65.7026V65.7001V65.6976V65.6951V65.6927V65.6902V65.6877V65.6852V65.6827V65.6803V65.6778V65.6753V65.6728V65.6704V65.6679V65.6654V65.6629V65.6605V65.658V65.6555V65.653V65.6506V65.6481V65.6456V65.6431V65.6407V65.6382V65.6357V65.6333V65.6308V65.6283V65.6259V65.6234V65.6209V65.6185V65.616V65.6135V65.6111V65.6086V65.6061V65.6037V65.6012V65.5988V65.5963V65.5938V65.5914V65.5889V65.5864V65.584V65.5815V65.5791V65.5766V65.5742V65.5717V65.5692V65.5668V65.5643V65.5619V65.5594V65.557V65.5545V65.5521V65.5496V65.5472V65.5447V65.5423V65.5398V65.5374V65.5349V65.5325V65.53V65.5276V65.5251V65.5227V65.5202V65.5178V65.5153V65.5129V65.5104V65.508V65.5055V65.5031V65.5007V65.4982V65.4958V65.4933V65.4909V65.4884V65.486V65.4836V65.4811V65.4787V65.4763V65.4738V65.4714V65.4689V65.4665V65.4641V65.4616V65.4592V65.4568V65.4543V65.4519V65.4495V65.447V65.4446V65.4422V65.4397V65.4373V65.4349V65.4324V65.43V65.4276V65.4252V65.4227V65.4203V65.4179V65.4155V65.413V65.4106V65.4082V65.4058V65.4033V65.4009V65.3985V65.3961V65.3936V65.3912V65.3888V65.3864V65.384V65.3815V65.3791V65.3767V65.3743V65.3719V65.3694V65.367V65.3646V65.3622V65.3598V65.3574V65.355V65.3525V65.3501V65.3477V65.3453V65.3429V65.3405V65.3381V65.3357V65.3332V65.3308V65.3284V65.326V65.3236V65.3212V65.3188V65.3164V65.314V65.3116V65.3092V65.3068V65.3044V65.302V65.2996V65.2972V65.2948V65.2924V65.29V65.2875V65.2852V65.2827V65.2803V65.278V65.2756V65.2732V65.2708V65.2684V65.266V65.2636V65.2612V65.2588V65.2564V65.254V65.2516V65.2492V65.2468V65.2444V65.242V65.2396V65.2372V65.2349V65.2325V65.2301V65.2277V65.2253V65.2229V65.2205V65.2181V65.2157V65.2134V65.211V65.2086V65.2062V65.2038V65.2014V65.1991V65.1967V65.1943V65.1919V65.1895V65.1871V65.1848V65.1824V65.18V65.1776V65.1753V65.1729V65.1705V65.1681V65.1657V65.1634V65.161V65.1586V65.1562V65.1539V65.1515V65.1491V65.1467V65.1444V65.142V65.1396V65.1373V65.1349V65.1325V65.1302V65.1278V65.1254V65.1231V65.1207V65.1183V65.116V65.1136V65.1112V65.1089V65.1065V65.1041V65.1018V65.0994V65.097V65.0947V65.0923V65.09V65.0876V65.0852V65.0829V65.0805V65.0782V65.0758V65.0734V65.0711V65.0687V65.0664V65.064V65.0617V65.0593V65.0569V65.0546V65.0522V65.0499V65.0475V65.0452V65.0428V65.0405V65.0381V65.0358V65.0334V65.0311V65.0287V65.0264V65.024V65.0217V65.0193V65.017V65.0147V65.0123V65.01V65.0076V65.0053V65.0029V65.0006V64.9982V64.9959V64.9936V64.9912V64.9889V64.9865C132.809 64.603 132.849 64.2164 132.891 63.8374L132.891 63.8375L132.892 63.8326L132.892 63.8326L132.892 63.8326L132.892 63.8326L132.892 63.8326L132.892 63.8323L132.892 63.8307L132.892 63.8289H132.908L132.933 63.6064C132.974 63.2358 133.015 62.9896 133.057 62.7627C133.12 62.4262 133.181 62.0981 133.263 61.7711L133.514 60.8297C133.595 60.5469 133.696 60.2632 133.818 59.9791C133.848 59.9083 133.877 59.8402 133.904 59.7741C133.996 59.5555 134.079 59.3588 134.186 59.1592C134.186 59.159 134.186 59.1588 134.186 59.1586L134.312 58.9289L134.312 58.929L134.316 58.9209C134.4 58.753 134.471 58.6291 134.544 58.5034C134.577 58.4457 134.61 58.3876 134.645 58.3247C134.825 58.0249 135.026 57.7427 135.23 57.4778L135.642 57.0243C136.24 56.3852 136.727 55.9808 137.208 55.6801L137.209 55.6802L137.214 55.6762C137.293 55.6241 137.366 55.5838 137.454 55.535C137.497 55.5114 137.543 55.4858 137.596 55.456L149.57 49.1229C149.58 49.1197 149.594 49.1158 149.608 49.1119C149.624 49.1076 149.64 49.1039 149.653 49.1015C149.66 49.1001 149.664 49.0996 149.665 49.0993C149.715 49.1006 149.778 49.1301 149.819 49.1983C149.86 49.2879 149.821 49.3904 149.751 49.4293L149.751 49.4291L149.743 49.4334C149.696 49.4618 149.643 49.4908 149.584 49.5228L149.582 49.5241C149.526 49.5546 149.465 49.588 149.408 49.6221C148.92 49.9107 148.461 50.3056 147.97 50.8176L147.72 51.0679L147.712 51.0763L147.704 51.0854C147.295 51.5806 146.929 52.1195 146.626 52.6811L146.626 52.681L146.623 52.6878C146.26 53.4133 145.981 54.0995 145.766 54.8303L145.766 54.8303L145.764 54.8361C145.531 55.7062 145.382 56.4307 145.275 57.1987L145.275 57.1987L145.274 57.2055C145.168 58.1587 145.125 58.9889 145.147 59.8209ZM145.147 59.8209C145.147 59.8198 145.147 59.8187 145.147 59.8176H145.397L145.147 59.8241C145.147 59.823 145.147 59.8219 145.147 59.8209Z" fill="#ED932C" stroke="black" stroke-width="0.5"/>
<path d="M152.709 59.2082C153.424 59.7756 154.075 60.364 154.705 60.9943C154.915 61.2044 155.126 61.4565 155.336 61.6666C155.651 62.0028 155.945 62.3391 156.239 62.6751C156.449 62.9274 156.638 63.2006 156.849 63.4527C157.101 63.7889 157.374 64.125 157.605 64.4823C157.794 64.7555 157.962 65.0285 158.151 65.3017C158.382 65.6379 158.592 65.9951 158.803 66.3524C158.971 66.6256 159.118 66.9196 159.286 67.1928C159.475 67.55 159.664 67.8862 159.853 68.2434C159.979 68.4956 160.105 68.7266 160.21 68.9789C160.505 69.5882 160.778 70.1976 161.03 70.7859C161.093 70.933 161.156 71.08 161.219 71.2272C161.513 71.9626 161.786 72.656 162.017 73.3494C162.08 73.5175 162.122 73.7065 162.185 73.8746C162.354 74.379 162.501 74.8623 162.627 75.3245C162.69 75.5135 162.732 75.7027 162.795 75.8917C162.921 76.375 163.047 76.8374 163.152 77.2576C163.173 77.3627 163.215 77.4677 163.236 77.5517C163.257 77.6567 163.278 77.7409 163.299 77.846C163.362 78.1191 163.425 78.3923 163.467 78.6444C163.488 78.7495 163.509 78.8545 163.53 78.9596C163.572 79.1697 163.614 79.3798 163.656 79.569C163.656 79.653 163.698 79.7371 163.698 79.8211C163.74 80.0523 163.782 80.2624 163.803 80.4305L175.822 74.0847C175.801 73.9166 175.759 73.7065 175.717 73.4755C175.717 73.4124 175.696 73.3283 175.675 73.2443C175.633 73.0551 175.612 72.8661 175.549 72.6349C175.528 72.5298 175.507 72.4248 175.486 72.3197C175.423 72.0676 175.381 71.7945 175.297 71.5002C175.276 71.4162 175.255 71.3323 175.234 71.2272C175.234 71.2061 175.234 71.1641 175.234 71.1431C175.234 71.08 175.192 70.996 175.171 70.9119C175.066 70.4916 174.94 70.0295 174.813 69.5462C174.771 69.3572 174.708 69.189 174.645 68.9998C174.519 68.5376 174.351 68.0543 174.204 67.55C174.162 67.424 174.12 67.2979 174.078 67.1508C174.078 67.1089 174.036 67.0667 174.036 67.0247C173.805 66.3313 173.532 65.6379 173.238 64.9025C173.175 64.7553 173.112 64.6083 173.048 64.4612C172.796 63.8729 172.523 63.2635 172.229 62.6542C172.166 62.5281 172.124 62.402 172.061 62.276C171.998 62.1499 171.935 62.0239 171.872 61.9189C171.704 61.5615 171.515 61.2253 171.305 60.8681C171.158 60.5741 170.989 60.3009 170.821 60.0277C170.611 59.6706 170.401 59.3343 170.17 58.9981C169.981 58.7249 169.813 58.4517 169.624 58.1785C169.393 57.8425 169.119 57.5062 168.867 57.1491C168.657 56.8968 168.468 56.6236 168.258 56.3715C167.985 56.0353 167.67 55.6992 167.354 55.363C167.186 55.174 167.018 54.9639 166.829 54.7747C166.787 54.7327 166.745 54.7116 166.724 54.6696C166.094 54.0393 165.442 53.451 164.749 52.8835C164.707 52.8415 164.665 52.8206 164.644 52.7785C164.203 52.4424 163.74 52.1272 163.278 51.8119C163.194 51.749 163.11 51.6859 163.026 51.644C163.026 51.644 163.026 51.644 163.005 51.644C162.543 51.3497 162.08 51.0766 161.597 50.8244C161.408 50.7193 161.198 50.6143 160.988 50.5302C160.61 50.3411 160.231 50.173 159.874 50.0049C159.706 49.9209 159.538 49.8788 159.349 49.7948C159.118 49.7108 158.908 49.6057 158.677 49.5216C158.53 49.4586 158.382 49.3956 158.256 49.3536C157.92 49.2275 157.605 49.1434 157.269 49.0384C157.185 49.0174 157.101 48.9753 157.017 48.9543C156.996 48.9543 156.954 48.9543 156.933 48.9333C156.554 48.8283 156.197 48.7442 155.819 48.6602C155.672 48.6391 155.546 48.6181 155.42 48.5761C155.336 48.5761 155.231 48.5341 155.147 48.5341C155.042 48.5341 154.937 48.4921 154.852 48.4711C154.558 48.429 154.264 48.387 153.97 48.366C153.844 48.366 153.718 48.366 153.592 48.345C153.445 48.345 153.298 48.345 153.172 48.345C152.898 48.345 152.646 48.345 152.394 48.366C152.394 48.366 152.394 48.366 152.373 48.366C152.352 48.366 152.31 48.366 152.289 48.366C152.058 48.366 151.848 48.408 151.638 48.429C151.533 48.429 151.427 48.4711 151.344 48.4921C151.259 48.4921 151.154 48.5341 151.07 48.5551C151.007 48.5551 150.923 48.5761 150.839 48.5971C150.671 48.6391 150.503 48.7022 150.314 48.7652C150.209 48.8072 150.104 48.8283 149.999 48.8703C149.978 48.8703 149.936 48.8703 149.915 48.8913C149.621 48.9963 149.326 49.1434 149.032 49.2905L137.014 55.6362C137.329 55.4681 137.644 55.3419 137.98 55.216C138.085 55.174 138.19 55.1529 138.295 55.1109C138.547 55.0268 138.779 54.9639 139.031 54.9008C139.115 54.9008 139.22 54.8586 139.304 54.8377C139.619 54.7747 139.934 54.7327 140.27 54.7116C140.291 54.7116 140.312 54.7116 140.354 54.7116C140.754 54.6907 141.153 54.6696 141.594 54.7116C142.098 54.7327 142.624 54.7958 143.149 54.8797C143.233 54.8797 143.317 54.9217 143.422 54.9217C143.947 55.0268 144.473 55.1318 145.019 55.2999C145.103 55.321 145.187 55.363 145.25 55.3841C145.712 55.5311 146.175 55.6782 146.658 55.8674C146.868 55.9513 147.099 56.0353 147.309 56.1195C147.856 56.3507 148.381 56.5817 148.948 56.8339C149.663 57.17 150.335 57.5693 150.986 57.9684C151.07 58.0315 151.133 58.0735 151.217 58.1366C151.722 58.4728 152.226 58.83 152.709 59.2082Z" fill="#FDC558" stroke="black" stroke-width="0.5" stroke-miterlimit="10"/>
<path d="M195.572 86.9229C181.704 91.9659 169.139 88.793 163.97 87.1541C168.782 84.6747 173.573 82.1952 178.384 79.7368C181.41 80.6824 185.15 81.5648 189.499 81.9642C196.853 82.6365 203.031 81.6488 207.317 80.5983C204.376 82.8046 200.467 85.179 195.593 86.944L195.572 86.9229Z" fill="#ED932C" stroke="black" stroke-width="0.5" stroke-miterlimit="10"/>
<path d="M186.1 77.3203C185.827 76.6269 185.617 75.8704 185.365 74.8199L185.281 74.4208M186.1 77.3203L174.271 82.7436H174.271H174.271L174.271 82.7436L174.272 82.7436L174.273 82.7436L174.268 82.7434C174.263 82.7431 174.256 82.7424 174.248 82.7412C174.241 82.7401 174.236 82.7389 174.233 82.7382L174.229 82.7351L174.22 82.7291L174.196 82.7194C174.174 82.7107 174.154 82.6973 174.138 82.6805M186.1 77.3203C186.184 77.5304 186.1 77.7616 185.869 77.8458L186.1 77.3203ZM185.281 74.4208C185.113 73.6221 185.008 72.8448 184.924 72.0674V71.7521M185.281 74.4208L185.036 74.4723M185.281 74.4208L185.036 74.4723C184.866 73.6623 184.76 72.8759 184.675 72.0943L184.674 72.0809V72.0674V71.7619M184.924 71.7521C184.861 70.9536 184.861 70.1763 184.924 69.3778L184.945 69.1677C185.029 68.3271 185.155 67.5287 185.344 66.7093C185.533 65.9318 185.785 65.1544 186.163 64.2509C186.458 63.5364 186.815 62.8431 187.214 62.2336L187.361 62.0446M184.924 71.7521L184.674 71.7718C184.674 71.7685 184.674 71.7652 184.674 71.7619M184.924 71.7521H184.674V71.7619M187.361 62.0446C187.718 61.4983 188.118 61.015 188.538 60.5317C188.664 60.3847 188.79 60.2376 188.937 60.0904C189.525 59.502 190.03 59.0399 190.555 58.6616M187.361 62.0446L187.164 61.891L187.158 61.8991M187.361 62.0446L187.152 61.9078C187.154 61.9049 187.156 61.902 187.158 61.8991M190.555 58.6616C191.248 58.1573 192.026 57.7161 192.845 57.3588H192.866M190.555 58.6616L190.409 58.4588C190.409 58.4589 190.408 58.459 190.408 58.4592M190.555 58.6616L190.408 58.4595C190.408 58.4594 190.408 58.4593 190.408 58.4592M192.866 57.3588C193.076 57.2748 193.16 57.0228 193.076 56.8126C193.013 56.6445 192.866 56.5604 192.698 56.5604C192.648 56.5604 192.611 56.5736 192.567 56.5895C192.555 56.5937 192.543 56.5981 192.53 56.6025M192.866 57.3588V57.1088H192.845H192.803M192.866 57.3588L192.845 57.3061L192.773 57.1267C192.784 57.1226 192.793 57.1166 192.803 57.1088M192.53 56.6025L181.058 61.6453M192.53 56.6025L192.609 56.8396C192.613 56.8383 192.617 56.837 192.621 56.8358M192.53 56.6025L192.63 56.8314L192.621 56.8358M181.058 61.6453C180.175 62.0446 179.335 62.5068 178.578 63.0532M181.058 61.6453L181.158 61.8742L181.16 61.8736C180.29 62.2672 179.466 62.7205 178.728 63.2536M181.058 61.6453L181.161 61.8731L192.621 56.8358M178.578 63.0532C178.032 63.4734 177.465 63.9567 176.855 64.587C176.708 64.7342 176.267 65.2175 176.267 65.2175M178.578 63.0532L178.725 63.2558C178.726 63.2551 178.727 63.2544 178.728 63.2536M178.578 63.0532L178.731 63.2513C178.73 63.2521 178.729 63.2529 178.728 63.2536M176.267 65.2175L176.267 65.2175C176.162 65.3226 176.057 65.4276 175.973 65.5327C175.679 65.8891 175.428 66.2664 175.134 66.7066L175.132 66.7093L174.985 66.9194M176.267 65.2175L176.452 65.3861L176.444 65.3945L176.444 65.3943C176.336 65.5017 176.242 65.5966 176.168 65.6887L176.166 65.6916L176.166 65.6916C175.881 66.0373 175.636 66.4046 175.34 66.848L175.337 66.8527L175.337 66.8527L175.194 67.0564M176.267 65.2175L176.452 65.3861L176.452 65.3861L176.452 65.386L176.452 65.3857L176.453 65.3847L176.456 65.3807L176.471 65.3652L176.522 65.3087C176.566 65.2612 176.625 65.1965 176.69 65.1272C176.819 64.9868 176.963 64.8331 177.032 64.7636L177.032 64.7637L177.035 64.7608C177.633 64.1419 178.19 63.6673 178.728 63.2536M174.985 66.9194C174.754 67.2977 174.523 67.6968 174.313 68.117M174.985 66.9194L175.19 67.0628L175.194 67.0564M174.985 66.9194L175.199 67.0498C175.197 67.052 175.196 67.0542 175.194 67.0564M174.313 68.117C174.241 68.2838 174.17 68.4438 174.095 68.6124C174.037 68.7412 173.977 68.8749 173.914 69.0205M174.313 68.117L174.537 68.2288C174.538 68.2266 174.539 68.2245 174.54 68.2223M174.313 68.117L174.543 68.2155C174.542 68.2178 174.541 68.22 174.54 68.2223M173.914 69.0205L173.809 69.2728M173.914 69.0205L174.143 69.1207C174.143 69.12 174.143 69.1194 174.144 69.1187M173.914 69.0205L174.144 69.1166L174.144 69.1187M173.809 69.2728C173.662 69.6299 173.535 70.0081 173.409 70.3863L173.409 70.3864M173.809 69.2728L174.039 69.3689L174.04 69.3684C173.897 69.7142 173.774 70.0819 173.648 70.4594M173.809 69.2728L174.04 69.368L174.144 69.1187M173.409 70.3864C173.304 70.7646 173.199 71.1428 173.073 71.647C172.99 71.9802 172.927 72.3135 172.865 72.6467L172.863 72.6558C172.779 73.0549 172.737 73.4331 172.695 73.8324M173.409 70.3864L173.646 70.4655C173.647 70.4635 173.648 70.4615 173.648 70.4594M173.409 70.3864L173.65 70.4533C173.65 70.4553 173.649 70.4574 173.648 70.4594M172.695 73.8324V73.8345H172.715L172.695 73.8324ZM172.695 73.8324H172.945V73.8326V73.8327V73.8328V73.833V73.8331V73.8333V73.8334V73.8336V73.8337V73.8339V73.8341V73.8343V73.8344V73.8345H172.946M172.946 73.8345C172.946 73.8382 172.945 73.8419 172.945 73.8456V73.8459V73.8463V73.8466V73.847V73.8474V73.8477V73.8481V73.8485V73.8489V73.8493V73.8497V73.8501V73.8505V73.8509V73.8513V73.8517V73.8521V73.8525V73.8529V73.8534V73.8538V73.8542V73.8546V73.8551V73.8555V73.856V73.8564V73.8569V73.8573V73.8578V73.8582V73.8587V73.8591V73.8596V73.8601V73.8606V73.861V73.8615V73.862V73.8625V73.863V73.8635V73.864V73.8645V73.865V73.8655V73.866V73.8665V73.867V73.8675V73.868V73.8685V73.8691V73.8696V73.8701V73.8707V73.8712V73.8717V73.8723V73.8728V73.8734V73.8739V73.8744V73.875V73.8756V73.8761V73.8767V73.8772V73.8778V73.8784V73.8789V73.8795V73.8801V73.8807V73.8812V73.8818V73.8824V73.883V73.8836V73.8842V73.8847V73.8853V73.8859V73.8865V73.8871V73.8877V73.8883V73.8889V73.8896V73.8902V73.8908V73.8914V73.892V73.8926V73.8932V73.8939V73.8945V73.8951V73.8957V73.8964V73.897V73.8975L172.977 73.8765L173.115 74.0845V74.2219L173.147 74.3636M172.946 73.8345H173.115H173.941L173.254 74.2926L173.147 74.3636M172.946 73.8345C172.987 73.4442 173.028 73.0847 173.108 72.7074L173.108 72.7074L173.109 72.7019L173.11 72.6962C173.173 72.3606 173.234 72.0337 173.316 71.7077L173.316 71.7076C173.44 71.2096 173.544 70.8354 173.648 70.4594M173.147 74.3636L173.101 74.3941L173.094 74.399V74.6286H172.792L172.893 74.6576C172.884 74.6897 172.878 74.724 172.873 74.7609M173.147 74.3636L173.202 74.6043L172.873 74.7609M172.873 74.7609L172.761 74.8144L172.672 74.6286H172.643C172.611 74.7659 172.611 74.9188 172.611 75.0719V75.072V76.3748M172.873 74.7609C172.862 74.8472 172.861 74.9483 172.861 75.072V75.0746V75.0772V75.0798V75.0823V75.0849V75.0875V75.0901V75.0927V75.0953V75.0978V75.1004V75.103V75.1056V75.1082V75.1107V75.1133V75.1159V75.1185V75.121V75.1236V75.1262V75.1288V75.1313V75.1339V75.1365V75.1391V75.1416V75.1442V75.1468V75.1494V75.1519V75.1545V75.1571V75.1596V75.1622V75.1648V75.1674V75.1699V75.1725V75.1751V75.1776V75.1802V75.1828V75.1853V75.1879V75.1905V75.193V75.1956V75.1982V75.2007V75.2033V75.2058V75.2084V75.211V75.2135V75.2161V75.2187V75.2212V75.2238V75.2263V75.2289V75.2315V75.234V75.2366V75.2391V75.2417V75.2443V75.2468V75.2494V75.2519V75.2545V75.257V75.2596V75.2621V75.2647V75.2673V75.2698V75.2724V75.2749V75.2775V75.28V75.2826V75.2851V75.2877V75.2902V75.2928V75.2953V75.2979V75.3004V75.303V75.3055V75.3081V75.3106V75.3132V75.3157V75.3183V75.3208V75.3234V75.3259V75.3285V75.331V75.3336V75.3361V75.3387V75.3412V75.3438V75.3463V75.3488V75.3514V75.3539V75.3565V75.359V75.3616V75.3641V75.3666V75.3692V75.3717V75.3743V75.3768V75.3794V75.3819V75.3844V75.387V75.3895V75.3921V75.3946V75.3971V75.3997V75.4022V75.4048V75.4073V75.4098V75.4124V75.4149V75.4174V75.42V75.4225V75.4251V75.4276V75.4301V75.4327V75.4352V75.4377V75.4403V75.4428V75.4454V75.4479V75.4504V75.453V75.4555V75.458V75.4606V75.4631V75.4656V75.4682V75.4707V75.4732V75.4758V75.4783V75.4808V75.4834V75.4859V75.4884V75.491V75.4935V75.496V75.4986V75.5011V75.5036V75.5061V75.5087V75.5112V75.5137V75.5163V75.5188V75.5213V75.5239V75.5264V75.5289V75.5314V75.534V75.5365V75.539V75.5416V75.5441V75.5466V75.5492V75.5517V75.5542V75.5567V75.5593V75.5618V75.5643V75.5668V75.5694V75.5719V75.5744V75.577V75.5795V75.582V75.5845V75.5871V75.5896V75.5921V75.5946V75.5972V75.5997V75.6022V75.6047V75.6073V75.6098V75.6123V75.6149V75.6174V75.6199V75.6224V75.625V75.6275V75.63V75.6325V75.6351V75.6376V75.6401V75.6426V75.6452V75.6477V75.6502V75.6527V75.6553V75.6578V75.6603V75.6628V75.6654V75.6679V75.6704V75.6729V75.6754V75.678V75.6805V75.683V75.6855V75.6881V75.6906V75.6931V75.6956V75.6982V75.7007V75.7032V75.7057V75.7083V75.7108V75.7133V75.7158V75.7184V75.7209V75.7234V75.7259V75.7285V75.731V75.7335V75.736V75.7386V75.7411V75.7436V75.7461V75.7486V75.7512V75.7537V75.7562V75.7587V75.7613V75.7638V75.7663V75.7688V75.7714V75.7739V75.7764V75.7789V75.7815V75.784V75.7865V75.789V75.7916V75.7941V75.7966V75.7991V75.8017V75.8042V75.8067V75.8092V75.8118V75.8143V75.8168V75.8193V75.8219V75.8244V75.8269V75.8294V75.832V75.8345V75.837V75.8395V75.8421V75.8446V75.8471V75.8496V75.8522V75.8547V75.8572V75.8598V75.8623V75.8648V75.8673V75.8699V75.8724V75.8749V75.8774V75.88V75.8825V75.885V75.8876V75.8901V75.8926V75.8951V75.8977V75.9002V75.9027V75.9053V75.9078V75.9103V75.9128V75.9154V75.9179V75.9204V75.923V75.9255V75.928V75.9305V75.9331V75.9356V75.9381V75.9407V75.9432V75.9457V75.9483V75.9508V75.9533V75.9559V75.9584V75.9609V75.9635V75.966V75.9685V75.9711V75.9736V75.9761V75.9787V75.9812V75.9837V75.9863V75.9888V75.9913V75.9939V75.9964V75.9989V76.0015V76.004V76.0065V76.0091V76.0116V76.0141V76.0167V76.0192V76.0218V76.0243V76.0268V76.0294V76.0319V76.0344V76.037V76.0395V76.0421V76.0446V76.0471V76.0497V76.0522V76.0548V76.0573V76.0598V76.0624V76.0649V76.0675V76.07V76.0725V76.0751V76.0776V76.0802V76.0827V76.0853V76.0878V76.0903V76.0929V76.0954V76.098V76.1005V76.1031V76.1056V76.1082V76.1107V76.1132V76.1158V76.1183V76.1209V76.1234V76.126V76.1285V76.1311V76.1336V76.1362V76.1387V76.1413V76.1438V76.1464V76.1489V76.1515V76.154V76.1566V76.1591V76.1617V76.1642V76.1668V76.1693V76.1719V76.1744V76.177V76.1796V76.1821V76.1847V76.1872V76.1898V76.1923V76.1949V76.1974V76.2V76.2026V76.2051V76.2077V76.2102V76.2128V76.2154V76.2179V76.2205V76.223V76.2256V76.2282V76.2307V76.2333V76.2358V76.2384V76.241V76.2435V76.2461V76.2487V76.2512V76.2538V76.2564V76.2589V76.2615V76.264V76.2666V76.2692V76.2718V76.2743V76.2769V76.2795V76.282V76.2846V76.2872V76.2897V76.2923V76.2949V76.2975V76.3V76.3026V76.3052V76.3077V76.3103V76.3129V76.3155V76.318V76.3206V76.3232V76.3258V76.3283V76.3309V76.3335V76.3361V76.3387V76.3412V76.3438V76.3464V76.349V76.3516V76.3541V76.3567V76.3593V76.3619V76.3645V76.3671L172.86 76.3597L172.611 76.3748M172.611 76.3748L172.695 77.7616M172.611 76.3748H172.861V76.3722V76.3696V76.3672L172.944 77.7385M172.695 77.7616C172.758 78.266 172.842 78.7912 172.926 79.2954M172.695 77.7616L172.945 77.7465L172.944 77.7385M172.695 77.7616L172.943 77.7306C172.943 77.7332 172.944 77.7358 172.944 77.7385M172.926 79.2954L173.199 80.5143C173.241 80.7244 173.283 80.9134 173.346 81.1235C173.49 81.6355 173.673 82.1675 173.857 82.6805H173.971L174.104 82.6276C174.104 82.6286 174.105 82.6297 174.105 82.6307M172.926 79.2954L173.173 79.2543C173.172 79.252 173.172 79.2497 173.172 79.2475M172.926 79.2954L173.17 79.2408L173.172 79.2475M174.105 82.6307C174.106 82.6323 174.106 82.634 174.107 82.6357L173.982 82.6805H174.138M174.105 82.6307C174.113 82.6492 174.124 82.6661 174.138 82.6805M174.105 82.6307C173.917 82.1081 173.731 81.5706 173.587 81.0561L173.587 81.0561L173.586 81.0516C173.526 80.8524 173.486 80.672 173.444 80.4651L173.444 80.465L173.443 80.4596L173.172 79.2475M174.138 82.6805H174.224M174.224 82.6805L184.696 69.1429C184.781 68.2928 184.909 67.4838 185.1 66.6531L185.101 66.6502L185.101 66.6502C185.293 65.8594 185.55 65.0697 185.932 64.155C186.232 63.4282 186.596 62.7208 187.005 62.0967L187.01 62.0881L187.017 62.08L187.158 61.8991M174.224 82.6805C174.223 82.6807 174.222 82.6807 174.222 82.6807C174.222 82.6807 174.224 82.6805 174.229 82.6805H174.224ZM174.224 82.6805C174.225 82.6803 174.227 82.6799 174.23 82.6793C174.239 82.6774 174.251 82.6744 174.263 82.6705C174.275 82.6668 174.286 82.663 174.294 82.6601L174.302 82.6573M174.224 82.6805L174.296 82.6596L174.302 82.6573M173.172 79.2475C173.088 78.7487 173.006 78.2329 172.944 77.7385M174.144 69.1187C174.205 68.9784 174.264 68.8461 174.321 68.7177C174.397 68.549 174.469 68.387 174.54 68.2223M174.54 68.2223C174.743 67.8155 174.968 67.4274 175.194 67.0564M192.621 56.8358C192.632 56.8317 192.643 56.8277 192.652 56.8245L192.658 56.8224C192.672 56.8175 192.68 56.8149 192.686 56.8129C192.695 56.8103 192.697 56.8103 192.698 56.8104L192.698 56.8104C192.777 56.8104 192.821 56.8433 192.842 56.9005L192.842 56.9005L192.844 56.9054C192.879 56.9928 192.848 57.0711 192.803 57.1088M192.803 57.1088H192.793L192.745 57.1297C191.91 57.4938 191.117 57.9436 190.408 58.4592M190.408 58.4592C189.867 58.8491 189.351 59.3222 188.76 59.9136L188.76 59.9137C188.605 60.0684 188.474 60.2222 188.348 60.3684M188.348 60.3684C187.929 60.8514 187.523 61.3421 187.158 61.8991M188.348 60.3684C188.348 60.3686 188.348 60.3688 188.348 60.3691L188.538 60.5317L188.349 60.3677C188.349 60.3679 188.349 60.3681 188.348 60.3684ZM174.302 82.6573L185.769 77.6169L185.776 77.6136L185.784 77.6109C185.836 77.5918 185.861 77.5618 185.872 77.5341C185.885 77.5043 185.888 77.462 185.868 77.4133L185.868 77.4119C185.588 76.7017 185.375 75.9315 185.122 74.8782L185.12 74.8714L185.12 74.8714L185.036 74.4723M174.302 82.6573L185.036 74.4723M185.036 74.4723L184.674 71.7619" fill="#ED932C" stroke="black" stroke-width="0.5"/>
<path d="M213.327 71.7101C213.327 71.3739 213.327 71.0167 213.327 70.6596C213.327 70.2394 213.285 69.8401 213.243 69.4199C213.243 69.3779 213.243 69.3359 213.243 69.3148C213.243 69.2517 213.243 69.1887 213.222 69.1256C213.18 68.7685 213.138 68.4113 213.075 68.054C213.012 67.6968 212.907 67.3397 212.823 66.9615C212.802 66.8564 212.781 66.7514 212.739 66.6252C212.739 66.5621 212.718 66.5202 212.697 66.4571C212.508 65.7637 212.256 65.0914 211.983 64.4189C211.983 64.398 211.941 64.356 211.941 64.3349C211.562 63.4734 211.121 62.633 210.596 61.8345C210.491 61.6873 210.365 61.5614 210.26 61.4143C209.797 60.7629 209.314 60.1535 208.747 59.5862C208.705 59.5443 208.663 59.4812 208.621 59.4181C208.18 58.9979 207.717 58.5777 207.213 58.1995C207.066 58.0944 206.94 57.9894 206.793 57.8843C206.541 57.7162 206.31 57.5481 206.057 57.401C205.721 57.1909 205.385 57.0017 205.049 56.8336C204.944 56.7705 204.818 56.7285 204.713 56.6655C204.65 56.6446 204.587 56.6026 204.524 56.5815C204.397 56.5184 204.25 56.4553 204.124 56.3923C203.83 56.2663 203.515 56.1613 203.221 56.0562C202.948 55.9721 202.696 55.8881 202.422 55.825C202.422 55.825 202.38 55.825 202.359 55.825C202.359 55.825 202.317 55.825 202.296 55.825C201.981 55.7411 201.687 55.678 201.372 55.6149C201.057 55.5519 200.742 55.5099 200.405 55.4679C200.321 55.4679 200.258 55.4679 200.174 55.4679C200.111 55.4679 200.048 55.4679 199.964 55.4679C199.775 55.4679 199.565 55.4259 199.376 55.4259C198.998 55.4259 198.64 55.4259 198.262 55.4259C198.115 55.4259 197.989 55.4257 197.842 55.4468C197.569 55.4468 197.296 55.4888 197.022 55.531C196.539 55.5938 196.056 55.678 195.594 55.783C195.51 55.783 195.426 55.8461 195.342 55.867C195.152 55.909 194.984 55.9721 194.816 56.0142C194.48 56.0982 194.123 56.1822 193.808 56.3083C193.429 56.4345 193.051 56.5815 192.694 56.7496L181.222 61.7926C181.894 61.4983 182.609 61.2671 183.344 61.057C183.533 61.015 183.701 60.9519 183.89 60.91C184.71 60.7209 185.55 60.5737 186.412 60.5106C187.105 60.4687 187.819 60.4687 188.534 60.5317C188.597 60.5317 188.66 60.5317 188.744 60.5317C189.458 60.5948 190.194 60.7209 190.908 60.91C190.908 60.91 190.95 60.91 190.971 60.91C191.686 61.099 192.379 61.3513 193.072 61.6664C193.135 61.6873 193.198 61.7295 193.261 61.7504C193.976 62.0866 194.669 62.486 195.363 62.9692C196.077 63.4734 196.728 64.0407 197.317 64.6501C197.884 65.2175 198.367 65.8479 198.829 66.4782C198.934 66.6252 199.061 66.7514 199.166 66.8984C199.691 67.6968 200.132 68.5373 200.51 69.3988C200.826 70.1552 201.099 70.9117 201.309 71.6892C201.33 71.7943 201.351 71.9202 201.393 72.0253C201.582 72.7398 201.708 73.4752 201.813 74.1896C201.813 74.2527 201.813 74.3156 201.834 74.3786C201.918 75.1982 201.96 75.9966 201.939 76.7742C201.939 76.7742 201.939 76.8162 201.939 76.8371C201.918 77.6146 201.813 78.392 201.687 79.1064C201.687 79.1695 201.666 79.2115 201.645 79.2746C201.498 79.9888 201.309 80.7033 201.057 81.3336C200.784 82.0061 200.468 82.5945 200.09 83.1408C200.027 83.2248 199.985 83.2879 199.922 83.3718C199.544 83.8971 199.124 84.3804 198.661 84.8217C198.199 85.2419 197.695 85.6201 197.169 85.9775C197.044 86.0614 196.896 86.1454 196.77 86.2296C196.224 86.5658 195.657 86.8599 195.068 87.1331L206.541 82.0901C207.15 81.8169 207.717 81.5229 208.243 81.1866C208.369 81.1026 208.516 81.0185 208.642 80.9345C209.167 80.5772 209.692 80.22 210.134 79.7787C210.47 79.4636 210.785 79.1275 211.079 78.7702C211.184 78.6232 211.289 78.4761 211.395 78.3289C211.457 78.2449 211.5 78.1819 211.562 78.0979C211.626 78.0137 211.689 77.9298 211.731 77.8458C211.878 77.5935 212.046 77.3414 212.172 77.0682C212.298 76.8371 212.403 76.6061 212.487 76.3538C212.487 76.3329 212.508 76.2909 212.529 76.2698C212.613 76.0386 212.697 75.8076 212.781 75.5553C212.865 75.2821 212.949 74.9881 213.012 74.7149C213.054 74.5468 213.075 74.3786 213.117 74.2105C213.117 74.1476 213.138 74.1055 213.159 74.0426C213.159 73.9584 213.201 73.8954 213.201 73.8114C213.265 73.4962 213.307 73.1811 213.327 72.8448C213.37 72.5086 213.39 72.1514 213.412 71.7943C213.412 71.7943 213.412 71.7732 213.412 71.7521C213.412 71.7521 213.412 71.7101 213.412 71.6892L213.327 71.7101Z" fill="#FDC558" stroke="black" stroke-width="0.5" stroke-miterlimit="10"/>
<path d="M174.089 82.9593L151.13 80.5677V80.5435L150.903 80.523C150.815 80.515 150.742 80.432 150.751 80.3325L150.751 80.3324C150.835 79.4067 150.877 78.5237 150.919 77.6466L150.92 77.6321L150.92 77.6321V77.6202V77.3532C150.962 76.5083 150.962 75.6836 150.92 74.8794C150.899 73.8645 150.835 73.0817 150.772 72.3254L150.772 72.3254L150.772 72.3207C150.693 71.551 150.613 70.9049 150.498 70.2819L150.768 69.9964L151.306 69.4258L150.537 69.5796L150.367 69.6135C150.265 69.0671 150.136 68.5547 150.008 68.0787L150.006 68.0716L150.004 68.0645L149.921 67.8165C149.766 67.2948 149.629 66.9292 149.511 66.6161C149.499 66.5843 149.487 66.5529 149.475 66.5221L149.475 66.522L149.471 66.5116L149.282 66.0701L149.279 66.0634L149.276 66.0568C149.127 65.7584 148.977 65.4805 148.827 65.2233L148.823 65.2168L148.819 65.2106L148.609 64.8954L148.609 64.8952L148.601 64.8841C148.342 64.5392 148.097 64.2689 147.864 64.0824L147.864 64.0822L147.855 64.076C147.512 63.8244 147.136 63.6571 146.728 63.6091L146.728 63.609L146.722 63.6084C146.634 63.6004 146.561 63.5178 146.569 63.4189C146.578 63.3421 146.651 63.2725 146.731 63.2671L169.895 65.6801C170.39 65.8006 170.824 65.979 171.217 66.215C172.762 67.1462 173.573 68.9626 173.994 71.1692C174.413 73.3603 174.436 75.8714 174.457 78.1382L174.457 78.1665C174.457 78.1669 174.457 78.1672 174.457 78.1676C174.457 79.7154 174.395 81.262 174.248 82.8077L174.247 82.8194V82.8312C174.247 82.84 174.238 82.8791 174.187 82.9347C174.162 82.9504 174.136 82.9583 174.089 82.9593Z" fill="#ED932C" stroke="black" stroke-width="0.5"/>
<path d="M168.776 88.776C168.776 88.776 152.787 66.1814 170.191 65.5975L146.453 62.8011C132.906 67.1425 140.76 82.644 146.474 84.2718L168.776 88.776Z" fill="#FDC558" stroke="black" stroke-width="0.5"/>
</g>
<defs>
<filter id="filter0_d_24673_12231" x="88.1055" y="96.8456" width="166.335" height="124.943" filterUnits="userSpaceOnUse" color-interpolation-filters="sRGB">
<feFlood flood-opacity="0" result="BackgroundImageFix"/>
<feColorMatrix in="SourceAlpha" type="matrix" values="0 0 0 0 0 0 0 0 0 0 0 0 0 0 0 0 0 0 127 0" result="hardAlpha"/>
<feOffset dy="7.74604"/>
<feComposite in2="hardAlpha" operator="out"/>
<feColorMatrix type="matrix" values="0 0 0 0 0.0682422 0 0 0 0 0.0427386 0 0 0 0 0.370361 0 0 0 0.14 0"/>
<feBlend mode="normal" in2="BackgroundImageFix" result="effect1_dropShadow_24673_12231"/>
<feBlend mode="normal" in="SourceGraphic" in2="effect1_dropShadow_24673_12231" result="shape"/>
</filter>
<clipPath id="clip0_24673_12231">
<rect width="343" height="240" fill="white" transform="translate(0.311523)"/>
</clipPath>
</defs>
</svg>
