<svg width="344" height="240" viewBox="0 0 344 240" fill="none" xmlns="http://www.w3.org/2000/svg">
<path d="M96.6851 118.022C96.6851 117.937 96.7674 117.877 96.8478 117.903L171.352 141.885C171.403 141.902 171.438 141.95 171.438 142.004V222.725C171.438 222.978 171.191 223.158 170.95 223.081L96.7715 199.203C96.72 199.186 96.6851 199.138 96.6851 199.084V118.022Z" fill="#8B8FFC" stroke="black" stroke-width="0.464336"/>
<path opacity="0.12" d="M151.672 181.631C147.782 183.746 145.336 188.917 146.757 194.048C147.619 197.151 149.352 199.37 151.931 200.503C156.434 202.479 161.127 198.133 160.604 192.478C160.377 190.075 159.394 188.249 157.396 187.483C155.911 186.92 154.484 187.182 153.316 188.524C152.333 189.656 151.952 191.057 152.349 192.687C152.565 193.584 153.089 194.14 153.802 194.402C154.426 194.638 154.912 194.297 155.287 193.656C155.213 193.499 155.144 193.328 155.055 193.184C154.568 192.406 154.96 191.273 155.382 190.802C155.953 190.16 156.878 190.101 157.491 190.632C158.474 191.489 158.929 193.774 158.389 195.214C157.491 197.616 155.181 199.01 153.067 198.329C149.727 197.256 148.078 193.165 149.157 189.218C150.589 183.968 155.409 181.671 159.515 184.191C162.834 186.226 164.066 189.774 163.939 194.009C163.722 200.974 158.051 206.138 152.359 204.797C146.842 203.494 142.741 196.948 143.037 190.763C143.142 188.478 143.56 186.338 144.5 184.374C146.947 179.262 150.774 176.859 155.557 176.467C156.815 176.362 158.088 176.447 159.288 176.447C159.225 176.414 159.071 176.316 158.918 176.251C156.577 175.171 154.161 174.824 151.688 175.262C150.155 175.498 148.734 176.015 147.45 176.742C147.428 176.742 147.397 176.755 147.365 176.774C146.789 177.082 146.688 176.382 146.482 176.166C146.282 175.963 146.308 176.218 146.308 176.218C146.482 177.246 146.044 177.658 145.986 177.71C145.621 177.992 145.272 178.293 144.934 178.614C144.923 178.614 144.913 178.614 144.907 178.627C144.109 179.078 143.776 178.313 143.412 178.083C143.021 177.841 143.169 178.241 143.169 178.241C143.65 179.425 143.232 180.44 143.153 180.604C142.815 181.055 142.497 181.533 142.196 182.031C142.165 182.057 142.133 182.076 142.096 182.116C141.314 182.993 140.701 182.299 140.22 182.168C139.686 182.024 139.987 182.456 139.987 182.456C140.975 183.713 140.664 185.218 140.664 185.218C139.4 188.622 138.946 192.556 139.474 196.503C141.213 209.483 154.103 215.617 162.549 207.251C165.292 204.535 167.194 199.305 167.395 194.978C167.538 191.901 166.772 189.113 165.355 186.593C162.353 181.232 156.355 179.085 151.667 181.631H151.672Z" fill="#3C2CFF"/>
<path d="M246.191 118.021C246.191 117.937 246.109 117.877 246.029 117.903L171.525 141.885C171.473 141.902 171.438 141.95 171.438 142.004V222.519C171.438 222.867 171.785 223.108 172.111 222.986L246.11 195.297C246.159 195.278 246.191 195.232 246.191 195.18V118.021Z" fill="#6558FF" stroke="black" stroke-width="0.464336"/>
<path d="M97.106 117.988C96.9859 117.949 96.9928 117.777 97.1156 117.748L171.41 100.212C171.429 100.207 171.448 100.207 171.467 100.212L245.761 117.748C245.884 117.777 245.891 117.949 245.771 117.988L171.476 141.906C171.452 141.914 171.425 141.914 171.4 141.906L97.106 117.988Z" fill="#B2B0FF" stroke="black" stroke-width="0.464336"/>
<path d="M104.66 117.988C104.54 117.949 104.546 117.777 104.669 117.748L171.41 101.995C171.429 101.99 171.448 101.99 171.467 101.995L238.208 117.748C238.331 117.777 238.338 117.949 238.217 117.988L171.477 139.474C171.452 139.482 171.425 139.482 171.4 139.474L104.66 117.988Z" fill="#231863" stroke="black" stroke-width="0.464336"/>
<path d="M192.443 59.2704L117.657 45.1476L178.207 94.8666L246.31 113.487L192.443 59.2704Z" fill="#4236CF" stroke="black" stroke-width="0.464336"/>
<path d="M198.718 50.4167L125.547 36.5989L184.789 85.244L251.421 103.463L198.718 50.4167Z" fill="#231863" stroke="black" stroke-width="0.464336"/>
<path d="M177.899 42.8001C184.432 38.5934 182.848 30.8606 181.24 27.5201C178.447 24.4192 176.34 19.6808 190.259 25.5339C204.178 31.3869 199.271 41.6535 195.077 46.0551C186.629 46.7229 171.366 47.0068 177.899 42.8001Z" fill="#ED932C" stroke="black" stroke-width="0.464336"/>
<path d="M173.759 22.7088C164.704 28.9654 165.321 38.0757 166.762 41.8489C170.56 48.5965 177.451 43.8976 177.451 43.8976C176.888 29.3424 185.655 25.2869 189.998 25.4825C185.637 22.7088 177.32 20.2489 173.759 22.7088Z" fill="#FFE04A" stroke="black" stroke-width="0.464336"/>
<path d="M222.582 43.6896C209.211 31.5244 202.489 43.918 200.8 51.6354C203.357 60.2662 210.253 62.3211 212.307 62.3211C215.376 50.1559 222.354 50.1285 225.459 51.6354C230.071 54.0557 235.953 55.8549 222.582 43.6896Z" fill="#FFE04A" stroke="black" stroke-width="0.464336"/>
<path d="M222.13 43.2517C221.389 56.8098 216.876 60.5229 213.346 62.0608H213.039C214.268 64.9274 216.256 67.9796 220.72 69.6176C225.184 71.2557 234.221 64.6484 233.565 57.2414C232.909 49.8343 226.734 46.1212 222.13 43.2517Z" fill="#ED932C" stroke="black" stroke-width="0.464336"/>
<path d="M117.635 45.217L124.697 32.1461L198.852 46.2061L192.223 59.7025L117.635 45.217Z" fill="#8388F9" stroke="black" stroke-width="0.464336"/>
<path d="M246.902 113.84L253.964 100.769L198.852 46.2061L192.224 59.7025L246.902 113.84Z" fill="#6558FF" stroke="black" stroke-width="0.464336"/>
<path d="M137.9 212.496L137.946 212.596L137.897 212.695L136.975 214.561L136.887 214.739L136.697 214.68L120.745 209.672L120.634 209.637L120.595 209.528C119.834 207.392 117.419 200.983 114.654 194.626C113.271 191.448 111.803 188.286 110.411 185.679C109.036 183.104 107.752 181.102 106.713 180.147C103.263 179.65 99.8978 182.261 97.9015 186.704C96.3428 190.173 93.9929 193.435 90.9036 195.209C87.8027 196.989 83.9862 197.252 79.5538 194.779C74.1668 193.267 65.2956 188.932 58.9042 181.912C52.4919 174.869 48.5688 165.109 53.1832 152.806L53.2364 152.665L53.3875 152.656L53.6436 152.642L53.8274 152.631L53.8794 152.808C55.6227 158.73 57.9176 161.816 60.4461 162.894C62.9589 163.964 65.8023 163.088 68.7529 160.821L69.1795 160.493L69.1254 161.028C68.4905 167.301 68.7364 171.955 69.5913 175.744C70.4409 179.51 71.8945 182.434 73.7011 185.254C73.7101 185.257 73.7231 185.26 73.7411 185.263C73.7952 185.272 73.8733 185.277 73.9767 185.272C74.1828 185.262 74.4631 185.216 74.8003 185.128C75.4733 184.952 76.3494 184.61 77.2723 184.066C79.1177 182.98 81.1325 181.1 82.0968 178.156C83.171 174.877 84.8975 172.78 86.8464 171.458C88.7919 170.138 90.9435 169.599 92.8558 169.41C94.2564 169.271 95.631 169.672 96.843 170.332L110.39 177.717C116.069 179.355 121.115 184.064 125.646 190.33C130.188 196.61 134.235 204.486 137.9 212.496Z" fill="#ED932C" stroke="black" stroke-width="0.464336"/>
<mask id="mask0_24673_12273" style="mask-type:alpha" maskUnits="userSpaceOnUse" x="51" y="152" width="87" height="63">
<path d="M110.301 177.933C121.529 181.153 130.363 196.581 137.689 212.592L136.767 214.458L120.814 209.45C119.288 205.17 111.146 183.794 106.817 179.928C103.189 179.362 99.7168 182.097 97.6897 186.609C94.5936 193.499 88.3968 199.463 79.643 194.563C68.9419 191.571 44.246 177.295 53.4006 152.888L53.6567 152.873C57.1527 164.75 62.9439 165.577 68.8944 161.005C67.6212 173.585 69.8748 179.725 73.5361 185.427C74.0772 185.91 80.3453 184.248 82.3174 178.228C84.4361 171.762 89.1033 170.015 92.8787 169.641C94.2203 169.508 95.5481 169.891 96.7319 170.536L110.301 177.933Z" fill="#ED932C"/>
</mask>
<g mask="url(#mask0_24673_12273)">
<path d="M113.732 177.537L114.295 177.813L113.688 177.97L109.891 178.955L109.881 178.958L109.871 178.959L103.687 180.011L95.0858 196.124L95.0285 196.232L94.9077 196.246L86.2303 197.249L86.1488 197.259L86.0795 197.215L76.7558 191.319L76.7293 191.302L76.7082 191.279L73.1481 187.37L73.0725 187.287L73.0906 187.176L73.4727 184.842L73.4811 184.791L73.5106 184.748L84.1954 169.246L84.2454 169.173L84.331 169.152L92.4385 167.153L92.5205 167.133L92.5963 167.17L113.732 177.537Z" fill="#FFE04A" stroke="black" stroke-width="0.464336"/>
<path d="M67.0963 164.031C65.3986 165.411 63.7228 166.042 62.1232 166.084C60.3711 166.129 58.7413 165.465 57.3064 164.359C54.4445 162.153 52.3187 158.161 51.4538 154.32L51.425 154.193L51.5195 154.102L53.2253 152.464L53.4874 152.213L53.6056 152.556C55.295 157.468 57.2053 160.885 59.5993 162.433C60.7863 163.2 62.0976 163.512 63.5799 163.312C65.0688 163.111 66.7425 162.393 68.6405 161.077L69.0751 160.776L69.0027 161.3C68.0968 167.859 69.0866 175.185 71.7662 181.358C74.4458 187.531 78.8012 192.525 84.6075 194.477C86.8321 195.106 89.2839 194.639 91.4626 193.587C93.643 192.533 95.5205 190.907 96.5883 189.267L96.9883 189.502C95.6395 192.067 93.4679 193.977 91.1087 195.145C88.752 196.311 86.1907 196.746 84.0538 196.338L84.0457 196.336L84.0377 196.334C77.1614 194.508 72.4742 188.844 69.7489 182.379C67.1327 176.172 66.3052 169.184 67.0963 164.031Z" fill="#FAC45F" stroke="black" stroke-width="0.464336"/>
<path d="M110.344 177.699L110.355 177.701L110.365 177.704C116.054 179.336 121.108 184.049 125.646 190.324C130.187 196.604 134.235 204.48 137.9 212.49L137.946 212.59L137.897 212.689L136.974 214.555L136.776 214.958L136.562 214.563C135.74 213.042 134.927 211.516 134.118 209.997C130.545 203.289 127.049 196.726 123.2 191.46C118.49 185.015 113.295 180.575 106.85 180.163C105.337 180.711 103.542 182.12 101.919 183.561C101.202 184.198 100.524 184.835 99.9259 185.398C99.8441 185.475 99.7637 185.551 99.6849 185.625C99.0344 186.236 98.4819 186.749 98.0996 187.036L97.5543 187.446L97.7364 186.788C98.5384 183.894 100.089 181.321 102.243 179.62C104.402 177.916 107.16 177.095 110.344 177.699Z" fill="#FAC45F" stroke="black" stroke-width="0.464336"/>
</g>
<path d="M204.845 208.707L204.806 208.811L204.862 208.906L205.907 210.706L206.006 210.878L206.191 210.806L221.773 204.743L221.881 204.701L221.913 204.589C222.53 202.407 224.511 195.851 226.844 189.323C228.011 186.059 229.265 182.807 230.479 180.113C231.679 177.451 232.826 175.368 233.799 174.346C237.209 173.619 240.74 175.999 243.029 180.298C244.816 183.655 247.379 186.753 250.58 188.316C253.793 189.885 257.619 189.892 261.876 187.128C267.15 185.259 275.711 180.341 281.619 172.909C287.546 165.453 290.807 155.452 285.381 143.486L285.318 143.348L285.167 143.35L284.91 143.352L284.726 143.354L284.686 143.534C283.343 149.56 281.259 152.793 278.809 154.036C276.373 155.273 273.477 154.588 270.382 152.524L269.934 152.225L270.024 152.756C271.077 158.972 271.143 163.632 270.543 167.47C269.947 171.284 268.692 174.298 267.079 177.234C267.07 177.237 267.057 177.241 267.039 177.245C266.986 177.258 266.908 177.267 266.805 177.269C266.598 177.273 266.316 177.247 265.973 177.181C265.29 177.05 264.393 176.768 263.436 176.287C261.522 175.326 259.386 173.585 258.227 170.713C256.936 167.513 255.073 165.536 253.04 164.347C251.011 163.16 248.828 162.767 246.907 162.706C245.5 162.661 244.156 163.152 242.991 163.893L229.968 172.167C224.411 174.181 219.691 179.217 215.589 185.772C211.478 192.341 207.966 200.471 204.845 208.707Z" fill="#ED932C" stroke="black" stroke-width="0.464336"/>
<mask id="mask1_24673_12273" style="mask-type:alpha" maskUnits="userSpaceOnUse" x="205" y="143" width="83" height="68">
<path d="M230.071 172.377C219.084 176.34 211.301 192.324 205.062 208.79L206.107 210.59L221.689 204.526C222.926 200.153 229.62 178.281 233.68 174.134C237.263 173.327 240.91 175.823 243.234 180.189C246.784 186.857 253.366 192.394 261.772 186.919C272.25 183.218 295.935 167.322 285.169 143.582L284.913 143.585C282.219 155.668 276.496 156.881 270.253 152.717C272.365 165.184 270.527 171.461 267.255 177.395C266.747 177.913 260.382 176.674 258.012 170.8C255.465 164.489 250.692 163.059 246.9 162.938C245.552 162.895 244.253 163.366 243.115 164.089L230.071 172.377Z" fill="#2EF3C5"/>
</mask>
<g mask="url(#mask1_24673_12273)">
<path d="M226.621 172.211L226.078 172.524L226.694 172.64L230.549 173.369L230.559 173.371L230.568 173.372L236.809 174.007L246.469 189.509L246.533 189.613L246.654 189.618L255.38 190.039L255.461 190.043L255.528 189.995L264.436 183.489L264.461 183.47L264.481 183.446L267.772 179.307L267.842 179.219L267.816 179.11L267.279 176.807L267.267 176.757L267.235 176.716L255.537 161.963L255.482 161.894L255.396 161.878L247.173 160.426L247.089 160.412L247.016 160.454L226.621 172.211Z" fill="#FFE04A" stroke="black" stroke-width="0.464336"/>
<path d="M272.249 155.616C274.035 156.88 275.75 157.397 277.348 157.331C279.1 157.259 280.681 156.488 282.039 155.288C284.747 152.896 286.601 148.771 287.207 144.881L287.227 144.752L287.127 144.667L285.316 143.148L285.037 142.914L284.942 143.265C283.585 148.278 281.908 151.815 279.623 153.52C278.49 154.365 277.202 154.764 275.71 154.664C274.211 154.563 272.493 153.958 270.511 152.772L270.057 152.501L270.164 153.018C271.507 159.503 271.009 166.878 268.749 173.217C266.488 179.555 262.476 184.829 256.813 187.165C254.636 187.942 252.158 187.64 249.914 186.735C247.668 185.83 245.686 184.333 244.511 182.768L244.128 183.029C245.645 185.498 247.939 187.259 250.371 188.266C252.801 189.272 255.385 189.535 257.49 188.985L257.498 188.983L257.506 188.98C264.245 186.698 268.543 180.734 270.83 174.1C273.025 167.732 273.383 160.704 272.249 155.616Z" fill="#FAC45F" stroke="black" stroke-width="0.464336"/>
<path d="M230.012 172.146L230.002 172.149L229.992 172.152C224.425 174.16 219.697 179.201 215.589 185.766C211.478 192.335 207.966 200.465 204.845 208.701L204.806 208.805L204.861 208.9L205.906 210.7L206.132 211.089L206.318 210.68C207.037 209.108 207.746 207.531 208.452 205.961C211.568 199.029 214.618 192.247 218.106 186.735C222.374 179.99 227.261 175.212 233.663 174.37C235.21 174.816 237.095 176.102 238.811 177.432C239.569 178.019 240.287 178.609 240.922 179.131C241.009 179.202 241.094 179.272 241.178 179.341C241.868 179.907 242.453 180.382 242.854 180.643L243.425 181.015L243.2 180.371C242.206 177.537 240.487 175.074 238.223 173.521C235.955 171.964 233.149 171.33 230.012 172.146Z" fill="#FAC45F" stroke="black" stroke-width="0.464336"/>
</g>
<path d="M131.096 76.4465L135.818 89.1921C135.984 89.6417 135.389 89.9744 135.093 89.5969L125.953 77.9219C125.416 77.236 125.834 76.2266 126.698 76.1199L129.909 75.724C130.424 75.6605 130.915 75.9596 131.096 76.4465Z" fill="#101114"/>
<path d="M115.164 79.1179L131.659 92.1247C132.035 92.421 131.702 93.0145 131.254 92.8484L109.36 84.7461C108.538 84.4419 108.368 83.3544 109.058 82.814L113.78 79.1157C114.186 78.7971 114.758 78.798 115.164 79.1179Z" fill="#101114"/>
<path d="M116.557 97.2866L130.645 95.9726C131.124 95.9279 131.29 96.5926 130.846 96.7782L117.466 102.377C116.783 102.662 116.016 102.219 115.923 101.484L115.55 98.5426C115.47 97.9145 115.927 97.3454 116.557 97.2866Z" fill="#101114"/>
</svg>
