<svg width="344" height="240" viewBox="0 0 344 240" fill="none" xmlns="http://www.w3.org/2000/svg">
<path d="M96.6851 118.022C96.6851 117.937 96.7674 117.877 96.8478 117.903L171.352 141.885C171.403 141.902 171.438 141.95 171.438 142.004V222.725C171.438 222.978 171.191 223.158 170.95 223.081L96.7715 199.203C96.72 199.186 96.6851 199.138 96.6851 199.084V118.022Z" fill="#8B8FFC" stroke="black" stroke-width="0.464336"/>
<path opacity="0.12" d="M151.672 181.631C147.782 183.746 145.336 188.917 146.757 194.048C147.619 197.151 149.352 199.37 151.931 200.503C156.434 202.479 161.127 198.133 160.604 192.478C160.377 190.075 159.394 188.249 157.396 187.483C155.911 186.92 154.484 187.182 153.316 188.524C152.333 189.656 151.952 191.057 152.349 192.687C152.565 193.584 153.089 194.14 153.802 194.402C154.426 194.638 154.912 194.297 155.287 193.656C155.213 193.499 155.144 193.328 155.055 193.184C154.568 192.406 154.96 191.273 155.382 190.802C155.953 190.16 156.878 190.101 157.491 190.632C158.474 191.489 158.929 193.774 158.389 195.214C157.491 197.616 155.181 199.01 153.067 198.329C149.727 197.256 148.078 193.165 149.157 189.218C150.589 183.968 155.409 181.671 159.515 184.191C162.834 186.226 164.066 189.774 163.939 194.009C163.722 200.974 158.051 206.138 152.359 204.797C146.842 203.494 142.741 196.948 143.037 190.763C143.142 188.478 143.56 186.338 144.5 184.374C146.947 179.262 150.774 176.859 155.557 176.467C156.815 176.362 158.088 176.447 159.288 176.447C159.225 176.414 159.071 176.316 158.918 176.251C156.577 175.171 154.161 174.824 151.688 175.262C150.155 175.498 148.734 176.015 147.45 176.742C147.428 176.742 147.397 176.755 147.365 176.774C146.789 177.082 146.688 176.382 146.482 176.166C146.282 175.963 146.308 176.218 146.308 176.218C146.482 177.246 146.044 177.658 145.986 177.71C145.621 177.992 145.272 178.293 144.934 178.614C144.923 178.614 144.913 178.614 144.907 178.627C144.109 179.078 143.776 178.313 143.412 178.083C143.021 177.841 143.169 178.241 143.169 178.241C143.65 179.425 143.232 180.44 143.153 180.604C142.815 181.055 142.497 181.533 142.196 182.031C142.165 182.057 142.133 182.076 142.096 182.116C141.314 182.993 140.701 182.299 140.22 182.168C139.686 182.024 139.987 182.456 139.987 182.456C140.975 183.713 140.664 185.218 140.664 185.218C139.4 188.622 138.946 192.556 139.474 196.503C141.213 209.483 154.103 215.617 162.549 207.251C165.292 204.535 167.194 199.305 167.395 194.978C167.538 191.901 166.772 189.113 165.355 186.593C162.353 181.232 156.355 179.085 151.667 181.631H151.672Z" fill="#3C2CFF"/>
<path d="M246.191 118.021C246.191 117.937 246.109 117.877 246.029 117.903L171.525 141.885C171.473 141.902 171.438 141.95 171.438 142.004V222.519C171.438 222.867 171.785 223.108 172.111 222.986L246.11 195.297C246.159 195.278 246.191 195.232 246.191 195.18V118.021Z" fill="#6558FF" stroke="black" stroke-width="0.464336"/>
<path d="M97.106 117.988C96.9859 117.949 96.9928 117.777 97.1156 117.748L171.41 100.212C171.429 100.207 171.448 100.207 171.467 100.212L245.761 117.748C245.884 117.777 245.891 117.949 245.771 117.988L171.476 141.906C171.452 141.914 171.425 141.914 171.4 141.906L97.106 117.988Z" fill="#B2B0FF" stroke="black" stroke-width="0.464336"/>
<path d="M104.66 117.988C104.54 117.949 104.546 117.777 104.669 117.748L171.41 101.995C171.429 101.99 171.448 101.99 171.467 101.995L238.208 117.748C238.331 117.777 238.338 117.949 238.217 117.988L171.477 139.474C171.452 139.482 171.425 139.482 171.4 139.474L104.66 117.988Z" fill="#231863" stroke="black" stroke-width="0.464336"/>
<path d="M196.443 51.2704L121.657 37.1476L182.207 86.8666L250.31 105.487L196.443 51.2704Z" fill="#4236CF" stroke="black" stroke-width="0.464336"/>
<path d="M202.718 42.4167L129.547 28.5989L188.789 77.244L255.421 95.4627L202.718 42.4167Z" fill="#231863" stroke="black" stroke-width="0.464336"/>
<path d="M181.899 34.8001C188.432 30.5934 186.848 22.8606 185.24 19.5201C182.447 16.4192 180.34 11.6808 194.259 17.5339C208.178 23.3869 203.271 33.6535 199.077 38.0551C190.629 38.7229 175.366 39.0068 181.899 34.8001Z" fill="#ED932C" stroke="black" stroke-width="0.464336"/>
<path d="M177.759 14.7088C168.704 20.9654 169.321 30.0757 170.762 33.8489C174.56 40.5965 181.451 35.8976 181.451 35.8976C180.888 21.3424 189.655 17.2869 193.998 17.4825C189.637 14.7088 181.32 12.2489 177.759 14.7088Z" fill="#FFE04A" stroke="black" stroke-width="0.464336"/>
<path d="M226.581 35.6896C213.21 23.5244 206.488 35.918 204.799 43.6354C207.356 52.2662 214.252 54.3211 216.306 54.3211C219.375 42.1559 226.353 42.1285 229.458 43.6354C234.07 46.0557 239.952 47.8549 226.581 35.6896Z" fill="#FFE04A" stroke="black" stroke-width="0.464336"/>
<path d="M226.129 35.2517C225.388 48.8098 220.875 52.5229 217.345 54.0608H217.038C218.267 56.9274 220.255 59.9796 224.719 61.6176C229.183 63.2557 238.22 56.6484 237.564 49.2414C236.908 41.8343 230.733 38.1212 226.129 35.2517Z" fill="#ED932C" stroke="black" stroke-width="0.464336"/>
<path d="M121.634 37.217L128.697 24.1461L202.851 38.2061L196.223 51.7025L121.634 37.217Z" fill="#8388F9" stroke="black" stroke-width="0.464336"/>
<path d="M250.901 105.84L257.963 92.7694L202.851 38.2061L196.223 51.7025L250.901 105.84Z" fill="#6558FF" stroke="black" stroke-width="0.464336"/>
<path d="M137.9 212.496L137.946 212.596L137.897 212.695L136.975 214.561L136.887 214.739L136.697 214.68L120.745 209.672L120.634 209.637L120.595 209.528C119.834 207.392 117.419 200.983 114.654 194.626C113.271 191.448 111.803 188.286 110.411 185.679C109.036 183.104 107.752 181.102 106.713 180.147C103.263 179.65 99.8978 182.261 97.9015 186.704C96.3428 190.173 93.9929 193.435 90.9036 195.209C87.8027 196.989 83.9862 197.252 79.5538 194.779C74.1668 193.267 65.2956 188.932 58.9042 181.912C52.4919 174.869 48.5688 165.109 53.1832 152.806L53.2364 152.665L53.3875 152.656L53.6436 152.642L53.8274 152.631L53.8794 152.808C55.6227 158.73 57.9176 161.816 60.4461 162.894C62.9589 163.964 65.8023 163.088 68.7529 160.821L69.1795 160.493L69.1254 161.028C68.4905 167.301 68.7364 171.955 69.5913 175.744C70.4409 179.51 71.8945 182.434 73.7011 185.254C73.7101 185.257 73.7231 185.26 73.7411 185.263C73.7952 185.272 73.8733 185.277 73.9767 185.272C74.1828 185.262 74.4631 185.216 74.8003 185.128C75.4733 184.952 76.3494 184.61 77.2723 184.066C79.1177 182.98 81.1325 181.1 82.0968 178.156C83.171 174.877 84.8975 172.78 86.8464 171.458C88.7919 170.138 90.9435 169.599 92.8558 169.41C94.2564 169.271 95.631 169.672 96.843 170.332L110.39 177.717C116.069 179.355 121.115 184.064 125.646 190.33C130.188 196.61 134.235 204.486 137.9 212.496Z" fill="#ED932C" stroke="black" stroke-width="0.464336"/>
<mask id="mask0_24673_11564" style="mask-type:alpha" maskUnits="userSpaceOnUse" x="51" y="152" width="87" height="63">
<path d="M110.301 177.933C121.529 181.153 130.363 196.581 137.689 212.592L136.767 214.458L120.814 209.45C119.288 205.17 111.146 183.794 106.817 179.928C103.189 179.362 99.7168 182.097 97.6897 186.609C94.5936 193.499 88.3968 199.463 79.643 194.563C68.9419 191.571 44.246 177.295 53.4006 152.888L53.6567 152.873C57.1527 164.75 62.9439 165.577 68.8944 161.005C67.6212 173.585 69.8748 179.725 73.5361 185.427C74.0772 185.91 80.3453 184.248 82.3174 178.228C84.4361 171.762 89.1033 170.015 92.8787 169.641C94.2203 169.508 95.5481 169.891 96.7319 170.536L110.301 177.933Z" fill="#ED932C"/>
</mask>
<g mask="url(#mask0_24673_11564)">
<path d="M113.732 177.537L114.295 177.813L113.688 177.97L109.891 178.955L109.881 178.958L109.871 178.959L103.687 180.011L95.0858 196.124L95.0285 196.232L94.9077 196.246L86.2303 197.249L86.1488 197.259L86.0795 197.215L76.7558 191.319L76.7293 191.302L76.7082 191.279L73.1481 187.37L73.0725 187.287L73.0906 187.176L73.4727 184.842L73.4811 184.791L73.5106 184.748L84.1954 169.246L84.2454 169.173L84.331 169.152L92.4385 167.153L92.5205 167.133L92.5963 167.17L113.732 177.537Z" fill="#FFE04A" stroke="black" stroke-width="0.464336"/>
<path d="M67.0963 164.031C65.3986 165.411 63.7228 166.042 62.1232 166.084C60.3711 166.129 58.7413 165.465 57.3064 164.359C54.4445 162.153 52.3187 158.161 51.4538 154.32L51.425 154.193L51.5195 154.102L53.2253 152.464L53.4874 152.213L53.6056 152.556C55.295 157.468 57.2053 160.885 59.5993 162.433C60.7863 163.2 62.0976 163.512 63.5799 163.312C65.0688 163.111 66.7425 162.393 68.6405 161.077L69.0751 160.776L69.0027 161.3C68.0968 167.859 69.0866 175.185 71.7662 181.358C74.4458 187.531 78.8012 192.525 84.6075 194.477C86.8321 195.106 89.2839 194.639 91.4626 193.587C93.643 192.533 95.5205 190.907 96.5883 189.267L96.9883 189.502C95.6395 192.067 93.4679 193.977 91.1087 195.145C88.752 196.311 86.1907 196.746 84.0538 196.338L84.0457 196.336L84.0377 196.334C77.1614 194.508 72.4742 188.844 69.7489 182.379C67.1327 176.172 66.3052 169.184 67.0963 164.031Z" fill="#FAC45F" stroke="black" stroke-width="0.464336"/>
<path d="M110.344 177.699L110.355 177.701L110.365 177.704C116.054 179.336 121.108 184.049 125.646 190.324C130.187 196.604 134.235 204.48 137.9 212.49L137.946 212.59L137.897 212.689L136.974 214.555L136.776 214.958L136.562 214.563C135.74 213.042 134.927 211.516 134.118 209.997C130.545 203.289 127.049 196.726 123.2 191.46C118.49 185.015 113.295 180.575 106.85 180.163C105.337 180.711 103.542 182.12 101.919 183.561C101.202 184.198 100.524 184.835 99.9259 185.398C99.8441 185.475 99.7637 185.551 99.6849 185.625C99.0344 186.236 98.4819 186.749 98.0996 187.036L97.5543 187.446L97.7364 186.788C98.5384 183.894 100.089 181.321 102.243 179.62C104.402 177.916 107.16 177.095 110.344 177.699Z" fill="#FAC45F" stroke="black" stroke-width="0.464336"/>
</g>
<path d="M204.845 208.707L204.806 208.811L204.862 208.906L205.907 210.706L206.006 210.878L206.191 210.806L221.773 204.743L221.881 204.701L221.913 204.589C222.53 202.407 224.511 195.851 226.844 189.323C228.011 186.059 229.265 182.807 230.479 180.113C231.679 177.451 232.826 175.368 233.799 174.346C237.209 173.619 240.74 175.999 243.029 180.298C244.816 183.655 247.379 186.753 250.58 188.316C253.793 189.885 257.619 189.892 261.876 187.128C267.15 185.259 275.711 180.341 281.619 172.909C287.546 165.453 290.807 155.452 285.381 143.486L285.318 143.348L285.167 143.35L284.91 143.352L284.726 143.354L284.686 143.534C283.343 149.56 281.259 152.793 278.809 154.036C276.373 155.273 273.477 154.588 270.382 152.524L269.934 152.225L270.024 152.756C271.077 158.972 271.143 163.632 270.543 167.47C269.947 171.284 268.692 174.298 267.079 177.234C267.07 177.237 267.057 177.241 267.039 177.245C266.986 177.258 266.908 177.267 266.805 177.269C266.598 177.273 266.316 177.247 265.973 177.181C265.29 177.05 264.393 176.768 263.436 176.287C261.522 175.326 259.386 173.585 258.227 170.713C256.936 167.513 255.073 165.536 253.04 164.347C251.011 163.16 248.828 162.767 246.907 162.706C245.5 162.661 244.156 163.152 242.991 163.893L229.968 172.167C224.411 174.181 219.691 179.217 215.589 185.772C211.478 192.341 207.966 200.471 204.845 208.707Z" fill="#ED932C" stroke="black" stroke-width="0.464336"/>
<mask id="mask1_24673_11564" style="mask-type:alpha" maskUnits="userSpaceOnUse" x="205" y="143" width="83" height="68">
<path d="M230.071 172.377C219.084 176.34 211.301 192.324 205.062 208.79L206.107 210.59L221.689 204.526C222.926 200.153 229.62 178.281 233.68 174.134C237.263 173.327 240.91 175.823 243.234 180.189C246.784 186.857 253.366 192.394 261.772 186.919C272.25 183.218 295.935 167.322 285.169 143.582L284.913 143.585C282.219 155.668 276.496 156.881 270.253 152.717C272.365 165.184 270.527 171.461 267.255 177.395C266.747 177.913 260.382 176.674 258.012 170.8C255.465 164.489 250.692 163.059 246.9 162.938C245.552 162.895 244.253 163.366 243.115 164.089L230.071 172.377Z" fill="#2EF3C5"/>
</mask>
<g mask="url(#mask1_24673_11564)">
<path d="M226.621 172.211L226.078 172.524L226.694 172.64L230.549 173.369L230.559 173.371L230.568 173.372L236.809 174.007L246.469 189.509L246.533 189.613L246.654 189.618L255.38 190.039L255.461 190.043L255.528 189.995L264.436 183.489L264.461 183.47L264.481 183.446L267.772 179.307L267.842 179.219L267.816 179.11L267.279 176.807L267.267 176.757L267.235 176.716L255.537 161.963L255.482 161.894L255.396 161.878L247.173 160.426L247.089 160.412L247.016 160.454L226.621 172.211Z" fill="#FFE04A" stroke="black" stroke-width="0.464336"/>
<path d="M272.249 155.616C274.035 156.88 275.75 157.397 277.348 157.331C279.1 157.259 280.681 156.488 282.039 155.288C284.747 152.896 286.601 148.771 287.207 144.881L287.227 144.752L287.127 144.667L285.316 143.148L285.037 142.914L284.942 143.265C283.585 148.278 281.908 151.815 279.623 153.52C278.49 154.365 277.202 154.764 275.71 154.664C274.211 154.563 272.493 153.958 270.511 152.772L270.057 152.501L270.164 153.018C271.507 159.503 271.009 166.878 268.749 173.217C266.488 179.555 262.476 184.829 256.813 187.165C254.636 187.942 252.158 187.64 249.914 186.735C247.668 185.83 245.686 184.333 244.511 182.768L244.128 183.029C245.645 185.498 247.939 187.259 250.371 188.266C252.801 189.272 255.385 189.535 257.49 188.985L257.498 188.983L257.506 188.98C264.245 186.698 268.543 180.734 270.83 174.1C273.025 167.732 273.383 160.704 272.249 155.616Z" fill="#FAC45F" stroke="black" stroke-width="0.464336"/>
<path d="M230.012 172.146L230.002 172.149L229.992 172.152C224.425 174.16 219.697 179.201 215.589 185.766C211.478 192.335 207.966 200.465 204.845 208.701L204.806 208.805L204.861 208.9L205.906 210.7L206.132 211.089L206.318 210.68C207.037 209.108 207.746 207.531 208.452 205.961C211.568 199.029 214.618 192.247 218.106 186.735C222.374 179.99 227.261 175.212 233.663 174.37C235.21 174.816 237.095 176.102 238.811 177.432C239.569 178.019 240.287 178.609 240.922 179.131C241.009 179.202 241.094 179.272 241.178 179.341C241.868 179.907 242.453 180.382 242.854 180.643L243.425 181.015L243.2 180.371C242.206 177.537 240.487 175.074 238.223 173.521C235.955 171.964 233.149 171.33 230.012 172.146Z" fill="#FAC45F" stroke="black" stroke-width="0.464336"/>
</g>
<mask id="mask2_24673_11564" style="mask-type:alpha" maskUnits="userSpaceOnUse" x="101" y="78" width="141" height="62">
<path d="M171.439 139.558L101.37 117L150.507 78.5217L241.331 117.057L171.439 139.558ZM150.452 78.4984L150.453 78.4985C150.452 78.4985 150.452 78.4984 150.452 78.4984L150.492 78.4051L150.452 78.4984Z" fill="#2E2274" stroke="black" stroke-width="0.464336"/>
</mask>
<g mask="url(#mask2_24673_11564)">
<path d="M186.164 126.599C186.164 136.754 178.111 144.977 168.189 144.977C158.267 144.977 150.215 136.754 150.215 126.599C150.215 116.444 158.267 108.221 168.189 108.221C178.111 108.221 186.164 116.444 186.164 126.599Z" fill="white" stroke="black" stroke-width="0.464336"/>
<g filter="url(#filter0_i_24673_11564)">
<ellipse cx="168.189" cy="126.599" rx="14.0084" ry="14.3187" fill="white"/>
</g>
<path d="M181.965 126.599C181.965 134.384 175.793 140.685 168.189 140.685C160.585 140.685 154.413 134.384 154.413 126.599C154.413 118.814 160.585 112.512 168.189 112.512C175.793 112.512 181.965 118.814 181.965 126.599Z" stroke="black" stroke-width="0.464336"/>
<path d="M171.915 140.88C171.823 139.826 172.09 138.692 172.632 137.492C173.188 136.26 174.028 134.971 175.041 133.643C176.492 131.743 178.28 129.786 180.077 127.82C180.795 127.034 181.515 126.246 182.215 125.461C183.592 123.914 184.866 122.298 186.072 120.762L186.191 120.611C187.354 119.129 188.453 117.729 189.527 116.535C190.639 115.299 191.713 114.296 192.79 113.655C193.843 113.027 194.889 112.752 195.972 112.932C195.975 112.934 195.978 112.937 195.982 112.94C195.992 112.949 196.004 112.959 196.017 112.97C196.066 113.012 196.131 113.069 196.211 113.14C196.371 113.281 196.588 113.474 196.845 113.704C197.36 114.164 198.034 114.769 198.728 115.392C199.214 115.829 199.71 116.275 200.168 116.687C201.016 117.449 201.732 118.093 202.01 118.34C204.037 120.146 204.575 123.312 203.72 127.042C202.867 130.764 200.636 134.989 197.219 138.824C193.803 142.66 189.863 145.363 186.265 146.64C182.658 147.92 179.451 147.75 177.424 145.945C176.811 145.399 175.418 144.119 174.177 142.973C173.557 142.401 172.975 141.863 172.549 141.467L172.04 140.996L171.915 140.88Z" fill="#FDB311" stroke="black" stroke-width="0.464336"/>
<path d="M176.835 120.54C180.251 116.705 184.191 114.001 187.789 112.725C191.396 111.445 194.603 111.615 196.63 113.42C198.657 115.225 199.195 118.391 198.34 122.122C197.487 125.843 195.256 130.068 191.839 133.904C188.423 137.74 184.484 140.443 180.885 141.72C177.278 143 174.071 142.83 172.044 141.025C170.017 139.219 169.479 136.053 170.334 132.322C171.187 128.601 173.418 124.376 176.835 120.54Z" fill="white" stroke="black" stroke-width="0.464336"/>
<g filter="url(#filter1_i_24673_11564)">
<ellipse cx="184.204" cy="127.104" rx="7.38134" ry="14.6636" transform="rotate(-138.31 184.204 127.104)" fill="white"/>
</g>
<path d="M178.865 122.349C181.54 119.346 184.566 117.182 187.288 116.105C190.024 115.022 192.381 115.061 193.802 116.327C195.224 117.593 195.534 119.929 194.774 122.772C194.017 125.6 192.217 128.856 189.543 131.858C186.869 134.861 183.842 137.025 181.12 138.102C178.384 139.185 176.027 139.147 174.606 137.88C173.184 136.614 172.874 134.278 173.634 131.435C174.391 128.607 176.191 125.351 178.865 122.349Z" stroke="black" stroke-width="0.464336"/>
<path d="M140.415 99.9271C141.569 100.314 142.64 101.121 143.655 102.247C144.695 103.402 145.666 104.882 146.597 106.56C147.923 108.951 149.155 111.719 150.389 114.491C150.89 115.617 151.392 116.744 151.9 117.846C152.89 119.992 153.999 122.062 155.056 124.024L155.161 124.218C156.18 126.111 157.144 127.9 157.904 129.57C158.691 131.299 159.251 132.884 159.432 134.308C159.609 135.703 159.419 136.932 158.729 137.993C158.706 138.003 158.676 138.015 158.64 138.03C158.554 138.065 158.435 138.111 158.287 138.169C157.991 138.283 157.581 138.44 157.089 138.625C156.106 138.995 154.799 139.481 153.435 139.982C150.702 140.986 147.75 142.045 146.698 142.363C143.625 143.291 140.129 142.596 136.775 140.327C133.421 138.058 130.22 134.219 127.764 128.891C122.843 118.219 124.572 109.38 129.784 105.757C130.67 105.142 133.34 103.677 135.807 102.357C137.037 101.699 138.211 101.081 139.077 100.626C139.51 100.399 139.866 100.213 140.114 100.084L140.401 99.9346L140.415 99.9271Z" fill="#FDB311" stroke="black" stroke-width="0.464336"/>
<path d="M163.414 112.58C165.866 117.897 166.507 123.429 165.573 128.068C164.638 132.709 162.133 136.44 158.305 138.205C154.476 139.97 150.012 139.452 145.876 137.15C141.741 134.847 137.951 130.768 135.499 125.45C133.048 120.133 132.406 114.601 133.341 109.961C134.275 105.321 136.78 101.59 140.609 99.8247C144.438 98.0594 148.902 98.5775 153.037 100.88C157.172 103.182 160.962 107.262 163.414 112.58Z" fill="white" stroke="black" stroke-width="0.464336"/>
<g filter="url(#filter2_i_24673_11564)">
<ellipse cx="150.268" cy="118.661" rx="11.5782" ry="16.739" transform="rotate(-24.7528 150.268 118.661)" fill="white"/>
</g>
<path d="M160.572 113.911C162.49 118.071 163.056 122.366 162.43 125.942C161.805 129.519 159.994 132.354 157.18 133.652C154.365 134.949 151.034 134.485 147.907 132.638C144.782 130.791 141.883 127.572 139.965 123.412C138.047 119.252 137.481 114.957 138.106 111.38C138.732 107.803 140.542 104.969 143.357 103.671C146.171 102.373 149.503 102.837 152.629 104.684C155.755 106.531 158.654 109.75 160.572 113.911Z" stroke="black" stroke-width="0.464336"/>
</g>
<path d="M226.747 97.0147L226.725 96.9634L226.683 96.9275C225.603 96.0172 224.285 95.6679 222.796 95.6917C221.313 95.7155 219.649 96.1099 217.855 96.6983C216.123 97.2669 214.254 98.0225 212.295 98.814C212.226 98.842 212.157 98.8701 212.087 98.8982C210.05 99.7214 207.917 100.579 205.723 101.311C204.615 101.681 203.481 102.043 202.345 102.406C199.484 103.32 196.61 104.238 194.11 105.288C192.361 106.023 190.782 106.827 189.507 107.749C188.232 108.67 187.248 109.717 186.708 110.941L186.673 111.021L186.699 111.104L186.921 111.035L186.699 111.104L186.699 111.104L186.699 111.105L186.701 111.108L186.705 111.122L186.722 111.176L186.785 111.381L187.018 112.126C187.213 112.751 187.479 113.602 187.764 114.507C188.332 116.318 188.975 118.351 189.269 119.232C190.319 122.378 193.572 124.404 197.883 125.19C202.204 125.977 207.644 125.532 213.188 123.682C218.731 121.833 223.349 118.921 226.331 115.697C229.307 112.481 230.691 108.907 229.641 105.761C229.509 105.366 229.172 104.339 228.772 103.122C228.556 102.464 228.322 101.75 228.092 101.05C227.764 100.053 227.445 99.0855 227.2 98.3483C226.958 97.6198 226.783 97.0993 226.747 97.0147Z" fill="#35CB8C" stroke="black" stroke-width="0.464336"/>
<mask id="mask3_24673_11564" style="mask-type:alpha" maskUnits="userSpaceOnUse" x="186" y="95" width="44" height="31">
<path d="M205.796 101.531C214.602 98.5929 222.429 93.6453 226.533 97.105C226.657 97.3989 229.014 104.615 229.421 105.835C231.442 111.891 224.141 119.783 213.114 123.462C202.087 127.141 191.51 125.215 189.49 119.159C188.903 117.401 186.921 111.035 186.921 111.035C188.992 106.341 197.969 104.143 205.796 101.531Z" fill="#35CB8C"/>
</mask>
<g mask="url(#mask3_24673_11564)">
<path d="M213.163 128.636L208.353 113.967L184.226 107.474L184.707 127.274L213.163 128.636Z" fill="#1A9763"/>
<path d="M209.385 126.564L205.967 115.893H202.651L205.967 126.564H209.385Z" fill="#35CB8C"/>
</g>
<path d="M203.378 93.9401C208.861 92.1104 214.222 91.6787 218.452 92.4493C222.692 93.2215 225.737 95.1865 226.709 98.0969C227.68 101.007 226.424 104.408 223.498 107.571C220.578 110.727 216.032 113.601 210.549 115.431C205.065 117.26 199.704 117.692 195.474 116.922C191.235 116.149 188.189 114.184 187.218 111.274C186.246 108.363 187.502 104.963 190.428 101.8C193.348 98.6438 197.894 95.7698 203.378 93.9401Z" fill="white" stroke="black" stroke-width="0.464336"/>
<g filter="url(#filter3_i_24673_11564)">
<ellipse cx="206.899" cy="104.495" rx="8.30141" ry="16.4914" transform="rotate(-108.452 206.899 104.495)" fill="white"/>
</g>
<path d="M204.345 96.8406C208.638 95.4082 212.806 94.9914 216.07 95.4656C219.348 95.9419 221.64 97.3017 222.323 99.3487C223.006 101.396 221.99 103.859 219.654 106.209C217.329 108.547 213.746 110.717 209.453 112.149C205.161 113.582 200.993 113.999 197.729 113.524C194.451 113.048 192.159 111.688 191.476 109.641C190.793 107.594 191.809 105.131 194.144 102.781C196.469 100.443 200.052 98.273 204.345 96.8406Z" stroke="black" stroke-width="0.464336"/>
<mask id="path-43-outside-1_24673_11564" maskUnits="userSpaceOnUse" x="193.258" y="98.5528" width="26.1509" height="14.3994" fill="black">
<rect fill="white" x="193.258" y="98.5528" width="26.1509" height="14.3994"/>
<path d="M205.009 105.251L205.011 105.25C205.052 105.287 205.269 105.475 205.813 105.867C206.247 106.18 206.575 106.39 206.693 106.463L206.691 106.464C208.5 107.606 210.289 108.261 210.941 107.967C211.591 107.675 210.889 106.531 209.357 105.265L207.232 106.22C207.108 106.148 206.76 105.938 206.328 105.626C205.809 105.252 205.59 105.046 205.55 105.008L207.673 104.053C205.865 102.914 204.079 102.262 203.429 102.554C202.779 102.846 203.48 103.988 205.007 105.252M207.893 103.954L209.794 103.099L207.467 101.422L210.366 100.119L216.7 104.685L213.801 105.989L211.475 104.311L209.574 105.166C211.302 106.602 212.024 107.941 211.185 108.319C210.345 108.696 208.224 107.985 206.169 106.697L200.076 109.437L198.394 108.224L204.487 105.484C202.762 104.05 202.043 102.713 202.882 102.335C203.719 101.959 205.84 102.667 207.89 103.954"/>
</mask>
<path d="M205.009 105.251L205.011 105.25C205.052 105.287 205.269 105.475 205.813 105.867C206.247 106.18 206.575 106.39 206.693 106.463L206.691 106.464C208.5 107.606 210.289 108.261 210.941 107.967C211.591 107.675 210.889 106.531 209.357 105.265L207.232 106.22C207.108 106.148 206.76 105.938 206.328 105.626C205.809 105.252 205.59 105.046 205.55 105.008L207.673 104.053C205.865 102.914 204.079 102.262 203.429 102.554C202.779 102.846 203.48 103.988 205.007 105.252M207.893 103.954L209.794 103.099L207.467 101.422L210.366 100.119L216.7 104.685L213.801 105.989L211.475 104.311L209.574 105.166C211.302 106.602 212.024 107.941 211.185 108.319C210.345 108.696 208.224 107.985 206.169 106.697L200.076 109.437L198.394 108.224L204.487 105.484C202.762 104.05 202.043 102.713 202.882 102.335C203.719 101.959 205.84 102.667 207.89 103.954" fill="#45E09F"/>
<path d="M205.011 105.25L204.686 105.016L205.096 104.832L205.411 105.114L205.011 105.25ZM206.693 106.463L207.029 106.279L207.414 106.518L207.017 106.697L206.693 106.463ZM206.691 106.464L206.351 106.644L205.974 106.406L206.366 106.23L206.691 106.464ZM209.357 105.265L209.032 105.031L209.425 104.854L209.745 105.118L209.357 105.265ZM207.232 106.22L207.556 106.454L207.232 106.6L206.907 106.411L207.232 106.22ZM205.55 105.008L205.141 105.135L204.912 104.915L205.225 104.774L205.55 105.008ZM207.673 104.053L208.013 103.872L208.39 104.11L207.997 104.287L207.673 104.053ZM209.794 103.099L210.159 102.935L210.483 103.169L210.118 103.333L209.794 103.099ZM207.467 101.422L207.103 101.586L206.778 101.352L207.143 101.188L207.467 101.422ZM210.366 100.119L210.042 99.8849L210.406 99.7209L210.731 99.9548L210.366 100.119ZM216.7 104.685L217.065 104.521L217.389 104.755L217.024 104.919L216.7 104.685ZM213.801 105.989L214.126 106.222L213.761 106.386L213.436 106.153L213.801 105.989ZM211.475 104.311L211.15 104.077L211.515 103.913L211.84 104.147L211.475 104.311ZM209.574 105.166L209.185 105.312L208.911 105.084L209.249 104.932L209.574 105.166ZM206.169 106.697L205.845 106.463L206.182 106.311L206.508 106.515L206.169 106.697ZM200.076 109.437L200.4 109.671L200.035 109.835L199.711 109.601L200.076 109.437ZM198.394 108.224L198.029 108.388L197.704 108.154L198.069 107.99L198.394 108.224ZM204.487 105.484L204.876 105.339L205.15 105.566L204.812 105.718L204.487 105.484ZM204.684 105.017L204.686 105.016L205.335 105.484L205.333 105.485L204.684 105.017ZM205.411 105.114C205.438 105.139 205.643 105.317 206.178 105.703L205.448 106.031C204.896 105.633 204.666 105.435 204.611 105.386L205.411 105.114ZM206.178 105.703C206.603 106.009 206.921 106.212 207.029 106.279L206.357 106.646C206.229 106.567 205.892 106.351 205.448 106.031L206.178 105.703ZM207.017 106.697L207.015 106.698L206.366 106.23L206.368 106.229L207.017 106.697ZM207.031 106.283C207.913 106.84 208.772 107.266 209.468 107.515C209.817 107.64 210.101 107.711 210.31 107.738C210.52 107.766 210.595 107.743 210.617 107.733L211.266 108.201C210.961 108.338 210.568 108.343 210.202 108.295C209.836 108.247 209.437 108.138 209.032 107.993C208.218 107.702 207.277 107.23 206.351 106.644L207.031 106.283ZM210.617 107.733C210.638 107.724 210.694 107.688 210.695 107.565C210.696 107.443 210.64 107.269 210.508 107.046C210.244 106.603 209.716 106.028 208.969 105.411L209.745 105.118C210.53 105.767 211.118 106.397 211.427 106.916C211.58 107.174 211.674 107.42 211.671 107.634C211.669 107.848 211.57 108.065 211.266 108.201L210.617 107.733ZM209.681 105.499L207.556 106.454L206.907 105.986L209.032 105.031L209.681 105.499ZM206.907 106.411C206.773 106.332 206.41 106.113 205.963 105.79L206.693 105.462C207.11 105.763 207.444 105.965 207.556 106.03L206.907 106.411ZM205.963 105.79C205.428 105.405 205.195 105.187 205.141 105.135L205.959 104.881C205.986 104.906 206.189 105.099 206.693 105.462L205.963 105.79ZM205.225 104.774L207.348 103.819L207.997 104.287L205.874 105.242L205.225 104.774ZM207.333 104.234C206.452 103.679 205.594 103.254 204.899 103.006C204.55 102.882 204.267 102.811 204.059 102.783C203.849 102.756 203.775 102.778 203.754 102.788L203.105 102.32C203.408 102.184 203.801 102.178 204.166 102.226C204.532 102.275 204.93 102.383 205.335 102.527C206.147 102.817 207.086 103.288 208.013 103.872L207.333 104.234ZM203.754 102.788C203.732 102.798 203.676 102.833 203.675 102.956C203.674 103.078 203.729 103.251 203.861 103.474C204.124 103.916 204.65 104.489 205.395 105.106L204.619 105.398C203.837 104.75 203.249 104.121 202.942 103.604C202.789 103.346 202.696 103.1 202.699 102.887C202.701 102.673 202.801 102.457 203.105 102.32L203.754 102.788ZM207.569 103.72L209.469 102.866L210.118 103.333L208.218 104.188L207.569 103.72ZM209.429 103.264L207.103 101.586L207.832 101.258L210.159 102.935L209.429 103.264ZM207.143 101.188L210.042 99.8849L210.691 100.353L207.792 101.656L207.143 101.188ZM210.731 99.9548L217.065 104.521L216.335 104.849L210.001 100.283L210.731 99.9548ZM217.024 104.919L214.126 106.222L213.477 105.755L216.375 104.451L217.024 104.919ZM213.436 106.153L211.11 104.475L211.84 104.147L214.166 105.824L213.436 106.153ZM211.799 104.545L209.898 105.4L209.249 104.932L211.15 104.077L211.799 104.545ZM209.962 105.02C210.849 105.757 211.495 106.482 211.808 107.086C211.965 107.387 212.046 107.673 212.017 107.921C211.988 108.17 211.843 108.402 211.509 108.553L210.86 108.085C210.946 108.046 211.025 107.97 211.043 107.817C211.061 107.663 211.011 107.453 210.876 107.193C210.607 106.674 210.027 106.011 209.185 105.312L209.962 105.02ZM211.509 108.553C211.175 108.703 210.744 108.729 210.311 108.688C209.881 108.646 209.412 108.535 208.934 108.378C207.974 108.065 206.884 107.539 205.83 106.878L206.508 106.515C207.508 107.143 208.506 107.617 209.332 107.887C209.745 108.022 210.092 108.098 210.36 108.124C210.626 108.15 210.775 108.123 210.86 108.085L211.509 108.553ZM206.494 106.931L200.4 109.671L199.751 109.203L205.845 106.463L206.494 106.931ZM199.711 109.601L198.029 108.388L198.759 108.06L200.44 109.273L199.711 109.601ZM198.069 107.99L204.163 105.25L204.812 105.718L198.718 108.458L198.069 107.99ZM204.099 105.63C203.214 104.894 202.569 104.17 202.257 103.567C202.101 103.266 202.02 102.98 202.049 102.733C202.078 102.484 202.224 102.252 202.557 102.101L203.206 102.569C203.121 102.608 203.041 102.684 203.023 102.837C203.005 102.991 203.054 103.201 203.189 103.46C203.458 103.979 204.036 104.64 204.876 105.339L204.099 105.63ZM202.557 102.101C202.891 101.951 203.321 101.925 203.754 101.967C204.183 102.008 204.652 102.119 205.13 102.275C206.088 102.588 207.177 103.112 208.229 103.773L207.551 104.136C206.553 103.509 205.556 103.036 204.732 102.767C204.319 102.632 203.973 102.556 203.705 102.53C203.44 102.505 203.291 102.531 203.206 102.569L202.557 102.101Z" fill="black" mask="url(#path-43-outside-1_24673_11564)"/>
<path d="M188.417 202.685C189.16 202.417 190.052 202.381 191.066 202.525C192.123 202.675 193.296 203.019 194.543 203.482C196.32 204.14 198.222 205.028 200.129 205.919C200.905 206.282 201.682 206.644 202.451 206.992C203.948 207.669 205.47 208.256 206.914 208.81C206.961 208.829 207.009 208.847 207.056 208.865C208.45 209.4 209.765 209.905 210.922 210.434C212.119 210.982 213.13 211.549 213.874 212.191C214.594 212.813 215.051 213.494 215.192 214.285C215.188 214.293 215.183 214.303 215.178 214.314C215.151 214.367 215.112 214.44 215.063 214.531C214.966 214.712 214.83 214.963 214.666 215.262C214.338 215.861 213.899 216.654 213.438 217.479C212.512 219.132 211.504 220.901 211.119 221.499C208.884 224.966 202.637 226.571 195.223 223.219C187.81 219.868 184.769 214.011 185.73 210.041C185.894 209.366 186.57 207.512 187.215 205.808C187.535 204.96 187.845 204.155 188.075 203.562C188.19 203.266 188.285 203.023 188.351 202.854L188.417 202.685Z" fill="#5D42FF" stroke="black" stroke-width="0.464336"/>
<path d="M206.183 198.866C209.998 200.591 212.933 203.278 214.598 206.218C216.264 209.158 216.654 212.334 215.419 215.066C214.184 217.797 211.542 219.603 208.235 220.295C204.927 220.987 200.971 220.559 197.156 218.834C193.341 217.109 190.406 214.422 188.74 211.482C187.074 208.542 186.685 205.366 187.92 202.634C189.155 199.903 191.796 198.097 195.104 197.405C198.412 196.713 202.368 197.141 206.183 198.866Z" fill="white" stroke="black" stroke-width="0.464336"/>
<g filter="url(#filter4_i_24673_11564)">
<ellipse cx="201.943" cy="208.277" rx="8.30343" ry="12.0046" transform="rotate(-65.6733 201.943 208.277)" fill="white"/>
</g>
<path d="M205.268 200.922C208.251 202.271 210.564 204.324 211.898 206.543C213.232 208.763 213.575 211.126 212.67 213.127C211.766 215.127 209.765 216.43 207.218 216.896C204.671 217.36 201.601 216.98 198.618 215.632C195.635 214.283 193.322 212.23 191.989 210.011C190.655 207.791 190.312 205.428 191.216 203.428C192.12 201.427 194.121 200.124 196.669 199.659C199.215 199.194 202.285 199.574 205.268 200.922Z" stroke="black" stroke-width="0.464336"/>
<path fill-rule="evenodd" clip-rule="evenodd" d="M205.25 211.062C205.048 211.509 205.46 212.133 206.172 212.454C206.883 212.776 207.624 212.674 207.826 212.227C208.028 211.78 207.616 211.156 206.904 210.834C206.193 210.513 205.452 210.614 205.25 211.062ZM199.887 213.043C198.44 212.388 197.601 211.12 198.012 210.21C198.424 209.3 199.931 209.092 201.378 209.747C202.826 210.402 203.665 211.67 203.253 212.58C202.842 213.49 201.335 213.698 199.887 213.043ZM196.178 207.935C195.467 207.613 195.054 206.989 195.256 206.542C195.459 206.095 196.199 205.993 196.911 206.315C197.622 206.636 198.035 207.26 197.833 207.707C197.63 208.155 196.889 208.256 196.178 207.935ZM207.037 206.874C206.145 206.185 204.861 206.007 204.199 206.465C203.765 206.774 203.696 207.281 203.973 207.793C204.173 208.237 204.114 208.664 203.727 208.927C203.487 209.104 203.16 209.175 202.793 209.16L202.742 209.154C202.583 209.15 202.412 209.173 202.317 209.265C202.048 209.446 202.138 209.84 202.499 210.104C202.855 210.383 203.384 210.454 203.631 210.263C203.749 210.181 203.799 210.07 203.783 209.928C203.773 209.654 203.887 209.403 204.127 209.226C204.485 208.967 205.037 208.93 205.592 209.064L205.642 209.07C205.665 209.08 205.687 209.09 205.693 209.076L205.738 209.096C206.404 209.279 207.057 209.255 207.462 208.951C208.146 208.503 207.957 207.56 207.037 206.874ZM201.979 205.461C201.886 204.662 200.905 203.814 199.798 203.6C198.669 203.375 197.843 203.842 197.958 204.652C197.997 205.157 198.41 205.663 198.988 206.042L199.032 206.063C199.026 206.076 199.048 206.087 199.07 206.097L199.108 206.131C199.575 206.459 199.912 206.898 199.954 207.337C199.979 207.635 199.866 207.886 199.654 208.06C199.536 208.141 199.486 208.253 199.502 208.395C199.522 208.706 199.925 209.057 200.369 209.14C200.806 209.237 201.161 209.044 201.119 208.723C201.125 208.591 201.03 208.447 200.922 208.331L200.884 208.297C200.63 208.03 200.468 207.738 200.442 207.44C200.384 206.977 200.666 206.65 201.131 206.507C201.699 206.377 202.034 205.99 201.979 205.461Z" fill="#6558FF"/>
<path d="M204.199 206.465L204.085 206.301L204.083 206.302L204.199 206.465ZM207.037 206.874L206.915 207.032L206.917 207.034L207.037 206.874ZM203.973 207.793L204.155 207.711L204.152 207.704L204.149 207.698L203.973 207.793ZM203.727 208.927L203.615 208.761L203.609 208.766L203.727 208.927ZM202.793 209.16L202.769 209.359L202.777 209.36L202.784 209.36L202.793 209.16ZM202.742 209.154L202.766 208.955L202.757 208.954L202.747 208.954L202.742 209.154ZM202.317 209.265L202.429 209.431L202.443 209.421L202.456 209.409L202.317 209.265ZM202.499 210.104L202.623 209.947L202.617 209.943L202.499 210.104ZM203.631 210.263L203.517 210.099L203.509 210.105L203.631 210.263ZM203.783 209.928L203.583 209.935L203.583 209.943L203.584 209.95L203.783 209.928ZM204.127 209.226L204.01 209.063L204.009 209.064L204.127 209.226ZM205.592 209.064L205.545 209.258L205.556 209.261L205.568 209.262L205.592 209.064ZM205.642 209.07L205.725 208.887L205.697 208.875L205.666 208.871L205.642 209.07ZM205.693 209.076L205.776 208.894L205.593 208.811L205.511 208.993L205.693 209.076ZM205.738 209.096L205.655 209.278L205.669 209.285L205.685 209.289L205.738 209.096ZM207.462 208.951L207.352 208.783L207.342 208.791L207.462 208.951ZM199.798 203.6L199.759 203.796L199.76 203.796L199.798 203.6ZM201.979 205.461L202.178 205.44L202.178 205.438L201.979 205.461ZM197.958 204.652L198.158 204.636L198.156 204.623L197.958 204.652ZM198.988 206.042L198.878 206.21L198.891 206.218L198.905 206.225L198.988 206.042ZM199.032 206.063L199.214 206.145L199.297 205.963L199.114 205.88L199.032 206.063ZM199.07 206.097L199.203 205.947L199.181 205.927L199.153 205.914L199.07 206.097ZM199.108 206.131L198.975 206.28L198.984 206.287L198.993 206.294L199.108 206.131ZM199.954 207.337L200.153 207.32L200.153 207.318L199.954 207.337ZM199.654 208.06L199.768 208.224L199.774 208.219L199.78 208.215L199.654 208.06ZM199.502 208.395L199.702 208.382L199.701 208.372L199.502 208.395ZM200.369 209.14L200.412 208.945L200.405 208.944L200.369 209.14ZM201.119 208.723L200.92 208.713L200.919 208.731L200.921 208.748L201.119 208.723ZM200.922 208.331L201.069 208.194L201.062 208.188L201.055 208.181L200.922 208.331ZM200.884 208.297L200.739 208.435L200.745 208.44L200.751 208.446L200.884 208.297ZM200.442 207.44L200.641 207.423L200.64 207.416L200.442 207.44ZM201.131 206.507L201.087 206.312L201.08 206.314L201.073 206.316L201.131 206.507ZM206.254 212.272C205.927 212.124 205.678 211.911 205.535 211.695C205.39 211.476 205.369 211.283 205.432 211.144L205.068 210.979C204.928 211.288 205.012 211.63 205.201 211.916C205.392 212.204 205.705 212.463 206.089 212.637L206.254 212.272ZM207.644 212.145C207.581 212.283 207.422 212.395 207.163 212.431C206.906 212.466 206.581 212.42 206.254 212.272L206.089 212.637C206.474 212.811 206.875 212.874 207.217 212.827C207.556 212.781 207.869 212.618 208.008 212.309L207.644 212.145ZM206.822 211.017C207.149 211.164 207.398 211.378 207.541 211.594C207.686 211.813 207.707 212.006 207.644 212.145L208.008 212.309C208.148 212.001 208.064 211.659 207.875 211.373C207.684 211.085 207.371 210.826 206.987 210.652L206.822 211.017ZM205.432 211.144C205.495 211.005 205.654 210.893 205.914 210.858C206.17 210.823 206.495 210.869 206.822 211.017L206.987 210.652C206.602 210.478 206.201 210.414 205.859 210.462C205.52 210.508 205.207 210.671 205.068 210.979L205.432 211.144ZM197.83 210.127C197.586 210.667 197.724 211.286 198.086 211.833C198.449 212.381 199.052 212.885 199.805 213.225L199.97 212.861C199.275 212.547 198.735 212.088 198.419 211.612C198.102 211.132 198.027 210.662 198.194 210.292L197.83 210.127ZM201.461 209.565C200.708 209.224 199.932 209.104 199.28 209.193C198.631 209.283 198.074 209.587 197.83 210.127L198.194 210.292C198.362 209.922 198.765 209.668 199.334 209.59C199.9 209.512 200.601 209.615 201.296 209.929L201.461 209.565ZM203.436 212.663C203.68 212.123 203.541 211.504 203.18 210.957C202.817 210.409 202.213 209.905 201.461 209.565L201.296 209.929C201.991 210.243 202.531 210.702 202.846 211.178C203.163 211.658 203.239 212.128 203.071 212.498L203.436 212.663ZM199.805 213.225C200.558 213.566 201.334 213.686 201.986 213.597C202.635 213.507 203.191 213.203 203.436 212.663L203.071 212.498C202.904 212.868 202.501 213.122 201.932 213.2C201.365 213.278 200.665 213.175 199.97 212.861L199.805 213.225ZM195.074 206.46C194.934 206.768 195.019 207.11 195.208 207.396C195.398 207.684 195.711 207.943 196.096 208.117L196.26 207.752C195.934 207.605 195.684 207.391 195.541 207.175C195.397 206.957 195.376 206.763 195.439 206.624L195.074 206.46ZM196.993 206.132C196.609 205.958 196.208 205.895 195.865 205.942C195.526 205.988 195.214 206.151 195.074 206.46L195.439 206.624C195.501 206.486 195.66 206.374 195.92 206.338C196.176 206.303 196.502 206.349 196.828 206.497L196.993 206.132ZM198.015 207.79C198.154 207.481 198.07 207.139 197.881 206.853C197.69 206.565 197.378 206.306 196.993 206.132L196.828 206.497C197.155 206.645 197.405 206.858 197.548 207.074C197.692 207.293 197.713 207.486 197.65 207.625L198.015 207.79ZM196.096 208.117C196.48 208.291 196.881 208.355 197.223 208.308C197.563 208.261 197.875 208.098 198.015 207.79L197.65 207.625C197.588 207.764 197.429 207.876 197.169 207.911C196.912 207.947 196.587 207.9 196.26 207.752L196.096 208.117ZM204.313 206.63C204.587 206.44 205.016 206.368 205.503 206.437C205.986 206.506 206.497 206.71 206.915 207.032L207.159 206.716C206.684 206.349 206.108 206.119 205.56 206.041C205.016 205.964 204.472 206.033 204.085 206.301L204.313 206.63ZM204.149 207.698C204.026 207.471 203.988 207.261 204.017 207.084C204.045 206.911 204.139 206.753 204.315 206.628L204.083 206.302C203.825 206.485 203.668 206.735 203.622 207.021C203.577 207.303 203.643 207.602 203.797 207.888L204.149 207.698ZM203.84 209.092C204.074 208.933 204.218 208.716 204.266 208.466C204.314 208.22 204.268 207.96 204.155 207.711L203.791 207.875C203.878 208.07 203.902 208.245 203.874 208.39C203.846 208.53 203.767 208.658 203.615 208.761L203.84 209.092ZM202.784 209.36C203.179 209.376 203.556 209.301 203.846 209.088L203.609 208.766C203.417 208.907 203.142 208.974 202.801 208.96L202.784 209.36ZM202.718 209.353L202.769 209.359L202.817 208.962L202.766 208.955L202.718 209.353ZM202.456 209.409C202.467 209.398 202.495 209.381 202.55 209.368C202.603 209.357 202.667 209.352 202.736 209.354L202.747 208.954C202.658 208.952 202.558 208.957 202.462 208.978C202.368 209 202.262 209.04 202.178 209.121L202.456 209.409ZM202.617 209.943C202.465 209.832 202.388 209.705 202.367 209.61C202.348 209.524 202.372 209.469 202.429 209.431L202.206 209.099C201.993 209.242 201.927 209.474 201.976 209.696C202.023 209.909 202.172 210.112 202.381 210.266L202.617 209.943ZM203.509 210.105C203.446 210.154 203.315 210.187 203.134 210.162C202.959 210.137 202.771 210.063 202.623 209.947L202.376 210.262C202.583 210.424 202.838 210.525 203.079 210.558C203.312 210.59 203.57 210.563 203.754 210.421L203.509 210.105ZM203.584 209.95C203.589 209.991 203.583 210.018 203.575 210.036C203.567 210.053 203.551 210.075 203.517 210.099L203.746 210.427C203.829 210.369 203.897 210.294 203.939 210.2C203.982 210.107 203.993 210.006 203.982 209.905L203.584 209.95ZM204.009 209.064C203.714 209.281 203.571 209.596 203.583 209.935L203.983 209.92C203.975 209.712 204.059 209.524 204.246 209.387L204.009 209.064ZM205.638 208.869C205.057 208.73 204.436 208.756 204.01 209.063L204.245 209.388C204.534 209.178 205.016 209.131 205.545 209.258L205.638 208.869ZM205.666 208.871L205.616 208.865L205.568 209.262L205.619 209.268L205.666 208.871ZM205.511 208.993C205.521 208.97 205.538 208.946 205.562 208.926C205.587 208.906 205.612 208.895 205.635 208.889C205.677 208.878 205.709 208.885 205.717 208.886C205.733 208.89 205.743 208.896 205.725 208.887L205.56 209.252C205.564 209.254 205.597 209.269 205.631 209.277C205.648 209.281 205.688 209.288 205.736 209.276C205.796 209.26 205.848 209.219 205.875 209.158L205.511 208.993ZM205.82 208.914L205.776 208.894L205.611 209.258L205.655 209.278L205.82 208.914ZM207.342 208.791C207.01 209.04 206.434 209.08 205.791 208.903L205.685 209.289C206.373 209.478 207.103 209.471 207.582 209.11L207.342 208.791ZM206.917 207.034C207.351 207.357 207.591 207.726 207.655 208.041C207.717 208.345 207.621 208.607 207.352 208.783L207.572 209.118C207.987 208.846 208.139 208.413 208.047 207.962C207.958 207.522 207.643 207.076 207.156 206.714L206.917 207.034ZM199.76 203.796C200.278 203.896 200.769 204.146 201.139 204.463C201.513 204.783 201.742 205.153 201.781 205.484L202.178 205.438C202.123 204.97 201.816 204.516 201.399 204.159C200.979 203.799 200.425 203.517 199.836 203.403L199.76 203.796ZM198.156 204.623C198.111 204.305 198.243 204.064 198.51 203.912C198.789 203.753 199.225 203.69 199.759 203.796L199.837 203.403C199.242 203.285 198.7 203.343 198.312 203.564C197.913 203.792 197.69 204.188 197.76 204.68L198.156 204.623ZM199.097 205.875C198.539 205.509 198.189 205.049 198.157 204.636L197.759 204.667C197.805 205.264 198.281 205.818 198.878 206.21L199.097 205.875ZM199.114 205.88L199.07 205.86L198.905 206.225L198.95 206.245L199.114 205.88ZM199.153 205.914C199.135 205.906 199.145 205.91 199.158 205.92C199.165 205.925 199.192 205.944 199.211 205.982C199.221 206.004 199.23 206.031 199.231 206.062C199.232 206.094 199.225 206.122 199.214 206.145L198.85 205.98C198.822 206.041 198.826 206.107 198.854 206.162C198.876 206.206 198.908 206.232 198.922 206.242C198.95 206.263 198.983 206.277 198.988 206.279L199.153 205.914ZM199.241 205.982L199.203 205.947L198.937 206.246L198.975 206.28L199.241 205.982ZM200.153 207.318C200.103 206.795 199.712 206.311 199.223 205.967L198.993 206.294C199.438 206.607 199.72 207 199.754 207.356L200.153 207.318ZM199.78 208.215C200.043 208 200.184 207.684 200.153 207.32L199.754 207.355C199.774 207.586 199.688 207.773 199.527 207.905L199.78 208.215ZM199.701 208.372C199.696 208.331 199.702 208.305 199.71 208.287C199.718 208.269 199.734 208.247 199.768 208.224L199.539 207.896C199.456 207.953 199.388 208.028 199.346 208.122C199.303 208.216 199.292 208.317 199.303 208.417L199.701 208.372ZM200.405 208.944C200.22 208.909 200.041 208.817 199.907 208.702C199.768 208.582 199.707 208.462 199.702 208.382L199.302 208.407C199.317 208.639 199.467 208.85 199.646 209.005C199.829 209.163 200.073 209.288 200.332 209.337L200.405 208.944ZM200.921 208.748C200.93 208.816 200.904 208.871 200.827 208.913C200.742 208.96 200.596 208.986 200.412 208.945L200.325 209.335C200.579 209.392 200.83 209.369 201.02 209.263C201.22 209.153 201.351 208.951 201.318 208.697L200.921 208.748ZM200.776 208.467C200.823 208.517 200.862 208.569 200.888 208.617C200.915 208.666 200.92 208.698 200.92 208.713L201.319 208.732C201.325 208.616 201.285 208.51 201.239 208.425C201.192 208.339 201.13 208.26 201.069 208.194L200.776 208.467ZM200.751 208.446L200.789 208.48L201.055 208.181L201.017 208.147L200.751 208.446ZM200.243 207.458C200.274 207.816 200.467 208.149 200.739 208.435L201.029 208.158C200.793 207.912 200.662 207.66 200.641 207.423L200.243 207.458ZM201.073 206.316C200.811 206.396 200.585 206.533 200.432 206.731C200.276 206.933 200.208 207.184 200.243 207.465L200.64 207.416C200.618 207.233 200.662 207.089 200.749 206.976C200.839 206.859 200.986 206.761 201.19 206.699L201.073 206.316ZM201.78 205.482C201.803 205.696 201.746 205.871 201.634 206.007C201.521 206.144 201.338 206.255 201.087 206.312L201.176 206.702C201.493 206.63 201.761 206.482 201.943 206.261C202.127 206.038 202.211 205.755 202.178 205.44L201.78 205.482Z" fill="black"/>
<path d="M172.943 219.254C173.026 218.694 173.3 218.129 173.73 217.553C174.182 216.948 174.798 216.343 175.518 215.735C176.549 214.865 177.772 214.005 179.005 213.139C179.5 212.791 179.996 212.443 180.481 212.092C181.436 211.403 182.34 210.663 183.195 209.962L183.278 209.893C184.104 209.215 184.881 208.578 185.618 208.05C186.382 207.505 187.089 207.089 187.749 206.871C188.382 206.661 188.96 206.638 189.502 206.848L189.505 206.851C189.526 206.88 189.555 206.92 189.591 206.968C189.662 207.066 189.758 207.199 189.872 207.358C190.101 207.675 190.399 208.092 190.707 208.521C190.922 208.822 191.142 209.13 191.345 209.414C191.721 209.939 192.038 210.383 192.162 210.554C193.03 211.757 192.956 213.53 192.033 215.475C191.114 217.411 189.375 219.462 187.027 221.157C184.679 222.853 182.185 223.858 180.058 224.121C177.922 224.385 176.216 223.898 175.347 222.695C175.075 222.319 174.462 221.441 173.916 220.656C173.643 220.263 173.387 219.894 173.199 219.624L172.976 219.3L172.943 219.254Z" fill="#35CB8C" stroke="black" stroke-width="0.464336"/>
<path d="M178.108 208.712C180.456 207.017 182.95 206.012 185.077 205.748C187.213 205.484 188.919 205.971 189.788 207.174C190.657 208.377 190.582 210.15 189.659 212.095C188.74 214.031 187.002 216.082 184.653 217.777C182.305 219.473 179.811 220.478 177.685 220.741C175.548 221.005 173.842 220.518 172.973 219.315C172.105 218.112 172.179 216.339 173.102 214.395C174.021 212.459 175.76 210.408 178.108 208.712Z" fill="white" stroke="black" stroke-width="0.464336"/>
<g filter="url(#filter5_i_24673_11564)">
<ellipse cx="181.322" cy="213.163" rx="4.18152" ry="8.30692" transform="rotate(-125.831 181.322 213.163)" fill="white"/>
</g>
<path d="M179.01 209.961C180.846 208.635 182.771 207.816 184.39 207.556C186.023 207.294 187.271 207.609 187.868 208.436C188.465 209.263 188.371 210.546 187.609 212.014C186.853 213.469 185.47 215.038 183.634 216.365C181.797 217.691 179.872 218.51 178.254 218.769C176.62 219.031 175.372 218.717 174.775 217.89C174.178 217.063 174.272 215.78 175.034 214.311C175.79 212.856 177.173 211.287 179.01 209.961Z" stroke="black" stroke-width="0.464336"/>
<path d="M149.141 109.819C144.468 121.892 131.483 128.092 120.154 123.707C108.826 119.322 103.4 105.995 108.073 93.9221C112.747 81.8494 125.732 75.6487 137.06 80.0338C148.388 84.4189 153.814 97.7463 149.141 109.819Z" fill="#6558FF" stroke="black" stroke-width="0.464336"/>
<path d="M145.924 108.341C141.251 120.414 128.266 126.614 116.938 122.229C105.609 117.844 100.183 104.517 104.857 92.4441C109.53 80.3714 122.515 74.1708 133.843 78.5559C145.172 82.9409 150.598 96.2683 145.924 108.341Z" fill="white" stroke="black" stroke-width="0.464336"/>
<g filter="url(#filter6_i_24673_11564)">
<ellipse cx="125.39" cy="100.393" rx="17.583" ry="18.687" transform="rotate(21.161 125.39 100.393)" fill="white"/>
</g>
<path d="M141.571 106.656C137.887 116.174 127.653 121.058 118.728 117.603C109.804 114.149 105.525 103.647 109.209 94.1291C112.894 84.6114 123.128 79.7277 132.052 83.1821C140.977 86.6366 145.255 97.1384 141.571 106.656Z" stroke="black" stroke-width="0.464336"/>
<path d="M119.109 99.0412L118.258 103.046L120.961 105.722L120.457 108.066L116.169 103.835L117.537 97.4783L119.109 99.0412ZM119.97 95.0382L119.468 97.3709L117.895 95.8065L118.397 93.4738L120.474 92.6946L122.056 94.2609L119.97 95.0382ZM124.674 94.8242L126.751 94.045L128.333 95.6113L126.247 96.3886L124.674 94.8242Z" fill="#F0B90B" stroke="black" stroke-width="0.4"/>
<path d="M119.745 102.498L120.249 100.155L121.822 101.719L121.32 104.052L119.745 102.498ZM122.089 106.843L123.662 108.407L125.748 107.63L125.246 109.963L123.16 110.74L121.587 109.176L122.089 106.843ZM130.951 96.1743L133.028 95.3951L134.61 96.9614L134.108 99.2941L132.022 100.071L132.524 97.7387L130.951 96.1743ZM130.801 105.745L131.672 101.744L133.75 100.965L132.382 107.321L126.734 109.415L127.238 107.071L130.801 105.745Z" fill="#F0B90B" stroke="black" stroke-width="0.4"/>
<path d="M129.671 104.634L127.597 105.402L128.099 103.069L130.176 102.29L129.671 104.634Z" fill="#F0B90B" stroke="black" stroke-width="0.4"/>
<path d="M131.036 98.2869L130.542 100.633L126.969 101.958L126.106 105.971L124.031 106.739L122.456 105.186L123.319 101.173L120.607 98.4954L121.111 96.1518L123.196 95.3743L125.887 98.0575L129.462 96.7223L131.036 98.2869ZM121.971 92.1498L127.612 90.0431L131.897 94.2851L129.82 95.0643L127.11 92.377L123.544 93.7142L121.971 92.1498Z" fill="#F0B90B" stroke="black" stroke-width="0.4"/>
<path d="M187.216 97.4264L187.26 97.3924L187.283 97.3425C188.978 93.7417 187.287 89.6924 184.357 85.2526C182.935 83.0983 181.205 80.8286 179.389 78.4473C179.326 78.3635 179.262 78.2795 179.197 78.1954C177.311 75.7196 175.339 73.1214 173.518 70.3929C172.598 69.0137 171.679 67.597 170.759 66.1785C168.444 62.6086 166.121 59.0278 163.752 56.0076C162.096 53.8951 160.408 52.0456 158.673 50.6571C156.939 49.2687 155.146 48.332 153.279 48.0638L153.194 48.0515L153.121 48.0979L153.246 48.2936C153.121 48.0979 153.121 48.0979 153.121 48.098L153.121 48.0981L153.12 48.0989L153.115 48.1017L153.098 48.1128L153.03 48.1562L152.77 48.3223C152.545 48.4661 152.221 48.6731 151.826 48.9263C151.035 49.4325 149.957 50.1228 148.811 50.8593C146.518 52.3316 143.946 53.9901 142.838 54.7295C138.925 57.3408 137.323 62.5268 137.823 68.7207C138.325 74.9234 140.935 82.194 145.524 89.0716C150.113 95.9491 155.824 101.15 161.359 103.995C166.886 106.835 172.29 107.346 176.203 104.735C176.701 104.403 177.996 103.547 179.531 102.534C180.361 101.985 181.261 101.391 182.143 100.808C183.399 99.9776 184.619 99.17 185.547 98.5524C186.468 97.9399 187.117 97.5044 187.216 97.4264Z" fill="#6558FF" stroke="black" stroke-width="0.464336"/>
<mask id="mask4_24673_11564" style="mask-type:alpha" maskUnits="userSpaceOnUse" x="137" y="48" width="51" height="59">
<path d="M153.205 48.3966C154.934 48.6679 156.626 49.5514 158.298 50.8918C159.997 52.2539 161.663 54.0785 163.313 56.1833C165.674 59.1951 167.985 62.7579 170.303 66.3306C171.228 67.7572 172.154 69.1853 173.085 70.5806C174.92 73.3307 176.906 75.9474 178.797 78.4294C178.859 78.5118 178.922 78.5939 178.984 78.6759C180.808 81.0694 182.534 83.3346 183.951 85.4815C186.88 89.9194 188.419 93.7529 186.888 97.0919C186.717 97.2132 186.128 97.608 185.29 98.1658C184.362 98.783 183.143 99.5902 181.887 100.421C181.006 101.003 180.108 101.596 179.279 102.144C177.742 103.159 176.445 104.016 175.946 104.349C172.236 106.824 167.027 106.38 161.558 103.561C156.097 100.747 150.43 95.5877 145.863 88.7438C141.297 81.9 138.709 74.6864 138.206 68.5635C137.703 62.4316 139.293 57.451 143.003 54.9758C144.107 54.2392 146.675 52.5833 148.969 51.1102C150.115 50.374 151.192 49.6839 151.983 49.1778C152.379 48.9247 152.702 48.7177 152.927 48.574L153.187 48.4079L153.205 48.3966Z" fill="#6558FF" stroke="black" stroke-width="0.464336"/>
</mask>
<g mask="url(#mask4_24673_11564)">
<path d="M144.531 96.2978L162.604 83.5026L193.953 94.6984L181.957 106.374L166.283 109.253L144.531 96.2978Z" fill="#4C42C5"/>
<path d="M150.813 99.7446L165.072 89.887L163.762 86.8418L149.461 96.6043L150.813 99.7446Z" fill="#6558FF"/>
</g>
<path d="M183.474 63.923C188.087 70.8374 190.718 78.115 191.251 84.2842C191.784 90.463 190.213 95.4709 186.504 97.9455C182.795 100.42 177.568 99.9486 172.067 97.0839C166.575 94.2236 160.865 89.0006 156.252 82.0862C151.638 75.1718 149.008 67.8943 148.475 61.725C147.941 55.5462 149.513 50.5384 153.222 48.0638C156.93 45.5892 162.158 46.0606 167.658 48.9254C173.15 51.7857 178.86 57.0086 183.474 63.923Z" fill="white" stroke="black" stroke-width="0.464336"/>
<g filter="url(#filter7_i_24673_11564)">
<ellipse cx="170.102" cy="72.8447" rx="11.917" ry="23.6741" transform="rotate(-33.7123 170.102 72.8447)" fill="white"/>
</g>
<path d="M179.822 66.3594C183.435 71.7738 185.594 77.4034 186.173 82.121C186.753 86.8536 185.739 90.5927 183.113 92.3445C180.488 94.0964 176.646 93.5976 172.499 91.2448C168.365 88.8994 163.995 84.7445 160.383 79.3301C156.77 73.9157 154.611 68.286 154.032 63.5684C153.452 58.8358 154.466 55.0967 157.092 53.3449C159.717 51.5931 163.559 52.0919 167.706 54.4447C171.84 56.7901 176.21 60.945 179.822 66.3594Z" stroke="black" stroke-width="0.464336"/>
<path fill-rule="evenodd" clip-rule="evenodd" d="M173.398 80.3369C172.65 80.8261 172.675 82.1863 173.453 83.375C174.231 84.5637 175.467 85.1307 176.215 84.6415C176.962 84.1522 176.938 82.792 176.16 81.6034C175.382 80.4147 174.145 79.8476 173.398 80.3369ZM163.23 78.1419C161.648 75.7236 161.597 72.9563 163.118 71.9609C164.639 70.9656 167.155 72.1192 168.738 74.5376C170.32 76.9559 170.371 79.7233 168.85 80.7186C167.329 81.7139 164.813 80.5603 163.23 78.1419ZM162.524 66.6773C161.746 65.4886 161.721 64.1284 162.469 63.6392C163.216 63.15 164.453 63.717 165.231 64.9057C166.009 66.0944 166.033 67.4546 165.286 67.9438C164.538 68.433 163.302 67.866 162.524 66.6773ZM180.23 75.6527C179.534 73.7231 177.736 72.1972 176.273 72.2536C175.305 72.3036 174.704 73.0149 174.629 74.0713C174.503 74.9486 173.995 75.5465 173.145 75.5725C172.603 75.6095 172.032 75.3999 171.482 75.0178L171.41 74.9589C171.171 74.7973 170.885 74.6663 170.65 74.7143C170.06 74.7294 169.813 75.4212 170.11 76.1808C170.384 76.9557 171.127 77.5822 171.693 77.53C171.953 77.5191 172.139 77.3969 172.253 77.1634C172.505 76.7335 172.925 76.4586 173.467 76.4216C174.269 76.3738 175.152 76.8563 175.874 77.6029L175.946 77.6619C175.97 77.699 175.994 77.7361 176.018 77.7208L176.066 77.795C176.91 78.7271 177.936 79.3276 178.855 79.2558C180.343 79.2364 180.974 77.604 180.23 75.6527ZM173.846 68.5445C174.483 67.2264 173.805 64.9673 172.315 63.557C170.801 62.1097 169.076 62.0198 168.463 63.375C168.029 64.189 168.168 65.3698 168.685 66.5158L168.734 66.59C168.71 66.6052 168.735 66.6423 168.759 66.6795L168.784 66.7689C169.179 67.7294 169.268 68.7312 168.904 69.447C168.653 69.9292 168.232 70.2042 167.738 70.263C167.478 70.2738 167.291 70.396 167.178 70.6295C166.903 71.1271 167.18 72.0591 167.78 72.6201C168.358 73.1965 169.091 73.2468 169.341 72.7121C169.479 72.5157 169.473 72.2015 169.421 71.9177L169.395 71.8282C169.265 71.1712 169.302 70.5645 169.553 70.0822C169.916 69.314 170.668 69.0872 171.522 69.3231C172.521 69.6769 173.413 69.4108 173.846 68.5445Z" fill="#6558FF"/>
<path d="M176.273 72.2536L176.265 72.0537L176.262 72.0538L176.273 72.2536ZM180.23 75.6527L180.042 75.7206L180.044 75.7239L180.23 75.6527ZM174.629 74.0713L174.827 74.0997L174.828 74.0926L174.829 74.0855L174.629 74.0713ZM173.145 75.5725L173.139 75.3725L173.131 75.373L173.145 75.5725ZM171.482 75.0178L171.355 75.1725L171.361 75.1775L171.368 75.1821L171.482 75.0178ZM171.41 74.9589L171.537 74.8042L171.53 74.7983L171.522 74.7932L171.41 74.9589ZM170.65 74.7143L170.655 74.9142L170.673 74.9137L170.69 74.9102L170.65 74.7143ZM170.11 76.1808L170.299 76.1141L170.296 76.1079L170.11 76.1808ZM171.693 77.53L171.685 77.3299L171.675 77.3308L171.693 77.53ZM172.253 77.1634L172.081 77.0623L172.077 77.0689L172.073 77.0758L172.253 77.1634ZM173.467 76.4216L173.456 76.222L173.454 76.2221L173.467 76.4216ZM175.874 77.6029L175.73 77.7419L175.738 77.7503L175.747 77.7576L175.874 77.6029ZM175.946 77.6619L176.113 77.5523L176.096 77.5266L176.073 77.5072L175.946 77.6619ZM176.018 77.7208L176.185 77.6113L176.075 77.4439L175.908 77.5535L176.018 77.7208ZM176.066 77.795L175.899 77.9045L175.907 77.9176L175.918 77.9292L176.066 77.795ZM178.855 79.2558L178.853 79.0553L178.84 79.0564L178.855 79.2558ZM172.315 63.557L172.177 63.7016L172.177 63.7023L172.315 63.557ZM173.846 68.5445L174.025 68.6339L174.026 68.6315L173.846 68.5445ZM168.463 63.375L168.64 63.4693L168.645 63.4574L168.463 63.375ZM168.685 66.5158L168.503 66.598L168.509 66.6122L168.518 66.6253L168.685 66.5158ZM168.734 66.59L168.843 66.7573L169.01 66.6478L168.901 66.4804L168.734 66.59ZM168.759 66.6795L168.951 66.6252L168.943 66.5956L168.926 66.5699L168.759 66.6795ZM168.784 66.7689L168.592 66.8232L168.595 66.8344L168.599 66.8451L168.784 66.7689ZM168.904 69.447L169.081 69.5393L169.082 69.5378L168.904 69.447ZM167.738 70.263L167.746 70.4628L167.754 70.4625L167.761 70.4616L167.738 70.263ZM167.178 70.6295L167.353 70.7262L167.357 70.7172L167.178 70.6295ZM167.78 72.6201L167.922 72.4785L167.917 72.474L167.78 72.6201ZM169.341 72.7121L169.177 72.5971L169.167 72.6115L169.159 72.6274L169.341 72.7121ZM169.421 71.9177L169.617 71.8814L169.616 71.8723L169.613 71.8634L169.421 71.9177ZM169.395 71.8282L169.199 71.867L169.201 71.8749L169.203 71.8825L169.395 71.8282ZM169.553 70.0822L169.73 70.1746L169.733 70.1678L169.553 70.0822ZM171.522 69.3231L171.589 69.1346L171.582 69.1322L171.576 69.1303L171.522 69.3231ZM173.62 83.2655C173.249 82.6977 173.062 82.0966 173.053 81.59C173.044 81.0803 173.212 80.6978 173.507 80.5042L173.288 80.1695C172.836 80.4652 172.643 81.0074 172.653 81.5973C172.664 82.1903 172.879 82.8636 173.286 83.4845L173.62 83.2655ZM176.105 84.4741C175.81 84.6677 175.392 84.6681 174.929 84.4556C174.468 84.2445 173.992 83.8333 173.62 83.2655L173.286 83.4845C173.692 84.1054 174.223 84.572 174.762 84.8192C175.298 85.0651 175.873 85.1045 176.325 84.8088L176.105 84.4741ZM175.993 81.7129C176.364 82.2807 176.55 82.8818 176.559 83.3883C176.569 83.8981 176.401 84.2806 176.105 84.4741L176.325 84.8088C176.776 84.5131 176.97 83.9709 176.959 83.3811C176.949 82.7881 176.734 82.1147 176.327 81.4938L175.993 81.7129ZM173.507 80.5042C173.803 80.3107 174.221 80.3102 174.684 80.5227C175.145 80.7339 175.621 81.1451 175.993 81.7129L176.327 81.4938C175.921 80.873 175.39 80.4063 174.851 80.1591C174.314 79.9132 173.74 79.8738 173.288 80.1695L173.507 80.5042ZM163.009 71.7936C162.17 72.3423 161.789 73.3628 161.81 74.5214C161.832 75.6832 162.254 77.0157 163.063 78.2515L163.398 78.0324C162.624 76.8498 162.23 75.5895 162.21 74.5142C162.191 73.4357 162.545 72.5749 163.228 72.1283L163.009 71.7936ZM168.905 74.4281C168.096 73.1923 167.044 72.2716 165.988 71.7873C164.935 71.3044 163.847 71.2449 163.009 71.7936L163.228 72.1283C163.91 71.6817 164.841 71.7014 165.821 72.1509C166.799 72.5992 167.796 73.4645 168.57 74.6471L168.905 74.4281ZM168.959 80.8859C169.798 80.3372 170.179 79.3167 170.158 78.1581C170.136 76.9963 169.714 75.6638 168.905 74.4281L168.57 74.6471C169.344 75.8297 169.738 77.09 169.758 78.1653C169.777 79.2438 169.423 80.1046 168.74 80.5512L168.959 80.8859ZM163.063 78.2515C163.872 79.4872 164.924 80.4079 165.98 80.8922C167.033 81.3752 168.121 81.4346 168.959 80.8859L168.74 80.5512C168.058 80.9978 167.127 80.9782 166.147 80.5286C165.169 80.0803 164.172 79.2151 163.398 78.0324L163.063 78.2515ZM162.359 63.4718C161.907 63.7675 161.714 64.3097 161.724 64.8996C161.735 65.4926 161.95 66.166 162.357 66.7868L162.691 66.5678C162.32 66 162.133 65.3989 162.124 64.8923C162.115 64.3826 162.283 64.0001 162.578 63.8065L162.359 63.4718ZM165.398 64.7962C164.992 64.1753 164.461 63.7086 163.922 63.4614C163.385 63.2155 162.811 63.1762 162.359 63.4718L162.578 63.8065C162.874 63.613 163.292 63.6125 163.755 63.825C164.216 64.0362 164.692 64.4474 165.063 65.0152L165.398 64.7962ZM165.396 68.1111C165.847 67.8155 166.041 67.2733 166.03 66.6834C166.02 66.0904 165.805 65.417 165.398 64.7962L165.063 65.0152C165.435 65.583 165.621 66.1841 165.63 66.6907C165.64 67.2004 165.472 67.5829 165.176 67.7764L165.396 68.1111ZM162.357 66.7868C162.763 67.4077 163.294 67.8744 163.833 68.1216C164.369 68.3675 164.944 68.4068 165.396 68.1111L165.176 67.7764C164.881 67.97 164.463 67.9705 164 67.758C163.539 67.5468 163.063 67.1356 162.691 66.5678L162.357 66.7868ZM176.28 72.4534C176.943 72.4279 177.711 72.7631 178.409 73.3604C179.104 73.9546 179.707 74.7899 180.042 75.7206L180.419 75.5848C180.058 74.5859 179.414 73.6935 178.669 73.0564C177.928 72.4224 177.065 72.0229 176.265 72.0537L176.28 72.4534ZM174.829 74.0855C174.864 73.5908 175.021 73.1939 175.266 72.9178C175.509 72.6443 175.849 72.4757 176.283 72.4533L176.262 72.0538C175.729 72.0814 175.285 72.2935 174.967 72.6523C174.651 73.0085 174.47 73.4955 174.43 74.0571L174.829 74.0855ZM173.151 75.7724C173.625 75.7579 174.016 75.5819 174.304 75.2789C174.588 74.979 174.76 74.568 174.827 74.0997L174.431 74.0429C174.372 74.4519 174.227 74.7785 174.013 75.0035C173.803 75.2253 173.514 75.3611 173.139 75.3726L173.151 75.7724ZM171.368 75.1821C171.94 75.5795 172.555 75.8132 173.159 75.7721L173.131 75.373C172.65 75.4058 172.124 75.2202 171.596 74.8535L171.368 75.1821ZM171.283 75.1135L171.355 75.1725L171.609 74.8631L171.537 74.8042L171.283 75.1135ZM170.69 74.9102C170.759 74.8963 170.849 74.9061 170.961 74.9462C171.071 74.9858 171.187 75.0496 171.298 75.1246L171.522 74.7932C171.394 74.7065 171.248 74.6241 171.096 74.5698C170.947 74.516 170.777 74.4843 170.61 74.5183L170.69 74.9102ZM170.296 76.1079C170.161 75.7614 170.158 75.4501 170.235 75.2369C170.31 75.0327 170.454 74.9194 170.655 74.9142L170.645 74.5143C170.256 74.5243 169.982 74.7644 169.86 75.0998C169.74 75.4262 169.762 75.8406 169.924 76.2537L170.296 76.1079ZM171.675 77.3308C171.468 77.3499 171.192 77.243 170.922 77.0131C170.656 76.7875 170.423 76.4661 170.299 76.1142L169.921 76.2474C170.071 76.6703 170.347 77.0497 170.663 77.318C170.973 77.582 171.353 77.7622 171.711 77.7291L171.675 77.3308ZM172.073 77.0758C172.03 77.1655 171.977 77.2245 171.918 77.2628C171.86 77.3011 171.784 77.326 171.685 77.3301L171.701 77.7298C171.861 77.7231 172.009 77.6814 172.137 77.5975C172.265 77.5136 172.363 77.3948 172.433 77.2511L172.073 77.0758ZM173.454 76.2221C172.845 76.2636 172.366 76.5759 172.081 77.0623L172.426 77.2645C172.644 76.8912 173.005 76.6536 173.481 76.6212L173.454 76.2221ZM176.018 77.4639C175.277 76.6979 174.341 76.1691 173.456 76.222L173.479 76.6213C174.198 76.5784 175.027 77.0147 175.73 77.7419L176.018 77.4639ZM176.073 77.5072L176.001 77.4482L175.747 77.7576L175.819 77.8165L176.073 77.5072ZM175.908 77.5535C175.928 77.5404 175.954 77.5296 175.984 77.5258C176.013 77.522 176.04 77.5261 176.061 77.5329C176.099 77.5451 176.12 77.5661 176.123 77.5694C176.129 77.5748 176.13 77.5773 176.127 77.5724C176.123 77.568 176.12 77.5624 176.113 77.5523L175.778 77.7714C175.786 77.7836 175.811 77.8226 175.841 77.8525C175.856 77.8678 175.889 77.8976 175.939 77.9136C176 77.9334 176.069 77.9263 176.127 77.8881L175.908 77.5535ZM176.234 77.6855L176.185 77.6113L175.85 77.8303L175.899 77.9045L176.234 77.6855ZM178.84 79.0564C178.012 79.121 177.042 78.5757 176.215 77.6608L175.918 77.9292C176.777 78.8786 177.859 79.5342 178.871 79.4551L178.84 79.0564ZM180.044 75.7239C180.404 76.6686 180.421 77.5117 180.193 78.1072C179.969 78.6908 179.509 79.0473 178.853 79.0558L178.858 79.4557C179.69 79.4449 180.288 78.9755 180.566 78.2503C180.84 77.5368 180.801 76.5881 180.417 75.5814L180.044 75.7239ZM172.177 63.7023C172.896 64.3824 173.42 65.2694 173.687 66.1436C173.955 67.0224 173.955 67.8602 173.666 68.4574L174.026 68.6315C174.374 67.9106 174.354 66.9598 174.069 66.027C173.784 65.0896 173.224 64.1418 172.452 63.4118L172.177 63.7023ZM168.645 63.4574C168.915 62.8597 169.42 62.5845 170.041 62.6148C170.676 62.6457 171.442 62.9995 172.177 63.7016L172.453 63.4125C171.674 62.6671 170.821 62.2523 170.061 62.2153C169.287 62.1776 168.623 62.5351 168.281 63.2926L168.645 63.4574ZM168.867 66.4335C168.36 65.3088 168.249 64.2015 168.639 63.4691L168.286 63.2809C167.809 64.1765 167.976 65.4308 168.503 66.598L168.867 66.4335ZM168.901 66.4804L168.852 66.4062L168.518 66.6253L168.566 66.6995L168.901 66.4804ZM168.926 66.5699C168.92 66.5599 168.916 66.5542 168.913 66.5495C168.91 66.5444 168.912 66.5466 168.915 66.5537C168.916 66.558 168.927 66.5855 168.923 66.6252C168.921 66.6473 168.914 66.6734 168.899 66.6992C168.883 66.7252 168.863 66.7443 168.843 66.7573L168.624 66.4226C168.566 66.4607 168.532 66.5211 168.525 66.5851C168.52 66.6372 168.534 66.6792 168.542 66.6994C168.558 66.7388 168.583 66.7767 168.592 66.789L168.926 66.5699ZM168.977 66.7147L168.951 66.6252L168.566 66.7337L168.592 66.8232L168.977 66.7147ZM169.082 69.5378C169.485 68.7473 169.375 67.6781 168.969 66.6928L168.599 66.8451C168.984 67.7806 169.052 68.715 168.725 69.3561L169.082 69.5378ZM167.761 70.4616C168.321 70.395 168.799 70.0808 169.081 69.5393L168.726 69.3546C168.506 69.7777 168.144 70.0133 167.714 70.0644L167.761 70.4616ZM167.357 70.7172C167.401 70.6274 167.454 70.5684 167.513 70.5301C167.571 70.4918 167.646 70.467 167.746 70.4628L167.729 70.0631C167.57 70.0698 167.422 70.1115 167.293 70.1954C167.165 70.2793 167.068 70.3981 166.998 70.5419L167.357 70.7172ZM167.917 72.474C167.644 72.2192 167.443 71.8771 167.342 71.5434C167.24 71.2033 167.252 70.9082 167.353 70.7261L167.002 70.533C166.829 70.8484 166.842 71.2681 166.959 71.6587C167.079 72.0556 167.316 72.4601 167.644 72.7663L167.917 72.474ZM169.159 72.6274C169.074 72.8098 168.913 72.8966 168.696 72.8831C168.469 72.8691 168.185 72.7415 167.922 72.4786L167.639 72.7617C167.953 73.0751 168.324 73.2608 168.671 73.2824C169.027 73.3045 169.357 73.1492 169.522 72.7969L169.159 72.6274ZM169.224 71.954C169.248 72.0856 169.26 72.2176 169.252 72.3343C169.245 72.4528 169.217 72.5399 169.177 72.5971L169.504 72.8272C169.602 72.6879 169.641 72.5198 169.652 72.3611C169.662 72.2006 169.645 72.0335 169.617 71.8814L169.224 71.954ZM169.203 71.8825L169.228 71.972L169.613 71.8634L169.588 71.7739L169.203 71.8825ZM169.375 69.9899C169.096 70.5263 169.064 71.1836 169.199 71.867L169.592 71.7894C169.467 71.1589 169.507 70.6027 169.73 70.1746L169.375 69.9899ZM171.576 69.1303C171.119 69.0044 170.674 68.9973 170.285 69.1381C169.893 69.2804 169.575 69.5679 169.372 69.9966L169.733 70.1678C169.894 69.8284 170.134 69.6184 170.422 69.5142C170.713 69.4085 171.071 69.4059 171.469 69.5159L171.576 69.1303ZM173.667 68.4551C173.473 68.8435 173.182 69.0882 172.834 69.2011C172.483 69.3152 172.057 69.3003 171.589 69.1346L171.456 69.5116C171.986 69.6997 172.505 69.7287 172.958 69.5816C173.414 69.4334 173.786 69.1118 174.025 68.6339L173.667 68.4551Z" fill="black"/>
<path d="M71.6462 122.578C63.4394 111.563 72.1861 103.411 77.5853 100.711C70.6743 107.082 74.7057 113.984 77.5853 116.639L71.6462 122.578Z" fill="#FE6C6E" stroke="black" stroke-width="0.4"/>
<path d="M270.246 116.785C274.625 115.782 280.482 108.09 278.619 100.732L284.562 104.078C285.483 105.549 285.51 115.985 275.898 119.936L270.246 116.785Z" fill="#724FEB" stroke="black" stroke-width="0.41037"/>
<path d="M59.8482 72.2521C62.5799 73.0636 68.2147 70.641 69.4807 65.9953L71.7201 69.6974C71.7701 70.7973 68.5298 76.5711 61.9875 75.7551L59.8482 72.2521Z" fill="#FFE04A" stroke="black" stroke-width="0.4"/>
<path d="M110.247 49.1611L111.34 52.1151L114.294 53.2082L111.34 54.3013L110.247 57.2553L109.154 54.3013L106.2 53.2082L109.154 52.1151L110.247 49.1611Z" fill="#8388F9" stroke="black" stroke-width="0.4"/>
<path d="M257.033 135.289L258.126 138.243L261.08 139.336L258.126 140.429L257.033 143.383L255.94 140.429L252.986 139.336L255.94 138.243L257.033 135.289Z" fill="#1EF5CF" stroke="black" stroke-width="0.4"/>
<defs>
<filter id="filter0_i_24673_11564" x="154.181" y="112.28" width="28.0166" height="28.6374" filterUnits="userSpaceOnUse" color-interpolation-filters="sRGB">
<feFlood flood-opacity="0" result="BackgroundImageFix"/>
<feBlend mode="normal" in="SourceGraphic" in2="BackgroundImageFix" result="shape"/>
<feColorMatrix in="SourceAlpha" type="matrix" values="0 0 0 0 0 0 0 0 0 0 0 0 0 0 0 0 0 0 127 0" result="hardAlpha"/>
<feOffset dx="-0.585064" dy="1.94093"/>
<feComposite in2="hardAlpha" operator="arithmetic" k2="-1" k3="1"/>
<feColorMatrix type="matrix" values="0 0 0 0 0 0 0 0 0 0 0 0 0 0 0 0 0 0 1 0"/>
<feBlend mode="normal" in2="shape" result="effect1_innerShadow_24673_11564"/>
</filter>
<filter id="filter1_i_24673_11564" x="173" y="115.1" width="22.4092" height="24.0066" filterUnits="userSpaceOnUse" color-interpolation-filters="sRGB">
<feFlood flood-opacity="0" result="BackgroundImageFix"/>
<feBlend mode="normal" in="SourceGraphic" in2="BackgroundImageFix" result="shape"/>
<feColorMatrix in="SourceAlpha" type="matrix" values="0 0 0 0 0 0 0 0 0 0 0 0 0 0 0 0 0 0 127 0" result="hardAlpha"/>
<feOffset dx="-0.585064" dy="1.94093"/>
<feComposite in2="hardAlpha" operator="arithmetic" k2="-1" k3="1"/>
<feColorMatrix type="matrix" values="0 0 0 0 0 0 0 0 0 0 0 0 0 0 0 0 0 0 1 0"/>
<feBlend mode="normal" in2="shape" result="effect1_innerShadow_24673_11564"/>
</filter>
<filter id="filter2_i_24673_11564" x="137.631" y="102.702" width="25.2749" height="31.9194" filterUnits="userSpaceOnUse" color-interpolation-filters="sRGB">
<feFlood flood-opacity="0" result="BackgroundImageFix"/>
<feBlend mode="normal" in="SourceGraphic" in2="BackgroundImageFix" result="shape"/>
<feColorMatrix in="SourceAlpha" type="matrix" values="0 0 0 0 0 0 0 0 0 0 0 0 0 0 0 0 0 0 127 0" result="hardAlpha"/>
<feOffset dx="-0.585063" dy="1.94092"/>
<feComposite in2="hardAlpha" operator="arithmetic" k2="-1" k3="1"/>
<feColorMatrix type="matrix" values="0 0 0 0 0 0 0 0 0 0 0 0 0 0 0 0 0 0 1 0"/>
<feBlend mode="normal" in2="shape" result="effect1_innerShadow_24673_11564"/>
</filter>
<filter id="filter3_i_24673_11564" x="191.034" y="95.0464" width="31.7305" height="18.8971" filterUnits="userSpaceOnUse" color-interpolation-filters="sRGB">
<feFlood flood-opacity="0" result="BackgroundImageFix"/>
<feBlend mode="normal" in="SourceGraphic" in2="BackgroundImageFix" result="shape"/>
<feColorMatrix in="SourceAlpha" type="matrix" values="0 0 0 0 0 0 0 0 0 0 0 0 0 0 0 0 0 0 127 0" result="hardAlpha"/>
<feOffset dx="-0.585064" dy="1.94093"/>
<feComposite in2="hardAlpha" operator="arithmetic" k2="-1" k3="1"/>
<feColorMatrix type="matrix" values="0 0 0 0 0 0 0 0 0 0 0 0 0 0 0 0 0 0 1 0"/>
<feBlend mode="normal" in2="shape" result="effect1_innerShadow_24673_11564"/>
</filter>
<filter id="filter4_i_24673_11564" x="190.479" y="199.237" width="22.9282" height="18.0798" filterUnits="userSpaceOnUse" color-interpolation-filters="sRGB">
<feFlood flood-opacity="0" result="BackgroundImageFix"/>
<feBlend mode="normal" in="SourceGraphic" in2="BackgroundImageFix" result="shape"/>
<feColorMatrix in="SourceAlpha" type="matrix" values="0 0 0 0 0 0 0 0 0 0 0 0 0 0 0 0 0 0 127 0" result="hardAlpha"/>
<feOffset dx="-0.585064" dy="1.94093"/>
<feComposite in2="hardAlpha" operator="arithmetic" k2="-1" k3="1"/>
<feColorMatrix type="matrix" values="0 0 0 0 0 0 0 0 0 0 0 0 0 0 0 0 0 0 1 0"/>
<feBlend mode="normal" in2="shape" result="effect1_innerShadow_24673_11564"/>
</filter>
<filter id="filter5_i_24673_11564" x="174.154" y="207.234" width="14.3354" height="11.857" filterUnits="userSpaceOnUse" color-interpolation-filters="sRGB">
<feFlood flood-opacity="0" result="BackgroundImageFix"/>
<feBlend mode="normal" in="SourceGraphic" in2="BackgroundImageFix" result="shape"/>
<feColorMatrix in="SourceAlpha" type="matrix" values="0 0 0 0 0 0 0 0 0 0 0 0 0 0 0 0 0 0 127 0" result="hardAlpha"/>
<feOffset dx="-0.585064" dy="1.94093"/>
<feComposite in2="hardAlpha" operator="arithmetic" k2="-1" k3="1"/>
<feColorMatrix type="matrix" values="0 0 0 0 0 0 0 0 0 0 0 0 0 0 0 0 0 0 1 0"/>
<feBlend mode="normal" in2="shape" result="effect1_innerShadow_24673_11564"/>
</filter>
<filter id="filter6_i_24673_11564" x="107.655" y="81.8406" width="35.4712" height="37.1039" filterUnits="userSpaceOnUse" color-interpolation-filters="sRGB">
<feFlood flood-opacity="0" result="BackgroundImageFix"/>
<feBlend mode="normal" in="SourceGraphic" in2="BackgroundImageFix" result="shape"/>
<feColorMatrix in="SourceAlpha" type="matrix" values="0 0 0 0 0 0 0 0 0 0 0 0 0 0 0 0 0 0 127 0" result="hardAlpha"/>
<feOffset dx="-0.585064" dy="1.94093"/>
<feComposite in2="hardAlpha" operator="arithmetic" k2="-1" k3="1"/>
<feColorMatrix type="matrix" values="0 0 0 0 0 0 0 0 0 0 0 0 0 0 0 0 0 0 1 0"/>
<feBlend mode="normal" in2="shape" result="effect1_innerShadow_24673_11564"/>
</filter>
<filter id="filter7_i_24673_11564" x="153.642" y="52.0651" width="32.9209" height="41.5593" filterUnits="userSpaceOnUse" color-interpolation-filters="sRGB">
<feFlood flood-opacity="0" result="BackgroundImageFix"/>
<feBlend mode="normal" in="SourceGraphic" in2="BackgroundImageFix" result="shape"/>
<feColorMatrix in="SourceAlpha" type="matrix" values="0 0 0 0 0 0 0 0 0 0 0 0 0 0 0 0 0 0 127 0" result="hardAlpha"/>
<feOffset dx="-0.585064" dy="1.94093"/>
<feComposite in2="hardAlpha" operator="arithmetic" k2="-1" k3="1"/>
<feColorMatrix type="matrix" values="0 0 0 0 0 0 0 0 0 0 0 0 0 0 0 0 0 0 1 0"/>
<feBlend mode="normal" in2="shape" result="effect1_innerShadow_24673_11564"/>
</filter>
</defs>
</svg>
