<svg width="57" height="56" viewBox="0 0 57 56" fill="none" xmlns="http://www.w3.org/2000/svg">
<rect x="0.5" width="56" height="56" rx="28" fill="#446BF4"/>
<path d="M46.8634 18.355C46.7621 18.1825 46.5671 18.1 46.3834 18.1262L46.3871 18.1188C42.8846 18.7825 39.2659 18.1938 36.1796 16.5063L36.1759 16.51C33.9446 15.2313 31.3609 14.5 28.6009 14.5C20.9471 14.5 14.6209 20.1213 13.4809 27.4563C13.4753 27.4956 13.4687 27.5359 13.4621 27.5763C13.4556 27.6166 13.449 27.6569 13.4434 27.6963C13.3984 28.015 13.3609 28.3375 13.3384 28.6638C13.3346 28.7219 13.3318 28.78 13.329 28.8381C13.3262 28.8962 13.3234 28.9544 13.3196 29.0125C13.3151 29.0937 13.3096 29.1745 13.3041 29.2553C13.2912 29.4433 13.2784 29.6311 13.2784 29.8225C13.2784 29.8375 13.2793 29.8525 13.2803 29.8675C13.2812 29.8825 13.2821 29.8975 13.2821 29.9125L13.2784 29.9163C13.3421 33.505 12.1421 37.0413 9.8509 39.8613L9.8659 39.8538L9.86965 39.8575C9.7384 40.0075 9.7084 40.2288 9.8134 40.4125C9.9484 40.6375 10.2409 40.7125 10.4696 40.5775L17.9959 36.1L18.7121 35.6725C17.6959 33.955 17.0996 31.96 17.0996 29.8188C17.0996 23.4663 22.2484 18.3175 28.6009 18.3175C32.7934 18.3175 36.4496 20.5675 38.4596 23.9163L41.7371 21.9663L41.8084 21.9213L46.6984 19.0112C46.9234 18.8762 46.9984 18.5837 46.8634 18.355Z" fill="white"/>
<path d="M35.1859 25.8625C33.8396 23.6275 31.3984 22.1275 28.5971 22.1275C24.3484 22.1275 20.9059 25.57 20.9059 29.8188C20.9059 31.2475 21.3034 32.5788 21.9784 33.7225L35.1859 25.8625Z" fill="white"/>
<path d="M40.059 28.9356C40.0581 28.9375 40.0571 28.9394 40.0571 28.9413C40.0834 29.2338 40.0984 29.5263 40.1021 29.8263C40.1021 36.1788 34.9534 41.3275 28.6009 41.3275C24.3896 41.3275 20.7146 39.055 18.7121 35.6763L21.9821 33.73C23.3209 35.995 25.7809 37.5175 28.6009 37.5175C32.6846 37.5175 36.0146 34.3338 36.2696 30.3138L39.3146 28.5025L39.3184 28.5063C39.3896 28.4613 39.4721 28.4313 39.5621 28.4313C39.8246 28.4313 40.0346 28.6338 40.0534 28.8925H40.0571V28.9075C40.0571 28.9113 40.0581 28.915 40.059 28.9188C40.06 28.9225 40.0609 28.9263 40.0609 28.93C40.0609 28.9319 40.06 28.9338 40.059 28.9356Z" fill="white"/>
</svg>
