<svg width="36" height="36" viewBox="0 0 36 36" fill="none" xmlns="http://www.w3.org/2000/svg">
<g id="icon_bridge">
<circle id="shape" cx="18" cy="18" r="18" fill="#5d42ff"/>
<g id="Icon/Dashboard">
<circle id="Ellipse 261" cx="12.1667" cy="22.6775" r="1.16667" fill="white"/>
<circle id="Ellipse 262" cx="23.8334" cy="22.6775" r="1.16667" fill="white"/>
<g id="Rectangle 5362 (Stroke)">
<path d="M11.4672 18.7091C11.4672 15.1011 14.392 12.1763 18 12.1763C21.608 12.1763 24.5328 15.1011 24.5328 18.7091V19.8871C24.5328 20.2952 24.202 20.626 23.7939 20.626C23.3858 20.626 23.055 20.2952 23.055 19.8871V18.7091C23.055 15.9173 20.7918 13.654 18 13.654C15.2082 13.654 12.9449 15.9173 12.9449 18.7091V19.8871C12.9449 20.2952 12.6141 20.626 12.2061 20.626C11.798 20.626 11.4672 20.2952 11.4672 19.8871V18.7091Z" fill="white"/>
</g>
</g>
</g>
</svg>
