<svg width="37" height="36" viewBox="0 0 37 36" fill="none" xmlns="http://www.w3.org/2000/svg">
<g id="&#231;&#188;&#150;&#231;&#187;&#132;">
<circle id="&#230;&#164;&#173;&#229;&#156;&#134;&#229;&#189;&#162;" cx="18.031" cy="18" r="18" fill="#5B8EF4"/>
<g id="Icon / Basic">
<path id="Vector (Stroke)" fill-rule="evenodd" clip-rule="evenodd" d="M19.4935 24.621L24.6574 19.4571C25.2159 18.8953 25.2159 17.9879 24.6574 17.4261L18.4171 11.1857C18.2703 11.039 18.0713 10.9565 17.8637 10.9565H12.0814C11.4763 10.9565 10.9857 11.4471 10.9857 12.0522V17.8342C10.9857 18.042 11.0683 18.2411 11.2152 18.3879L17.4553 24.621C17.7255 24.8915 18.0921 25.0435 18.4744 25.0435C18.8567 25.0435 19.2233 24.8915 19.4935 24.621ZM23.5701 18.4416L18.4744 23.5373L12.4727 17.5423V12.4435H17.5719L23.5701 18.4416ZM18.4414 23.5702C18.4416 23.57 18.4418 23.5698 18.4421 23.5696L18.4414 23.5702Z" fill="white"/>
<path id="Vector" fill-rule="evenodd" clip-rule="evenodd" d="M15.1354 16.1217C15.6973 16.1217 16.1528 15.6662 16.1528 15.1043C16.1528 14.5425 15.6973 14.087 15.1354 14.087C14.5735 14.087 14.118 14.5425 14.118 15.1043C14.118 15.6662 14.5735 16.1217 15.1354 16.1217Z" fill="white"/>
</g>
</g>
</svg>
