<svg width="44" height="28" viewBox="0 0 44 28" fill="none" xmlns="http://www.w3.org/2000/svg">
<rect x="0.5" y="0.5" width="43" height="27" rx="5.5" stroke="#ebebec"/>
<path d="M29.26 9.6853C28.5167 9.42563 27.731 9.29522 26.94 9.30019C24.38 9.30019 22.5733 10.5387 22.56 12.3133C22.544 13.6183 23.8453 14.3527 24.828 14.7903C25.8373 15.2381 26.1747 15.5196 26.172 15.9226C26.1653 16.5329 25.3653 16.8093 24.6227 16.8093C23.6013 16.8093 23.0413 16.6724 22.1813 16.3295L21.8627 16.1875L21.5013 18.232C22.1227 18.4815 23.2427 18.6952 24.4013 18.7118C27.1227 18.7118 28.9013 17.4823 28.9227 15.5912C28.944 14.551 28.2427 13.7616 26.7613 13.1117C25.8627 12.6894 25.3027 12.4067 25.3027 11.9781C25.3027 11.5994 25.7813 11.195 26.7813 11.195C27.4464 11.1797 28.1073 11.2987 28.7213 11.5443L28.9613 11.648L29.3227 9.67251L29.26 9.6853ZM35.904 9.46779H33.904C33.2813 9.46779 32.816 9.63028 32.5427 10.2239L28.696 18.5839H31.4173L31.9613 17.2149L35.2813 17.2174C35.3627 17.5373 35.6013 18.5839 35.6013 18.5839H38L35.904 9.46779ZM18.88 9.39103H21.4707L19.8507 18.5122H17.2587L18.88 9.38847V9.39103ZM12.2947 14.418L12.564 15.6846L15.0987 9.46779H17.844L13.7627 18.5711H11.024L8.784 10.8611C8.74787 10.7341 8.66185 10.6254 8.544 10.5579C7.73836 10.1563 6.8838 9.85246 6 9.65331L6.03333 9.4614H10.208C10.7733 9.48187 11.2293 9.65331 11.3853 10.2342L12.2947 14.4218V14.418ZM32.7053 15.3481L33.7387 12.7969C33.7253 12.8225 33.952 12.2698 34.0827 11.9269L34.26 12.7138L34.8587 15.3456H32.7053V15.3481Z" fill="#1434CB"/>
</svg>
