<svg width="22" height="20" viewBox="0 0 22 20" fill="none" xmlns="http://www.w3.org/2000/svg">
<path d="M8.2727 0.599976C7.96621 0.599976 7.68078 0.755955 7.51525 1.01391L5.96269 3.43331H2.49998C1.17449 3.43331 0.0999756 4.50783 0.0999756 5.83331V17C0.0999756 18.3255 1.17449 19.4 2.49998 19.4H19.5C20.8255 19.4 21.9 18.3255 21.9 17V5.83331C21.9 4.50783 20.8255 3.43331 19.5 3.43331H16.0373L14.4847 1.01391C14.3192 0.755955 14.0337 0.599976 13.7272 0.599976H8.2727ZM18.0214 5.09998C18.7117 5.09998 19.2714 5.65962 19.2714 6.34998C19.2714 7.04033 18.7117 7.59998 18.0214 7.59998C17.331 7.59998 16.7714 7.04033 16.7714 6.34998C16.7714 5.65962 17.331 5.09998 18.0214 5.09998ZM15.7 10.95C15.7 13.5457 13.5958 15.65 11 15.65C8.40431 15.65 6.30005 13.5457 6.30005 10.95C6.30005 8.35426 8.40431 6.25 11 6.25C13.5958 6.25 15.7 8.35426 15.7 10.95ZM11 13.6122C12.4703 13.6122 13.6622 12.4203 13.6622 10.95C13.6622 9.47973 12.4703 8.28784 11 8.28784C9.52978 8.28784 8.33789 9.47973 8.33789 10.95C8.33789 12.4203 9.52978 13.6122 11 13.6122Z" fill="#5B8EF4"/>
</svg>
