<svg width="20" height="20" viewBox="0 0 20 20" fill="none" xmlns="http://www.w3.org/2000/svg">
<g id="Viewfinder (&#229;&#143;&#150;&#230;&#153;&#175;&#229;&#153;&#168;)">
<g id="Union">
<path d="M7.72772 2.1665C7.4723 2.1665 7.23445 2.29649 7.09651 2.51145L5.80271 4.52761H2.91711C1.81254 4.52761 0.917114 5.42305 0.917114 6.52762V15.8332C0.917114 16.9377 1.81254 17.8332 2.91711 17.8332H17.0838C18.1883 17.8332 19.0838 16.9377 19.0838 15.8332V6.52761C19.0838 5.42305 18.1883 4.52761 17.0838 4.52761H14.1982L12.9044 2.51145C12.7664 2.29649 12.5286 2.1665 12.2732 2.1665H7.72772ZM15.1722 6.02761L15.1929 6.00874C15.4456 5.77759 15.8354 5.7859 16.0781 6.02761Lnan nanL16.0781 6.02761C16.1847 6.13972 16.2502 6.29136 16.2502 6.45829C16.2502 6.80348 15.9703 7.08329 15.6252 7.08329C15.28 7.08329 15.0002 6.80348 15.0002 6.45829C15.0002 6.29136 15.0656 6.13972 15.1722 6.02761ZM10 6.9583C12.1402 6.9583 13.875 8.69315 13.875 10.8333C13.875 12.9734 12.1402 14.7083 10 14.7083C7.85989 14.7083 6.12504 12.9734 6.12504 10.8333C6.12504 8.69315 7.85989 6.9583 10 6.9583ZM7.62504 10.8333C7.62504 12.145 8.68832 13.2083 10 13.2083C11.3118 13.2083 12.375 12.145 12.375 10.8333C12.375 9.52157 11.3118 8.4583 10 8.4583C8.68832 8.4583 7.62504 9.52157 7.62504 10.8333Z" fill="white"/>
</g>
</g>
</svg>
