<svg width="25" height="24" viewBox="0 0 25 24" fill="none" xmlns="http://www.w3.org/2000/svg">
<path d="M9.77258 2.59998C9.46608 2.59998 9.18066 2.75596 9.01513 3.01391L7.46257 5.43331H3.99985C2.67437 5.43331 1.59985 6.50783 1.59985 7.83331V19C1.59985 20.3255 2.67437 21.4 3.99985 21.4H20.9999C22.3253 21.4 23.3999 20.3255 23.3999 19V7.83331C23.3999 6.50783 22.3253 5.43331 20.9999 5.43331H17.5371L15.9846 3.01391C15.819 2.75596 15.5336 2.59998 15.2271 2.59998H9.77258ZM19.5212 7.09998C20.2116 7.09998 20.7712 7.65962 20.7712 8.34998C20.7712 9.04033 20.2116 9.59998 19.5212 9.59998C18.8309 9.59998 18.2712 9.04033 18.2712 8.34998C18.2712 7.65962 18.8309 7.09998 19.5212 7.09998ZM17.1999 12.95C17.1999 15.5457 15.0957 17.65 12.4999 17.65C9.90419 17.65 7.79993 15.5457 7.79993 12.95C7.79993 10.3543 9.90419 8.25 12.4999 8.25C15.0957 8.25 17.1999 10.3543 17.1999 12.95ZM12.4999 15.6122C13.9702 15.6122 15.1621 14.4203 15.1621 12.95C15.1621 11.4797 13.9702 10.2878 12.4999 10.2878C11.0297 10.2878 9.83777 11.4797 9.83777 12.95C9.83777 14.4203 11.0297 15.6122 12.4999 15.6122Z" fill="white"/>
</svg>
