<svg width="24" height="18" viewBox="0 0 24 18" fill="none" xmlns="http://www.w3.org/2000/svg">
<path d="M0 0H18C21.3137 0 24 2.68629 24 6V18H6C2.68629 18 0 15.3137 0 12V0Z" fill="#5d42ff"/>
<path fill-rule="evenodd" clip-rule="evenodd" d="M16.4651 5.77958L11.6054 12.2078C11.3124 12.5974 10.7055 12.5974 10.4124 12.2078L7.53491 8.40369C7.44722 8.28701 7.53491 8.12411 7.6849 8.12411H8.76713C9.0025 8.12411 9.22633 8.23198 9.36479 8.4169L11.0078 10.5919L14.6352 5.79279C14.7737 5.61007 14.9952 5.5 15.2329 5.5H16.3151C16.4651 5.5 16.5528 5.66291 16.4651 5.77958Z" fill="white"/>
</svg>
