<svg width="24" height="24" viewBox="0 0 24 24" fill="none" xmlns="http://www.w3.org/2000/svg">
<path d="M23 11.3C23 16.5468 18.0751 20.8 12 20.8C10.7147 20.8 9.48097 20.6097 8.33442 20.2598L4.43266 22.3254C3.97145 22.5696 3.43993 22.1493 3.57123 21.6442L4.46176 18.2186C2.33062 16.486 1 14.0272 1 11.3C1 6.05334 5.92487 1.80005 12 1.80005C18.0751 1.80005 23 6.05334 23 11.3ZM8.4 11C8.4 10.3373 7.86274 9.80005 7.2 9.80005C6.53726 9.80005 6 10.3373 6 11C6 11.6628 6.53726 12.2 7.2 12.2C7.86274 12.2 8.4 11.6628 8.4 11ZM12 12.2C12.6628 12.2 13.2 11.6628 13.2 11C13.2 10.3373 12.6628 9.80005 12 9.80005C11.3373 9.80005 10.8 10.3373 10.8 11C10.8 11.6628 11.3373 12.2 12 12.2ZM18.0001 11C18.0001 10.3373 17.4628 9.80005 16.8001 9.80005C16.1374 9.80005 15.6001 10.3373 15.6001 11C15.6001 11.6628 16.1374 12.2 16.8001 12.2C17.4628 12.2 18.0001 11.6628 18.0001 11Z" fill="#5B8EF4"/>
</svg>
