<svg width="16" height="17" viewBox="0 0 16 17" fill="none" xmlns="http://www.w3.org/2000/svg">
<path d="M1.95996 4.26915C1.95996 3.05413 2.94494 2.06915 4.15996 2.06915H7.76283C8.0942 2.06915 8.36283 2.33778 8.36283 2.66915C8.36283 3.00052 8.0942 3.26915 7.76283 3.26915H4.15996C3.60768 3.26915 3.15996 3.71687 3.15996 4.26915V12.2692C3.15996 12.8214 3.60768 13.2692 4.15996 13.2692H7.76523C8.09661 13.2692 8.36523 13.5378 8.36523 13.8692C8.36523 14.2005 8.09661 14.4692 7.76523 14.4692H4.15996C2.94494 14.4692 1.95996 13.4842 1.95996 12.2692V4.26915Z" fill="#55585e"/>
<path d="M10.5756 4.84493C10.81 4.61061 11.1899 4.61061 11.4242 4.84493L14.4242 7.84493C14.6585 8.07924 14.6585 8.45914 14.4242 8.69345L11.4242 11.6935C11.1899 11.9278 10.81 11.9278 10.5756 11.6935C10.3413 11.4591 10.3413 11.0792 10.5756 10.8449L13.1514 8.26919L10.5756 5.69345C10.3413 5.45914 10.3413 5.07924 10.5756 4.84493Z" fill="#55585e"/>
<path d="M5.69629 8.26644C5.69629 7.93507 5.96492 7.66644 6.29629 7.66644L14.0002 7.66644C14.3315 7.66644 14.6002 7.93507 14.6002 8.26644C14.6002 8.59781 14.3315 8.86644 14.0002 8.86644L6.29629 8.86644C5.96492 8.86644 5.69629 8.59781 5.69629 8.26644Z" fill="#55585e"/>
</svg>
