<svg width="16" height="17" viewBox="0 0 16 17" fill="none" xmlns="http://www.w3.org/2000/svg">
<path d="M2.86176 3.13085C4.17612 1.81651 5.99361 1.0025 8.00006 1.0025C10.0065 1.0025 11.824 1.81651 13.1384 3.13086L12.7404 3.52884L13.1384 3.13086C14.4527 4.44523 15.2667 6.26271 15.2667 8.26917C15.2667 10.2756 14.4527 12.0931 13.1384 13.4075C11.824 14.7218 10.0065 15.5358 8.00006 15.5358C5.99361 15.5358 4.17612 14.7218 2.86176 13.4075L3.25625 13.013L2.86175 13.4075C1.54741 12.0931 0.733398 10.2756 0.733398 8.26917C0.733398 6.26271 1.54741 4.44523 2.86175 3.13086L2.86176 3.13085ZM8.00006 2.2025C6.32465 2.2025 4.80881 2.88088 3.71028 3.97939C2.61177 5.07792 1.9334 6.59376 1.9334 8.26917C1.9334 9.94458 2.61178 11.4604 3.71028 12.5589L3.28602 12.9832L3.71028 12.5589C4.80881 13.6575 6.32465 14.3358 8.00006 14.3358C9.67548 14.3358 11.1913 13.6575 12.2898 12.5589C13.3883 11.4604 14.0667 9.94458 14.0667 8.26917C14.0667 6.59376 13.3883 5.07791 12.2898 3.97939C11.1913 2.88088 9.67548 2.2025 8.00006 2.2025Z" fill="#55585e"/>
<path d="M7.99984 3.93585C8.46007 3.93585 8.83317 4.30895 8.83317 4.76919C8.83317 5.22942 8.46007 5.60252 7.99984 5.60252C7.5396 5.60252 7.1665 5.22942 7.1665 4.76919C7.1665 4.30895 7.5396 3.93585 7.99984 3.93585Z" fill="#55585e"/>
<path d="M6.8999 6.93582C6.8999 6.60444 7.16853 6.33582 7.4999 6.33582H8.16657C8.49794 6.33582 8.76657 6.60444 8.76657 6.93582V11.6025C8.76657 11.9339 8.49794 12.2025 8.16657 12.2025C7.8352 12.2025 7.56657 11.9339 7.56657 11.6025V7.53582H7.4999C7.16853 7.53582 6.8999 7.26719 6.8999 6.93582Z" fill="#55585e"/>
<path d="M6.3999 11.6025C6.3999 11.2711 6.66853 11.0025 6.9999 11.0025H9.33324C9.66461 11.0025 9.93324 11.2711 9.93324 11.6025C9.93324 11.9339 9.66461 12.2025 9.33324 12.2025H6.9999C6.66853 12.2025 6.3999 11.9339 6.3999 11.6025Z" fill="#55585e"/>
</svg>
