<svg width="25" height="24" viewBox="0 0 25 24" fill="none" xmlns="http://www.w3.org/2000/svg">
<path d="M12.5 21.145C11.9077 21.145 11.3269 21.1018 10.7613 21.0187C10.0184 20.9095 9.3018 20.7315 8.62032 20.4924C8.62032 20.4924 6.11328 21.6613 4.41465 22.4553C3.94403 22.6753 3.43494 22.2337 3.5853 21.7365L4.69204 18.0765C3.01846 16.436 2 14.2654 2 11.885C2 6.77085 6.70101 2.625 12.5 2.625C18.299 2.625 23 6.77085 23 11.885C23 16.9992 18.299 21.145 12.5 21.145ZM17.0749 13.235C17.8204 13.235 18.4249 12.6306 18.4249 11.885C18.4249 11.1394 17.8204 10.535 17.0749 10.535C16.3293 10.535 15.7249 11.1394 15.7249 11.885C15.7249 12.6306 16.3293 13.235 17.0749 13.235ZM13.8501 11.885C13.8501 11.1394 13.2457 10.535 12.5001 10.535C11.7546 10.535 11.1501 11.1394 11.1501 11.885C11.1501 12.6306 11.7546 13.235 12.5001 13.235C13.2457 13.235 13.8501 12.6306 13.8501 11.885ZM7.92471 13.235C8.67029 13.235 9.27471 12.6306 9.27471 11.885C9.27471 11.1394 8.67029 10.535 7.92471 10.535C7.17912 10.535 6.57471 11.1394 6.57471 11.885C6.57471 12.6306 7.17912 13.235 7.92471 13.235Z" fill="#B6BABF"/>
</svg>
