<svg width="20" height="20" viewBox="0 0 20 20" fill="none" xmlns="http://www.w3.org/2000/svg">
<g id="suggest-circle add">
<g id="Union">
<path d="M10 17.1875C13.9695 17.1875 17.1875 13.9695 17.1875 10C17.1875 6.03045 13.9695 2.8125 10 2.8125C6.03045 2.8125 2.8125 6.03045 2.8125 10C2.8125 13.9695 6.03045 17.1875 10 17.1875ZM10 18.75C5.16751 18.75 1.25 14.8325 1.25 10C1.25 5.16751 5.16751 1.25 10 1.25C14.8325 1.25 18.75 5.16751 18.75 10C18.75 14.8325 14.8325 18.75 10 18.75ZM5.625 10.5313C5.625 10.6693 5.73693 10.7813 5.875 10.7813H9.21875V14.125C9.21875 14.2631 9.33068 14.375 9.46875 14.375H10.5312C10.6693 14.375 10.7812 14.2631 10.7812 14.125V10.7813H14.125C14.2631 10.7813 14.375 10.6693 14.375 10.5313V9.46875C14.375 9.33068 14.2631 9.21875 14.125 9.21875H10.7812V5.875C10.7812 5.73693 10.6693 5.625 10.5312 5.625H9.46875C9.33068 5.625 9.21875 5.73693 9.21875 5.875V9.21875H5.875C5.73693 9.21875 5.625 9.33068 5.625 9.46875V10.5313Z" fill="#55585E"/>
</g>
</g>
</svg>
