<svg width="21" height="20" viewBox="0 0 21 20" fill="none" xmlns="http://www.w3.org/2000/svg">
<path d="M10.856 17.1875C14.8255 17.1875 18.0435 13.9695 18.0435 10C18.0435 6.03045 14.8255 2.8125 10.856 2.8125C6.88641 2.8125 3.66846 6.03045 3.66846 10C3.66846 13.9695 6.88641 17.1875 10.856 17.1875ZM10.856 18.75C6.02347 18.75 2.10596 14.8325 2.10596 10C2.10596 5.16751 6.02347 1.25 10.856 1.25C15.6884 1.25 19.606 5.16751 19.606 10C19.606 14.8325 15.6884 18.75 10.856 18.75ZM6.48096 10.5313C6.48096 10.6693 6.59289 10.7813 6.73096 10.7813H10.0747V14.125C10.0747 14.2631 10.1866 14.375 10.3247 14.375H11.3872C11.5253 14.375 11.6372 14.2631 11.6372 14.125V10.7813H14.981C15.119 10.7813 15.231 10.6693 15.231 10.5313V9.46875C15.231 9.33068 15.119 9.21875 14.981 9.21875H11.6372V5.875C11.6372 5.73693 11.5253 5.625 11.3872 5.625H10.3247C10.1866 5.625 10.0747 5.73693 10.0747 5.875V9.21875H6.73096C6.59289 9.21875 6.48096 9.33068 6.48096 9.46875V10.5313Z" fill="#55585E"/>
</svg>
