<svg width="21" height="20" viewBox="0 0 21 20" fill="none" xmlns="http://www.w3.org/2000/svg">
<path d="M14.9185 8.75C14.9185 5.81599 12.54 3.4375 9.60596 3.4375C6.67194 3.4375 4.29346 5.81599 4.29346 8.75C4.29346 11.684 6.67194 14.0625 9.60596 14.0625C12.54 14.0625 14.9185 11.684 14.9185 8.75ZM13.8835 14.1325C12.7095 15.0668 11.2229 15.625 9.60596 15.625C5.809 15.625 2.73096 12.547 2.73096 8.75C2.73096 4.95304 5.809 1.875 9.60596 1.875C13.4029 1.875 16.481 4.95304 16.481 8.75C16.481 10.367 15.9227 11.8537 14.9884 13.0277L19.0218 17.0611C19.1195 17.1588 19.1195 17.3171 19.0218 17.4147L18.2705 18.166C18.1729 18.2636 18.0146 18.2636 17.917 18.166L13.8835 14.1325Z" fill="#55585E"/>
</svg>
