<svg width="20" height="20" viewBox="0 0 20 20" fill="none" xmlns="http://www.w3.org/2000/svg">
<g id="interactive-search">
<g id="Union">
<path d="M14.0625 8.75C14.0625 5.81599 11.684 3.4375 8.75 3.4375C5.81599 3.4375 3.4375 5.81599 3.4375 8.75C3.4375 11.684 5.81599 14.0625 8.75 14.0625C11.684 14.0625 14.0625 11.684 14.0625 8.75ZM13.0276 14.1325C11.8536 15.0668 10.367 15.625 8.75 15.625C4.95304 15.625 1.875 12.547 1.875 8.75C1.875 4.95304 4.95304 1.875 8.75 1.875C12.547 1.875 15.625 4.95304 15.625 8.75C15.625 10.367 15.0667 11.8537 14.1324 13.0277L18.1659 17.0611C18.2635 17.1588 18.2635 17.3171 18.1659 17.4147L17.4146 18.166C17.3169 18.2636 17.1587 18.2636 17.061 18.166L13.0276 14.1325Z" fill="#55585E"/>
</g>
</g>
</svg>
