
<svg  viewBox="0 0 16 16" version="1.1">\n <g id="veuvfjiqlm" stroke="none" stroke-width="1" fill="none" fill-rule="evenodd">\n <g id="mdibtgvpyz" transform="translate(-320.000000, -48.000000)">\n <g id="yojzoijnoo" transform="translate(319.999977, 47.999977)">\n <rect id="dfjjqjeesu" x="2.27757155e-05" y="2.27773057e-05" width="16" height="16"></rect>\n <path d="M12.9284757,0.527032706 C13.3830136,0.0724942407 14.0455173,-0.105023321 14.6664279,0.0613493882 C15.2873382,0.227722023 15.7723241,0.712708576 15.9386964,1.33361908 C16.1050685,1.9545293 15.9275515,2.61703264 15.4730135,3.07157127 L15.4730135,3.07157127 L10.5440228,7.99902278 L15.4730141,12.9284931 C16.1366317,13.5921116 16.1734994,14.6451427 15.583617,15.3520293 L15.583617,15.3520293 L15.4730141,15.4730311 C14.7703594,16.1756867 13.6311304,16.1756867 12.9284757,15.4730311 L12.9284757,15.4730311 L8.00002278,10.5450228 L3.07156982,15.4730311 C2.40795146,16.1366502 1.35491974,16.173518 0.648033256,15.5836342 L0.648033256,15.5836342 L0.527031503,15.473031 C-0.175622478,14.7703761 -0.175622501,13.631148 0.527030909,12.9284936 L0.527030909,12.9284936 L5.45502278,8.00002278 L0.52703148,3.0715707 C0.110372134,2.65491081 -0.0735130729,2.06350232 0.0268817996,1.48956873 L0.0268817996,1.48956873 L0.0613491829,1.33361908 C0.227721434,0.712708576 0.712707356,0.227722023 1.33361768,0.0613493882 C1.95452827,-0.105023321 2.61703197,0.0724942407 3.07156985,0.527032706 L3.07156985,0.527032706 L8.00002278,5.45502278 Z" id="wntbxzgflr" fill="#FFFFFF"></path>\n </g>\n </g>\n </g>\n </svg>