<svg width="16" height="17" viewBox="0 0 16 17" fill="none" xmlns="http://www.w3.org/2000/svg">
<path d="M3.68657 14.1461C3.60846 14.2242 3.48183 14.2242 3.40373 14.1461L2.83804 13.5804C2.75994 13.5023 2.75994 13.3757 2.83804 13.2975L7.15136 8.98422L2.69658 4.52944C2.61847 4.45134 2.61847 4.3247 2.69658 4.2466L3.26226 3.68091C3.34037 3.60281 3.467 3.60281 3.54511 3.68091L7.99989 8.1357L12.4547 3.68089C12.5328 3.60279 12.6594 3.60279 12.7375 3.68089L13.3032 4.24658C13.3813 4.32468 13.3813 4.45132 13.3032 4.52942L8.84842 8.98422L13.1618 13.2976C13.2399 13.3757 13.2399 13.5023 13.1618 13.5804L12.5961 14.1461C12.518 14.2242 12.3913 14.2242 12.3132 14.1461L7.99989 9.83275L3.68657 14.1461Z" fill="#515A62"/>
</svg>
