<svg width="16" height="16" viewBox="0 0 16 16" fill="none" xmlns="http://www.w3.org/2000/svg">
<path fill-rule="evenodd" clip-rule="evenodd" d="M8 6.85406L11.6167 3.23735C11.8214 3.03265 12.1198 2.9527 12.3994 3.02763C12.679 3.10256 12.8975 3.32097 12.9724 3.60061C13.0473 3.88024 12.9674 4.1786 12.7627 4.38331L9.14595 8L12.7627 11.6167C13.058 11.9121 13.0777 12.3787 12.8217 12.6969L12.7627 12.7627C12.4462 13.0791 11.9331 13.0791 11.6167 12.7627L8 9.14595L4.3833 12.7627C4.08796 13.058 3.62133 13.0777 3.30315 12.8217L3.23735 12.7627C2.92091 12.4462 2.92091 11.9332 3.23735 11.6167L6.85406 8L3.23735 4.38331C3.05539 4.20135 2.97201 3.94538 3.00835 3.69436L3.02763 3.60061C3.10256 3.32097 3.32097 3.10256 3.6006 3.02763C3.88024 2.9527 4.1786 3.03265 4.3833 3.23735L8 6.85406Z" fill="#c0c3c7"/>
</svg>
