
<svg width="140px" height="140px" viewBox="0 0 140 140" version="1.1" xmlns="http://www.w3.org/2000/svg" xmlns:xlink="http://www.w3.org/1999/xlink">
    
    <g id="ypfkmnkjnt" stroke="none" stroke-width="1" fill="none" fill-rule="evenodd">
        <g id="mscycifyrs" transform="translate(-230.000000, -95.000000)">
            <g id="sudfxxqrvq" transform="translate(230.000000, 95.000000)">
                <rect id="bvxkdicdrd" stroke="#979797" fill="#D8D8D8" opacity="0" x="0.5" y="0.5" width="139" height="139"></rect>
                <g id="pvflxmhscd" transform="translate(5.833333, 11.666667)">
                    <circle id="hxmjhrzjjd" fill="#5B8EF4" fill-rule="nonzero" opacity="0.1" transform="translate(47.939025, 76.944270) rotate(-5.760000) translate(-47.939025, -76.944270) " cx="47.9390246" cy="76.9442701" r="35.2006589"></circle>
                    <polygon id="vexuuqmskp" fill="#F9D503" points="104.564789 92.1666667 107.333333 97.7984848 98.4459834 99.1666667 95.6666667 93.5454545"></polygon>
                    <polygon id="inozsorzqy" fill="#5B8EF4" points="90.5341986 75.5626851 96.8333333 73.5 94.9557066 81.9373149 88.6666667 84"></polygon>
                    <polygon id="nsgwvfkkvk" fill="#F46C90" points="124.880327 54.8333333 128.333333 58.6890075 120.129889 63 116.666667 59.1443258"></polygon>
                    <polygon id="vizyyxfuon" fill="#F9D503" fill-rule="nonzero" transform="translate(74.246980, 29.876602) rotate(-4.260000) translate(-74.246980, -29.876602) " points="71.3453175 25.5807019 77.1486416 25.5807019 77.1486416 34.1725026 71.3453175 34.1725026"></polygon>
                    <polygon id="rztqiczmzi" fill="#5B8EF4" points="12.8333333 42.353713 17.1518325 39.6666667 21 49.8022055 16.6815009 52.5"></polygon>
                    <polygon id="jbbnlszheq" fill="#F46C90" points="7 65.3409669 10.3333333 63 14 69.9923664 10.6666667 72.3333333"></polygon>
                    <path d="M23.2310028,12.9819364 C23.3680852,12.8107559 23.6175545,12.783457 23.788208,12.9209627 C23.9588616,13.0584684 23.9860765,13.3087079 23.8489941,13.4798884 C23.4498913,13.8302424 23.2468946,14.3542795 23.3054626,14.8830183 C23.3640305,15.411757 23.6767544,15.8783149 24.1427932,16.1322452 C24.6597412,16.5018779 25.1975838,16.8411881 25.753623,17.1484738 C27.1719636,18.0021059 28.5903043,18.8557379 28.6612213,20.1971597 C28.7321383,21.5385815 27.2834047,22.7580559 25.794147,23.8759074 C24.3048893,24.9937589 22.5015705,26.3250184 23.0891687,27.940822 C23.60585,29.3737043 25.2875967,30.6338278 26.9794745,31.9142759 C29.1981645,33.5910532 31.4371166,35.2779927 31.4979026,37.594994 C31.6093436,41.6599086 27.2428806,44.302103 27.2327496,44.302103 C27.0520979,44.3785683 26.8428709,44.3105723 26.7412441,44.1423703 C26.6396172,43.9741682 26.6763392,43.756652 26.8275094,43.6313921 C26.8275094,43.6313921 30.8089943,41.2330925 30.7178152,37.6153186 C30.6671602,35.6743219 28.5700422,34.0991675 26.5033173,32.5341754 C24.7202605,31.1825913 22.9473347,29.8513318 22.3496054,28.2050414 C21.559387,26.0303121 23.4741469,24.607592 25.3179897,23.2255211 C26.6451514,22.2092924 27.931789,21.2845244 27.8811339,20.2276466 C27.8304789,19.1707688 26.5843653,18.5203825 25.3483828,17.7683733 C24.7503221,17.4531804 24.1748429,17.0966399 23.626112,16.7013332 C22.4610464,15.7765652 21.8937102,14.6688759 23.2310028,12.9819364 Z" id="wkfhqvgjzg" fill="#F46C90"></path>
                    <path d="M46.6016534,22.3521771 C46.679649,22.2218176 46.8209631,22.1508209 46.9649251,22.1696681 C47.108887,22.1885153 47.2298861,22.2938536 47.2759734,22.4404577 C47.3220607,22.5870619 47.2850375,22.7488512 47.1807989,22.8563644 C46.8194466,23.3159134 46.4964697,23.8082552 46.2155564,24.3277681 C45.5146582,25.574562 45.1227128,26.9908869 45.0765701,28.4435828 C45.1090808,30.2809701 45.9489935,31.9954727 47.3448902,33.0738744 C47.7887451,33.4603985 48.2635313,33.8047009 48.7637967,34.1028281 C55.8969394,38.4244335 50.6267149,46.4502722 50.6074101,46.522299 C50.4829252,46.6814983 50.2651932,46.7134542 50.1049822,46.5960391 C49.9447713,46.4786239 49.894793,46.2504687 49.9896548,46.0695594 C49.9896548,46.0695594 54.8158677,38.6919615 48.3970046,34.8025166 C47.8654747,34.4824588 47.358726,34.1177399 46.8815737,33.7118257 C45.3043603,32.4833357 44.3605843,30.5359803 44.3333333,28.4538724 C44.3752144,26.864823 44.7971715,25.3135149 45.5591914,23.9470553 C45.8640015,23.3851343 46.2127246,22.8516176 46.6016534,22.3521771 L46.6016534,22.3521771 Z" id="ouksbsjbnm" fill="#F9D503"></path>
                    <path d="M69.3253747,8.25364098 C69.4412137,8.1650635 69.5976928,8.14228394 69.7358679,8.19388313 C69.874043,8.24548232 69.972922,8.36362112 69.9952581,8.50379779 C70.0175943,8.64397446 69.9599941,8.78489283 69.8441551,8.8734703 C67.4664117,10.6916363 67.5096434,14.9581281 67.5528751,18.8010698 C67.5528751,21.2390651 67.5528751,23.5117726 67.0124788,24.999363 C65.4669456,28.9249486 60.0737912,31.4662488 60.0629832,31.4765793 C59.863169,31.5446049 59.6415946,31.4601129 59.5456409,31.2793034 C59.4496872,31.0984938 59.5092479,30.8776966 59.6847059,30.7637756 C59.6847059,30.7637756 64.7968543,28.3464413 66.1694607,24.7204398 C66.6501851,22.7866341 66.8142535,20.7932683 66.6558173,18.8114003 C66.6666252,14.7825098 66.6233935,10.3094082 69.3253747,8.25364098 Z" id="hlksmrsiev" fill="#5B8EF4"></path>
                    <path d="M88.9089485,45.1515426 C88.8103834,45.1117597 88.7326741,45.0345031 88.6937339,44.9375816 C88.6547937,44.8406602 88.657983,44.7324377 88.7025666,44.6378613 C88.7436185,44.5416942 88.8221278,44.4653834 88.9208233,44.4257165 C89.0195188,44.3860496 89.130316,44.3862758 89.2288406,44.4263455 C90.5187278,44.9803155 92.5515901,44.3558402 94.3883896,43.1673226 C95.2434613,42.6333155 96.0268909,41.9972069 96.7205057,41.2737522 C97.1981385,40.7834217 97.6138649,40.2390016 97.9587974,39.6521307 C97.0957998,39.3520868 96.2545918,38.9953883 95.4409375,38.5844793 C94.503852,38.1107041 93.9838189,37.1036459 94.1510503,36.0865779 C94.2150801,35.5416932 94.4410675,35.0270066 94.8011535,34.605967 C95.1578316,34.1769696 95.6730002,33.9020346 96.2355081,33.8404811 C97.0507168,33.7699759 97.9897547,34.2131519 98.8668781,35.5225357 C99.5620385,36.6303188 99.6358182,38.0061721 99.0629409,39.1787381 C100.835475,39.7234476 102.667813,40.0615372 104.521744,40.1859564 C107.530298,40.3834128 110.548729,39.9860176 113.396168,39.0175832 C115.459988,38.292386 122.40474,36.3585269 122.497612,36.751342 C122.590484,37.1441572 119.979752,37.7585603 113.664465,39.7729969 C110.714131,40.7757098 107.587596,41.1901413 104.470148,40.9917311 C102.517289,40.8749546 100.584962,40.5369456 98.7120916,39.9845128 C98.3188109,40.6734236 97.8405726,41.3127299 97.2880561,41.8881553 C96.5607199,42.6551423 95.739321,43.3317199 94.8424299,43.9025919 C92.7786103,45.2220479 90.4671323,45.9170285 88.9089485,45.2321201 L88.9089485,45.1515426 Z M98.2993277,38.9370057 C98.7958441,37.9765878 98.7490198,36.8339914 98.1754985,35.9153508 C97.494438,34.9081325 96.8236967,34.5455339 96.2767845,34.5958949 C95.9289858,34.6332177 95.6120168,34.807929 95.3996612,35.0793596 C95.1354004,35.3846812 94.9701666,35.7598327 94.9249826,36.1570832 C94.8090052,36.8499904 95.1630367,37.5370454 95.802106,37.8592821 C96.6034352,38.2835486 97.4385565,38.6439611 98.2993277,38.9370057 L98.2993277,38.9370057 Z" id="jpdjfmimvy" fill="#F9D503"></path>
                    <path d="M90.4790748,55.9156815 C90.3934005,55.982958 90.2847451,56.0117905 90.1779412,55.9955896 C90.0711373,55.9793888 89.9753134,55.9195392 89.9123695,55.8297191 C89.7802923,55.6417315 89.8174171,55.3804003 89.9963259,55.2387278 C94.262186,52.3068198 99.0756233,50.3127557 104.132475,49.3825412 C108.235841,48.6626063 112.328712,48.8560216 115.330151,50.8546468 C115.50823,50.9861965 115.553187,51.2381925 115.432033,51.425709 C115.310878,51.6132256 115.066788,51.6694362 114.878886,51.5530911 C112.087338,49.6941548 108.193862,49.52223 104.268904,50.209929 C99.3355873,51.1121346 94.6395046,53.0552106 90.4790748,55.9156815 L90.4790748,55.9156815 Z" id="limqippiko" fill="#5B8EF4"></path>
                    <path d="M99.8533784,82.5214301 C99.7503094,82.6386442 99.5908313,82.6835912 99.4443992,82.636696 C99.2979671,82.5898008 99.1910908,82.459553 99.1703165,82.3026778 C99.1495422,82.1458025 99.2186308,81.9906999 99.3474933,81.9049196 C102.04892,79.5642697 105.276467,81.1943652 108.271308,82.709518 C110.183553,83.6813057 111.994622,84.6008467 113.330159,84.2978162 C115.460518,83.833734 117.312043,82.4846037 118.449717,80.5674054 C119.832492,78.2075732 120.557264,75.4991332 120.544082,72.7408572 C120.544082,72.515788 120.720746,72.3333333 120.938672,72.3333333 C121.154353,72.3388358 121.327935,72.518107 121.333333,72.7408572 C121.341841,75.6583279 120.571676,78.5218013 119.107368,81.0167266 C117.858839,83.1157992 115.827335,84.590133 113.492042,85.0919653 C111.852974,85.4472425 109.920493,84.4754548 107.886835,83.4409711 C105.144937,82.0303116 102.160215,80.5151587 99.8533784,82.5214301 Z" id="yhgjfykffe" fill="#5B8EF4"></path>
                    <path d="M93.6447284,10.5222836 C93.7451942,10.4865129 93.8557173,10.4940512 93.9505595,10.5431429 C94.0454018,10.5922345 94.1162852,10.6785948 94.1467029,10.7821125 C94.2139727,10.9944412 94.099526,11.2220145 93.8905935,11.2913771 C93.3615453,11.369277 92.9031834,11.7040273 92.6624764,12.1882938 C92.4217694,12.6725604 92.4289653,13.2454886 92.681757,13.7233755 C92.8941626,14.3493018 93.15448,14.9574222 93.4603296,15.5421777 C94.1876804,17.0699716 94.9150312,18.5977655 94.2184135,19.8241579 C93.5217959,21.0505502 91.6368305,21.237627 89.7518651,21.3623449 C87.8668997,21.4870628 85.6541143,21.6221738 85.2238505,23.3266513 C84.8755416,24.844052 85.6028924,26.8707174 86.3302432,28.918169 C87.2932146,31.58921 88.2561861,34.2914305 87.0371052,36.3077027 C84.8755416,39.8621619 79.7328644,39.664692 79.72262,39.664692 C79.5043464,39.6536061 79.3330603,39.4706865 79.3333333,39.2489657 C79.344379,39.0291815 79.5262681,38.8584907 79.7431087,38.864419 C79.7431087,38.864419 84.4452778,39.0411026 86.3609763,35.8815833 C87.385414,34.1978921 86.4736645,31.7243211 85.5824037,29.1883911 C84.8140754,27.0266147 84.0457471,24.8960178 84.4555222,23.1395745 C84.9779854,20.8634734 87.385414,20.6971829 89.6903989,20.5516788 C91.3602323,20.4477472 92.9788439,20.3542088 93.5115515,19.4188248 C94.0442591,18.4834408 93.3783746,17.2258689 92.763712,15.895545 C92.4446648,15.2757733 92.1707499,14.6331459 91.9441618,13.9728112 C91.4524317,12.4761968 91.595853,11.1874455 93.6447284,10.5222836 Z" id="wlbpmnspbj" fill="#F46C90"></path>
                    <path d="M108.159923,59.5510371 C108.376204,59.5832572 108.526419,59.7880295 108.496114,60.0093317 C108.481126,60.114909 108.425086,60.2098297 108.340698,60.272578 C108.256309,60.3353263 108.150718,60.3605879 108.04786,60.3426369 C105.205522,59.9051739 102.139057,62.8528415 99.3782202,65.5505303 C97.6361422,67.2274719 96.0061277,68.8002557 94.5391147,69.4043713 C90.7085806,70.9875709 85.3702831,68.9148294 85.3702831,68.9044136 C85.1972192,68.8055763 85.1218914,68.5914368 85.1937405,68.4025438 C85.2655895,68.2136507 85.4626297,68.1078048 85.6555356,68.1544769 C85.6555356,68.1544769 90.6780178,70.1230606 94.2131118,68.6544347 C95.9229104,67.672934 97.4729749,66.4254867 98.8077151,64.9568304 C101.782492,62.1862311 104.940645,59.0614951 108.159923,59.5510371 Z" id="oeltxnhnxz" fill="#F9D503"></path>
                    <polygon id="qyooxojtnj" fill="#F9D503" fill-rule="nonzero" transform="translate(23.930529, 94.211877) rotate(-4.260000) translate(-23.930529, -94.211877) " points="22.4796981 92.0613541 25.3813601 92.0613541 25.3813601 96.3623993 22.4796981 96.3623993"></polygon>
                    <polygon id="uyupieiogh" fill="#5B8EF4" points="38.5 101.807018 42.8078098 100.333333 46.6666667 105.869344 42.3481675 107.333333"></polygon>
                    <polygon id="wrmlggwtfo" fill="#F9D503" fill-rule="nonzero" transform="translate(10.892547, 93.439117) rotate(-4.260000) translate(-10.892547, -93.439117) " points="8.36131014 89.6885648 13.4237843 89.6885648 13.4237843 97.1896698 8.36131014 97.1896698"></polygon>
                    <polygon id="sbwcnbkufn" fill="#F46C90" points="40.8333333 11.6666667 39.0913486 16.5818938 33.8333333 17.5 35.564631 12.5847729"></polygon>
                    <polygon id="eqtexpnern" fill="#F9D503" fill-rule="nonzero" transform="translate(15.850458, 15.891864) rotate(-4.260000) translate(-15.850458, -15.891864) " points="14.3996274 13.7413413 17.3012894 13.7413413 17.3012894 18.0423865 14.3996274 18.0423865"></polygon>
                    <polygon id="qklcgdhlht" fill="#F9D503" fill-rule="nonzero" transform="translate(85.061544, 6.044171) rotate(-4.260000) translate(-85.061544, -6.044171) " points="83.6107132 3.89364889 86.5123752 3.89364889 86.5123752 8.19469403 83.6107132 8.19469403"></polygon>
                    <polygon id="kkfdnuzoqc" fill="#F9D503" fill-rule="nonzero" transform="translate(61.724052, 2.252353) rotate(-4.260000) translate(-61.724052, -2.252353) " points="60.2732214 0.101830029 63.1748834 0.101830029 63.1748834 4.40287517 60.2732214 4.40287517"></polygon>
                    <polygon id="gblugmmebe" fill="#5B8EF4" points="105.021341 21 108.5 24.0325297 104.978659 30.3333333 101.5 27.3008037"></polygon>
                    <g id="lkevbccczy" opacity="0.1" transform="translate(-0.000000, 0.000000)" fill="#5B8EF4">
                        <path d="M31.8386956,3.43221489 C32.5290058,3.43636374 33.1534622,3.01979367 33.4195514,2.37760689 C33.6856405,1.73542012 33.5406634,0.994801874 33.0525315,0.502679025 C32.5643997,0.0105561769 31.8297876,-0.13560624 31.1928087,0.13265845 C30.5558299,0.400923141 30.1426381,1.03048506 30.1467533,1.72643932 C30.1523825,2.66614817 30.9066075,3.42653967 31.8386956,3.43221489 Z" id="jyygufsemw"></path>
                        <path d="M52.1108698,20.3655737 C53.043931,20.3598724 53.7962777,19.5936785 53.7925275,18.6529791 C53.7887491,17.7122797 53.0302949,16.9522307 52.0972185,16.9541161 C51.1641422,16.9560085 50.4087045,17.7191222 50.4087045,18.6598293 C50.4143436,19.6035556 51.1747798,20.3655737 52.1108698,20.3655737 Z" id="ckdsrsgzpx"></path>
                        <path d="M107.954199,18.1119548 C108.643578,18.1161104 109.26739,17.7006654 109.534086,17.0597523 C109.800783,16.4188391 109.657695,15.6790324 109.171696,15.1860905 C108.685697,14.6931486 107.952768,14.5444232 107.315453,14.8094229 C106.678137,15.0744227 106.262287,15.7008127 106.262287,16.3958412 C106.262287,17.3395847 107.018126,18.1062383 107.954199,18.1119548 L107.954199,18.1119548 Z" id="sxdcqlwxfb"></path>
                        <ellipse id="pndyspvjft" fill-rule="nonzero" transform="translate(91.140908, 58.773602) rotate(-0.730000) translate(-91.140908, -58.773602) " cx="91.140908" cy="58.7736019" rx="1.6919136" ry="1.70574216"></ellipse>
                        <path d="M87.6922784,103.833333 C88.6266952,103.833333 89.3841898,103.069646 89.3841898,102.127589 C89.3841898,101.185532 88.6266952,100.421845 87.6922784,100.421845 C86.7578616,100.421845 86.000367,101.185532 86.000367,102.127589 C86.000367,103.069646 86.7578616,103.833333 87.6922784,103.833333 Z" id="zvybkhphfv"></path>
                        <path d="M1.69191136,79.663452 C2.6263282,79.663452 3.38382272,78.8997642 3.38382272,77.9577076 C3.38382272,77.0156509 2.6263282,76.2519632 1.69191136,76.2519632 C0.757494517,76.2519632 0,77.0156509 0,77.9577076 C0,78.4100991 0.178254435,78.8439619 0.495549364,79.163851 C0.812844293,79.4837401 1.24318857,79.663452 1.69191136,79.663452 Z" id="dqtqrqfdor"></path>
                        <path d="M7.53669605,41.7338991 C8.22101032,41.7338991 8.83794259,41.3183078 9.09981833,40.6809148 C9.36169406,40.0435218 9.2169413,39.3098507 8.73305805,38.8220112 C8.24917479,38.3341717 7.52145355,38.1882355 6.88922961,38.4522523 C6.25700566,38.7162691 5.84478469,39.3382454 5.84478469,40.0281546 C5.84478469,40.9702113 6.60227921,41.7338991 7.53669605,41.7338991 L7.53669605,41.7338991 Z" id="ezsnuuiofn"></path>
                    </g>
                    <path d="M34.5473125,87.1506391 C32.6950256,87.269933 31.3394413,89.3675188 31.5153569,91.8329276 C31.6912724,94.2983364 33.3365998,96.1871576 35.1992347,96.0579225 L79.3333333,96.8333333 L78.743499,88.6716372 L78.1536646,80.5 L34.5473125,87.1506391 Z" id="owsbjegkbh" fill="#F9D503"></path>
                    <polygon id="yrmxjbzoxo" fill="#FF8C1C" points="41.6237347 95.6666667 46.6666667 84 41.9853403 84.8164518 37.3333333 95.5807244"></polygon>
                    <polygon id="unepokqibf" fill="#FF8C1C" points="51.0818966 95.6666667 57.1666667 82.8333333 52.3491379 83.5983007 46.6666667 95.5861438"></polygon>
                    <polygon id="yrzgpfdpsv" fill="#FF8C1C" points="61.6808009 96.8333333 68.8333333 81.6666667 63.8966431 82.4545455 57.1666667 96.7503987"></polygon>
                    <path d="M71.9960552,95.6666667 L79.3333333,79.9438317 C79.1314463,79.5802721 78.7580624,79.3491306 78.34714,79.3333333 L74.9940828,79.9438317 L67.6666667,95.5866013 L71.9960552,95.6666667 Z" id="mtfnmhbkhg" fill="#FF8C1C"></path>
                    <ellipse id="zldspdzhrv" fill="#FFB718" fill-rule="nonzero" transform="translate(79.037222, 88.118979) rotate(-3.990000) translate(-79.037222, -88.118979) " cx="79.0372222" cy="88.1189789" rx="2.36660379" ry="8.46832572"></ellipse>
                    <path d="M36.3016259,96.072282 L79.8496625,96.8333333 C81.1464036,96.7455197 81.8917744,93.0866189 81.6058788,88.6666667 L32.6666667,91.9255277 C32.8402462,94.3355237 34.4637252,96.1991239 36.3016259,96.072282 Z" id="oungohpxwj" fill="#000000" fill-rule="nonzero" opacity="0.1"></path>
                    <path d="M29.1981569,89.3703311 C28.9044855,91.1031755 30.6979787,92.8360199 33.1941856,93.2461606 C35.6903925,93.6563013 37.9663459,92.579682 38.2600173,90.8468376 L49,50.5402618 L40.6932946,49.1867976 L32.3970775,47.8333333 L29.1981569,89.3703311 Z" id="kbondsublw" fill="#F46C90"></path>
                    <polygon id="epqrvxkndu" fill="#F2496D" points="39.6666667 85.6407867 30.6673684 78.1666667 30.3333333 82.9389234 38.6350877 89.8333333"></polygon>
                    <polygon id="jzytfhtlwe" fill="#F2496D" points="42 76.3453237 30.7015329 67.6666667 30.3333333 72.3855582 40.8848813 80.5"></polygon>
                    <polygon id="bjwlfwympr" fill="#F2496D" points="44.3333333 67.0562016 31.854512 57.1666667 31.5 61.8570736 43.2697974 71.1666667"></polygon>
                    <path d="M46.6666667,57.585408 L32.6069006,46.6666667 C32.1173099,46.8659521 31.8192982,47.1281697 31.7660819,47.4428308 L31.5,50.9250807 L45.5491228,61.8333333 L46.6666667,57.585408 Z" id="btzvrjkuxm" fill="#F2496D"></path>
                    <ellipse id="lzzdyetixl" fill="#E02D5C" fill-rule="nonzero" transform="translate(40.722628, 49.313903) rotate(-80.550000) translate(-40.722628, -49.313903) " cx="40.7226283" cy="49.313903" rx="2.25341839" ry="8.26253409"></ellipse>
                    <path d="M38.6915955,90.8304596 L48.9915136,50.2583937 C49.1926839,49.0301882 45.7929063,47.4201037 41.3872772,46.6666667 L33.8333333,93.2455864 C36.2373181,93.6584286 38.4401327,92.5747178 38.6915955,90.8304596 Z" id="qxofrgfbuj" fill="#000000" fill-rule="nonzero" opacity="0.1"></path>
                    <path d="M30.4350701,86.2365822 C28.5830936,87.8525727 28.7796721,91.0845539 30.8903045,93.396034 C33.000937,95.7075142 36.2186169,96.4030038 38.0292084,94.7870132 L85.1666667,60.0125329 L78.1726101,52.178047 L71.1785535,44.3333333 L30.4350701,86.2365822 Z" id="qbzywfxxto" fill="#5B8EF4"></path>
                    <polygon id="dgdyjgvgnu" fill="#294ED6" points="44.3333333 89.8042615 41.6852109 74.6666667 37.3333333 79.3788371 39.7672694 93.3333333"></polygon>
                    <polygon id="mtzmojlvll" fill="#294ED6" points="54.8333333 82.6459125 51.4429939 64.1666667 46.6666667 69.0656686 49.8331158 86.3333333"></polygon>
                    <polygon id="yyfkrpmmnb" fill="#294ED6" points="65.3333333 74.5378051 61.6668717 53.6666667 57.1666667 58.4878685 60.6221812 78.1666667"></polygon>
                    <path d="M77,66.4431801 L72.7457364,44.4398156 C72.2227576,44.2510995 71.6344067,44.3158757 71.172093,44.6130705 L67.6666667,48.0272099 L71.9100775,70 L77,66.4431801 Z" id="zkeycwhyyr" fill="#294ED6"></path>
                    <ellipse id="nrvluijmyz" fill="#3A72CC" fill-rule="nonzero" transform="translate(78.038649, 52.231353) rotate(-41.420000) translate(-78.038649, -52.231353) " cx="78.0386489" cy="52.2313528" rx="3.14861199" ry="10.5159525"></ellipse>
                    <path d="M37.4933493,94.7592169 L84.7702082,60.0568432 C86.0880662,58.9137062 84.0126992,54.4840502 80.1421399,50.1666667 L30.3333333,93.4221548 C32.4502076,95.7798749 35.6774032,96.3718566 37.4933493,94.7592169 Z" id="qxpzocdozg" fill="#000000" fill-rule="nonzero" opacity="0.1"></path>
                </g>
            </g>
        </g>
    </g>
</svg>
