<svg width="24" height="24" viewBox="0 0 24 24" fill="none" xmlns="http://www.w3.org/2000/svg">
<mask id="path-1-inside-1_6852_6365" fill="white">
<path fill-rule="evenodd" clip-rule="evenodd" d="M12.001 20.8008C18.0761 20.8008 23.001 16.5475 23.001 11.3008C23.001 6.05408 18.0761 1.80078 12.001 1.80078C5.92584 1.80078 1.00098 6.05408 1.00098 11.3008C1.00098 14.0277 2.33132 16.4863 4.46207 18.2188L3.60252 21.5252C3.45928 22.0762 4.03912 22.5347 4.54226 22.2684L8.33504 20.2604C9.48169 20.6104 10.7156 20.8008 12.001 20.8008Z"/>
</mask>
<path d="M4.46207 18.2188L6.15137 18.658L6.43362 17.5723L5.56324 16.8645L4.46207 18.2188ZM3.60252 21.5252L5.29183 21.9644L3.60252 21.5252ZM4.54226 22.2684L5.35894 23.811H5.35894L4.54226 22.2684ZM8.33504 20.2604L8.84452 18.591L8.15526 18.3806L7.51836 18.7178L8.33504 20.2604ZM21.2555 11.3008C21.2555 15.3521 17.3611 19.0553 12.001 19.0553V22.5462C18.7911 22.5462 24.7464 17.7429 24.7464 11.3008H21.2555ZM12.001 3.54624C17.3611 3.54624 21.2555 7.24947 21.2555 11.3008H24.7464C24.7464 4.85868 18.7911 0.0553266 12.001 0.0553266V3.54624ZM2.74643 11.3008C2.74643 7.24947 6.64088 3.54624 12.001 3.54624V0.0553266C5.21081 0.0553266 -0.744478 4.85868 -0.744478 11.3008H2.74643ZM5.56324 16.8645C3.78174 15.416 2.74643 13.4314 2.74643 11.3008H-0.744478C-0.744478 14.624 0.880894 17.5565 3.3609 19.5731L5.56324 16.8645ZM5.29183 21.9644L6.15137 18.658L2.77276 17.7796L1.91322 21.0861L5.29183 21.9644ZM3.72559 20.7258C4.56416 20.2818 5.53055 21.0461 5.29183 21.9644L1.91322 21.0861C1.38801 23.1063 3.51409 24.7877 5.35894 23.811L3.72559 20.7258ZM7.51836 18.7178L3.72559 20.7258L5.35894 23.811L9.15171 21.803L7.51836 18.7178ZM12.001 19.0553C10.8881 19.0553 9.82591 18.8905 8.84452 18.591L7.82555 21.9299C9.13746 22.3303 10.5431 22.5462 12.001 22.5462V19.0553Z" fill="#5d42ff" mask="url(#path-1-inside-1_6852_6365)"/>
<ellipse cx="7.20073" cy="10.9988" rx="1.2" ry="1.2" fill="#5d42ff"/>
<ellipse cx="12.0008" cy="10.9988" rx="1.2" ry="1.2" fill="#5d42ff"/>
<circle cx="16.8016" cy="10.9988" r="1.2" fill="#5d42ff"/>
</svg>
