<svg width="25" height="24" viewBox="0 0 25 24" fill="none" xmlns="http://www.w3.org/2000/svg">
<mask id="path-1-inside-1_22418_50400" fill="white">
<path fill-rule="evenodd" clip-rule="evenodd" d="M12.501 20.8008C18.5761 20.8008 23.501 16.5475 23.501 11.3008C23.501 6.05408 18.5761 1.80078 12.501 1.80078C6.42584 1.80078 1.50098 6.05408 1.50098 11.3008C1.50098 14.0277 2.83132 16.4863 4.96207 18.2188L4.10252 21.5252C3.95928 22.0762 4.53912 22.5347 5.04226 22.2684L8.83504 20.2604C9.98169 20.6104 11.2156 20.8008 12.501 20.8008Z"/>
</mask>
<path d="M4.96207 18.2188L6.65137 18.658L6.93362 17.5723L6.06324 16.8645L4.96207 18.2188ZM4.10252 21.5252L5.79183 21.9644L4.10252 21.5252ZM5.04226 22.2684L5.85894 23.811H5.85894L5.04226 22.2684ZM8.83504 20.2604L9.34452 18.591L8.65526 18.3806L8.01836 18.7178L8.83504 20.2604ZM21.7555 11.3008C21.7555 15.3521 17.8611 19.0553 12.501 19.0553V22.5462C19.2911 22.5462 25.2464 17.7429 25.2464 11.3008H21.7555ZM12.501 3.54624C17.8611 3.54624 21.7555 7.24947 21.7555 11.3008H25.2464C25.2464 4.85868 19.2911 0.0553266 12.501 0.0553266V3.54624ZM3.24643 11.3008C3.24643 7.24947 7.14088 3.54624 12.501 3.54624V0.0553266C5.71081 0.0553266 -0.244478 4.85868 -0.244478 11.3008H3.24643ZM6.06324 16.8645C4.28174 15.416 3.24643 13.4314 3.24643 11.3008H-0.244478C-0.244478 14.624 1.38089 17.5565 3.8609 19.5731L6.06324 16.8645ZM5.79183 21.9644L6.65137 18.658L3.27276 17.7796L2.41322 21.0861L5.79183 21.9644ZM4.22559 20.7258C5.06416 20.2818 6.03055 21.0461 5.79183 21.9644L2.41322 21.0861C1.88801 23.1063 4.01409 24.7877 5.85894 23.811L4.22559 20.7258ZM8.01836 18.7178L4.22559 20.7258L5.85894 23.811L9.65171 21.803L8.01836 18.7178ZM12.501 19.0553C11.3881 19.0553 10.3259 18.8905 9.34452 18.591L8.32555 21.9299C9.63746 22.3303 11.0431 22.5462 12.501 22.5462V19.0553Z" fill="#C0C3C7" mask="url(#path-1-inside-1_22418_50400)"/>
<ellipse cx="7.70073" cy="10.9988" rx="1.2" ry="1.2" fill="#C0C3C7"/>
<ellipse cx="12.5008" cy="10.9988" rx="1.2" ry="1.2" fill="#C0C3C7"/>
<circle cx="17.3016" cy="10.9988" r="1.2" fill="#C0C3C7"/>
</svg>
