<svg width="17" height="16" viewBox="0 0 17 16" fill="none" xmlns="http://www.w3.org/2000/svg">
<path fill-rule="evenodd" clip-rule="evenodd" d="M6.65172 0.399719H14.6537C15.5374 0.399719 16.2537 1.11606 16.2537 1.99972V9.99972C16.2537 10.8834 15.5374 11.5997 14.6537 11.5997H6.65172C5.76807 11.5997 5.05172 10.8834 5.05172 9.99972V1.99972C5.05172 1.11606 5.76807 0.399719 6.65172 0.399719ZM14.6537 1.59972H6.65172C6.43081 1.59972 6.25172 1.7788 6.25172 1.99972V9.99972C6.25172 10.2206 6.43081 10.3997 6.65172 10.3997H14.6537C14.8746 10.3997 15.0537 10.2206 15.0537 9.99972V1.99972C15.0537 1.7788 14.8746 1.59972 14.6537 1.59972ZM4.301 5.59972V4.39972H2.76602L2.62038 4.40626C1.80498 4.47983 1.16602 5.16516 1.16602 5.99972V13.9227L1.17255 14.0683C1.24613 14.8837 1.93145 15.5227 2.76602 15.5227H11.2644L11.41 15.5161C12.2254 15.4425 12.8644 14.7572 12.8644 13.9227V12.2988H11.6644V13.9227L11.6563 14.0033C11.619 14.1855 11.4577 14.3227 11.2644 14.3227H2.76602L2.6854 14.3145C2.50313 14.2772 2.36602 14.116 2.36602 13.9227V5.99972L2.37414 5.91911C2.41144 5.73683 2.57272 5.59972 2.76602 5.59972H4.301Z" fill="#5d42ff"/>
</svg>
