
<svg width="16px" height="16px" viewBox="0 0 16 16" version="1.1" xmlns="http://www.w3.org/2000/svg" xmlns:xlink="http://www.w3.org/1999/xlink">
    
    <g id="enwgdmismn" stroke="none" stroke-width="1" fill="none" fill-rule="evenodd">
        <g id="fefvxizbzl" transform="translate(-469.000000, -419.000000)">
            <g id="wmzsbdfejk" transform="translate(320.000000, 272.000000)">
                <g id="xqlhfhfsfi" transform="translate(149.000000, 144.000000)">
                    <g id="fudqcoltjv" transform="translate(0.000000, 3.000000)">
                        <rect id="ifoblcyqri" x="0" y="0" width="16" height="16"></rect>
                        <path d="M10.6257593,13.2495286 C10.6255116,13.481655 10.5331421,13.7041756 10.3689711,13.8681384 C10.2048001,14.0321012 9.98227562,14.1240751 9.75035054,14.123827 L2.75081792,14.123827 C2.51889284,14.1240751 2.29636834,14.0321011 2.13219733,13.8681384 C1.96802633,13.7041756 1.87565687,13.481655 1.87540922,13.2495286 L1.87540922,6.25046617 C1.87540922,5.76703059 2.2678016,5.3761678 2.75081792,5.37616778 L3.62529236,5.37616778 L3.62529236,4.50093333 L2.75081792,4.50093333 C2.28664417,4.50043799 1.841312,4.68464251 1.51291622,5.01297255 C1.18452044,5.34130259 1.00000025,5.78682434 1.00000025,6.25140124 L1.00000025,13.2504637 C0.999751774,13.7148688 1.18409382,14.1602973 1.51236834,14.4885059 C1.84064285,14.8167145 2.28588178,15.0007406 2.74988366,14.9999978 L9.74848201,14.9999978 C10.212322,15.0007403 10.6574191,14.8168425 10.9856666,14.4888362 C11.3139142,14.16083 11.4983652,13.7156419 11.4983652,13.2513987 L11.4983652,12.3761653 L10.6238907,12.3761653 L10.6238907,13.2504637 L10.6257593,13.2495286 Z M13.2501168,1.00000025 L6.25058424,1.00000025 C5.7865723,0.999752414 5.34148025,1.18406655 5.01328662,1.51236967 C4.68509298,1.84067279 4.50070108,2.28605266 4.50070108,2.75046741 L4.50070108,9.74859476 C4.50070108,10.7145308 5.2836173,11.4971915 6.25058424,11.4971915 L13.2510511,11.4971915 C14.218018,11.4971915 15,10.7135957 15,9.74859476 L15,2.75046741 C14.9997523,2.2862147 14.8152509,1.84107507 14.4870842,1.51297419 C14.1589174,1.18487332 13.7139669,1.00068752 13.2501168,1.00093558 L13.2501168,1.00000025 Z M14.1255256,9.74952983 C14.1255256,9.98157029 14.033364,10.2040933 13.8693413,10.368083 C13.7053187,10.5320726 13.4828902,10.6240764 13.2510511,10.6238287 L6.25058424,10.6238287 C5.76798995,10.6238287 5.37662538,10.2325427 5.37610979,9.74952983 L5.37610979,2.75046741 C5.37610979,2.26796692 5.76850217,1.87616904 6.25058424,1.87616904 L13.2510511,1.87616904 C13.7340675,1.87616904 14.1255256,2.26796692 14.1255256,2.75046741 L14.1255256,9.74952983 Z" id="bhcpzursyk" fill="#5d42ff"></path>
                    </g>
                </g>
            </g>
        </g>
    </g>
</svg>
