<svg width="20" height="20" viewBox="0 0 20 20" fill="none" xmlns="http://www.w3.org/2000/svg">
<g id="interactive/copy">
<g id="Union">
<path d="M7.5 3.34375C7.5 3.48182 7.61193 3.59375 7.75 3.59375H16.0938V14.4375C16.0938 14.5756 16.2057 14.6875 16.3438 14.6875H17.4062C17.5443 14.6875 17.6562 14.5756 17.6562 14.4375V2.65625C17.6562 2.31107 17.3764 2.03125 17.0312 2.03125H7.75C7.61193 2.03125 7.5 2.14318 7.5 2.28125V3.34375ZM4.0625 6.875V16.25H12.8125V6.875H4.0625ZM3.125 17.8125C2.77982 17.8125 2.5 17.5327 2.5 17.1875V5.9375C2.5 5.59232 2.77982 5.3125 3.125 5.3125H13.75C14.0952 5.3125 14.375 5.59232 14.375 5.9375V17.1875C14.375 17.5327 14.0952 17.8125 13.75 17.8125H3.125Z" fill="#808080"/>
</g>
</g>
</svg>
