<svg width="16" height="16" viewBox="0 0 16 16" fill="none" xmlns="http://www.w3.org/2000/svg">
<path d="M6 2.675C6 2.78546 6.08954 2.875 6.2 2.875H12.875V11.55C12.875 11.6605 12.9645 11.75 13.075 11.75H13.925C14.0355 11.75 14.125 11.6605 14.125 11.55V2.125C14.125 1.84886 13.9011 1.625 13.625 1.625H6.2C6.08954 1.625 6 1.71454 6 1.825V2.675ZM3.25 5.5V13H10.25V5.5H3.25ZM2.5 14.25C2.22386 14.25 2 14.0261 2 13.75V4.75C2 4.47386 2.22386 4.25 2.5 4.25H11C11.2761 4.25 11.5 4.47386 11.5 4.75V13.75C11.5 14.0261 11.2761 14.25 11 14.25H2.5Z" fill="#101114"/>
</svg>
