
<svg width="72px" height="72px" viewBox="0 0 72 72" version="1.1" xmlns="http://www.w3.org/2000/svg" xmlns:xlink="http://www.w3.org/1999/xlink">
    
    <g id="pogrxtcfiv" stroke="none" stroke-width="1" fill="none" fill-rule="evenodd">
        <g id="uzyodqvmmy" transform="translate(-382.000000, -232.000000)">
            <g id="ghusqvrwpm" transform="translate(248.000000, 200.000000)">
                <g id="niygwpktus" transform="translate(134.000000, 32.000000)">
                    <rect id="xhunkgujxe" stroke="#979797" fill="#D8D8D8" opacity="0" x="0.5" y="0.5" width="71" height="71"></rect>
                    <g id="doidycfrhv" transform="translate(1.800000, 7.200000)">
                        <path d="M8.04223943,52.0861008 L1.14602889,17.3503302 C0.509543022,14.1443917 2.55620822,11.0188048 5.74924656,10.3204766 L47.0570516,1.2863209 C50.294245,0.57833583 53.4924441,2.6286643 54.2004292,5.8658577 C54.2018935,5.87255321 54.2033463,5.87925122 54.2047877,5.8859517 L58.0873847,23.9348678 L58.0873847,23.9348678 L8.04223943,52.0861008 Z" id="kjpupvgvdi" fill="#C6E8FF"></path>
                        <path d="M61.3649174,13.3207082 C64.777212,13.3207082 67.5434233,16.0869195 67.5434233,19.499214 L67.5434233,51.4214942 C67.5434233,54.8337887 64.777212,57.6 61.3649174,57.6 L12.7783419,57.6 C9.36604733,57.6 6.59983605,54.8337887 6.59983605,51.4214942 L6.59983605,19.499214 C6.59983605,16.0869195 9.36604733,13.3207082 12.7783419,13.3207082 L61.3649174,13.3207082 Z" id="vloiwujksq" fill="#FFFFFF" fill-rule="nonzero"></path>
                        <path d="M61.3649174,16.4099611 L12.7783419,16.4099611 C11.1331284,16.4099611 9.78829427,17.6960377 9.69433317,19.317697 L9.68908896,19.499214 L9.68908896,51.4214942 C9.68908896,53.0667076 10.9751655,54.4115418 12.5968248,54.5055029 L12.7783419,54.5107471 L61.3649174,54.5107471 C63.0101309,54.5107471 64.354965,53.2246705 64.4489261,51.6030112 L64.4541703,51.4214942 L64.4541703,19.499214 C64.4541703,17.8540006 63.1680938,16.5091664 61.5464345,16.4152053 L61.3649174,16.4099611 Z" id="hnfnwqsmsl" fill="#69B3F8" fill-rule="nonzero"></path>
                        <path d="M36.5707123,27.4729368 C37.4275905,27.4729368 38.1222275,28.1675738 38.1222275,29.0244519 L38.121379,34.4539368 L43.5525305,34.454755 C44.4094087,34.454755 45.1040457,35.149392 45.1040457,36.0062701 C45.1040457,36.8631483 44.4094087,37.5577853 43.5525305,37.5577853 L38.121379,37.5569368 L38.1222275,42.9880883 C38.1222275,43.8449665 37.4275905,44.5396035 36.5707123,44.5396035 C35.7138342,44.5396035 35.0191972,43.8449665 35.0191972,42.9880883 L35.018379,37.5569368 L29.5888942,37.5577853 C28.732016,37.5577853 28.037379,36.8631483 28.037379,36.0062701 C28.037379,35.149392 28.732016,34.454755 29.5888942,34.454755 L35.018379,34.4539368 L35.0191972,29.0244519 C35.0191972,28.1675738 35.7138342,27.4729368 36.5707123,27.4729368 Z" id="sinbqfmwfn" fill="#FFFFFF"></path>
                    </g>
                </g>
            </g>
        </g>
    </g>
</svg>