<svg width="17" height="17" viewBox="0 0 17 17" fill="none" xmlns="http://www.w3.org/2000/svg">
<path d="M11.6783 6.94941C12.2154 6.94941 12.6508 6.51401 12.6508 5.97692C12.6508 5.43984 12.2154 5.00444 11.6783 5.00444C11.1413 5.00444 10.7059 5.43984 10.7059 5.97692C10.7059 6.51401 11.1413 6.94941 11.6783 6.94941ZM13.8508 5.97692C13.8508 7.17675 12.8782 8.14941 11.6783 8.14941C10.4785 8.14941 9.50586 7.17675 9.50586 5.97692C9.50586 4.7771 10.4785 3.80444 11.6783 3.80444C12.8782 3.80444 13.8508 4.7771 13.8508 5.97692Z" fill="#55585e"/>
<path d="M5.94168 6.84663C6.88336 6.84663 7.64674 6.08325 7.64674 5.14157C7.64674 4.19989 6.88336 3.43651 5.94168 3.43651C5 3.43651 4.23662 4.19989 4.23662 5.14157C4.23662 6.08325 5 6.84663 5.94168 6.84663ZM8.84674 5.14157C8.84674 6.74599 7.5461 8.04663 5.94168 8.04663C4.33726 8.04663 3.03662 6.74599 3.03662 5.14157C3.03662 3.53715 4.33726 2.23651 5.94168 2.23651C7.5461 2.23651 8.84674 3.53715 8.84674 5.14157Z" fill="#55585e"/>
<path d="M11.3437 13.5226C11.3437 13.1112 11.2905 12.7123 11.1908 12.3322C10.6643 10.3266 8.83905 8.84717 6.66825 8.84717H5.21544C2.63329 8.84717 0.540042 10.9404 0.540039 13.5226C0.540039 13.9529 0.888915 14.3018 1.31927 14.3018H10.5644C10.9948 14.3018 11.3437 13.9529 11.3437 13.5226ZM10.1184 13.1018H1.76525C1.97295 11.3808 3.43845 10.0472 5.21544 10.0472H6.66825C8.44524 10.0472 9.91074 11.3808 10.1184 13.1018Z" fill="#55585e"/>
<path d="M11.1348 9.47805C11.1348 9.14668 11.4034 8.87805 11.7348 8.87805H12.7372C14.5725 8.87805 16.0603 10.3659 16.0603 12.2012C16.0603 12.8334 15.5479 13.3459 14.9157 13.3459H13.2307C12.8993 13.3459 12.6307 13.0772 12.6307 12.7459C12.6307 12.4145 12.8993 12.1459 13.2307 12.1459H14.8596C14.8303 10.9989 13.8912 10.0781 12.7372 10.0781H11.7348C11.4034 10.0781 11.1348 9.80942 11.1348 9.47805Z" fill="#55585e"/>
</svg>
