<svg width="24" height="24" viewBox="0 0 24 24" fill="none" xmlns="http://www.w3.org/2000/svg">
<circle cx="12" cy="12" r="12" fill="#EBEEF1"/>
<path fill-rule="evenodd" clip-rule="evenodd" d="M9.64395 7.32456C9.80377 7.23849 9.99615 7.23849 10.156 7.32456L14.056 9.42456C14.2309 9.51874 14.34 9.70135 14.34 9.90001V13.5C14.34 13.7982 14.0982 14.04 13.8 14.04C13.5017 14.04 13.26 13.7982 13.26 13.5V10.2225L9.89996 8.41332L6.53996 10.2225V14.3775L10.156 16.3246C10.4186 16.4659 10.5168 16.7934 10.3754 17.056C10.234 17.3186 9.90653 17.4169 9.64395 17.2755L5.74395 15.1755C5.56904 15.0813 5.45996 14.8987 5.45996 14.7V9.90001C5.45996 9.70135 5.56904 9.51874 5.74395 9.42456L9.64395 7.32456Z" fill="#C5CBD5" stroke="#C5CBD5" stroke-width="0.3" stroke-linecap="round" stroke-linejoin="round"/>
<path fill-rule="evenodd" clip-rule="evenodd" d="M13.3245 6.944C13.4659 6.68142 13.7934 6.58317 14.056 6.72456L17.956 8.82456C18.1309 8.91875 18.24 9.10136 18.24 9.30002V14.1C18.24 14.2987 18.1309 14.4813 17.956 14.5755L14.056 16.6755C13.8962 16.7615 13.7038 16.7615 13.544 16.6755L9.64397 14.5755C9.46906 14.4813 9.35999 14.2987 9.35999 14.1V10.5C9.35999 10.2018 9.60175 9.96002 9.89999 9.96002C10.1982 9.96002 10.44 10.2018 10.44 10.5V13.7775L13.8 15.5867L17.16 13.7775V9.62256L13.544 7.67547C13.2814 7.53408 13.1831 7.20659 13.3245 6.944Z" fill="#C5CBD5" stroke="#C5CBD5" stroke-width="0.3" stroke-linecap="round" stroke-linejoin="round"/>
</svg>
