<svg width="12" height="12" viewBox="0 0 12 12" fill="none" xmlns="http://www.w3.org/2000/svg">
<path d="M9.11111 4.81189H2.88889C2.67411 4.81189 2.5 5.04083 2.5 5.32325V9.92553C2.5 10.2079 2.67411 10.4369 2.88889 10.4369H9.11111C9.32589 10.4369 9.5 10.2079 9.5 9.92553V5.32325C9.5 5.04083 9.32589 4.81189 9.11111 4.81189Z" fill="#c0c3c7"/>
<path fill-rule="evenodd" clip-rule="evenodd" d="M3.0625 5.37439V9.87439H8.9375V5.37439H3.0625ZM2.16617 4.62117C2.31784 4.42173 2.56811 4.24939 2.88889 4.24939H9.11111C9.43189 4.24939 9.68216 4.42173 9.83383 4.62117C9.98517 4.82017 10.0625 5.07026 10.0625 5.32325V9.92553C10.0625 10.1785 9.98517 10.4286 9.83383 10.6276C9.68216 10.827 9.43189 10.9994 9.11111 10.9994H2.88889C2.56811 10.9994 2.31784 10.827 2.16617 10.6276C2.01483 10.4286 1.9375 10.1785 1.9375 9.92553V5.32325C1.9375 5.07026 2.01483 4.82017 2.16617 4.62117Z" fill="#c0c3c7"/>
<path fill-rule="evenodd" clip-rule="evenodd" d="M6 2.12537C5.10255 2.12537 4.375 2.8529 4.375 3.75037V5.50037C4.375 5.81103 4.12316 6.06287 3.8125 6.06287C3.50184 6.06287 3.25 5.81103 3.25 5.50037V3.75037C3.25 2.23158 4.48123 1.00037 6 1.00037C7.51877 1.00037 8.75 2.23158 8.75 3.75037V5.50037C8.75 5.81103 8.49816 6.06287 8.1875 6.06287C7.87684 6.06287 7.625 5.81103 7.625 5.50037V3.75037C7.625 2.8529 6.89745 2.12537 6 2.12537Z" fill="#c0c3c7"/>
</svg>
