<?xml version="1.0" encoding="UTF-8"?>
<svg width="16px" height="16px" viewBox="0 0 16 16" version="1.1" xmlns="http://www.w3.org/2000/svg" xmlns:xlink="http://www.w3.org/1999/xlink">
    <title>Delete</title>
    <g id="Icon" stroke="none" stroke-width="1" fill="none" fill-rule="evenodd">
        <g id="Line" transform="translate(-85.000000, -157.000000)">
            <g id="Delete" transform="translate(85.000000, 157.000000)">
                <rect id="Rectangle" x="0" y="0" width="16" height="16"></rect>
                <path d="M2.40000001,3.2 L1.6,3.2 C1.26862915,3.2 1,2.93137085 1,2.6 C1,2.26862915 1.26862915,2 1.6,2 L14.8,2 C15.1313708,2 15.4,2.26862915 15.4,2.6 C15.4,2.93137085 15.1313708,3.2 14.8,3.2 L3.6,3.2 L3.6,13.8 C3.6,14.0652165 3.70535684,14.3195704 3.89289321,14.5071068 C4.08042959,14.6946432 4.33478351,14.8 4.6,14.8 L11.8,14.8 C12.0652165,14.8 12.3195704,14.6946432 12.5071068,14.5071068 C12.6946432,14.3195704 12.8,14.0652165 12.8,13.8 L12.8,5 C12.8,4.66862915 13.0686291,4.4 13.4,4.4 C13.7313708,4.4 14,4.66862915 14,5 L14,13.8 C14,15.015 13.015,16 11.8,16 L4.6,16 C3.385,16 2.40000001,15.015 2.40000001,13.8 L2.40000001,3.2 Z M6.6,1.2 C6.26862915,1.2 6,0.931370849 6,0.6 C6,0.26862915 6.26862915,0 6.6,0 L9.79999999,0 C10.1313708,0 10.4,0.26862915 10.4,0.6 C10.4,0.931370849 10.1313708,1.2 9.79999999,1.2 L6.6,1.2 L6.6,1.2 Z M6,6.59999999 C6,6.26862915 6.26862915,6 6.6,6 C6.93137085,6 7.2,6.26862915 7.2,6.59999999 L7.2,11.4 C7.2,11.7313708 6.93137085,12 6.6,12 C6.26862915,12 6,11.7313708 6,11.4 L6,6.59999999 Z M9.19999999,6.59999999 C9.19999999,6.26862915 9.46862914,6 9.79999999,6 C10.1313708,6 10.4,6.26862915 10.4,6.59999999 L10.4,11.4 C10.4,11.7313708 10.1313708,12 9.79999999,12 C9.46862914,12 9.19999999,11.7313708 9.19999999,11.4 L9.19999999,6.59999999 Z" id="Shape" fill="#55585e"></path>
            </g>
        </g>
    </g>
</svg>
