<svg width="32" height="32" viewBox="0 0 32 32" fill="none" xmlns="http://www.w3.org/2000/svg">
<circle cx="16" cy="16" r="16" fill="white"/>
<circle cx="16" cy="16" r="13" fill="#F9F9FA"/>
<path d="M15.3002 20.4238V9.30345C15.3002 9.193 15.3898 9.10345 15.5002 9.10345H16.5002C16.6107 9.10345 16.7002 9.193 16.7002 9.30345V20.4231L19.8187 17.3047C19.8968 17.2266 20.0234 17.2266 20.1015 17.3047L20.8086 18.0118C20.8867 18.0899 20.8867 18.2165 20.8086 18.2946L16.3538 22.7501C16.1585 22.9454 15.8419 22.9454 15.6467 22.7501L11.1919 18.2953C11.1138 18.2172 11.1138 18.0906 11.1919 18.0125L11.899 17.3054C11.9771 17.2273 12.1037 17.2273 12.1818 17.3054L15.3002 20.4238Z" fill="#55585E"/>
</svg>
