<svg width="21" height="20" viewBox="0 0 21 20" fill="none" xmlns="http://www.w3.org/2000/svg">
<path fill-rule="evenodd" clip-rule="evenodd" d="M2.53113 2.46869C2.11691 2.46869 1.78113 2.80448 1.78113 3.21869V16.7812C1.78113 17.1954 2.11691 17.5312 2.53113 17.5312H8.35488C8.49295 17.5312 8.60488 17.4193 8.60488 17.2812V16.2187C8.60488 16.0806 8.49295 15.9687 8.35488 15.9687H3.34363V4.03119H17.6561V7.46953C17.6561 7.6076 17.7681 7.71953 17.9061 7.71953H18.9686C19.1067 7.71953 19.2186 7.6076 19.2186 7.46953V3.21869C19.2186 2.80448 18.8828 2.46869 18.4686 2.46869H2.53113ZM19.6248 12.4333C19.7629 12.4333 19.8748 12.5452 19.8748 12.6833V13.7458C19.8748 13.8839 19.7629 13.9958 19.6248 13.9958L13.0613 13.9958L14.5338 15.4683C14.6314 15.5659 14.6314 15.7242 14.5338 15.8218L13.7825 16.5731C13.6848 16.6708 13.5265 16.6708 13.4289 16.5731L10.512 13.6567C10.337 13.4817 10.2875 13.2287 10.3634 13.0096C10.3934 12.923 10.4429 12.8416 10.5121 12.7724L13.4288 9.85597C13.5264 9.75834 13.6847 9.75834 13.7824 9.85597L14.5337 10.6073C14.6313 10.7049 14.6313 10.8632 14.5337 10.9608L13.0612 12.4333L19.6248 12.4333Z" fill="#25272A"/>
</svg>
