<svg width="32" height="32" viewBox="0 0 32 32" fill="none" xmlns="http://www.w3.org/2000/svg">
<g clip-path="url(#clip0_12588_2885)">
<circle cx="16" cy="16" r="16" fill="#5B8EF4"/>
<g clip-path="url(#clip1_12588_2885)">
<path d="M11.3334 9.42761C10.0662 9.42761 9.03894 10.4549 9.03894 11.7221V20.2776C9.03894 21.5448 10.0662 22.5721 11.3334 22.5721L14.47 22.5721L14.4834 22.5721V22.5719C14.8853 22.5648 15.2089 22.2368 15.2089 21.8332C15.2089 21.4296 14.8853 21.1015 14.4834 21.0944V21.0943H14.47H11.3334C10.8824 21.0943 10.5167 20.7286 10.5167 20.2776V11.7221C10.5167 11.271 10.8824 10.9054 11.3334 10.9054H20.6667C21.1178 10.9054 21.4834 11.271 21.4834 11.7221V13.2698C21.4834 13.2724 21.4833 13.275 21.4833 13.2776C21.4833 13.2802 21.4834 13.2828 21.4834 13.2854V13.3165H21.4844C21.5046 13.7065 21.8272 14.0165 22.2222 14.0165C22.6173 14.0165 22.9399 13.7065 22.9601 13.3165H22.9612V11.7221C22.9612 10.4549 21.9339 9.42761 20.6667 9.42761H11.3334ZM18.6883 15.1105C18.4149 14.8371 17.9717 14.8371 17.6983 15.1105L15.3884 17.4204C15.2503 17.5585 15.182 17.74 15.1834 17.921L15.1834 17.9282C15.1834 17.9658 15.1863 18.0027 15.1921 18.0387C15.2123 18.1843 15.2784 18.3248 15.3904 18.4368L17.7003 20.7467C17.9736 21.02 18.4169 21.02 18.6902 20.7467C18.9636 20.4733 18.9636 20.0301 18.6902 19.7567L17.5617 18.6282H22.2612C22.6478 18.6282 22.9612 18.3148 22.9612 17.9282C22.9612 17.5416 22.6478 17.2282 22.2612 17.2282H17.5605L18.6883 16.1005C18.9616 15.8271 18.9616 15.3839 18.6883 15.1105Z" fill="white"/>
</g>
</g>
<defs>
<clipPath id="clip0_12588_2885">
<rect width="32" height="32" fill="white"/>
</clipPath>
<clipPath id="clip1_12588_2885">
<rect width="14" height="14" fill="white" transform="translate(9 9)"/>
</clipPath>
</defs>
</svg>
