<svg width="21" height="20" viewBox="0 0 21 20" fill="none" xmlns="http://www.w3.org/2000/svg">
<path d="M11.375 4.47031V18.3707C11.375 18.5088 11.2631 18.6207 11.125 18.6207H9.87504C9.73697 18.6207 9.62504 18.5088 9.62504 18.3707V4.4711L5.72698 8.36916C5.62935 8.46679 5.47106 8.46679 5.37343 8.36916L4.48954 7.48527C4.39191 7.38764 4.39191 7.22935 4.48954 7.13172L10.0581 1.56239C10.3022 1.31831 10.6979 1.31831 10.942 1.56239L16.5105 7.13086C16.6081 7.22849 16.6081 7.38678 16.5105 7.48441L15.6266 8.36829C15.5289 8.46592 15.3707 8.46592 15.273 8.36829L11.375 4.47031Z" fill="#101114"/>
</svg>
