<svg width="20" height="20" viewBox="0 0 20 20" fill="none" xmlns="http://www.w3.org/2000/svg">
<g id="direction-deposit">
<path id="Union" d="M2.03125 2.46875C1.61704 2.46875 1.28125 2.80454 1.28125 3.21875V16.7812C1.28125 17.1955 1.61704 17.5312 2.03125 17.5312H7.855C7.99307 17.5312 8.105 17.4193 8.105 17.2812V16.2188C8.105 16.0807 7.99307 15.9688 7.855 15.9688H2.84375V4.03125H17.1563V7.46959C17.1563 7.60767 17.2682 7.71959 17.4062 7.71959H18.4688C18.6068 7.71959 18.7188 7.60767 18.7188 7.46959V3.21875C18.7188 2.80454 18.383 2.46875 17.9688 2.46875H2.03125ZM19.125 12.4333C19.263 12.4333 19.375 12.5453 19.375 12.6833V13.7458C19.375 13.8839 19.263 13.9958 19.125 13.9958L12.5614 13.9959L14.0339 15.4684C14.1315 15.566 14.1315 15.7243 14.0339 15.8219L13.2826 16.5732C13.185 16.6708 13.0267 16.6708 12.929 16.5732L10.0121 13.6567C9.83711 13.4817 9.78758 13.2288 9.86352 13.0096C9.89349 12.923 9.94306 12.8417 10.0122 12.7725L12.9289 9.85603C13.0266 9.7584 13.1848 9.7584 13.2825 9.85603L14.0338 10.6073C14.1314 10.705 14.1314 10.8633 14.0338 10.9609L12.5613 12.4334L19.125 12.4333Z" fill="#5D42FF"/>
</g>
</svg>
