<svg width="28" height="28" viewBox="0 0 28 28" fill="none" xmlns="http://www.w3.org/2000/svg">
<rect width="28" height="28" fill="white"/>
<path fill-rule="evenodd" clip-rule="evenodd" d="M19.5447 9.01097C18.5073 8.53481 17.4126 8.19527 16.2879 8.00084C16.2777 7.99893 16.2671 8.0003 16.2578 8.00474C16.2484 8.00918 16.2406 8.01647 16.2356 8.02557C16.0949 8.27577 15.9391 8.6021 15.8301 8.85857C14.6003 8.67444 13.3767 8.67444 12.1722 8.85857C12.0631 8.59637 11.9017 8.27577 11.7604 8.02557C11.7552 8.01668 11.7474 8.00956 11.738 8.00516C11.7287 8.00076 11.7183 7.99928 11.7081 8.0009C10.5833 8.19488 9.48846 8.5344 8.45127 9.0109C8.44239 9.01469 8.43492 9.02115 8.42987 9.02937C6.3556 12.1283 5.78734 15.151 6.06614 18.1363C6.06692 18.1436 6.06917 18.1507 6.07274 18.1571C6.07632 18.1635 6.08114 18.1692 6.08694 18.1737C7.45547 19.1788 8.78113 19.7889 10.0822 20.1933C10.0923 20.1963 10.1031 20.1962 10.1131 20.1929C10.1232 20.1896 10.132 20.1833 10.1383 20.1749C10.4461 19.7546 10.7204 19.3114 10.9557 18.8454C10.9589 18.839 10.9607 18.8321 10.9611 18.8249C10.9614 18.8178 10.9602 18.8106 10.9576 18.804C10.955 18.7973 10.951 18.7913 10.9459 18.7863C10.9408 18.7813 10.9346 18.7774 10.9279 18.775C10.4927 18.6099 10.0784 18.4086 9.6798 18.1801C9.67253 18.1758 9.66642 18.1698 9.66202 18.1626C9.65762 18.1555 9.65505 18.1473 9.65455 18.1389C9.65405 18.1305 9.65563 18.1221 9.65915 18.1144C9.66267 18.1067 9.66802 18.1001 9.67473 18.095C9.7586 18.0321 9.84253 17.9668 9.9226 17.9007C9.92971 17.8948 9.93833 17.8911 9.94747 17.8898C9.95661 17.8886 9.96591 17.8899 9.97433 17.8937C12.5929 19.0892 15.4277 19.0892 18.0153 17.8937C18.0237 17.8897 18.0331 17.8881 18.0423 17.8893C18.0516 17.8904 18.0604 17.8941 18.0676 17.9C18.1477 17.966 18.2316 18.0321 18.3161 18.095C18.3228 18.1 18.3282 18.1066 18.3318 18.1143C18.3354 18.1219 18.337 18.1303 18.3366 18.1387C18.3361 18.1471 18.3336 18.1552 18.3293 18.1624C18.325 18.1697 18.3189 18.1757 18.3117 18.18C17.913 18.4129 17.4953 18.6117 17.0631 18.7743C17.0563 18.7769 17.0502 18.7808 17.0452 18.7859C17.0401 18.791 17.0361 18.7971 17.0336 18.8038C17.031 18.8105 17.0299 18.8177 17.0303 18.8249C17.0307 18.832 17.0326 18.839 17.0359 18.8454C17.2762 19.3108 17.5505 19.754 17.8526 20.1742C17.8588 20.1829 17.8675 20.1894 17.8776 20.1928C17.8877 20.1962 17.8985 20.1964 17.9087 20.1933C19.2161 19.7888 20.5417 19.1787 21.9102 18.1737C21.9161 18.1694 21.9211 18.1639 21.9246 18.1575C21.9282 18.1512 21.9305 18.1442 21.9311 18.1369C22.2647 14.6856 21.3723 11.6876 19.5655 9.02997C19.561 9.02134 19.5536 9.01464 19.5447 9.01097ZM11.3467 16.3186C10.5584 16.3186 9.90875 15.5948 9.90875 14.7059C9.90875 13.8171 10.5458 13.0933 11.3468 13.0933C12.1539 13.0933 12.7972 13.8234 12.7846 14.706C12.7846 15.5948 12.1476 16.3186 11.3467 16.3186ZM16.6632 16.3186C15.8749 16.3186 15.2253 15.5948 15.2253 14.7059C15.2253 13.8171 15.8622 13.0933 16.6632 13.0933C17.4704 13.0933 18.1137 13.8234 18.1011 14.706C18.1011 15.5948 17.4704 16.3186 16.6632 16.3186Z" fill="#55585e"/>
</svg>
