<svg width="50" height="50" viewBox="0 0 50 50" fill="none" xmlns="http://www.w3.org/2000/svg">
<rect x="1" y="1" width="48" height="48" rx="24" fill="white"/>
<rect x="1" y="1" width="48" height="48" rx="24" stroke="#C5CBD5" stroke-width="0.5" stroke-miterlimit="0" stroke-linejoin="bevel"/>
<path fill-rule="evenodd" clip-rule="evenodd" d="M15.25 18.9552C15.25 18.0013 16.0233 17.228 16.9773 17.228H32.5227C33.4767 17.228 34.25 18.0013 34.25 18.9552V19.7176V31.0456C34.25 31.9995 33.4767 32.7728 32.5227 32.7728H16.9773C16.0233 32.7728 15.25 31.9995 15.25 31.0456V19.7176V18.9552ZM16.9773 21.6248V30.182C16.9773 30.659 17.3639 31.0456 17.8409 31.0456H31.6591C32.1361 31.0456 32.5227 30.659 32.5227 30.182V21.6248L25.9906 25.1876C25.2173 25.6094 24.2827 25.6094 23.5094 25.1876L16.9773 21.6248Z" fill="#515A62"/>
</svg>
