<?xml version="1.0" encoding="UTF-8"?>
<svg width="40px" height="40px" viewBox="0 0 40 40" version="1.1" xmlns="http://www.w3.org/2000/svg" xmlns:xlink="http://www.w3.org/1999/xlink">
    <title>Icon___Special___Email</title>
    <g id="Icon" stroke="none" stroke-width="1" fill="none" fill-rule="evenodd">
        <g id="Special" transform="translate(-39.000000, -80.000000)">
            <g id="Icon___Special___Email" transform="translate(39.009189, 80.005169)">
                <path d="M0,19.9649677 C0,30.9921034 8.93840633,39.9316583 19.9649677,39.9316583 C30.9915291,39.9316583 39.931084,30.9926777 39.931084,19.965542 C39.931084,8.93898065 30.9921034,0 19.9649677,0 C8.93898061,-0.000574277638 0,8.93840633 0,19.9649677 Z" id="Shape" fill="#E7F0FC"></path>
                <path d="M21.3991632,21.3174756 L29.797479,14.3410374 L29.797479,25.8169765 C29.7849486,26.6813202 29.0743255,27.3719737 28.2099758,27.3598685 L12.3414733,27.3598685 C11.9266345,27.3655341 11.5265397,27.2061537 11.2292249,26.9167972 C10.93191,26.6274407 10.7617356,26.2318164 10.7561464,25.8169765 L10.7561464,14.3410374 L19.1550061,21.3174756 C19.7817126,21.9192187 20.7719126,21.9192187 21.3991632,21.3174756 Z" id="Shape" fill="#5B8EF4" fill-rule="nonzero"></path>
                <path d="M20.8573013,20.0629347 C20.5255086,20.3814949 20.0014588,20.3814949 19.6696662,20.0629347 L11.466116,13.2758217 C11.7276506,13.1051208 12.0335162,13.0148933 12.3458256,13.016267 L28.212152,13.016267 C28.5136534,13.018905 28.8085446,13.104962 29.0641156,13.264941 L29.0706441,13.264941 L20.8573013,20.0629347 Z" id="Shape" fill="#5B8EF4" fill-rule="nonzero" opacity="0.400000006"></path>
            </g>
        </g>
    </g>
</svg>