<?xml version="1.0" encoding="UTF-8"?>
<svg width="64px" height="64px" viewBox="0 0 64 64" version="1.1" xmlns="http://www.w3.org/2000/svg" xmlns:xlink="http://www.w3.org/1999/xlink">
    <title>Empty</title>
    <g id="Icon" stroke="none" stroke-width="1" fill="none" fill-rule="evenodd">
        <g id="Img" transform="translate(-241.000000, -56.000000)" fill-rule="nonzero">
            <g id="Empty" transform="translate(241.000000, 56.000000)">
                <rect id="Rectangle" fill="#FFFFFF" opacity="0" x="0" y="0" width="64" height="64"></rect>
                <path d="M50.1658442,22.9449906 C52.7039786,22.9449906 54.9852474,24.4934727 55.921819,26.8524894 L60.5631349,38.5440231 L60.5631349,57.0040134 C60.5631349,60.4240641 57.790636,63.196563 54.3705854,63.196563 L11.0227382,63.196563 C7.60268756,63.196563 4.83018868,60.4240641 4.83018868,57.0040134 L4.83018868,38.7886288 L9.48388962,26.8834522 C10.4122168,24.5080595 12.7019003,22.9449906 15.2522496,22.9449906 L50.1658442,22.9449906 L50.1658442,22.9449906 Z M21.9711659,39.974502 L7.92646344,39.974502 L7.92646344,57.0040134 C7.92646344,58.5737468 9.10152173,59.8949555 10.6604741,60.0786143 L11.0227382,60.1002882 L54.3705854,60.1002882 C55.9403188,60.1000811 57.2615274,58.9252299 57.4451862,57.3662776 L57.4668601,57.0040134 L57.4668601,39.974502 L43.4221577,39.974502 C42.651616,45.3053147 38.0828755,49.2611483 32.6966618,49.2611483 C27.3104481,49.2611483 22.7417076,45.3053147 21.9711659,39.974502 L21.9711659,39.974502 Z M50.1658442,26.0412655 L15.2522496,26.0412655 C14.1143044,26.0412655 13.0680517,26.6654341 12.5275278,27.6668097 L12.3665215,28.0104962 L8.89869371,36.8782273 L23.0734397,36.8782273 L23.0703435,36.9153825 C23.5286342,36.8153956 24.0075687,36.9277203 24.3736171,37.2210398 C24.7396654,37.5143593 24.9536736,37.9572991 24.9559748,38.4263646 C24.9559748,42.701428 28.4215984,46.1670516 32.6966618,46.1670516 C36.9717251,46.1670516 40.4373487,42.701428 40.4373487,38.4263646 C40.4364724,37.598408 41.0871912,36.9163128 41.9142719,36.8782273 L56.5689405,36.8782273 L53.0453797,27.9950148 C52.6277684,26.9417558 51.6682109,26.2007113 50.5435897,26.0629394 L50.1658442,26.0412655 L50.1658442,26.0412655 Z M34.1642961,2.81920428 C34.9120226,2.81895523 35.5530725,3.35316349 35.6876632,4.08867718 L35.7124388,4.36734188 L35.7124388,16.5728571 C35.7139094,17.3747583 35.1028026,18.0450559 34.3041801,18.1175116 C33.5055576,18.1899672 32.7837953,17.6405952 32.6409289,16.8515218 L32.6161586,16.5728571 L32.6161586,4.36734188 C32.6161586,3.51232919 33.3092834,2.81920428 34.1642961,2.81920428 L34.1642961,2.81920428 Z M15.177939,3.23720163 L15.3637155,3.44774825 L24.3769714,15.6532635 C24.845254,16.2974891 24.7483455,17.191896 24.1529471,17.7208723 C23.5575487,18.2498486 22.6579528,18.2407769 22.073343,17.6999012 L21.8875665,17.4924508 L12.8743105,5.28693551 C12.3985258,4.64301846 12.4921944,3.74255699 13.0903227,3.21035142 C13.688451,2.67814585 14.5936963,2.68978881 15.177939,3.23720163 L15.177939,3.23720163 Z M55.234446,3.11954314 C55.8368083,3.562808 56.0361762,4.37331 55.7081761,5.04542608 L55.5626512,5.28383921 L46.5772617,17.4893545 C46.1027543,18.1357824 45.2131746,18.3128852 44.5272709,17.8974788 C43.8413673,17.4820724 43.5861933,16.611668 43.9392355,15.8916767 L44.0816642,15.6532635 L53.0701499,3.45084455 C53.3132584,3.11899718 53.678445,2.89755077 54.0850907,2.83539207 C54.4917364,2.77323337 54.9064008,2.87547397 55.2375423,3.11954314 L55.234446,3.11954314 Z" id="Shape" fill="#c0c3c7"></path>
            </g>
        </g>
    </g>
</svg>
