<svg width="160" height="140" viewBox="0 0 160 140" fill="none" xmlns="http://www.w3.org/2000/svg">
<ellipse cx="81.3625" cy="106.772" rx="58.3625" ry="14.12" fill="#EBF4FF"/>
<path d="M47.3051 108.115C37.5708 107.491 19.1911 108.138 20.0276 117.305C21.1507 129.613 62.8694 126.182 68.6458 126.807C74.4221 127.432 73.7803 135.532 58.3765 133.663" stroke="#85BFFF" stroke-linecap="round"/>
<mask id="mask0_5104_20245" style="mask-type:alpha" maskUnits="userSpaceOnUse" x="23" y="-9" width="119" height="130">
<path d="M139.725 106.772C139.725 114.57 113.595 120.891 81.3624 120.891C49.1298 120.891 23 114.57 23 106.772C23 98.9733 33.9031 -8.55788 66.1357 -8.55788C162.151 -17.0301 139.725 98.9733 139.725 106.772Z" fill="#D9D9D9"/>
</mask>
<g mask="url(#mask0_5104_20245)">
<rect x="46" y="17.1973" width="69.6584" height="105.648" rx="7.53064" fill="#85BFFF"/>
<rect opacity="0.2" x="56.35" y="29.9268" width="48.9492" height="31.0639" rx="4.70665" fill="white"/>
<path d="M75 42.5L81.5 27.5H91L80.5 41.5L84.5 49L80 54.5L81.5 62.5L78 54L81 48.5L75 42.5Z" fill="#85BFFF"/>
<rect opacity="0.2" x="56.3502" y="68.5215" width="48.9492" height="5.6" rx="2.8" fill="white"/>
<rect opacity="0.2" x="56.35" y="78.875" width="48.9492" height="5.6" rx="2.8" fill="white"/>
<rect opacity="0.2" x="56.3503" y="89.2314" width="48.9492" height="5.6" rx="2.8" fill="white"/>
<rect opacity="0.2" x="56.3501" y="99.585" width="31.0639" height="5.6" rx="2.8" fill="white"/>
</g>
<path d="M114.498 35.7965C118.087 25.936 128.99 20.8518 138.851 24.4408C148.712 28.0297 153.796 38.9327 150.207 48.7933C146.618 58.6539 135.715 63.738 125.854 60.1491L110.915 54.7117C109.305 54.1257 108.475 52.3456 109.061 50.7357L114.498 35.7965Z" fill="#358FFF"/>
<path d="M130.483 35.3482L127.44 36.7391L126.037 33.7301C125.951 33.5445 125.73 33.4643 125.544 33.5508C125.359 33.6373 125.279 33.8579 125.365 34.0435L126.768 37.0525L123.747 38.4892C123.656 38.5292 123.586 38.6044 123.552 38.6973C123.519 38.7903 123.524 38.8931 123.568 38.9819C123.656 39.1655 123.875 39.2451 124.06 39.1613L127.082 37.7245L128.506 40.7793C128.593 40.9649 128.813 41.0452 128.999 40.9587C129.184 40.8721 129.265 40.6515 129.178 40.466L127.754 37.4112L130.796 36.0203C130.98 35.9319 131.059 35.7133 130.976 35.5276C130.936 35.437 130.86 35.3667 130.767 35.3329C130.674 35.2991 130.572 35.3046 130.483 35.3482Z" fill="white" stroke="white"/>
<path d="M142.702 39.7648L139.677 41.1751L138.267 38.1507C138.167 37.987 137.961 37.9239 137.787 38.0038C137.613 38.0838 137.526 38.2815 137.586 38.4636L139.002 41.4901L135.959 42.9321C135.775 43.0209 135.695 43.2407 135.779 43.4273C135.87 43.6133 136.091 43.6939 136.28 43.6097L139.317 42.1656L140.715 45.2238C140.805 45.4097 141.027 45.4904 141.216 45.4061C141.4 45.3173 141.48 45.0975 141.396 44.9108L139.964 41.8404L143.022 40.4424C143.185 40.341 143.246 40.134 143.164 39.9608C143.082 39.7877 142.883 39.7034 142.702 39.7648Z" fill="white" stroke="white"/>
<path d="M134.115 52.4801C134.023 52.4454 133.949 52.37 133.909 52.2691C133.063 50.5654 131.676 49.3379 129.997 48.808C128.35 48.1812 126.501 48.2431 124.751 48.9834C124.617 49.056 124.468 49.0452 124.359 48.955C124.25 48.8647 124.199 48.7088 124.224 48.546C124.25 48.3832 124.348 48.2381 124.481 48.1655C126.413 47.3163 128.465 47.2371 130.284 47.9413C133.524 49.1204 134.566 51.7547 134.591 51.8587C134.651 52.0168 134.617 52.2123 134.504 52.3533C134.392 52.4942 134.26 52.5317 134.115 52.4801Z" fill="white" stroke="white"/>
<path d="M40.3574 81.1598L41.1363 95.0035C41.1629 95.476 40.5092 95.6248 40.3287 95.1874L34.5647 81.2196C34.2386 80.4293 34.8825 79.5797 35.7315 79.6801L39.3707 80.1105C39.9107 80.1743 40.3268 80.6169 40.3574 81.1598Z" fill="#358FFF"/>
<path d="M25.7855 77.5063L37.0422 97.2703C37.2556 97.645 36.8335 98.0595 36.4628 97.8393L17.0367 86.299C16.4105 85.927 16.3004 85.0656 16.8128 84.5481L24.0164 77.2725C24.5381 76.7456 25.4185 76.862 25.7855 77.5063Z" fill="#358FFF"/>
<path d="M20.5802 96.4605L34.7154 99.8841C35.1693 99.9941 35.1317 100.652 34.6683 100.709L19.8437 102.549C19.1048 102.64 18.4838 101.999 18.5994 101.263L19.2101 97.3752C19.3117 96.7285 19.9439 96.3064 20.5802 96.4605Z" fill="#358FFF"/>
</svg>
