<svg width="160" height="140" viewBox="0 0 160 140" fill="none" xmlns="http://www.w3.org/2000/svg">
<path d="M81.3625 121.392C97.5064 121.392 112.138 119.81 122.749 117.243C128.05 115.96 132.375 114.425 135.387 112.702C138.36 111.002 140.225 109.016 140.225 106.772C140.225 104.529 138.36 102.543 135.387 100.842C132.375 99.1193 128.05 97.5845 122.749 96.302C112.138 93.735 97.5064 92.1523 81.3625 92.1523C65.2185 92.1523 50.5866 93.735 39.9764 96.302C34.6752 97.5845 30.3501 99.1193 27.3382 100.842C24.3645 102.543 22.5 104.529 22.5 106.772C22.5 109.016 24.3645 111.002 27.3382 112.702C30.3501 114.425 34.6752 115.96 39.9764 117.243C50.5866 119.81 65.2185 121.392 81.3625 121.392Z" fill="#B2B0FF" stroke="black"/>
<mask id="mask0_10512_7231" style="mask-type:alpha" maskUnits="userSpaceOnUse" x="23" y="-9" width="119" height="130">
<path d="M139.725 106.772C139.725 114.57 113.595 120.891 81.3624 120.891C49.1298 120.891 23 114.57 23 106.772C23 98.9733 33.9031 -8.55788 66.1357 -8.55788C162.151 -17.0301 139.725 98.9733 139.725 106.772Z" fill="#EFECFF"/>
</mask>
<g mask="url(#mask0_10512_7231)">
<rect x="46.4" y="17.5973" width="68.8584" height="104.848" rx="3.6" fill="white" stroke="#101114" stroke-width="0.8"/>
<rect x="56.35" y="29.9268" width="48.9492" height="31.0639" rx="1" fill="#B2B0FF"/>
<path d="M75 42.5L81.5 27.5H91L80.5 41.5L84.5 49L80 54.5L81.5 62.5L78 54L81 48.5L75 42.5Z" fill="white"/>
<rect x="56.3502" y="68.5215" width="48.9492" height="5.6" rx="2.8" fill="#EFECFF"/>
<rect x="56.35" y="78.875" width="48.9492" height="5.6" rx="2.8" fill="#EFECFF"/>
<rect x="56.3503" y="89.2314" width="48.9492" height="5.6" rx="2.8" fill="#EFECFF"/>
<rect x="56.3501" y="99.585" width="31.0639" height="5.6" rx="2.8" fill="#EFECFF"/>
</g>
<path d="M114.498 35.7965C118.087 25.936 128.99 20.8518 138.851 24.4408V24.4408C148.712 28.0297 153.796 38.9327 150.207 48.7933V48.7933C146.618 58.6539 135.715 63.738 125.854 60.1491L110.915 54.7117C109.305 54.1257 108.475 52.3456 109.061 50.7357L114.498 35.7965Z" fill="#5D42FF"/>
<path d="M130.483 35.3482L127.44 36.7391L126.037 33.7301C125.951 33.5445 125.73 33.4643 125.544 33.5508C125.359 33.6373 125.279 33.8579 125.365 34.0435L126.768 37.0525L123.747 38.4892C123.656 38.5292 123.586 38.6044 123.552 38.6973C123.519 38.7903 123.524 38.8931 123.568 38.9819C123.656 39.1655 123.875 39.2451 124.06 39.1613L127.082 37.7245L128.506 40.7793C128.593 40.9649 128.813 41.0452 128.999 40.9587C129.184 40.8721 129.265 40.6515 129.178 40.466L127.754 37.4112L130.796 36.0203C130.98 35.9319 131.059 35.7133 130.976 35.5276C130.936 35.437 130.86 35.3667 130.767 35.3329C130.674 35.2991 130.572 35.3046 130.483 35.3482Z" fill="white" stroke="white"/>
<path d="M142.702 39.7649L139.677 41.1752L138.267 38.1507C138.167 37.9871 137.961 37.9239 137.787 38.0039C137.613 38.0839 137.526 38.2816 137.586 38.4637L139.002 41.4902L135.959 42.9322C135.775 43.021 135.695 43.2408 135.779 43.4274C135.87 43.6133 136.091 43.694 136.28 43.6097L139.317 42.1657L140.715 45.2238C140.805 45.4098 141.027 45.4904 141.216 45.4062C141.4 45.3173 141.48 45.0976 141.396 44.9109L139.964 41.8404L143.022 40.4424C143.185 40.3411 143.246 40.134 143.164 39.9609C143.082 39.7877 142.883 39.7034 142.702 39.7649V39.7649Z" fill="white" stroke="white"/>
<path d="M134.115 52.4802C134.023 52.4454 133.949 52.3701 133.909 52.2691C133.063 50.5655 131.676 49.338 129.997 48.8081C128.35 48.1813 126.501 48.2431 124.751 48.9835C124.617 49.0561 124.468 49.0452 124.359 48.955C124.25 48.8648 124.199 48.7089 124.224 48.5461C124.25 48.3832 124.348 48.2382 124.481 48.1656C126.413 47.3164 128.465 47.2371 130.284 47.9414C133.524 49.1205 134.566 51.7547 134.591 51.8587C134.651 52.0169 134.617 52.2124 134.504 52.3533C134.392 52.4943 134.26 52.5318 134.115 52.4802Z" fill="white" stroke="white"/>
<path d="M43.3574 76.1598L44.1363 90.0035C44.1629 90.476 43.5092 90.6248 43.3287 90.1874L37.5647 76.2196C37.2386 75.4293 37.8825 74.5797 38.7315 74.6801L42.3707 75.1105C42.9107 75.1743 43.3268 75.6169 43.3574 76.1598Z" fill="#101114"/>
<path d="M28.7855 72.5063L40.0422 92.2703C40.2556 92.645 39.8335 93.0595 39.4628 92.8393L20.0367 81.299C19.4105 80.927 19.3004 80.0656 19.8128 79.5481L27.0164 72.2725C27.5381 71.7456 28.4185 71.862 28.7855 72.5063Z" fill="#101114"/>
<path d="M23.5802 91.4605L37.7154 94.8841C38.1693 94.9941 38.1317 95.6516 37.6683 95.7091L22.8437 97.5487C22.1048 97.6404 21.4838 96.999 21.5994 96.2635L22.2101 92.3752C22.3117 91.7285 22.9439 91.3064 23.5802 91.4605Z" fill="#101114"/>
</svg>
