<svg width="16" height="16" viewBox="0 0 16 16" fill="none" xmlns="http://www.w3.org/2000/svg">
<path d="M7.99685 0C12.4172 0 16 3.58284 16 8.00315C16 12.4235 12.4172 16.0031 8 16.0031C3.57969 16.0031 2.07335e-06 12.4203 2.07335e-06 8.00315C-0.00314629 3.58284 3.57969 0 7.99685 0Z" fill="#627EEA"/>
<path d="M7.99902 2.40002V6.54019L11.4976 8.10384L7.99902 2.40002Z" fill="white" fill-opacity="0.602"/>
<path d="M7.99904 2.40002L4.5 8.10384L7.99904 6.54019V2.40002Z" fill="white"/>
<path d="M7.99902 10.7868V13.5999L11.4999 8.75543L7.99902 10.7868Z" fill="white" fill-opacity="0.602"/>
<path d="M7.99904 13.5999V10.7863L4.5 8.75543L7.99904 13.5999Z" fill="white"/>
<path d="M7.99902 10.1357L11.4976 8.10385L7.99902 6.54114V10.1357Z" fill="white" fill-opacity="0.3"/>
<path d="M4.5 8.10385L7.99904 10.1357V6.54114L4.5 8.10385Z" fill="white" fill-opacity="0.7"/>
</svg>
