<svg width="40" height="40" viewBox="0 0 40 40" fill="none" xmlns="http://www.w3.org/2000/svg">
<rect x="0.5" y="0.5" width="39" height="39" rx="19.5" fill="white"/>
<rect x="0.5" y="0.5" width="39" height="39" rx="19.5" stroke="#EBEBEC"/>
<g clip-path="url(#clip0_22295_33211)">
<path d="M10.6746 12.6699H14.6603L11.5613 20.2499C11.5613 20.2499 9.94129 20.2234 9.44595 18.8079C9.3072 18.3876 9.29554 17.9357 9.41245 17.5088L10.6746 12.6699Z" fill="#D53127"/>
<path d="M26.1326 12.8316L21.0646 12.7435L22.2051 8.98172C22.3102 8.63736 22.3332 8.27319 22.2724 7.91833C22.2115 7.56348 22.0685 7.22779 21.8547 6.93811C21.6409 6.64842 21.3623 6.41279 21.0411 6.25004C20.72 6.0873 20.3652 6.00196 20.0052 6.00085H15.3796L10.0913 24.9948C10.0913 24.9948 8.1963 33.1177 15.3796 33.8528C15.3796 33.8528 26.7355 36.1744 30.3791 22.4529C30.3791 22.4529 32.3023 14.1537 26.1326 12.8316ZM22.6687 22.2519C22.6687 22.2519 22.466 25.7563 19.8218 26.3715C19.4314 26.4697 19.0189 26.4273 18.6566 26.2517C18.2424 26.0401 17.814 25.6012 17.8246 24.681C17.8315 24.415 17.8742 24.1512 17.9515 23.8966L18.9281 20.2494H21.5934C21.5934 20.2494 22.8009 20.6425 22.6687 22.2519Z" fill="#F47320"/>
<path d="M30.6224 18.6254C30.1376 13.0497 26.1326 12.8293 26.1326 12.8293L21.0646 12.7412L18.8876 20.2912H21.5458C22.0341 20.3176 22.9243 21.1232 22.6352 22.5493" fill="url(#paint0_linear_22295_33211)"/>
</g>
<defs>
<linearGradient id="paint0_linear_22295_33211" x1="29.6917" y1="26.0837" x2="21.7045" y2="13.8271" gradientUnits="userSpaceOnUse">
<stop offset="0.41" stop-color="#F47320"/>
<stop offset="0.5" stop-color="#F16D21"/>
<stop offset="0.62" stop-color="#E95C22"/>
<stop offset="0.75" stop-color="#DC4125"/>
<stop offset="0.81" stop-color="#D53127"/>
</linearGradient>
<clipPath id="clip0_22295_33211">
<rect width="21.3261" height="28" fill="white" transform="translate(9.33691 6)"/>
</clipPath>
</defs>
</svg>
