<svg width="42" height="42" viewBox="0 0 42 42" fill="none" xmlns="http://www.w3.org/2000/svg">
<rect x="0.5" y="0.5" width="41" height="41" rx="20.5" fill="black"/>
<rect x="0.5" y="0.5" width="41" height="41" rx="20.5" stroke="white"/>
<path d="M15.9528 18.9246L21.0026 13.8769L26.0545 18.9288L28.9912 15.9901L21.0026 7.99951L13.014 15.988L15.9528 18.9246Z" fill="#F3BA2F"/>
<path d="M8.00012 21.0004L10.9378 18.0627L13.8754 21.0004L10.9378 23.938L8.00012 21.0004Z" fill="#F3BA2F"/>
<path d="M15.9529 23.0757L21.0027 28.1255L26.0546 23.0736L28.9934 26.0082L28.9913 26.0103L21.0027 34.0008L13.0142 26.0144L13.0101 26.0103L15.9529 23.0757Z" fill="#F3BA2F"/>
<path d="M28.1248 21.0013L31.0624 18.0637L34.0001 21.0013L31.0624 23.939L28.1248 21.0013Z" fill="#F3BA2F"/>
<path d="M23.9823 20.9998L21.0025 18.0179L18.799 20.2215L18.5443 20.474L18.0227 20.9957L18.0186 20.9998L18.0227 21.0059L21.0025 23.9836L23.9823 21.0018L23.9844 20.9998H23.9823Z" fill="#F3BA2F"/>
</svg>
