<svg width="40" height="40" viewBox="0 0 40 40" fill="none" xmlns="http://www.w3.org/2000/svg">
<rect x="0.5" y="0.5" width="39" height="39" rx="19.5" fill="black"/>
<rect x="0.5" y="0.5" width="39" height="39" rx="19.5" stroke="#EBEBEC"/>
<path d="M17.1089 16.882H22.886C23.1316 16.882 23.3307 17.0679 23.3307 17.2979V22.7035C23.3307 22.9331 23.1316 23.1194 22.886 23.1194H17.1089C16.8633 23.1194 16.6643 22.9331 16.6643 22.7035V17.2979C16.6643 17.0684 16.8633 16.882 17.1089 16.882Z" fill="white"/>
<path d="M10.4447 10.6438H16.2217L16.2213 10.6442C16.4669 10.6442 16.666 10.8301 16.666 11.0601V16.4657C16.666 16.6953 16.4669 16.8816 16.2213 16.8816H10.4447C10.199 16.8816 10 16.6953 10 16.4657V11.0601C10 10.8301 10.199 10.6438 10.4447 10.6438Z" fill="white"/>
<path d="M23.7783 10.6438H29.5557L29.5553 10.6442C29.8009 10.6442 30 10.8301 30 11.0601V16.4657C30 16.6953 29.8009 16.8816 29.5553 16.8816H23.7787C23.5331 16.8816 23.334 16.6953 23.334 16.4657V11.0601C23.334 10.8301 23.5331 10.6438 23.7783 10.6438Z" fill="white"/>
<path d="M10.4447 23.119H16.2217C16.4673 23.119 16.666 23.3053 16.666 23.5349V28.9409C16.666 29.17 16.4669 29.3563 16.2213 29.3563H10.4447C10.199 29.3563 10 29.1704 10 28.9409V23.5349C10 23.3053 10.199 23.119 10.4447 23.119Z" fill="white"/>
<path d="M23.7783 23.119H29.5553C29.8009 23.119 30 23.3053 30 23.5349V28.9409C30 29.17 29.8009 29.3563 29.5553 29.3563H23.7787C23.5331 29.3563 23.334 29.1704 23.334 28.9409V23.5349C23.334 23.3053 23.5331 23.119 23.7783 23.119Z" fill="white"/>
</svg>
