<svg width="161" height="160" viewBox="0 0 161 160" fill="none" xmlns="http://www.w3.org/2000/svg">
<g clip-path="url(#clip0_22860_1705)">
<g filter="url(#filter0_d_22860_1705)">
<path d="M20.5 59.1741C20.5 59.0969 20.5837 59.0488 20.6504 59.0877L80.4504 93.9711C80.4811 93.989 80.5 94.0219 80.5 94.0574V152.478C80.5 152.709 80.2488 152.853 80.0488 152.737L20.5496 118.029C20.5189 118.011 20.5 117.978 20.5 117.943V59.1741Z" fill="#8388F9" stroke="black" stroke-width="0.7"/>
<path d="M140.5 59.1741C140.5 59.0969 140.416 59.0488 140.35 59.0877L125.5 67.75L110.5 76.5L80.5496 93.9711C80.5189 93.989 80.5 94.0219 80.5 94.0574V152.304C80.5 152.612 80.8349 152.805 81.1015 152.649L110.5 135.5L125.5 126.75L140.45 118.029C140.481 118.011 140.5 117.978 140.5 117.943V59.1741Z" fill="white" stroke="black" stroke-width="0.7"/>
</g>
<path d="M130.013 76.1616L130.541 75.8495V76.4629V112.265V112.465L130.369 112.567L90.9866 135.838L90.4586 136.15V135.537V99.7346V99.5348L90.6305 99.4332L130.013 76.1616Z" fill="#231863" stroke="black" stroke-width="0.7"/>
<path d="M130.191 76.4629L126.499 78.6446V111.922L90.8086 132.8V135.537L130.191 112.265V76.4629Z" fill="#6B68FF"/>
<path d="M20.6562 59.0934C20.5874 59.0533 20.5908 58.9529 20.662 58.9175L80.4555 29.1729C80.4835 29.159 80.5165 29.159 80.5445 29.1729L140.338 58.9175C140.409 58.9529 140.413 59.0533 140.344 59.0934L80.5504 93.9745C80.5193 93.9927 80.4808 93.9927 80.4496 93.9745L20.6562 59.0934Z" fill="#5D42FF" stroke="black" stroke-width="0.7"/>
<path d="M40.616 58.6874L40.0441 58.9755L40.5954 59.3013L80.3219 82.7775L80.5 82.8828L80.6781 82.7775L120.405 59.3013L120.956 58.9755L120.384 58.6874L80.6575 38.6758L80.5 38.5964L80.3425 38.6758L40.616 58.6874Z" fill="#231863" stroke="black" stroke-width="0.7"/>
<path d="M40.7734 59L80.5 38.9578L120.227 59L115.045 62.0618L80.5 45.0835L45.9547 62.0618L40.7734 59Z" fill="white"/>
<path d="M122.73 112.086H124.23V122.232C124.23 122.647 123.898 122.804 123.484 122.804C123.07 122.804 122.73 122.647 122.73 122.232V112.086Z" fill="#8149FC" stroke="black" stroke-width="0.5"/>
<path d="M118.498 96.8284C118.498 96.7512 118.582 96.7031 118.648 96.742L123.431 99.5316C123.461 99.5495 123.48 99.5824 123.48 99.618V117.116C123.48 117.193 123.396 117.241 123.33 117.202L118.548 114.413C118.517 114.395 118.498 114.362 118.498 114.326V96.8284Z" fill="#8149FC" stroke="black" stroke-width="0.5"/>
<path d="M128.463 96.8284C128.463 96.7512 128.379 96.7031 128.313 96.742L123.53 99.5316C123.5 99.5495 123.481 99.5824 123.481 99.618V117.116C123.481 117.193 123.565 117.241 123.631 117.202L128.413 114.413C128.444 114.395 128.463 114.362 128.463 114.326V96.8284Z" fill="#8C8BF8" stroke="black" stroke-width="0.5"/>
<path d="M118.658 96.7477C118.589 96.7076 118.593 96.6072 118.664 96.5718L123.436 94.1979C123.464 94.184 123.497 94.184 123.525 94.1979L128.297 96.5718C128.368 96.6072 128.372 96.7076 128.303 96.7477L123.531 99.5314C123.5 99.5496 123.461 99.5496 123.43 99.5314L118.658 96.7477Z" fill="#11C2C2" stroke="black" stroke-width="0.5"/>
<path d="M122.73 86.5547H124.23V96.7012C124.23 97.1154 123.898 97.2727 123.484 97.2727C123.07 97.2727 122.73 97.1154 122.73 96.7012V86.5547Z" fill="#8C8BF8" stroke="black" stroke-width="0.5"/>
<ellipse cx="123.48" cy="86.4248" rx="0.75" ry="0.448242" fill="#11C2C2" stroke="black" stroke-width="0.5"/>
<path d="M111.324 129.92H112.824V140.067C112.824 140.481 112.492 140.638 112.078 140.638C111.663 140.638 111.324 140.481 111.324 140.067V129.92Z" fill="#1AA886" stroke="black" stroke-width="0.5"/>
<path d="M107.092 109.663C107.092 109.586 107.176 109.537 107.242 109.576L112.024 112.366C112.055 112.384 112.074 112.417 112.074 112.452V134.95C112.074 135.027 111.99 135.075 111.924 135.036L107.141 132.247C107.111 132.229 107.092 132.196 107.092 132.161V109.663Z" fill="#1AA886" stroke="black" stroke-width="0.5"/>
<path d="M117.057 109.663C117.057 109.586 116.973 109.537 116.906 109.576L112.124 112.366C112.093 112.384 112.075 112.417 112.075 112.452V134.95C112.075 135.027 112.158 135.075 112.225 135.036L117.007 132.247C117.038 132.229 117.057 132.196 117.057 132.161V109.663Z" fill="#2DDF9F" stroke="black" stroke-width="0.5"/>
<path d="M107.252 109.582C107.183 109.542 107.186 109.441 107.258 109.406L112.03 107.032C112.058 107.018 112.091 107.018 112.119 107.032L116.891 109.406C116.962 109.441 116.965 109.542 116.897 109.582L112.125 112.366C112.093 112.384 112.055 112.384 112.024 112.366L107.252 109.582Z" fill="#25FFF0" stroke="black" stroke-width="0.5"/>
<path d="M111.324 99.389H112.824V109.535C112.824 109.95 112.492 110.107 112.078 110.107C111.663 110.107 111.324 109.95 111.324 109.535V99.389Z" fill="#2DDF9F" stroke="black" stroke-width="0.5"/>
<ellipse cx="112.074" cy="99.1826" rx="0.75" ry="0.456055" fill="#1AA886" stroke="black" stroke-width="0.5"/>
<path d="M96.918 112.64H98.418V122.787C98.418 123.201 98.0855 123.358 97.6713 123.358C97.257 123.358 96.918 123.201 96.918 122.787V112.64Z" fill="#8149FC" stroke="black" stroke-width="0.5"/>
<path d="M92.6855 99.5823C92.6855 99.5051 92.7693 99.457 92.8359 99.4959L97.618 102.285C97.6487 102.303 97.6676 102.336 97.6676 102.372V117.87C97.6676 117.947 97.5839 117.995 97.5173 117.956L92.7352 115.167C92.7044 115.149 92.6855 115.116 92.6855 115.08V99.5823Z" fill="#8149FC" stroke="black" stroke-width="0.5"/>
<path d="M102.65 99.5823C102.65 99.5051 102.567 99.457 102.5 99.4959L97.7179 102.285C97.6872 102.303 97.6683 102.336 97.6683 102.372V117.87C97.6683 117.947 97.752 117.995 97.8187 117.956L102.601 115.167C102.631 115.149 102.65 115.116 102.65 115.08V99.5823Z" fill="#8C8BF8" stroke="black" stroke-width="0.5"/>
<path d="M92.8456 99.5016C92.7769 99.4615 92.7802 99.3611 92.8515 99.3257L97.6234 96.9518C97.6515 96.9379 97.6845 96.9379 97.7125 96.9518L102.484 99.3257C102.556 99.3611 102.559 99.4615 102.49 99.5016L97.7184 102.285C97.6872 102.304 97.6487 102.304 97.6176 102.285L92.8456 99.5016Z" fill="#11C2C2" stroke="black" stroke-width="0.5"/>
<path d="M96.918 91.3086H98.418V99.4551C98.418 99.8693 98.0855 100.027 97.6713 100.027C97.257 100.027 96.918 99.8693 96.918 99.4551V91.3086Z" fill="#8C8BF8" stroke="black" stroke-width="0.5"/>
<ellipse cx="97.668" cy="91.1572" rx="0.75" ry="0.469727" fill="#11C2C2" stroke="black" stroke-width="0.5"/>
<path d="M55.0127 45.5493C53.3814 46.0537 51.7352 46.6476 50.4744 47.7989C46.4146 51.5062 45.3187 58.2516 47.6299 64.5527C49.4207 70.5945 53.4956 74.8991 58.9625 75.8288C60.9508 76.1669 62.9716 75.7365 64.9063 75.1667C65.3282 75.0424 65.8664 74.8799 66.7096 74.621C67.5563 71.4253 68.5675 62.0055 67.3304 58.0673C66.5957 55.7284 58.9744 46.5002 57.7073 44.7334C57.7073 44.7334 57.0482 44.9199 55.0127 45.5493Z" fill="#495BFC" stroke="black" stroke-width="0.296206"/>
<ellipse cx="15.6394" cy="12.2108" rx="15.6394" ry="12.2108" transform="matrix(-0.299681 -0.954039 -0.954031 0.299708 78.042 71.0938)" fill="#6788FF" stroke="black" stroke-width="0.296206"/>
<g filter="url(#filter1_i_22860_1705)">
<ellipse cx="13.4422" cy="9.40128" rx="13.4422" ry="9.40128" transform="matrix(-0.299681 -0.954039 -0.954031 0.299708 74.8361 69.7939)" fill="white"/>
</g>
<ellipse cx="13.4422" cy="9.40128" rx="13.4422" ry="9.40128" transform="matrix(-0.299681 -0.954039 -0.954031 0.299708 74.8361 69.7939)" stroke="black" stroke-width="0.296206"/>
<path fill-rule="evenodd" clip-rule="evenodd" d="M60.8768 54.8491C61.4562 54.5772 61.6152 53.6947 61.2319 52.878C60.8486 52.0613 60.0682 51.6197 59.4888 51.8916C58.9094 52.1635 58.7504 53.046 59.1337 53.8627C59.517 54.6794 60.2974 55.1211 60.8768 54.8491ZM67.6131 56.8816C68.3929 58.5431 68.0695 60.3386 66.8907 60.8918C65.712 61.445 64.1243 60.5465 63.3445 58.8849C62.5646 57.2233 62.8881 55.4279 64.0668 54.8747C65.2455 54.3215 66.8333 55.22 67.6131 56.8816ZM66.617 64.3504C67.0003 65.1671 66.8413 66.0496 66.2619 66.3216C65.6825 66.5935 64.9021 66.1518 64.5188 65.3351C64.1355 64.5184 64.2945 63.6359 64.8739 63.364C65.4533 63.0921 66.2337 63.5337 66.617 64.3504ZM55.5538 57.4723C55.7848 58.7639 56.8291 59.8605 57.8465 59.9119C58.5207 59.9377 59.0277 59.5131 59.2164 58.8334C59.4167 58.2727 59.8452 57.9161 60.4352 57.9503C60.8144 57.959 61.1812 58.1291 61.5115 58.4096L61.5535 58.4521C61.6977 58.5711 61.878 58.6732 62.0466 58.6563C62.456 58.6819 62.7161 58.2487 62.6093 57.7389C62.5205 57.2205 62.0883 56.77 61.691 56.7698C61.5104 56.7612 61.3657 56.8291 61.2569 56.9735C61.0273 57.2368 60.7017 57.3896 60.3225 57.381C59.7626 57.3637 59.2158 56.9981 58.814 56.4711L58.7719 56.4286C58.76 56.4031 58.748 56.3776 58.7299 56.3861L58.706 56.3351C58.2443 55.6807 57.6135 55.23 56.9693 55.2212C55.94 55.1443 55.2927 56.1636 55.5538 57.4723ZM59.0414 62.4601C58.4309 63.2755 58.6071 64.7795 59.453 65.7826C60.311 66.8111 61.4905 66.973 62.0891 66.1321C62.494 65.631 62.5504 64.8578 62.342 64.0845L62.3181 64.0335C62.3362 64.025 62.3242 63.9995 62.3122 63.974L62.3064 63.9145C62.1578 63.2687 62.226 62.6145 62.5704 62.1728C62.8061 61.8755 63.1317 61.7227 63.4809 61.7144C63.6615 61.7229 63.8062 61.655 63.915 61.5106C64.1688 61.2049 64.0984 60.5845 63.7564 60.185C63.4325 59.777 62.933 59.7003 62.6912 60.0316C62.5704 60.1505 62.5337 60.3544 62.5331 60.5414L62.539 60.6008C62.5437 61.0342 62.4402 61.425 62.2045 61.7223C61.8539 62.1979 61.3057 62.2997 60.7464 62.0955C60.103 61.8063 59.4524 61.925 59.0414 62.4601Z" fill="#8C8BF8"/>
<path d="M57.8465 59.9119L57.8364 60.1117L57.8388 60.1118L57.8465 59.9119ZM55.5538 57.4723L55.7507 57.4371L55.7499 57.4332L55.5538 57.4723ZM59.2164 58.8334L59.028 58.7661L59.0256 58.773L59.0236 58.7799L59.2164 58.8334ZM60.4352 57.9503L60.4236 58.1501L60.4306 58.1503L60.4352 57.9503ZM61.5115 58.4096L61.6537 58.269L61.6476 58.2628L61.641 58.2572L61.5115 58.4096ZM61.5535 58.4521L61.4113 58.5927L61.4184 58.5999L61.4262 58.6063L61.5535 58.4521ZM62.0466 58.6563L62.0591 58.4567L62.0429 58.4556L62.0267 58.4573L62.0466 58.6563ZM62.6093 57.7389L62.412 57.7726L62.4135 57.7799L62.6093 57.7389ZM61.691 56.7698L61.6815 56.9698L61.6909 56.9698L61.691 56.7698ZM61.2569 56.9735L61.4076 57.105L61.4123 57.0996L61.4166 57.0939L61.2569 56.9735ZM60.3225 57.381L60.3163 57.5809L60.3179 57.5809L60.3225 57.381ZM58.814 56.4711L58.973 56.3498L58.9652 56.3396L58.9562 56.3305L58.814 56.4711ZM58.7719 56.4286L58.5909 56.5136L58.6055 56.5447L58.6297 56.5692L58.7719 56.4286ZM58.7299 56.3861L58.5489 56.4711L58.6338 56.6521L58.8149 56.5672L58.7299 56.3861ZM58.706 56.3351L58.887 56.2501L58.8796 56.2342L58.8694 56.2198L58.706 56.3351ZM56.9693 55.2212L56.9544 55.4211L56.9666 55.4212L56.9693 55.2212ZM59.453 65.7826L59.6066 65.6544L59.6059 65.6536L59.453 65.7826ZM59.0414 62.4601L58.8828 62.3383L58.8813 62.3402L59.0414 62.4601ZM62.0891 66.1321L61.9332 66.0062L61.9261 66.0161L62.0891 66.1321ZM62.342 64.0845L62.5351 64.0324L62.5305 64.0154L62.5231 63.9995L62.342 64.0845ZM62.3181 64.0335L62.2331 63.8524L62.0521 63.9374L62.137 64.1185L62.3181 64.0335ZM62.3122 63.974L62.1132 63.9936L62.1166 64.0278L62.1312 64.059L62.3122 63.974ZM62.3064 63.9145L62.5054 63.895L62.5042 63.8822L62.5013 63.8697L62.3064 63.9145ZM62.5704 62.1728L62.4137 62.0485L62.4127 62.0498L62.5704 62.1728ZM63.4809 61.7144L63.4904 61.5146L63.4833 61.5142L63.4762 61.5144L63.4809 61.7144ZM63.915 61.5106L63.761 61.3828L63.7553 61.3903L63.915 61.5106ZM63.7564 60.185L63.5997 60.3095L63.6045 60.3151L63.7564 60.185ZM62.6912 60.0316L62.8315 60.1741L62.8431 60.1627L62.8527 60.1495L62.6912 60.0316ZM62.5331 60.5414L62.3331 60.5408L62.3331 60.5509L62.3341 60.5609L62.5331 60.5414ZM62.539 60.6008L62.739 60.5987L62.7389 60.5899L62.738 60.5813L62.539 60.6008ZM62.2045 61.7223L62.0477 61.598L62.0435 61.6036L62.2045 61.7223ZM60.7464 62.0955L60.6644 62.2779L60.671 62.2809L60.6778 62.2834L60.7464 62.0955ZM61.0508 52.963C61.2269 53.3382 61.2746 53.7211 61.2185 54.0324C61.1623 54.3443 61.0073 54.5669 60.7918 54.6681L60.9618 55.0302C61.3257 54.8594 61.5399 54.5048 61.6122 54.1033C61.6846 53.7013 61.6201 53.2345 61.4129 52.793L61.0508 52.963ZM59.5738 52.0726C59.7892 51.9715 60.0595 51.9945 60.3354 52.1506C60.6107 52.3064 60.8747 52.5877 61.0508 52.963L61.4129 52.793C61.2057 52.3516 60.8879 52.0037 60.5324 51.8025C60.1773 51.6016 59.7677 51.5398 59.4038 51.7105L59.5738 52.0726ZM59.3148 53.7777C59.1387 53.4025 59.091 53.0197 59.1471 52.7083C59.2033 52.3964 59.3583 52.1738 59.5738 52.0726L59.4038 51.7105C59.0399 51.8813 58.8257 52.2359 58.7534 52.6374C58.681 53.0395 58.7455 53.5062 58.9527 53.9477L59.3148 53.7777ZM60.7918 54.6681C60.5764 54.7692 60.3061 54.7462 60.0302 54.5901C59.7549 54.4343 59.4909 54.153 59.3148 53.7777L58.9527 53.9477C59.1599 54.3891 59.4777 54.737 59.8332 54.9382C60.1883 55.1391 60.5979 55.201 60.9618 55.0302L60.7918 54.6681ZM66.9757 61.0728C67.6393 60.7614 68.0444 60.1083 68.1832 59.3378C68.3221 58.5667 68.1996 57.6605 67.7941 56.7966L67.432 56.9665C67.8064 57.7642 67.9121 58.5865 67.7895 59.2668C67.6669 59.9477 67.3209 60.4689 66.8058 60.7107L66.9757 61.0728ZM63.1634 58.9699C63.5689 59.8338 64.1876 60.5071 64.8695 60.8929C65.5509 61.2785 66.3121 61.3843 66.9757 61.0728L66.8058 60.7107C66.2906 60.9525 65.6686 60.8856 65.0665 60.5448C64.4649 60.2044 63.8999 59.5976 63.5255 58.7999L63.1634 58.9699ZM63.9818 54.6937C63.3183 55.0051 62.9131 55.6582 62.7743 56.4287C62.6354 57.1998 62.758 58.106 63.1634 58.9699L63.5255 58.7999C63.1511 58.0023 63.0455 57.18 63.168 56.4996C63.2906 55.8187 63.6366 55.2975 64.1518 55.0558L63.9818 54.6937ZM67.7941 56.7966C67.3887 55.9327 66.7699 55.2594 66.088 54.8735C65.4067 54.4879 64.6454 54.3822 63.9818 54.6937L64.1518 55.0558C64.6669 54.814 65.2889 54.8809 65.891 55.2217C66.4927 55.5621 67.0577 56.1689 67.432 56.9665L67.7941 56.7966ZM66.3469 66.5026C66.7108 66.3318 66.925 65.9773 66.9973 65.5758C67.0697 65.1737 67.0052 64.7069 66.798 64.2655L66.4359 64.4354C66.612 64.8107 66.6597 65.1935 66.6036 65.5048C66.5474 65.8167 66.3924 66.0394 66.177 66.1405L66.3469 66.5026ZM64.3378 65.4201C64.545 65.8616 64.8628 66.2094 65.2183 66.4106C65.5734 66.6116 65.983 66.6734 66.3469 66.5026L66.177 66.1405C65.9615 66.2416 65.6912 66.2186 65.4154 66.0625C65.14 65.9067 64.876 65.6254 64.6999 65.2502L64.3378 65.4201ZM64.7889 63.183C64.425 63.3538 64.2109 63.7083 64.1385 64.1098C64.0661 64.5119 64.1306 64.9786 64.3378 65.4201L64.6999 65.2502C64.5238 64.8749 64.4761 64.4921 64.5322 64.1807C64.5884 63.8688 64.7434 63.6462 64.9589 63.5451L64.7889 63.183ZM66.798 64.2655C66.5908 63.824 66.273 63.4761 65.9175 63.2749C65.5624 63.074 65.1528 63.0122 64.7889 63.183L64.9589 63.5451C65.1744 63.4439 65.4446 63.467 65.7205 63.6231C65.9958 63.7789 66.2598 64.0602 66.4359 64.4354L66.798 64.2655ZM57.8566 59.7122C57.4145 59.6898 56.9444 59.4371 56.5507 59.0199C56.1589 58.6047 55.8589 58.0427 55.7507 57.4371L55.3569 57.5075C55.4796 58.1935 55.8173 58.8256 56.2598 59.2944C56.7003 59.7613 57.2611 60.0826 57.8364 60.1117L57.8566 59.7122ZM59.0236 58.7799C58.8556 59.3852 58.4211 59.7338 57.8541 59.7121L57.8388 60.1118C58.6203 60.1417 59.1998 59.641 59.4091 58.8869L59.0236 58.7799ZM60.4468 57.7506C59.7489 57.7101 59.2512 58.1415 59.028 58.7661L59.4047 58.9007C59.5822 58.4039 59.9415 58.122 60.4236 58.15L60.4468 57.7506ZM61.641 58.2572C61.2867 57.9563 60.8775 57.7604 60.4397 57.7504L60.4306 58.1503C60.7514 58.1576 61.0757 58.3019 61.382 58.5621L61.641 58.2572ZM61.6958 58.3115L61.6537 58.269L61.3693 58.5502L61.4113 58.5927L61.6958 58.3115ZM62.0267 58.4573C61.9429 58.4657 61.8177 58.4109 61.6809 58.2979L61.4262 58.6063C61.5776 58.7314 61.8131 58.8807 62.0666 58.8553L62.0267 58.4573ZM62.4135 57.7799C62.4584 57.9939 62.4228 58.1761 62.3507 58.2943C62.2815 58.408 62.1806 58.4643 62.0591 58.4567L62.0341 58.8559C62.322 58.8739 62.5558 58.7265 62.6923 58.5024C62.826 58.283 62.867 57.9937 62.805 57.6978L62.4135 57.7799ZM61.6909 56.9698C61.8161 56.9699 61.9747 57.0441 62.1209 57.1979C62.2643 57.3486 62.3749 57.5552 62.4121 57.7726L62.8064 57.7051C62.7549 57.4041 62.605 57.1263 62.4108 56.9222C62.2194 56.721 61.9632 56.5699 61.6911 56.5698L61.6909 56.9698ZM61.4166 57.0939C61.4856 57.0023 61.567 56.9641 61.6815 56.9696L61.7005 56.57C61.4538 56.5583 61.2458 56.6559 61.0971 56.8532L61.4166 57.0939ZM60.3179 57.5809C60.7574 57.591 61.1396 57.4124 61.4076 57.105L61.1061 56.8421C60.915 57.0613 60.6461 57.1883 60.327 57.181L60.3179 57.5809ZM58.6549 56.5924C59.0777 57.1468 59.6745 57.5611 60.3163 57.5809L60.3286 57.1811C59.8506 57.1663 59.3539 56.8494 58.973 56.3498L58.6549 56.5924ZM58.6297 56.5692L58.6717 56.6117L58.9562 56.3305L58.9142 56.288L58.6297 56.5692ZM58.8149 56.5672C58.7707 56.5879 58.7162 56.5912 58.6659 56.5704C58.6251 56.5535 58.6031 56.5272 58.5966 56.519C58.5923 56.5135 58.5895 56.5092 58.5881 56.507C58.5874 56.5058 58.5868 56.5049 58.5865 56.5043C58.5862 56.5038 58.586 56.5035 58.586 56.5035C58.586 56.5034 58.5861 56.5036 58.5864 56.5041C58.5866 56.5046 58.5869 56.5052 58.5874 56.5061C58.5883 56.5081 58.5893 56.5102 58.5909 56.5136L58.953 56.3436C58.9506 56.3385 58.9343 56.3011 58.9099 56.2703C58.8966 56.2536 58.8675 56.2209 58.8189 56.2008C58.7609 56.1768 58.6982 56.1801 58.6449 56.2051L58.8149 56.5672ZM58.5249 56.4201L58.5489 56.4711L58.911 56.3011L58.887 56.2501L58.5249 56.4201ZM56.9666 55.4212C57.52 55.4288 58.0991 55.8218 58.5426 56.4504L58.8694 56.2198C58.3895 55.5395 57.7069 55.0313 56.972 55.0213L56.9666 55.4212ZM55.7499 57.4332C55.6271 56.8173 55.7221 56.2901 55.9468 55.9339C56.1677 55.5837 56.518 55.3881 56.9544 55.4207L56.9842 55.0218C56.3913 54.9775 55.9033 55.253 55.6085 55.7205C55.3175 56.1819 55.2195 56.8187 55.3576 57.5114L55.7499 57.4332ZM59.6059 65.6536C59.2093 65.1834 58.9686 64.5935 58.8996 64.0268C58.8303 63.4573 58.9363 62.9343 59.2015 62.58L58.8813 62.3402C58.5361 62.8013 58.4249 63.438 58.5025 64.0752C58.5805 64.7151 58.8508 65.3787 59.3002 65.9115L59.6059 65.6536ZM61.9261 66.0161C61.6723 66.3727 61.3026 66.5148 60.8949 66.4601C60.4791 66.4044 60.0118 66.1402 59.6066 65.6544L59.2995 65.9107C59.7522 66.4534 60.3036 66.7845 60.8418 66.8566C61.388 66.9298 61.9073 66.7324 62.252 66.2481L61.9261 66.0161ZM62.1489 64.1365C62.3491 64.8793 62.2814 65.5759 61.9335 66.0064L62.2447 66.2578C62.7065 65.6861 62.7518 64.8363 62.5351 64.0324L62.1489 64.1365ZM62.137 64.1185L62.161 64.1694L62.5231 63.9995L62.4991 63.9485L62.137 64.1185ZM62.1312 64.059C62.1328 64.0623 62.1338 64.0645 62.1347 64.0665C62.1351 64.0674 62.1354 64.068 62.1356 64.0685C62.1358 64.069 62.1359 64.0692 62.1359 64.0692C62.1359 64.0692 62.1357 64.0689 62.1355 64.0683C62.1353 64.0677 62.1349 64.0667 62.1345 64.0653C62.1336 64.0629 62.1321 64.0579 62.1307 64.0511C62.1285 64.0409 62.1223 64.0072 62.1354 63.965C62.1516 63.9129 62.1889 63.8732 62.2331 63.8524L62.403 64.2145C62.4563 64.1896 62.4989 64.1434 62.5175 64.0834C62.5331 64.0332 62.5265 63.99 62.5222 63.9691C62.5141 63.9306 62.4957 63.8942 62.4933 63.889L62.1312 64.059ZM62.1073 63.9341L62.1132 63.9936L62.5113 63.9544L62.5054 63.895L62.1073 63.9341ZM62.4127 62.0498C62.0179 62.5561 61.9551 63.2799 62.1115 63.9594L62.5013 63.8697C62.3604 63.2575 62.434 62.6729 62.7281 62.2958L62.4127 62.0498ZM63.4762 61.5144C63.0684 61.5242 62.6868 61.704 62.4137 62.0485L62.7272 62.297C62.9254 62.047 63.195 61.9212 63.4857 61.9143L63.4762 61.5144ZM63.7553 61.3903C63.6863 61.4818 63.6049 61.52 63.4904 61.5146L63.4714 61.9141C63.7181 61.9258 63.9262 61.8282 64.0748 61.631L63.7553 61.3903ZM63.6045 60.3151C63.7479 60.4826 63.8362 60.6997 63.8605 60.9064C63.8853 61.1171 63.8411 61.2865 63.7611 61.3829L64.0689 61.6384C64.2427 61.429 64.2902 61.1353 64.2578 60.8596C64.2248 60.5798 64.1069 60.2869 63.9083 60.055L63.6045 60.3151ZM62.8527 60.1495C62.9245 60.0513 63.0323 60.0096 63.1639 60.029C63.3009 60.0491 63.4638 60.1381 63.5998 60.3094L63.913 60.0607C63.7251 59.8239 63.4763 59.6706 63.2221 59.6332C62.9626 59.5951 62.6997 59.6807 62.5296 59.9137L62.8527 60.1495ZM62.7331 60.542C62.7337 60.3645 62.7715 60.2332 62.8315 60.1741L62.5509 59.8891C62.3693 60.0679 62.3337 60.3444 62.3331 60.5408L62.7331 60.542ZM62.738 60.5813L62.7322 60.5218L62.3341 60.5609L62.3399 60.6204L62.738 60.5813ZM62.3612 61.8465C62.6333 61.5034 62.744 61.0634 62.739 60.5987L62.339 60.603C62.3434 61.0049 62.2472 61.3466 62.0478 61.598L62.3612 61.8465ZM60.6778 62.2834C61.3009 62.5108 61.9508 62.4036 62.3655 61.8409L62.0435 61.6036C61.757 61.9923 61.3105 62.0885 60.815 61.9076L60.6778 62.2834ZM59.2001 62.5819C59.5457 62.1319 60.0915 62.0204 60.6644 62.2779L60.8284 61.9131C60.1146 61.5922 59.3592 61.718 58.8828 62.3383L59.2001 62.5819Z" fill="black"/>
<path d="M96.008 56.968C97.3572 57.3325 98.7283 57.7808 99.7309 58.7545C102.409 61.3554 103.336 66.0648 101.836 70.6934C100.684 75.1013 97.8421 78.4824 94.2082 79.5539C92.6281 80.0197 90.947 79.7355 89.3541 79.316C89.1317 79.2575 88.8631 79.1858 88.5216 79.0938C87.923 76.7625 87.1747 69.8276 87.9978 66.8578C88.4866 65.094 93.6474 57.9342 94.5041 56.5716C94.5041 56.5716 94.8806 56.6634 96.008 56.968Z" fill="#07A07D" stroke="black" stroke-width="0.4"/>
<ellipse cx="11.676" cy="8.19931" rx="11.676" ry="8.19931" transform="matrix(0.267081 -0.963674 0.96367 0.267094 80.7441 76.9629)" fill="#2DDF9F" stroke="black" stroke-width="0.4"/>
<ellipse cx="8.03173" cy="5.11193" rx="8.03173" ry="5.11193" transform="matrix(0.267081 -0.963674 0.96367 0.267094 84.6959 74.2763)" fill="white" stroke="black" stroke-width="0.4"/>
<path d="M94.5369 5.60163C103.802 10.1146 107.471 20.5142 104.511 31.5186C102.056 40.647 94.5431 47.0439 85.0863 47.8439C82.8515 48.033 80.6358 47.5947 78.4773 46.9858C76.8859 42.3877 70.2272 27.7326 71.8548 22.0894C72.8214 18.7378 87.25 6.09337 89.1009 3.5688C89.1009 3.5688 92.0492 4.38984 94.5369 5.60163Z" fill="#5D42FF" stroke="black" stroke-width="0.6"/>
<ellipse cx="22.4458" cy="19.1614" rx="22.4458" ry="19.1614" transform="matrix(0.27712 -0.960835 0.960827 0.277147 57.4365 41.1289)" fill="#8380FF" stroke="black" stroke-width="0.6"/>
<g filter="url(#filter2_i_22860_1705)">
<ellipse cx="18.5352" cy="15.5216" rx="18.5352" ry="15.5216" transform="matrix(0.27712 -0.960835 0.960827 0.277147 61.7908 38.3095)" fill="white"/>
</g>
<ellipse cx="18.5352" cy="15.5216" rx="18.5352" ry="15.5216" transform="matrix(0.27712 -0.960835 0.960827 0.277147 61.7908 38.3095)" stroke="black" stroke-width="0.6"/>
<path fill-rule="evenodd" clip-rule="evenodd" d="M85.2149 19.0357C86.0973 19.4479 87.2504 18.8449 87.7904 17.6888C88.3305 16.5328 88.053 15.2615 87.1706 14.8493C86.2883 14.4371 85.1352 15.0401 84.5951 16.1961C84.0551 17.3522 84.3326 18.6235 85.2149 19.0357ZM89.6155 28.4316C88.5167 30.7835 86.1708 32.0103 84.3757 31.1717C82.5805 30.333 82.016 27.7466 83.1147 25.3947C84.2134 23.0428 86.5594 21.816 88.3545 22.6546C90.1496 23.4933 90.7142 26.0797 89.6155 28.4316ZM80.2048 33.9285C79.6647 35.0845 78.5116 35.6875 77.6293 35.2753C76.7469 34.8631 76.4694 33.5918 77.0095 32.4357C77.5495 31.2797 78.7026 30.6767 79.585 31.0889C80.4673 31.5011 80.7448 32.7724 80.2048 33.9285ZM76.9671 15.3587C75.7401 16.764 75.5414 18.9134 76.4943 20.1059C77.1353 20.889 78.1179 21.0842 79.0718 20.6945C79.9031 20.4234 80.7311 20.5904 81.2787 21.2859C81.6458 21.7212 81.8185 22.2854 81.8304 22.9065L81.8242 22.9915C81.8332 23.2595 81.8973 23.5533 82.084 23.7284C82.4618 24.2127 83.2088 24.122 83.6776 23.5496C84.1739 22.9901 84.2525 22.1035 83.8578 21.6554C83.688 21.4442 83.4676 21.3412 83.1967 21.3465C82.6717 21.3211 82.1759 21.0895 81.8087 20.6542C81.2718 20.0077 81.1407 19.0671 81.3357 18.147L81.3419 18.0619C81.3587 18.0258 81.3756 17.9898 81.348 17.9769L81.3818 17.9047C81.661 16.8041 81.5423 15.6935 80.912 14.9594C79.976 13.7308 78.1834 13.9045 76.9671 15.3587ZM74.8088 23.7125C73.2827 23.747 71.7617 25.2787 71.4713 27.1215C71.1641 29.0003 72.1536 30.4738 73.6966 30.4032C74.664 30.4155 75.592 29.7939 76.2569 28.8735L76.2906 28.8013C76.3182 28.8142 76.335 28.7781 76.3519 28.742L76.4132 28.6827C76.9937 27.9427 77.7992 27.4397 78.6396 27.4366C79.209 27.4388 79.7048 27.6704 80.0613 28.0568C80.2311 28.268 80.4514 28.3709 80.7224 28.3656C81.3193 28.3807 81.9488 27.7515 82.0595 27.0118C82.1977 26.285 81.7878 25.6539 81.174 25.6749C80.9199 25.6441 80.6535 25.7835 80.4421 25.9485L80.3809 26.0078C79.8969 26.3973 79.3534 26.627 78.784 26.6247C77.8992 26.651 77.2397 26.1232 76.9142 25.3116C76.601 24.3299 75.8207 23.7016 74.8088 23.7125Z" fill="#8380FF"/>
<path d="M76.4943 20.1059L76.299 20.262L76.3009 20.2643L76.4943 20.1059ZM76.9671 15.3587L77.1555 15.5232L77.1589 15.5191L76.9671 15.3587ZM79.0718 20.6945L78.9942 20.4568L78.9856 20.4596L78.9772 20.4631L79.0718 20.6945ZM81.2787 21.2859L81.0822 21.4406L81.0876 21.447L81.2787 21.2859ZM81.8304 22.9065L82.0797 22.9246L82.0805 22.9132L82.0803 22.9017L81.8304 22.9065ZM81.8242 22.9915L81.5748 22.9734L81.5739 22.9867L81.5743 23L81.8242 22.9915ZM82.084 23.7284L82.2811 23.5746L82.2692 23.5594L82.255 23.5461L82.084 23.7284ZM83.6776 23.5496L83.4904 23.3836L83.4842 23.3912L83.6776 23.5496ZM83.8578 21.6554L83.6627 21.8122L83.6702 21.8206L83.8578 21.6554ZM83.1967 21.3465L83.1846 21.5962L83.1931 21.5967L83.2016 21.5965L83.1967 21.3465ZM81.8087 20.6542L81.6164 20.8139L81.6176 20.8153L81.8087 20.6542ZM81.3357 18.147L81.5803 18.1988L81.5838 18.1821L81.585 18.1651L81.3357 18.147ZM81.3419 18.0619L81.1154 17.9561L81.0959 17.9979L81.0925 18.0438L81.3419 18.0619ZM81.348 17.9769L81.1215 17.8711L81.0157 18.0976L81.2422 18.2034L81.348 17.9769ZM81.3818 17.9047L81.6083 18.0105L81.6183 17.9891L81.6241 17.9662L81.3818 17.9047ZM80.912 14.9594L80.7132 15.1109L80.7176 15.1167L80.7224 15.1223L80.912 14.9594ZM71.4713 27.1215L71.7181 27.1618L71.7183 27.1604L71.4713 27.1215ZM74.8088 23.7125L74.8061 23.4625L74.8032 23.4626L74.8088 23.7125ZM73.6966 30.4032L73.6998 30.1533L73.6925 30.1532L73.6852 30.1535L73.6966 30.4032ZM76.2569 28.8735L76.4596 29.0199L76.4734 29.0007L76.4834 28.9793L76.2569 28.8735ZM76.2906 28.8013L76.3964 28.5748L76.1699 28.469L76.0641 28.6955L76.2906 28.8013ZM76.3519 28.742L76.178 28.5624L76.1449 28.5944L76.1254 28.6362L76.3519 28.742ZM76.4132 28.6827L76.587 28.8623L76.5993 28.8504L76.6098 28.837L76.4132 28.6827ZM78.6396 27.4366L78.6406 27.1866L78.6387 27.1866L78.6396 27.4366ZM80.0613 28.0568L80.2561 27.9002L80.2508 27.8935L80.245 27.8873L80.0613 28.0568ZM80.7224 28.3656L80.7287 28.1155L80.7175 28.1157L80.7224 28.3656ZM82.0595 27.0118L81.8137 26.9651L81.8123 26.9749L82.0595 27.0118ZM81.174 25.6749L81.1439 25.9231L81.1632 25.9254L81.1825 25.9248L81.174 25.6749ZM80.4421 25.9485L80.2883 25.7515L80.2778 25.7597L80.2683 25.7689L80.4421 25.9485ZM80.3809 26.0078L80.5376 26.2026L80.5465 26.1954L80.5548 26.1875L80.3809 26.0078ZM78.784 26.6247L78.7849 26.3746L78.7765 26.3748L78.784 26.6247ZM76.9142 25.3116L76.676 25.3876L76.6788 25.3962L76.6822 25.4047L76.9142 25.3116ZM87.5639 17.583C87.315 18.1158 86.9285 18.5127 86.5152 18.7288C86.1021 18.9448 85.6764 18.9753 85.3208 18.8092L85.1091 19.2622C85.6359 19.5082 86.2278 19.4433 86.7469 19.1719C87.2657 18.9006 87.7258 18.4179 88.0169 17.7947L87.5639 17.583ZM87.0648 15.0758C87.4204 15.2419 87.6703 15.588 87.7697 16.0435C87.8692 16.4992 87.8128 17.0502 87.5639 17.583L88.0169 17.7947C88.3081 17.1714 88.383 16.5089 88.2582 15.9368C88.1333 15.3646 87.8032 14.8689 87.2765 14.6228L87.0648 15.0758ZM84.8216 16.3019C85.0706 15.7691 85.4571 15.3723 85.8704 15.1562C86.2835 14.9402 86.7092 14.9097 87.0648 15.0758L87.2765 14.6228C86.7497 14.3767 86.1578 14.4417 85.6387 14.7131C85.1198 14.9844 84.6598 15.4671 84.3686 16.0903L84.8216 16.3019ZM85.3208 18.8092C84.9652 18.643 84.7153 18.2969 84.6159 17.8415C84.5164 17.3858 84.5727 16.8347 84.8216 16.3019L84.3686 16.0903C84.0775 16.7135 84.0025 17.3761 84.1274 17.9481C84.2523 18.5204 84.5824 19.0161 85.1091 19.2622L85.3208 18.8092ZM84.2698 31.3982C85.253 31.8574 86.3713 31.7432 87.3726 31.2196C88.3735 30.6962 89.2715 29.7586 89.842 28.5374L89.389 28.3258C88.8607 29.4565 88.0363 30.3083 87.1409 30.7765C86.2456 31.2447 85.2935 31.3245 84.4815 30.9452L84.2698 31.3982ZM82.8882 25.2889C82.3177 26.51 82.1748 27.8004 82.4157 28.904C82.6567 30.0078 83.2867 30.9389 84.2698 31.3982L84.4815 30.9452C83.6695 30.5658 83.1197 29.7843 82.9042 28.7973C82.6887 27.8101 82.813 26.6313 83.3412 25.5005L82.8882 25.2889ZM88.4603 22.4281C87.4772 21.9688 86.3588 22.0831 85.3576 22.6067C84.3566 23.1301 83.4587 24.0677 82.8882 25.2889L83.3412 25.5005C83.8694 24.3698 84.6938 23.518 85.5893 23.0498C86.4845 22.5816 87.4367 22.5018 88.2487 22.8811L88.4603 22.4281ZM89.842 28.5374C90.4124 27.3163 90.5553 26.0259 90.3144 24.9223C90.0735 23.8185 89.4434 22.8874 88.4603 22.4281L88.2487 22.8811C89.0607 23.2605 89.6105 24.042 89.8259 25.0289C90.0414 26.0162 89.9172 27.195 89.389 28.3258L89.842 28.5374ZM77.5234 35.5018C78.0502 35.7478 78.6421 35.6829 79.1612 35.4115C79.68 35.1402 80.1401 34.6575 80.4313 34.0343L79.9782 33.8226C79.7293 34.3554 79.3428 34.7523 78.9295 34.9684C78.5164 35.1844 78.0907 35.2149 77.7351 35.0488L77.5234 35.5018ZM76.783 32.3299C76.4918 32.9531 76.4169 33.6157 76.5417 34.1877C76.6666 34.76 76.9967 35.2557 77.5234 35.5018L77.7351 35.0488C77.3795 34.8826 77.1296 34.5365 77.0302 34.0811C76.9307 33.6254 76.9871 33.0743 77.236 32.5415L76.783 32.3299ZM79.6908 30.8624C79.164 30.6163 78.5721 30.6813 78.053 30.9527C77.5342 31.224 77.0741 31.7067 76.783 32.3299L77.236 32.5415C77.4849 32.0087 77.8714 31.6119 78.2847 31.3958C78.6978 31.1798 79.1235 31.1493 79.4791 31.3154L79.6908 30.8624ZM80.4313 34.0343C80.7224 33.411 80.7974 32.7485 80.6725 32.1764C80.5476 31.6042 80.2175 31.1085 79.6908 30.8624L79.4791 31.3154C79.8347 31.4816 80.0846 31.8276 80.184 32.2831C80.2835 32.7388 80.2272 33.2898 79.9782 33.8226L80.4313 34.0343ZM76.6897 19.9499C76.2638 19.417 76.0827 18.6516 76.1621 17.8363C76.2412 17.0233 76.5781 16.1844 77.1554 15.5232L76.7788 15.1943C76.1292 15.9383 75.7531 16.8767 75.6644 17.7879C75.5759 18.6968 75.7719 19.6023 76.299 20.262L76.6897 19.9499ZM78.9772 20.4631C78.1125 20.8164 77.251 20.6357 76.6878 19.9476L76.3009 20.2643C77.0195 21.1423 78.1233 21.3521 79.1663 20.9259L78.9772 20.4631ZM81.4751 21.1312C80.8507 20.3381 79.9055 20.1597 78.9942 20.4568L79.1493 20.9322C79.9007 20.6871 80.6116 20.8427 81.0823 21.4405L81.4751 21.1312ZM82.0803 22.9017C82.0676 22.2382 81.8825 21.614 81.4698 21.1247L81.0876 21.447C81.4092 21.8283 81.5693 22.3327 81.5804 22.9113L82.0803 22.9017ZM82.0735 23.0096L82.0797 22.9246L81.581 22.8884L81.5748 22.9734L82.0735 23.0096ZM82.255 23.5461C82.1437 23.4416 82.0825 23.2349 82.074 22.9831L81.5743 23C81.5839 23.2842 81.6509 23.6649 81.9129 23.9107L82.255 23.5461ZM83.4842 23.3912C83.2859 23.6333 83.0387 23.7615 82.8181 23.7869C82.6018 23.8118 82.4103 23.7402 82.2811 23.5746L81.8869 23.8822C82.1355 24.2008 82.5064 24.3261 82.8753 24.2836C83.2399 24.2416 83.6005 24.0383 83.871 23.708L83.4842 23.3912ZM83.6702 21.8206C83.8087 21.9779 83.881 22.2355 83.8529 22.5376C83.8251 22.8361 83.7009 23.1466 83.4905 23.3837L83.8646 23.7155C84.1506 23.3931 84.3138 22.9805 84.3507 22.5839C84.3873 22.1907 84.3016 21.781 84.0454 21.4901L83.6702 21.8206ZM83.2016 21.5965C83.3951 21.5927 83.5417 21.6612 83.6629 21.812L84.0526 21.4987C83.8343 21.2272 83.5402 21.0897 83.1918 21.0966L83.2016 21.5965ZM81.6176 20.8153C82.0303 21.3046 82.5914 21.5675 83.1846 21.5962L83.2088 21.0968C82.752 21.0747 82.3214 20.8743 81.9998 20.493L81.6176 20.8153ZM81.0911 18.0952C80.886 19.0635 81.0156 20.0904 81.6164 20.8139L82.0011 20.4944C81.5281 19.9249 81.3955 19.0708 81.5803 18.1988L81.0911 18.0952ZM81.0925 18.0438L81.0863 18.1289L81.585 18.1651L81.5912 18.08L81.0925 18.0438ZM81.2422 18.2034C81.1936 18.1807 81.1475 18.1365 81.1253 18.0737C81.1067 18.021 81.1133 17.9782 81.116 17.964C81.1191 17.948 81.1232 17.9387 81.1222 17.9411C81.1215 17.9428 81.1202 17.9459 81.1154 17.9561L81.5684 18.1678C81.572 18.1599 81.5972 18.1101 81.6072 18.0574C81.6128 18.028 81.6194 17.9715 81.5968 17.9074C81.5706 17.833 81.5162 17.7795 81.4539 17.7504L81.2422 18.2034ZM81.1553 17.7989L81.1215 17.8711L81.5745 18.0827L81.6083 18.0105L81.1553 17.7989ZM80.7224 15.1223C81.2802 15.7721 81.4073 16.7875 81.1394 17.8432L81.6241 17.9662C81.9147 16.8208 81.8043 15.6149 81.1017 14.7966L80.7224 15.1223ZM77.1589 15.5191C77.7325 14.8333 78.4281 14.4658 79.0695 14.4018C79.7051 14.3383 80.3007 14.5695 80.7132 15.1109L81.1109 14.8079C80.5873 14.1207 79.8185 13.8245 79.0198 13.9042C78.2268 13.9834 77.4179 14.43 76.7753 15.1983L77.1589 15.5191ZM71.7183 27.1604C71.8549 26.2933 72.2822 25.4966 72.8549 24.9142C73.4293 24.3301 74.1325 23.9779 74.8145 23.9625L74.8032 23.4626C73.959 23.4817 73.1387 23.9125 72.4984 24.5636C71.8566 25.2163 71.3781 26.1069 71.2244 27.0825L71.7183 27.1604ZM73.6852 30.1535C73.0051 30.1846 72.4528 29.8793 72.0972 29.3534C71.7378 28.8216 71.5726 28.051 71.7181 27.1618L71.2246 27.0811C71.0628 28.0707 71.2388 28.9763 71.683 29.6334C72.1311 30.2962 72.8452 30.6924 73.708 30.653L73.6852 30.1535ZM76.0543 28.7271C75.4165 29.61 74.5561 30.1641 73.6998 30.1533L73.6934 30.6532C74.772 30.6669 75.7676 29.9778 76.4596 29.0199L76.0543 28.7271ZM76.0641 28.6955L76.0304 28.7677L76.4834 28.9793L76.5171 28.9071L76.0641 28.6955ZM76.1254 28.6362C76.1206 28.6464 76.1191 28.6495 76.1183 28.6511C76.1171 28.6534 76.1215 28.6442 76.1319 28.6316C76.141 28.6204 76.1696 28.5879 76.2219 28.5684C76.2844 28.545 76.3479 28.5521 76.3964 28.5748L76.1848 29.0278C76.2472 29.0569 76.3231 29.0643 76.397 29.0367C76.4607 29.0129 76.4997 28.9715 76.5187 28.9484C76.5527 28.9069 76.5747 28.8557 76.5784 28.8478L76.1254 28.6362ZM76.2393 28.5031L76.178 28.5624L76.5258 28.9216L76.587 28.8623L76.2393 28.5031ZM78.6387 27.1866C77.6982 27.1901 76.8275 27.7496 76.2165 28.5284L76.6098 28.837C77.16 28.1358 77.9002 27.6893 78.6405 27.6866L78.6387 27.1866ZM80.245 27.8873C79.8423 27.4508 79.2806 27.1891 78.6406 27.1866L78.6386 27.6866C79.1374 27.6885 79.5674 27.8901 79.8775 28.2263L80.245 27.8873ZM80.7175 28.1157C80.524 28.1195 80.3774 28.051 80.2561 27.9002L79.8664 28.2134C80.0847 28.485 80.3789 28.6224 80.7273 28.6156L80.7175 28.1157ZM81.8123 26.9749C81.7654 27.2883 81.607 27.5828 81.3958 27.7957C81.1822 28.0111 80.9382 28.121 80.7287 28.1157L80.716 28.6155C81.1035 28.6253 81.4728 28.4282 81.7508 28.1478C82.0313 27.865 82.243 27.475 82.3067 27.0488L81.8123 26.9749ZM81.1825 25.9248C81.3925 25.9176 81.5702 26.0185 81.6899 26.2004C81.812 26.3859 81.8723 26.6578 81.8139 26.9651L82.3051 27.0585C82.3849 26.6391 82.3094 26.2321 82.1076 25.9255C81.9035 25.6154 81.5694 25.4112 81.1655 25.4251L81.1825 25.9248ZM80.596 26.1456C80.7946 25.9905 80.9924 25.9047 81.1439 25.9231L81.2041 25.4267C80.8474 25.3835 80.5124 25.5764 80.2883 25.7515L80.596 26.1456ZM80.5548 26.1875L80.616 26.1281L80.2683 25.7689L80.207 25.8282L80.5548 26.1875ZM78.783 26.8747C79.423 26.8772 80.0206 26.6187 80.5376 26.2026L80.2241 25.8131C79.7733 26.1759 79.2837 26.3767 78.7849 26.3747L78.783 26.8747ZM76.6822 25.4047C77.039 26.2942 77.7824 26.9046 78.7914 26.8746L78.7765 26.3748C78.0159 26.3975 77.4405 25.9521 77.1462 25.2185L76.6822 25.4047ZM74.8115 23.9625C75.7007 23.9529 76.3921 24.4977 76.676 25.3876L77.1523 25.2356C76.8098 24.1622 75.9406 23.4503 74.8061 23.4626L74.8115 23.9625Z" fill="black"/>
</g>
<defs>
<filter id="filter0_d_22860_1705" x="19.15" y="58.7234" width="121.7" height="102.405" filterUnits="userSpaceOnUse" color-interpolation-filters="sRGB">
<feFlood flood-opacity="0" result="BackgroundImageFix"/>
<feColorMatrix in="SourceAlpha" type="matrix" values="0 0 0 0 0 0 0 0 0 0 0 0 0 0 0 0 0 0 127 0" result="hardAlpha"/>
<feOffset dx="-1" dy="8"/>
<feComposite in2="hardAlpha" operator="out"/>
<feColorMatrix type="matrix" values="0 0 0 0 0.137255 0 0 0 0 0.0941176 0 0 0 0 0.388235 0 0 0 0.15 0"/>
<feBlend mode="normal" in2="BackgroundImageFix" result="effect1_dropShadow_22860_1705"/>
<feBlend mode="normal" in="SourceGraphic" in2="effect1_dropShadow_22860_1705" result="shape"/>
</filter>
<filter id="filter1_i_22860_1705" x="51.8558" y="46.5058" width="19.9655" height="26.5626" filterUnits="userSpaceOnUse" color-interpolation-filters="sRGB">
<feFlood flood-opacity="0" result="BackgroundImageFix"/>
<feBlend mode="normal" in="SourceGraphic" in2="BackgroundImageFix" result="shape"/>
<feColorMatrix in="SourceAlpha" type="matrix" values="0 0 0 0 0 0 0 0 0 0 0 0 0 0 0 0 0 0 127 0" result="hardAlpha"/>
<feOffset dx="-1" dy="1"/>
<feComposite in2="hardAlpha" operator="arithmetic" k2="-1" k3="1"/>
<feColorMatrix type="matrix" values="0 0 0 0 0 0 0 0 0 0 0 0 0 0 0 0 0 0 1 0"/>
<feBlend mode="normal" in2="shape" result="effect1_innerShadow_22860_1705"/>
</filter>
<filter id="filter2_i_22860_1705" x="65.7645" y="6.17499" width="32.1527" height="37.254" filterUnits="userSpaceOnUse" color-interpolation-filters="sRGB">
<feFlood flood-opacity="0" result="BackgroundImageFix"/>
<feBlend mode="normal" in="SourceGraphic" in2="BackgroundImageFix" result="shape"/>
<feColorMatrix in="SourceAlpha" type="matrix" values="0 0 0 0 0 0 0 0 0 0 0 0 0 0 0 0 0 0 127 0" result="hardAlpha"/>
<feOffset dx="-2" dy="1"/>
<feComposite in2="hardAlpha" operator="arithmetic" k2="-1" k3="1"/>
<feColorMatrix type="matrix" values="0 0 0 0 0 0 0 0 0 0 0 0 0 0 0 0 0 0 1 0"/>
<feBlend mode="normal" in2="shape" result="effect1_innerShadow_22860_1705"/>
</filter>
<clipPath id="clip0_22860_1705">
<rect width="160" height="160" fill="white" transform="translate(0.5)"/>
</clipPath>
</defs>
</svg>
