<svg width="40" height="40" viewBox="0 0 40 40" fill="none" xmlns="http://www.w3.org/2000/svg">
<rect x="0.5" y="0.5" width="39" height="39" rx="19.5" fill="white"/>
<rect x="0.5" y="0.5" width="39" height="39" rx="19.5" stroke="#EBEBEC"/>
<path d="M18.7718 27.2085L22.3592 16.3089L24.087 16.8712L22.8524 12.7914H33.5303C35.4678 12.7914 36.4759 14.5224 35.7795 16.6511L35.1031 18.7107C35.0943 18.7372 35.0846 18.7629 35.0742 18.791L35.0453 18.8665C34.8588 19.3733 34.601 19.851 34.2798 20.2851C33.2636 21.6667 31.7165 22.5632 30.3389 22.5712H30.2369H24.9779L23.4565 27.2061L18.7718 27.2085ZM25.7691 20.1646H28.6135C29.3252 20.1646 30.1124 19.5284 30.3678 18.7468L31.0667 16.6206C31.3237 15.8382 30.9534 15.2028 30.2433 15.2028H27.3981L25.7691 20.1646ZM6.45845 27.2077C6.3369 27.2035 6.21568 27.1925 6.09537 27.1748C5.89389 27.1506 5.69614 27.1018 5.50657 27.0294C5.12984 26.8872 4.79568 26.6952 4.54265 26.3731C4.38987 26.1771 4.26872 25.9583 4.18358 25.7249C4.1396 25.6062 4.1039 25.4846 4.07675 25.361C3.93939 24.7368 3.99642 24.1103 4.16832 23.4998C4.18278 23.4468 4.25347 23.2178 4.25347 23.2178L7.68023 12.7938H12.4035L8.9253 23.3817C8.73572 23.9609 8.88272 24.4758 9.29801 24.6935C9.43155 24.7665 9.58205 24.8028 9.73419 24.7987H12.0693L16.0118 12.7938H21.3535L17.4392 16.8736L19.5526 16.3113L15.9636 27.2085L6.45845 27.2077Z" fill="#0361DF"/>
</svg>
