<svg width="40" height="40" viewBox="0 0 40 40" fill="none" xmlns="http://www.w3.org/2000/svg">
<rect x="0.5" y="0.5" width="39" height="39" rx="19.5" fill="white"/>
<rect x="0.5" y="0.5" width="39" height="39" rx="19.5" stroke="#EBEBEC"/>
<path d="M23.1445 14.612C23.1445 10.5947 21.1872 7.13487 19.6966 6.01191C19.6966 6.01191 19.5819 5.94865 19.5938 6.11076C19.4712 13.8726 15.5052 15.9762 13.3265 18.8073C8.29694 25.3473 12.9707 32.516 17.7393 33.8406C20.3964 34.584 17.1224 32.5279 16.6994 28.1903C16.1814 22.9551 23.1445 18.9536 23.1445 14.612Z" fill="#1B2143"/>
<path d="M25.4298 17.2576C25.3982 17.2378 25.3547 17.222 25.327 17.2734C25.244 18.25 24.2475 20.3378 22.9822 22.2594C18.6921 28.7678 21.1357 31.9074 22.5117 33.5958C23.3104 34.5724 22.5117 33.5958 24.5046 32.5954C26.968 31.1007 28.5654 28.5148 28.8027 25.6441C29.1941 21.0179 26.4183 18.1037 25.4298 17.2576Z" fill="#2CA6E0"/>
</svg>
