<?xml version="1.0" encoding="UTF-8"?>
<svg width="16px" height="16px" viewBox="0 0 16 16" version="1.1" xmlns="http://www.w3.org/2000/svg" xmlns:xlink="http://www.w3.org/1999/xlink">
    <title>Expand</title>
    <g id="Icon" stroke="none" stroke-width="1" fill="none" fill-rule="evenodd">
        <g id="Common" transform="translate(-111.000000, -62.000000)">
            <g id="Expand" transform="translate(111.000000, 62.000000)">
                <rect id="Rectangle" x="0" y="0" width="16" height="16"></rect>
                <path d="M14.3962,9.246 C14.7592,9.246 15.0542,9.541 15.0542,9.904 L15.0542,9.904 L15.0542,15 L9.9572,15 C9.5942,15 9.3002,14.705 9.3002,14.342 C9.3002,13.979 9.5942,13.685 9.9572,13.685 L9.9572,13.685 L12.8082,13.685 L9.4922,10.369 C9.2352,10.112 9.2352,9.696 9.4922,9.439 C9.6212,9.31 9.7892,9.246 9.9572,9.246 C10.1262,9.246 10.2942,9.31 10.4222,9.439 L10.4222,9.439 L13.7382,12.755 L13.7382,9.904 C13.7382,9.541 14.0332,9.246 14.3962,9.246 Z M6.096,0.9997 C6.459,0.9997 6.754,1.2947 6.754,1.6577 C6.754,2.0207 6.459,2.3157 6.096,2.3157 L6.096,2.3157 L3.245,2.3157 L6.561,5.6317 C6.818,5.8877 6.818,6.3047 6.561,6.5617 C6.433,6.6897 6.265,6.7537 6.096,6.7537 C5.928,6.7537 5.76,6.6897 5.631,6.5617 L5.631,6.5617 L2.315,3.2457 L2.315,6.0967 C2.315,6.4597 2.021,6.7537 1.658,6.7537 C1.295,6.7537 1,6.4597 1,6.0967 L1,6.0967 L1,1.5997 C1,1.26832915 1.26862915,0.9997 1.6,0.9997 L1.6,0.9997 L6.096,0.9997 Z" id="Shape" fill="#55585e" fill-rule="nonzero"></path>
            </g>
        </g>
    </g>
</svg>
