<svg width="16" height="16" viewBox="0 0 16 16" fill="none" xmlns="http://www.w3.org/2000/svg">
<path fill-rule="evenodd" clip-rule="evenodd" d="M1.6 0.999512H6.096C6.459 0.999512 6.754 1.29451 6.754 1.65751C6.754 2.02051 6.459 2.31551 6.096 2.31551H3.245L6.561 5.63151C6.818 5.88751 6.818 6.30451 6.561 6.56151C6.433 6.68951 6.265 6.75351 6.096 6.75351C5.928 6.75351 5.76 6.68951 5.631 6.56151L2.315 3.24551V6.09651C2.315 6.45951 2.021 6.75351 1.658 6.75351C1.295 6.75351 1 6.45951 1 6.09651V1.59951C1 1.26814 1.26863 0.999512 1.6 0.999512ZM13.7382 9.90381C13.7382 9.54081 14.0332 9.24581 14.3962 9.24581C14.7592 9.24581 15.0542 9.54081 15.0542 9.90381V14.9998H9.9572C9.5942 14.9998 9.3002 14.7048 9.3002 14.3418C9.3002 13.9788 9.5942 13.6848 9.9572 13.6848H12.8082L9.4922 10.3688C9.2352 10.1118 9.2352 9.69581 9.4922 9.43881C9.6212 9.30981 9.7892 9.24581 9.9572 9.24581C10.1262 9.24581 10.2942 9.30981 10.4222 9.43881L13.7382 12.7548V9.90381Z" fill="#5d42ff"/>
</svg>
