
<svg width="16px" height="16px" viewBox="0 0 16 16" version="1.1" xmlns="http://www.w3.org/2000/svg" xmlns:xlink="http://www.w3.org/1999/xlink">
    
    <g id="loylluejeb" stroke="none" stroke-width="1" fill="none" fill-rule="evenodd">
        <g id="csywrrenre" transform="translate(-963.000000, -92.000000)">
            <g id="sjzohllpmt" transform="translate(860.000000, 20.000000)">
                <g id="vxjlwuhfdb" transform="translate(68.000000, 50.000000)">
                    <g id="qrberlpute" transform="translate(35.000000, 22.000000)">
                        <rect id="fjsobnjvrq" x="0" y="0" width="16" height="16"></rect>
                        <path d="M13.9523963,7.19047477 L13.0238281,7.19047477 L13.0238281,4.71428786 C13.0238281,4.03023745 12.4697775,3.47618691 11.7857271,3.47618691 L9.30952523,3.47618691 L9.30952523,2.5476187 C9.30952523,1.69332754 8.6161977,1 7.76190654,1 C6.90761538,1 6.21428784,1.69332754 6.21428784,2.5476187 L6.21428784,3.47618691 L3.73810093,3.47618691 C3.05405053,3.47618691 2.50618973,4.03023747 2.50618973,4.71428786 L2.50308737,7.06666467 L3.4285682,7.06666467 C4.35094667,7.06666467 5.09999698,7.81571498 5.09999698,8.73809345 C5.09999698,9.66047191 4.35094667,10.4095222 3.4285682,10.4095222 L2.50310237,10.4095222 L2.5,12.7618991 C2.5,13.4459495 3.05405056,14 3.73810095,14 L6.09047775,14 L6.09047775,13.0714318 C6.09047775,12.1490533 6.83952807,11.400003 7.76190654,11.400003 C8.684285,11.400003 9.43333532,12.1490533 9.43333532,13.0714318 L9.43333532,14 L11.7857121,14 C12.4697625,14 13.0238131,13.4459494 13.0238131,12.7618991 L13.0238131,10.2857271 L13.9523813,10.2857271 C14.8066724,10.2857271 15.5,9.5923996 15.5,8.73810845 C15.5,7.88381729 14.8066724,7.19047477 13.9523963,7.19047477 Z" id="cscyftowic" fill="#101114"></path>
                    </g>
                </g>
            </g>
        </g>
    </g>
</svg>
