<svg width="16" height="16" viewBox="0 0 16 16" fill="none" xmlns="http://www.w3.org/2000/svg">
    <g id="interactive-eye">
        <g id="Union">
            <path
                d="M4.36353 6.01123C6.30183 3.84033 9.69813 3.84033 11.6364 6.01123L13.4121 7.99999L11.6364 9.98875C9.69813 12.1597 6.30183 12.1597 4.36353 9.98875L2.58785 7.99999L4.36353 6.01123ZM12.5688 5.17871C10.1335 2.45117 5.86641 2.45117 3.43111 5.17871L1.20944 7.66698C1.04006 7.85668 1.04006 8.1433 1.20944 8.333L3.43111 10.8213C5.86641 13.5488 10.1335 13.5488 12.5689 10.8213L14.7905 8.333C14.9599 8.1433 14.9599 7.85668 14.7905 7.66698L12.5688 5.17871ZM6.875 8C6.875 7.37868 7.37868 6.875 8 6.875C8.62132 6.875 9.125 7.37868 9.125 8C9.125 8.62132 8.62132 9.125 8 9.125C7.37868 9.125 6.875 8.62132 6.875 8ZM8 5.625C6.68832 5.625 5.625 6.68832 5.625 8C5.625 9.31168 6.68832 10.375 8 10.375C9.31168 10.375 10.375 9.31168 10.375 8C10.375 6.68832 9.31168 5.625 8 5.625Z"
                fill="#55585E" />
        </g>
    </g>
</svg>
    