<svg width="36" height="36" viewBox="0 0 36 36" fill="none" xmlns="http://www.w3.org/2000/svg">
<g id="&#231;&#188;&#150;&#231;&#187;&#132;">
<circle id="&#230;&#164;&#173;&#229;&#156;&#134;&#229;&#189;&#162;" cx="18" cy="18" r="18" fill="#5B8EF4"/>
<g id="Icon / Basic">
<g id="&#240;&#159;&#166;&#134; icon &#34;gift&#34;">
<path id="Vector" d="M22.9704 17.9634V23.9428C22.9704 24.0717 22.8659 24.1762 22.7371 24.1762H13.2634C13.1345 24.1762 13.03 24.0717 13.03 23.9428V17.9634" stroke="white" stroke-width="1.4" stroke-linecap="round" stroke-linejoin="round"/>
<path id="Vector_2" d="M23.9795 14.4529H12.0207C11.8918 14.4529 11.7874 14.5573 11.7874 14.6862V17.2531C11.7874 17.382 11.8918 17.4864 12.0207 17.4864H23.9795C24.1083 17.4864 24.2128 17.382 24.2128 17.2531V14.6862C24.2128 14.5573 24.1083 14.4529 23.9795 14.4529Z" stroke="white" stroke-width="1.4" stroke-linecap="round" stroke-linejoin="round"/>
<path id="Vector_3" d="M21.6341 11.7633L18.4234 13.6171C18.2535 13.7152 18.2732 13.9665 18.4564 14.0369L19.4105 14.4037C19.4388 14.4146 19.469 14.4198 19.4994 14.4192L21.1944 14.3814L21.5407 14.137L22.6181 13.4457C22.723 13.3784 22.7564 13.2406 22.6941 13.1327L21.9529 11.8488C21.8884 11.7372 21.7457 11.6989 21.6341 11.7633Z" stroke="white" stroke-width="1.4" stroke-linecap="round" stroke-linejoin="round"/>
<path id="Vector_4" d="M14.3659 11.7633L17.5766 13.6171C17.7465 13.7152 17.7268 13.9665 17.5436 14.0369L16.5895 14.4037C16.5612 14.4146 16.531 14.4198 16.5006 14.4192L14.8056 14.3814L14.4593 14.137L13.3819 13.4457C13.277 13.3784 13.2436 13.2406 13.3059 13.1327L14.0471 11.8488C14.1116 11.7372 14.2543 11.6989 14.3659 11.7633Z" stroke="white" stroke-width="1.4" stroke-linecap="round" stroke-linejoin="round"/>
</g>
</g>
</g>
</svg>
