<svg width="21" height="20" viewBox="0 0 21 20" fill="none" xmlns="http://www.w3.org/2000/svg">
<path fill-rule="evenodd" clip-rule="evenodd" d="M15.7425 11.7263C15.7425 14.6216 13.3954 16.9687 10.5 16.9687C7.60468 16.9687 5.25754 14.6216 5.25754 11.7263C5.25754 9.38334 6.63849 7.15628 8.25129 5.39029C9.03576 4.53132 9.82482 3.83676 10.4186 3.35708C10.4472 3.33402 10.4752 3.31149 10.5028 3.28949C10.5295 3.31076 10.5568 3.33254 10.5845 3.3548C11.1777 3.8316 11.9661 4.52266 12.75 5.37899C14.3602 7.13821 15.7425 9.36548 15.7425 11.7263ZM17.305 11.7263C17.305 15.4845 14.2583 18.5312 10.5 18.5312C6.74174 18.5312 3.69504 15.4845 3.69504 11.7263C3.69504 6.6504 8.79653 2.58081 10.1654 1.58017C10.3679 1.43218 10.6325 1.43172 10.8354 1.57911C12.2053 2.57439 17.305 6.62219 17.305 11.7263ZM10.2102 14.5963C10.2462 14.4631 10.1667 14.3266 10.0361 14.2816C8.647 13.8033 7.92394 12.608 7.91502 11.4196C7.91399 11.2815 7.81211 11.1612 7.67445 11.1505L6.61512 11.0686C6.47746 11.058 6.35651 11.161 6.35354 11.299C6.31284 13.1964 7.47269 15.0999 9.62759 15.7924C9.75905 15.8346 9.8967 15.7553 9.93275 15.622L10.2102 14.5963Z" fill="#25272A"/>
</svg>
