
<svg width="16px" height="16px" viewBox="0 0 16 16" version="1.1" xmlns="http://www.w3.org/2000/svg" xmlns:xlink="http://www.w3.org/1999/xlink">
    
    <g id="kotdkyhplj" stroke="none" stroke-width="1" fill="none" fill-rule="evenodd">
        <g id="nzzzzsucjz" transform="translate(-1043.000000, -92.000000)">
            <g id="yzijmskbji" transform="translate(860.000000, 20.000000)">
                <g id="zjgsnncilm" transform="translate(68.000000, 50.000000)">
                    <g id="mhlxjjhbsy" transform="translate(35.000000, 22.000000)">
                        <g id="eqdnpbojkh" transform="translate(80.000000, 0.000000)">
                            <rect id="cjhisnblht" x="0" y="0" width="16" height="16"></rect>
                            <path d="M8.51522245,10.6511788 L8.51522245,15 L7.13558644,15 L7.13558644,10.6511788 L3.53569674,10.6511788 C3.39092906,10.6511788 3.2635335,10.595202 3.15930077,10.4813181 C3.05516994,10.3730594 2.99794693,10.2280944 3,10.0778988 C3,9.34247897 3.2176904,8.67992555 3.65730159,8.08975596 C4.09643023,7.50199917 4.59105314,7.2066731 5.14358313,7.2066731 L5.14358313,3.29987591 C4.85260009,3.29987591 4.60311712,3.185992 4.38886095,2.95822418 C4.18095819,2.74089097 4.06660465,2.45067553 4.07037205,2.14993796 C4.07037205,1.83820488 4.17653501,1.57086723 4.38886095,1.34165173 C4.5997392,1.11581415 4.85211753,1 5.14358313,1 L10.5057781,1 C10.7967611,1 11.0462441,1.11388391 11.2605003,1.34165173 C11.4713785,1.56941955 11.5794717,1.83820488 11.5794717,2.14993796 C11.5794717,2.46167103 11.4733088,2.72900869 11.2609828,2.95822418 C11.0481743,3.18792224 10.7967611,3.29987591 10.5057781,3.29987591 L10.5057781,7.20474287 C11.0583081,7.20474287 11.5548612,7.50006894 11.9920596,8.08782573 C12.4256701,8.66011019 12.6574705,9.3599234 12.6512351,10.0778988 C12.6512351,10.2328002 12.5991188,10.3693644 12.4924732,10.4813181 C12.3863103,10.5932717 12.260845,10.6511788 12.1160773,10.6511788 L8.51570501,10.6511788 L8.51522245,10.6511788 Z" id="idjcnjmwwi" fill="#101114"></path>
                        </g>
                    </g>
                </g>
            </g>
        </g>
    </g>
</svg>
