<svg width="64" height="64" viewBox="0 0 64 64" fill="none" xmlns="http://www.w3.org/2000/svg">
<rect width="64" height="64" rx="32" fill="#1B76E2"/>
<path d="M42.9406 46.3512H34.7951V49.1401C34.7951 50.6758 33.5542 51.929 32.0062 51.929C30.4582 51.929 29.2173 50.6881 29.2173 49.1401V46.3512H21.0718C18.9341 46.3512 17.595 44.0415 18.6638 42.1864L24.6839 31.768H23.8484C21.6984 31.768 20.3593 29.446 21.4281 27.5908L29.5859 13.4622C30.6548 11.607 33.3453 11.607 34.4142 13.4622L42.572 27.5908C43.6408 29.446 42.3017 31.768 40.1517 31.768H39.3162L45.3363 42.1864C46.4051 44.0415 45.066 46.3512 42.9283 46.3512H42.9406Z" fill="white"/>
</svg>
