<svg width="41" height="40" viewBox="0 0 41 40" fill="none" xmlns="http://www.w3.org/2000/svg">
<path d="M39.5 20C39.5 30.4934 30.9934 39 20.5 39C10.0066 39 1.5 30.4934 1.5 20C1.5 9.50659 10.0066 1 20.5 1C30.9934 1 39.5 9.50659 39.5 20Z" fill="#F53F3F" stroke="white" stroke-width="2"/>
<path fill-rule="evenodd" clip-rule="evenodd" d="M13.6447 15.3278C13.4518 15.1349 13.4518 14.8221 13.6447 14.6292L15.1293 13.1446C15.3222 12.9517 15.635 12.9517 15.8279 13.1446L20.5001 17.8168L25.1721 13.1448C25.365 12.9519 25.6778 12.9519 25.8707 13.1448L27.3553 14.6294C27.5482 14.8223 27.5482 15.1351 27.3553 15.328L22.6833 20L27.3552 24.672C27.5482 24.8649 27.5482 25.1777 27.3552 25.3706L25.8707 26.8552C25.6777 27.0481 25.365 27.0481 25.172 26.8552L20.5001 22.1832L15.828 26.8554C15.635 27.0483 15.3223 27.0483 15.1293 26.8554L13.6448 25.3708C13.4518 25.1779 13.4518 24.8651 13.6448 24.6722L18.3169 20L13.6447 15.3278Z" fill="white"/>
</svg>
