<svg width="49" height="48" viewBox="0 0 49 48" fill="none" xmlns="http://www.w3.org/2000/svg">
<path d="M26.5999 42.15C26.5999 42.4814 26.3312 42.75 25.9999 42.75H22.9999C22.6685 42.75 22.3999 42.4814 22.3999 42.15V26.1H6.35C6.01863 26.1 5.75 25.8314 5.75 25.5V22.5C5.75 22.1687 6.01863 21.9 6.35 21.9H22.3999V5.85C22.3999 5.51863 22.6685 5.25 22.9999 5.25H25.9999C26.3312 5.25 26.5999 5.51863 26.5999 5.85V21.9H42.65C42.9814 21.9 43.25 22.1687 43.25 22.5V25.5C43.25 25.8314 42.9814 26.1 42.65 26.1H26.5999V42.15Z" fill="#C0C3C7"/>
</svg>
