<svg width="49" height="48" viewBox="0 0 49 48" fill="none" xmlns="http://www.w3.org/2000/svg">
<g filter="url(#filter0_d_25683_24454)">
<path d="M43.5 20C43.5 30.4934 34.9934 39 24.5 39C14.0066 39 5.5 30.4934 5.5 20C5.5 9.50659 14.0066 1 24.5 1C34.9934 1 43.5 9.50659 43.5 20Z" fill="#F53F3F" stroke="white" stroke-width="2"/>
<path fill-rule="evenodd" clip-rule="evenodd" d="M17.6447 15.3278C17.4518 15.1349 17.4518 14.8221 17.6447 14.6292L19.1293 13.1446C19.3222 12.9517 19.635 12.9517 19.8279 13.1446L24.5001 17.8168L29.1721 13.1448C29.365 12.9519 29.6778 12.9519 29.8707 13.1448L31.3553 14.6294C31.5482 14.8223 31.5482 15.1351 31.3553 15.328L26.6833 20L31.3552 24.672C31.5482 24.8649 31.5482 25.1777 31.3552 25.3706L29.8707 26.8552C29.6777 27.0481 29.365 27.0481 29.172 26.8552L24.5001 22.1833L19.828 26.8554C19.635 27.0483 19.3223 27.0483 19.1293 26.8554L17.6448 25.3708C17.4518 25.1779 17.4518 24.8651 17.6448 24.6722L22.3169 20L17.6447 15.3278Z" fill="white"/>
</g>
<defs>
<filter id="filter0_d_25683_24454" x="0.5" y="0" width="48" height="48" filterUnits="userSpaceOnUse" color-interpolation-filters="sRGB">
<feFlood flood-opacity="0" result="BackgroundImageFix"/>
<feColorMatrix in="SourceAlpha" type="matrix" values="0 0 0 0 0 0 0 0 0 0 0 0 0 0 0 0 0 0 127 0" result="hardAlpha"/>
<feOffset dy="4"/>
<feGaussianBlur stdDeviation="2"/>
<feComposite in2="hardAlpha" operator="out"/>
<feColorMatrix type="matrix" values="0 0 0 0 0 0 0 0 0 0 0 0 0 0 0 0 0 0 0.1 0"/>
<feBlend mode="normal" in2="BackgroundImageFix" result="effect1_dropShadow_25683_24454"/>
<feBlend mode="normal" in="SourceGraphic" in2="effect1_dropShadow_25683_24454" result="shape"/>
</filter>
</defs>
</svg>
