<svg width="49" height="48" viewBox="0 0 49 48" fill="none" xmlns="http://www.w3.org/2000/svg">
<g filter="url(#filter0_d_25683_24412)">
<path d="M43.5 20C43.5 30.4934 34.9934 39 24.5 39C14.0066 39 5.5 30.4934 5.5 20C5.5 9.50659 14.0066 1 24.5 1C34.9934 1 43.5 9.50659 43.5 20Z" fill="#00B75F" stroke="white" stroke-width="2"/>
<path fill-rule="evenodd" clip-rule="evenodd" d="M22.5202 22.5174L17.7925 17.7897C17.6025 17.5997 17.2945 17.5997 17.1045 17.7897L15.6425 19.2517C15.4525 19.4417 15.4525 19.7497 15.6425 19.9397L21.6589 25.9561C21.8892 26.1864 22.1889 26.305 22.4906 26.312C22.8121 26.3201 23.1361 26.2015 23.3814 25.9562L33.3575 15.9801C33.5475 15.7901 33.5475 15.4821 33.3575 15.2921L31.8955 13.8301C31.7055 13.6401 31.3975 13.6401 31.2075 13.8301L22.5202 22.5174Z" fill="white"/>
</g>
<defs>
<filter id="filter0_d_25683_24412" x="0.5" y="0" width="48" height="48" filterUnits="userSpaceOnUse" color-interpolation-filters="sRGB">
<feFlood flood-opacity="0" result="BackgroundImageFix"/>
<feColorMatrix in="SourceAlpha" type="matrix" values="0 0 0 0 0 0 0 0 0 0 0 0 0 0 0 0 0 0 127 0" result="hardAlpha"/>
<feOffset dy="4"/>
<feGaussianBlur stdDeviation="2"/>
<feComposite in2="hardAlpha" operator="out"/>
<feColorMatrix type="matrix" values="0 0 0 0 0 0 0 0 0 0 0 0 0 0 0 0 0 0 0.1 0"/>
<feBlend mode="normal" in2="BackgroundImageFix" result="effect1_dropShadow_25683_24412"/>
<feBlend mode="normal" in="SourceGraphic" in2="effect1_dropShadow_25683_24412" result="shape"/>
</filter>
</defs>
</svg>
