<svg width="343" height="240" viewBox="0 0 343 240" fill="none" xmlns="http://www.w3.org/2000/svg">
<rect width="343" height="240" fill="white"/>
<path d="M59.3524 163.695C71.4727 154.866 85.1821 153.04 89.9732 159.617C92.1227 162.568 93.4144 164.426 94.4713 166.485C92.4737 172.185 83.7084 182.409 76.7028 187.513C67.3403 194.333 57.2433 200.507 50.8276 198.324C50.1005 197.76 48.131 194.891 46.082 191.591C41.2908 185.014 47.2322 172.525 59.3524 163.695Z" fill="black"/>
<mask id="mask0_25873_12017" style="mask-type:alpha" maskUnits="userSpaceOnUse" x="44" y="156" width="51" height="44">
<path d="M59.3107 164.447C72.0067 155.2 85.5127 153.726 89.7147 160.37C91.8642 163.321 93.1561 165.179 94.2147 167.237C92.2409 172.92 83.5384 183.098 76.5742 188.171C67.2671 194.951 57.2267 201.084 50.8295 198.888C50.1037 198.323 48.1338 195.454 46.0834 192.155C41.2922 185.578 47.2623 173.224 59.3107 164.447Z" fill="black"/>
</mask>
<g mask="url(#mask0_25873_12017)">
<path d="M94.6455 160.114L93.8345 166.731L82.3892 162.495L71.8076 165.102L68.0603 157.449L83.2004 154.114L94.6455 160.114Z" fill="white"/>
<path d="M64.4315 158.475L68.4764 167L65.5016 169.793L60.7843 160.421L64.4315 158.475Z" fill="white"/>
</g>
<path d="M63.2992 169.573C69.3242 165.184 75.7316 162.546 81.2095 161.816C86.7017 161.085 91.1737 162.277 93.4659 165.423C95.7582 168.57 95.5219 173.192 93.1417 178.196C90.7677 183.186 86.2919 188.476 80.2668 192.865C74.2418 197.254 67.8344 199.892 62.3565 200.622C56.8643 201.354 52.3923 200.161 50.1001 197.015C47.8079 193.868 48.0441 189.246 50.4243 184.242C52.7983 179.252 57.2741 173.962 63.2992 169.573Z" fill="white" stroke="black" stroke-width="0.65"/>
<path d="M75.8739 182.954C93.4448 210.192 151.381 204.087 205.279 169.318C259.176 134.55 288.625 84.2834 271.054 57.0455C253.483 29.8075 195.547 35.9124 141.649 70.6811C101.846 96.3573 75.3774 130.485 71.332 157.549" stroke="black" stroke-width="0.65"/>
<path d="M90.2073 137.938C87.9672 136.156 86.905 133.275 87.452 130.465L102.008 55.694C102.535 52.9832 105.753 51.8012 107.91 53.5258L203.438 129.898C205.728 131.729 206.775 134.704 206.136 137.564L189.868 210.476C189.277 213.124 186.118 214.241 183.994 212.551L90.2073 137.938Z" fill="#F8FBFF" stroke="black" stroke-width="0.65"/>
<path d="M98 144L213 159" stroke="black" stroke-width="0.65"/>
<path d="M106.871 108.161C105.158 105.832 104.898 102.739 106.199 100.157L139.804 33.485C141.038 31.0371 144.421 30.753 146.046 32.9608L221.893 136.022C223.606 138.35 223.866 141.444 222.565 144.025L188.96 210.697C187.727 213.145 184.344 213.429 182.719 211.222L106.871 108.161Z" fill="#F8FBFF" stroke="black" stroke-width="0.65"/>
<path d="M114.579 106.442C112.781 103.978 112.541 100.707 113.958 98.0073L141.121 46.2732C142.488 43.6691 146.104 43.3815 147.865 45.7367L189.42 101.29C191.233 103.714 191.523 106.954 190.168 109.661L163.317 163.335C161.976 166.015 158.274 166.324 156.508 163.903L114.579 106.442Z" fill="#35CB8C"/>
<path d="M234.77 29.2714L235.5 24.9511L236.23 29.2714C236.555 31.1968 237.908 32.7897 239.755 33.4223L242.997 34.5321L239.886 35.5973C237.965 36.2548 236.586 37.9465 236.329 39.9596L235.5 46.4382L234.671 39.9597C234.414 37.9465 233.035 36.2548 231.114 35.5973L228.003 34.5321L231.245 33.4223C233.092 32.7897 234.445 31.1968 234.77 29.2714Z" fill="#FFE04A" stroke="black" stroke-width="0.65"/>
<path d="M130.976 196.851L131.5 193.873L132.024 196.851C132.365 198.784 133.742 200.374 135.608 200.986L137.958 201.758L135.744 202.485C133.803 203.122 132.397 204.815 132.127 206.84L131.5 211.542L130.873 206.84C130.603 204.815 129.197 203.122 127.256 202.485L125.042 201.758L127.393 200.986C129.258 200.374 130.635 198.784 130.976 196.851Z" fill="#ED932C" stroke="black" stroke-width="0.65"/>
<path d="M301.268 83.3508C295.411 103.592 281.758 117.423 270.775 114.245C265.847 112.819 262.813 111.867 259.866 110.491C257.176 102.44 258.108 83.5395 261.493 71.8402C266.018 56.2047 271.915 40.6546 280.919 37.5544C282.212 37.5547 286.87 39.0459 291.987 40.9462C302.97 44.1248 307.126 63.1099 301.268 83.3508Z" fill="#4C42C5"/>
<mask id="mask1_25873_12017" style="mask-type:alpha" maskUnits="userSpaceOnUse" x="257" y="37" width="46" height="78">
<path d="M300.268 83.3508C294.41 103.592 280.758 117.423 269.774 114.245C264.847 112.819 261.812 111.867 258.866 110.491C256.176 102.44 257.107 83.5396 260.493 71.8402C265.018 56.2048 270.914 40.6546 279.918 37.5545C281.211 37.5548 285.869 39.046 290.986 40.9463C301.97 44.1249 306.125 63.11 300.268 83.3508Z" fill="black"/>
</mask>
<g mask="url(#mask1_25873_12017)">
<path d="M300.223 91.7283L288.314 86.1525L290.488 77.7406L303.531 83.884L300.223 91.7283Z" fill="#8B8FFC"/>
<path d="M303.454 81.5519L291.622 75.5671L291.149 72.7315L304.457 79.0777L303.454 81.5519Z" fill="#8B8FFC"/>
</g>
<path d="M291.951 80.2588C289.035 90.3375 284.181 98.8049 278.708 104.35C273.224 109.905 267.183 112.471 261.86 110.931C256.537 109.39 252.8 103.995 251.131 96.3696C249.465 88.7584 249.884 79.0076 252.801 68.9289C255.717 58.8502 260.571 50.3828 266.044 44.8376C271.528 39.2822 277.569 36.7163 282.892 38.2568C288.215 39.7973 291.952 45.1927 293.621 52.818C295.287 60.4293 294.868 70.1801 291.951 80.2588Z" fill="white" stroke="black" stroke-width="0.65"/>
<path d="M287.498 78.9698C285.237 86.7821 281.476 93.342 277.238 97.6352C272.99 101.939 268.329 103.908 264.235 102.723C260.142 101.539 257.253 97.3843 255.96 91.4775C254.67 85.5847 254.994 78.0299 257.254 70.2176C259.515 62.4052 263.277 55.8454 267.514 51.5522C271.762 47.2487 276.423 45.2793 280.517 46.4639C284.61 47.6485 287.499 51.803 288.792 57.7099C290.082 63.6027 289.759 71.1574 287.498 78.9698Z" fill="#6558FF" stroke="black" stroke-width="0.65"/>
<mask id="path-19-outside-1_25873_12017" maskUnits="userSpaceOnUse" x="256.677" y="58.1281" width="31.1404" height="35.6365" fill="black">
<rect fill="white" x="256.677" y="58.1281" width="31.1404" height="35.6365"/>
<path fill-rule="evenodd" clip-rule="evenodd" d="M277.885 78.6865C277.399 80.1838 277.918 81.6943 279.046 82.0603C280.173 82.4263 281.481 81.5093 281.967 80.012C282.453 78.5147 281.933 77.0042 280.806 76.6381C279.679 76.2721 278.371 77.1892 277.885 78.6865ZM268.034 89.022C265.74 88.2773 264.683 85.2042 265.672 82.1579C266.661 79.1117 269.322 77.246 271.615 77.9906C273.909 78.7353 274.966 81.8084 273.977 84.8547C272.988 87.9009 270.327 89.7667 268.034 89.022ZM263.21 76.9191C262.082 76.5531 261.563 75.0426 262.049 73.5453C262.535 72.048 263.843 71.1309 264.97 71.4969C266.097 71.863 266.617 73.3735 266.131 74.8708C265.645 76.3681 264.337 77.2852 263.21 76.9191ZM282.251 64.7585C280.925 63.4497 278.766 63.9888 277.485 65.8979C276.642 67.1745 276.368 68.7389 276.687 70.0311C276.897 71.1841 276.663 72.5033 275.916 73.6043C275.447 74.3304 274.863 74.8123 274.233 75.0731L274.148 75.0969C273.876 75.2154 273.574 75.4273 273.382 75.7783C272.862 76.5397 272.896 77.6356 273.438 78.1217C273.965 78.6546 274.856 78.4272 275.34 77.6543C275.567 77.3147 275.689 76.9407 275.705 76.5325C275.771 75.7275 276.045 74.8861 276.514 74.16C277.21 73.0943 278.172 72.5282 279.087 72.4638L279.173 72.4399C279.208 72.4514 279.243 72.4628 279.259 72.416L279.329 72.4389C280.421 72.4317 281.554 71.8178 282.346 70.5765C283.662 68.6787 283.627 66.032 282.251 64.7585ZM273.968 64.7556C274.053 62.4579 272.622 60.7533 270.781 61.0337C268.904 61.3027 267.335 63.377 267.286 65.6861C267.198 67.156 267.754 68.3183 268.633 68.9655L268.704 68.9883C268.688 69.0351 268.724 69.0465 268.759 69.0579L268.814 69.1275C269.517 69.7175 269.963 70.7407 269.9 72.0121C269.853 72.8753 269.58 73.7167 269.161 74.4074C268.934 74.7471 268.813 75.121 268.797 75.5293C268.735 76.4392 269.322 77.1466 270.062 77.0251C270.787 76.9503 271.457 76.083 271.484 75.1616C271.535 74.7648 271.415 74.4158 271.265 74.1603L271.209 74.0907C270.853 73.51 270.664 72.7766 270.71 71.9134C270.753 70.5839 271.339 69.3789 272.185 68.5687C273.203 67.7108 273.9 66.2835 273.968 64.7556Z"/>
</mask>
<path fill-rule="evenodd" clip-rule="evenodd" d="M277.885 78.6865C277.399 80.1838 277.918 81.6943 279.046 82.0603C280.173 82.4263 281.481 81.5093 281.967 80.012C282.453 78.5147 281.933 77.0042 280.806 76.6381C279.679 76.2721 278.371 77.1892 277.885 78.6865ZM268.034 89.022C265.74 88.2773 264.683 85.2042 265.672 82.1579C266.661 79.1117 269.322 77.246 271.615 77.9906C273.909 78.7353 274.966 81.8084 273.977 84.8547C272.988 87.9009 270.327 89.7667 268.034 89.022ZM263.21 76.9191C262.082 76.5531 261.563 75.0426 262.049 73.5453C262.535 72.048 263.843 71.1309 264.97 71.4969C266.097 71.863 266.617 73.3735 266.131 74.8708C265.645 76.3681 264.337 77.2852 263.21 76.9191ZM282.251 64.7585C280.925 63.4497 278.766 63.9888 277.485 65.8979C276.642 67.1745 276.368 68.7389 276.687 70.0311C276.897 71.1841 276.663 72.5033 275.916 73.6043C275.447 74.3304 274.863 74.8123 274.233 75.0731L274.148 75.0969C273.876 75.2154 273.574 75.4273 273.382 75.7783C272.862 76.5397 272.896 77.6356 273.438 78.1217C273.965 78.6546 274.856 78.4272 275.34 77.6543C275.567 77.3147 275.689 76.9407 275.705 76.5325C275.771 75.7275 276.045 74.8861 276.514 74.16C277.21 73.0943 278.172 72.5282 279.087 72.4638L279.173 72.4399C279.208 72.4514 279.243 72.4628 279.259 72.416L279.329 72.4389C280.421 72.4317 281.554 71.8178 282.346 70.5765C283.662 68.6787 283.627 66.032 282.251 64.7585ZM273.968 64.7556C274.053 62.4579 272.622 60.7533 270.781 61.0337C268.904 61.3027 267.335 63.377 267.286 65.6861C267.198 67.156 267.754 68.3183 268.633 68.9655L268.704 68.9883C268.688 69.0351 268.724 69.0465 268.759 69.0579L268.814 69.1275C269.517 69.7175 269.963 70.7407 269.9 72.0121C269.853 72.8753 269.58 73.7167 269.161 74.4074C268.934 74.7471 268.813 75.121 268.797 75.5293C268.735 76.4392 269.322 77.1466 270.062 77.0251C270.787 76.9503 271.457 76.083 271.484 75.1616C271.535 74.7648 271.415 74.4158 271.265 74.1603L271.209 74.0907C270.853 73.51 270.664 72.7766 270.71 71.9134C270.753 70.5839 271.339 69.3789 272.185 68.5687C273.203 67.7108 273.9 66.2835 273.968 64.7556Z" fill="white"/>
<path d="M277.485 65.8979L276.945 65.5357L276.942 65.5399L277.485 65.8979ZM282.251 64.7585L281.794 65.2211L281.801 65.2284L281.809 65.2356L282.251 64.7585ZM276.687 70.0311L277.327 69.915L277.323 69.8949L277.318 69.875L276.687 70.0311ZM275.916 73.6043L275.378 73.2395L275.374 73.2455L275.37 73.2515L275.916 73.6043ZM274.233 75.0731L274.408 75.6991L274.446 75.6886L274.482 75.6736L274.233 75.0731ZM274.148 75.0969L273.973 74.4709L273.93 74.483L273.888 74.501L274.148 75.0969ZM273.382 75.7783L273.919 76.1447L273.937 76.1182L273.952 76.09L273.382 75.7783ZM273.438 78.1217L273.9 77.6646L273.886 77.6507L273.872 77.6377L273.438 78.1217ZM275.34 77.6543L274.8 77.2932L274.795 77.3011L274.79 77.3092L275.34 77.6543ZM275.705 76.5325L275.057 76.4787L275.056 76.493L275.055 76.5073L275.705 76.5325ZM276.514 74.16L275.97 73.8046L275.968 73.8073L276.514 74.16ZM279.087 72.4638L279.133 73.1122L279.199 73.1076L279.262 73.0899L279.087 72.4638ZM279.173 72.4399L279.374 71.8217L279.187 71.7611L278.998 71.8139L279.173 72.4399ZM279.259 72.416L279.459 71.7978L278.841 71.5971L278.64 72.2153L279.259 72.416ZM279.329 72.4389L279.128 73.0571L279.228 73.0896L279.333 73.0889L279.329 72.4389ZM282.346 70.5765L281.812 70.206L281.804 70.2163L281.798 70.2269L282.346 70.5765ZM270.781 61.0337L270.873 61.6771L270.878 61.6763L270.781 61.0337ZM273.968 64.7556L274.618 64.7845L274.618 64.7795L273.968 64.7556ZM267.286 65.6861L267.935 65.7251L267.936 65.7126L267.936 65.7001L267.286 65.6861ZM268.633 68.9655L268.248 69.4889L268.332 69.5512L268.432 69.5837L268.633 68.9655ZM268.704 68.9883L269.322 69.1891L269.523 68.5708L268.904 68.3701L268.704 68.9883ZM268.759 69.0579L269.268 68.654L269.146 68.5003L268.959 68.4397L268.759 69.0579ZM268.814 69.1275L268.305 69.5315L268.346 69.5831L268.396 69.6255L268.814 69.1275ZM269.9 72.0121L270.549 72.0473L270.549 72.0441L269.9 72.0121ZM269.161 74.4074L269.702 74.7686L269.71 74.7567L269.717 74.7444L269.161 74.4074ZM268.797 75.5293L269.446 75.5735L269.446 75.564L269.447 75.5545L268.797 75.5293ZM270.062 77.0251L269.995 76.3785L269.976 76.3805L269.957 76.3837L270.062 77.0251ZM271.484 75.1616L270.839 75.0787L270.835 75.1106L270.834 75.1427L271.484 75.1616ZM271.265 74.1603L271.825 73.8305L271.802 73.7916L271.774 73.7563L271.265 74.1603ZM271.209 74.0907L270.655 74.4305L270.676 74.4639L270.7 74.4946L271.209 74.0907ZM270.71 71.9134L271.359 71.9487L271.36 71.9415L271.36 71.9343L270.71 71.9134ZM272.185 68.5687L271.766 68.0718L271.751 68.085L271.736 68.0991L272.185 68.5687ZM279.246 81.4421C278.92 81.3361 278.635 81.0508 278.475 80.5861C278.315 80.1211 278.299 79.5145 278.503 78.8872L277.267 78.4857C276.984 79.3558 276.985 80.253 277.245 81.0091C277.506 81.7655 278.044 82.4185 278.845 82.6785L279.246 81.4421ZM281.349 79.8112C281.145 80.4385 280.776 80.9204 280.374 81.2027C279.971 81.4848 279.573 81.5481 279.246 81.4421L278.845 82.6785C279.646 82.9386 280.465 82.7263 281.12 82.2671C281.775 81.8081 282.303 81.0827 282.585 80.2127L281.349 79.8112ZM280.605 77.2563C280.932 77.3623 281.217 77.6476 281.377 78.1123C281.537 78.5773 281.552 79.184 281.349 79.8112L282.585 80.2127C282.868 79.3427 282.866 78.4454 282.606 77.6893C282.346 76.9329 281.808 76.2799 281.007 76.0199L280.605 77.2563ZM278.503 78.8872C278.707 78.2599 279.076 77.7781 279.478 77.4958C279.881 77.2136 280.279 77.1504 280.605 77.2563L281.007 76.0199C280.206 75.7599 279.387 75.9721 278.732 76.4313C278.077 76.8904 277.549 77.6157 277.267 78.4857L278.503 78.8872ZM265.054 81.9572C264.52 83.6017 264.53 85.2768 265.007 86.6645C265.485 88.0525 266.449 89.1908 267.833 89.6402L268.234 88.4037C267.325 88.1084 266.614 87.3378 266.236 86.2416C265.859 85.1449 265.835 83.7604 266.29 82.3587L265.054 81.9572ZM271.816 77.3724C270.432 76.9231 268.983 77.2778 267.781 78.1205C266.58 78.963 265.587 80.3127 265.054 81.9572L266.29 82.3587C266.745 80.957 267.578 79.8507 268.528 79.1849C269.477 78.5193 270.505 78.3135 271.415 78.6089L271.816 77.3724ZM274.595 85.0554C275.129 83.4109 275.119 81.7358 274.642 80.3481C274.164 78.9601 273.2 77.8218 271.816 77.3724L271.415 78.6089C272.324 78.9042 273.035 79.6748 273.413 80.7711C273.79 81.8677 273.814 83.2522 273.359 84.6539L274.595 85.0554ZM267.833 89.6402C269.217 90.0896 270.666 89.7348 271.868 88.8921C273.069 88.0496 274.061 86.6999 274.595 85.0554L273.359 84.6539C272.904 86.0557 272.071 87.1619 271.121 87.8277C270.172 88.4933 269.144 88.6991 268.234 88.4037L267.833 89.6402ZM261.43 73.3445C261.148 74.2146 261.149 75.1118 261.409 75.8679C261.67 76.6243 262.208 77.2773 263.009 77.5374L263.41 76.3009C263.084 76.1949 262.799 75.9096 262.639 75.4449C262.479 74.9799 262.463 74.3733 262.667 73.746L261.43 73.3445ZM265.171 70.8787C264.37 70.6187 263.551 70.8309 262.896 71.2902C262.241 71.7492 261.713 72.4745 261.43 73.3445L262.667 73.746C262.871 73.1188 263.24 72.6369 263.642 72.3546C264.045 72.0725 264.443 72.0092 264.769 72.1152L265.171 70.8787ZM266.749 75.0715C267.032 74.2015 267.03 73.3042 266.77 72.5482C266.51 71.7917 265.972 71.1387 265.171 70.8787L264.769 72.1152C265.096 72.2212 265.381 72.5065 265.541 72.9711C265.701 73.4361 265.716 74.0428 265.513 74.6701L266.749 75.0715ZM263.009 77.5374C263.81 77.7974 264.629 77.5852 265.284 77.1259C265.939 76.6669 266.467 75.9416 266.749 75.0715L265.513 74.6701C265.309 75.2973 264.94 75.7792 264.538 76.0615C264.135 76.3436 263.737 76.4069 263.41 76.3009L263.009 77.5374ZM278.024 66.2601C278.59 65.4178 279.321 64.9187 280.004 64.7532C280.673 64.5911 281.307 64.74 281.794 65.2211L282.707 64.296C281.869 63.4682 280.761 63.2322 279.698 63.4898C278.649 63.7439 277.661 64.4689 276.945 65.5357L278.024 66.2601ZM277.318 69.875C277.046 68.773 277.277 67.3935 278.027 66.2559L276.942 65.5399C276.008 66.9555 275.69 68.7047 276.056 70.1871L277.318 69.875ZM276.454 73.9691C277.299 72.7229 277.566 71.2302 277.327 69.915L276.048 70.1471C276.228 71.1379 276.026 72.2836 275.378 73.2395L276.454 73.9691ZM274.482 75.6736C275.246 75.3571 275.929 74.7818 276.462 73.9571L275.37 73.2515C274.965 73.8789 274.479 74.2676 273.985 74.4725L274.482 75.6736ZM274.323 75.723L274.408 75.6991L274.059 74.447L273.973 74.4709L274.323 75.723ZM273.952 76.09C274.057 75.8988 274.228 75.7709 274.407 75.6929L273.888 74.501C273.524 74.6598 273.091 74.9557 272.811 75.4667L273.952 76.09ZM273.872 77.6377C273.774 77.55 273.67 77.3497 273.661 77.0364C273.654 76.7329 273.741 76.4046 273.919 76.1447L272.845 75.412C272.503 75.9134 272.347 76.5138 272.362 77.0701C272.376 77.6166 272.56 78.2073 273.004 78.6058L273.872 77.6377ZM274.79 77.3092C274.625 77.5719 274.414 77.7058 274.248 77.7469C274.095 77.7851 273.984 77.7492 273.9 77.6646L272.976 78.5789C273.419 79.0271 274.017 79.144 274.562 79.0085C275.095 78.8759 275.571 78.5096 275.891 77.9995L274.79 77.3092ZM275.055 76.5073C275.044 76.7956 274.96 77.0533 274.8 77.2932L275.881 78.0155C276.174 77.5761 276.334 77.0858 276.354 76.5577L275.055 76.5073ZM275.968 73.8073C275.439 74.6257 275.132 75.5702 275.057 76.4787L276.352 76.5863C276.411 75.8847 276.65 75.1466 277.06 74.5128L275.968 73.8073ZM279.042 71.8154C277.888 71.8966 276.756 72.6006 275.97 73.8046L277.058 74.5155C277.664 73.5881 278.456 73.1599 279.133 73.1122L279.042 71.8154ZM278.998 71.8139L278.913 71.8378L279.262 73.0899L279.348 73.066L278.998 71.8139ZM278.64 72.2153C278.661 72.1523 278.708 72.0482 278.812 71.9555C278.923 71.8564 279.051 71.8142 279.157 71.8032C279.25 71.7936 279.32 71.8085 279.345 71.8141C279.369 71.8197 279.388 71.8265 279.374 71.8217L278.972 73.0582C278.975 73.0591 279.012 73.0716 279.054 73.0811C279.095 73.0906 279.182 73.1075 279.29 73.0964C279.411 73.0839 279.553 73.0365 279.676 72.9267C279.792 72.8234 279.849 72.7032 279.877 72.6168L278.64 72.2153ZM279.53 71.8207L279.459 71.7978L279.058 73.0343L279.128 73.0571L279.53 71.8207ZM281.798 70.2269C281.106 71.3108 280.164 71.7833 279.325 71.7889L279.333 73.0889C280.677 73.08 282.001 72.3247 282.894 70.9261L281.798 70.2269ZM281.809 65.2356C282.333 65.7207 282.644 66.5115 282.658 67.4434C282.672 68.3697 282.39 69.372 281.812 70.206L282.88 70.947C283.618 69.8833 283.976 68.6133 283.958 67.4234C283.94 66.2392 283.544 65.0699 282.692 64.2815L281.809 65.2356ZM270.878 61.6763C271.555 61.5732 272.156 61.8251 272.602 62.3491C273.057 62.8841 273.356 63.7178 273.319 64.7316L274.618 64.7795C274.665 63.4956 274.291 62.3282 273.592 61.5066C272.883 60.6739 271.848 60.2137 270.683 60.3911L270.878 61.6763ZM267.936 65.7001C267.981 63.6142 269.396 61.8888 270.873 61.6771L270.688 60.3903C268.411 60.7166 266.69 63.1399 266.636 65.6722L267.936 65.7001ZM269.018 68.442C268.342 67.9444 267.858 67.0087 267.935 65.7251L266.637 65.6472C266.538 67.3033 267.166 68.6923 268.248 69.4889L269.018 68.442ZM268.904 68.3701L268.834 68.3472L268.432 69.5837L268.503 69.6066L268.904 68.3701ZM268.959 68.4397C268.945 68.4349 268.964 68.4408 268.988 68.4507C269.01 68.4604 269.076 68.4898 269.146 68.5523C269.225 68.6234 269.304 68.7325 269.336 68.8781C269.366 69.0143 269.342 69.126 269.322 69.1891L268.085 68.7876C268.057 68.874 268.033 69.0046 268.066 69.1565C268.101 69.3177 268.188 69.4392 268.278 69.5204C268.359 69.593 268.44 69.6304 268.479 69.6469C268.518 69.6636 268.555 69.6752 268.558 69.6761L268.959 68.4397ZM269.323 68.7236L269.268 68.654L268.25 69.4619L268.305 69.5315L269.323 68.7236ZM270.549 72.0441C270.62 70.6078 270.118 69.3731 269.232 68.6296L268.396 69.6255C268.916 70.062 269.306 70.8736 269.251 71.9801L270.549 72.0441ZM269.717 74.7444C270.19 73.9649 270.497 73.0203 270.549 72.0473L269.251 71.9769C269.21 72.7303 268.971 73.4685 268.606 74.0704L269.717 74.7444ZM269.447 75.5545C269.458 75.2662 269.542 75.0085 269.702 74.7686L268.621 74.0463C268.327 74.4857 268.168 74.9759 268.148 75.5041L269.447 75.5545ZM269.957 76.3837C269.839 76.403 269.728 76.3668 269.627 76.2457C269.517 76.1152 269.425 75.8828 269.446 75.5735L268.149 75.4851C268.108 76.0857 268.278 76.6619 268.631 77.0822C268.993 77.5119 269.545 77.7687 270.167 77.6665L269.957 76.3837ZM270.834 75.1427C270.825 75.4572 270.704 75.7744 270.519 76.0154C270.328 76.2642 270.126 76.365 269.995 76.3785L270.129 77.6716C270.723 77.6103 271.218 77.2401 271.551 76.8062C271.889 76.3645 272.116 75.7873 272.134 75.1805L270.834 75.1427ZM270.704 74.49C270.804 74.6584 270.867 74.8626 270.839 75.0787L272.129 75.2445C272.203 74.667 272.027 74.1732 271.825 73.8305L270.704 74.49ZM270.7 74.4946L270.755 74.5642L271.774 73.7563L271.719 73.6867L270.7 74.4946ZM270.061 71.8782C270.008 72.8587 270.223 73.7256 270.655 74.4305L271.764 73.7508C271.484 73.2944 271.319 72.6946 271.359 71.9487L270.061 71.8782ZM271.736 68.0991C270.77 69.0233 270.109 70.3878 270.061 71.8926L271.36 71.9343C271.397 70.7799 271.907 69.7346 272.635 69.0383L271.736 68.0991ZM273.319 64.7266C273.258 66.0882 272.634 67.3401 271.766 68.0718L272.604 69.0657C273.772 68.0814 274.542 66.4789 274.618 64.7845L273.319 64.7266Z" fill="black" mask="url(#path-19-outside-1_25873_12017)"/>
<path d="M132.505 93.4616C131.36 90.8068 131.804 87.7342 133.654 85.5124L181.425 28.1333C183.179 26.0266 186.539 26.5125 187.624 29.0298L238.283 146.537C239.428 149.192 238.983 152.265 237.134 154.487L189.362 211.866C187.608 213.972 184.249 213.487 183.163 210.969L132.505 93.4616Z" fill="white" stroke="black" stroke-width="0.65"/>
<path d="M140.448 93.4137C139.338 90.7834 139.78 87.7541 141.595 85.5502L179.535 39.4788C181.283 37.3553 184.66 37.8353 185.747 40.362L213.97 105.931C215.113 108.586 214.667 111.658 212.816 113.879L174.373 160.001C172.611 162.116 169.235 161.614 168.164 159.078L140.448 93.4137Z" fill="#6558FF" stroke="black" stroke-width="0.65"/>
<g clip-path="url(#clip0_25873_12017)">
<path d="M156 107.966L158.999 104.767L166.996 108.892L168.701 109.843L170.299 111.041L170.487 110.843L164.847 98.5L168.034 95.0719L177.518 116.093L174.519 119.215L166.439 114.764L164.733 113.814L163.191 112.618L162.981 112.838L168.646 125.3L165.478 128.568L156 107.966Z" fill="white" stroke="black" stroke-width="0.65"/>
<path d="M170.302 92.6303L179.592 82.558L181.425 86.6393L175.743 92.7736L177.933 97.6457L183.028 92.1866L184.875 96.3533L179.78 101.777L183.393 109.953L179.785 113.728L170.302 92.6303Z" fill="white" stroke="black" stroke-width="0.65"/>
<path d="M185.816 82.0482L182.294 85.8704L180.411 81.6679L191.061 70L192.943 74.2742L189.399 78.1433L197 95.5899L193.414 99.3929L185.813 82.0454L185.816 82.0482Z" fill="white" stroke="black" stroke-width="0.65"/>
</g>
<path d="M185.664 185.026L206.469 159.563C207.76 157.984 210.272 158.372 211.026 160.267L212.572 164.152C213.605 166.748 213.146 169.7 211.374 171.859L190.614 197.154C189.339 198.707 186.871 198.353 186.084 196.505L184.545 192.887C183.428 190.262 183.859 187.235 185.664 185.026Z" fill="#8388F9" stroke="black" stroke-width="0.65"/>
<path d="M197.567 145.628L203.643 138.361C204.559 137.265 206.341 137.8 206.503 139.219C206.554 139.664 206.418 140.111 206.128 140.453L199.244 148.575C198.47 149.489 196.978 149.013 196.876 147.82C196.808 147.027 197.057 146.239 197.567 145.628Z" fill="white" stroke="black" stroke-width="0.65"/>
<path d="M187.094 158.326L193.169 151.059C194.085 149.963 195.867 150.498 196.029 151.916C196.08 152.362 195.944 152.809 195.654 153.151L188.77 161.273C187.996 162.186 186.504 161.71 186.402 160.518C186.335 159.724 186.583 158.936 187.094 158.326Z" fill="white" stroke="black" stroke-width="0.65"/>
<path d="M176.917 171.079L182.992 163.812C183.908 162.717 185.69 163.251 185.852 164.67C185.903 165.116 185.767 165.562 185.477 165.904L178.593 174.027C177.819 174.94 176.327 174.464 176.226 173.271C176.158 172.478 176.406 171.69 176.917 171.079Z" fill="white" stroke="black" stroke-width="0.65"/>
<defs>
<clipPath id="clip0_25873_12017">
<rect width="41" height="65" fill="white" transform="translate(156 70)"/>
</clipPath>
</defs>
</svg>
