<svg width="29" height="28" viewBox="0 0 29 28" fill="none" xmlns="http://www.w3.org/2000/svg">
<g clip-path="url(#clip0_25768_1845)">
<ellipse cx="14.5" cy="14" rx="14" ry="14" fill="#C0C3C7"/>
<path d="M8.9491 9.65127C8.79289 9.80748 8.79289 10.0607 8.9491 10.217L18.2829 19.5508C18.4391 19.707 18.6924 19.707 18.8486 19.5508L20.0507 18.3487C20.2069 18.1925 20.2069 17.9392 20.0507 17.783L10.7169 8.44919C10.5607 8.29298 10.3074 8.29298 10.1512 8.44919L8.9491 9.65127Z" fill="white"/>
<path d="M10.1512 19.5509C10.3074 19.7071 10.5607 19.7071 10.7169 19.5509L20.0507 10.2171C20.2069 10.0609 20.2069 9.80764 20.0507 9.65143L18.8487 8.44935C18.6924 8.29314 18.4392 8.29314 18.283 8.44935L8.94916 17.7832C8.79295 17.9394 8.79295 18.1926 8.94916 18.3488L10.1512 19.5509Z" fill="white"/>
</g>
<rect x="1.5" y="1" width="26" height="26" rx="13" stroke="white" stroke-width="2"/>
<defs>
<clipPath id="clip0_25768_1845">
<rect x="0.5" width="28" height="28" rx="14" fill="white"/>
</clipPath>
</defs>
</svg>
