
<svg width="16px" height="16px" viewBox="0 0 16 16" version="1.1" xmlns="http://www.w3.org/2000/svg" xmlns:xlink="http://www.w3.org/1999/xlink">
    <title>czxhfqteof</title>
    <g id="hcxpnduhbi" stroke="none" stroke-width="1" fill="none" fill-rule="evenodd">
        <g id="nidccvhtui" transform="translate(-312.000000, -161.000000)">
            <g id="wctbuzvomi" transform="translate(0.000000, 137.000000)">
                <g id="ywumpcpgzx" transform="translate(312.000000, 24.000000)">
                    <rect id="kwcdpgxexe" x="0" y="0" width="16" height="16"></rect>
                    <path d="M11.5651093,6.3098691 L11.5651093,4.78286843 C11.5651093,2.69656834 9.87040616,1 7.78526745,1 C5.70009356,1 4.00345481,2.69656834 4.00345481,4.78286843 L4.00345481,6.3098691 L2.93375136,6.3098691 C2.41802724,6.3098691 2,6.7281075 2,7.24418355 L2,14.0647353 C2,14.5817264 2.41802724,15 2.93375136,15 L12.6366428,15 C13.1525077,15 13.5695495,14.5817264 13.5695495,14.0647353 L13.5695495,7.24418355 C13.5695495,6.72803711 13.1516278,6.3098691 12.6357278,6.3098691 L11.5651093,6.3098691 Z M8.30964915,12.3215357 C8.30964915,12.3880864 8.25460666,12.4441495 8.18707053,12.4441495 L7.38437941,12.4441495 C7.31599863,12.4441495 7.26092096,12.3880513 7.26092095,12.3215357 L7.26092095,10.8321861 C6.88378845,10.6392207 6.62254783,10.2523748 6.62254783,9.79897822 C6.62254783,9.15743769 7.14312863,8.63566029 7.78435243,8.63566029 C8.42652644,8.63566029 8.94714722,9.15743768 8.94714722,9.79897822 C8.94805747,10.25241 8.68678165,10.6392207 8.30964915,10.8321861 L8.30964915,12.3215357 Z M10.1145428,6.3098691 L5.45588653,6.3098691 L5.45588653,4.84456248 C5.45588653,3.55951058 6.50179925,2.51306995 7.7861473,2.51306995 C9.07049534,2.51306995 10.1145428,3.55951058 10.1145428,4.84456248 L10.1145428,6.3098691 Z" id="dsxgzemiko" fill="#c0c3c7"></path>
                </g>
            </g>
        </g>
    </g>
</svg>
