<svg width="16" height="16" viewBox="0 0 16 16" fill="none" xmlns="http://www.w3.org/2000/svg">
<g id="lock-filled">
<g id="Union">
<path d="M5.75 6.125V4.875C5.75 3.63236 6.75736 2.625 8 2.625C9.24264 2.625 10.25 3.63236 10.25 4.875V6.125H5.75ZM4.5 6.125H3C2.44772 6.125 2 6.57272 2 7.125V13.625C2 14.1773 2.44772 14.625 3 14.625H13C13.5523 14.625 14 14.1773 14 13.625V7.125C14 6.57272 13.5523 6.125 13 6.125H11.5V4.875C11.5 2.942 9.933 1.375 8 1.375C6.067 1.375 4.5 2.942 4.5 4.875V6.125Z" fill="#979AA1"/>
</g>
</g>
</svg>