<svg width="375" height="305" viewBox="0 0 375 305" fill="none" xmlns="http://www.w3.org/2000/svg">
<mask id="mask0_24673_15167" style="mask-type:alpha" maskUnits="userSpaceOnUse" x="0" y="0" width="375" height="305">
<path d="M0 0H375V281C375 294.255 364.255 305 351 305H24C10.7452 305 0 294.255 0 281V0Z" fill="#EFECFF"/>
</mask>
<g mask="url(#mask0_24673_15167)">
<g opacity="0.15">
<ellipse cx="-0.420847" cy="155.737" rx="3.47368" ry="3.47368" transform="rotate(-90 -0.420847 155.737)" fill="#B2B0FF"/>
<ellipse cx="15.7896" cy="155.737" rx="3.47368" ry="3.47368" transform="rotate(-90 15.7896 155.737)" fill="#B2B0FF"/>
<ellipse cx="32" cy="155.737" rx="3.47368" ry="3.47368" transform="rotate(-90 32 155.737)" fill="#B2B0FF"/>
<ellipse cx="48.2105" cy="155.737" rx="3.47368" ry="3.47368" transform="rotate(-90 48.2105 155.737)" fill="#B2B0FF"/>
<ellipse cx="64.421" cy="155.737" rx="3.47368" ry="3.47368" transform="rotate(-90 64.421 155.737)" fill="#B2B0FF"/>
<ellipse cx="80.6314" cy="155.737" rx="3.47368" ry="3.47368" transform="rotate(-90 80.6314 155.737)" fill="#B2B0FF"/>
<ellipse cx="96.8419" cy="155.737" rx="3.47368" ry="3.47368" transform="rotate(-90 96.8419 155.737)" fill="#B2B0FF"/>
<ellipse cx="113.053" cy="155.737" rx="3.47368" ry="3.47368" transform="rotate(-90 113.053 155.737)" fill="#B2B0FF"/>
<ellipse cx="129.263" cy="155.737" rx="3.47368" ry="3.47368" transform="rotate(-90 129.263 155.737)" fill="#B2B0FF"/>
<ellipse cx="145.474" cy="155.737" rx="3.47368" ry="3.47368" transform="rotate(-90 145.474 155.737)" fill="#B2B0FF"/>
<ellipse cx="161.684" cy="155.737" rx="3.47368" ry="3.47368" transform="rotate(-90 161.684 155.737)" fill="#B2B0FF"/>
<ellipse cx="177.895" cy="155.737" rx="3.47368" ry="3.47368" transform="rotate(-90 177.895 155.737)" fill="#B2B0FF"/>
<ellipse cx="194.106" cy="155.737" rx="3.47368" ry="3.47368" transform="rotate(-90 194.106 155.737)" fill="#B2B0FF"/>
<ellipse cx="-0.420847" cy="139.526" rx="3.47368" ry="3.47368" transform="rotate(-90 -0.420847 139.526)" fill="#B2B0FF"/>
<ellipse cx="15.7896" cy="139.526" rx="3.47368" ry="3.47368" transform="rotate(-90 15.7896 139.526)" fill="#B2B0FF"/>
<ellipse cx="32" cy="139.526" rx="3.47368" ry="3.47368" transform="rotate(-90 32 139.526)" fill="#B2B0FF"/>
<ellipse cx="48.2105" cy="139.526" rx="3.47368" ry="3.47368" transform="rotate(-90 48.2105 139.526)" fill="#B2B0FF"/>
<ellipse cx="64.421" cy="139.526" rx="3.47368" ry="3.47368" transform="rotate(-90 64.421 139.526)" fill="#B2B0FF"/>
<ellipse cx="80.6314" cy="139.526" rx="3.47368" ry="3.47368" transform="rotate(-90 80.6314 139.526)" fill="#B2B0FF"/>
<ellipse cx="96.8419" cy="139.526" rx="3.47368" ry="3.47368" transform="rotate(-90 96.8419 139.526)" fill="#B2B0FF"/>
<ellipse cx="113.053" cy="139.526" rx="3.47368" ry="3.47368" transform="rotate(-90 113.053 139.526)" fill="#B2B0FF"/>
<ellipse cx="129.263" cy="139.526" rx="3.47368" ry="3.47368" transform="rotate(-90 129.263 139.526)" fill="#B2B0FF"/>
<ellipse cx="145.474" cy="139.526" rx="3.47368" ry="3.47368" transform="rotate(-90 145.474 139.526)" fill="#B2B0FF"/>
<ellipse cx="161.684" cy="139.526" rx="3.47368" ry="3.47368" transform="rotate(-90 161.684 139.526)" fill="#B2B0FF"/>
<ellipse cx="177.895" cy="139.526" rx="3.47368" ry="3.47368" transform="rotate(-90 177.895 139.526)" fill="#B2B0FF"/>
<ellipse cx="194.106" cy="139.526" rx="3.47368" ry="3.47368" transform="rotate(-90 194.106 139.526)" fill="#B2B0FF"/>
<ellipse cx="-0.420847" cy="123.316" rx="3.47368" ry="3.47368" transform="rotate(-90 -0.420847 123.316)" fill="#B2B0FF"/>
<ellipse cx="15.7896" cy="123.316" rx="3.47368" ry="3.47368" transform="rotate(-90 15.7896 123.316)" fill="#B2B0FF"/>
<ellipse cx="32" cy="123.316" rx="3.47368" ry="3.47368" transform="rotate(-90 32 123.316)" fill="#B2B0FF"/>
<ellipse cx="48.2105" cy="123.316" rx="3.47368" ry="3.47368" transform="rotate(-90 48.2105 123.316)" fill="#B2B0FF"/>
<ellipse cx="64.421" cy="123.316" rx="3.47368" ry="3.47368" transform="rotate(-90 64.421 123.316)" fill="#B2B0FF"/>
<ellipse cx="80.6314" cy="123.316" rx="3.47368" ry="3.47368" transform="rotate(-90 80.6314 123.316)" fill="#B2B0FF"/>
<ellipse cx="96.8419" cy="123.316" rx="3.47368" ry="3.47368" transform="rotate(-90 96.8419 123.316)" fill="#B2B0FF"/>
<ellipse cx="113.053" cy="123.316" rx="3.47368" ry="3.47368" transform="rotate(-90 113.053 123.316)" fill="#B2B0FF"/>
<ellipse cx="129.263" cy="123.316" rx="3.47368" ry="3.47368" transform="rotate(-90 129.263 123.316)" fill="#B2B0FF"/>
<ellipse cx="145.474" cy="123.316" rx="3.47368" ry="3.47368" transform="rotate(-90 145.474 123.316)" fill="#B2B0FF"/>
<ellipse cx="161.684" cy="123.316" rx="3.47368" ry="3.47368" transform="rotate(-90 161.684 123.316)" fill="#B2B0FF"/>
<ellipse cx="177.895" cy="123.316" rx="3.47368" ry="3.47368" transform="rotate(-90 177.895 123.316)" fill="#B2B0FF"/>
<ellipse cx="194.105" cy="123.316" rx="3.47368" ry="3.47368" transform="rotate(-90 194.105 123.316)" fill="#B2B0FF"/>
<ellipse cx="-0.420847" cy="107.105" rx="3.47368" ry="3.47368" transform="rotate(-90 -0.420847 107.105)" fill="#B2B0FF"/>
<ellipse cx="15.7896" cy="107.105" rx="3.47368" ry="3.47368" transform="rotate(-90 15.7896 107.105)" fill="#B2B0FF"/>
<ellipse cx="32" cy="107.105" rx="3.47368" ry="3.47368" transform="rotate(-90 32 107.105)" fill="#B2B0FF"/>
<ellipse cx="48.2105" cy="107.105" rx="3.47368" ry="3.47368" transform="rotate(-90 48.2105 107.105)" fill="#B2B0FF"/>
<ellipse cx="64.421" cy="107.105" rx="3.47368" ry="3.47368" transform="rotate(-90 64.421 107.105)" fill="#B2B0FF"/>
<ellipse cx="80.6314" cy="107.105" rx="3.47368" ry="3.47368" transform="rotate(-90 80.6314 107.105)" fill="#B2B0FF"/>
<ellipse cx="96.8419" cy="107.105" rx="3.47368" ry="3.47368" transform="rotate(-90 96.8419 107.105)" fill="#B2B0FF"/>
<ellipse cx="113.053" cy="107.105" rx="3.47368" ry="3.47368" transform="rotate(-90 113.053 107.105)" fill="#B2B0FF"/>
<ellipse cx="129.263" cy="107.105" rx="3.47368" ry="3.47368" transform="rotate(-90 129.263 107.105)" fill="#B2B0FF"/>
<ellipse cx="145.474" cy="107.105" rx="3.47368" ry="3.47368" transform="rotate(-90 145.474 107.105)" fill="#B2B0FF"/>
<ellipse cx="161.684" cy="107.105" rx="3.47368" ry="3.47368" transform="rotate(-90 161.684 107.105)" fill="#B2B0FF"/>
<ellipse cx="177.895" cy="107.105" rx="3.47368" ry="3.47368" transform="rotate(-90 177.895 107.105)" fill="#B2B0FF"/>
<ellipse cx="194.106" cy="107.105" rx="3.47368" ry="3.47368" transform="rotate(-90 194.106 107.105)" fill="#B2B0FF"/>
<ellipse cx="-0.420847" cy="90.8948" rx="3.47368" ry="3.47368" transform="rotate(-90 -0.420847 90.8948)" fill="#B2B0FF"/>
<ellipse cx="15.7896" cy="90.8948" rx="3.47368" ry="3.47368" transform="rotate(-90 15.7896 90.8948)" fill="#B2B0FF"/>
<ellipse cx="32" cy="90.8948" rx="3.47368" ry="3.47368" transform="rotate(-90 32 90.8948)" fill="#B2B0FF"/>
<ellipse cx="48.2105" cy="90.8948" rx="3.47368" ry="3.47368" transform="rotate(-90 48.2105 90.8948)" fill="#B2B0FF"/>
<ellipse cx="64.421" cy="90.8948" rx="3.47368" ry="3.47368" transform="rotate(-90 64.421 90.8948)" fill="#B2B0FF"/>
<ellipse cx="80.6314" cy="90.8948" rx="3.47368" ry="3.47368" transform="rotate(-90 80.6314 90.8948)" fill="#B2B0FF"/>
<ellipse cx="96.8419" cy="90.8948" rx="3.47368" ry="3.47368" transform="rotate(-90 96.8419 90.8948)" fill="#B2B0FF"/>
<ellipse cx="113.053" cy="90.8948" rx="3.47368" ry="3.47368" transform="rotate(-90 113.053 90.8948)" fill="#B2B0FF"/>
<ellipse cx="129.263" cy="90.8948" rx="3.47368" ry="3.47368" transform="rotate(-90 129.263 90.8948)" fill="#B2B0FF"/>
<ellipse cx="145.474" cy="90.8948" rx="3.47368" ry="3.47368" transform="rotate(-90 145.474 90.8948)" fill="#B2B0FF"/>
<ellipse cx="161.684" cy="90.8948" rx="3.47368" ry="3.47368" transform="rotate(-90 161.684 90.8948)" fill="#B2B0FF"/>
<ellipse cx="177.895" cy="90.8948" rx="3.47368" ry="3.47368" transform="rotate(-90 177.895 90.8948)" fill="#B2B0FF"/>
<ellipse cx="194.106" cy="90.8948" rx="3.47368" ry="3.47368" transform="rotate(-90 194.106 90.8948)" fill="#B2B0FF"/>
<ellipse cx="-0.420847" cy="74.6843" rx="3.47368" ry="3.47368" transform="rotate(-90 -0.420847 74.6843)" fill="#B2B0FF"/>
<ellipse cx="15.7896" cy="74.6843" rx="3.47368" ry="3.47368" transform="rotate(-90 15.7896 74.6843)" fill="#B2B0FF"/>
<ellipse cx="32" cy="74.6843" rx="3.47368" ry="3.47368" transform="rotate(-90 32 74.6843)" fill="#B2B0FF"/>
<ellipse cx="48.2105" cy="74.6843" rx="3.47368" ry="3.47368" transform="rotate(-90 48.2105 74.6843)" fill="#B2B0FF"/>
<ellipse cx="64.421" cy="74.6843" rx="3.47368" ry="3.47368" transform="rotate(-90 64.421 74.6843)" fill="#B2B0FF"/>
<ellipse cx="80.6314" cy="74.6843" rx="3.47368" ry="3.47368" transform="rotate(-90 80.6314 74.6843)" fill="#B2B0FF"/>
<ellipse cx="96.8419" cy="74.6843" rx="3.47368" ry="3.47368" transform="rotate(-90 96.8419 74.6843)" fill="#B2B0FF"/>
<ellipse cx="113.053" cy="74.6843" rx="3.47368" ry="3.47368" transform="rotate(-90 113.053 74.6843)" fill="#B2B0FF"/>
<ellipse cx="129.263" cy="74.6843" rx="3.47368" ry="3.47368" transform="rotate(-90 129.263 74.6843)" fill="#B2B0FF"/>
<ellipse cx="145.474" cy="74.6843" rx="3.47368" ry="3.47368" transform="rotate(-90 145.474 74.6843)" fill="#B2B0FF"/>
<ellipse cx="161.684" cy="74.6843" rx="3.47368" ry="3.47368" transform="rotate(-90 161.684 74.6843)" fill="#B2B0FF"/>
<ellipse cx="177.895" cy="74.6842" rx="3.47368" ry="3.47368" transform="rotate(-90 177.895 74.6842)" fill="#B2B0FF"/>
<ellipse cx="194.106" cy="74.6842" rx="3.47368" ry="3.47368" transform="rotate(-90 194.106 74.6842)" fill="#B2B0FF"/>
<ellipse cx="-0.420847" cy="58.4737" rx="3.47368" ry="3.47368" transform="rotate(-90 -0.420847 58.4737)" fill="#B2B0FF"/>
<ellipse cx="15.7896" cy="58.4737" rx="3.47368" ry="3.47368" transform="rotate(-90 15.7896 58.4737)" fill="#B2B0FF"/>
<ellipse cx="32" cy="58.4737" rx="3.47368" ry="3.47368" transform="rotate(-90 32 58.4737)" fill="#B2B0FF"/>
<ellipse cx="48.2105" cy="58.4737" rx="3.47368" ry="3.47368" transform="rotate(-90 48.2105 58.4737)" fill="#B2B0FF"/>
<ellipse cx="64.421" cy="58.4737" rx="3.47368" ry="3.47368" transform="rotate(-90 64.421 58.4737)" fill="#B2B0FF"/>
<ellipse cx="80.6314" cy="58.4737" rx="3.47368" ry="3.47368" transform="rotate(-90 80.6314 58.4737)" fill="#B2B0FF"/>
<ellipse cx="96.8419" cy="58.4737" rx="3.47368" ry="3.47368" transform="rotate(-90 96.8419 58.4737)" fill="#B2B0FF"/>
<ellipse cx="113.053" cy="58.4737" rx="3.47368" ry="3.47368" transform="rotate(-90 113.053 58.4737)" fill="#B2B0FF"/>
<ellipse cx="129.263" cy="58.4737" rx="3.47368" ry="3.47368" transform="rotate(-90 129.263 58.4737)" fill="#B2B0FF"/>
<ellipse cx="145.474" cy="58.4737" rx="3.47368" ry="3.47368" transform="rotate(-90 145.474 58.4737)" fill="#B2B0FF"/>
<ellipse cx="161.684" cy="58.4737" rx="3.47368" ry="3.47368" transform="rotate(-90 161.684 58.4737)" fill="#B2B0FF"/>
<ellipse cx="177.895" cy="58.4737" rx="3.47368" ry="3.47368" transform="rotate(-90 177.895 58.4737)" fill="#B2B0FF"/>
<ellipse cx="194.105" cy="58.4737" rx="3.47368" ry="3.47368" transform="rotate(-90 194.105 58.4737)" fill="#B2B0FF"/>
</g>
<g opacity="0.15">
<ellipse cx="290.474" cy="1.78948" rx="3.47368" ry="3.47368" fill="#B2B0FF"/>
<ellipse cx="290.474" cy="18" rx="3.47368" ry="3.47368" fill="#B2B0FF"/>
<ellipse cx="290.474" cy="34.2105" rx="3.47368" ry="3.47368" fill="#B2B0FF"/>
<ellipse cx="290.474" cy="50.4211" rx="3.47368" ry="3.47368" fill="#B2B0FF"/>
<ellipse cx="290.474" cy="66.6316" rx="3.47368" ry="3.47368" fill="#B2B0FF"/>
<ellipse cx="290.474" cy="82.8421" rx="3.47368" ry="3.47368" fill="#B2B0FF"/>
<ellipse cx="290.474" cy="99.0527" rx="3.47368" ry="3.47368" fill="#B2B0FF"/>
<ellipse cx="290.474" cy="115.263" rx="3.47368" ry="3.47368" fill="#B2B0FF"/>
<ellipse cx="290.474" cy="131.474" rx="3.47368" ry="3.47368" fill="#B2B0FF"/>
<ellipse cx="290.474" cy="147.684" rx="3.47368" ry="3.47368" fill="#B2B0FF"/>
<ellipse cx="290.474" cy="163.895" rx="3.47368" ry="3.47368" fill="#B2B0FF"/>
<ellipse cx="290.474" cy="180.105" rx="3.47368" ry="3.47368" fill="#B2B0FF"/>
<ellipse cx="306.684" cy="1.78948" rx="3.47368" ry="3.47368" fill="#B2B0FF"/>
<ellipse cx="306.684" cy="18" rx="3.47368" ry="3.47368" fill="#B2B0FF"/>
<ellipse cx="306.684" cy="34.2105" rx="3.47368" ry="3.47368" fill="#B2B0FF"/>
<ellipse cx="306.684" cy="50.4211" rx="3.47368" ry="3.47368" fill="#B2B0FF"/>
<ellipse cx="306.684" cy="66.6316" rx="3.47368" ry="3.47368" fill="#B2B0FF"/>
<ellipse cx="306.684" cy="82.8421" rx="3.47368" ry="3.47368" fill="#B2B0FF"/>
<ellipse cx="306.684" cy="99.0527" rx="3.47368" ry="3.47368" fill="#B2B0FF"/>
<ellipse cx="306.684" cy="115.263" rx="3.47368" ry="3.47368" fill="#B2B0FF"/>
<ellipse cx="306.684" cy="131.474" rx="3.47368" ry="3.47368" fill="#B2B0FF"/>
<ellipse cx="306.684" cy="147.684" rx="3.47368" ry="3.47368" fill="#B2B0FF"/>
<ellipse cx="306.684" cy="163.895" rx="3.47368" ry="3.47368" fill="#B2B0FF"/>
<ellipse cx="306.684" cy="180.105" rx="3.47368" ry="3.47368" fill="#B2B0FF"/>
<ellipse cx="322.895" cy="1.78948" rx="3.47368" ry="3.47368" fill="#B2B0FF"/>
<ellipse cx="322.895" cy="18" rx="3.47368" ry="3.47368" fill="#B2B0FF"/>
<ellipse cx="322.895" cy="34.2105" rx="3.47368" ry="3.47368" fill="#B2B0FF"/>
<ellipse cx="322.895" cy="50.4211" rx="3.47368" ry="3.47368" fill="#B2B0FF"/>
<ellipse cx="322.895" cy="66.6316" rx="3.47368" ry="3.47368" fill="#B2B0FF"/>
<ellipse cx="322.895" cy="82.8421" rx="3.47368" ry="3.47368" fill="#B2B0FF"/>
<ellipse cx="322.895" cy="99.0527" rx="3.47368" ry="3.47368" fill="#B2B0FF"/>
<ellipse cx="322.895" cy="115.263" rx="3.47368" ry="3.47368" fill="#B2B0FF"/>
<ellipse cx="322.895" cy="131.474" rx="3.47368" ry="3.47368" fill="#B2B0FF"/>
<ellipse cx="322.895" cy="147.684" rx="3.47368" ry="3.47368" fill="#B2B0FF"/>
<ellipse cx="322.895" cy="163.895" rx="3.47368" ry="3.47368" fill="#B2B0FF"/>
<ellipse cx="322.895" cy="180.105" rx="3.47368" ry="3.47368" fill="#B2B0FF"/>
<ellipse cx="339.105" cy="1.78948" rx="3.47368" ry="3.47368" fill="#B2B0FF"/>
<ellipse cx="339.105" cy="18" rx="3.47368" ry="3.47368" fill="#B2B0FF"/>
<ellipse cx="339.105" cy="34.2105" rx="3.47368" ry="3.47368" fill="#B2B0FF"/>
<ellipse cx="339.105" cy="50.4211" rx="3.47368" ry="3.47368" fill="#B2B0FF"/>
<ellipse cx="339.105" cy="66.6316" rx="3.47368" ry="3.47368" fill="#B2B0FF"/>
<ellipse cx="339.105" cy="82.8421" rx="3.47368" ry="3.47368" fill="#B2B0FF"/>
<ellipse cx="339.105" cy="99.0527" rx="3.47368" ry="3.47368" fill="#B2B0FF"/>
<ellipse cx="339.105" cy="115.263" rx="3.47368" ry="3.47368" fill="#B2B0FF"/>
<ellipse cx="339.105" cy="131.474" rx="3.47368" ry="3.47368" fill="#B2B0FF"/>
<ellipse cx="339.105" cy="147.684" rx="3.47368" ry="3.47368" fill="#B2B0FF"/>
<ellipse cx="339.105" cy="163.895" rx="3.47368" ry="3.47368" fill="#B2B0FF"/>
<ellipse cx="339.105" cy="180.105" rx="3.47368" ry="3.47368" fill="#B2B0FF"/>
<ellipse cx="355.316" cy="1.78948" rx="3.47368" ry="3.47368" fill="#B2B0FF"/>
<ellipse cx="355.316" cy="18" rx="3.47368" ry="3.47368" fill="#B2B0FF"/>
<ellipse cx="355.316" cy="34.2105" rx="3.47368" ry="3.47368" fill="#B2B0FF"/>
<ellipse cx="355.316" cy="50.4211" rx="3.47368" ry="3.47368" fill="#B2B0FF"/>
<ellipse cx="355.316" cy="66.6316" rx="3.47368" ry="3.47368" fill="#B2B0FF"/>
<ellipse cx="355.316" cy="82.8421" rx="3.47368" ry="3.47368" fill="#B2B0FF"/>
<ellipse cx="355.316" cy="99.0527" rx="3.47368" ry="3.47368" fill="#B2B0FF"/>
<ellipse cx="355.316" cy="115.263" rx="3.47368" ry="3.47368" fill="#B2B0FF"/>
<ellipse cx="355.316" cy="131.474" rx="3.47368" ry="3.47368" fill="#B2B0FF"/>
<ellipse cx="355.316" cy="147.684" rx="3.47368" ry="3.47368" fill="#B2B0FF"/>
<ellipse cx="355.316" cy="163.895" rx="3.47368" ry="3.47368" fill="#B2B0FF"/>
<ellipse cx="355.316" cy="180.105" rx="3.47368" ry="3.47368" fill="#B2B0FF"/>
<ellipse cx="371.526" cy="1.78948" rx="3.47368" ry="3.47368" fill="#B2B0FF"/>
<ellipse cx="371.526" cy="18" rx="3.47368" ry="3.47368" fill="#B2B0FF"/>
<ellipse cx="371.526" cy="34.2105" rx="3.47368" ry="3.47368" fill="#B2B0FF"/>
<ellipse cx="371.526" cy="50.4211" rx="3.47368" ry="3.47368" fill="#B2B0FF"/>
<ellipse cx="371.526" cy="66.6316" rx="3.47368" ry="3.47368" fill="#B2B0FF"/>
<ellipse cx="371.526" cy="82.8421" rx="3.47368" ry="3.47368" fill="#B2B0FF"/>
<ellipse cx="371.526" cy="99.0527" rx="3.47368" ry="3.47368" fill="#B2B0FF"/>
<ellipse cx="371.526" cy="115.263" rx="3.47368" ry="3.47368" fill="#B2B0FF"/>
<ellipse cx="371.526" cy="131.474" rx="3.47368" ry="3.47368" fill="#B2B0FF"/>
<ellipse cx="371.526" cy="147.684" rx="3.47368" ry="3.47368" fill="#B2B0FF"/>
<ellipse cx="371.526" cy="163.895" rx="3.47368" ry="3.47368" fill="#B2B0FF"/>
<ellipse cx="371.526" cy="180.105" rx="3.47368" ry="3.47368" fill="#B2B0FF"/>
</g>
</g>
</svg>
