<svg width="24" height="24" viewBox="0 0 24 24" fill="none" xmlns="http://www.w3.org/2000/svg">
<rect width="24" height="24" rx="12" fill="#FFEEEE"/>
<g clip-path="url(#clip0_24673_14034)">
<path d="M16.5661 8.61723H14.5985L14.6247 8.61244C14.6647 8.60544 14.8044 8.46421 14.8386 8.44244C14.8728 8.42066 14.9024 8.39235 14.9257 8.35912C14.949 8.32589 14.9655 8.2884 14.9742 8.24879C14.983 8.20918 14.9839 8.16823 14.9768 8.12829L14.8619 7.2412C14.8549 7.20124 14.8401 7.16306 14.8184 7.12883C14.7966 7.09461 14.7683 7.06501 14.735 7.04174C14.7018 7.01846 14.6643 7.00197 14.6247 6.99321C14.5851 6.98444 14.5441 6.98357 14.5042 6.99065L12.2098 8.09353C12.0732 8.13737 11.9263 8.13737 11.7896 8.09353L9.49503 6.99065C9.45508 6.9836 9.41414 6.98449 9.37454 6.99326C9.33495 7.00204 9.29746 7.01853 9.26424 7.0418C9.23102 7.06507 9.20271 7.09466 9.18092 7.12887C9.15914 7.16308 9.14431 7.20125 9.13728 7.2412L9.02244 8.12829C9.00825 8.20895 9.02667 8.29194 9.07366 8.35903C9.12064 8.42611 9.3132 8.51724 9.46717 8.61244L9.4934 8.61723H7.43374C7.29219 8.61723 7.15644 8.67344 7.05633 8.77352C6.95622 8.87359 6.89995 9.00932 6.8999 9.15087V9.50326C6.89985 9.57339 6.91362 9.64285 6.94043 9.70767C6.96723 9.77248 7.00655 9.83137 7.05613 9.88099C7.1057 9.9306 7.16457 9.96995 7.22936 9.99681C7.29416 10.0237 7.36361 10.0375 7.43374 10.0375H16.5661C16.6362 10.0375 16.7056 10.0237 16.7704 9.99681C16.8352 9.96995 16.8941 9.9306 16.9437 9.88099C16.9933 9.83137 17.0326 9.77248 17.0594 9.70767C17.0862 9.64285 17.1 9.57339 17.0999 9.50326V9.15087C17.0999 9.00932 17.0436 8.87359 16.9435 8.77352C16.8434 8.67344 16.7076 8.61723 16.5661 8.61723Z" fill="#FD634E"/>
<path d="M8.01968 10.8528H11.5238C11.5238 10.8528 11.5238 11.0307 11.5238 11.3866V16.4802C11.5238 16.8361 11.5238 17.014 11.5238 17.014H8.01968C7.66379 17.014 7.48584 16.8361 7.48584 16.4802V11.3866C7.48584 11.0307 7.66379 10.8528 8.01968 10.8528Z" fill="#FD634E"/>
<path d="M12.4762 10.8528H15.9802C16.3361 10.8528 16.514 11.0307 16.514 11.3866V16.4802C16.514 16.8361 16.3361 17.014 15.9802 17.014H12.4762C12.4762 17.014 12.4761 16.8361 12.4761 16.4802V11.3866C12.4761 11.0307 12.4762 10.8528 12.4762 10.8528Z" fill="#FD634E"/>
</g>
<defs>
<clipPath id="clip0_24673_14034">
<rect width="12" height="12" fill="white" transform="translate(6 6)"/>
</clipPath>
</defs>
</svg>
