<svg width="49" height="48" viewBox="0 0 49 48" fill="none" xmlns="http://www.w3.org/2000/svg">
<path d="M11.4167 24C11.4167 22.5388 11.6661 21.137 12.1074 19.8233L4.3599 14.032C2.8033 17.1242 1.99496 20.5385 1.99996 24C1.99996 27.5822 2.84801 30.9612 4.35607 33.9604L12.0997 28.1595C11.6482 26.8191 11.4175 25.4143 11.4167 24Z" fill="#FBBC05"/>
<path d="M25.0237 10.7048C28.2662 10.7048 31.196 11.8286 33.4983 13.6695L40.1964 7.12453C36.1154 3.64779 30.8832 1.5 25.0237 1.5C15.9254 1.5 8.10501 6.59141 4.3598 14.032L12.1112 19.8233C13.8955 14.5191 18.9838 10.7048 25.0237 10.7048Z" fill="#EA4335"/>
<path d="M25.0237 37.295C18.9818 37.295 13.8936 33.4808 12.1073 28.1765L4.3598 33.9679C8.10309 41.4084 15.9235 46.4999 25.0237 46.4999C30.6376 46.4999 35.9983 44.5496 40.0237 40.8926L32.6676 35.3275C30.5935 36.6066 27.9803 37.295 25.0217 37.295" fill="#34A853"/>
<path d="M47.0001 23.9998C47.0001 22.6709 46.789 21.2384 46.4763 19.9094H25.0219V28.6022H37.3703C36.7545 31.5669 35.0737 33.8451 32.6697 35.3275L40.0238 40.8926C44.2506 37.0534 47.0001 31.3349 47.0001 23.9998Z" fill="#4285F4"/>
</svg>
