<svg width="65" height="65" viewBox="0 0 65 65" fill="none" xmlns="http://www.w3.org/2000/svg">
<path d="M29.8451 62.25C37.3797 62.25 44.2592 61.0009 49.3014 58.9348C51.8195 57.903 53.9398 56.6428 55.4503 55.1795C56.9646 53.7125 57.9402 51.9619 57.9402 50C57.9402 48.0381 56.9646 46.2875 55.4503 44.8205C53.9398 43.3572 51.8195 42.097 49.3014 41.0652C44.2592 38.9991 37.3797 37.75 29.8451 37.75C22.3105 37.75 15.431 38.9991 10.3888 41.0652C7.87071 42.097 5.75036 43.3572 4.23986 44.8205C2.72562 46.2875 1.75 48.0381 1.75 50C1.75 51.9619 2.72562 53.7125 4.23986 55.1795C5.75036 56.6428 7.87071 57.903 10.3888 58.9348C15.431 61.0009 22.3105 62.25 29.8451 62.25Z" fill="#dcdee1" stroke="white" stroke-width="2.5"/>
<path d="M29.8451 50.25C37.3797 50.25 44.2592 49.0009 49.3014 46.9348C51.8195 45.903 53.9398 44.6428 55.4503 43.1795C56.9646 41.7125 57.9402 39.9619 57.9402 38C57.9402 36.0381 56.9646 34.2875 55.4503 32.8205C53.9398 31.3572 51.8195 30.097 49.3014 29.0652C44.2592 26.9991 37.3797 25.75 29.8451 25.75C22.3105 25.75 15.431 26.9991 10.3888 29.0652C7.87071 30.097 5.75036 31.3572 4.23986 32.8205C2.72562 34.2875 1.75 36.0381 1.75 38C1.75 39.9619 2.72562 41.7125 4.23986 43.1795C5.75036 44.6428 7.87071 45.903 10.3888 46.9348C15.431 49.0009 22.3105 50.25 29.8451 50.25Z" fill="#dcdee1" stroke="white" stroke-width="2.5"/>
<path d="M29.8451 38.25C37.3797 38.25 44.2592 37.0009 49.3014 34.9348C51.8195 33.903 53.9398 32.6428 55.4503 31.1795C56.9646 29.7125 57.9402 27.9619 57.9402 26C57.9402 24.0381 56.9646 22.2875 55.4503 20.8205C53.9398 19.3572 51.8195 18.097 49.3014 17.0652C44.2592 14.9991 37.3797 13.75 29.8451 13.75C22.3105 13.75 15.431 14.9991 10.3888 17.0652C7.87071 18.097 5.75036 19.3572 4.23986 20.8205C2.72562 22.2875 1.75 24.0381 1.75 26C1.75 27.9619 2.72562 29.7125 4.23986 31.1795C5.75036 32.6428 7.87071 33.903 10.3888 34.9348C15.431 37.0009 22.3105 38.25 29.8451 38.25Z" fill="#dcdee1" stroke="white" stroke-width="2.5"/>
<path d="M29.8451 26.25C37.3797 26.25 44.2592 25.0009 49.3014 22.9348C51.8195 21.903 53.9398 20.6428 55.4503 19.1795C56.9646 17.7125 57.9402 15.9619 57.9402 14C57.9402 12.0381 56.9646 10.2875 55.4503 8.82052C53.9398 7.35718 51.8195 6.09697 49.3014 5.06516C44.2592 2.99907 37.3797 1.75 29.8451 1.75C22.3105 1.75 15.431 2.99907 10.3888 5.06516C7.87071 6.09697 5.75036 7.35718 4.23986 8.82052C2.72562 10.2875 1.75 12.0381 1.75 14C1.75 15.9619 2.72562 17.7125 4.23986 19.1795C5.75036 20.6428 7.87071 21.903 10.3888 22.9348C15.431 25.0009 22.3105 26.25 29.8451 26.25Z" fill="#dcdee1" stroke="white" stroke-width="2.5"/>
<ellipse cx="48.3286" cy="47.4163" rx="16.211" ry="15.7342" fill="white"/>
<path d="M64.0621 59.7707C65.1176 61.1821 64.3092 62.7837 62.7508 63.3032C61.7995 63.6203 60.232 62.6286 59.6194 62.0037L54.9075 57.8004C53.651 58.5447 52.316 59.0811 50.9024 59.4095C49.4889 59.7379 48.0753 59.8583 46.6617 59.7707C45.2481 59.6831 43.8682 59.3438 42.522 58.7527C41.1757 58.1616 39.9641 57.3188 38.8871 56.2242C37.6306 54.9982 36.6882 53.608 36.0599 52.0537C35.4317 50.4993 35.1176 48.9121 35.1176 47.2921C35.1176 45.6721 35.4317 44.0849 36.0599 42.5305C36.6882 40.9762 37.6306 39.586 38.8871 38.36C40.0987 37.1341 41.4898 36.2146 43.0605 35.6016C44.6311 34.9886 46.2242 34.6821 47.8397 34.6821C49.4552 34.6821 51.0483 34.9886 52.6189 35.6016C54.1895 36.2146 55.6031 37.1341 56.8596 38.36C57.9366 39.4546 58.778 40.6806 59.3838 42.0379C59.9897 43.3953 60.3487 44.7745 60.4608 46.1756C60.573 47.5767 60.4608 48.9778 60.1243 50.3789C59.7877 51.78 59.238 53.0717 58.4751 54.2538L61.033 56.7496C61.7061 57.4063 62.3344 58.0303 62.9178 58.6214C63.5011 59.2125 63.8826 59.5956 64.0621 59.7707ZM47.9743 55.6987C49.1411 55.6987 50.2405 55.4798 51.2726 55.042C52.3048 54.6041 53.2023 54.0021 53.9652 53.2359C54.728 52.4696 55.3338 51.572 55.7826 50.5431C56.2314 49.5142 56.4557 48.4086 56.4557 47.2264C56.4557 46.0442 56.2314 44.9496 55.7826 43.9426C55.3338 42.9355 54.728 42.0489 53.9652 41.2827C53.2023 40.5164 52.3048 39.9144 51.2726 39.4765C50.2405 39.0387 49.1411 38.8198 47.9743 38.8198C46.8076 38.8198 45.7081 39.0387 44.676 39.4765C43.6438 39.9144 42.7463 40.5164 41.9835 41.2827C41.2206 42.0489 40.6148 42.9355 40.166 43.9426C39.7173 44.9496 39.4929 46.0442 39.4929 47.2264C39.4929 48.4086 39.7173 49.5142 40.166 50.5431C40.6148 51.572 41.2206 52.4696 41.9835 53.2359C42.7463 54.0021 43.6438 54.6041 44.676 55.042C45.7081 55.4798 46.8076 55.6987 47.9743 55.6987Z" fill="#dcdee1"/>
</svg>
