<svg width="16" height="16" viewBox="0 0 16 16" fill="none" xmlns="http://www.w3.org/2000/svg">
<path fill-rule="evenodd" clip-rule="evenodd" d="M3.375 4.14583C3.375 2.51199 4.69949 1.1875 6.33333 1.1875C7.96718 1.1875 9.29167 2.51199 9.29167 4.14583C9.29167 5.77968 7.96718 7.10417 6.33333 7.10417C4.69949 7.10417 3.375 5.77968 3.375 4.14583ZM6.33333 2.4375C5.38985 2.4375 4.625 3.20235 4.625 4.14583C4.625 5.08932 5.38984 5.85417 6.33333 5.85417C7.27682 5.85417 8.04167 5.08932 8.04167 4.14583C8.04167 3.20235 7.27682 2.4375 6.33333 2.4375Z" fill="#55585e"/>
<path fill-rule="evenodd" clip-rule="evenodd" d="M10.3339 1.82294C10.5121 1.52729 10.8962 1.43203 11.1918 1.61018C12.0493 2.12687 12.625 3.06865 12.625 4.14551C12.625 5.22237 12.0493 6.16415 11.1918 6.68084C10.8962 6.85899 10.5121 6.76373 10.3339 6.46808C10.1558 6.17243 10.251 5.78833 10.5467 5.61018C11.0444 5.31027 11.375 4.76619 11.375 4.14551C11.375 3.52483 11.0444 2.98075 10.5467 2.68084C10.251 2.50268 10.1558 2.11859 10.3339 1.82294Z" fill="#55585e"/>
<path fill-rule="evenodd" clip-rule="evenodd" d="M5.57308 8.50781H7.09361C7.8175 8.50781 8.39882 8.5078 8.86902 8.54622C9.35234 8.5857 9.77304 8.66887 10.161 8.86656C10.7804 9.18215 11.284 9.68573 11.5996 10.3051C11.7973 10.6931 11.8805 11.1138 11.9199 11.5971C11.9584 12.0673 11.9583 12.6486 11.9583 13.3725V13.7995C11.9583 14.1447 11.6785 14.4245 11.3333 14.4245H1.33334C0.988166 14.4245 0.708344 14.1447 0.708344 13.7995L0.708344 13.3725C0.708338 12.6487 0.708333 12.0673 0.746751 11.5971C0.78624 11.1138 0.869415 10.6931 1.06711 10.3051C1.38269 9.68574 1.88625 9.18216 2.50562 8.86657C2.89363 8.66888 3.31434 8.5857 3.79766 8.54622C4.26787 8.5078 4.84919 8.50781 5.57308 8.50781ZM3.0731 9.98033C2.68895 10.1761 2.37661 10.4884 2.18087 10.8726C2.08792 11.055 2.02577 11.2929 1.9926 11.6989C1.96228 12.07 1.95879 12.5353 1.95839 13.1745H10.7083C10.7079 12.5353 10.7044 12.07 10.6741 11.6989C10.6409 11.2929 10.5788 11.055 10.4858 10.8726C10.2901 10.4884 9.97773 10.1761 9.59356 9.98032C9.41114 9.88738 9.17325 9.82524 8.76724 9.79207C8.35392 9.7583 7.82372 9.75781 7.06668 9.75781H5.60001C4.84296 9.75781 4.31277 9.7583 3.89945 9.79207C3.49344 9.82524 3.25553 9.88739 3.0731 9.98033Z" fill="#55585e"/>
<path d="M12.6537 9.14009C12.8104 8.83254 13.1868 8.71025 13.4944 8.86696C14.1137 9.18254 14.6173 9.68608 14.9329 10.3055C15.1306 10.6935 15.2137 11.1142 15.2532 11.5975C15.2916 12.0677 15.2916 12.649 15.2916 13.3729V13.7998C15.2916 14.145 15.0118 14.4248 14.6666 14.4248C14.3215 14.4248 14.0416 14.145 14.0416 13.7998V13.3998C14.0416 12.6428 14.0412 12.1126 14.0074 11.6993C13.9206 11.2448 13.4699 10.3763 12.985 10.0978C12.5071 9.82332 12.5078 9.328 12.6537 9.14009Z" fill="#55585e"/>
</svg>
