<svg width="29" height="28" viewBox="0 0 29 28" fill="none" xmlns="http://www.w3.org/2000/svg">
<rect x="0.5" y="0.25" width="27.5" height="27.5" rx="13.75" fill="#F7F7F9"/>
<path d="M9.0167 13.9999C9.0167 13.4154 9.11647 12.8547 9.29298 12.3292L6.19398 10.0127C5.57134 11.2496 5.24801 12.6153 5.25001 13.9999C5.25001 15.4328 5.58923 16.7844 6.19245 17.9841L9.28991 15.6637C9.10931 15.1275 9.01703 14.5656 9.0167 13.9999Z" fill="#FBBC05"/>
<path d="M14.4595 8.68192C15.7565 8.68192 16.9284 9.13142 17.8494 9.86781L20.5286 7.24981C18.8962 5.85912 16.8033 5 14.4595 5C10.8202 5 7.69205 7.03656 6.19397 10.0128L9.29451 12.3293C10.0082 10.2076 12.0435 8.68192 14.4595 8.68192Z" fill="#EA4335"/>
<path d="M14.4595 19.3181C12.0428 19.3181 10.0075 17.7924 9.29297 15.6707L6.19397 17.9872C7.69128 20.9634 10.8194 23 14.4595 23C16.7051 23 18.8494 22.2199 20.4595 20.7571L17.5171 18.531C16.6874 19.0427 15.6422 19.3181 14.4587 19.3181" fill="#34A853"/>
<path d="M23.25 13.9999C23.25 13.4683 23.1656 12.8953 23.0405 12.3638H14.4587V15.8409H19.3981C19.1518 17.0268 18.4795 17.938 17.5178 18.531L20.4595 20.757C22.1502 19.2214 23.25 16.934 23.25 13.9999Z" fill="#4285F4"/>
<rect x="0.5" y="0.25" width="27.5" height="27.5" rx="13.75" stroke="#DEE2E8" stroke-width="0.5"/>
</svg>
