<svg width="32" height="32" viewBox="0 0 32 32" fill="none" xmlns="http://www.w3.org/2000/svg">
<rect width="32" height="32" rx="16" fill="#E7F0FC"/>
<path fill-rule="evenodd" clip-rule="evenodd" d="M11.6175 8H20.1794C20.8887 8 21.4637 8.53726 21.4637 9.2V22.8C21.4637 23.4627 20.8887 24 20.1794 24H11.6175C10.9082 24 10.3333 23.4627 10.3333 22.8V9.2C10.3333 8.53726 10.9082 8 11.6175 8ZM15.2028 20.8696C14.8186 20.8696 14.5072 21.181 14.5072 21.5652C14.5072 21.9494 14.8186 22.2609 15.2028 22.2609H16.5941C16.9783 22.2609 17.2898 21.9494 17.2898 21.5652C17.2898 21.181 16.9783 20.8696 16.5941 20.8696H15.2028Z" fill="#5B8EF4"/>
<rect x="11.7246" y="9.39136" width="8.34783" height="10.087" rx="1" fill="#BDD4FF"/>
</svg>
