<svg width="29" height="28" viewBox="0 0 29 28" fill="none" xmlns="http://www.w3.org/2000/svg">
<rect x="0.5" y="0.25" width="27.5" height="27.5" rx="13.75" fill="#F7F7F9"/>
<path d="M19.3928 14.5124C19.3841 13.0369 20.0526 11.925 21.4026 11.105C20.6475 10.0233 19.5053 9.42842 17.9996 9.31376C16.5739 9.20127 15.0141 10.1445 14.443 10.1445C13.8394 10.1445 12.4592 9.3527 11.3731 9.3527C9.13188 9.38732 6.75 11.1397 6.75 14.7049C6.75 15.7585 6.94254 16.8466 7.32762 17.9673C7.84251 19.4427 9.69868 23.0577 11.6349 22.9993C12.6474 22.9755 13.3634 22.281 14.6809 22.281C15.9595 22.281 16.6215 22.9993 17.7508 22.9993C19.7043 22.9712 21.3831 19.685 21.872 18.2052C19.2522 16.97 19.3928 14.5881 19.3928 14.5124Z" fill="black"/>
<path d="M17.1191 7.91407C18.2159 6.61172 18.1164 5.42619 18.0839 5C17.1147 5.05625 15.9941 5.65983 15.3559 6.40187C14.6528 7.19799 14.2396 8.18233 14.3283 9.29214C15.3754 9.37219 16.3316 8.8335 17.1191 7.91407Z" fill="black"/>
<rect x="0.5" y="0.25" width="27.5" height="27.5" rx="13.75" stroke="#DEE2E8" stroke-width="0.5"/>
</svg>
