<svg width="32" height="33" viewBox="0 0 32 33" fill="none" xmlns="http://www.w3.org/2000/svg">
<path d="M32 16.5C32 25.3366 24.8366 32.5 16 32.5C7.16344 32.5 0 25.3366 0 16.5C0 7.66344 7.16344 0.5 16 0.5C24.8366 0.5 32 7.66344 32 16.5Z" fill="#DEE2E8"/>
<path d="M31.5556 16.4999C31.5556 25.091 24.5911 32.0554 16 32.0554C7.4089 32.0554 0.444443 25.091 0.444443 16.4999C0.444443 7.90879 7.4089 0.944336 16 0.944336C24.5911 0.944336 31.5556 7.90879 31.5556 16.4999Z" fill="#F7F7F9"/>
<g clip-path="url(#clip0_13423_1835)">
<path d="M24.8889 16.5C24.8889 21.4092 20.9092 25.3889 16 25.3889C11.0908 25.3889 7.11111 21.4092 7.11111 16.5C7.11111 11.5908 11.0908 7.61108 16 7.61108C20.9092 7.61108 24.8889 11.5908 24.8889 16.5ZM16.3186 14.1733C15.4541 14.5329 13.7261 15.2772 11.1348 16.4061C10.714 16.5735 10.4936 16.7372 10.4735 16.8972C10.4396 17.1677 10.7784 17.2743 11.2397 17.4193C11.3024 17.4391 11.3675 17.4595 11.4341 17.4812C11.888 17.6287 12.4985 17.8013 12.8159 17.8081C13.1038 17.8144 13.4251 17.6957 13.7798 17.4521C16.2009 15.8178 17.4507 14.9917 17.5292 14.9739C17.5846 14.9613 17.6613 14.9455 17.7133 14.9917C17.7652 15.0379 17.7601 15.1254 17.7546 15.1489C17.7211 15.2919 16.3913 16.5282 15.7031 17.168C15.4886 17.3674 15.3364 17.5089 15.3053 17.5412C15.2356 17.6136 15.1646 17.682 15.0964 17.7478C14.6747 18.1543 14.3585 18.4591 15.1139 18.9569C15.4769 19.1961 15.7673 19.3939 16.0571 19.5912C16.3736 19.8067 16.6892 20.0217 17.0976 20.2894C17.2016 20.3576 17.301 20.4284 17.3978 20.4974C17.7661 20.76 18.0969 20.9958 18.5057 20.9582C18.7432 20.9364 18.9886 20.713 19.1132 20.0469C19.4077 18.4727 19.9865 15.0618 20.1203 13.6562C20.132 13.5331 20.1172 13.3755 20.1054 13.3063C20.0935 13.2371 20.0688 13.1386 19.9789 13.0656C19.8724 12.9792 19.708 12.961 19.6344 12.9623C19.3001 12.9681 18.7872 13.1465 16.3186 14.1733Z" fill="#4DA2E2"/>
</g>
<defs>
<clipPath id="clip0_13423_1835">
<rect width="17.7778" height="17.7778" fill="white" transform="translate(7.11111 7.61108)"/>
</clipPath>
</defs>
</svg>
