<svg width="32" height="32" viewBox="0 0 32 32" fill="none" xmlns="http://www.w3.org/2000/svg">
<path d="M27.0877 6.03387H1.82459L1.82459 19.622L9.96494 11.227L16.4213 17.4973C16.0582 18.4729 15.8597 19.5287 15.8597 20.6308C15.8597 23.0229 16.7947 25.1967 18.3192 26.8065H1.82459C0.894428 26.8065 0.140381 26.0524 0.140381 25.1222V6.03387C0.140381 5.10368 0.894428 4.34961 1.82459 4.34961H27.0877C28.0179 4.34961 28.772 5.10368 28.772 6.03387V12.5511C28.238 12.2909 27.6745 12.0821 27.0877 11.9311V6.03387Z" fill="#25272A"/>
<path d="M31.8596 20.633C31.8596 24.5087 28.7177 27.6508 24.842 27.6508C20.9663 27.6508 17.8245 24.5087 17.8245 20.633C17.8245 16.7573 20.9663 13.6152 24.842 13.6152C28.7177 13.6152 31.8596 16.7573 31.8596 20.633ZM23.8907 17.0134L24.1123 21.224C24.128 21.522 24.3743 21.7558 24.6729 21.7558H25.0111C25.3097 21.7558 25.556 21.522 25.5717 21.224L25.7934 17.0134C25.8103 16.6921 25.5544 16.4223 25.2328 16.4223H24.4512C24.1296 16.4223 23.8737 16.6921 23.8907 17.0134ZM24.842 24.5629C25.4621 24.5629 25.9648 24.0602 25.9648 23.4401C25.9648 22.82 25.4621 22.3173 24.842 22.3173C24.2219 22.3173 23.7192 22.82 23.7192 23.4401C23.7192 24.0602 24.2219 24.5629 24.842 24.5629Z" fill="#25272A"/>
</svg>
