
<svg width="16px" height="16px" viewBox="0 0 16 16" version="1.1" xmlns="http://www.w3.org/2000/svg" xmlns:xlink="http://www.w3.org/1999/xlink">
    
    <g id="gfjtwlflss" stroke="none" stroke-width="1" fill="none" fill-rule="evenodd">
        <g id="kulwyzlrls" transform="translate(-40.000000, -351.000000)">
            <g id="bxgjfijjdr" transform="translate(20.000000, 121.000000)">
                <g id="iknrombppo" transform="translate(0.000000, 218.000000)">
                    <g id="thfdjxuefz" transform="translate(20.000000, 12.000000)">
                        <rect id="jbenhqwdvg" x="0" y="0" width="16" height="16"></rect>
                        <path d="M7.88208556,10.9630682 C7.94197861,11.0446023 8.05802139,11.0446023 8.11791444,10.9630682 L10.2141711,8.14517045 C10.2909091,8.04176136 10.2216578,7.88863636 10.0962567,7.88863636 L8.70935829,7.88863636 L8.70935829,1.15909091 C8.70935829,1.07159091 8.64197861,1 8.55962567,1 L7.43663102,1 C7.35427807,1 7.2868984,1.07159091 7.2868984,1.15909091 L7.2868984,7.88664773 L5.90374332,7.88664773 C5.77834225,7.88664773 5.70909091,8.03977273 5.78582888,8.14318182 L7.88208556,10.9630682 Z M14.8502674,10.2670455 L13.7272727,10.2670455 C13.6449198,10.2670455 13.5775401,10.3386364 13.5775401,10.4261364 L13.5775401,13.4886364 L2.42245989,13.4886364 L2.42245989,10.4261364 C2.42245989,10.3386364 2.35508021,10.2670455 2.27272727,10.2670455 L1.14973262,10.2670455 C1.06737968,10.2670455 1,10.3386364 1,10.4261364 L1,14.3636364 C1,14.715625 1.26764706,15 1.59893048,15 L14.4010695,15 C14.7323529,15 15,14.715625 15,14.3636364 L15,10.4261364 C15,10.3386364 14.9326203,10.2670455 14.8502674,10.2670455 Z" id="ecnzbwfczc" fill="#55585e"></path>
                    </g>
                </g>
            </g>
        </g>
    </g>
</svg>
