
<svg width="48px" height="48px" viewBox="0 0 48 48" version="1.1" xmlns="http://www.w3.org/2000/svg" xmlns:xlink="http://www.w3.org/1999/xlink">
    
    <g id="qiuvlyhpkp" stroke="none" stroke-width="1" fill="none" fill-rule="evenodd">
        <g transform="translate(-371.000000, -254.000000)" id="exuwnympov">
            <g transform="translate(200.000000, 190.000000)">
                <g id="nntombzdoy" transform="translate(171.000000, 64.000000)">
                    <rect id="odesnemuwo" stroke="#979797" fill="#D8D8D8" opacity="0" x="0.5" y="0.5" width="47" height="47"></rect>
                    <g id="xinzxhwehg" transform="translate(8.000000, 8.000000)" fill="#55585e">
                        <path d="M2.08432282,26.2895265 L29.8943286,26.2895265 C31.2838772,26.2895265 31.9786514,26.9843008 31.9786514,28.3738494 L31.9786514,29.9156772 C31.9786514,31.3052257 31.2838772,32 29.8943286,32 L2.08432282,32 C0.694774272,32 -1.70530257e-13,31.3052257 -1.70530257e-13,29.9156772 L-1.70530257e-13,28.3738494 C-1.70530257e-13,26.9843008 0.694774272,26.2895265 2.08432282,26.2895265 Z" id="skyfobegxv"></path>
                        <path d="M17.8566506,21.8125153 L24.9433481,13.1554375 C25.0924003,12.9756127 25.1234641,12.7256 25.0229507,12.5147669 C24.9224372,12.3039338 24.7086421,12.1706563 24.4750893,12.1732361 L21.3628812,12.1732361 C21.3628812,2.06569807 12.374596,0.261188447 7.52640403,0.0213485616 C7.21102329,-0.0653811349 6.88504838,0.119977153 6.79831868,0.435357887 C6.71158898,0.750738621 6.89694726,1.07671354 7.21232799,1.16344324 C10.8156367,3.09929376 12.4031484,6.38852647 12.591594,11.545084 C12.593118,11.7050949 12.5306195,11.8590765 12.4180071,11.9727614 C12.3053948,12.0864463 12.1520124,12.1504015 11.9919943,12.1503942 L9.50222785,12.1503942 C9.2605931,12.1418657 9.03747898,12.279302 8.93639438,12.4989426 C8.83530979,12.7185832 8.87603621,12.9774461 9.03967952,13.1554375 L16.1263771,21.8353572 C16.34664,22.0842645 16.6644065,22.2248717 16.9967488,22.220584 C17.329091,22.216097 17.643035,22.0671504 17.8566506,21.8125153 L17.8566506,21.8125153 Z" id="pqbqsglvfl"></path>
                    </g>
                </g>
            </g>
        </g>
    </g>
</svg>
