
<svg width="66px" height="58px" viewBox="0 0 66 58" version="1.1" xmlns="http://www.w3.org/2000/svg" xmlns:xlink="http://www.w3.org/1999/xlink">
    
    <g id="twitzcyyht" stroke="none" stroke-width="1" fill="none" fill-rule="evenodd">
        <g id="qyqwqporeh" transform="translate(-750.000000, -241.000000)" fill-rule="nonzero">
            <g id="smwswcydtt" transform="translate(612.000000, 200.000000)">
                <g id="evzvunnshh" transform="translate(138.300637, 41.000000)">
                    <path d="M41.7130583,12.820778 L25.4347974,12.820778 C24.0918409,12.820778 22.9930583,11.6864073 22.9930583,10.2999542 C22.9930583,8.91350114 24.0918409,7.77913043 25.4347974,7.77913043 L41.7130583,7.77913043 C43.0560148,7.77913043 44.1547974,8.91350114 44.1547974,10.2999542 C44.1547974,11.6864073 43.0560148,12.820778 41.7130583,12.820778 L41.7130583,12.820778 Z" id="hzvczwnduu" fill="#FFFFFF"></path>
                    <path d="M48.2243627,23.7443478 L25.4347974,23.7443478 C24.0918409,23.7443478 22.9930583,22.6099771 22.9930583,21.223524 C22.9930583,19.8370709 24.0918409,18.7027002 25.4347974,18.7027002 L48.2243627,18.7027002 C49.5673192,18.7027002 50.6661018,19.8370709 50.6661018,21.223524 C50.6661018,22.6099771 49.5673192,23.7443478 48.2243627,23.7443478 L48.2243627,23.7443478 Z" id="mckxoyccwy" fill="#FFFFFF"></path>
                    <path d="M6.76195301,0 L48.6221741,0 C51.9569665,0 53.6243627,1.66736885 53.6243627,5.00210656 L53.6243627,45.0214207 C53.6243627,48.3561584 51.9569665,50.0243478 48.6221741,50.0243478 L5.00220372,50.0243478 C1.66741133,50.0243478 0,48.356979 0,45.0214207 L0,5.95264171 C-0.000816565501,2.617904 2.33241453,0 6.76195301,0 Z" id="tozshrghsh" fill="#D9E5FF"></path>
                    <path d="M58.5173051,7.9826087 L14.897991,7.9826087 C10.6813663,7.9826087 8.29936266,10.3649444 8.29936266,14.5821396 L8.29936266,51.0012896 C8.29936266,55.2178108 10.6815128,57.6 14.897991,57.6 L58.5173051,57.6 C62.7344573,57.6 65.116754,55.2179573 65.116754,51.0012896 L65.116754,14.581319 C65.116754,10.364915 62.7339005,7.9826087 58.5173051,7.9826087 Z" id="nnnhvghxdl" fill="#FFFFFF"></path>
                    <path d="M14.897991,11.1756522 L58.5173051,11.1756522 C60.9705954,11.1756522 61.9237105,12.1285484 61.9237105,14.581319 L61.9237105,51.0012896 C61.9237105,53.4544119 60.9710643,54.4069565 58.5173051,54.4069565 L14.897991,54.4069565 C12.4449937,54.4069565 11.4924061,53.4543533 11.4924061,51.0012896 L11.4924061,14.5821396 C11.4924061,12.128314 12.4449351,11.1756522 14.897991,11.1756522 Z" id="qrbeizemzb" fill="#6C8DFF"></path>
                    <path d="M44.6870897,38.9328741 C45.4115793,38.9328741 45.9988941,39.5201889 45.9988941,40.2446785 C45.9988941,40.926551 45.4786429,41.4869123 44.8134252,41.5504778 L44.6870897,41.5564829 L29.0692032,41.5564829 C28.3447136,41.5564829 27.7573988,40.969168 27.7573988,40.2446785 C27.7573988,39.5628059 28.27765,39.0024446 28.9428677,38.9388792 L29.0692032,38.9328741 L44.6870897,38.9328741 Z M36.5693607,23.5565779 C37.2511837,23.5484565 37.817775,24.0619158 37.8893538,24.726319 L37.8968811,24.8525729 L37.9993988,33.3694829 L42.2424707,29.9578697 C42.8069832,29.5037653 43.6327353,29.5932689 44.0868397,30.1577814 C44.5125625,30.6870119 44.4605049,31.4458474 43.9871908,31.912805 L43.8869279,32.0021503 L37.5282763,37.1171674 C37.0893158,37.4702754 36.478691,37.5010993 36.0093896,37.2066124 L35.9037405,37.1328777 L29.2870438,32.0178606 C28.7138548,31.5747585 28.6083984,30.7508918 29.0515005,30.1777027 C29.4685377,29.6382307 30.2228613,29.5130824 30.7880336,29.8696428 L30.8916583,29.9421594 L35.3753988,33.4084829 L35.273463,24.8841956 C35.2647306,24.1597586 35.8449238,23.5654075 36.5693607,23.5565779 Z" id="tmlzqixxee" fill="#FFFFFF"></path>
                </g>
            </g>
        </g>
    </g>
</svg>