<svg width="16" height="16" viewBox="0 0 16 16" fill="none" xmlns="http://www.w3.org/2000/svg">
<path d="M15 8C15 11.866 11.866 15 8 15C4.13401 15 1 11.866 1 8C1 4.13401 4.13401 1 8 1C11.866 1 15 4.13401 15 8ZM8.425 9C8.53546 9 8.625 8.91046 8.625 8.8V4.7C8.625 4.58954 8.53546 4.5 8.425 4.5H7.575C7.46454 4.5 7.375 4.58954 7.375 4.7V8.8C7.375 8.91046 7.46454 9 7.575 9H8.425ZM7.99998 11.5C8.49703 11.5 8.89998 11.0971 8.89998 10.6C8.89998 10.103 8.49703 9.70001 7.99998 9.70001C7.50292 9.70001 7.09998 10.103 7.09998 10.6C7.09998 11.0971 7.50292 11.5 7.99998 11.5Z" fill="#FF9417"/>
</svg>
