<svg width="16" height="16" viewBox="0 0 16 16" fill="none" xmlns="http://www.w3.org/2000/svg">
<g id="suggest-circle exclamation">
<g id="Union">
<path d="M8 13.75C11.1756 13.75 13.75 11.1756 13.75 8C13.75 4.82436 11.1756 2.25 8 2.25C4.82436 2.25 2.25 4.82436 2.25 8C2.25 11.1756 4.82436 13.75 8 13.75ZM8 15C4.13401 15 1 11.866 1 8C1 4.13401 4.13401 1 8 1C11.866 1 15 4.13401 15 8C15 11.866 11.866 15 8 15ZM8.425 9C8.53546 9 8.625 8.91046 8.625 8.8V4.7C8.625 4.58954 8.53546 4.5 8.425 4.5H7.575C7.46454 4.5 7.375 4.58954 7.375 4.7V8.8C7.375 8.91046 7.46454 9 7.575 9H8.425ZM8.0001 11.5C8.49715 11.5 8.9001 11.0971 8.9001 10.6C8.9001 10.103 8.49715 9.70001 8.0001 9.70001C7.50304 9.70001 7.1001 10.103 7.1001 10.6C7.1001 11.0971 7.50304 11.5 8.0001 11.5Z" fill="#FF9417"/>
</g>
</g>
</svg>
