<svg width="14" height="14" viewBox="0 0 14 14" fill="none" xmlns="http://www.w3.org/2000/svg">
<path d="M7 12.0312C9.77868 12.0312 12.0312 9.77868 12.0312 7C12.0312 4.22132 9.77868 1.96875 7 1.96875C4.22132 1.96875 1.96875 4.22132 1.96875 7C1.96875 9.77868 4.22132 12.0312 7 12.0312ZM7 13.125C3.61726 13.125 0.875 10.3827 0.875 7C0.875 3.61725 3.61726 0.875 7 0.875C10.3827 0.875 13.125 3.61725 13.125 7C13.125 10.3827 10.3827 13.125 7 13.125ZM7.37188 7.875C7.46852 7.875 7.54688 7.79665 7.54688 7.7V4.1125C7.54688 4.01585 7.46852 3.9375 7.37188 3.9375H6.62813C6.53148 3.9375 6.45312 4.01585 6.45312 4.1125V7.7C6.45312 7.79665 6.53148 7.875 6.62812 7.875H7.37188ZM7.00008 10.0625C7.43501 10.0625 7.78759 9.70993 7.78759 9.27501C7.78759 8.84009 7.43501 8.48751 7.00008 8.48751C6.56516 8.48751 6.21259 8.84009 6.21259 9.27501C6.21259 9.70993 6.56516 10.0625 7.00008 10.0625Z" fill="#979AA1"/>
</svg>
