<svg width="20" height="20" viewBox="0 0 20 20" fill="none" xmlns="http://www.w3.org/2000/svg">
<path fill-rule="evenodd" clip-rule="evenodd" d="M10 1.25C5.16797 1.25 1.25 5.16797 1.25 10C1.25 14.832 5.16797 18.75 10 18.75C14.832 18.75 18.75 14.832 18.75 10C18.75 5.16797 14.832 1.25 10 1.25ZM10.3571 11.4286H9.28571C9.1875 11.4286 9.10714 11.3482 9.10714 11.25V5.17857C9.10714 5.08036 9.1875 5 9.28571 5H10.3571C10.4554 5 10.5357 5.08036 10.5357 5.17857V11.25C10.5357 11.3482 10.4554 11.4286 10.3571 11.4286ZM9.82143 15C9.22969 15 8.75 14.5203 8.75 13.9286C8.75 13.3368 9.22969 12.8571 9.82143 12.8571C10.4132 12.8571 10.8929 13.3368 10.8929 13.9286C10.8929 14.5203 10.4132 15 9.82143 15Z" fill="#f53f3f"/>
</svg>
