<svg width="14" height="15" viewBox="0 0 14 15" fill="none" xmlns="http://www.w3.org/2000/svg">
<path fill-rule="evenodd" clip-rule="evenodd" d="M0 7.5C0 11.3656 3.13438 14.5 7 14.5C10.8656 14.5 14 11.3656 14 7.5C14 3.63437 10.8656 0.5 7 0.5C3.13438 0.5 0 3.63437 0 7.5ZM1.18752 7.50004C1.18752 4.29067 3.79064 1.68754 7.00002 1.68754C10.2094 1.68754 12.8125 4.29067 12.8125 7.50004C12.8125 10.7094 10.2094 13.3125 7.00002 13.3125C3.79064 13.3125 1.18752 10.7094 1.18752 7.50004ZM6.20004 4.90596C6.20004 4.46413 6.55821 4.10596 7.00004 4.10596C7.44186 4.10596 7.80004 4.46413 7.80004 4.90596C7.80004 5.34779 7.44186 5.70596 7.00004 5.70596C6.55821 5.70596 6.20004 5.34779 6.20004 4.90596ZM7.63001 7.12999C7.63001 6.78206 7.40426 6.50001 7.05633 6.50001C6.7084 6.50001 6.37006 6.78206 6.37005 7.12998L6.37001 10.3701C6.37001 10.718 6.65208 10.9999 6.99994 10.9999C7.34784 10.9999 7.63001 10.7179 7.63001 10.37V7.12999Z" fill="#5d42ff"/>
</svg>
