<svg width="16" height="16" viewBox="0 0 16 16" fill="none" xmlns="http://www.w3.org/2000/svg">
<g id="interactive-more">
<g id="Union">
<path d="M4.2999 8.0001C4.2999 8.66284 3.76264 9.2001 3.0999 9.2001C2.43716 9.2001 1.8999 8.66284 1.8999 8.0001C1.8999 7.33736 2.43716 6.8001 3.0999 6.8001C3.76264 6.8001 4.2999 7.33736 4.2999 8.0001ZM9.20005 8.0001C9.20005 8.66284 8.66279 9.2001 8.00005 9.2001C7.33731 9.2001 6.80005 8.66284 6.80005 8.0001C6.80005 7.33736 7.33731 6.8001 8.00005 6.8001C8.66279 6.8001 9.20005 7.33736 9.20005 8.0001ZM12.9 9.2001C13.5627 9.2001 14.1 8.66284 14.1 8.0001C14.1 7.33736 13.5627 6.8001 12.9 6.8001C12.2372 6.8001 11.7 7.33736 11.7 8.0001C11.7 8.66284 12.2372 9.2001 12.9 9.2001Z" fill="#979AA1"/>
</g>
</g>
</svg>
