<svg width="60" height="61" viewBox="0 0 60 61" fill="none" xmlns="http://www.w3.org/2000/svg">
<circle opacity="0.8" cx="16.4299" cy="25.4291" r="5.47947" fill="#0DCAD7"/>
<path d="M27.0497 42.305C27.0497 44.584 22.295 44.9649 16.4299 44.9649C10.5647 44.9649 5.81006 44.584 5.81006 42.305C5.81006 36.4398 10.5647 31.6852 16.4299 31.6852C22.295 31.6852 27.0497 36.4398 27.0497 42.305Z" fill="url(#paint0_linear_15116_889)"/>
<path d="M12.9702 5.01087L24.3696 3.24459C24.9757 3.15068 25.5228 3.61948 25.5228 4.2328V12.6116C25.5228 13.0927 25.1801 13.5057 24.7072 13.5944L22.4637 14.0153V16.5814L19.342 14.6727L13.2846 15.6625C12.676 15.7619 12.1234 15.2922 12.1234 14.6756V5.99908C12.1234 5.50591 12.4829 5.08638 12.9702 5.01087Z" fill="#ABC6EE"/>
<path d="M21.6295 6.51489L14.5059 7.70703" stroke="white" stroke-width="1.5" stroke-linecap="round"/>
<path d="M17.9344 10.207L14.506 10.7844" stroke="white" stroke-width="1.5" stroke-linecap="round"/>
<circle cx="38.0393" cy="21.1623" r="8.3332" fill="#5d42ff"/>
<path d="M54.1897 46.8276C54.1897 50.2936 46.9588 50.8729 38.0391 50.8729C29.1193 50.8729 21.8884 50.2936 21.8884 46.8276C21.8884 37.9079 29.1193 30.677 38.0391 30.677C46.9588 30.677 54.1897 37.9079 54.1897 46.8276Z" fill="url(#paint1_linear_15116_889)"/>
<defs>
<linearGradient id="paint0_linear_15116_889" x1="8.40654" y1="35.8773" x2="24.1593" y2="44.273" gradientUnits="userSpaceOnUse">
<stop stop-color="#0DCAD7"/>
<stop offset="1" stop-color="#4CE8F2"/>
</linearGradient>
<linearGradient id="paint1_linear_15116_889" x1="24.0034" y1="40.775" x2="53.5108" y2="47.4942" gradientUnits="userSpaceOnUse">
<stop offset="0.0942414" stop-color="#3B70FF"/>
<stop offset="0.902829" stop-color="#5B87FF"/>
</linearGradient>
</defs>
</svg>
