<svg width="193" height="129" viewBox="0 0 193 129" fill="none" xmlns="http://www.w3.org/2000/svg">
<circle cx="93" cy="62.9136" r="54" stroke="#5d42ff" stroke-opacity="0.1" stroke-width="16"/>
<circle cx="93" cy="62.9136" r="35" stroke="#5d42ff" stroke-opacity="0.1" stroke-width="6"/>
<circle cx="93" cy="62.9135" r="21.599" stroke="#3B88FF" stroke-width="0.5" stroke-dasharray="3 3"/>
<circle cx="93" cy="62.9136" r="19" fill="#528CFF"/>
<path d="M91.5033 55.014C88.6154 56.2809 86.5246 59.7167 87.5523 63.5317C88.2769 65.6418 89.656 67.1635 91.8216 67.9321C95.6085 69.2763 99.6265 66.2804 99.0513 62.4353C98.8065 60.7992 97.7582 59.7216 96.3223 59.321C95.0932 59.0331 93.853 59.2477 92.9605 60.0994C92.3407 60.691 91.9816 61.6294 92.1745 62.6216C92.358 63.2292 92.6505 63.6071 93.3984 63.7875C93.8097 63.8867 94.3347 63.7875 94.4958 63.4162C94.6051 63.1644 94.5039 62.9583 94.4295 62.7197C94.2272 62.071 94.3584 61.697 94.7124 61.3765C95.1872 60.9067 95.9937 60.8992 96.5056 61.26C97.1641 61.597 97.6883 62.67 97.0714 64.319C96.3656 66.0154 94.5263 66.5265 92.8112 66.082C90.3321 65.4395 88.9808 62.6216 89.5746 60.3814C90.5625 56.654 94.7169 55.5009 98.1718 57.2116C100.503 58.5241 101.963 60.642 101.92 63.5188C101.738 68.25 96.9515 71.7393 92.1645 70.827C87.3573 69.8197 84.4717 65.6564 84.4079 61.5778C84.3843 60.0615 84.6733 58.5311 85.4642 56.9178C87.3417 53.3706 90.6033 51.7108 94.7558 51.4627C95.8452 51.3976 96.6351 51.4627 98.013 51.5986C97.9575 51.5741 97.831 51.5118 97.6993 51.4627C95.7334 50.7265 93.7017 50.4918 91.6198 50.7888C90.281 50.9797 89.1831 51.363 88.0998 51.8617C87.6332 52.0256 87.5639 51.6294 87.2035 51.3288C87.0352 51.1887 87.0519 51.3667 87.0519 51.3667C87.1988 52.0658 86.8724 52.4184 86.8228 52.453C86.6492 52.6224 86.2274 52.9361 85.9371 53.0631C85.3382 53.3251 85.0602 52.8938 84.5833 52.6508C84.2565 52.4846 84.3843 52.7598 84.3843 52.7598C84.7889 53.5639 84.5056 54.3012 84.4402 54.4173C84.1616 54.821 83.9286 55.1076 83.553 55.4472C82.8931 56.0438 82.1093 55.4684 81.8759 55.3813C81.4358 55.217 81.7544 55.5923 81.7544 55.5923C81.9298 55.8255 82.5621 57.1641 82.3659 57.5881C81.2475 59.9052 80.8816 62.5753 81.3756 65.2405C83.2131 74.4361 93.6652 77.6251 100.17 73.181C103.621 70.6309 104.799 66.6614 104.838 64.1859C104.877 61.7105 104.254 59.9104 103.105 58.3036C100.379 54.4927 95.447 53.284 91.5033 55.014Z" fill="white"/>
<circle cx="140.875" cy="24.9136" r="11" fill="#699BFF"/>
<path d="M143.579 24.8306C144.434 24.8306 145.127 24.1378 145.127 23.2832C145.127 22.4285 144.434 21.7357 143.579 21.7357C142.725 21.7357 142.032 22.4285 142.032 23.2832C142.032 24.1378 142.725 24.8306 143.579 24.8306Z" fill="white"/>
<path d="M139.166 24.6755C140.306 24.6755 141.229 23.7518 141.229 22.6123C141.229 21.4728 140.306 20.5491 139.166 20.5491C138.027 20.5491 137.103 21.4728 137.103 22.6123C137.103 23.7518 138.027 24.6755 139.166 24.6755Z" fill="white"/>
<path fill-rule="evenodd" clip-rule="evenodd" d="M144.07 28.2828C144.07 28.2736 144.07 28.2644 144.07 28.2551V27.9729C144.07 26.8824 143.489 25.9278 142.619 25.402C142.75 25.3804 142.883 25.3691 143.02 25.3691H144.139C145.48 25.3691 146.567 26.4562 146.567 27.7972C146.567 28.0654 146.35 28.2828 146.081 28.2828H144.07Z" fill="white"/>
<path d="M135.182 28.6778C135.182 29.0094 135.451 29.2782 135.783 29.2782H142.549C142.881 29.2782 143.15 29.0094 143.15 28.6778V28.3955C143.15 26.7375 141.805 25.3934 140.147 25.3934H138.185C136.527 25.3934 135.182 26.7375 135.182 28.3955L135.182 28.6778Z" fill="white"/>
<path d="M141.448 35.9136L140.302 54.4856" stroke="#6A9BFF" stroke-opacity="0.8" stroke-width="0.4"/>
<circle cx="112.148" cy="114.914" r="14" fill="#699BFF"/>
<path d="M111.974 114.56C113.666 114.56 115.038 113.188 115.038 111.496C115.038 109.804 113.666 108.433 111.974 108.433C110.282 108.433 108.911 109.804 108.911 111.496C108.911 113.188 110.282 114.56 111.974 114.56Z" fill="white"/>
<path d="M106.059 120.503C106.059 120.995 106.458 121.394 106.951 121.394H116.998C117.49 121.394 117.889 120.995 117.889 120.503V120.084C117.889 117.622 115.894 115.626 113.432 115.626H110.517C108.055 115.626 106.059 117.622 106.059 120.084L106.059 120.503Z" fill="white"/>
<circle cx="53" cy="107.626" r="5" fill="#528CFF"/>
<path d="M52.938 107.5C53.5423 107.5 54.0321 107.01 54.0321 106.406C54.0321 105.801 53.5423 105.311 52.938 105.311C52.3337 105.311 51.8439 105.801 51.8439 106.406C51.8439 107.01 52.3337 107.5 52.938 107.5Z" fill="white"/>
<path d="M50.8255 109.622C50.8255 109.798 50.9681 109.94 51.1439 109.94H54.7321C54.908 109.94 55.0505 109.798 55.0505 109.622V109.472C55.0505 108.593 54.3377 107.88 53.4585 107.88H52.4175C51.5383 107.88 50.8255 108.593 50.8255 109.472L50.8255 109.622Z" fill="white"/>
<circle opacity="0.2" cx="3" cy="100.914" r="3" fill="#528CFF"/>
<circle opacity="0.2" cx="189.5" cy="35.418" r="3.5" fill="#528CFF"/>
<circle cx="68.6964" cy="33.418" r="1.5" fill="#528CFF"/>
<circle cx="87" cy="15.626" r="4.5" fill="#528CFF"/>
<path d="M86.9442 15.5123C87.488 15.5123 87.9289 15.0714 87.9289 14.5276C87.9289 13.9837 87.488 13.5428 86.9442 13.5428C86.4003 13.5428 85.9595 13.9837 85.9595 14.5276C85.9595 15.0714 86.4003 15.5123 86.9442 15.5123Z" fill="white"/>
<path d="M85.043 17.4225C85.043 17.5808 85.1713 17.7091 85.3295 17.7091H88.5589C88.7172 17.7091 88.8455 17.5808 88.8455 17.4225V17.2878C88.8455 16.4965 88.204 15.855 87.4126 15.855H86.4758C85.6845 15.855 85.043 16.4965 85.043 17.2878L85.043 17.4225Z" fill="white"/>
<circle cx="140" cy="56.626" r="4" fill="#528CFF"/>
<path d="M139.95 56.525C140.434 56.525 140.826 56.1331 140.826 55.6497C140.826 55.1663 140.434 54.7744 139.95 54.7744C139.467 54.7744 139.075 55.1663 139.075 55.6497C139.075 56.1331 139.467 56.525 139.95 56.525Z" fill="white"/>
<path d="M138.26 58.223C138.26 58.3636 138.374 58.4777 138.515 58.4777H141.386C141.526 58.4777 141.64 58.3636 141.64 58.223V58.1032C141.64 57.3998 141.07 56.8296 140.367 56.8296H139.534C138.831 56.8296 138.26 57.3998 138.26 58.1032L138.26 58.223Z" fill="white"/>
<circle cx="45.098" cy="59.9136" r="9" fill="#699BFF"/>
<path d="M47.3108 59.8456C48.01 59.8456 48.5768 59.2788 48.5768 58.5796C48.5768 57.8803 48.01 57.3135 47.3108 57.3135C46.6115 57.3135 46.0447 57.8803 46.0447 58.5796C46.0447 59.2788 46.6115 59.8456 47.3108 59.8456Z" fill="white"/>
<path d="M43.7 59.7188C44.6323 59.7188 45.388 58.963 45.388 58.0307C45.388 57.0984 44.6323 56.3427 43.7 56.3427C42.7677 56.3427 42.0119 57.0984 42.0119 58.0307C42.0119 58.963 42.7677 59.7188 43.7 59.7188Z" fill="white"/>
<path fill-rule="evenodd" clip-rule="evenodd" d="M47.7122 62.6701C47.7126 62.6626 47.7127 62.6551 47.7127 62.6475V62.4166C47.7127 61.5244 47.237 60.7433 46.5255 60.3131C46.632 60.2954 46.7413 60.2863 46.8528 60.2863H47.7687C48.8659 60.2863 49.7553 61.1757 49.7553 62.2728C49.7553 62.4922 49.5774 62.6701 49.358 62.6701H47.7122Z" fill="white"/>
<path d="M40.4407 62.9933C40.4407 63.2646 40.6607 63.4846 40.932 63.4846H46.468C46.7393 63.4846 46.9593 63.2646 46.9593 62.9933V62.7624C46.9593 61.4059 45.8596 60.3062 44.503 60.3062H42.897C41.5404 60.3062 40.4407 61.4059 40.4407 62.7624L40.4407 62.9933Z" fill="white"/>
<path d="M52.9564 60.3064H69.6965" stroke="#6A9BFF" stroke-opacity="0.8" stroke-width="0.4"/>
<path d="M112.148 52.626L133.211 32.8279" stroke="#6A9BFF" stroke-opacity="0.8" stroke-width="0.4"/>
<path d="M99.4152 84.0283L105.596 101.799" stroke="#6A9BFF" stroke-opacity="0.8" stroke-width="0.4"/>
<circle opacity="0.4" cx="145.067" cy="100.262" r="4.5" fill="#528CFF"/>
</svg>
