
<svg width="24px" height="24px" viewBox="0 0 24 24" version="1.1" xmlns="http://www.w3.org/2000/svg" xmlns:xlink="http://www.w3.org/1999/xlink">
    
    <g id="otvgheervd" stroke="none" stroke-width="1" fill="none" fill-rule="evenodd">
        <g id="piovjochmw" transform="translate(-24.000000, -36.000000)">
            <g id="ebdyxcblzl" transform="translate(0.000000, 16.000000)">
                <g id="oclzwmtqit" transform="translate(24.000000, 18.000000)">
                    <g id="tzsgsxzqpq" transform="translate(0.000000, 2.000000)">
                        <g id="bsszrkzhbz">
                            <rect id="etkuxoldxv" x="0" y="0" width="24" height="24"></rect>
                        </g>
                        <path d="M22.2796409,6 L20.2072382,6 C20.0663149,6 19.9336811,6.05859375 19.850785,6.1546875 L12.0005236,15.3328125 L4.15026221,6.1546875 C4.0673661,6.05859375 3.93473233,6 3.79380895,6 L1.72140626,6 C1.54179802,6 1.43679629,6.1734375 1.54179802,6.29765625 L11.2848539,17.690625 C11.6385439,18.103125 12.3625033,18.103125 12.7134301,17.690625 L22.456486,6.29765625 C22.5642509,6.1734375 22.4592492,6 22.2796409,6 Z" id="hgbpiggksn" fill="#55585e" transform="translate(12.000000, 12.000000) rotate(90.000000) translate(-12.000000, -12.000000) "></path>
                    </g>
                </g>
            </g>
        </g>
    </g>
</svg>
