<svg width="21" height="20" viewBox="0 0 21 20" fill="none" xmlns="http://www.w3.org/2000/svg">
<path d="M7.6875 7.65625V6.09375C7.6875 4.54045 8.9467 3.28125 10.5 3.28125C12.0533 3.28125 13.3125 4.54045 13.3125 6.09375V7.65625H7.6875ZM6.125 7.65625H4.25C3.55964 7.65625 3 8.21589 3 8.90625V17.0312C3 17.7216 3.55964 18.2812 4.25 18.2812H16.75C17.4404 18.2812 18 17.7216 18 17.0312V8.90625C18 8.21589 17.4404 7.65625 16.75 7.65625H14.875V6.09375C14.875 3.6775 12.9162 1.71875 10.5 1.71875C8.08375 1.71875 6.125 3.6775 6.125 6.09375V7.65625Z" fill="#C0C3C7"/>
</svg>
