<svg viewBox="0 0 16 16" version="1.1">\n <g id="uvzjlcowog" stroke="none" stroke-width="1" fill="none" fill-rule="evenodd">\n <g id="lpnkdnbyvq" transform="translate(-183.000000, -134.000000)">\n <g id="rxdxvoiujv" transform="translate(183.000000, 134.000000)">\n <rect id="eexyvvnmwq" x="0" y="0" width="16" height="16"></rect>\n <g id="mxdhbkjclr" transform="translate(2.400000, 0.500000)" fill="#55585e" fill-rule="nonzero">\n <path d="M9.269,5.726 L10.1506702,5.72656464 C10.6658786,5.7463219 11.0853404,6.14602639 11.1370132,6.65363588 L11.1370132,6.65363588 L11.1370132,13.5808338 C11.0579842,13.9926966 10.7357889,14.3164116 10.3254459,14.4 L10.3254459,14.4 L0.879957784,14.4 C0.422501319,14.3346491 0.0607915567,13.9698997 -3.55271368e-15,13.5109235 L-3.55271368e-15,13.5109235 L-3.55271368e-15,6.75850132 C0.00151978892,6.18858047 0.465055409,5.72656464 1.03497625,5.72656464 L1.03497625,5.72656464 L1.881,5.726 L1.88149868,3.75235884 L1.885,3.693 C1.88301847,1.7193225 3.43159007,0.107081069 5.37997671,0.0051193588 L5.57610554,0 C7.61566227,0 9.26919261,1.65353034 9.26919261,3.69308707 L9.26919179,3.69054477 L9.269,5.726 Z M2.50461214,6.97127177 L2.478,6.969 L1.574,6.969 L1.5361504,6.97554617 C1.3885409,7.01344591 1.27427177,7.13341425 1.24463588,7.28415831 L1.244,12.819 L1.25050132,12.8577704 C1.29201055,13.019438 1.43196489,13.1411122 1.60297631,13.1554051 L9.60549612,13.1532452 C9.75159731,13.1144671 9.86446992,12.9951284 9.8938971,12.8454459 L9.893,7.326 L9.88499208,7.2687942 C9.84077573,7.09658311 9.68485488,6.96975198 9.49868074,6.96975198 L2.53106644,6.97072168 C2.52229486,6.97108719 2.51347557,6.97127177 2.50461214,6.97127177 Z M6.07155673,9.43940897 C6.41502902,9.43940897 6.69467018,9.71753034 6.69467018,10.0625224 C6.69467018,10.4059947 6.41654881,10.6856359 6.07155673,10.6856359 L5.06545646,10.6856359 C4.72198417,10.6841161 4.44234301,10.4059947 4.44234301,10.0625224 C4.44234301,9.71905013 4.72046438,9.43940897 5.06545646,9.43940897 L6.07155673,9.43940897 Z M5.57610554,1.24470712 C4.2234934,1.24470712 3.12772559,2.34047493 3.12772559,3.69308707 L3.12772559,3.69308707 C3.12677511,3.71235978 3.12772559,3.73224566 3.12772559,3.75235884 L3.127,5.726 L8.022,5.726 L8.0229657,3.69156728 L8.02441982,3.67495571 C8.0146797,2.33069619 6.92266873,1.24470712 5.57610554,1.24470712 Z" id="yjoxhbztyu"></path>\n </g>\n </g>\n </g>\n </g>\n </svg>
