<svg width="16" height="16" viewBox="0 0 16 16" fill="none" xmlns="http://www.w3.org/2000/svg">
  <g id="Lock">
    <path id="Union"
      d="M10.25 4.875C10.25 3.63236 9.24264 2.625 8 2.625C6.75736 2.625 5.75 3.63236 5.75 4.875V6.125H10.25V4.875ZM4.5 6.125V4.875C4.5 2.942 6.067 1.375 8 1.375C9.933 1.375 11.5 2.942 11.5 4.875V6.125H12.75C13.3023 6.125 13.75 6.57272 13.75 7.125V13.625C13.75 14.1773 13.3023 14.625 12.75 14.625H3.25C2.69772 14.625 2.25 14.1773 2.25 13.625V7.125C2.25 6.57272 2.69772 6.125 3.25 6.125H4.5ZM3.5 13.375H12.5V7.375H3.5V13.375Z"
      fill="#55585E" />
  </g>
</svg>
