<svg width="100" height="100" viewBox="0 0 100 100" fill="none" xmlns="http://www.w3.org/2000/svg">
<g id="Icon / Fill / Aelf">
<rect id="&#231;&#159;&#169;&#229;&#189;&#162;" opacity="0.01" width="100" height="100" fill="white"/>
<path id="Fill 1" fill-rule="evenodd" clip-rule="evenodd" d="M45.2036 18.189C31.824 24.0581 23.4093 38.4124 28.3081 52.6768C31.2704 61.3031 37.2399 67.45 46.0927 70.5919C61.5733 76.0869 77.7336 64.0046 75.9212 48.2996C75.1517 41.6248 71.7619 36.5422 64.8776 34.4391C59.7566 32.8746 54.8557 33.6055 50.8568 37.3266C47.4627 40.4813 46.1761 44.3669 47.5354 48.8831C48.2856 51.3667 50.0874 52.9119 52.5389 53.6493C54.6912 54.2948 56.3561 53.3608 57.6385 51.574C57.3799 51.1422 57.1533 50.6699 56.8392 50.2638C55.1656 48.1008 56.5228 44.9547 57.9698 43.6445C59.9361 41.8641 63.1207 41.7017 65.2132 43.1764C68.6072 45.5638 70.1504 51.9138 68.3059 55.8978C65.2196 62.562 57.2837 66.4412 50.0019 64.5539C38.5052 61.5745 32.837 50.2232 36.5474 39.2502C41.4782 24.6694 58.051 18.2916 72.1744 25.2849C83.592 30.936 87.8303 40.804 87.3751 52.5507C86.6291 71.8914 67.1133 86.2392 47.544 82.5096C28.5645 78.8932 14.471 60.7196 15.482 43.5334C15.8539 37.1877 17.2667 31.2459 20.5133 25.7936C28.9599 11.6146 42.1173 4.94192 58.5747 3.86257C62.907 3.57831 67.2757 3.81982 71.4029 3.82196C71.1763 3.72151 70.6591 3.46717 70.1205 3.26626C62.0841 0.25691 53.7785 -0.702747 45.2677 0.511251C39.9907 1.161 35.1197 2.58659 30.6912 4.62559C30.61 4.63842 30.5138 4.6662 30.3962 4.71536C28.4042 5.56388 28.0708 3.61464 27.3634 3.02474C26.6751 2.45194 26.7649 3.16367 26.7649 3.16367C27.3655 6.02126 25.8608 7.17328 25.6578 7.31434C24.4032 8.09019 23.1999 8.92802 22.0372 9.8086C22.003 9.82356 21.9773 9.82356 21.941 9.84066C19.1945 11.0931 18.0532 8.97718 16.79 8.33385C15.4542 7.65418 15.9586 8.76986 15.9586 8.76986C17.6129 12.0571 16.1852 14.8698 15.918 15.3443C14.7468 16.6074 13.6503 17.9347 12.6244 19.3133C12.5175 19.3817 12.4128 19.4458 12.291 19.5548C9.59368 21.9935 7.49483 20.0635 5.82772 19.7001C3.98963 19.3026 5.0305 20.5059 5.0305 20.5059C8.43098 23.9876 7.35591 28.1746 7.35591 28.1746L7.36446 28.1789C2.99577 37.6194 1.42698 48.5454 3.24156 59.5141C9.20683 95.5686 53.5541 112.597 82.6238 89.3704C92.0643 81.8278 98.6131 67.2983 99.3035 55.278C99.795 46.7415 97.1554 38.9937 92.2888 31.979C81.9634 17.0947 61.3254 11.1166 45.2036 18.189Z" fill="white"/>
</g>
</svg>
