<svg width="17" height="16" viewBox="0 0 17 16" fill="none" xmlns="http://www.w3.org/2000/svg">
<g clip-path="url(#clip0_24673_14400)">
<path d="M14.3192 12.5459C10.4386 12.5463 6.5579 12.5473 2.67725 12.5458C2.67736 12.9996 2.67726 13.4533 2.67726 13.907C2.67733 14.0273 2.72116 14.1426 2.79912 14.2277C2.87707 14.3128 2.98279 14.3606 3.09304 14.3607H13.9034C14.0137 14.3606 14.1194 14.3128 14.1974 14.2277C14.2753 14.1426 14.3191 14.0273 14.3192 13.907C14.3192 13.4533 14.3191 12.9996 14.3192 12.5459Z" fill="#F9CB27"/>
<path d="M7.6282 2.05364C7.71872 1.90333 7.84656 1.77898 7.99931 1.69266C8.15206 1.60634 8.32454 1.56097 8.5 1.56097C8.67546 1.56097 8.84794 1.60634 9.00069 1.69266C9.15344 1.77898 9.28129 1.90333 9.3718 2.05364L12.2311 6.80002L15.8623 4.53794C15.9339 4.49336 16.0173 4.47151 16.1015 4.47528C16.1857 4.47904 16.2668 4.50825 16.3341 4.55904C16.4015 4.60984 16.4518 4.67983 16.4785 4.7598C16.5052 4.83977 16.5071 4.92596 16.4838 5.00701L14.3205 12.5459H2.67952L0.51617 5.00701C0.492921 4.92596 0.49478 4.83977 0.521501 4.7598C0.548222 4.67983 0.59855 4.60984 0.665851 4.55904C0.733151 4.50825 0.814265 4.47904 0.898497 4.47528C0.98273 4.47151 1.06613 4.49336 1.13769 4.53794L4.76892 6.80002L7.6282 2.05364Z" fill="#FF9B4C"/>
<path d="M1.97555 10.0598L0.539607 5.00701C0.516359 4.92596 0.518218 4.83977 0.544938 4.7598C0.571659 4.67983 0.621987 4.60983 0.689288 4.55904C0.756589 4.50825 0.837702 4.47904 0.921935 4.47527C1.00617 4.47151 1.08956 4.49335 1.16113 4.53794L4.79236 6.80001L7.65163 2.05364C7.74215 1.90333 7.86999 1.77898 8.02275 1.69266C8.1755 1.60633 8.34798 1.56097 8.52344 1.56097C8.6989 1.56097 8.87137 1.60633 9.02413 1.69266C9.17688 1.77898 9.30472 1.90333 9.39524 2.05364L12.2059 6.71935L12.1147 8.1432C12.1147 9.74943 10.8107 10.6741 9.20443 10.6741H3.37004C3.0179 10.6741 2.28544 10.4964 1.97555 10.0598Z" fill="#F9CB27"/>
<path d="M12.2057 6.71934L12.1144 8.14319C12.1144 9.74942 10.8104 10.6753 9.20414 10.6753H8.3833L8.38332 1.57068C8.58071 1.54329 8.7818 1.57445 8.96163 1.6603C9.14147 1.74616 9.29215 1.88292 9.39496 2.05363L12.2057 6.71934Z" fill="#FAAD14"/>
<path d="M8.02776 6.73628C8.06678 6.67777 8.11965 6.62978 8.18166 6.5966C8.24368 6.56341 8.31292 6.54605 8.38326 6.54605C8.45359 6.54605 8.52284 6.56341 8.58486 6.5966C8.64687 6.62978 8.69973 6.67777 8.73876 6.73628L9.71772 8.20469C9.7645 8.27487 9.78947 8.35733 9.78947 8.44168C9.78947 8.52603 9.7645 8.6085 9.71772 8.67868L8.73876 10.1471C8.69973 10.2056 8.64687 10.2536 8.58486 10.2868C8.52284 10.32 8.45359 10.3373 8.38326 10.3373C8.31292 10.3373 8.24368 10.32 8.18166 10.2868C8.11965 10.2536 8.06678 10.2056 8.02776 10.1471L7.0488 8.67868C7.00202 8.6085 6.97705 8.52603 6.97705 8.44168C6.97705 8.35733 7.00202 8.27487 7.0488 8.20469L8.02776 6.73628Z" fill="#EA4F45"/>
</g>
<defs>
<clipPath id="clip0_24673_14400">
<rect width="16" height="16" fill="white" transform="translate(0.5)"/>
</clipPath>
</defs>
</svg>
