<svg width="64" height="64" viewBox="0 0 64 64" fill="none" xmlns="http://www.w3.org/2000/svg">
<rect width="64" height="64" fill="white"/>
<path d="M52.9037 21.3914C50.0139 20.2563 46.8364 19.6333 43.5478 19.6333C31.2731 19.6333 20.5477 28.312 20.5477 39.9061C20.5477 43.4661 21.559 46.7512 23.3157 49.5946C21.4316 49.3835 19.6089 49.0033 17.8687 48.4723L8.62944 53.3637C7.40368 54.0126 5.99106 52.8955 6.34002 51.5532L8.4337 43.4994C3.24173 39.2785 0 33.2883 0 26.6442C0 13.862 11.9981 3.5 26.7984 3.5C39.5068 3.5 50.1491 11.1397 52.9037 21.3914ZM15.1046 28.8369C16.7191 28.8369 18.028 27.528 18.028 25.9134C18.028 24.2988 16.7191 22.9899 15.1046 22.9899C13.49 22.9899 12.1811 24.2988 12.1811 25.9134C12.1811 27.528 13.49 28.8369 15.1046 28.8369Z" fill="#dcdee1"/>
<path fill-rule="evenodd" clip-rule="evenodd" d="M23.5477 39.9061C23.5477 49.4455 32.502 57.1788 43.5477 57.1788C45.8845 57.1788 48.1276 56.8327 50.2121 56.1967L57.1075 59.8472C58.0223 60.3315 59.0765 59.4978 58.8161 58.496L57.2536 52.4854C61.1284 49.3352 63.5477 44.8646 63.5477 39.9061C63.5477 30.3666 54.5934 22.6333 43.5477 22.6333C32.502 22.6333 23.5477 30.3666 23.5477 39.9061ZM50.0932 39.3607C50.0932 38.1557 51.07 37.1789 52.275 37.1789C53.48 37.1789 54.4568 38.1557 54.4568 39.3607C54.4568 40.5657 53.48 41.5425 52.275 41.5425C51.07 41.5425 50.0932 40.5657 50.0932 39.3607ZM43.5477 41.5425C42.3427 41.5425 41.3659 40.5657 41.3659 39.3607C41.3659 38.1557 42.3427 37.1789 43.5477 37.1789C44.7527 37.1789 45.7295 38.1557 45.7295 39.3607C45.7295 40.5657 44.7527 41.5425 43.5477 41.5425ZM32.6385 39.3607C32.6385 40.5657 33.6153 41.5425 34.8203 41.5425C36.0253 41.5425 37.0021 40.5657 37.0021 39.3607C37.0021 38.1557 36.0253 37.1789 34.8203 37.1789C33.6153 37.1789 32.6385 38.1557 32.6385 39.3607Z" fill="#dcdee1"/>
</svg>
