
<svg width="20px" height="20px" viewBox="0 0 20 20" version="1.1" xmlns="http://www.w3.org/2000/svg" xmlns:xlink="http://www.w3.org/1999/xlink">
    
    <g id="petlfotqzt" stroke="none" stroke-width="1" fill="none" fill-rule="evenodd">
        <g id="xsxpppgvde" transform="translate(-332.000000, -95.000000)">
            <g id="lilvsvgnik" transform="translate(0.000000, 72.000000)">
                <g id="fmnvtqfxlz" transform="translate(332.000000, 23.000000)">
                    <rect id="wyrziffqqy" x="0" y="0" width="20" height="20"></rect>
                    <g id="kpffzysmrd" transform="translate(8.750000, 2.500000)" fill="#515A62">
                        <path d="M1.5,12 C2.325,12 3,12.675 3,13.5 C3,14.325 2.325,15 1.5,15 C0.675,15 0,14.325 0,13.5 C0,12.675 0.675,12 1.5,12 Z M0,7.5 C0,8.325 0.675,9 1.5,9 C2.325,9 3,8.325 3,7.5 C3,6.675 2.325,6 1.5,6 C0.675,6 0,6.675 0,7.5 Z M0,1.5 C0,2.325 0.675,3 1.5,3 C2.325,3 3,2.325 3,1.5 C3,0.675 2.325,0 1.5,0 C0.675,0 0,0.675 0,1.5 Z" id="zonnpreioo"></path>
                    </g>
                </g>
            </g>
        </g>
    </g>
</svg>