<svg width="25" height="24" viewBox="0 0 25 24" fill="none" xmlns="http://www.w3.org/2000/svg">
<path d="M6.94979 12.0002C6.94979 12.9943 6.14391 13.8002 5.14979 13.8002C4.15568 13.8002 3.34979 12.9943 3.34979 12.0002C3.34979 11.0061 4.15568 10.2002 5.14979 10.2002C6.14391 10.2002 6.94979 11.0061 6.94979 12.0002ZM14.3 12.0002C14.3 12.9943 13.4941 13.8002 12.5 13.8002C11.5059 13.8002 10.7 12.9943 10.7 12.0002C10.7 11.0061 11.5059 10.2002 12.5 10.2002C13.4941 10.2002 14.3 11.0061 14.3 12.0002ZM19.8499 13.8002C20.844 13.8002 21.6499 12.9943 21.6499 12.0002C21.6499 11.0061 20.844 10.2002 19.8499 10.2002C18.8558 10.2002 18.0499 11.0061 18.0499 12.0002C18.0499 12.9943 18.8558 13.8002 19.8499 13.8002Z" fill="#5D42FF"/>
</svg>
