<svg width="16" height="16" viewBox="0 0 16 16" fill="none" xmlns="http://www.w3.org/2000/svg">
<g id="close-filled">
<g id="Subtract">
<path d="M15 8C15 11.866 11.866 15 8 15C4.13401 15 1 11.866 1 8C1 4.13401 4.13401 1 8 1C11.866 1 15 4.13401 15 8ZM5.22467 5.82562C5.14657 5.90372 5.14657 6.03036 5.22467 6.10846L7.11624 8.00003L5.2247 9.89157C5.1466 9.96967 5.1466 10.0963 5.2247 10.1744L5.82574 10.7754C5.90385 10.8536 6.03048 10.8536 6.10858 10.7754L8.00012 8.88391L9.89158 10.7754C9.96968 10.8535 10.0963 10.8535 10.1744 10.7754L10.7755 10.1743C10.8536 10.0962 10.8536 9.96959 10.7755 9.89148L8.88401 8.00003L10.7755 6.10854C10.8536 6.03044 10.8536 5.90381 10.7755 5.8257L10.1744 5.22466C10.0963 5.14656 9.96971 5.14656 9.89161 5.22466L8.00012 7.11614L6.10856 5.22458C6.03045 5.14647 5.90382 5.14647 5.82571 5.22458L5.22467 5.82562Z" fill="#F53F3F"/>
</g>
</g>
</svg>
