<svg width="12" height="12" viewBox="0 0 12 12" fill="none" xmlns="http://www.w3.org/2000/svg">
<path d="M7.27369 0.310405C7.43877 0.208695 7.65045 0.22417 7.79898 0.348808L11.199 3.20178C11.3475 3.32632 11.3995 3.53187 11.3282 3.71203C11.257 3.89219 11.0784 4.00651 10.8849 3.99581L9.8101 3.93638L8.38293 7.13304C8.62636 7.57603 8.7906 8.02416 8.81013 8.48037C8.83351 9.02649 8.64766 9.53186 8.25273 10.0025C8.17602 10.094 8.06613 10.1512 7.94723 10.1616C7.82834 10.172 7.71018 10.1347 7.61875 10.058L5.57811 8.34571L1.66209 11.8073C1.49534 11.9547 1.24589 11.9581 1.07523 11.8153C0.904564 11.6724 0.863949 11.4263 0.979676 11.2362L3.69914 6.76906L1.66889 5.06548C1.47851 4.90573 1.45344 4.6217 1.61319 4.43132C2.00971 3.95874 2.49025 3.68313 3.03572 3.60746C3.49218 3.54414 3.96127 3.62523 4.42566 3.79888L7.31952 1.84706L7.07176 0.796857C7.02723 0.608136 7.1086 0.412115 7.27369 0.310405Z" fill="#c0c3c7"/>
</svg>
