<svg width="16" height="16" viewBox="0 0 16 16" fill="none" xmlns="http://www.w3.org/2000/svg">
<g id="time-filled">
<g id="Subtract">
<path d="M15 8C15 11.866 11.866 15 8 15C4.13401 15 1 11.866 1 8C1 4.13401 4.13401 1 8 1C11.866 1 15 4.13401 15 8ZM7.54121 8.62362C7.55903 8.64052 7.57831 8.65631 7.59903 8.67082L10.466 10.6783C10.5565 10.7417 10.6812 10.7197 10.7446 10.6292L11.2321 9.93292C11.2955 9.84244 11.2735 9.71773 11.183 9.65437L8.625 7.86325V4.75133C8.625 4.64087 8.53546 4.55133 8.425 4.55133H7.575C7.46454 4.55133 7.375 4.64087 7.375 4.75133V8.25134C7.375 8.39921 7.43918 8.53208 7.54121 8.62362Z" fill="#5D42FF"/>
</g>
</g>
</svg>
