<svg width="16" height="16" viewBox="0 0 16 16" fill="none" xmlns="http://www.w3.org/2000/svg">
<g id="check-filled">
<g id="Subtract">
<path d="M15 8C15 11.866 11.866 15 8 15C4.13401 15 1 11.866 1 8C1 4.13401 4.13401 1 8 1C11.866 1 15 4.13401 15 8ZM7.17262 10.5327C7.30521 10.5364 7.439 10.4877 7.5402 10.3865L11.6414 6.28528C11.7195 6.20717 11.7195 6.08054 11.6414 6.00244L11.0404 5.4014C10.9623 5.32329 10.8356 5.32329 10.7575 5.40139L7.18612 8.97281L5.24252 7.0292C5.16441 6.95109 5.03778 6.95109 4.95967 7.0292L4.35863 7.63024C4.28053 7.70834 4.28053 7.83498 4.35863 7.91308L6.83202 10.3865C6.92636 10.4808 7.04901 10.5296 7.17262 10.5327Z" fill="#00B75F"/>
</g>
</g>
</svg>
