<svg viewBox="0 0 16 16" version="1.1">\n <g id="Icon" stroke="none" stroke-width="1" fill="none" fill-rule="evenodd">\n <g id="Common" transform="translate(-399.000000, -62.000000)">\n <g id="Network" transform="translate(399.000000, 62.000000)">\n <rect id="Rectangle" x="0" y="0" width="16" height="16"></rect>\n <path d="M5.60148571,1.3 L5.60148571,2.81348571 L10.5985143,2.81348571 L10.5985143,1.3 L14.9,1.3 L14.9,5.60148571 L13.3865143,5.60148571 L13.3865143,10.5985143 L14.9,10.5985143 L14.9,14.9 L10.5985143,14.9 L10.5985143,13.3865143 L5.60148571,13.3865143 L5.60148571,14.9 L1.3,14.9 L1.3,10.5985143 L2.81348571,10.5985143 L2.81348571,5.60148571 L1.3,5.60148571 L1.3,1.3 L5.60148571,1.3 Z M13.6245143,11.874 L11.8730286,11.874 L11.8730286,13.6264571 L13.6245143,13.6264571 L13.6245143,11.874 Z M4.32697143,11.874 L2.57451429,11.874 L2.57451429,13.6264571 L4.32697143,13.6264571 L4.32697143,11.874 Z M10.5985143,4.08897143 L5.60148571,4.08897143 L5.60148571,5.60148571 L4.088,5.60148571 L4.088,10.5985143 L5.60148571,10.5985143 L5.60148571,12.112 L10.5985143,12.112 L10.5985143,10.5985143 L12.1110286,10.5985143 L12.1110286,5.60148571 L10.5985143,5.60148571 L10.5985143,4.08897143 Z M13.6245143,2.57548571 L11.8730286,2.57548571 L11.8730286,4.32697143 L13.6245143,4.32697143 L13.6245143,2.57548571 Z M4.32697143,2.57548571 L2.57451429,2.57548571 L2.57451429,4.32697143 L4.32697143,4.32697143 L4.32697143,2.57548571 Z" id="Combined-Shape" fill="#55585e" fill-rule="nonzero"></path>\n </g>\n </g>\n </g>\n </svg>
