<svg width="20" height="20" viewBox="0 0 20 20" fill="none" xmlns="http://www.w3.org/2000/svg">
<path d="M5.4119 14.626L4.99854 16.2161L6.79039 15.2675L7.38273 15.4482C8.19627 15.6965 9.07699 15.8332 9.99992 15.8332C14.4481 15.8332 17.6666 12.7615 17.6666 9.4165C17.6666 6.0715 14.4481 2.99977 9.99992 2.99977C5.55179 2.99977 2.33325 6.0715 2.33325 9.4165C2.33325 11.1766 3.18836 12.8181 4.6639 14.0178L5.4119 14.626ZM3.78449 18.5561C3.3652 18.7781 2.882 18.3959 3.00137 17.9368L3.71759 15.1817C1.94191 13.7378 0.833252 11.689 0.833252 9.4165C0.833252 5.0442 4.93731 1.49976 9.99992 1.49976C15.0625 1.49976 19.1666 5.0442 19.1666 9.4165C19.1666 13.7888 15.0625 17.3332 9.99992 17.3332C8.92872 17.3332 7.90044 17.1746 6.94487 16.8829L3.78449 18.5561ZM6.49023 9.44434C6.49023 9.03012 6.82602 8.69434 7.24023 8.69434H9.24976V6.68506C9.24976 6.27084 9.58554 5.93506 9.99976 5.93506C10.414 5.93506 10.7498 6.27084 10.7498 6.68506V8.69434H12.7596C13.1738 8.69434 13.5096 9.03012 13.5096 9.44434C13.5096 9.85855 13.1738 10.1943 12.7596 10.1943H10.7498V12.2044C10.7498 12.6186 10.414 12.9544 9.99976 12.9544C9.58554 12.9544 9.24976 12.6186 9.24976 12.2044V10.1943H7.24023C6.82602 10.1943 6.49023 9.85855 6.49023 9.44434Z" fill="#55585e"/>
</svg>
