<svg width="24" height="12" viewBox="0 0 24 12" fill="none" xmlns="http://www.w3.org/2000/svg">
<path d="M22.4286 0.214286C22.7836 0.214286 23.0714 0.502103 23.0714 0.857143V7.3053C23.0714 7.96381 22.6419 8.54531 22.0126 8.73897L13.0881 11.4849C12.4722 11.6745 11.8135 11.6745 11.1976 11.4849L2.27316 8.73897C1.64377 8.54531 1.21429 7.96381 1.21429 7.3053V0.857143C1.21429 0.502103 1.5021 0.214286 1.85714 0.214286H22.4286Z" fill="#FFD866" stroke="url(#paint0_linear_15763_28952)" stroke-width="0.428571"/>
<path d="M9.78248 7.71429V2.83929H8.70436V6.1105L6.59137 2.83929H5.50964V7.71429H6.59137V4.44644L8.70075 7.71429H9.78248Z" fill="#B77100"/>
<path d="M11.8053 3.62612V4.92188H13.8967V5.70537H11.8053V7.71429H10.7236V2.83929H14.1491V3.62612H11.8053Z" fill="#B77100"/>
<path d="M17.1959 3.62612V7.71429H16.1178V3.62612H14.5277V2.83929H18.8113V3.62612H17.1959Z" fill="#B77100"/>
<defs>
<linearGradient id="paint0_linear_15763_28952" x1="12.1429" y1="0.864847" x2="12.1429" y2="12.9727" gradientUnits="userSpaceOnUse">
<stop stop-color="#FFE899"/>
<stop offset="1" stop-color="#FFC83F"/>
</linearGradient>
</defs>
</svg>
