<svg width="48" height="24" viewBox="0 0 48 24" fill="none" xmlns="http://www.w3.org/2000/svg">
<path d="M44.8571 0.428571C45.5672 0.428571 46.1429 1.00421 46.1429 1.71429V14.6106C46.1429 15.9276 45.2839 17.0906 44.0251 17.4779L26.1763 22.9699C24.9444 23.3489 23.627 23.3489 22.3952 22.9699L4.54631 17.4779C3.28754 17.0906 2.42857 15.9276 2.42857 14.6106V1.71429C2.42857 1.00421 3.00421 0.428571 3.71429 0.428571H44.8571Z" fill="#FFD866" stroke="url(#paint0_linear_15763_28938)" stroke-width="0.857143"/>
<path d="M19.565 15.4286V5.67859H17.4087V12.221L13.1827 5.67859H11.0193V15.4286H13.1827V8.89287L17.4015 15.4286H19.565Z" fill="#B77100"/>
<path d="M23.6106 7.25225V9.84377H27.7933V11.4107H23.6106V15.4286H21.4472V5.67859H28.2981V7.25225H23.6106Z" fill="#B77100"/>
<path d="M34.3919 7.25225V15.4286H32.2356V7.25225H29.0553V5.67859H37.6227V7.25225H34.3919Z" fill="#B77100"/>
<defs>
<linearGradient id="paint0_linear_15763_28938" x1="24.2857" y1="1.72969" x2="24.2857" y2="25.9454" gradientUnits="userSpaceOnUse">
<stop stop-color="#FFE899"/>
<stop offset="1" stop-color="#FFC83F"/>
</linearGradient>
</defs>
</svg>
