<svg width="32" height="16" viewBox="0 0 32 16" fill="none" xmlns="http://www.w3.org/2000/svg">
<path d="M29.9048 0.285714C30.3782 0.285714 30.7619 0.66947 30.7619 1.14286V9.7404C30.7619 10.6184 30.1893 11.3937 29.3501 11.652L17.4509 15.3133C16.6296 15.566 15.7514 15.566 14.9301 15.3133L3.03092 11.652C2.19173 11.3937 1.61909 10.6184 1.61909 9.7404V1.14286C1.61909 0.66947 2.00284 0.285714 2.47623 0.285714H29.9048Z" fill="#FFD866" stroke="url(#paint0_linear_15763_28945)" stroke-width="0.571429"/>
<path d="M13.0433 10.2857V3.78571H11.6058V8.14731L8.7885 3.78571H7.34619V10.2857H8.7885V5.92856L11.601 10.2857H13.0433Z" fill="#B77100"/>
<path d="M15.7404 4.83481V6.56249H18.5289V7.60713H15.7404V10.2857H14.2981V3.78571H18.8654V4.83481H15.7404Z" fill="#B77100"/>
<path d="M22.9279 4.83481V10.2857H21.4904V4.83481H19.3702V3.78571H25.0818V4.83481H22.9279Z" fill="#B77100"/>
<defs>
<linearGradient id="paint0_linear_15763_28945" x1="16.1905" y1="1.15313" x2="16.1905" y2="17.2969" gradientUnits="userSpaceOnUse">
<stop stop-color="#FFE899"/>
<stop offset="1" stop-color="#FFC83F"/>
</linearGradient>
</defs>
</svg>
