<svg width="65" height="64" viewBox="0 0 65 64" fill="none" xmlns="http://www.w3.org/2000/svg">
<path d="M57.856 33.999C57.856 34.4079 57.846 34.8167 57.826 35.2255C57.806 35.6343 57.7762 36.0423 57.7366 36.4494C57.6971 36.8565 57.6471 37.2625 57.5867 37.6675C57.5263 38.0725 57.4563 38.4753 57.3767 38.8761C57.2972 39.2772 57.2076 39.6763 57.1081 40.0732C57.0085 40.4701 56.899 40.8644 56.7794 41.2562C56.6607 41.6476 56.5331 42.036 56.3965 42.4214C56.26 42.8068 56.1121 43.188 55.953 43.5649C55.7961 43.9426 55.6301 44.3166 55.4553 44.6867C55.2804 45.0568 55.0966 45.422 54.9039 45.7823C54.7108 46.1435 54.5091 46.4993 54.299 46.8498C54.0888 47.2004 53.8699 47.546 53.6423 47.8868C53.4152 48.2271 53.1797 48.5614 52.9359 48.8899C52.6921 49.2183 52.4405 49.5407 52.181 49.8572C51.9211 50.1737 51.6539 50.4834 51.3795 50.7863C51.1051 51.0892 50.823 51.3855 50.5333 51.6752C50.2445 51.964 49.9482 52.2461 49.6444 52.5213C49.3406 52.7965 49.0309 53.0637 48.7153 53.3228C48.3992 53.5823 48.0767 53.8339 47.7479 54.0776C47.419 54.3214 47.0846 54.5569 46.7447 54.784C46.4044 55.0116 46.0587 55.2305 45.7077 55.4406C45.3568 55.6508 45.0009 55.8524 44.6401 56.0456C44.2798 56.2383 43.9146 56.422 43.5444 56.5969C43.1743 56.7717 42.8004 56.9376 42.4226 57.0946C42.0444 57.2507 41.6628 57.3979 41.2778 57.5362C40.8928 57.6744 40.5044 57.802 40.1125 57.919C39.7207 58.0377 39.3264 58.1468 38.9294 58.2464C38.5325 58.3459 38.1335 58.4355 37.7323 58.515C37.3311 58.595 36.9282 58.665 36.5237 58.725C36.1191 58.7849 35.713 58.8364 35.3055 58.8794C34.8983 58.9194 34.4903 58.9496 34.0815 58.97C33.6727 58.9904 33.2638 59.0004 32.855 59C32.4457 59 32.0369 58.99 31.6285 58.97C31.2201 58.95 30.8121 58.9198 30.4046 58.8794C29.9974 58.8398 29.5914 58.7898 29.1864 58.7294C28.7813 58.669 28.3785 58.599 27.9777 58.5195C27.5765 58.4399 27.1773 58.3504 26.7799 58.2509C26.3826 58.1513 25.9884 58.0418 25.5975 57.9222C25.2061 57.8035 24.8177 57.6759 24.4322 57.5394C24.0468 57.4028 23.6652 57.2556 23.2874 57.0978C22.9096 56.9408 22.5357 56.7749 22.1656 56.6001C21.7954 56.4252 21.4302 56.2415 21.0699 56.0488C20.7087 55.8556 20.3526 55.654 20.0016 55.4438C19.6507 55.2337 19.3052 55.0148 18.9653 54.7872C18.625 54.5601 18.2906 54.3246 17.9622 54.0808C17.6337 53.8371 17.3113 53.5855 16.9947 53.326C16.6782 53.066 16.3685 52.7989 16.0656 52.5245C15.7627 52.2501 15.4664 51.9681 15.1767 51.6784C14.8874 51.3895 14.6053 51.0932 14.3305 50.7895C14.0557 50.4858 13.7885 50.1761 13.529 49.8604C13.2691 49.5443 13.0174 49.2219 12.7741 48.893C12.5308 48.5642 12.2953 48.2298 12.0677 47.8899C11.8401 47.5496 11.6212 47.204 11.411 46.853C11.2009 46.5021 10.9992 46.1462 10.8061 45.7855C10.6134 45.4252 10.4294 45.0599 10.2541 44.6898C10.0788 44.3197 9.91311 43.9448 9.75698 43.5649C9.60085 43.1867 9.45365 42.8051 9.31539 42.4201C9.17713 42.0351 9.0495 41.6467 8.93251 41.2549C8.81381 40.8631 8.70469 40.4688 8.60514 40.0719C8.50559 39.675 8.41604 39.276 8.33649 38.8748C8.25693 38.4736 8.18695 38.0708 8.12654 37.6662C8.06613 37.2617 8.01614 36.8556 7.97658 36.4481C7.93659 36.041 7.90638 35.633 7.88596 35.2242C7.86554 34.8154 7.85554 34.4066 7.85597 33.9978C7.85597 33.5885 7.86597 33.1797 7.88596 32.7713C7.90596 32.3629 7.93616 31.955 7.97658 31.5474C8.01614 31.1403 8.06613 30.7343 8.12654 30.3293C8.18695 29.9243 8.25693 29.5215 8.33649 29.1207C8.41647 28.7196 8.50602 28.3205 8.60514 27.9236C8.70427 27.5267 8.81339 27.1324 8.93251 26.7406C9.0512 26.3492 9.17883 25.9608 9.31539 25.5754C9.45195 25.19 9.59915 24.8084 9.75698 24.4307C9.91396 24.0529 10.0797 23.679 10.2541 23.3089C10.4285 22.9388 10.6125 22.5736 10.8061 22.2132C10.9988 21.8521 11.2004 21.496 11.411 21.1451C11.6216 20.7941 11.8405 20.4487 12.0677 20.1088C12.2949 19.7685 12.5303 19.4341 12.7741 19.1057C13.0179 18.7773 13.2695 18.4548 13.529 18.1383C13.7889 17.8218 14.0561 17.5121 14.3305 17.2092C14.6049 16.9063 14.887 16.6101 15.1767 16.3204C15.4655 16.0311 15.7619 15.749 16.0656 15.4742C16.3694 15.1994 16.6791 14.9323 16.9947 14.6728C17.3108 14.4128 17.6333 14.1612 17.9622 13.9179C18.291 13.6746 18.6254 13.4391 18.9653 13.2115C19.3056 12.9839 19.6511 12.765 20.0016 12.5549C20.3522 12.3447 20.7083 12.1431 21.0699 11.95C21.4302 11.7573 21.7954 11.5733 22.1656 11.398C22.5357 11.2227 22.9096 11.057 23.2874 10.9009C23.666 10.7448 24.0476 10.5976 24.4322 10.4594C24.8168 10.3211 25.2052 10.1935 25.5975 10.0765C25.9893 9.95781 26.3834 9.84869 26.7799 9.74915C27.1764 9.6496 27.5757 9.56006 27.9777 9.48051C28.3793 9.40096 28.7822 9.33098 29.1864 9.27057C29.5905 9.21016 29.9966 9.16018 30.4046 9.12061C30.8117 9.08063 31.2197 9.05042 31.6285 9.03C32.0373 9.00958 32.4462 8.99959 32.855 9.00001C33.2638 9.00001 33.6727 9.01001 34.0815 9.03C34.4903 9.05 34.8983 9.0802 35.3055 9.12061C35.7126 9.16018 36.1187 9.21016 36.5237 9.27057C36.9287 9.33098 37.3315 9.40096 37.7323 9.48051C38.1335 9.56048 38.5325 9.65003 38.9294 9.74915C39.3264 9.84827 39.7207 9.95738 40.1125 10.0765C40.5039 10.1952 40.8923 10.3228 41.2778 10.4594C41.6632 10.5959 42.0444 10.7435 42.4213 10.9022C42.7991 11.0592 43.173 11.2249 43.5432 11.3993C43.9133 11.5737 44.2785 11.7577 44.6389 11.9512C45 12.144 45.3559 12.3456 45.7065 12.5562C46.057 12.7667 46.4027 12.9856 46.7434 13.2128C47.0838 13.4399 47.4182 13.6754 47.7466 13.9192C48.075 14.1629 48.3975 14.4145 48.714 14.674C49.0305 14.934 49.3402 15.2011 49.6431 15.4755C49.946 15.7499 50.2423 16.0319 50.5321 16.3216C50.8209 16.6105 51.103 16.9068 51.3782 17.2105C51.6535 17.5142 51.9206 17.8239 52.1797 18.1396C52.4392 18.4557 52.6909 18.7781 52.9346 19.107C53.1784 19.4358 53.4139 19.7702 53.6411 20.1101C53.8687 20.4504 54.0875 20.7958 54.2977 21.1463C54.5079 21.4969 54.7095 21.8529 54.9027 22.2145C55.0954 22.5748 55.2792 22.9401 55.454 23.3102C55.6289 23.6803 55.7948 24.0542 55.9518 24.4319C56.1079 24.8105 56.2551 25.1921 56.3933 25.5767C56.5316 25.9613 56.6592 26.3497 56.7762 26.7419C56.8949 27.1337 57.004 27.528 57.1036 27.9249C57.2031 28.3218 57.2927 28.7209 57.3722 29.122C57.4522 29.5236 57.5222 29.9264 57.5822 30.3306C57.6422 30.7347 57.6922 31.1408 57.7322 31.5487C57.7721 31.9558 57.8023 32.3638 57.8228 32.7726C57.8432 33.1814 57.8543 33.5902 57.856 33.999Z" fill="#EEF2FF"/>
<path d="M23.3254 4.00002L22.356 10M12.4037 5.64855L16.8105 12.3998M6.47667 15.5162L12.356 16.5" stroke="#101114" stroke-width="0.8"/>
<path d="M10.4132 25.6165C10.2862 25.0779 10.6208 24.5386 11.1598 24.4131L36.071 18.6124L41.807 42.9382C41.9231 43.429 41.9412 43.938 41.8602 44.4359C41.7791 44.9337 41.6005 45.4107 41.3347 45.8393C41.0688 46.268 40.7209 46.6399 40.3109 46.9337C39.9009 47.2275 39.4369 47.4375 38.9456 47.5515L20.5479 51.8371C19.5535 52.0689 18.5078 51.8968 17.64 51.3586C16.7723 50.8204 16.1534 49.9601 15.919 48.9662L10.4132 25.6165Z" fill="#547AFF"/>
<path d="M55.2276 51.7643V51.7644C55.2277 52.2167 55.1387 52.6645 54.9656 53.0824C54.7926 53.5002 54.539 53.8799 54.2192 54.1997C53.8995 54.5195 53.5199 54.7732 53.1021 54.9463C52.6842 55.1194 52.2364 55.2085 51.7842 55.2085H22.2463C22.2463 55.2085 22.2463 55.2085 22.2462 55.2085C21.333 55.2083 20.4571 54.8454 19.8114 54.1995C19.1656 53.5536 18.8028 52.6777 18.8028 51.7643V16.2468C18.8028 15.9155 19.0715 15.6468 19.4028 15.6468H54.6276C54.959 15.6468 55.2276 15.9155 55.2276 16.2468V51.7643Z" fill="white" stroke="#101114" stroke-width="0.8"/>
<path d="M26.856 28L48.856 27" stroke="#101114" stroke-width="0.8"/>
<path d="M26.856 36.7194L45.29 38.2807" stroke="#101114" stroke-width="0.8"/>
<path d="M9.13096 51.7644V46.3988H47.1531V51.3801C47.1531 52.4821 47.5818 53.541 48.3485 54.3326C48.7024 54.6979 49.1155 54.9931 49.566 55.2085H12.575C12.1227 55.2085 11.6749 55.1194 11.257 54.9464C10.8392 54.7733 10.4595 54.5196 10.1397 54.1998C9.81989 53.8799 9.5662 53.5003 9.39312 53.0824C9.22004 52.6645 9.13096 52.2167 9.13096 51.7644Z" fill="white" stroke="#101114" stroke-width="0.8"/>
</svg>
