<svg width="64" height="64" viewBox="0 0 64 64" fill="none" xmlns="http://www.w3.org/2000/svg">
<path d="M57.5 33.999C57.5 34.4079 57.49 34.8167 57.47 35.2255C57.45 35.6343 57.4202 36.0423 57.3807 36.4494C57.3411 36.8565 57.2911 37.2625 57.2307 37.6675C57.1703 38.0725 57.1003 38.4753 57.0208 38.8761C56.9412 39.2772 56.8517 39.6763 56.7521 40.0732C56.6526 40.4701 56.543 40.8644 56.4235 41.2562C56.3048 41.6476 56.1771 42.036 56.0406 42.4214C55.904 42.8068 55.7562 43.188 55.5971 43.5649C55.4401 43.9426 55.2742 44.3166 55.0993 44.6867C54.9245 45.0568 54.7407 45.422 54.548 45.7823C54.3548 46.1435 54.1532 46.4993 53.943 46.8498C53.7329 47.2004 53.514 47.546 53.2864 47.8868C53.0592 48.2271 52.8237 48.5614 52.58 48.8899C52.3362 49.2183 52.0846 49.5407 51.825 49.8572C51.5651 50.1737 51.2979 50.4834 51.0235 50.7863C50.7491 51.0892 50.4671 51.3855 50.1774 51.6752C49.8885 51.964 49.5922 52.2461 49.2884 52.5213C48.9847 52.7965 48.675 53.0637 48.3593 53.3228C48.0432 53.5823 47.7208 53.8339 47.3919 54.0776C47.063 54.3214 46.7287 54.5569 46.3887 54.784C46.0484 55.0116 45.7028 55.2305 45.3518 55.4406C45.0008 55.6508 44.6449 55.8524 44.2842 56.0456C43.9238 56.2383 43.5586 56.422 43.1885 56.5969C42.8184 56.7717 42.4444 56.9376 42.0666 57.0946C41.6884 57.2507 41.3068 57.3979 40.9218 57.5362C40.5368 57.6744 40.1484 57.802 39.7566 57.919C39.3648 58.0377 38.9704 58.1468 38.5735 58.2464C38.1766 58.3459 37.7775 58.4355 37.3763 58.515C36.9752 58.595 36.5723 58.665 36.1677 58.725C35.7631 58.7849 35.3571 58.8364 34.9495 58.8794C34.5424 58.9194 34.1344 58.9496 33.7255 58.97C33.3167 58.9904 32.9079 59.0004 32.4991 59C32.0898 59 31.681 58.99 31.2725 58.97C30.8641 58.95 30.4562 58.9198 30.0486 58.8794C29.6415 58.8398 29.2354 58.7898 28.8304 58.7294C28.4254 58.669 28.0225 58.599 27.6218 58.5195C27.2206 58.4399 26.8213 58.3504 26.424 58.2509C26.0266 58.1513 25.6325 58.0418 25.2415 57.9222C24.8501 57.8035 24.4617 57.6759 24.0763 57.5394C23.6908 57.4028 23.3092 57.2556 22.9315 57.0978C22.5537 56.9408 22.1797 56.7749 21.8096 56.6001C21.4395 56.4252 21.0743 56.2415 20.7139 56.0488C20.3527 55.8556 19.9967 55.654 19.6457 55.4438C19.2947 55.2337 18.9493 55.0148 18.6093 54.7872C18.269 54.5601 17.9346 54.3246 17.6062 54.0808C17.2778 53.8371 16.9553 53.5855 16.6388 53.326C16.3223 53.066 16.0126 52.7989 15.7097 52.5245C15.4067 52.2501 15.1104 51.9681 14.8207 51.6784C14.5314 51.3895 14.2494 51.0932 13.9746 50.7895C13.6997 50.4858 13.4326 50.1761 13.1731 49.8604C12.9131 49.5443 12.6615 49.2219 12.4181 48.893C12.1748 48.5642 11.9393 48.2298 11.7117 47.8899C11.4841 47.5496 11.2652 47.204 11.0551 46.853C10.8449 46.5021 10.6433 46.1462 10.4501 45.7855C10.2574 45.4252 10.0734 45.0599 9.89813 44.6898C9.72286 44.3197 9.55716 43.9448 9.40103 43.5649C9.24489 43.1867 9.0977 42.8051 8.95943 42.4201C8.82117 42.0351 8.69354 41.6467 8.57655 41.2549C8.45786 40.8631 8.34874 40.4688 8.24919 40.0719C8.14964 39.675 8.06008 39.276 7.98053 38.8748C7.90098 38.4736 7.83099 38.0708 7.77058 37.6662C7.71017 37.2617 7.66019 36.8556 7.62062 36.4481C7.58063 36.041 7.55043 35.633 7.53001 35.2242C7.50959 34.8154 7.49959 34.4066 7.50001 33.9978C7.50001 33.5885 7.51001 33.1797 7.53001 32.7713C7.55 32.3629 7.58021 31.955 7.62062 31.5474C7.66019 31.1403 7.71017 30.7343 7.77058 30.3293C7.83099 29.9243 7.90098 29.5215 7.98053 29.1207C8.06051 28.7196 8.15006 28.3205 8.24919 27.9236C8.34831 27.5267 8.45743 27.1324 8.57655 26.7406C8.69524 26.3492 8.82287 25.9608 8.95943 25.5754C9.09599 25.19 9.24319 24.8084 9.40103 24.4307C9.55801 24.0529 9.72371 23.679 9.89813 23.3089C10.0726 22.9388 10.2566 22.5736 10.4501 22.2132C10.6428 21.8521 10.8445 21.496 11.0551 21.1451C11.2657 20.7941 11.4845 20.4487 11.7117 20.1088C11.9389 19.7685 12.1744 19.4341 12.4181 19.1057C12.6619 18.7773 12.9135 18.4548 13.1731 18.1383C13.433 17.8218 13.7002 17.5121 13.9746 17.2092C14.249 16.9063 14.531 16.6101 14.8207 16.3204C15.1096 16.0311 15.4059 15.749 15.7097 15.4742C16.0134 15.1994 16.3231 14.9323 16.6388 14.6728C16.9549 14.4128 17.2773 14.1612 17.6062 13.9179C17.935 13.6746 18.2694 13.4391 18.6093 13.2115C18.9497 12.9839 19.2951 12.765 19.6457 12.5549C19.9962 12.3447 20.3523 12.1431 20.7139 11.95C21.0743 11.7573 21.4395 11.5733 21.8096 11.398C22.1797 11.2227 22.5537 11.057 22.9315 10.9009C23.3101 10.7448 23.6917 10.5976 24.0763 10.4594C24.4609 10.3211 24.8493 10.1935 25.2415 10.0765C25.6333 9.95781 26.0275 9.84869 26.424 9.74915C26.8205 9.6496 27.2197 9.56006 27.6218 9.48051C28.0234 9.40096 28.4262 9.33098 28.8304 9.27057C29.2345 9.21016 29.6406 9.16018 30.0486 9.12061C30.4557 9.08063 30.8637 9.05042 31.2725 9.03C31.6814 9.00958 32.0902 8.99959 32.4991 9.00001C32.9079 9.00001 33.3167 9.01001 33.7255 9.03C34.1344 9.05 34.5424 9.0802 34.9495 9.12061C35.3566 9.16018 35.7627 9.21016 36.1677 9.27057C36.5727 9.33098 36.9756 9.40096 37.3763 9.48051C37.7775 9.56048 38.1766 9.65003 38.5735 9.74915C38.9704 9.84827 39.3648 9.95738 39.7566 10.0765C40.148 10.1952 40.5364 10.3228 40.9218 10.4594C41.3073 10.5959 41.6884 10.7435 42.0654 10.9022C42.4431 11.0592 42.8171 11.2249 43.1872 11.3993C43.5573 11.5737 43.9226 11.7577 44.2829 11.9512C44.6441 12.144 44.9999 12.3456 45.3505 12.5562C45.701 12.7667 46.0467 12.9856 46.3875 13.2128C46.7278 13.4399 47.0622 13.6754 47.3906 13.9192C47.7191 14.1629 48.0415 14.4145 48.358 14.674C48.6746 14.934 48.9843 15.2011 49.2872 15.4755C49.5901 15.7499 49.8864 16.0319 50.1761 16.3216C50.465 16.6105 50.747 16.9068 51.0223 17.2105C51.2975 17.5142 51.5647 17.8239 51.8238 18.1396C52.0833 18.4557 52.3349 18.7781 52.5787 19.107C52.8225 19.4358 53.0579 19.7702 53.2851 20.1101C53.5127 20.4504 53.7316 20.7958 53.9417 21.1463C54.1519 21.4969 54.3536 21.8529 54.5467 22.2145C54.7394 22.5748 54.9232 22.94 55.098 23.3102C55.2729 23.6803 55.4388 24.0542 55.5958 24.4319C55.7519 24.8105 55.8991 25.1921 56.0374 25.5767C56.1756 25.9613 56.3033 26.3497 56.4203 26.7419C56.539 27.1337 56.6481 27.528 56.7476 27.9249C56.8472 28.3218 56.9367 28.7209 57.0163 29.122C57.0963 29.5236 57.1662 29.9264 57.2262 30.3306C57.2862 30.7347 57.3362 31.1408 57.3762 31.5487C57.4162 31.9558 57.4464 32.3638 57.4668 32.7726C57.4872 33.1814 57.4983 33.5902 57.5 33.999Z" fill="#EFECFF"/>
<path d="M22.9694 4.00002L22 10M12.0477 5.64855L16.4546 12.3998M6.12071 15.5162L12 16.5" stroke="#101114" stroke-width="0.8"/>
<path d="M10.0573 25.6165C9.93029 25.0779 10.2649 24.5386 10.8038 24.4131L35.7151 18.6124L41.451 42.9382C41.5672 43.429 41.5852 43.938 41.5042 44.4359C41.4231 44.9337 41.2446 45.4107 40.9787 45.8393C40.7128 46.268 40.3649 46.6399 39.9549 46.9337C39.545 47.2275 39.081 47.4375 38.5896 47.5515L20.192 51.8371C19.1976 52.0689 18.1518 51.8968 17.2841 51.3586C16.4163 50.8204 15.7974 49.9601 15.5631 48.9662L10.0573 25.6165Z" fill="#5D42FF"/>
<path d="M54.8717 51.7643V51.7644C54.8717 52.2167 54.7827 52.6645 54.6097 53.0824C54.4367 53.5002 54.1831 53.8799 53.8633 54.1997C53.5435 54.5195 53.1639 54.7732 52.7461 54.9463C52.3283 55.1194 51.8805 55.2085 51.4282 55.2085H21.8904C21.8903 55.2085 21.8903 55.2085 21.8903 55.2085C20.977 55.2083 20.1012 54.8454 19.4554 54.1995C18.8097 53.5536 18.4469 52.6777 18.4469 51.7643V16.2468C18.4469 15.9155 18.7155 15.6468 19.0469 15.6468H54.2716C54.603 15.6468 54.8717 15.9155 54.8717 16.2468V51.7643Z" fill="white" stroke="#101114" stroke-width="0.8"/>
<path d="M26.5 28L48.5 27" stroke="#101114" stroke-width="0.8"/>
<path d="M26.5 36.7194L44.934 38.2807" stroke="#101114" stroke-width="0.8"/>
<path d="M8.775 51.7644V46.3988H46.7972V51.3801C46.7971 52.4821 47.2258 53.541 47.9926 54.3326C48.3464 54.6979 48.7595 54.9931 49.21 55.2085H12.219C11.7668 55.2085 11.3189 55.1194 10.9011 54.9464C10.4832 54.7733 10.1036 54.5196 9.78374 54.1998C9.46393 53.8799 9.21024 53.5003 9.03716 53.0824C8.86408 52.6645 8.775 52.2167 8.775 51.7644Z" fill="white" stroke="#101114" stroke-width="0.8"/>
</svg>
