<svg width="16" height="16" viewBox="0 0 16 16" fill="none" xmlns="http://www.w3.org/2000/svg">
<g id="Type=optimism" clip-path="url(#clip0_2225_45013)">
<path id="Vector" d="M7.9991 15.9982C12.4169 15.9982 15.9982 12.4169 15.9982 7.9991C15.9982 3.58132 12.4169 0 7.9991 0C3.58132 0 0 3.58132 0 7.9991C0 12.4169 3.58132 15.9982 7.9991 15.9982Z" fill="#FF0420"/>
<path id="Vector_2" d="M5.66659 10.1237C5.18984 10.1237 4.79949 10.0117 4.49552 9.7877C4.19476 9.56052 4.04437 9.23416 4.04437 8.81501C4.04437 8.72542 4.05397 8.61983 4.07317 8.49184C4.12436 8.20388 4.19796 7.85832 4.29394 7.45196C4.56591 6.35128 5.26983 5.80095 6.40251 5.80095C6.70967 5.80095 6.98804 5.85214 7.23121 5.95773C7.47439 6.05692 7.66636 6.2105 7.80715 6.41528C7.94793 6.61686 8.01833 6.85683 8.01833 7.1352C8.01833 7.21839 8.00873 7.32398 7.98953 7.45196C7.92874 7.80712 7.85834 8.15588 7.77195 8.49184C7.63117 9.03898 7.3912 9.45174 7.04563 9.72371C6.70327 9.99248 6.24253 10.1237 5.66659 10.1237ZM5.75298 9.25976C5.97696 9.25976 6.16573 9.19257 6.32252 9.06138C6.4825 8.9302 6.59769 8.72862 6.66488 8.45345C6.75767 8.07589 6.82806 7.74953 6.87605 7.46796C6.89205 7.38477 6.90165 7.29838 6.90165 7.20879C6.90165 6.84403 6.71287 6.66165 6.33211 6.66165C6.10814 6.66165 5.91616 6.72884 5.75618 6.86003C5.5994 6.99121 5.48741 7.19279 5.42022 7.46796C5.34663 7.73673 5.27623 8.06309 5.20264 8.45345C5.18664 8.53344 5.17705 8.61663 5.17705 8.70622C5.17385 9.07738 5.36902 9.25976 5.75298 9.25976Z" fill="white"/>
<path id="Vector_3" d="M8.29665 10.0661C8.25186 10.0661 8.21986 10.0533 8.19427 10.0245C8.17507 9.99248 8.16867 9.95728 8.17507 9.91568L9.00377 6.01212C9.01017 5.96733 9.03257 5.93213 9.07097 5.90334C9.10616 5.87454 9.14456 5.86174 9.18615 5.86174H10.7828C11.2275 5.86174 11.5827 5.95453 11.8515 6.13691C12.1234 6.32249 12.261 6.58806 12.261 6.93682C12.261 7.03601 12.2482 7.1416 12.2258 7.25038C12.1266 7.71113 11.925 8.05029 11.6179 8.27107C11.3171 8.49184 10.9044 8.60063 10.3796 8.60063H9.57011L9.29494 9.91568C9.28534 9.96048 9.26615 9.99567 9.22775 10.0245C9.19255 10.0533 9.15416 10.0661 9.11256 10.0661H8.29665ZM10.4212 7.77193C10.5908 7.77193 10.7348 7.72713 10.8596 7.63434C10.9876 7.54155 11.0707 7.41037 11.1123 7.23759C11.1251 7.17039 11.1315 7.1096 11.1315 7.05841C11.1315 6.94322 11.0963 6.85363 11.0291 6.79284C10.962 6.72884 10.8436 6.69685 10.6804 6.69685H9.96047L9.73329 7.77193H10.4212Z" fill="white"/>
</g>
<defs>
<clipPath id="clip0_2225_45013">
<rect width="15.9982" height="15.9982" fill="white"/>
</clipPath>
</defs>
</svg>
