<?xml version="1.0" encoding="UTF-8"?>
<svg width="80px" height="80px" viewBox="0 0 80 80" version="1.1" xmlns="http://www.w3.org/2000/svg" xmlns:xlink="http://www.w3.org/1999/xlink">
    <title>PC</title>
    <g id="Icon" stroke="none" stroke-width="1" fill="none" fill-rule="evenodd">
        <g id="Special" transform="translate(-237.000000, -143.000000)">
            <g id="PC" transform="translate(237.000000, 143.000000)">
                <path d="M0,0 L72,0 C76.418278,-8.11624501e-16 80,3.581722 80,8 L80,80 L80,80 L0,0 Z" id="Shape" fill="#EEF3FD"></path>
                <rect id="Shape" stroke="#979797" fill="#D8D8D8" opacity="0" x="24.5" y="8.5" width="47" height="47"></rect>
                <path d="M57.6451613,44.0967742 C58.446865,44.0967742 59.0967742,44.7466834 59.0967742,45.5483871 C59.0967742,46.3500908 58.446865,47 57.6451613,47 L39.2580645,47 C38.4563608,47 37.8064516,46.3500908 37.8064516,45.5483871 C37.8064516,44.7466834 38.4563608,44.0967742 39.2580645,44.0967742 L57.6451613,44.0967742 Z M61.0322581,17 C63.1701345,17 64.9032258,18.7330913 64.9032258,20.8709677 L64.9032258,37.3225806 C64.9032258,39.4604571 63.1701345,41.1935484 61.0322581,41.1935484 L35.8709677,41.1935484 C33.7330913,41.1935484 32,39.4604571 32,37.3225806 L32,20.8709677 C32,18.7330913 33.7330913,17 35.8709677,17 L61.0322581,17 Z M61.999,36.354 L34.903,36.354 L34.9032258,37.3225806 C34.9032258,37.8188734 35.2768131,38.2279102 35.7581086,38.2838119 L35.8709677,38.2903226 L61.0322581,38.2903226 C61.5285508,38.2903226 61.9375876,37.9167353 61.9934893,37.4354398 L62,37.3225806 L61.999,36.354 Z M61.0322581,19.9032258 L35.8709677,19.9032258 C35.374675,19.9032258 34.9656382,20.2768131 34.9097365,20.7581086 L34.9032258,20.8709677 L34.903,33.451 L61.999,33.451 L62,20.8709677 C62,20.374675 61.6264127,19.9656382 61.1451172,19.9097365 L61.0322581,19.9032258 Z" id="SHape" fill="#5d42ff"></path>
                <path d="M0,0 L72,0 C76.418278,-8.11624501e-16 80,3.581722 80,8 L80,80 L80,80 L0,0 Z" id="Shape" fill="#FFFFFF" transform="translate(40.000000, 40.000000) scale(-1, -1) translate(-40.000000, -40.000000) "></path>
                <path d="M0,0 L72,0 C76.418278,-8.11624501e-16 80,3.581722 80,8 L80,80 L80,80 L0,0 Z" id="Shape" fill="#FFFFFF" transform="translate(40.000000, 40.000000) scale(-1, -1) translate(-40.000000, -40.000000) "></path>
            </g>
        </g>
    </g>
</svg>
