<svg width="50" height="50" viewBox="0 0 50 50" fill="none" xmlns="http://www.w3.org/2000/svg">
<rect x="1" y="1" width="48" height="48" rx="24" fill="white"/>
<rect x="1" y="1" width="48" height="48" rx="24" stroke="#C5CBD5" stroke-width="0.5" stroke-miterlimit="0" stroke-linejoin="bevel"/>
<path fill-rule="evenodd" clip-rule="evenodd" d="M19.2475 15.5C18.3216 15.5 17.571 16.2506 17.571 17.1765V32.8235C17.571 33.7494 18.3216 34.5 19.2475 34.5H29.7534C30.6793 34.5 31.4299 33.7494 31.4299 32.8235V17.1765C31.4299 16.2506 30.6793 15.5 29.7534 15.5H19.2475ZM19.2466 18.2978C19.2466 17.6805 19.747 17.1802 20.3642 17.1802H28.6349C29.2521 17.1802 29.7525 17.6805 29.7525 18.2978V28.9116C29.7525 29.5289 29.2521 30.0293 28.6349 30.0293H20.3642C19.747 30.0293 19.2466 29.5289 19.2466 28.9116V18.2978ZM23.1029 31.9733C23.1029 31.572 23.4281 31.2468 23.8294 31.2468H25.1705C25.5718 31.2468 25.897 31.572 25.897 31.9733C25.897 32.3745 25.5718 32.6997 25.1705 32.6997H23.8294C23.4281 32.6997 23.1029 32.3745 23.1029 31.9733Z" fill="#515A62"/>
</svg>
