<svg width="49" height="48" viewBox="0 0 49 48" fill="none" xmlns="http://www.w3.org/2000/svg">
<path d="M12.0589 1.5C9.86596 1.5 8.08826 3.27769 8.08826 5.47059V42.5294C8.08826 44.7223 9.86596 46.5 12.0589 46.5H36.9413C39.1342 46.5 40.9119 44.7223 40.9119 42.5294V5.47059C40.9119 3.27769 39.1342 1.5 36.9413 1.5H12.0589ZM12.0565 8.12639C12.0565 6.66446 13.2416 5.47933 14.7036 5.47933H34.2919C35.7538 5.47933 36.9389 6.66446 36.9389 8.12639V33.2644C36.9389 34.7263 35.7538 35.9115 34.2919 35.9115H14.7036C13.2416 35.9115 12.0565 34.7263 12.0565 33.2644V8.12639ZM21.1898 40.5156C21.1898 39.5654 21.9602 38.795 22.9104 38.795H26.0869C27.0372 38.795 27.8075 39.5654 27.8075 40.5156C27.8075 41.4659 27.0372 42.2362 26.0869 42.2362H22.9104C21.9602 42.2362 21.1898 41.4659 21.1898 40.5156Z" fill="#55585e"/>
</svg>
