<svg width="20" height="21" viewBox="0 0 20 21" fill="none" xmlns="http://www.w3.org/2000/svg">
<path d="M12.1226 1.10893C12.3977 0.939418 12.7505 0.965209 12.9981 1.17294L18.6648 5.92789C18.9122 6.13545 18.9989 6.47804 18.8801 6.77831C18.7614 7.07857 18.4637 7.26911 18.1413 7.25128L16.3499 7.15222L13.9713 12.48C14.377 13.2183 14.6508 13.9652 14.6833 14.7255C14.7223 15.6357 14.4125 16.478 13.7543 17.2625C13.6265 17.4149 13.4433 17.5102 13.2451 17.5275C13.047 17.5449 12.8501 17.4828 12.6977 17.3549L9.29661 14.5011L2.7699 20.2705C2.49199 20.5161 2.07625 20.5217 1.7918 20.2837C1.50736 20.0456 1.43967 19.6354 1.63255 19.3185L6.16499 11.8734L2.78124 9.03406C2.46393 8.76781 2.42216 8.29443 2.6884 7.97712C3.34927 7.1895 4.15017 6.73015 5.05929 6.60403C5.82005 6.49849 6.60187 6.63364 7.37586 6.92306L12.199 3.67002L11.786 1.91969C11.7118 1.60515 11.8474 1.27845 12.1226 1.10893ZM4.39284 8.42825L7.62276 11.1385C7.90663 11.3767 7.97399 11.7865 7.78129 12.103L5.49369 15.8607L8.78714 12.9494C9.06531 12.7035 9.48154 12.6982 9.76595 12.9368L13.0154 15.6634C13.1496 15.3654 13.197 15.078 13.1847 14.7897C13.1625 14.2712 12.9432 13.6642 12.4885 12.911C12.3616 12.7008 12.3456 12.4418 12.4457 12.2176L15.1908 6.06909C15.3176 5.7851 15.6065 5.60882 15.917 5.62599L15.9753 5.62921L13.7648 3.77438L13.7779 3.82987C13.8495 4.13337 13.7258 4.44951 13.4673 4.62388L7.8832 8.39017C7.6698 8.5341 7.3975 8.55854 7.16188 8.45492C6.41712 8.12737 5.78862 8.01721 5.26541 8.0898C4.96512 8.13146 4.67404 8.2366 4.39284 8.42825Z" fill="#55585e"/>
</svg>
