
<svg width="48px" height="48px" viewBox="0 0 48 48" version="1.1" xmlns="http://www.w3.org/2000/svg" xmlns:xlink="http://www.w3.org/1999/xlink">
    
    <g id="hdfsgqkcpw" stroke="none" stroke-width="1" fill="none" fill-rule="evenodd">
        <g transform="translate(-782.000000, -254.000000)" id="elczshidjz">
            <g transform="translate(782.000000, 254.000000)">
                <rect id="xqtmervntb" stroke="#979797" fill="#D8D8D8" opacity="0" x="0.5" y="0.5" width="47" height="47"></rect>
                <path d="M22.3992008,10.1352013 C22.2683772,10.3321596 22.1990419,10.5635558 22.2000008,10.8000013 L22.2000008,22.2000007 L10.8000013,22.2000007 C10.1372597,22.2000007 9.60000139,22.737259 9.60000139,23.4000007 L9.60000139,24.6 C9.60000139,25.2627423 10.1372597,25.8000006 10.8000013,25.8000006 L22.2000008,25.8000006 L22.2000008,37.2 C22.2000008,37.8627417 22.7372591,38.4 23.4000008,38.4 L24.6000014,38.4 C25.2627424,38.4 25.8000007,37.8627417 25.8000007,37.2 L25.8000007,25.8000006 L37.2000001,25.8000006 C37.8627418,25.8000006 38.4000098,25.2627423 38.4000098,24.6 L38.4000098,23.4000007 C38.4012824,23.0813495 38.275266,22.7753792 38.0499438,22.550057 C37.8246216,22.3247348 37.5186513,22.1987184 37.2000001,22.2000007 L25.8000007,22.2000007 L25.8000007,10.8000013 C25.8000007,10.1372596 25.2627424,9.6 24.6000014,9.6 L23.4000008,9.6 C22.9977887,9.599405 22.6220261,9.80035237 22.3992008,10.1352013 Z" id="ndzmenrxzc" fill="#55585e"></path>
            </g>
        </g>
    </g>
</svg>
