<svg width="16" height="16" viewBox="0 0 16 16" fill="none" xmlns="http://www.w3.org/2000/svg">
<g id="Type=polygon">
<path id="Vector" d="M7.99685 0C12.4172 0 16 3.58284 16 8.00315C16 12.4235 12.4172 16.0031 8 16.0031C3.57969 16.0031 2.07335e-06 12.4203 2.07335e-06 8.00315C-0.00314629 3.58284 3.57969 0 7.99685 0Z" fill="#8247E5"/>
<path id="Vector_2" d="M10.6194 6.25896C10.4274 6.14877 10.1818 6.14877 9.96457 6.25896L8.43447 7.16569L7.39551 7.74184L5.89374 8.64542C5.70169 8.75562 5.45611 8.75562 5.23888 8.64542L4.06454 7.93074C3.87249 7.82055 3.73711 7.60017 3.73711 7.35459V5.98191C3.73711 5.76152 3.8473 5.54428 4.06454 5.40576L5.23888 4.71941C5.43093 4.60922 5.6765 4.60922 5.89374 4.71941L7.06808 5.43409C7.26013 5.54428 7.39551 5.76467 7.39551 6.01024V6.91697L8.43447 6.31248V5.38057C8.43447 5.16018 8.32428 4.94295 8.10704 4.80442L5.92207 3.51359C5.73002 3.40339 5.48445 3.40339 5.26721 3.51359L3.02872 4.83275C2.81149 4.94295 2.70129 5.16333 2.70129 5.38057V7.95908C2.70129 8.17947 2.81149 8.3967 3.02872 8.53523L5.24203 9.82606C5.43408 9.93625 5.67965 9.93625 5.89689 9.82606L7.39866 8.94767L8.43762 8.34318L9.93939 7.46479C10.1314 7.35459 10.377 7.35459 10.5942 7.46479L11.7686 8.15113C11.9606 8.26132 12.096 8.48171 12.096 8.72728V10.1C12.096 10.3204 11.9858 10.5376 11.7686 10.6761L10.6226 11.3625C10.4305 11.4727 10.185 11.4727 9.96772 11.3625L8.79023 10.6761C8.59818 10.5659 8.4628 10.3455 8.4628 10.1V9.22157L7.42384 9.82606V10.7328C7.42384 10.9532 7.53404 11.1704 7.75127 11.3089L9.96457 12.5998C10.1566 12.71 10.4022 12.71 10.6194 12.5998L12.8327 11.3089C13.0248 11.1987 13.1602 10.9784 13.1602 10.7328V8.12594C13.1602 7.90556 13.05 7.68832 12.8327 7.54979L10.6194 6.25896Z" fill="white"/>
</g>
</svg>
