<svg width="142" height="32" viewBox="0 0 142 32" fill="none" xmlns="http://www.w3.org/2000/svg">
<path d="M63.4509 9.59998C66.9825 9.59998 69.8509 12.4683 69.8509 16C69.8509 19.5316 66.9825 22.4 63.4509 22.4C59.9193 22.4 57.0509 19.5316 57.0509 16C57.0509 12.4683 59.9193 9.59998 63.4509 9.59998ZM63.4509 7.27271C58.6335 7.27271 54.7236 11.1825 54.7236 16C54.7236 20.8174 58.6335 24.7273 63.4509 24.7273C68.2684 24.7273 72.1782 20.8174 72.1782 16C72.1782 11.1825 68.2684 7.27271 63.4509 7.27271Z" fill="#2F3239"/>
<path d="M126.875 9.59998C127.515 9.59998 128.039 9.07634 128.039 8.43634V7.27271H116.402V24.7273H126.875C127.515 24.7273 128.039 24.2036 128.039 23.5636V22.4H118.729V17.1636H126.875V14.8363H118.729V9.59998H126.875Z" fill="#2F3239"/>
<path d="M95.4509 7.27271H88.4691V9.59998H93.1237V24.7273H94.2873C94.9273 24.7273 95.4509 24.2036 95.4509 23.5636V9.59998H98.9418C99.5818 9.59998 100.105 9.07634 100.105 8.43634V7.27271H95.4509Z" fill="#2F3239"/>
<path d="M46.5782 7.27271H40.76V24.7273H41.9236C42.5636 24.7273 43.0873 24.2036 43.0873 23.5636V18.9091H46.5782C49.7898 18.9091 52.3964 16.3025 52.3964 13.0909C52.3964 9.87925 49.7898 7.27271 46.5782 7.27271ZM46.5782 16.5818H43.0873V9.59998H46.5782C48.504 9.59998 50.0691 11.1651 50.0691 13.0909C50.0691 15.0167 48.504 16.5818 46.5782 16.5818Z" fill="#2F3239"/>
<path d="M86.1419 13.0909C86.1419 9.87925 83.5353 7.27271 80.3237 7.27271H74.5055V24.7273H75.6691C76.3091 24.7273 76.8328 24.2036 76.8328 23.5636V18.9091H80.0968L83.4539 24.7273H86.1419L82.5288 18.4727C84.6466 17.6058 86.1419 15.5229 86.1419 13.0909ZM76.8328 9.59998H80.3237C82.2495 9.59998 83.8146 11.1651 83.8146 13.0909C83.8146 15.0167 82.2495 16.5818 80.3237 16.5818H76.8328V9.59998Z" fill="#2F3239"/>
<path d="M111.387 24.7273H114.075L108.152 14.4756L112.312 7.27271H109.624L104.76 15.6916V7.27271H102.433V24.7273H103.596C104.236 24.7273 104.76 24.2036 104.76 23.5636V20.3462L106.808 16.7971L111.387 24.7214V24.7273Z" fill="#2F3239"/>
<path d="M142.002 7.27271H139.314L136.184 12.6953L133.054 7.27271H130.366L135.02 15.3367V24.7273H136.184C136.824 24.7273 137.348 24.2036 137.348 23.5636V15.3367L142.002 7.27271Z" fill="#2F3239"/>
<path d="M13.667 5.82401C9.38478 7.70329 6.69096 12.2996 8.25605 16.8611C9.20441 19.6189 11.1128 21.5913 13.9521 22.5978C18.9091 24.3549 24.0757 20.4916 23.4997 15.4647C23.2495 13.3295 22.1673 11.7062 19.9681 11.0255C18.3331 10.5251 16.7622 10.7578 15.4764 11.9506C14.3942 12.9571 13.9753 14.2022 14.4117 15.6509C14.6502 16.448 15.2262 16.9426 16.0117 17.1753C16.6982 17.3847 17.2335 17.0822 17.6466 16.512C17.5651 16.3724 17.4895 16.2211 17.3906 16.0931C16.8553 15.4007 17.2859 14.3942 17.7513 13.9753C18.3797 13.4051 19.3979 13.3527 20.0728 13.824C21.155 14.5862 21.6553 16.6167 21.0619 17.8967C20.0728 20.032 17.5302 21.2713 15.203 20.6662C11.5259 19.712 9.7106 16.0756 10.8975 12.5673C12.4742 7.9011 17.7804 5.85892 22.3011 8.09892C25.955 9.90838 27.3106 13.0618 27.171 16.8262C26.9324 23.0167 20.6895 27.6073 14.4233 26.4146C8.34914 25.2567 3.83423 19.4386 4.16005 13.9404C4.27641 11.9098 4.73605 10.0073 5.77169 8.26183C8.4655 3.71783 12.6779 1.58256 17.9433 1.23347C19.3281 1.14038 20.7302 1.21601 22.051 1.21601C21.9811 1.18692 21.8124 1.09965 21.6437 1.04147C19.0662 0.0814661 16.4073 -0.226898 13.6844 0.162921C11.9971 0.372375 10.432 0.832012 9.01823 1.47783C8.99496 1.47783 8.96005 1.48947 8.92514 1.50692C8.29096 1.78038 8.18041 1.15783 7.95351 0.96583C7.73241 0.785466 7.7615 1.01238 7.7615 1.01238C7.95351 1.92583 7.4706 2.29238 7.4066 2.33892C7.00514 2.5891 6.62114 2.85674 6.24878 3.14183C6.23714 3.14183 6.2255 3.14183 6.21969 3.15347C5.34114 3.55492 4.9746 2.87419 4.57314 2.67056C4.1426 2.45528 4.3055 2.81019 4.3055 2.81019C4.83496 3.86328 4.37532 4.7651 4.28805 4.91056C3.91569 5.31201 3.5666 5.73674 3.23496 6.17892C3.20005 6.20219 3.16514 6.21965 3.12441 6.25456C2.26332 7.03419 1.58841 6.41747 1.05896 6.3011C0.471323 6.1731 0.80296 6.5571 0.80296 6.5571C1.89096 7.67419 1.54769 9.01238 1.54769 9.01238C0.157142 12.0378 -0.343222 15.5346 0.238596 19.0429C2.15278 30.5804 16.3433 36.032 25.6408 28.5964C28.6604 26.1818 30.755 21.5331 30.9761 17.6873C31.1331 14.9527 30.2895 12.4742 28.7302 10.2342C25.4255 5.4691 18.8219 3.56074 13.6611 5.82401H13.667Z" fill="#5d42ff"/>
</svg>
