
<svg width="32px" height="32px" viewBox="0 0 32 32" version="1.1" xmlns="http://www.w3.org/2000/svg" xmlns:xlink="http://www.w3.org/1999/xlink">
    
    <g id="jzbvzedkhs" stroke="none" stroke-width="1" fill="none" fill-rule="evenodd">
        <g id="uokyhqcwpz" transform="translate(-880.000000, -40.000000)" fill="#5d42ff">
            <g id="xixcxuhcyg" transform="translate(860.000000, 20.000000)">
                <g id="viiwxgkkch" transform="translate(20.800000, 20.000000)">
                    <path d="M13.6651472,5.82049009 C9.38366607,7.69859667 6.69098376,12.2919557 8.25858037,16.8565891 C9.20652491,19.6169817 11.1167768,21.5840008 13.9496674,22.5893965 C18.9034641,24.3478132 24.0747547,20.4814852 23.4947713,15.4558745 C23.2485519,13.3199215 22.1638189,11.6935058 19.9608395,11.0205062 C18.3221129,10.5198602 16.7538323,10.7537686 15.4741756,11.9445128 C14.3880746,12.9540122 13.9763411,14.1974199 14.4113287,15.6425908 C14.6513925,16.4373322 15.2279562,16.9318228 16.0124385,17.167783 C16.7011687,17.3743337 17.2339601,17.0754507 17.6443257,16.5036746 C17.5615686,16.3655182 17.4890707,16.2143669 17.3885311,16.0844178 C16.853004,15.3922678 17.2873076,14.3855042 17.7503368,13.9662473 C18.379564,13.3965231 19.3986386,13.3445434 20.0682185,13.8164639 C21.1543195,14.5804278 21.6481261,16.6124215 21.0578836,17.8872907 C20.0702703,20.0198239 17.5307912,21.2611799 15.2005985,20.6572585 C11.5216709,19.7038424 9.70785489,16.0714229 10.8951794,12.5600612 C12.4730351,7.89420427 17.7763266,5.85331934 22.2958198,8.09117976 C25.9494416,9.89952419 27.3056999,13.0572875 27.1600201,16.8162364 C26.9213241,23.0052337 20.6762435,27.5965409 14.4140644,26.4030609 C8.34065349,25.2458299 3.8307355,19.4302653 4.15424039,13.9306823 C4.27324641,11.9000565 4.72533252,9.99869588 5.76424144,8.25395812 C8.46718288,3.71668243 12.677534,1.5814134 17.9438926,1.23602235 C19.3302444,1.14505798 20.7282232,1.2223435 22.0489165,1.22302744 C21.9764186,1.19088213 21.8109044,1.10949296 21.6385509,1.04520234 C19.0669264,0.082211061 16.4091252,-0.224879199 13.6856655,0.163600239 C11.997011,0.371518812 10.4383057,0.827708575 9.02117645,1.48018988 C8.99518663,1.48429354 8.96440921,1.4931848 8.92679236,1.50891548 C8.28935779,1.78044072 8.18266273,1.156685 7.95627771,0.967916823 C7.73604817,0.784620186 7.76477376,1.0123731 7.76477376,1.0123731 C7.95696165,1.92680445 7.47546601,2.29544955 7.41049145,2.34058977 C7.0090171,2.58886096 6.62395738,2.85696649 6.25189257,3.13875087 C6.24094948,3.14353847 6.23274217,3.14353847 6.22111514,3.14901001 C5.34224881,3.54980041 4.97702342,2.87269717 4.5728133,2.66683042 C4.14534913,2.44933665 4.3067596,2.80635473 4.3067596,2.80635473 C4.83613123,3.85825856 4.37925753,4.75832712 4.29376469,4.91016239 C3.91896411,5.31437251 3.56810152,5.73910091 3.23980903,6.18024393 C3.2056119,6.2021301 3.17209871,6.22264838 3.13311398,6.25752946 C2.26997832,7.03790805 1.59834662,6.42030781 1.06487133,6.30403756 C0.476680633,6.17682422 0.809760715,6.56188395 0.809760715,6.56188395 C1.89791351,7.67602656 1.55389034,9.01587026 1.55389034,9.01587026 L1.55662611,9.01723814 C0.15864729,12.0382129 -0.343366632,15.5345279 0.237300698,19.0445217 C2.1461847,30.5819506 16.3373112,36.0309219 25.6396155,28.5985169 C28.6605903,26.1848832 30.7561907,21.5354409 30.9771041,17.6889473 C31.134411,14.9572803 30.2897418,12.4779881 28.7324043,10.2332882 C25.4282772,5.47031144 18.8241268,3.55732378 13.6651472,5.82049009" id="femgilpfve"></path>
                </g>
            </g>
        </g>
    </g>
</svg>
