
<svg width="48px" height="48px" viewBox="0 0 48 48" version="1.1" xmlns="http://www.w3.org/2000/svg" xmlns:xlink="http://www.w3.org/1999/xlink">
    <title>znyfhszbmh</title>
    <g id="dtmnrshopz" stroke="none" stroke-width="1" fill="none" fill-rule="evenodd">
        <g id="fwevyigrjo" transform="translate(-156.000000, -304.000000)">
            <g id="mqnnqmhndn" transform="translate(156.000000, 304.000000)">
                <rect id="mzbkeesbsh" fill="#FFFFFF" x="0" y="0" width="48" height="48" rx="4"></rect>
                <g id="fmmlxyegre" transform="translate(8.400000, 8.400000)">
                    <rect id="vsfbuknqxe" fill="#FFFFFF" opacity="0" x="0" y="0" width="31.2" height="31.2"></rect>
                    <path d="M14.1035185,5.67497784 C9.92907441,7.50613175 7.30370917,11.9846568 8.83211586,16.4351743 C9.75636179,19.1265571 11.6188574,21.0444008 14.3809257,22.0246616 C19.2108775,23.7391178 24.2528858,19.9694481 23.687402,15.0694776 C23.4473381,12.9869235 22.3897234,11.4011682 20.2418185,10.7449936 C18.64406,10.2568637 17.1149865,10.4849244 15.8673212,11.6459 C14.8083727,12.6301619 14.4069326,13.8424845 14.8310454,15.251526 C15.0651077,16.0263989 15.6272573,16.5085272 16.3921275,16.7385884 C17.0636395,16.9399753 17.5831111,16.6485644 17.9832175,16.0910828 C17.9025294,15.9563803 17.8318439,15.8090077 17.7338178,15.6823073 C17.2116789,15.0074611 17.6351249,14.0258666 18.0865784,13.6170911 C18.7000749,13.06161 19.6936727,13.0109298 20.346513,13.4710523 C21.4054615,14.2159171 21.8869229,16.197111 21.3114365,17.4401084 C20.3485136,19.5193283 17.8725214,20.7296504 15.6005835,20.140827 C12.0136291,19.2112464 10.2451585,15.6696373 11.4027999,12.2460597 C12.9412092,7.69684917 18.1119184,5.70698635 22.5184243,7.88890027 C26.0807055,9.65203609 27.4030574,12.7308553 27.2610196,16.3958305 C27.028291,22.4301029 20.9393375,26.9066273 14.8337128,25.7429844 C8.91213715,24.6146841 4.51496711,18.9445087 4.83038438,13.5824152 C4.94641525,11.6025551 5.38719921,9.74872848 6.4001354,8.04760917 C9.03550331,3.62376537 13.1405956,1.54187807 18.2752952,1.20512179 C19.6269883,1.11643153 20.9900176,1.19178491 22.2776936,1.19245175 C22.2070081,1.16111008 22.0456318,1.08175563 21.8775871,1.01907229 C19.3702533,0.0801557845 16.7788971,-0.219257219 14.1235238,0.159510233 C12.4770857,0.362230841 10.957348,0.80701586 9.57564704,1.44318514 C9.55030696,1.4471862 9.52029898,1.45585518 9.48362255,1.47119259 C8.86212384,1.7359297 8.75809616,1.12776788 8.53737076,0.943718902 C8.32264696,0.765004682 8.35065441,0.987063769 8.35065441,0.987063769 C8.53803761,1.87863434 8.06857936,2.23806331 8.00522917,2.28207502 C7.61379168,2.52413943 7.23835844,2.78554232 6.87559525,3.0602821 C6.86492575,3.06495 6.85692362,3.06495 6.84558727,3.07028476 C5.98869259,3.4610554 5.63259784,2.80087974 5.23849297,2.60015966 C4.8217154,2.38810324 4.97909061,2.73619586 4.97909061,2.73619586 C5.49522795,3.7618021 5.04977609,4.63936894 4.96642057,4.78740833 C4.60099,5.1815132 4.25889898,5.59562339 3.93881381,6.02573784 C3.9054716,6.04707685 3.87279624,6.06708217 3.83478613,6.10109122 C2.99322886,6.86196035 2.33838795,6.25980012 1.81824955,6.14643662 C1.24476362,6.02240362 1.5695167,6.39783685 1.5695167,6.39783685 C2.63046567,7.4841259 2.29504308,8.7904735 2.29504308,8.7904735 L2.29771046,8.79180719 C0.934681108,11.7372576 0.445217534,15.1461647 1.01136818,18.5684086 C2.87253008,29.8174019 16.7088784,35.1301489 25.7786251,27.883554 C28.7240756,25.5302611 30.7672859,20.9970549 30.9826765,17.2467236 C31.1360507,14.5833483 30.3124982,12.1660384 28.7940942,9.97745601 C25.5725703,5.33355365 19.1335236,3.46839069 14.1035185,5.67497784" id="dnuvqxtgyf" fill="#000000"></path>
                </g>
            </g>
        </g>
    </g>
</svg>