<svg width="28" height="28" viewBox="0 0 28 28" fill="none" xmlns="http://www.w3.org/2000/svg">
<rect width="28" height="28" rx="6" fill="#547AFF"/>
<path fill-rule="evenodd" clip-rule="evenodd" d="M13.0006 8.42966C10.665 9.45676 9.19602 11.9687 10.0512 14.465C10.5683 15.9746 11.6104 17.0503 13.1558 17.6001C15.8583 18.5617 18.6794 16.4474 18.363 13.699C18.2286 12.5309 17.6369 11.6415 16.4351 11.2734C15.5411 10.9996 14.6856 11.1276 13.9875 11.7787C13.395 12.3308 13.1704 13.0108 13.4077 13.8011C13.5387 14.2357 13.8532 14.5062 14.2812 14.6352C14.6569 14.7482 14.9475 14.5847 15.1714 14.272C15.1262 14.1965 15.0867 14.1138 15.0318 14.0428C14.7397 13.6642 14.9766 13.1137 15.2292 12.8844C15.5725 12.5728 16.1284 12.5444 16.4937 12.8025C17.0862 13.2203 17.3556 14.3315 17.0336 15.0287C16.4948 16.1949 15.1094 16.8738 13.8383 16.5435C11.8313 16.0221 10.8418 14.0356 11.4895 12.1154C12.3503 9.56373 15.2434 8.44762 17.7088 9.67145C19.7021 10.6604 20.442 12.3873 20.3625 14.443C20.2323 17.8276 16.8254 20.3385 13.4092 19.6858C10.096 19.053 7.63567 15.8725 7.81215 12.8649C7.87708 11.7544 8.12371 10.7146 8.69046 9.76047C10.165 7.27915 12.4619 6.11142 15.3348 5.92253C16.0911 5.87279 16.8537 5.91505 17.5743 5.91542C17.5347 5.89785 17.4444 5.85333 17.3504 5.81817C15.9474 5.29155 14.4976 5.1236 13.0118 5.33605C12.0906 5.44976 11.2403 5.69924 10.4672 6.05607C10.453 6.05831 10.4362 6.06317 10.4157 6.07177C10.068 6.22025 10.0098 5.87914 9.88627 5.77591C9.76613 5.67567 9.7818 5.80022 9.7818 5.80022C9.88666 6.3003 9.62398 6.5019 9.58853 6.52659C9.36951 6.66237 9.15946 6.80899 8.95648 6.96309C8.95051 6.9657 8.94603 6.9657 8.9397 6.96869C8.46025 7.18788 8.26101 6.81758 8.04049 6.705C7.80731 6.58606 7.89537 6.7813 7.89537 6.7813C8.18415 7.35656 7.9349 7.84879 7.88826 7.93183C7.68381 8.15289 7.49239 8.38516 7.3133 8.6264C7.29464 8.63837 7.27637 8.64959 7.25509 8.66866C6.78424 9.09543 6.41784 8.75768 6.12682 8.69411C5.80594 8.62453 5.98764 8.83512 5.98764 8.83512C6.58126 9.44442 6.39359 10.1771 6.39359 10.1771C5.63095 11.8292 5.35858 13.742 5.67535 15.6616C6.71671 21.9711 14.4584 24.951 19.533 20.8864C21.181 19.5664 22.3243 17.0238 22.4449 14.9202C22.5306 13.4264 22.0698 12.0705 21.2202 10.8429C19.4177 8.23816 15.815 7.19199 13.0006 8.42966Z" fill="white"/>
</svg>
