<svg width="25" height="24" viewBox="0 0 25 24" fill="none" xmlns="http://www.w3.org/2000/svg">
<path d="M11.0731 5.22898C8.5977 6.3149 6.80561 9.25983 7.68646 12.5298C8.30759 14.3385 9.48967 15.6428 11.3459 16.3016C14.5918 17.4538 18.0358 14.8859 17.5428 11.59C17.333 10.1877 16.4344 9.26405 15.2036 8.92065C14.1501 8.67393 13.0871 8.8578 12.3221 9.5879C11.7908 10.0949 11.483 10.8993 11.6484 11.7498C11.8057 12.2705 12.0564 12.5945 12.6975 12.7491C13.05 12.8342 13.5 12.7491 13.6381 12.4309C13.7317 12.215 13.645 12.0383 13.5812 11.8339C13.4078 11.2778 13.5203 10.9572 13.8237 10.6825C14.2307 10.2798 14.922 10.2734 15.3607 10.5827C15.9252 10.8715 16.3745 11.7913 15.8457 13.2046C15.2407 14.6587 13.6642 15.0968 12.1941 14.7158C10.0692 14.1651 8.91093 11.7498 9.41988 9.82958C10.2667 6.6347 13.8276 5.64629 16.7889 7.11262C18.7871 8.23763 20.0383 10.0529 20.0018 12.5188C19.8454 16.5741 15.743 19.5649 11.6398 18.7829C7.51935 17.9196 5.04596 14.351 4.99134 10.8551C4.97103 9.55541 5.21877 8.24357 5.89674 6.86078C7.50603 3.82036 10.3016 2.39768 13.8609 2.18498C14.7947 2.12918 15.4718 2.18498 16.6528 2.3015C16.6053 2.28044 16.4968 2.22711 16.3839 2.18498C14.6989 1.55399 12.9574 1.35277 11.1729 1.60732C10.0254 1.771 9.08436 2.09949 8.15581 2.52702C7.75585 2.66743 7.69646 2.32783 7.38755 2.07024C7.24324 1.95014 7.25758 2.10273 7.25758 2.10273C7.38351 2.7019 7.10376 3.00419 7.06118 3.03377C6.91245 3.179 6.55085 3.4479 6.30203 3.55676C5.7887 3.78134 5.55045 3.4116 5.14161 3.20337C4.86152 3.06086 4.97103 3.29679 4.97103 3.29679C5.31789 3.98603 5.07501 4.61797 5.019 4.71746C4.78023 5.0635 4.58051 5.30916 4.2585 5.6003C3.69294 6.11164 3.0211 5.6184 2.82105 5.54375C2.4438 5.40298 2.7169 5.72464 2.7169 5.72464C2.86724 5.92451 3.40917 7.07191 3.24098 7.43536C2.28236 9.42138 1.9688 11.7101 2.3922 13.9945C3.96719 21.8765 12.9261 24.6099 18.5013 20.8007C21.4599 18.6149 22.4692 15.2125 22.5028 13.0906C22.5365 10.9688 22.0026 9.42584 21.0175 8.04863C18.6811 4.78209 14.4534 3.74606 11.0731 5.22898Z" fill="#B6BABF"/>
</svg>
