<svg width="80" height="80" viewBox="0 0 80 80" fill="none" xmlns="http://www.w3.org/2000/svg">
<rect width="80" height="80" rx="16" fill="#5D42FF"/>
<path fill-rule="evenodd" clip-rule="evenodd" d="M37.0383 22.3829C29.8699 25.5351 25.9547 33.6742 27.8885 41.4403C29.4756 46.0733 32.6739 49.3748 37.417 51.0621C46.0721 53.1827 54.172 48.4301 53.3982 39.0893C52.9857 35.5043 50.567 32.59 47.4813 31.645C44.7377 30.8046 41.7878 31.5015 39.9694 33.1958C38.151 34.8902 37.4616 36.9771 38.1899 39.4027C38.5919 40.7366 39.5572 41.5665 40.8706 41.9626C42.0837 42.0707 43.3106 41.5499 43.6029 40.848C43.4643 40.616 43.3429 40.3624 43.1746 40.1443C42.3582 38.6865 43.0051 37.2928 43.7803 36.5891C44.8338 35.6329 46.4596 35.674 47.5807 36.4661C49.3991 37.7483 50.0603 40.9098 49.0721 43.0496C47.4185 46.6288 43.6331 48.0546 39.7317 47.0409C33.982 45.5471 31.1813 39.0893 32.7958 34.3032C35.4376 26.472 44.1044 23.6507 51.3905 26.7283C56.9678 29.6913 59.535 34.4391 59.535 41.3725C59.1354 51.7603 48.6791 59.4665 38.1945 57.4631C28.0259 55.521 20.4751 45.7599 21.0167 36.5294C21.216 33.1212 21.9729 29.9299 23.7123 27.0016C28.2378 19.3861 35.2871 15.8023 44.1044 15.2226C46.4256 15.0699 48.8267 15.1204 51.0381 15.1216C50.9167 15.0676 50.57 14.9292 50.2814 14.8213C46.3223 13.2948 41.4237 12.739 36.975 13.4226C34.1477 13.7716 31.538 14.5373 29.1653 15.6324C29.1218 15.6393 29.0703 15.6542 29.0073 15.6806C27.94 16.1363 27.7614 15.0894 27.3824 14.7726C27.0137 14.4649 27.0617 14.8472 27.0617 14.8472C27.3835 16.382 26.5774 17.0007 26.4686 17.0765C25.7964 17.4932 25.1517 17.9432 24.5288 18.4162C24.5104 18.4242 24.4967 18.4242 24.4772 18.4333C23.0058 19.1061 22.3943 17.9696 21.7175 17.6241C21.0018 17.259 21.2721 17.8582 21.2721 17.8582C22.1584 19.6238 21.3934 21.1344 21.2503 21.3893C20.6228 22.0677 20.0353 22.7806 19.4857 23.521C19.4284 23.5577 19.3724 23.5922 19.3071 23.6507C17.862 24.9605 16.7374 23.9239 15.8443 23.7288C14.8595 23.5152 15.4171 24.1616 15.4171 24.1616C17.239 26.0316 16.663 28.2804 16.663 28.2804C14.3751 33.0853 13.4322 39.1189 14.5339 45.1104C18.6875 65.7452 41.9257 72.8285 57.0304 61.4593C63.0931 56.4186 65.9258 49.9332 65.9258 42.8373C65.9258 38.0886 64.433 32.977 62.235 30.1088C59.6692 25.9691 54.8684 22.36 49.4165 21.1615C45.3386 20.265 40.8308 20.7151 37.0383 22.3829Z" fill="white"/>
</svg>
