<svg width="28" height="28" viewBox="0 0 28 28" fill="none" xmlns="http://www.w3.org/2000/svg">
<path d="M19.4 7.6001C15.8 7.59999 12.2 7.59992 8.6 7.60008V20.4H19.4V7.6001ZM21 7.00012V21C21 21.5523 20.5523 22 20 22H8C7.44772 22 7 21.5523 7 21V7.00011C7 6.44785 7.44768 6.00015 7.99994 6.00012C12 5.99991 16 6.00001 20 6.00013C20.5523 6.00015 21 6.44786 21 7.00012Z" fill="#55585e"/>
<path d="M10.295 10.8C10.295 10.3582 10.6531 10 11.095 10H14.7262C15.168 10 15.5262 10.3582 15.5262 10.8C15.5262 11.2418 15.168 11.6 14.7262 11.6H11.095C10.6531 11.6 10.295 11.2418 10.295 10.8Z" fill="#55585e"/>
<path d="M10.295 14C10.295 13.5582 10.6531 13.2 11.095 13.2H14.7262C15.168 13.2 15.5262 13.5582 15.5262 14C15.5262 14.4418 15.168 14.8 14.7262 14.8H11.095C10.6531 14.8 10.295 14.4418 10.295 14Z" fill="#55585e"/>
<path d="M10.295 17.2C10.295 16.7582 10.6531 16.4 11.095 16.4H16.905C17.3468 16.4 17.705 16.7582 17.705 17.2C17.705 17.6419 17.3468 18 16.905 18H11.095C10.6531 18 10.295 17.6419 10.295 17.2Z" fill="#55585e"/>
</svg>
