<svg width="20" height="20" viewBox="0 0 20 20" fill="none" xmlns="http://www.w3.org/2000/svg">
<path d="M0.916748 10.0001C0.916748 4.98349 4.98349 0.916748 10.0001 0.916748C15.0167 0.916748 19.0834 4.98349 19.0834 10.0001C19.0834 15.0167 15.0167 19.0834 10.0001 19.0834C4.98349 19.0834 0.916748 15.0167 0.916748 10.0001ZM10.0001 2.41675C5.81192 2.41675 2.41675 5.81192 2.41675 10.0001C2.41675 11.6223 2.92609 13.1255 3.79357 14.3585C4.53464 12.5818 6.28787 11.3333 8.33312 11.3333H11.6665C13.7119 11.3333 15.4653 12.582 16.2062 14.359C17.0739 13.1259 17.5834 11.6225 17.5834 10.0001C17.5834 5.81192 14.1882 2.41675 10.0001 2.41675ZM15.0344 15.6714C14.7599 14.0602 13.3562 12.8333 11.6665 12.8333H8.33312C6.64356 12.8333 5.24 14.06 4.96524 15.6709C6.30437 16.8607 8.06783 17.5834 10.0001 17.5834C11.9321 17.5834 13.6954 16.8609 15.0344 15.6714ZM7.16675 7.50008C7.16675 5.93528 8.43528 4.66675 10.0001 4.66675C11.5649 4.66675 12.8334 5.93528 12.8334 7.50008C12.8334 9.06488 11.5649 10.3334 10.0001 10.3334C8.43528 10.3334 7.16675 9.06488 7.16675 7.50008ZM10.0001 6.16675C9.26371 6.16675 8.66675 6.76371 8.66675 7.50008C8.66675 8.23645 9.26371 8.83341 10.0001 8.83341C10.7365 8.83341 11.3334 8.23645 11.3334 7.50008C11.3334 6.76371 10.7365 6.16675 10.0001 6.16675Z" fill="#55585e"/>
</svg>
