<?xml version="1.0" encoding="UTF-8"?>
<svg width="80px" height="80px" viewBox="0 0 80 80" version="1.1" xmlns="http://www.w3.org/2000/svg" xmlns:xlink="http://www.w3.org/1999/xlink">
    <title>OR-code</title>
    <g id="Icon" stroke="none" stroke-width="1" fill="none" fill-rule="evenodd">
        <g id="Special" transform="translate(-147.000000, -143.000000)">
            <g id="OR-code" transform="translate(147.000000, 143.000000)">
                <path d="M0,0 L72,0 C76.418278,-8.11624501e-16 80,3.581722 80,8 L80,80 L80,80 L0,0 Z" id="Shape" fill="#EEF3FD"></path>
                <g id="Group" transform="translate(24.000000, 8.000000)">
                    <rect id="Shape" stroke="#979797" fill="#D8D8D8" opacity="0" x="0.5" y="0.5" width="47" height="47"></rect>
                    <path d="M11.2357078,17.2213634 L16.7214156,17.2213634 L16.7214156,11.7356617 L11.2357078,11.7356617 L11.2357078,17.2213634 Z M39.0070461,25.449936 L41.74992,25.449936 L41.74992,34.0213474 L39.0070461,34.0213474 L39.0070461,31.2784766 L36.2641722,31.2784766 L36.2641722,28.1928069 L33.5212983,28.1928069 L33.5212983,25.449936 L36.2641722,25.449936 L36.2641722,28.1928069 L39.0070461,28.1928069 L39.0070461,25.449936 L39.0070461,25.449936 Z M30.7785444,31.2785166 L36.2642522,31.2785166 L36.2642522,36.7642183 L39.0071261,36.7642183 L39.0071261,39.5070891 L41.75,39.5070891 L41.75,42.25 L36.2642922,42.25 L36.2642922,39.5070891 L33.5214183,39.5070891 L33.5214183,34.0213874 L30.7785444,34.0213874 L30.7785444,36.7642583 L27.6928712,36.7642583 L27.6928712,39.5071291 L30.7785444,39.5071291 L30.7785444,42.25 L24.9499973,42.25 L24.9499973,25.450056 L30.7785444,25.450056 L30.7785444,28.1929269 L27.6928712,28.1929269 L27.6928712,34.0214674 L30.7785444,34.0214674 L30.7785444,31.2785966 L30.7785444,31.2785166 Z M5.75,42.24988 L22.2070834,42.24988 L22.2070834,25.449936 L5.75,25.449936 L5.75,42.24988 Z M8.4928739,28.1927669 L19.4642495,28.1927669 L19.4642495,39.5070491 L8.4928739,39.5070491 L8.4928739,28.1927669 L8.4928739,28.1927669 Z M11.2357078,36.7641783 L16.7214156,36.7641783 L16.7214156,31.2784766 L11.2357078,31.2784766 L11.2357078,36.7641783 Z M24.9499573,6.25 L24.9499573,22.7070651 L41.74992,22.7070651 L41.74992,6.25 L24.9499573,6.25 Z M39.0070461,19.9642343 L27.6927512,19.9642343 L27.6927512,8.99287086 L39.0070461,8.99287086 L39.0070461,19.9642343 L39.0070461,19.9642343 Z M5.75,22.7070651 L22.2070834,22.7070651 L22.2070834,6.25 L5.75,6.25 L5.75,22.7070651 Z M8.4928739,8.99287086 L19.4642495,8.99287086 L19.4642495,19.9642343 L8.4928739,19.9642343 L8.4928739,8.99287086 Z M36.2642122,11.7357017 L30.7785044,11.7357017 L30.7785044,17.2214034 L36.2642122,17.2214034 L36.2642122,11.7357017 Z" id="Shape" fill="#5d42ff"></path>
                </g>
                <path d="M0,0 L72,0 C76.418278,-8.11624501e-16 80,3.581722 80,8 L80,80 L80,80 L0,0 Z" id="Shape" fill="#FFFFFF" transform="translate(40.000000, 40.000000) scale(-1, -1) translate(-40.000000, -40.000000) "></path>
            </g>
        </g>
    </g>
</svg>
