<svg width="17" height="16" viewBox="0 0 17 16" fill="none" xmlns="http://www.w3.org/2000/svg">
<path d="M10.5161 1.40006H15.0161C15.2094 1.40006 15.3661 1.55676 15.3661 1.75006V6.25006C15.3661 6.44336 15.2094 6.60006 15.0161 6.60006H10.5161C10.3228 6.60006 10.1661 6.44336 10.1661 6.25006V1.75006C10.1661 1.55676 10.3228 1.40006 10.5161 1.40006Z" stroke="#5d42ff" stroke-width="1.3" stroke-linecap="round" stroke-linejoin="round"/>
<path d="M2.51611 9.40006H7.01611C7.20941 9.40006 7.36611 9.55676 7.36611 9.75006V14.2501C7.36611 14.4434 7.20941 14.6001 7.01611 14.6001H2.51611C2.32281 14.6001 2.16611 14.4434 2.16611 14.2501V9.75006C2.16611 9.55676 2.32281 9.40006 2.51611 9.40006Z" stroke="#5d42ff" stroke-width="1.3" stroke-linecap="round" stroke-linejoin="round"/>
<path d="M2.51611 1.40006H7.01611C7.20941 1.40006 7.36611 1.55676 7.36611 1.75006V6.25006C7.36611 6.44336 7.20941 6.60006 7.01611 6.60006H2.51611C2.32281 6.60006 2.16611 6.44336 2.16611 6.25006V1.75006C2.16611 1.55676 2.32281 1.40006 2.51611 1.40006Z" stroke="#5d42ff" stroke-width="1.3" stroke-linecap="round" stroke-linejoin="round"/>
<circle cx="10.6481" cy="9.88196" r="0.986023" fill="#5d42ff"/>
<circle cx="12.7661" cy="12" r="0.986023" fill="#5d42ff"/>
<circle cx="10.6481" cy="14.1179" r="0.986023" fill="#5d42ff"/>
<circle cx="14.884" cy="9.88196" r="0.986023" fill="#5d42ff"/>
<circle cx="14.884" cy="14.1179" r="0.986023" fill="#5d42ff"/>
</svg>
