<svg width="20" height="20" viewBox="0 0 20 20" fill="none" xmlns="http://www.w3.org/2000/svg">
<path fill-rule="evenodd" clip-rule="evenodd" d="M10 1.25C5.16797 1.25 1.25 5.16797 1.25 10C1.25 14.832 5.16797 18.75 10 18.75C14.832 18.75 18.75 14.832 18.75 10C18.75 5.16797 14.832 1.25 10 1.25ZM13.7793 7.14258L9.66602 12.8457C9.41797 13.1914 8.9043 13.1914 8.65625 12.8457L6.2207 9.4707C6.14648 9.36719 6.2207 9.22266 6.34766 9.22266H7.26367C7.46289 9.22266 7.65234 9.31836 7.76953 9.48242L9.16016 11.4121L12.2305 7.1543C12.3477 6.99219 12.5352 6.89453 12.7363 6.89453H13.6523C13.7793 6.89453 13.8535 7.03906 13.7793 7.14258Z" fill="#5d42ff"/>
</svg>
