
<svg width="16px" height="16px" viewBox="0 0 16 16" version="1.1" xmlns="http://www.w3.org/2000/svg" xmlns:xlink="http://www.w3.org/1999/xlink">
    
    <g id="rxsgztrxfn" stroke="none" stroke-width="1" fill="none" fill-rule="evenodd">
        <g id="mvbmgggkcy" transform="translate(-559.000000, -591.000000)">
            <g id="omyqtemypk" transform="translate(559.000000, 588.000000)">
                <g id="ozfpjspzvb" transform="translate(0.000000, 3.000000)">
                    <g id="woehkcxlmm" transform="translate(1.000000, 1.000000)"></g>
                    <rect id="flexrefmqu" x="0" y="0" width="16" height="16"></rect>
                    <path d="M14.4516726,2.955 L13.5116726,3.69 C12.230006,2.05166667 10.2366726,1 7.99833931,1 C4.13333931,1 1.00500597,4.125 1,7.99166667 C0.995005973,11.8616667 4.13000597,15 7.99833931,15 C11.020006,15 13.595006,13.0833333 14.575006,10.3983333 C14.600006,10.3283333 14.5633393,10.25 14.4933393,10.2266667 L13.5483393,9.90166667 C13.480006,9.87833333 13.405006,9.91333333 13.380006,9.98166667 C13.350006,10.065 13.3166726,10.1483333 13.2816726,10.23 C12.9933393,10.9133333 12.580006,11.5266667 12.0533393,12.0533333 C11.5266726,12.58 10.9133393,12.9933333 10.2316726,13.2833333 C9.52667264,13.5816667 8.77500597,13.7333333 8.00167264,13.7333333 C7.22667264,13.7333333 6.47667264,13.5816667 5.77167264,13.2833333 C5.09000597,12.995 4.47667264,12.5816667 3.95000597,12.0533333 C3.42333931,11.5266667 3.01000597,10.9133333 2.72167264,10.23 C2.42333931,9.52333333 2.27167264,8.77333333 2.27167264,7.99833333 C2.27167264,7.22333333 2.42333931,6.47333333 2.72167264,5.76666667 C3.01000597,5.08333333 3.42333931,4.47 3.95000597,3.94333333 C4.47667264,3.41666667 5.09000597,3.00333333 5.77167264,2.71333333 C6.47667264,2.415 7.22833931,2.26333333 8.00167264,2.26333333 C8.77667264,2.26333333 9.52667264,2.415 10.2316726,2.71333333 C10.9133393,3.00166667 11.5266726,3.415 12.0533393,3.94333333 C12.2183393,4.10833333 12.3733393,4.28333333 12.5166726,4.46666667 L11.5133393,5.25 C11.425006,5.31833333 11.455006,5.45833333 11.5633393,5.485 L14.490006,6.20166667 C14.5733393,6.22166667 14.655006,6.15833333 14.655006,6.07333333 L14.6683393,3.05833333 C14.6666726,2.94833333 14.5383393,2.88666667 14.4516726,2.955 L14.4516726,2.955 Z" id="sfbliodgyb" fill="#5d42ff"></path>
                </g>
            </g>
        </g>
    </g>
</svg>
