<svg width="49" height="48" viewBox="0 0 49 48" fill="none" xmlns="http://www.w3.org/2000/svg">
<g clip-path="url(#clip0_5390_4361)">
<circle cx="24.4998" cy="24" r="23.75" fill="#F7F7F9" stroke="#DEE2E8" stroke-width="0.5"/>
<path d="M14.1875 13.2422L14.1875 34.7578C14.1875 35.8063 15.0532 36.6562 16.1211 36.6562L32.8789 36.6562C33.9468 36.6562 34.8125 35.8063 34.8125 34.7578L34.8125 13.2422C34.8125 12.1937 33.9468 11.3437 32.8789 11.3437L16.1211 11.3437C15.0532 11.3437 14.1875 12.1937 14.1875 13.2422Z" fill="#EA4F45"/>
<path d="M34.8125 18.1C31.7664 19.8204 28.2479 20.8022 24.5 20.8022C20.7521 20.8022 17.2336 19.8204 14.1875 18.1V13.2422C14.1875 12.1937 15.0532 11.3438 16.1211 11.3438H32.8789C33.9468 11.3438 34.8125 12.1937 34.8125 13.2422V18.1Z" fill="#FF655B"/>
<path d="M27.875 20.3438C27.875 22.2077 26.364 23.7188 24.5 23.7188C22.636 23.7188 21.125 22.2077 21.125 20.3438C21.125 18.4798 22.636 16.9688 24.5 16.9688C26.364 16.9688 27.875 18.4798 27.875 20.3438Z" fill="#FFD49F"/>
<path d="M24.2399 19.0162C23.6318 19.2803 23.2494 19.9262 23.472 20.5682C23.6066 20.9563 23.8779 21.2329 24.2803 21.3743C24.9839 21.6216 25.7183 21.0779 25.6359 20.3712C25.601 20.0708 25.4469 19.8421 25.134 19.7475C24.9013 19.677 24.6785 19.7099 24.4968 19.8774C24.3425 20.0194 24.2841 20.1942 24.3459 20.3974C24.3799 20.5092 24.4618 20.5787 24.5733 20.6119C24.6711 20.641 24.7467 20.5989 24.805 20.5185C24.7933 20.4991 24.783 20.4778 24.7687 20.4596C24.6926 20.3622 24.7543 20.2207 24.8201 20.1617C24.9094 20.0816 25.0542 20.0743 25.1493 20.1406C25.3035 20.2481 25.3737 20.5338 25.2898 20.7131C25.1496 21.013 24.7889 21.1875 24.4579 21.1026C23.9354 20.9685 23.6778 20.4577 23.8465 19.964C24.0706 19.3078 24.8238 19.0208 25.4657 19.3355C25.9846 19.5898 26.1772 20.0339 26.1565 20.5625C26.1226 21.4328 25.2356 22.0785 24.3462 21.9106C23.4837 21.7479 22.8431 20.9301 22.8891 20.1567C22.906 19.8711 22.9702 19.6038 23.1177 19.3584C23.5016 18.7204 24.0996 18.4201 24.8476 18.3715C25.0445 18.3587 25.243 18.3696 25.4306 18.3697C25.4203 18.3652 25.3968 18.3537 25.3723 18.3447C25.0071 18.2093 24.6296 18.1661 24.2428 18.2207C24.003 18.2499 23.7816 18.3141 23.5803 18.4058C23.5766 18.4064 23.5722 18.4077 23.5669 18.4099C23.4764 18.4481 23.4612 18.3604 23.4291 18.3338C23.3978 18.308 23.4019 18.3401 23.4019 18.3401C23.4292 18.4686 23.3608 18.5205 23.3516 18.5268C23.2945 18.5618 23.2398 18.5995 23.187 18.6391C23.1854 18.6398 23.1843 18.6398 23.1826 18.6405C23.0578 18.6969 23.0059 18.6017 22.9485 18.5727C22.8878 18.5421 22.9107 18.5923 22.9107 18.5923C22.9859 18.7403 22.921 18.8668 22.9089 18.8882C22.8557 18.945 22.8058 19.0048 22.7592 19.0668C22.7544 19.0699 22.7496 19.0728 22.7441 19.0777C22.6215 19.1874 22.5261 19.1005 22.4503 19.0842C22.3668 19.0663 22.4141 19.1205 22.4141 19.1205C22.5686 19.2771 22.5198 19.4655 22.5198 19.4655L22.5202 19.4657C22.3216 19.8906 22.2503 20.3822 22.3328 20.8758C22.6039 22.4983 24.6194 23.2645 25.9406 22.2194C26.3696 21.8799 26.6672 21.2261 26.6986 20.6852C26.721 20.3011 26.601 19.9524 26.3798 19.6367C25.9105 18.967 24.9726 18.6979 24.2399 19.0162Z" fill="#F39B31"/>
</g>
<defs>
<clipPath id="clip0_5390_4361">
<rect x="0.5" width="48" height="48" rx="24" fill="white"/>
</clipPath>
</defs>
</svg>
