<svg width="20" height="20" viewBox="0 0 20 20" fill="none" xmlns="http://www.w3.org/2000/svg">
<path fill-rule="evenodd" clip-rule="evenodd" d="M4.21875 5.18229C4.21875 3.13999 5.87436 1.48438 7.91667 1.48438C9.95897 1.48438 11.6146 3.13999 11.6146 5.18229C11.6146 7.2246 9.95897 8.88021 7.91667 8.88021C5.87436 8.88021 4.21875 7.2246 4.21875 5.18229ZM7.91667 3.04688C6.73731 3.04688 5.78125 4.00293 5.78125 5.18229C5.78125 6.36165 6.73731 7.31771 7.91667 7.31771C9.09603 7.31771 10.0521 6.36165 10.0521 5.18229C10.0521 4.00293 9.09603 3.04688 7.91667 3.04688Z" fill="#515A62"/>
<path fill-rule="evenodd" clip-rule="evenodd" d="M6.96617 10.6348H8.86684C9.7717 10.6348 10.4983 10.6348 11.0861 10.6828C11.6903 10.7321 12.2161 10.8361 12.7011 11.0832C13.4753 11.4777 14.1048 12.1072 14.4993 12.8814C14.7464 13.3664 14.8504 13.8923 14.8997 14.4964C14.9478 15.0842 14.9478 15.8108 14.9478 16.7157V17.2493C14.9478 17.6808 14.598 18.0306 14.1665 18.0306H1.6665C1.23503 18.0306 0.885254 17.6808 0.885254 17.2493L0.885254 16.7157C0.885247 15.8108 0.885241 15.0842 0.933263 14.4964C0.982624 13.8923 1.08659 13.3664 1.33372 12.8814C1.72819 12.1072 2.35764 11.4777 3.13185 11.0832C3.61686 10.8361 4.14275 10.7321 4.7469 10.6828C5.33466 10.6348 6.06131 10.6348 6.96617 10.6348ZM3.8412 12.4754C3.36101 12.7201 2.97059 13.1105 2.72592 13.5907C2.60973 13.8188 2.53204 14.1161 2.49057 14.6237C2.45267 15.0875 2.44831 15.6692 2.44782 16.4681H13.3852C13.3847 15.6692 13.3803 15.0875 13.3424 14.6236C13.301 14.1161 13.2233 13.8188 13.1071 13.5907C12.8624 13.1105 12.472 12.7201 11.9918 12.4754C11.7637 12.3592 11.4664 12.2815 10.9589 12.2401C10.4422 12.1979 9.77948 12.1973 8.83317 12.1973H6.99984C6.05353 12.1973 5.39078 12.1979 4.87413 12.2401C4.36662 12.2815 4.06924 12.3592 3.8412 12.4754Z" fill="#515A62"/>
<rect x="14" y="8.56494" width="6" height="1.6" rx="0.3" fill="#515A62"/>
<rect x="16.2002" y="12.365" width="6" height="1.6" rx="0.3" transform="rotate(-90 16.2002 12.365)" fill="#515A62"/>
</svg>
