<svg width="20" height="20" viewBox="0 0 20 20" fill="none" xmlns="http://www.w3.org/2000/svg">
<path d="M2.69986 8.33314C2.69986 7.91892 3.03565 7.58314 3.44986 7.58314H16.5501C16.9643 7.58314 17.3001 7.91892 17.3001 8.33314V16.3977C17.3001 17.5023 16.4047 18.3977 15.3001 18.3977H4.69986C3.59529 18.3977 2.69986 17.5023 2.69986 16.3977V8.33314ZM4.19986 9.08314V16.3977C4.19986 16.6739 4.42372 16.8977 4.69986 16.8977H15.3001C15.5763 16.8977 15.8001 16.6739 15.8001 16.3977V9.08314H4.19986Z" fill="#55585e"/>
<path d="M9.99996 5.26258C10.4142 5.26258 10.75 5.59837 10.75 6.01258V17.6477C10.75 18.0619 10.4142 18.3977 9.99996 18.3977C9.58575 18.3977 9.24996 18.0619 9.24996 17.6477V6.01258C9.24996 5.59837 9.58575 5.26258 9.99996 5.26258Z" fill="#55585e"/>
<path d="M1.20618 5.62501C1.20618 4.86562 1.82178 4.25001 2.58118 4.25001H17.4188C18.1782 4.25001 18.7938 4.86562 18.7938 5.62501V7.70834C18.7938 8.46773 18.1782 9.08334 17.4188 9.08334H2.58118C1.82179 9.08334 1.20618 8.46773 1.20618 7.70834V5.62501ZM2.70618 5.75001V7.58334H17.2938V5.75001H2.70618Z" fill="#55585e"/>
<path d="M6.10786 1.51574C6.38414 1.20713 6.85829 1.18093 7.1669 1.45721L9.99998 3.99356L12.833 1.45721C13.1417 1.18093 13.6158 1.20713 13.8921 1.51574C14.1684 1.82435 14.1422 2.2985 13.8336 2.57478L10.5002 5.559C10.2155 5.81395 9.7845 5.81395 9.49971 5.559L6.16638 2.57478C5.85777 2.2985 5.83157 1.82435 6.10786 1.51574Z" fill="#55585e"/>
</svg>
