<svg width="16" height="17" viewBox="0 0 16 17" fill="none" xmlns="http://www.w3.org/2000/svg">
<path d="M8 0.269165C12.4183 0.269165 16 3.85089 16 8.26917C16 12.6874 12.4183 16.2692 8 16.2692C3.58172 16.2692 0 12.6874 0 8.26917C0 3.85089 3.58172 0.269165 8 0.269165ZM7.9998 1.56921C4.2995 1.56921 1.2998 4.56891 1.2998 8.26921C1.2998 11.9695 4.2995 14.9692 7.9998 14.9692C11.7001 14.9692 14.6998 11.9695 14.6998 8.26921C14.6998 4.56891 11.7001 1.56921 7.9998 1.56921ZM4.63401 7.58826H11.3664C11.7425 7.58826 12.0473 7.8931 12.0473 8.26914C12.0473 8.64519 11.7425 8.95003 11.3664 8.95003H4.63401C4.25797 8.95003 3.95313 8.64519 3.95313 8.26914C3.95313 7.8931 4.25797 7.58826 4.63401 7.58826Z" fill="#f53f3f"/>
</svg>
