<?xml version="1.0" encoding="UTF-8"?>
<svg width="21px" height="20px" viewBox="1 0 20 20" version="1.1" xmlns="http://www.w3.org/2000/svg" xmlns:xlink="http://www.w3.org/1999/xlink">
    <title>From-To</title>
    <g id="Icon" stroke="none" stroke-width="1" fill="none" fill-rule="evenodd">
        <g id="Special" transform="translate(-432.000000, -78.000000)">
            <g id="From-To" transform="translate(432.993227, 78.000000)">
                <path d="M10,0 C15.5228475,0 20,4.4771525 20,10 C20,15.5228475 15.5228475,20 10,20 C4.4771525,20 0,15.5228475 0,10 C0,4.4771525 4.4771525,0 10,0 Z M10,0.625 C4.82233047,0.625 0.625,4.82233047 0.625,10 C0.625,15.1776695 4.82233047,19.375 10,19.375 C15.1776695,19.375 19.375,15.1776695 19.375,10 C19.375,4.82233047 15.1776695,0.625 10,0.625 Z" id="Shape" fill="#dcdee1" fill-rule="nonzero"></path>
                <path d="M11.1342759,6.45408875 L14.0954816,9.41389897 C14.2567181,9.57513544 14.3224182,9.79614339 14.2925819,10.0060908 C14.3182882,10.2128949 14.2520165,10.4281707 14.0940861,10.586101 L11.1342759,13.5459112 C10.8621576,13.8180296 10.4197908,13.8180296 10.1476725,13.5459112 C9.87555417,13.2737929 9.87555417,12.8314262 10.1476725,12.5593078 L12.009,10.697 L6.18436889,10.6977393 C5.87559726,10.6977393 5.625,10.3851521 5.625,10 C5.625,9.61484789 5.87559726,9.30226068 6.18436889,9.30226068 L12.009,9.302 L10.1476725,7.44069216 C9.87555417,7.16857382 9.87555417,6.72620709 10.1476725,6.45408875 C10.4197908,6.18197042 10.8621576,6.18197042 11.1342759,6.45408875 Z" id="Shape" fill="#c0c3c7"></path>
            </g>
        </g>
    </g>
</svg>
