<svg width="37" height="36" viewBox="0 0 37 36" fill="none" xmlns="http://www.w3.org/2000/svg">
<g id="&#231;&#188;&#150;&#231;&#187;&#132;">
<circle id="&#230;&#164;&#173;&#229;&#156;&#134;&#229;&#189;&#162;" cx="18.031" cy="18" r="18" fill="#5B8EF4"/>
<g id="Icon / Basic">
<rect id="Rectangle" opacity="0.01" x="11.031" y="11" width="14" height="14" fill="white"/>
<path id="Shape" fill-rule="evenodd" clip-rule="evenodd" d="M23.7428 21.2311L23.7427 12.9001L23.7411 12.8578L23.7341 12.7954L23.7267 12.7547L23.713 12.7004L23.6785 12.6064L23.6507 12.5507L23.6127 12.4892L23.5538 12.4142L23.4866 12.3481L23.4004 12.2836C23.359 12.257 23.3159 12.2351 23.2714 12.2177C23.2132 12.1951 23.1545 12.1801 23.0935 12.1724L23.0004 12.1667H14.8999C14.4899 12.1667 14.1575 12.4991 14.1575 12.9091C14.1575 13.2876 14.4407 13.6 14.8068 13.6458L14.8999 13.6516L21.2385 13.6517L12.5303 22.5723C12.2439 22.8657 12.2496 23.3358 12.543 23.6222C12.8119 23.8847 13.2293 23.9018 13.5177 23.6769L13.5929 23.6095L22.2581 14.7324L22.2579 21.2311C22.2579 21.6096 22.5411 21.922 22.9072 21.9678L23.0004 21.9736C23.3789 21.9736 23.6912 21.6903 23.737 21.3243L23.7428 21.2311Z" fill="white"/>
</g>
</g>
</svg>
