
<svg width="16px" height="16px" viewBox="0 0 16 16" version="1.1" xmlns="http://www.w3.org/2000/svg" xmlns:xlink="http://www.w3.org/1999/xlink">
    
    <g id="ruuclhfkuo" stroke="none" stroke-width="1" fill="none" fill-rule="evenodd">
        <g id="zindxzysdi" transform="translate(-328.000000, -468.000000)">
            <g id="usijejworc" transform="translate(0.000000, 428.000000)">
                <g id="xofxxgunxe" transform="translate(328.000000, 40.000000)">
                    <g id="knryzfours">
                        <rect id="vxxdnfzenj" x="0" y="0" width="16" height="16"></rect>
                    </g>
                    <path d="M14.853094,4 L13.4714922,4 C13.3775432,4 13.2891207,4.0390625 13.2338567,4.103125 L8.00034906,10.221875 L2.76684147,4.103125 C2.7115774,4.0390625 2.62315489,4 2.52920596,4 L1.14760417,4 C1.02786535,4 0.957864192,4.115625 1.02786535,4.1984375 L7.52323591,11.79375 C7.75902928,12.06875 8.24166884,12.06875 8.47562008,11.79375 L14.9709906,4.1984375 C15.0428339,4.115625 14.9728328,4 14.853094,4 Z" id="cbomziipvq" fill="#55585e" transform="translate(8.000000, 8.000000) scale(1, -1) rotate(-90.000000) translate(-8.000000, -8.000000) "></path>
                </g>
            </g>
        </g>
    </g>
</svg>
