<svg width="37" height="36" viewBox="0 0 37 36" fill="none" xmlns="http://www.w3.org/2000/svg">
<g id="&#231;&#188;&#150;&#231;&#187;&#132;">
<circle id="&#230;&#164;&#173;&#229;&#156;&#134;&#229;&#189;&#162;" cx="18.031" cy="18" r="18" fill="#5B8EF4"/>
<g id="Icon / Basic">
<rect id="Rectangle" opacity="0.01" x="11.031" y="11" width="14" height="14" fill="white"/>
<path id="Shape" fill-rule="evenodd" clip-rule="evenodd" d="M23.7428 14.7689L23.7427 23.0999L23.7411 23.1422L23.7341 23.2046L23.7267 23.2453L23.713 23.2996L23.6785 23.3936L23.6507 23.4493L23.6127 23.5108L23.5538 23.5858L23.4866 23.6519L23.4004 23.7164C23.359 23.743 23.3159 23.7649 23.2714 23.7823C23.2132 23.8049 23.1545 23.8199 23.0935 23.8276L23.0004 23.8333H14.8999C14.4899 23.8333 14.1575 23.5009 14.1575 23.0909C14.1575 22.7124 14.4407 22.4 14.8068 22.3542L14.8999 22.3484L21.2385 22.3483L12.5303 13.4277C12.2439 13.1343 12.2496 12.6642 12.543 12.3778C12.8119 12.1153 13.2293 12.0982 13.5177 12.3231L13.5929 12.3905L22.2581 21.2676L22.2579 14.7689C22.2579 14.3904 22.5411 14.078 22.9072 14.0322L23.0004 14.0264C23.3789 14.0264 23.6912 14.3097 23.737 14.6757L23.7428 14.7689Z" fill="white"/>
</g>
</g>
</svg>
