
<svg width="20px" height="20px" viewBox="0 0 20 20" version="1.1" xmlns="http://www.w3.org/2000/svg" xmlns:xlink="http://www.w3.org/1999/xlink">
    <title>mkezqvhlfg</title>
    <defs>
        <filter id="qpebjjqryp">
            <feColorMatrix in="SourceGraphic" type="matrix" values="0 0 0 0 0.317647 0 0 0 0 0.352941 0 0 0 0 0.384314 0 0 0 1.000000 0"></feColorMatrix>
        </filter>
    </defs>
    <g id="ipjiokwpbl" stroke="none" stroke-width="1" fill="none" fill-rule="evenodd">
        <g id="jnynmpyqzj" transform="translate(-40.000000, -92.000000)">
            <g id="vwretxjbjv" transform="translate(0.000000, 16.000000)">
                <g id="cgjpckkytv" transform="translate(24.000000, 62.000000)">
                    <g id="iwwjeyvvyj" transform="translate(16.000000, 14.000000)">
                        <rect id="qwuvliuucp" x="0" y="0" width="20" height="20"></rect>
                        <g filter="url(#filter-1)" id="kzfwfqiyxt">
                            <g transform="translate(1.250000, 0.625000)">
                                <path d="M8.33501115,14.9151099 C11.9691997,14.9151099 14.9151099,11.9691997 14.9151099,8.33501115 C14.9151099,4.70082258 11.9691997,1.75491235 8.33501115,1.75491235 C4.70082258,1.75491235 1.75491235,4.70082258 1.75491235,8.33501115 C1.75491235,11.9691997 4.70082258,14.9151099 8.33501115,14.9151099 Z M14.4393688,14.0096883 L17.1411224,16.7122559 C17.4796378,17.0589479 17.4730092,17.6144182 17.1263172,17.9529336 C16.7796252,18.2914489 16.2241549,18.2848204 15.8856396,17.9381283 L13.1141369,15.1638377 C11.7143233,16.1462198 10.0451414,16.6720477 8.33501115,16.6693643 C3.73091602,16.6693643 0,12.9384483 0,8.33501115 C0,3.73157403 3.73157403,0 8.33501115,0 C12.9377903,0 16.6693643,3.73157403 16.6693643,8.33501115 C16.6693643,10.5268421 15.8231636,12.52127 14.4393688,14.0096883 Z" id="difwsjsebt" fill="#55585e"></path>
                            </g>
                        </g>
                    </g>
                </g>
            </g>
        </g>
    </g>
</svg>
