<?xml version="1.0" encoding="UTF-8"?>
<svg width="20px" height="20px" viewBox="0 0 20 20" version="1.1" xmlns="http://www.w3.org/2000/svg" xmlns:xlink="http://www.w3.org/1999/xlink">
    <title>Icon___Line___Search</title>
    <g id="Send-/-Receive" stroke="none" stroke-width="1" fill="none" fill-rule="evenodd">
        <g id="Send--Select-assets-testnet" transform="translate(-32.000000, -146.000000)">
            <g id="group" transform="translate(0.000000, 72.000000)">
                <g id="group-2" transform="translate(16.000000, 60.000000)">
                    <g id="Icon___Line___Search" transform="translate(16.000000, 14.000000)">
                        <rect id="Rectangle" x="0" y="0" width="20" height="20"></rect>
                        <path d="M9.58501115,15.5401099 C13.2191997,15.5401099 16.1651099,12.5941997 16.1651099,8.96001115 C16.1651099,5.32582258 13.2191997,2.37991235 9.58501115,2.37991235 C5.95082258,2.37991235 3.00491235,5.32582258 3.00491235,8.96001115 C3.00491235,12.5941997 5.95082258,15.5401099 9.58501115,15.5401099 Z M15.6893688,14.6346883 L18.3911224,17.3372559 C18.7296378,17.6839479 18.7230092,18.2394182 18.3763172,18.5779336 C18.0296252,18.9164489 17.4741549,18.9098204 17.1356396,18.5631283 L14.3641369,15.7888377 C12.9643233,16.7712198 11.2951414,17.2970477 9.58501115,17.2943643 C4.98091602,17.2943643 1.25,13.5634483 1.25,8.96001115 C1.25,4.35657403 4.98157403,0.625 9.58501115,0.625 C14.1877903,0.625 17.9193643,4.35657403 17.9193643,8.96001115 C17.9193643,11.1518421 17.0731636,13.14627 15.6893688,14.6346883 Z" id="Shape" fill="#c0c3c7"></path>
                    </g>
                </g>
            </g>
        </g>
    </g>
</svg>
