<?xml version="1.0" encoding="UTF-8"?>
<svg width="16px" height="16px" viewBox="0 0 16 16" version="1.1" xmlns="http://www.w3.org/2000/svg" xmlns:xlink="http://www.w3.org/1999/xlink">
    <title>Search</title>
    <g id="Icon" stroke="none" stroke-width="1" fill="none" fill-rule="evenodd">
        <g id="Common" transform="translate(-363.000000, -98.000000)">
            <g id="Search" transform="translate(363.000000, 98.000000)">
                <rect id="Rectangle" x="0" y="0" width="16" height="16"></rect>
                <path d="M7.66800892,12.432088 C10.5753598,12.432088 12.932088,10.0753598 12.932088,7.16800892 C12.932088,4.26065806 10.5753598,1.90392988 7.66800892,1.90392988 C4.76065806,1.90392988 2.40392988,4.26065806 2.40392988,7.16800892 C2.40392988,10.0753598 4.76065806,12.432088 7.66800892,12.432088 Z M12.551495,11.7077507 L14.712898,13.8698047 C14.9837102,14.1471584 14.9784074,14.5915346 14.7010538,14.8623468 C14.4237002,15.1331591 13.9793239,15.1278563 13.7085117,14.8505027 L11.4913095,12.6310701 C10.3714587,13.4169758 9.03611311,13.8376382 7.66800892,13.8354914 C3.98473281,13.8354914 1,10.8507586 1,7.16800892 C1,3.48525922 3.98525922,0.5 7.66800892,0.5 C11.3502322,0.5 14.3354914,3.48525922 14.3354914,7.16800892 C14.3354914,8.92147365 13.6585309,10.517016 12.551495,11.7077507 Z" id="Shape" fill="#55585e" fill-rule="nonzero"></path>
            </g>
        </g>
    </g>
</svg>
