<?xml version="1.0" encoding="UTF-8"?>
<svg width="13px" height="16px" viewBox="0 0 13 16" version="1.1" xmlns="http://www.w3.org/2000/svg" xmlns:xlink="http://www.w3.org/1999/xlink">
    <title>Guadiance</title>
    <g id="Icon" stroke="none" stroke-width="1" fill="none" fill-rule="evenodd">
        <g id="Line" transform="translate(-157.000000, -85.000000)" fill="#55585e" fill-rule="nonzero">
            <g id="Guadiance" transform="translate(157.000000, 85.000023)">
                <path d="M7.04166667,0.08125 L12.4583333,2.68125 C12.7833333,2.89791667 13,3.22291667 13,3.65625 L13,6.79791667 C13,7.77291667 12.7833333,8.63958333 12.4583333,9.61458333 C12.1333333,10.48125 11.7,11.3479167 11.1583333,12.10625 C10.6166667,12.8645833 9.8583333,13.6229167 9.1,14.1645833 C8.3416667,14.70625 7.475,15.03125 6.5,15.2479167 C5.525,15.03125 4.65833333,14.70625 3.9,14.1645833 C3.14166667,13.6229167 2.38333333,12.8645833 1.84166667,12.10625 C1.3,11.3479167 0.86666667,10.5895833 0.54166667,9.61458333 C0.21666667,8.63958333 0,7.66458333 0,6.68958333 L0,3.65625 C0,3.22291667 0.21666667,2.89791667 0.54166667,2.68125 L5.95833333,0.08125 C6.28333333,-0.0270833333 6.71666667,-0.0270833333 7.04166667,0.08125 Z M6.5,1.27291667 L1.08333333,3.76458333 L1.08333333,6.68958333 C1.08333333,7.55625 1.19166667,8.31458333 1.51666667,9.18125 C1.84166667,9.93958333 2.16666667,10.6979167 2.70833333,11.3479167 C3.35833333,12.2145833 3.9,12.75625 4.55,13.1895833 C5.09166667,13.5145833 5.74166667,13.8395833 6.5,14.05625 C7.25833333,13.8395833 7.90833333,13.5145833 8.45,13.1895833 C8.9916667,12.75625 9.6416667,12.2145833 10.2916667,11.3479167 C10.8333333,10.6979167 11.1583333,10.0479167 11.4833333,9.18125 C11.8083333,8.31458333 11.9166667,7.55625 11.9166667,6.68958333 L11.9166667,3.76458333 L6.5,1.27291667 Z M9.5333333,4.63125 L10.2916667,5.38958333 L5.74166667,9.83125 L2.70833333,6.79791667 L3.46666667,6.03958333 L5.74166667,8.31458333 L9.5333333,4.63125 Z" id="Shape"></path>
            </g>
        </g>
    </g>
</svg>
