<svg width="24" height="24" viewBox="0 0 24 24" fill="none" xmlns="http://www.w3.org/2000/svg">
<path fill-rule="evenodd" clip-rule="evenodd" d="M12 1.5C6.20156 1.5 1.5 6.20156 1.5 12C1.5 17.7984 6.20156 22.5 12 22.5C17.7984 22.5 22.5 17.7984 22.5 12C22.5 6.20156 17.7984 1.5 12 1.5ZM16.5352 8.57109L11.5992 15.4148C11.3016 15.8297 10.6852 15.8297 10.3875 15.4148L7.46484 11.3648C7.37578 11.2406 7.46484 11.0672 7.61719 11.0672H8.71641C8.95547 11.0672 9.18281 11.182 9.32344 11.3789L10.9922 13.6945L14.6766 8.58516C14.8172 8.39062 15.0422 8.27344 15.2836 8.27344H16.3828C16.5352 8.27344 16.6242 8.44688 16.5352 8.57109Z" fill="#5d42ff"/>
</svg>
