
<svg width="16px" height="16px" viewBox="0 0 16 16" version="1.1" xmlns="http://www.w3.org/2000/svg" xmlns:xlink="http://www.w3.org/1999/xlink">
    <title>wcevolzldy</title>
    <g id="htlgvkelnu" stroke="none" stroke-width="1" fill="none" fill-rule="evenodd">
        <g id="ygriocdgrq" transform="translate(-441.000000, -304.000000)">
            <g id="pltowgzkms" transform="translate(425.000000, 284.000000)">
                <g id="wempjlkvcg" transform="translate(0.000000, 4.000000)">
                    <g id="jstzugcgzm" transform="translate(16.000000, 16.000000)">
                        <rect id="udcchimkfy" x="0" y="0" width="16" height="16"></rect>
                        <path d="M14.571619,2 C14.776,2 14.946,2.07417143 15.0825714,2.22261905 C15.2180952,2.37326666 15.2857143,2.561 15.2857143,2.78571428 C15.2857143,3.00613334 15.2174286,3.19166666 15.0797143,3.34231428 L6.50752381,12.7708857 C6.37047619,12.9235238 6.20095238,13 6,13 C5.7992381,13 5.62952381,12.9235238 5.49209523,12.7707809 L1.206,8.0588 C1.06857143,7.90595238 1,7.72041905 1,7.5 C1,7.27518095 1.06742857,7.08744762 1.20380952,6.93690476 C1.33952381,6.78845715 1.50971429,6.71428572 1.71390477,6.71428572 C1.91514286,6.71428572 2.08457144,6.78845715 2.22209523,6.94130476 L6,11.1033905 L14.063619,2.22691428 C14.2011429,2.07427619 14.3707619,2 14.571619,2" id="sytsvrduzv" fill="#5d42ff"></path>
                    </g>
                </g>
            </g>
        </g>
    </g>
</svg>
