<svg width="24" height="24" viewBox="0 0 24 24" fill="none" xmlns="http://www.w3.org/2000/svg">
<path d="M20.625 12C20.625 16.7635 16.7635 20.625 12 20.625C7.23654 20.625 3.375 16.7635 3.375 12C3.375 7.23654 7.23654 3.375 12 3.375C16.7635 3.375 20.625 7.23654 20.625 12ZM22.5 12C22.5 6.20101 17.799 1.5 12 1.5C6.20101 1.5 1.5 6.20101 1.5 12C1.5 17.799 6.20101 22.5 12 22.5C17.799 22.5 22.5 17.799 22.5 12ZM12 16.5C9.51472 16.5 7.5 14.4853 7.5 12C7.5 9.51472 9.51472 7.5 12 7.5C14.4853 7.5 16.5 9.51472 16.5 12C16.5 14.4853 14.4853 16.5 12 16.5Z" fill="#5D42FF"/>
</svg>
