<?xml version="1.0" encoding="UTF-8"?>
<svg width="21px" height="20px" viewBox="0 0 21 20" version="1.1" xmlns="http://www.w3.org/2000/svg" xmlns:xlink="http://www.w3.org/1999/xlink">
    <title>Icon___Fill___Settings</title>
    <defs>
        <circle id="path-1" cx="10" cy="10" r="10"></circle>
    </defs>
    <g id="Icon" stroke="none" stroke-width="1" fill="none" fill-rule="evenodd">
        <g id="Special" transform="translate(-472.000000, -78.000000)">
            <g id="Icon___Fill___Settings" transform="translate(472.993227, 78.000000)">
                <mask id="mask-2" fill="white">
                    <use xlink:href="#path-1"></use>
                </mask>
                <use id="Shape" fill="#85BFFF" fill-rule="nonzero" xlink:href="#path-1"></use>
                <path d="M20.0038172,10 C20.0027803,6.57255527 18.2471589,3.38421939 15.3513217,1.55077853 C12.4554845,-0.282662325 8.822602,-0.505948904 5.72403336,0.959059894 C4.54890068,4.71569371 2.88855193,12.9984837 8.18423048,19.833207 C11.1064276,20.3808562 14.1206471,19.5972874 16.4061856,17.6958485 C18.691724,15.7944095 20.0106283,12.9730639 20.0038172,10 Z" id="Shape" fill="#358FFF" fill-rule="nonzero" mask="url(#mask-2)"></path>
                <path d="M11.1675512,0.0682335102 C10.5724033,3.41167551 9.53373768,13.2145565 17.0583776,17.0849128 C19.7763865,14.377551 20.705971,10.3539031 19.4509858,6.72865931 C18.1960005,3.10341555 14.9776914,0.515683541 11.1675512,0.0682335102 Z" id="Shape" fill="#85BFFF" fill-rule="nonzero" mask="url(#mask-2)"></path>
                <path d="M15.106141,1.37604246 C14.0257771,4.14329037 12.3730099,10.6747536 18.1387415,15.7808946 C19.7645153,13.5041113 20.3617816,10.6502214 19.785435,7.91257512 C19.2090884,5.17492882 17.5118785,2.80408654 15.106141,1.37604246 L15.106141,1.37604246 Z" id="Shape" fill="#358FFF" fill-rule="nonzero" mask="url(#mask-2)"></path>
                <path d="M17.1304018,2.9909022 C16.3722517,2.87338893 15.6141016,3.07808946 15.8756634,4.55269143 C16.3457165,7.24033359 18.4685368,8.23730099 18.343442,10.3942381 C18.2369112,12.0652195 18.2597236,13.7419364 18.4116755,15.4094011 C20.9441778,11.4803243 20.4117772,6.32013446 17.1304018,2.9909022 Z" id="Shape" fill="#85BFFF" fill-rule="nonzero" mask="url(#mask-2)"></path>
                <path d="M4.16982563,15.4283548 C2.70280516,12.7217589 3.29795299,12.3957544 3.343442,9.20394238 C3.37755876,6.97498105 1.59211524,6.77407127 0.515542077,6.85746778 C-1.13869084,11.8060233 1.2914113,17.1945107 6.09552691,19.2304776 C5.71645186,18.13116 4.9924185,16.944655 4.16982563,15.4283548 Z" id="Shape" fill="#358FFF" fill-rule="nonzero" mask="url(#mask-2)"></path>
                <path d="M3.38134951,16.4935557 C1.75890826,15.4435178 1.92949204,12.4071266 2.70659591,9.70432146 C3.29037149,7.67247915 1.3115997,7.53222138 0.295678544,7.58150114 C-0.720426662,11.66492 0.924352229,15.948009 4.41243366,18.3017437 C4.349663,17.5772449 3.9729016,16.9165273 3.38134951,16.4935557 L3.38134951,16.4935557 Z" id="Shape" fill="#85BFFF" fill-rule="nonzero" mask="url(#mask-2)"></path>
                <path d="M13.4874905,3.97649735 C13.1967421,3.86403844 12.9668941,3.63419039 12.8544352,3.343442 L12.6497346,2.82031842 L12.4488249,3.343442 C12.3347072,3.63442791 12.1036408,3.86411889 11.8119788,3.97649735 L11.2888552,4.16982563 L11.8119788,4.37452616 C12.1028564,4.4901211 12.3332299,4.72049464 12.4488249,5.01137225 L12.6497346,5.53070508 L12.8544352,5.01137225 C12.9668136,4.71971023 13.1965046,4.48864386 13.4874905,4.37452616 L14.0257771,4.16982563 L13.4874905,3.97649735 Z" id="Shape" fill="#FFFFFF" fill-rule="nonzero" mask="url(#mask-2)"></path>
                <path d="M16.9181198,10.1099318 C16.686038,10.0178409 16.5022501,9.83405293 16.4101592,9.60197119 L16.2471569,9.18498863 L16.0879454,9.60197119 C15.9958545,9.83405293 15.8120666,10.0178409 15.5799848,10.1099318 L15.1630023,10.272934 L15.5799848,10.4359363 C15.8118248,10.5263869 15.9957608,10.7089502 16.0879454,10.9401061 L16.2471569,11.3570887 L16.4101592,10.9401061 C16.5023438,10.7089502 16.6862798,10.5263869 16.9181198,10.4359363 L17.3351024,10.272934 L16.9181198,10.1099318 Z" id="Shape" fill="#FFFFFF" fill-rule="nonzero" opacity="0.3" mask="url(#mask-2)"></path>
                <path d="M8.26004549,2.86959818 C8.12423339,2.81777582 8.01586331,2.71214928 7.96057619,2.57771039 L7.86959818,2.3388931 L7.77482942,2.57771039 C7.7212803,2.71065466 7.61588589,2.81604906 7.48294162,2.86959818 L7.24412434,2.96436694 L7.48294162,3.05534496 C7.61588589,3.10889408 7.7212803,3.21428848 7.77482942,3.34723275 L7.86959818,3.58605004 L7.96057619,3.34723275 C8.01412531,3.21428848 8.11951972,3.10889408 8.25246399,3.05534496 L8.49128127,2.96436694 L8.26004549,2.86959818 Z" id="Shape" fill="#FFFFFF" fill-rule="nonzero" opacity="0.3" mask="url(#mask-2)"></path>
                <path d="M4.42759666,4.92797574 C4.20916906,4.84370642 4.03596917,4.67188113 3.94996209,4.45413192 L3.79833207,4.07505686 L3.64670205,4.45413192 C3.56069497,4.67188113 3.38749508,4.84370642 3.16906748,4.92797574 L2.78999242,5.08339651 L3.16906748,5.23881729 C3.38749508,5.3230866 3.56069497,5.4949119 3.64670205,5.71266111 L3.79833207,6.09173616 L3.94996209,5.71266111 C4.03596917,5.4949119 4.20916906,5.3230866 4.42759666,5.23881729 L4.80667172,5.08339651 L4.42759666,4.92797574 Z" id="Shape" fill="#FFFFFF" fill-rule="nonzero" mask="url(#mask-2)"></path>
                <path d="M1.9939348,9.09780136 C1.87490818,9.04768449 1.78077217,8.95218419 1.73237301,8.83244882 L1.6489765,8.61637604 L1.56557998,8.83244882 C1.51666261,8.9531508 1.42092942,9.04888399 1.30022745,9.09780136 L1.08415466,9.18119788 L1.30022745,9.26838514 C1.42144079,9.31450877 1.51771714,9.40940974 1.56557998,9.52994693 L1.6489765,9.74601971 L1.73237301,9.52994693 C1.77976708,9.41042514 1.87441301,9.31577921 1.9939348,9.26838514 L2.21379833,9.18119788 L1.9939348,9.09780136 Z" id="Shape" fill="#FFFFFF" fill-rule="nonzero" mask="url(#mask-2)"></path>
                <path d="M6.72858226,8.26762699 C6.33055345,12.8885519 8.71872631,18.0136467 9.77255497,19.9962093 L10,19.9962093 C10.8231468,19.9962093 11.6431353,19.894429 12.4412434,19.6929492 C9.04852161,17.6156179 6.72858226,8.26762699 6.72858226,8.26762699 Z" id="Shape" fill="#85BFFF" fill-rule="nonzero" mask="url(#mask-2)"></path>
                <line x1="12.3957544" y1="13.9234268" x2="12.5094769" y2="14.1053829" id="Shape" mask="url(#mask-2)"></line>
                <line x1="9.94313874" y1="13.6921911" x2="10.0568613" y2="13.8741471" id="Shape" mask="url(#mask-2)"></line>
                <polygon id="Shape" fill="#FFE483" fill-rule="nonzero" mask="url(#mask-2)" points="13.0363912 20.4207733 14.9469295 20.4207733 17.7748294 14.5337377 17.1114481 12.7028052 15.1099318 13.601213"></polygon>
                <polygon id="Shape" fill="#FFEA9C" fill-rule="nonzero" mask="url(#mask-2)" points="15.9931766 15.1933283 13.9082638 20.4207733 13.0363912 20.4207733 15.1099318 13.601213"></polygon>
                <polygon id="Shape" fill="#FFF1C1" fill-rule="nonzero" mask="url(#mask-2)" points="17.7862017 14.5261562 17.1114481 12.6724792 15.1099318 13.601213 15.9931766 15.1933283"></polygon>
                <polygon id="Shape" fill="#9E59FF" fill-rule="nonzero" mask="url(#mask-2)" points="14.5147839 7.78241092 16.1068992 10.227445 13.0363912 20.4207733 12.1152388 20.4207733"></polygon>
                <polygon id="Shape" fill="#BB8BFF" fill-rule="nonzero" mask="url(#mask-2)" points="14.5147839 7.78241092 12.1152388 9.56785444 11.1675512 20.4207733 12.1152388 20.4207733"></polygon>
                <polygon id="Shape" fill="#87D4FF" fill-rule="nonzero" mask="url(#mask-2)" points="11.1675512 20.4207733 9.91660349 20.4207733 9.91660349 12.5928734 11.9825625 11.0879454"></polygon>
                <polygon id="Shape" fill="#B7E5FF" fill-rule="nonzero" mask="url(#mask-2)" points="9.91660349 20.4207733 8.77179682 20.4207733 7.87717968 10.6330553 9.91660349 12.5928734"></polygon>
                <polygon id="Shape" fill="#DBF2FF" fill-rule="nonzero" mask="url(#mask-2)" points="10.030326 8.87035633 7.87717968 10.6330553 9.91660349 12.5928734 11.9825625 11.0879454"></polygon>
                <polygon id="Shape" fill="#FF81AF" fill-rule="nonzero" mask="url(#mask-2)" points="7.56633813 7.60424564 8.77179682 20.4207733 7.97952995 20.4207733 5.90978014 9.26459439"></polygon>
                <polygon id="Shape" fill="#FFA7C7" fill-rule="nonzero" mask="url(#mask-2)" points="5.90978014 9.26459439 3.58225929 8.31690675 7.21000758 20.4207733 7.97952995 20.4207733"></polygon>
                <polygon id="Shape" fill="#FFCCDF" fill-rule="nonzero" mask="url(#mask-2)" points="5.90978014 9.26459439 7.56633813 7.60424564 5.07581501 5.6520091 3.58225929 8.31690675"></polygon>
                <polygon id="Shape" fill="#53F2D4" fill-rule="nonzero" mask="url(#mask-2)" points="7.21000758 20.4207733 5.24260804 13.8551933 4.44655042 15.9097801 6.28885519 20.4207733"></polygon>
                <polygon id="Shape" fill="#A9F8E9" fill-rule="nonzero" mask="url(#mask-2)" points="4.44655042 15.9097801 2.21379833 14.8597422 5.17058378 20.4207733 6.28885519 20.4207733"></polygon>
                <polygon id="Shape" fill="#D9FCF5" fill-rule="nonzero" mask="url(#mask-2)" points="5.24260804 13.8551933 2.9984837 12.5246399 2.21379833 14.8597422 4.44655042 15.9097801"></polygon>
                <line x1="16.2282032" y1="13.9310083" x2="16.4670205" y2="14.2342684" id="Shape" mask="url(#mask-2)"></line>
                <line x1="16.3153904" y1="13.6921911" x2="16.7437453" y2="14.2342684" id="Shape" mask="url(#mask-2)"></line>
                <line x1="15.8453374" y1="17.2971948" x2="15.5913571" y2="17.8316907" id="Shape" mask="url(#mask-2)"></line>
                <line x1="15.5117513" y1="18.040182" x2="14.4503412" y2="20.2047005" id="Shape" mask="url(#mask-2)"></line>
                <line x1="3.92721759" y1="16.7513268" x2="4.27217589" y2="17.4374526" id="Shape" mask="url(#mask-2)"></line>
                <line x1="4.35178165" y1="17.6004549" x2="5.78468537" y2="20.3677028" id="Shape" mask="url(#mask-2)"></line>
                <line x1="4.79909022" y1="8.84003033" x2="4.95830174" y2="9.53373768" id="Shape" mask="url(#mask-2)"></line>
                <line x1="5.0227445" y1="9.83699773" x2="5.50796058" y2="11.9825625" id="Shape" mask="url(#mask-2)"></line>
                <line x1="8.58605004" y1="13.3358605" x2="9.26459439" y2="14.2153146" id="Shape" mask="url(#mask-2)"></line>
                <line x1="9.0030326" y1="13.3548143" x2="9.38968916" y2="13.8665656" id="Shape" mask="url(#mask-2)"></line>
                <line x1="8.54814253" y1="13.7755876" x2="8.92342684" y2="14.2721759" id="Shape" mask="url(#mask-2)"></line>
                <line x1="8.85898408" y1="13.2752085" x2="8.58605004" y2="13.6125853" id="Shape" mask="url(#mask-2)"></line>
                <line x1="9.16603487" y1="13.3548143" x2="8.54814253" y2="14.1849886" id="Shape" mask="url(#mask-2)"></line>
                <line x1="9.3479909" y1="13.6125853" x2="8.94617134" y2="14.1432904" id="Shape" mask="url(#mask-2)"></line>
                <line x1="12.9984837" y1="10.5686126" x2="12.9226687" y2="11.0879454" id="Shape" mask="url(#mask-2)"></line>
                <line x1="12.8733889" y1="11.3495072" x2="11.7134193" y2="20.3677028" id="Shape" mask="url(#mask-2)"></line>
            </g>
        </g>
    </g>
</svg>