<svg viewBox="0 0 16 16" version="1.1">\n <g id="Icon" stroke="none" stroke-width="1" fill="none" fill-rule="evenodd">\n <g id="Common" transform="translate(-399.000000, -98.000000)">\n <g id="Setting" transform="translate(399.000000, 98.000000)">\n <rect id="Rectangle" x="0" y="0" width="16" height="16"></rect>\n <path d="M15.0152808,9.77383272 L13.9341452,8.84950304 C13.9853135,8.53589118 14.0117229,8.21567697 14.0117229,7.89546276 C14.0117229,7.57524854 13.9853135,7.25503433 13.9341452,6.94142248 L15.0152808,6.01709279 C15.1819903,5.87514216 15.2430621,5.64405974 15.1687856,5.43608556 L15.1539303,5.39317026 C14.8551737,4.55962295 14.4128159,3.79374979 13.8384111,3.11700841 L13.8087005,3.08234605 C13.6667498,2.91563659 13.437318,2.85291422 13.2293438,2.92554012 L11.8874152,3.40256026 C11.3922386,2.99651544 10.8392914,2.67630123 10.2417782,2.45182116 L9.98263582,1.04882075 C9.94302169,0.832593627 9.77301105,0.664233578 9.55678393,0.624619448 L9.51221803,0.616366505 C8.65226131,0.461211165 7.74773869,0.461211165 6.88778197,0.616366505 L6.84321607,0.624619448 C6.62698895,0.664233578 6.45697831,0.832593627 6.41736418,1.04882075 L6.15657117,2.45842352 C5.56400982,2.68290358 5.01436377,3.0014672 4.52248833,3.40586144 L3.17065617,2.92554012 C2.96433258,2.85291422 2.73325016,2.913986 2.59129953,3.08234605 L2.56158894,3.11700841 C1.98718406,3.79540038 1.54482628,4.56127354 1.24606973,5.39317026 L1.23121443,5.43608556 C1.15693794,5.64240915 1.21800972,5.87349157 1.38471918,6.01709279 L2.4790595,6.95132601 C2.42789125,7.26163669 2.40313242,7.57854972 2.40313242,7.89381217 C2.40313242,8.2107252 2.42789125,8.52763823 2.4790595,8.83629833 L1.38471918,9.77053154 C1.21800972,9.91248217 1.15693794,10.1435646 1.23121443,10.3515388 L1.24606973,10.3944541 C1.54482628,11.2263508 1.98718406,11.9938745 2.56158894,12.6706159 L2.59129953,12.7052783 C2.73325016,12.8719877 2.96268199,12.9347101 3.17065617,12.8620842 L4.52248833,12.3817629 C5.01436377,12.7861571 5.56400982,13.1063713 6.15657117,13.3292008 L6.41736418,14.7388036 C6.45697831,14.9550307 6.62698895,15.1233908 6.84321607,15.1630049 L6.88778197,15.1712578 C7.31858562,15.2488355 7.75929281,15.2884496 8.2,15.2884496 C8.64070719,15.2884496 9.08306496,15.2488355 9.51221803,15.1712578 L9.55678393,15.1630049 C9.77301105,15.1233908 9.94302169,14.9550307 9.98263582,14.7388036 L10.2417782,13.3358032 C10.8392914,13.1113231 11.3922386,12.7927595 11.8874152,12.3850641 L13.2293438,12.8620842 C13.4356674,12.9347101 13.6667498,12.8736383 13.8087005,12.7052783 L13.8384111,12.6706159 C14.4128159,11.992224 14.8551737,11.2263508 15.1539303,10.3944541 L15.1687856,10.3515388 C15.2430621,10.1485164 15.1819903,9.91743394 15.0152808,9.77383272 L15.0152808,9.77383272 Z M12.7622272,7.13619194 C12.8034919,7.38543084 12.8249496,7.64127209 12.8249496,7.89711334 C12.8249496,8.1529546 12.8034919,8.40879585 12.7622272,8.65803474 L12.6532884,9.31992082 L13.8862781,10.374647 C13.6997616,10.8054507 13.4637274,11.2114955 13.1831273,11.5894803 L11.651381,11.0464366 L11.1330962,11.4722885 C10.7386054,11.7958039 10.2995489,12.0499946 9.8241793,12.2282581 L9.195305,12.4642923 L8.89984962,14.0653634 C8.43603419,14.1181822 7.96231522,14.1181822 7.49684921,14.0653634 L7.20139383,12.4609912 L6.57747129,12.2216558 C6.1070535,12.0433922 5.66964749,11.7892015 5.27845797,11.4673367 L4.76017311,11.0398343 L3.21852325,11.5878297 C2.93792316,11.2098449 2.70353957,10.8021495 2.51537245,10.3729964 L3.76156693,9.3083667 L3.65427867,8.64813121 C3.61466454,8.40219349 3.59320689,8.14800283 3.59320689,7.89711334 C3.59320689,7.64457327 3.61301395,7.3920332 3.65427867,7.14609548 L3.76156693,6.48585999 L2.51537245,5.42123027 C2.70188898,4.99042661 2.93792316,4.58438179 3.21852325,4.20639697 L4.76017311,4.75439242 L5.27845797,4.32688995 C5.66964749,4.00502514 6.1070535,3.75083448 6.57747129,3.5725709 L7.20304441,3.33653671 L7.49849979,1.73216448 C7.96231522,1.67934564 8.43603419,1.67934564 8.90150021,1.73216448 L9.19695559,3.33323554 L9.82582989,3.56926972 C10.2995489,3.7475333 10.740256,4.00172397 11.1347467,4.32523936 L11.6530316,4.75109125 L13.1847779,4.20804756 C13.465378,4.58603237 13.6997616,4.99372779 13.8879287,5.42288085 L12.654939,6.47760705 L12.7622272,7.13619194 Z M8.20165059,4.82701833 C6.59727835,4.82701833 5.29661444,6.12768224 5.29661444,7.73205447 C5.29661444,9.33642671 6.59727835,10.6370906 8.20165059,10.6370906 C9.80602282,10.6370906 11.1066867,9.33642671 11.1066867,7.73205447 C11.1066867,6.12768224 9.80602282,4.82701833 8.20165059,4.82701833 Z M9.50891685,9.03932074 C9.15899205,9.38759496 8.69517662,9.58071384 8.20165059,9.58071384 C7.70812456,9.58071384 7.24430913,9.38759496 6.89438432,9.03932074 C6.5461101,8.68939593 6.35299122,8.2255805 6.35299122,7.73205447 C6.35299122,7.23852845 6.5461101,6.77471302 6.89438432,6.42478821 C7.24430913,6.0748634 7.70812456,5.88339511 8.20165059,5.88339511 C8.69517662,5.88339511 9.15899205,6.0748634 9.50891685,6.42478821 C9.85719107,6.77471302 10.05031,7.23852845 10.05031,7.73205447 C10.05031,8.2255805 9.85719107,8.68939593 9.50891685,9.03932074 Z" id="Shape" fill="#55585e" fill-rule="nonzero"></path>\n </g>\n </g>\n </g>\n </svg>
