<svg width="28" height="28" viewBox="0 0 28 28" fill="none" xmlns="http://www.w3.org/2000/svg">
<path d="M14.4418 6.06673C14.1977 5.82265 13.802 5.82265 13.5579 6.06673L10.6411 8.98354C10.5434 9.08117 10.5434 9.23946 10.6411 9.33709L11.3924 10.0884C11.49 10.186 11.6483 10.186 11.7459 10.0884L13.2185 8.61578L13.2185 17.4438C13.2185 17.5819 13.3305 17.6938 13.4685 17.6938H14.531C14.6691 17.6938 14.781 17.5819 14.781 17.4438V8.61586L16.2538 10.0887C16.3515 10.1863 16.5098 10.1863 16.6074 10.0887L17.3587 9.33736C17.4563 9.23973 17.4563 9.08144 17.3587 8.98381L14.4418 6.06673ZM10.8281 12.7812C10.8281 12.9193 10.7162 13.0312 10.5781 13.0312H8.4375V20.7187H19.5625V13.0312H17.4219C17.2838 13.0312 17.1719 12.9193 17.1719 12.7812V11.7187C17.1719 11.5806 17.2838 11.4687 17.4219 11.4687H20.0938C20.6633 11.4687 21.125 11.9304 21.125 12.5V21.25C21.125 21.8195 20.6633 22.2812 20.0938 22.2812H7.90625C7.3367 22.2812 6.875 21.8195 6.875 21.25V12.5C6.875 11.9304 7.33671 11.4687 7.90625 11.4687H10.5781C10.7162 11.4687 10.8281 11.5806 10.8281 11.7187V12.7812Z" fill="#5D42FF"/>
</svg>
