<svg width="210" height="70" viewBox="0 0 210 70" fill="none" xmlns="http://www.w3.org/2000/svg">
<rect width="210" height="70" rx="4" fill="#F6F7FA"/>
<path d="M0.5 16.5H156C157.933 16.5 159.5 18.067 159.5 20V69.5H4C2.067 69.5 0.5 67.933 0.5 66V16.5Z" fill="white" stroke="#E8EBF0"/>
<path d="M0 16H156C158.209 16 160 17.7909 160 20V38H0V16Z" fill="#E1E5EB"/>
<path d="M0 26H115C117.761 26 120 28.2386 120 31C120 33.7614 117.761 36 115 36H0V26Z" fill="#F0F3F5"/>
<path d="M113.715 24H117C120.314 24 123 26.6863 123 30V34.0376C123 36.7782 120.778 39 118.038 39L114.88 33.134C114.301 32.0589 113.976 30.8657 113.93 29.6456L113.715 24Z" fill="#F0F3F5"/>
<g filter="url(#filter0_d_203_3969)">
<g filter="url(#filter1_b_203_3969)">
<circle cx="134" cy="26" r="21" fill="white" fill-opacity="0.12"/>
<circle cx="134" cy="26" r="20.5" stroke="white"/>
</g>
<path d="M132.906 20C133.168 20.0002 133.426 20.0632 133.658 20.1836C133.89 20.3041 134.091 20.4785 134.242 20.6923C134.393 20.9061 134.491 21.153 134.527 21.4123C134.563 21.6716 134.536 21.9358 134.449 22.1827H136.723C136.866 22.1827 137.008 22.2109 137.14 22.2656C137.272 22.3204 137.392 22.4007 137.494 22.5019C137.595 22.6031 137.675 22.7233 137.73 22.8555C137.785 22.9878 137.813 23.1295 137.813 23.2727V25.5467C138.06 25.4586 138.325 25.4312 138.584 25.4668C138.844 25.5023 139.092 25.5998 139.306 25.751C139.521 25.9021 139.696 26.1026 139.816 26.3354C139.937 26.5683 140 26.8267 140 27.089C140 27.3513 139.937 27.6097 139.816 27.8426C139.696 28.0754 139.521 28.2759 139.306 28.427C139.092 28.5782 138.844 28.6757 138.584 28.7112C138.325 28.7468 138.06 28.7194 137.813 28.6313V30.9067C137.813 31.0501 137.785 31.1922 137.731 31.3248C137.676 31.4574 137.596 31.578 137.495 31.6796C137.393 31.7811 137.273 31.8617 137.141 31.9167C137.008 31.9717 136.866 32 136.723 32H134.452C134.54 31.7529 134.567 31.4882 134.531 31.2284C134.496 30.9685 134.398 30.721 134.247 30.5067C134.096 30.2924 133.895 30.1176 133.662 29.9969C133.429 29.8762 133.171 29.8132 132.908 29.8132C132.646 29.8132 132.388 29.8762 132.155 29.9969C131.922 30.1176 131.721 30.2924 131.57 30.5067C131.419 30.721 131.321 30.9685 131.286 31.2284C131.25 31.4882 131.277 31.7529 131.365 32H129.09C128.947 32 128.805 31.9717 128.672 31.9167C128.54 31.8617 128.419 31.7811 128.318 31.6796C128.217 31.578 128.137 31.4574 128.082 31.3248C128.027 31.1922 128 31.0501 128 30.9067V28.6427C128.246 28.7288 128.51 28.7548 128.768 28.7183C129.027 28.6818 129.272 28.5839 129.485 28.4329C129.698 28.2819 129.872 28.0821 129.992 27.8503C130.111 27.6184 130.174 27.3613 130.174 27.1003C130.174 26.8394 130.111 26.5822 129.992 26.3504C129.872 26.1185 129.698 25.9187 129.485 25.7677C129.272 25.6167 129.027 25.5189 128.768 25.4824C128.51 25.4459 128.246 25.4718 128 25.558V23.2833C128 22.6813 128.488 22.1933 129.09 22.1933H131.364C131.277 21.9465 131.25 21.6823 131.287 21.423C131.323 21.1637 131.421 20.9168 131.572 20.7032C131.723 20.4896 131.924 20.3154 132.156 20.1954C132.389 20.0753 132.647 20.0129 132.909 20.0133L132.907 20H132.906Z" fill="#55585e"/>
</g>
<defs>
<filter id="filter0_d_203_3969" x="109" y="5" width="50" height="52" filterUnits="userSpaceOnUse" color-interpolation-filters="sRGB">
<feFlood flood-opacity="0" result="BackgroundImageFix"/>
<feColorMatrix in="SourceAlpha" type="matrix" values="0 0 0 0 0 0 0 0 0 0 0 0 0 0 0 0 0 0 127 0" result="hardAlpha"/>
<feOffset dy="6"/>
<feGaussianBlur stdDeviation="2"/>
<feColorMatrix type="matrix" values="0 0 0 0 0.301961 0 0 0 0 0.305882 0 0 0 0 0.34902 0 0 0 0.04 0"/>
<feBlend mode="normal" in2="BackgroundImageFix" result="effect1_dropShadow_203_3969"/>
<feBlend mode="normal" in="SourceGraphic" in2="effect1_dropShadow_203_3969" result="shape"/>
</filter>
<filter id="filter1_b_203_3969" x="111" y="3" width="46" height="46" filterUnits="userSpaceOnUse" color-interpolation-filters="sRGB">
<feFlood flood-opacity="0" result="BackgroundImageFix"/>
<feGaussianBlur in="BackgroundImageFix" stdDeviation="1"/>
<feComposite in2="SourceAlpha" operator="in" result="effect1_backgroundBlur_203_3969"/>
<feBlend mode="normal" in="SourceGraphic" in2="effect1_backgroundBlur_203_3969" result="shape"/>
</filter>
</defs>
</svg>
