<svg width="210" height="86" viewBox="0 0 210 86" fill="none" xmlns="http://www.w3.org/2000/svg">
<rect width="210" height="86" rx="4" fill="#F6F7FA"/>
<path d="M22.4102 19.0801V20H17.8926V19.0801H22.4102ZM18.1211 11.4688V20H16.9902V11.4688H18.1211ZM21.8125 15.1367V16.0566H17.8926V15.1367H21.8125ZM22.3516 11.4688V12.3945H17.8926V11.4688H22.3516Z" fill="#B6BABF"/>
<path d="M24.3789 13.6602L25.7676 15.9688L27.1738 13.6602H28.4453L26.3711 16.7891L28.5098 20H27.2559L25.791 17.6211L24.3262 20H23.0664L25.1992 16.7891L23.1309 13.6602H24.3789Z" fill="#B6BABF"/>
<path d="M32.2539 13.6602V14.4922H28.8262V13.6602H32.2539ZM29.9863 12.1191H31.0703V18.4297C31.0703 18.6445 31.1035 18.8066 31.1699 18.916C31.2363 19.0254 31.3223 19.0977 31.4277 19.1328C31.5332 19.168 31.6465 19.1855 31.7676 19.1855C31.8574 19.1855 31.9512 19.1777 32.0488 19.1621C32.1504 19.1426 32.2266 19.127 32.2773 19.1152L32.2832 20C32.1973 20.0273 32.084 20.0527 31.9434 20.0762C31.8066 20.1035 31.6406 20.1172 31.4453 20.1172C31.1797 20.1172 30.9355 20.0645 30.7129 19.959C30.4902 19.8535 30.3125 19.6777 30.1797 19.4316C30.0508 19.1816 29.9863 18.8457 29.9863 18.4238V12.1191Z" fill="#B6BABF"/>
<path d="M36.1562 20.1172C35.7148 20.1172 35.3145 20.043 34.9551 19.8945C34.5996 19.7422 34.293 19.5293 34.0352 19.2559C33.7812 18.9824 33.5859 18.6582 33.4492 18.2832C33.3125 17.9082 33.2441 17.498 33.2441 17.0527V16.8066C33.2441 16.291 33.3203 15.832 33.4727 15.4297C33.625 15.0234 33.832 14.6797 34.0938 14.3984C34.3555 14.1172 34.6523 13.9043 34.9844 13.7598C35.3164 13.6152 35.6602 13.543 36.0156 13.543C36.4688 13.543 36.8594 13.6211 37.1875 13.7773C37.5195 13.9336 37.791 14.1523 38.002 14.4336C38.2129 14.7109 38.3691 15.0391 38.4707 15.418C38.5723 15.793 38.623 16.2031 38.623 16.6484V17.1348H33.8887V16.25H37.5391V16.168C37.5234 15.8867 37.4648 15.6133 37.3633 15.3477C37.2656 15.082 37.1094 14.8633 36.8945 14.6914C36.6797 14.5195 36.3867 14.4336 36.0156 14.4336C35.7695 14.4336 35.543 14.4863 35.3359 14.5918C35.1289 14.6934 34.9512 14.8457 34.8027 15.0488C34.6543 15.252 34.5391 15.5 34.457 15.793C34.375 16.0859 34.334 16.4238 34.334 16.8066V17.0527C34.334 17.3535 34.375 17.6367 34.457 17.9023C34.543 18.1641 34.666 18.3945 34.8262 18.5938C34.9902 18.793 35.1875 18.9492 35.418 19.0625C35.6523 19.1758 35.918 19.2324 36.2148 19.2324C36.5977 19.2324 36.9219 19.1543 37.1875 18.998C37.4531 18.8418 37.6855 18.6328 37.8848 18.3711L38.541 18.8926C38.4043 19.0996 38.2305 19.2969 38.0195 19.4844C37.8086 19.6719 37.5488 19.8242 37.2402 19.9414C36.9355 20.0586 36.5742 20.1172 36.1562 20.1172Z" fill="#B6BABF"/>
<path d="M40.9727 15.0137V20H39.8887V13.6602H40.9141L40.9727 15.0137ZM40.7148 16.5898L40.2637 16.5723C40.2676 16.1387 40.332 15.7383 40.457 15.3711C40.582 15 40.7578 14.6777 40.9844 14.4043C41.2109 14.1309 41.4805 13.9199 41.793 13.7715C42.1094 13.6191 42.459 13.543 42.8418 13.543C43.1543 13.543 43.4355 13.5859 43.6855 13.6719C43.9355 13.7539 44.1484 13.8867 44.3242 14.0703C44.5039 14.2539 44.6406 14.4922 44.7344 14.7852C44.8281 15.0742 44.875 15.4277 44.875 15.8457V20H43.7852V15.834C43.7852 15.502 43.7363 15.2363 43.6387 15.0371C43.541 14.834 43.3984 14.6875 43.2109 14.5977C43.0234 14.5039 42.793 14.457 42.5195 14.457C42.25 14.457 42.0039 14.5137 41.7812 14.627C41.5625 14.7402 41.373 14.8965 41.2129 15.0957C41.0566 15.2949 40.9336 15.5234 40.8438 15.7812C40.7578 16.0352 40.7148 16.3047 40.7148 16.5898Z" fill="#B6BABF"/>
<path d="M50.2129 18.3184C50.2129 18.1621 50.1777 18.0176 50.1074 17.8848C50.041 17.748 49.9023 17.625 49.6914 17.5156C49.4844 17.4023 49.1719 17.3047 48.7539 17.2227C48.4023 17.1484 48.084 17.0605 47.7988 16.959C47.5176 16.8574 47.2773 16.7344 47.0781 16.5898C46.8828 16.4453 46.7324 16.2754 46.627 16.0801C46.5215 15.8848 46.4688 15.6562 46.4688 15.3945C46.4688 15.1445 46.5234 14.9082 46.6328 14.6855C46.7461 14.4629 46.9043 14.2656 47.1074 14.0938C47.3145 13.9219 47.5625 13.7871 47.8516 13.6895C48.1406 13.5918 48.4629 13.543 48.8184 13.543C49.3262 13.543 49.7598 13.6328 50.1191 13.8125C50.4785 13.9922 50.7539 14.2324 50.9453 14.5332C51.1367 14.8301 51.2324 15.1602 51.2324 15.5234H50.1484C50.1484 15.3477 50.0957 15.1777 49.9902 15.0137C49.8887 14.8457 49.7383 14.707 49.5391 14.5977C49.3438 14.4883 49.1035 14.4336 48.8184 14.4336C48.5176 14.4336 48.2734 14.4805 48.0859 14.5742C47.9023 14.6641 47.7676 14.7793 47.6816 14.9199C47.5996 15.0605 47.5586 15.209 47.5586 15.3652C47.5586 15.4824 47.5781 15.5879 47.6172 15.6816C47.6602 15.7715 47.7344 15.8555 47.8398 15.9336C47.9453 16.0078 48.0938 16.0781 48.2852 16.1445C48.4766 16.2109 48.7207 16.2773 49.0176 16.3438C49.5371 16.4609 49.9648 16.6016 50.3008 16.7656C50.6367 16.9297 50.8867 17.1309 51.0508 17.3691C51.2148 17.6074 51.2969 17.8965 51.2969 18.2363C51.2969 18.5137 51.2383 18.7676 51.1211 18.998C51.0078 19.2285 50.8418 19.4277 50.623 19.5957C50.4082 19.7598 50.1504 19.8887 49.8496 19.9824C49.5527 20.0723 49.2188 20.1172 48.8477 20.1172C48.2891 20.1172 47.8164 20.0176 47.4297 19.8184C47.043 19.6191 46.75 19.3613 46.5508 19.0449C46.3516 18.7285 46.252 18.3945 46.252 18.043H47.3418C47.3574 18.3398 47.4434 18.5762 47.5996 18.752C47.7559 18.9238 47.9473 19.0469 48.1738 19.1211C48.4004 19.1914 48.625 19.2266 48.8477 19.2266C49.1445 19.2266 49.3926 19.1875 49.5918 19.1094C49.7949 19.0312 49.9492 18.9238 50.0547 18.7871C50.1602 18.6504 50.2129 18.4941 50.2129 18.3184Z" fill="#B6BABF"/>
<path d="M53.8984 13.6602V20H52.8086V13.6602H53.8984ZM52.7266 11.9785C52.7266 11.8027 52.7793 11.6543 52.8848 11.5332C52.9941 11.4121 53.1543 11.3516 53.3652 11.3516C53.5723 11.3516 53.7305 11.4121 53.8398 11.5332C53.9531 11.6543 54.0098 11.8027 54.0098 11.9785C54.0098 12.1465 53.9531 12.291 53.8398 12.4121C53.7305 12.5293 53.5723 12.5879 53.3652 12.5879C53.1543 12.5879 52.9941 12.5293 52.8848 12.4121C52.7793 12.291 52.7266 12.1465 52.7266 11.9785Z" fill="#B6BABF"/>
<path d="M55.3516 16.9004V16.7656C55.3516 16.3086 55.418 15.8848 55.5508 15.4941C55.6836 15.0996 55.875 14.7578 56.125 14.4688C56.375 14.1758 56.6777 13.9492 57.0332 13.7891C57.3887 13.625 57.7871 13.543 58.2285 13.543C58.6738 13.543 59.0742 13.625 59.4297 13.7891C59.7891 13.9492 60.0938 14.1758 60.3438 14.4688C60.5977 14.7578 60.791 15.0996 60.9238 15.4941C61.0566 15.8848 61.123 16.3086 61.123 16.7656V16.9004C61.123 17.3574 61.0566 17.7812 60.9238 18.1719C60.791 18.5625 60.5977 18.9043 60.3438 19.1973C60.0938 19.4863 59.791 19.7129 59.4355 19.877C59.084 20.0371 58.6855 20.1172 58.2402 20.1172C57.7949 20.1172 57.3945 20.0371 57.0391 19.877C56.6836 19.7129 56.3789 19.4863 56.125 19.1973C55.875 18.9043 55.6836 18.5625 55.5508 18.1719C55.418 17.7812 55.3516 17.3574 55.3516 16.9004ZM56.4355 16.7656V16.9004C56.4355 17.2168 56.4727 17.5156 56.5469 17.7969C56.6211 18.0742 56.7324 18.3203 56.8809 18.5352C57.0332 18.75 57.2227 18.9199 57.4492 19.0449C57.6758 19.166 57.9395 19.2266 58.2402 19.2266C58.5371 19.2266 58.7969 19.166 59.0195 19.0449C59.2461 18.9199 59.4336 18.75 59.582 18.5352C59.7305 18.3203 59.8418 18.0742 59.916 17.7969C59.9941 17.5156 60.0332 17.2168 60.0332 16.9004V16.7656C60.0332 16.4531 59.9941 16.1582 59.916 15.8809C59.8418 15.5996 59.7285 15.3516 59.5762 15.1367C59.4277 14.918 59.2402 14.7461 59.0137 14.6211C58.791 14.4961 58.5293 14.4336 58.2285 14.4336C57.9316 14.4336 57.6699 14.4961 57.4434 14.6211C57.2207 14.7461 57.0332 14.918 56.8809 15.1367C56.7324 15.3516 56.6211 15.5996 56.5469 15.8809C56.4727 16.1582 56.4355 16.4531 56.4355 16.7656Z" fill="#B6BABF"/>
<path d="M63.5664 15.0137V20H62.4824V13.6602H63.5078L63.5664 15.0137ZM63.3086 16.5898L62.8574 16.5723C62.8613 16.1387 62.9258 15.7383 63.0508 15.3711C63.1758 15 63.3516 14.6777 63.5781 14.4043C63.8047 14.1309 64.0742 13.9199 64.3867 13.7715C64.7031 13.6191 65.0527 13.543 65.4355 13.543C65.748 13.543 66.0293 13.5859 66.2793 13.6719C66.5293 13.7539 66.7422 13.8867 66.918 14.0703C67.0977 14.2539 67.2344 14.4922 67.3281 14.7852C67.4219 15.0742 67.4688 15.4277 67.4688 15.8457V20H66.3789V15.834C66.3789 15.502 66.3301 15.2363 66.2324 15.0371C66.1348 14.834 65.9922 14.6875 65.8047 14.5977C65.6172 14.5039 65.3867 14.457 65.1133 14.457C64.8438 14.457 64.5977 14.5137 64.375 14.627C64.1562 14.7402 63.9668 14.8965 63.8066 15.0957C63.6504 15.2949 63.5273 15.5234 63.4375 15.7812C63.3516 16.0352 63.3086 16.3047 63.3086 16.5898Z" fill="#B6BABF"/>
<path fill-rule="evenodd" clip-rule="evenodd" d="M190 14.7275L192.464 12.2635C192.691 12.0362 193.023 11.9475 193.333 12.0307C193.644 12.1138 193.886 12.3563 193.969 12.6668C194.053 12.9772 193.964 13.3085 193.736 13.5358L191.272 15.9995L193.736 18.4642C194.068 18.796 194.087 19.3225 193.792 19.676L193.736 19.7365C193.385 20.0878 192.816 20.0878 192.464 19.7365L190 17.2725L187.536 19.7365C187.204 20.0683 186.677 20.0867 186.324 19.7918L186.263 19.7365C185.912 19.3852 185.912 18.8156 186.263 18.4642L188.727 16L186.263 13.5358C186.055 13.3274 185.963 13.0317 186.013 12.7448L186.031 12.6668C186.114 12.3563 186.356 12.1138 186.667 12.0307C186.977 11.9475 187.308 12.0362 187.536 12.2635L190 14.7275Z" fill="#B6BABF"/>
<ellipse cx="22.0177" cy="68" rx="6.01771" ry="6" fill="#E1E5EB"/>
<rect x="32.0472" y="64" width="86.2539" height="8" rx="4" fill="#E1E5EB"/>
<path d="M165.079 71.6262L168.136 71.6266C168.193 71.6268 168.25 71.615 168.303 71.5922C168.355 71.5694 168.402 71.536 168.441 71.494C168.48 71.4521 168.51 71.4026 168.529 71.3486C168.548 71.2946 168.555 71.2373 168.55 71.1804C168.45 69.8748 167.688 68.7042 166.543 68.0739L166.194 65.2333C166.46 65.02 166.675 64.7497 166.823 64.4423C166.97 64.1349 167.046 63.7984 167.045 63.4576C167.045 63.3478 167.002 63.2424 166.924 63.1647C166.846 63.0871 166.74 63.0434 166.63 63.0434L162.875 63.0434C162.821 63.0434 162.767 63.0541 162.716 63.0749C162.666 63.0957 162.62 63.1263 162.581 63.1647C162.543 63.2032 162.512 63.2489 162.491 63.2992C162.47 63.3495 162.46 63.4034 162.46 63.4578C162.459 63.7986 162.535 64.1352 162.682 64.4426C162.83 64.75 163.045 65.0203 163.311 65.2335L162.975 67.972C161.735 68.569 160.882 69.8025 160.776 71.1804C160.772 71.2373 160.779 71.2945 160.798 71.3484C160.817 71.4024 160.847 71.4518 160.885 71.4937C160.924 71.5356 160.972 71.569 161.024 71.5918C161.077 71.6147 161.133 71.6265 161.19 71.6264L164.248 71.626L164.248 74.9555C164.248 75.0698 164.295 75.1733 164.37 75.2481C164.428 75.3059 164.502 75.3453 164.582 75.3612C164.663 75.3772 164.746 75.369 164.822 75.3376C164.898 75.3063 164.963 75.2532 165.009 75.1851C165.054 75.1171 165.079 75.037 165.079 74.9551L165.079 71.626L165.079 71.6262Z" fill="#E1E5EB"/>
<circle cx="193" cy="64.2704" r="1" fill="#B6BABF"/>
<circle cx="193" cy="68.2704" r="1" fill="#B6BABF"/>
<circle cx="193" cy="72.2704" r="1" fill="#B6BABF"/>
<path fill-rule="evenodd" clip-rule="evenodd" d="M21.4244 43.1827C19.8189 43.887 18.8091 45.6095 19.397 47.3212C19.7524 48.3564 20.4688 49.094 21.5311 49.471C23.3888 50.1304 25.328 48.6806 25.1105 46.796C25.0182 45.995 24.6114 45.3851 23.7853 45.1327C23.1708 44.9449 22.5827 45.0327 22.1028 45.4792C21.6955 45.8578 21.5411 46.324 21.7042 46.866C21.7943 47.164 22.0105 47.3494 22.3047 47.4379C22.5629 47.5154 22.7627 47.4033 22.9166 47.1889C22.8856 47.1371 22.8584 47.0804 22.8207 47.0317C22.6199 46.7721 22.7827 46.3946 22.9564 46.2373C23.1923 46.0237 23.5745 46.0042 23.8256 46.1812C24.2329 46.4677 24.418 47.2297 24.1967 47.7077C23.8263 48.5074 22.874 48.9729 22.0002 48.7465C20.6206 48.3889 19.9404 47.0268 20.3857 45.71C20.9774 43.9603 22.9661 43.195 24.6609 44.0342C26.031 44.7123 26.5396 45.8965 26.485 47.3061C26.3955 49.627 24.0536 51.3487 21.7053 50.9011C19.4277 50.4672 17.7365 48.2863 17.8578 46.224C17.9025 45.4625 18.072 44.7495 18.4616 44.0952C19.4752 42.3938 21.0541 41.593 23.0289 41.4635C23.5488 41.4294 24.0731 41.4584 24.5683 41.4586C24.5411 41.4466 24.4791 41.4161 24.4144 41.392C23.4501 41.0308 22.4534 40.9157 21.4321 41.0614C20.7989 41.1393 20.2144 41.3104 19.6829 41.5551C19.6732 41.5566 19.6616 41.5599 19.6475 41.5658C19.4085 41.6677 19.3685 41.4338 19.2836 41.363C19.201 41.2942 19.2118 41.3796 19.2118 41.3796C19.2838 41.7226 19.1033 41.8608 19.0789 41.8777C18.9284 41.9708 18.784 42.0714 18.6444 42.177C18.6403 42.1788 18.6373 42.1788 18.6329 42.1809C18.3033 42.3312 18.1664 42.0773 18.0148 42.0001C17.8545 41.9185 17.915 42.0524 17.915 42.0524C18.1135 42.4468 17.9422 42.7844 17.9101 42.8413C17.7696 42.9929 17.638 43.1522 17.5149 43.3176C17.5021 43.3258 17.4895 43.3335 17.4749 43.3466C17.1512 43.6392 16.8994 43.4076 16.6993 43.364C16.4787 43.3163 16.6036 43.4607 16.6036 43.4607C17.0117 43.8785 16.8827 44.381 16.8827 44.381L16.8837 44.3815C16.3595 45.5143 16.1712 46.8254 16.389 48.1417C17.1048 52.4682 22.4265 54.5116 25.9148 51.7244C27.0477 50.8193 27.8336 49.0758 27.9164 47.6334C27.9754 46.609 27.6586 45.6792 27.0746 44.8375C25.8356 43.0514 23.359 42.334 21.4244 43.1827Z" fill="#5B8EF4"/>
<path d="M34.2009 47.0259H32.6925V46.2339H34.2009C34.4636 46.2339 34.6759 46.1914 34.8377 46.1065C34.9996 46.0216 35.1176 45.9048 35.1919 45.7563C35.2689 45.605 35.3073 45.4326 35.3073 45.2389C35.3073 45.0558 35.2689 44.8847 35.1919 44.7255C35.1176 44.5636 34.9996 44.4336 34.8377 44.3354C34.6759 44.2372 34.4636 44.1882 34.2009 44.1882H32.999V49.187H32V43.3922H34.2009C34.6493 43.3922 35.0301 43.4718 35.3432 43.631C35.6589 43.7875 35.899 44.0051 36.0635 44.2837C36.228 44.5596 36.3103 44.8754 36.3103 45.2309C36.3103 45.605 36.228 45.9261 36.0635 46.1941C35.899 46.462 35.6589 46.6677 35.3432 46.811C35.0301 46.9542 34.6493 47.0259 34.2009 47.0259Z" fill="#515A62"/>
<path d="M36.8715 47.0816V46.99C36.8715 46.6796 36.9166 46.3917 37.0068 46.1264C37.097 45.8584 37.227 45.6263 37.3968 45.4299C37.5693 45.2309 37.7789 45.077 38.0256 44.9682C38.2751 44.8568 38.5563 44.8011 38.8694 44.8011C39.1851 44.8011 39.4664 44.8568 39.7131 44.9682C39.9626 45.077 40.1735 45.2309 40.346 45.4299C40.5184 45.6263 40.6498 45.8584 40.74 46.1264C40.8302 46.3917 40.8753 46.6796 40.8753 46.99V47.0816C40.8753 47.392 40.8302 47.6799 40.74 47.9452C40.6498 48.2106 40.5184 48.4427 40.346 48.6417C40.1735 48.8381 39.9639 48.992 39.7171 49.1034C39.4704 49.2122 39.1904 49.2666 38.8774 49.2666C38.5616 49.2666 38.279 49.2122 38.0296 49.1034C37.7829 48.992 37.5733 48.8381 37.4008 48.6417C37.2283 48.4427 37.097 48.2106 37.0068 47.9452C36.9166 47.6799 36.8715 47.392 36.8715 47.0816ZM37.8306 46.99V47.0816C37.8306 47.2753 37.8505 47.4584 37.8903 47.6308C37.9301 47.8033 37.9925 47.9545 38.0774 48.0845C38.1623 48.2145 38.2711 48.3167 38.4037 48.391C38.5364 48.4653 38.6943 48.5024 38.8774 48.5024C39.0551 48.5024 39.209 48.4653 39.339 48.391C39.4717 48.3167 39.5805 48.2145 39.6654 48.0845C39.7503 47.9545 39.8126 47.8033 39.8524 47.6308C39.8949 47.4584 39.9161 47.2753 39.9161 47.0816V46.99C39.9161 46.799 39.8949 46.6186 39.8524 46.4488C39.8126 46.2763 39.749 46.1237 39.6614 45.9911C39.5765 45.8584 39.4677 45.7549 39.3351 45.6806C39.205 45.6037 39.0498 45.5652 38.8694 45.5652C38.689 45.5652 38.5324 45.6037 38.3998 45.6806C38.2698 45.7549 38.1623 45.8584 38.0774 45.9911C37.9925 46.1237 37.9301 46.2763 37.8903 46.4488C37.8505 46.6186 37.8306 46.799 37.8306 46.99Z" fill="#515A62"/>
<path d="M42.6424 45.7005V49.187H41.6832V44.8807H42.5986L42.6424 45.7005ZM43.9598 44.8528L43.9518 45.7443C43.8934 45.7337 43.8297 45.7258 43.7608 45.7204C43.6944 45.7151 43.6281 45.7125 43.5618 45.7125C43.3973 45.7125 43.2527 45.7364 43.1279 45.7841C43.0032 45.8292 42.8984 45.8956 42.8135 45.9831C42.7313 46.068 42.6676 46.1715 42.6225 46.2936C42.5774 46.4156 42.5509 46.5523 42.5429 46.7035L42.324 46.7194C42.324 46.4488 42.3505 46.198 42.4036 45.9672C42.4567 45.7364 42.5363 45.5334 42.6424 45.3583C42.7512 45.1832 42.8865 45.0465 43.0484 44.9483C43.2129 44.8502 43.4026 44.8011 43.6175 44.8011C43.6759 44.8011 43.7382 44.8064 43.8045 44.817C43.8735 44.8276 43.9253 44.8395 43.9598 44.8528Z" fill="#515A62"/>
<path d="M45.5279 43.0738V49.187H44.5647V43.0738H45.5279ZM48.2024 44.8807L46.3278 46.9582L45.301 48.0089L45.0503 47.197L45.8264 46.2378L47.0442 44.8807H48.2024ZM47.2512 49.187L45.8542 47.1652L46.4592 46.4926L48.3616 49.187H47.2512Z" fill="#515A62"/>
<path d="M50.6302 49.2666C50.3118 49.2666 50.0239 49.2148 49.7665 49.1114C49.5118 49.0052 49.2942 48.858 49.1138 48.6696C48.936 48.4812 48.7994 48.2597 48.7039 48.0049C48.6083 47.7502 48.5606 47.4756 48.5606 47.1811V47.0219C48.5606 46.6849 48.6097 46.3798 48.7078 46.1065C48.806 45.8332 48.9427 45.5997 49.1178 45.406C49.2929 45.2097 49.4999 45.0598 49.7387 44.9563C49.9774 44.8528 50.2361 44.8011 50.5147 44.8011C50.8225 44.8011 51.0918 44.8528 51.3227 44.9563C51.5535 45.0598 51.7445 45.2057 51.8958 45.3941C52.0497 45.5798 52.1638 45.8014 52.2381 46.0587C52.315 46.3161 52.3535 46.6 52.3535 46.9105V47.3204H49.0262V46.6319H51.4063V46.5562C51.4009 46.3838 51.3665 46.2219 51.3028 46.0707C51.2417 45.9194 51.1476 45.7974 51.0202 45.7045C50.8928 45.6117 50.723 45.5652 50.5108 45.5652C50.3516 45.5652 50.2096 45.5997 50.0849 45.6687C49.9629 45.735 49.8607 45.8319 49.7785 45.9592C49.6962 46.0866 49.6325 46.2405 49.5874 46.4209C49.545 46.5987 49.5237 46.799 49.5237 47.0219V47.1811C49.5237 47.3695 49.5489 47.5446 49.5994 47.7064C49.6524 47.8656 49.7294 48.0049 49.8302 48.1243C49.931 48.2437 50.0531 48.3379 50.1963 48.4069C50.3396 48.4732 50.5028 48.5064 50.6859 48.5064C50.9167 48.5064 51.1223 48.46 51.3028 48.3671C51.4832 48.2742 51.6397 48.1429 51.7724 47.9731L52.2779 48.4626C52.185 48.598 52.0643 48.728 51.9157 48.8527C51.7671 48.9747 51.5854 49.0742 51.3704 49.1512C51.1582 49.2281 50.9114 49.2666 50.6302 49.2666Z" fill="#515A62"/>
<path d="M54.2957 48.7173L55.4658 44.8807H56.4926L54.7653 49.8437C54.7255 49.9498 54.6738 50.0652 54.6101 50.1899C54.5464 50.3146 54.4629 50.4327 54.3594 50.5441C54.2585 50.6582 54.1325 50.7498 53.9813 50.8188C53.83 50.8904 53.647 50.9262 53.432 50.9262C53.3471 50.9262 53.2649 50.9183 53.1853 50.9023C53.1083 50.8891 53.0354 50.8745 52.9664 50.8586L52.9624 50.1263C52.9889 50.1289 53.0208 50.1316 53.0579 50.1342C53.0977 50.1369 53.1296 50.1382 53.1535 50.1382C53.3126 50.1382 53.4453 50.1183 53.5514 50.0785C53.6576 50.0413 53.7438 49.9803 53.8101 49.8954C53.8791 49.8105 53.9375 49.6964 53.9853 49.5531L54.2957 48.7173ZM53.635 44.8807L54.6579 48.1044L54.829 49.1153L54.1644 49.2865L52.6002 44.8807H53.635Z" fill="#515A62"/>
<g filter="url(#filter0_d_203_3982)">
<circle cx="161.493" cy="47" r="20.5" fill="white" fill-opacity="0.5" stroke="white"/>
</g>
<path d="M162.133 50.6262L165.181 50.6266C165.238 50.6268 165.295 50.615 165.347 50.5922C165.4 50.5694 165.447 50.536 165.485 50.494C165.524 50.4521 165.554 50.4026 165.573 50.3486C165.591 50.2946 165.599 50.2373 165.594 50.1804C165.494 48.8748 164.735 47.7042 163.592 47.0739L163.245 44.2333C163.51 44.02 163.725 43.7497 163.872 43.4423C164.019 43.1349 164.095 42.7984 164.094 42.4576C164.094 42.3478 164.05 42.2424 163.972 42.1647C163.895 42.0871 163.789 42.0434 163.679 42.0434L159.936 42.0434C159.882 42.0434 159.828 42.0541 159.777 42.0749C159.727 42.0957 159.681 42.1263 159.643 42.1647C159.604 42.2032 159.574 42.2489 159.553 42.2992C159.532 42.3495 159.522 42.4034 159.522 42.4578C159.521 42.7986 159.596 43.1352 159.743 43.4426C159.89 43.75 160.105 44.0203 160.371 44.2335L160.035 46.972C158.799 47.569 157.948 48.8025 157.843 50.1804C157.838 50.2373 157.846 50.2945 157.865 50.3484C157.883 50.4024 157.913 50.4518 157.952 50.4937C157.991 50.5356 158.038 50.569 158.09 50.5918C158.142 50.6147 158.199 50.6265 158.256 50.6264L161.304 50.626L161.304 53.9555C161.304 54.0698 161.351 54.1733 161.426 54.2481C161.484 54.3059 161.557 54.3453 161.638 54.3612C161.718 54.3772 161.801 54.369 161.877 54.3376C161.953 54.3063 162.017 54.2532 162.063 54.1851C162.108 54.1171 162.133 54.037 162.133 53.9551L162.133 50.626L162.133 50.6262Z" fill="#5B8EF4"/>
<circle cx="191.493" cy="43" r="1" fill="#101114"/>
<circle cx="191.493" cy="47" r="1" fill="#101114"/>
<circle cx="191.493" cy="51" r="1" fill="#101114"/>
<defs>
<filter id="filter0_d_203_3982" x="136.493" y="26" width="50" height="50" filterUnits="userSpaceOnUse" color-interpolation-filters="sRGB">
<feFlood flood-opacity="0" result="BackgroundImageFix"/>
<feColorMatrix in="SourceAlpha" type="matrix" values="0 0 0 0 0 0 0 0 0 0 0 0 0 0 0 0 0 0 127 0" result="hardAlpha"/>
<feOffset dy="4"/>
<feGaussianBlur stdDeviation="2"/>
<feComposite in2="hardAlpha" operator="out"/>
<feColorMatrix type="matrix" values="0 0 0 0 0.129427 0 0 0 0 0.13599 0 0 0 0 0.145833 0 0 0 0.08 0"/>
<feBlend mode="normal" in2="BackgroundImageFix" result="effect1_dropShadow_203_3982"/>
<feBlend mode="normal" in="SourceGraphic" in2="effect1_dropShadow_203_3982" result="shape"/>
</filter>
</defs>
</svg>
