<svg width="20" height="21" viewBox="0 0 20 21" fill="none" xmlns="http://www.w3.org/2000/svg">
  <g id="suggest-add">
    <g id="Union">
      <path
        d="M10.8749 18.1016C10.8749 18.2396 10.763 18.3516 10.6249 18.3516H9.37494C9.23687 18.3516 9.12494 18.2396 9.12494 18.1016V11.4141H2.4375C2.29943 11.4141 2.1875 11.3021 2.1875 11.1641V9.91408C2.1875 9.77601 2.29943 9.66408 2.4375 9.66408H9.12494V2.97656C9.12494 2.83849 9.23687 2.72656 9.37494 2.72656H10.6249C10.763 2.72656 10.8749 2.83849 10.8749 2.97656V9.66408H17.5625C17.7006 9.66408 17.8125 9.77601 17.8125 9.91408V11.1641C17.8125 11.3021 17.7006 11.4141 17.5625 11.4141H10.8749V18.1016Z"
        fill="#55585E" />
    </g>
  </g>
</svg>
