<svg width="20" height="21" viewBox="0 0 20 21" fill="none" xmlns="http://www.w3.org/2000/svg">
  <g id="suggest-close">
    <g id="Union">
      <path
        d="M4.60832 17.1679C4.51069 17.2655 4.3524 17.2655 4.25477 17.1679L3.37088 16.284C3.27325 16.1864 3.27325 16.0281 3.37088 15.9305L8.76253 10.5388L3.37083 5.14711C3.2732 5.04948 3.2732 4.89119 3.37083 4.79356L4.25471 3.90967C4.35235 3.81204 4.51064 3.81204 4.60827 3.90967L9.99997 9.30138L15.3917 3.90965C15.4893 3.81202 15.6476 3.81202 15.7452 3.90965L16.6291 4.79353C16.7268 4.89116 16.7268 5.04945 16.6291 5.14709L11.2374 10.5388L16.6291 15.9305C16.7267 16.0281 16.7267 16.1864 16.6291 16.284L15.7452 17.1679C15.6476 17.2656 15.4893 17.2656 15.3916 17.1679L9.99997 11.7763L4.60832 17.1679Z"
        fill="#55585E" />
    </g>
  </g>
</svg>
