<svg width="57" height="56" viewBox="0 0 57 56" fill="none" xmlns="http://www.w3.org/2000/svg">
<rect x="0.5" width="56" height="56" rx="28" fill="black"/>
<g clip-path="url(#clip0_20707_41847)">
<path d="M16.6474 39.8644H8.8125L17.4485 16.1343H25.2834L16.6474 39.8644Z" fill="white"/>
<path d="M26.135 39.865H33.9699L25.334 16.1348H17.499L26.135 39.865Z" fill="white"/>
<path d="M14.2207 31.6547V37.6123H28.2385V31.6547H14.2207Z" fill="white"/>
<path d="M45.058 17.2106L46.685 21.6413H36.2468L37.7236 23.3935C37.7236 23.3935 37.8238 23.5187 45.3834 31.4037C45.909 32.2297 46.1844 33.0558 46.1844 33.9319C46.1844 35.2586 45.7338 36.385 44.8327 37.3612C43.9315 38.3375 42.8802 38.788 41.6286 38.788H30.5145V34.3324H42.2544L40.5022 32.5051L32.8925 24.57C32.3668 23.9192 32.1165 23.0931 32.1165 22.0418C32.1165 20.7151 32.5671 19.5887 33.4682 18.6124C34.3694 17.6612 35.4207 17.1856 36.6723 17.1856H45.083M45.8089 16.1343H36.6473C35.0703 16.1343 33.7436 16.735 32.6422 17.9115C31.5408 19.088 31.0151 20.4648 31.0151 22.0668C31.0151 23.3685 31.3656 24.4448 32.0665 25.2959L39.7262 33.2811H29.4131V39.8894H41.6036C43.1555 39.8894 44.4822 39.2887 45.5836 38.1122C46.685 36.9357 47.2357 35.5339 47.2357 33.9569C47.2357 32.8305 46.8853 31.7541 46.2094 30.7528C41.153 25.4711 38.5747 22.8178 38.5247 22.7427H48.212L45.8089 16.1343Z" fill="white"/>
</g>
<defs>
<clipPath id="clip0_20707_41847">
<rect width="39.375" height="23.7301" fill="white" transform="translate(8.8125 16.1343)"/>
</clipPath>
</defs>
</svg>
