<svg width="21" height="20" viewBox="0 0 21 20" fill="none" xmlns="http://www.w3.org/2000/svg">
<path d="M14.1692 3.24333C14.0716 3.1457 13.9133 3.1457 13.8156 3.24333L12.9317 4.12721C12.8341 4.22484 12.8341 4.38313 12.9317 4.48077L15.1385 6.68749L2.481 6.68751C2.34293 6.68751 2.231 6.79944 2.231 6.93751V8.18751C2.231 8.32558 2.34293 8.43751 2.481 8.43751L17.8545 8.43749C18.4113 8.43749 18.6901 7.76428 18.2964 7.37055L14.1692 3.24333ZM6.54249 16.7567C6.64012 16.8543 6.79842 16.8543 6.89605 16.7567L7.77993 15.8728C7.87756 15.7752 7.87756 15.6169 7.77993 15.5193L5.5732 13.3125L18.2307 13.3125C18.3688 13.3125 18.4807 13.2006 18.4807 13.0625V11.8125C18.4807 11.6744 18.3688 11.5625 18.2307 11.5625L2.85721 11.5625C2.30039 11.5625 2.02154 12.2358 2.41527 12.6295L6.54249 16.7567Z" fill="#25272A"/>
</svg>
