<svg width="32" height="32" viewBox="0 0 32 32" fill="none" xmlns="http://www.w3.org/2000/svg">
<rect width="32" height="32" rx="16" fill="#E7F0FC"/>
<path d="M19 17.3333H19.0067M10 11.3333V20.6667C10 21.403 10.597 22 11.3333 22H20.6667C21.403 22 22 21.403 22 20.6667V14C22 13.2636 21.403 12.6667 20.6667 12.6667L11.3333 12.6667C10.597 12.6667 10 12.0697 10 11.3333ZM10 11.3333C10 10.597 10.597 10 11.3333 10H19.3333M19.3333 17.3333C19.3333 17.5174 19.1841 17.6667 19 17.6667C18.8159 17.6667 18.6667 17.5174 18.6667 17.3333C18.6667 17.1492 18.8159 17 19 17C19.1841 17 19.3333 17.1492 19.3333 17.3333Z" stroke="#5d42ff" stroke-width="1.4" stroke-linecap="round" stroke-linejoin="round"/>
</svg>
