<svg width="20" height="20" viewBox="0 0 20 20" fill="none" xmlns="http://www.w3.org/2000/svg">
<path fill-rule="evenodd" clip-rule="evenodd" d="M2.23741 9.4574C7.06923 7.34056 10.2912 5.945 11.9033 5.27074C16.5063 3.34558 17.4627 3.01116 18.0861 3.00012C18.2232 2.99769 18.5298 3.03186 18.7284 3.19389C18.8961 3.33071 18.9422 3.51553 18.9643 3.64524C18.9864 3.77496 19.0139 4.07046 18.992 4.30136C18.7426 6.93675 17.6633 13.3322 17.1142 16.2838C16.8818 17.5328 16.4244 17.9516 15.9815 17.9926C15.0189 18.0816 14.288 17.3529 13.3558 16.7384C11.897 15.7769 11.0729 15.1783 9.65691 14.24C8.02048 13.1556 9.08131 12.5596 10.0139 11.5856C10.258 11.3307 14.4988 7.45188 14.5809 7.10001C14.5912 7.056 14.6007 6.89197 14.5038 6.80535C14.4069 6.71873 14.2639 6.74835 14.1606 6.77191C14.0143 6.8053 11.6839 8.35418 7.16938 11.4185C6.5079 11.8753 5.90875 12.0978 5.37193 12.0862C4.78013 12.0733 3.64175 11.7497 2.79548 11.4731C1.75749 11.1338 0.932524 10.9544 1.00436 10.3782C1.04178 10.0781 1.45279 9.77115 2.23741 9.4574Z" stroke="#5D42FF" stroke-width="1.56"/>
</svg>
