<svg width="49" height="48" viewBox="0 0 49 48" fill="none" xmlns="http://www.w3.org/2000/svg">
<g clip-path="url(#clip0_14947_10361)">
<path d="M48.5 24C48.5 37.2548 37.7548 48 24.5 48C11.2452 48 0.5 37.2548 0.5 24C0.5 10.7452 11.2452 0 24.5 0C37.7548 0 48.5 10.7452 48.5 24Z" fill="#4DA2E2"/>
<path d="M25.3603 17.7179C23.0259 18.6888 18.3605 20.6984 11.364 23.7466C10.2279 24.1984 9.63276 24.6404 9.57858 25.0726C9.48702 25.803 10.4017 26.0906 11.6472 26.4822L11.6474 26.4823C11.8167 26.5356 11.9922 26.5907 12.1721 26.6492C13.3975 27.0475 15.0459 27.5135 15.9028 27.5321C16.6801 27.5489 17.5477 27.2284 18.5055 26.5707C25.0426 22.158 28.417 19.9276 28.6289 19.8795C28.7783 19.8456 28.9854 19.803 29.1258 19.9277C29.2661 20.0524 29.2523 20.2886 29.2374 20.352C29.1468 20.7383 25.5565 24.0762 23.6985 25.8035L23.6985 25.8036L23.6984 25.8036C23.1192 26.3421 22.7084 26.724 22.6244 26.8113C22.4363 27.0067 22.2445 27.1915 22.0602 27.3692L22.0602 27.3692C20.9218 28.4667 20.0681 29.2896 22.1075 30.6336C23.0875 31.2794 23.8718 31.8135 24.6541 32.3463L24.6542 32.3463C25.5086 32.9282 26.3608 33.5085 27.4635 34.2313C27.7444 34.4155 28.0127 34.6068 28.274 34.7931C29.2684 35.5019 30.1617 36.1388 31.2654 36.0373C31.9067 35.9782 32.5692 35.3752 32.9056 33.5767C33.7007 29.3263 35.2635 20.1169 35.6247 16.3219C35.6563 15.9895 35.6165 15.5639 35.5845 15.3771C35.5526 15.1904 35.4858 14.9242 35.243 14.7272C34.9554 14.4939 34.5115 14.4447 34.313 14.4482C33.4103 14.4641 32.0254 14.9456 25.3603 17.7179Z" fill="white"/>
</g>
<defs>
<clipPath id="clip0_14947_10361">
<rect width="48" height="48" fill="white" transform="translate(0.5)"/>
</clipPath>
</defs>
</svg>
