<?xml version="1.0" encoding="UTF-8"?>
<svg width="16px" height="16px" viewBox="0 0 16 16" version="1.1" xmlns="http://www.w3.org/2000/svg"
    xmlns:xlink="http://www.w3.org/1999/xlink">
    <title>Circle_Correct</title>
    <g id="Icon" stroke="none" stroke-width="1" fill="none" fill-rule="evenodd">
        <g id="Common" transform="translate(-75.000000, -26.000000)">
            <g id="Circle_Correct" transform="translate(75.000000, 26.000000)">
                <rect id="Rectangle" x="0" y="0" width="16" height="16"></rect>
                <path
                    d="M8,1 C4.134375,1 1,4.134375 1,8 C1,11.865625 4.134375,15 8,15 C11.865625,15 15,11.865625 15,8 C15,4.134375 11.865625,1 8,1 Z M11.331004,5.23964148 L7.35710667,10.7495086 C7.11746519,11.0834971 6.62119976,11.0834971 6.38155827,10.7495086 L4.0285431,7.48887491 C3.95683935,7.38886705 4.0285431,7.24923343 4.15119425,7.24923343 L5.03616949,7.24923343 C5.22863745,7.24923343 5.4116707,7.34169353 5.52488715,7.50019656 L6.868389,9.36449406 L9.83465993,5.25096313 C9.94787638,5.09434704 10.1290227,5 10.3233776,5 L11.2083528,5 C11.331004,5 11.4027077,5.13963362 11.331004,5.23964148 Z"
                    id="Shape" fill="#00AB34" fill-rule="nonzero"></path>
            </g>
        </g>
    </g>
</svg>