<svg width="14" height="14" viewBox="0 0 14 14" fill="none" xmlns="http://www.w3.org/2000/svg">
<g id="time-filled">
<g id="Subtract">
<path d="M13.125 7C13.125 10.3827 10.3827 13.125 7 13.125C3.61726 13.125 0.875 10.3827 0.875 7C0.875 3.61725 3.61726 0.875 7 0.875C10.3827 0.875 13.125 3.61725 13.125 7ZM6.59856 7.54567C6.61415 7.56045 6.63102 7.57427 6.64915 7.58697L9.15777 9.34352C9.23694 9.39896 9.34606 9.37972 9.4015 9.30055L9.82809 8.6913C9.88353 8.61213 9.86429 8.50301 9.78512 8.44757L7.54688 6.88034V4.15741C7.54688 4.06076 7.46852 3.98241 7.37187 3.98241H6.62812C6.53148 3.98241 6.45312 4.06076 6.45312 4.15741V7.21992C6.45312 7.34931 6.50929 7.46557 6.59856 7.54567Z" fill="#979AA1"/>
</g>
</g>
</svg>
