<svg width="48" height="24" viewBox="0 0 48 24" fill="none" xmlns="http://www.w3.org/2000/svg">
<path d="M44.8571 0.428571C45.5672 0.428571 46.1429 1.00421 46.1429 1.71429V14.6106C46.1429 15.9276 45.2839 17.0906 44.0251 17.4779L26.1763 22.9699C24.9444 23.3489 23.627 23.3489 22.3952 22.9699L4.54631 17.4779C3.28754 17.0906 2.42857 15.9276 2.42857 14.6106V1.71429C2.42857 1.00421 3.00421 0.428571 3.71429 0.428571H44.8571Z" fill="#FFD866" stroke="url(#paint0_linear_15763_28917)" stroke-width="0.857143"/>
<path d="M23.3616 10.8539V5.13617H21.433V15.4286H23.3616V13.2089L24.056 12.5062L25.9263 15.4286H28.1495L25.2969 11.1843L27.9285 8.18304H25.6116L23.7299 10.3862L23.3616 10.8539Z" fill="#B77100"/>
<path fill-rule="evenodd" clip-rule="evenodd" d="M31.9598 15.5625C31.3973 15.5625 30.8928 15.4732 30.4464 15.2947C30 15.1116 29.6205 14.8594 29.308 14.538C29 14.2165 28.7634 13.8438 28.5982 13.4197C28.433 12.9911 28.3504 12.5357 28.3504 12.0536V11.7857C28.3504 11.2366 28.4285 10.7344 28.5848 10.279C28.741 9.82367 28.9643 9.42858 29.2544 9.09376C29.5491 8.75894 29.9062 8.50224 30.3259 8.32367C30.7455 8.14063 31.2187 8.04912 31.7455 8.04912C32.2589 8.04912 32.7143 8.13394 33.1116 8.30358C33.5089 8.47322 33.8415 8.71429 34.1093 9.02679C34.3817 9.33929 34.587 9.71429 34.7254 10.1518C34.8638 10.5848 34.933 11.067 34.933 11.5982V12.4018H30.3063C30.3257 12.5613 30.3591 12.7131 30.4062 12.8572C30.491 13.1027 30.6093 13.3147 30.7611 13.4933C30.9174 13.6719 31.1049 13.8103 31.3236 13.9085C31.5468 14.0067 31.7991 14.0558 32.0803 14.0558C32.4285 14.0558 32.7522 13.9888 33.0513 13.8549C33.3549 13.7165 33.616 13.5089 33.8348 13.2322L34.7723 14.25C34.6205 14.4688 34.4129 14.6786 34.1495 14.8795C33.8906 15.0804 33.5781 15.2455 33.212 15.375C32.8459 15.5 32.4285 15.5625 31.9598 15.5625ZM30.366 10.9018C30.3521 10.9714 30.34 11.0428 30.3297 11.1161H33.0379V10.9688C33.0379 10.7009 32.9888 10.4621 32.8906 10.2522C32.7968 10.038 32.654 9.86831 32.462 9.74331C32.2701 9.61831 32.0245 9.55581 31.7254 9.55581C31.4709 9.55581 31.2522 9.61162 31.0692 9.72322C30.8861 9.83483 30.7366 9.99108 30.6205 10.192C30.5089 10.3929 30.4241 10.6295 30.366 10.9018Z" fill="#B77100"/>
<path d="M37.9196 15.4286V10.2887C37.9467 10.2388 37.9757 10.1909 38.0067 10.1451C38.1317 9.96206 38.2879 9.81921 38.4754 9.71653C38.6674 9.61385 38.8928 9.56251 39.1518 9.56251C39.4018 9.56251 39.6116 9.60046 39.7812 9.67635C39.9553 9.74778 40.087 9.87278 40.1763 10.0513C40.2656 10.2299 40.3102 10.4799 40.3102 10.8013V15.4286H42.2522V10.808C42.2522 10.2991 42.1964 9.86831 42.0848 9.51563C41.9776 9.16296 41.8214 8.87947 41.616 8.66519C41.4151 8.4509 41.1741 8.29465 40.8928 8.19644C40.6116 8.09822 40.3013 8.04912 39.962 8.04912C39.5334 8.04912 39.1451 8.13171 38.7968 8.29688C38.4531 8.4576 38.1562 8.69197 37.9062 9.00001C37.8928 9.01625 37.8796 9.03267 37.8666 9.04928L37.7991 8.18304H35.991V15.4286H37.9196Z" fill="#B77100"/>
<path fill-rule="evenodd" clip-rule="evenodd" d="M13.3839 11.8795V11.7388C13.3839 11.2076 13.4598 10.7188 13.6116 10.2723C13.7634 9.82144 13.9843 9.43081 14.2745 9.10046C14.5647 8.7701 14.9218 8.5134 15.3459 8.33037C15.7701 8.14287 16.2567 8.04912 16.8058 8.04912C17.3549 8.04912 17.8437 8.14287 18.2723 8.33037C18.7009 8.5134 19.0602 8.7701 19.3504 9.10046C19.6451 9.43081 19.8683 9.82144 20.0201 10.2723C20.1718 10.7188 20.2477 11.2076 20.2477 11.7388V11.8795C20.2477 12.4063 20.1718 12.8951 20.0201 13.346C19.8683 13.7924 19.6451 14.183 19.3504 14.5179C19.0602 14.8482 18.7031 15.1049 18.279 15.288C17.8549 15.471 17.3683 15.5625 16.8192 15.5625C16.2701 15.5625 15.7812 15.471 15.3526 15.288C14.9285 15.1049 14.5692 14.8482 14.2745 14.5179C13.9843 14.183 13.7634 13.7924 13.6116 13.346C13.4598 12.8951 13.3839 12.4063 13.3839 11.8795ZM15.3125 11.7388V11.8795C15.3125 12.183 15.3393 12.4665 15.3928 12.7299C15.4464 12.9933 15.5312 13.2255 15.6473 13.4263C15.7678 13.6228 15.9241 13.7768 16.116 13.8884C16.308 14 16.5424 14.0558 16.8192 14.0558C17.087 14.0558 17.3169 14 17.5089 13.8884C17.7009 13.7768 17.8549 13.6228 17.9709 13.4263C18.087 13.2255 18.1718 12.9933 18.2254 12.7299C18.2834 12.4665 18.3125 12.183 18.3125 11.8795V11.7388C18.3125 11.4442 18.2834 11.1674 18.2254 10.9085C18.1718 10.6451 18.0848 10.413 17.9643 10.2121C17.8482 10.0067 17.6942 9.84599 17.5022 9.72992C17.3102 9.61385 17.0781 9.55581 16.8058 9.55581C16.5334 9.55581 16.3013 9.61385 16.1093 9.72992C15.9218 9.84599 15.7678 10.0067 15.6473 10.2121C15.5312 10.413 15.4464 10.6451 15.3928 10.9085C15.3393 11.1674 15.3125 11.4442 15.3125 11.7388Z" fill="#B77100"/>
<path d="M10.8326 15.4286V7.25224H13.8326V5.67858H5.8772V7.25224H8.83032V15.4286H10.8326Z" fill="#B77100"/>
<defs>
<linearGradient id="paint0_linear_15763_28917" x1="24.2857" y1="1.72969" x2="24.2857" y2="25.9454" gradientUnits="userSpaceOnUse">
<stop stop-color="#FFE899"/>
<stop offset="1" stop-color="#FFC83F"/>
</linearGradient>
</defs>
</svg>
