<svg width="24" height="12" viewBox="0 0 24 12" fill="none" xmlns="http://www.w3.org/2000/svg">
<path d="M22.4286 0.214286C22.7836 0.214286 23.0714 0.502103 23.0714 0.857143V7.3053C23.0714 7.96381 22.6419 8.54531 22.0126 8.73897L13.0881 11.4849C12.4722 11.6745 11.8135 11.6745 11.1976 11.4849L2.27316 8.73897C1.64377 8.54531 1.21429 7.96381 1.21429 7.3053V0.857143C1.21429 0.502103 1.5021 0.214286 1.85714 0.214286H22.4286Z" fill="#FFD866" stroke="url(#paint0_linear_15763_28931)" stroke-width="0.428571"/>
<path d="M11.6808 5.42693V2.56805H10.7165V7.71426H11.6808V6.60441L12.028 6.25307L12.9632 7.71426H14.0748L12.6484 5.5921L13.9643 4.09149H12.8058L11.8649 5.19305L11.6808 5.42693Z" fill="#B77100"/>
<path fill-rule="evenodd" clip-rule="evenodd" d="M15.9799 7.78122C15.6986 7.78122 15.4464 7.73658 15.2232 7.6473C15 7.55578 14.8103 7.42966 14.654 7.26895C14.5 7.10823 14.3817 6.92185 14.2991 6.7098C14.2165 6.49551 14.1752 6.26783 14.1752 6.02676V5.89283C14.1752 5.61828 14.2143 5.36716 14.2924 5.13948C14.3705 4.9118 14.4821 4.71426 14.6272 4.54685C14.7745 4.37944 14.9531 4.25109 15.1629 4.1618C15.3728 4.07029 15.6094 4.02453 15.8728 4.02453C16.1294 4.02453 16.3571 4.06694 16.5558 4.15176C16.7544 4.23658 16.9207 4.35712 17.0547 4.51337C17.1908 4.66962 17.2935 4.85712 17.3627 5.07587C17.4319 5.29238 17.4665 5.53346 17.4665 5.79908V6.20087H15.1531C15.1629 6.2806 15.1795 6.3565 15.2031 6.42855C15.2455 6.55131 15.3047 6.65734 15.3806 6.74663C15.4587 6.83591 15.5524 6.90511 15.6618 6.95422C15.7734 7.00332 15.8995 7.02788 16.0402 7.02788C16.2143 7.02788 16.3761 6.99439 16.5257 6.92743C16.6774 6.85823 16.808 6.75444 16.9174 6.61605L17.3861 7.12497C17.3103 7.23435 17.2065 7.33926 17.0748 7.43971C16.9453 7.54015 16.789 7.62274 16.606 7.68747C16.423 7.74997 16.2143 7.78122 15.9799 7.78122ZM15.183 5.45087C15.1761 5.48568 15.17 5.52139 15.1648 5.55801H16.519V5.48435C16.519 5.35042 16.4944 5.231 16.4453 5.12609C16.3984 5.01895 16.327 4.93413 16.231 4.87163C16.135 4.80913 16.0123 4.77788 15.8627 4.77788C15.7355 4.77788 15.6261 4.80578 15.5346 4.86158C15.4431 4.91738 15.3683 4.99551 15.3103 5.09596C15.2544 5.1964 15.212 5.31471 15.183 5.45087Z" fill="#B77100"/>
<path d="M18.9598 7.71426V5.14433C18.9734 5.11937 18.9879 5.09543 19.0033 5.07252C19.0658 4.981 19.144 4.90957 19.2377 4.85823C19.3337 4.80689 19.4464 4.78122 19.5759 4.78122C19.7009 4.78122 19.8058 4.8002 19.8906 4.83814C19.9777 4.87386 20.0435 4.93636 20.0882 5.02564C20.1328 5.11493 20.1551 5.23993 20.1551 5.40064V7.71426H21.1261V5.40399C21.1261 5.14953 21.0982 4.93413 21.0424 4.75779C20.9888 4.58145 20.9107 4.43971 20.808 4.33256C20.7076 4.22542 20.587 4.1473 20.4464 4.09819C20.3058 4.04908 20.1507 4.02453 19.981 4.02453C19.7667 4.02453 19.5725 4.06582 19.3984 4.14841C19.2265 4.22877 19.0781 4.34596 18.9531 4.49997C18.9464 4.50809 18.9398 4.51631 18.9333 4.52461L18.8995 4.09149H17.9955V7.71426H18.9598Z" fill="#B77100"/>
<path fill-rule="evenodd" clip-rule="evenodd" d="M6.69195 5.93971V5.86939C6.69195 5.60377 6.72989 5.35935 6.80579 5.13613C6.88168 4.91069 6.99217 4.71538 7.13726 4.5502C7.28235 4.38502 7.46092 4.25667 7.67297 4.16515C7.88503 4.0714 8.12833 4.02453 8.40288 4.02453C8.67744 4.02453 8.92186 4.0714 9.13614 4.16515C9.35043 4.25667 9.53012 4.38502 9.67521 4.5502C9.82253 4.71538 9.93413 4.91069 10.01 5.13613C10.0859 5.35935 10.1239 5.60377 10.1239 5.86939V5.93971C10.1239 6.2031 10.0859 6.44752 10.01 6.67297C9.93413 6.89618 9.82253 7.09149 9.67521 7.2589C9.53012 7.42408 9.35155 7.55243 9.13949 7.64395C8.92744 7.73547 8.68413 7.78122 8.40958 7.78122C8.13503 7.78122 7.89061 7.73547 7.67632 7.64395C7.46427 7.55243 7.28458 7.42408 7.13726 7.2589C6.99217 7.09149 6.88168 6.89618 6.80579 6.67297C6.72989 6.44752 6.69195 6.2031 6.69195 5.93971ZM7.65623 5.86939V5.93971C7.65623 6.09149 7.66963 6.23323 7.69641 6.36493C7.7232 6.49663 7.76561 6.6127 7.82364 6.71314C7.88391 6.81136 7.96204 6.88837 8.05802 6.94417C8.154 6.99997 8.27119 7.02788 8.40958 7.02788C8.54351 7.02788 8.65846 6.99997 8.75445 6.94417C8.85043 6.88837 8.92744 6.81136 8.98547 6.71314C9.04351 6.6127 9.08592 6.49663 9.11271 6.36493C9.14172 6.23323 9.15623 6.09149 9.15623 5.93971V5.86939C9.15623 5.72207 9.14172 5.58368 9.11271 5.45422C9.08592 5.32252 9.04239 5.20645 8.98213 5.106C8.92409 5.00332 8.84708 4.92296 8.7511 4.86493C8.65512 4.80689 8.53904 4.77788 8.40288 4.77788C8.26672 4.77788 8.15065 4.80689 8.05467 4.86493C7.96092 4.92296 7.88391 5.00332 7.82364 5.106C7.76561 5.20645 7.7232 5.32252 7.69641 5.45422C7.66963 5.58368 7.65623 5.72207 7.65623 5.86939Z" fill="#B77100"/>
<path d="M5.41628 7.71426V3.62609H6.91628V2.83926H2.9386V3.62609H4.41516V7.71426H5.41628Z" fill="#B77100"/>
<defs>
<linearGradient id="paint0_linear_15763_28931" x1="12.1429" y1="0.864847" x2="12.1429" y2="12.9727" gradientUnits="userSpaceOnUse">
<stop stop-color="#FFE899"/>
<stop offset="1" stop-color="#FFC83F"/>
</linearGradient>
</defs>
</svg>
