<svg width="32" height="16" viewBox="0 0 32 16" fill="none" xmlns="http://www.w3.org/2000/svg">
<path d="M29.9048 0.285714C30.3782 0.285714 30.7619 0.66947 30.7619 1.14286V9.7404C30.7619 10.6184 30.1893 11.3937 29.3501 11.652L17.4509 15.3133C16.6296 15.566 15.7514 15.566 14.9301 15.3133L3.03092 11.652C2.19173 11.3937 1.61909 10.6184 1.61909 9.7404V1.14286C1.61909 0.66947 2.00284 0.285714 2.47623 0.285714H29.9048Z" fill="#FFD866" stroke="url(#paint0_linear_15763_28924)" stroke-width="0.571429"/>
<path d="M15.5745 7.23596V3.42413H14.2887V10.2857H15.5745V8.80594L16.0374 8.33749L17.2843 10.2857H18.7664L16.8647 7.45619L18.6191 5.45538H17.0745L15.82 6.92413L15.5745 7.23596Z" fill="#B77100"/>
<path fill-rule="evenodd" clip-rule="evenodd" d="M21.3066 10.375C20.9316 10.375 20.5953 10.3155 20.2977 10.1965C20.0001 10.0744 19.7471 9.90628 19.5387 9.69199C19.3334 9.47771 19.1757 9.22919 19.0655 8.94646C18.9554 8.66074 18.9004 8.35717 18.9004 8.03574V7.85717C18.9004 7.4911 18.9524 7.15628 19.0566 6.85271C19.1608 6.54913 19.3096 6.28574 19.503 6.06253C19.6995 5.83931 19.9376 5.66818 20.2173 5.54913C20.4971 5.42711 20.8126 5.3661 21.1637 5.3661C21.506 5.3661 21.8096 5.42265 22.0745 5.53574C22.3393 5.64884 22.5611 5.80955 22.7396 6.01788C22.9212 6.22622 23.0581 6.47622 23.1504 6.76788C23.2426 7.05657 23.2887 7.378 23.2887 7.73217V8.26788H20.2043C20.2172 8.3742 20.2395 8.47539 20.2709 8.57146C20.3274 8.73515 20.4063 8.87651 20.5075 8.99556C20.6117 9.11461 20.7367 9.20687 20.8825 9.27235C21.0313 9.33782 21.1995 9.37056 21.387 9.37056C21.6191 9.37056 21.8349 9.32592 22.0343 9.23663C22.2367 9.14437 22.4108 9.00598 22.5566 8.82146L23.1816 9.50003C23.0804 9.64586 22.942 9.78574 22.7664 9.91967C22.5938 10.0536 22.3855 10.1637 22.1414 10.25C21.8974 10.3334 21.6191 10.375 21.3066 10.375ZM20.2441 7.26788C20.2348 7.3143 20.2267 7.36192 20.2199 7.41074H22.0254V7.31253C22.0254 7.13396 21.9926 6.97473 21.9271 6.83485C21.8646 6.69199 21.7694 6.5789 21.6414 6.49556C21.5135 6.41223 21.3498 6.37056 21.1504 6.37056C20.9807 6.37056 20.8349 6.40776 20.7129 6.48217C20.5908 6.55657 20.4911 6.66074 20.4137 6.79467C20.3393 6.9286 20.2828 7.08634 20.2441 7.26788Z" fill="#B77100"/>
<path d="M25.2798 10.2857V6.85917C25.2979 6.82588 25.3172 6.79397 25.3379 6.76342C25.4212 6.6414 25.5254 6.54616 25.6504 6.4777C25.7783 6.40925 25.9286 6.37503 26.1012 6.37503C26.2679 6.37503 26.4078 6.40032 26.5209 6.45092C26.637 6.49854 26.7248 6.58187 26.7843 6.70092C26.8438 6.81997 26.8736 6.98663 26.8736 7.20092V10.2857H28.1682V7.20538C28.1682 6.8661 28.131 6.5789 28.0566 6.34378C27.9852 6.10866 27.881 5.91967 27.7441 5.77681C27.6102 5.63395 27.4495 5.52979 27.262 5.46431C27.0745 5.39884 26.8676 5.3661 26.6414 5.3661C26.3557 5.3661 26.0968 5.42116 25.8646 5.53128C25.6355 5.63842 25.4376 5.79467 25.2709 6.00003C25.262 6.01085 25.2532 6.0218 25.2445 6.03288L25.1995 5.45538H23.9941V10.2857H25.2798Z" fill="#B77100"/>
<path fill-rule="evenodd" clip-rule="evenodd" d="M8.92268 7.91967V7.82592C8.92268 7.47175 8.97327 7.14586 9.07446 6.84824C9.17565 6.54765 9.32297 6.28723 9.51643 6.06699C9.70988 5.84675 9.94797 5.67562 10.2307 5.5536C10.5135 5.4286 10.8379 5.3661 11.2039 5.3661C11.57 5.3661 11.8959 5.4286 12.1816 5.5536C12.4673 5.67562 12.7069 5.84675 12.9004 6.06699C13.0968 6.28723 13.2456 6.54765 13.3468 6.84824C13.448 7.14586 13.4986 7.47175 13.4986 7.82592V7.91967C13.4986 8.27086 13.448 8.59675 13.3468 8.89735C13.2456 9.19497 13.0968 9.45538 12.9004 9.6786C12.7069 9.89884 12.4688 10.07 12.1861 10.192C11.9033 10.314 11.5789 10.375 11.2129 10.375C10.8468 10.375 10.5209 10.314 10.2352 10.192C9.95244 10.07 9.71286 9.89884 9.51643 9.6786C9.32297 9.45538 9.17565 9.19497 9.07446 8.89735C8.97327 8.59675 8.92268 8.27086 8.92268 7.91967ZM10.2084 7.82592V7.91967C10.2084 8.12205 10.2262 8.31104 10.262 8.48663C10.2977 8.66223 10.3542 8.81699 10.4316 8.95092C10.512 9.08187 10.6161 9.18455 10.7441 9.25896C10.8721 9.33336 11.0283 9.37056 11.2129 9.37056C11.3914 9.37056 11.5447 9.33336 11.6727 9.25896C11.8007 9.18455 11.9033 9.08187 11.9807 8.95092C12.0581 8.81699 12.1146 8.66223 12.1504 8.48663C12.189 8.31104 12.2084 8.12205 12.2084 7.91967V7.82592C12.2084 7.62949 12.189 7.44497 12.1504 7.27235C12.1146 7.09675 12.0566 6.94199 11.9762 6.80806C11.8989 6.67116 11.7962 6.56401 11.6682 6.48663C11.5402 6.40925 11.3855 6.37056 11.2039 6.37056C11.0224 6.37056 10.8676 6.40925 10.7396 6.48663C10.6146 6.56401 10.512 6.67116 10.4316 6.80806C10.3542 6.94199 10.2977 7.09675 10.262 7.27235C10.2262 7.44497 10.2084 7.62949 10.2084 7.82592Z" fill="#B77100"/>
<path d="M7.22178 10.2857V4.83485H9.22178V3.78574H3.91821V4.83485H5.88696V10.2857H7.22178Z" fill="#B77100"/>
<defs>
<linearGradient id="paint0_linear_15763_28924" x1="16.1905" y1="1.15313" x2="16.1905" y2="17.2969" gradientUnits="userSpaceOnUse">
<stop stop-color="#FFE899"/>
<stop offset="1" stop-color="#FFC83F"/>
</linearGradient>
</defs>
</svg>
