<svg width="20" height="20" viewBox="0 0 20 20" fill="none" xmlns="http://www.w3.org/2000/svg">
<path d="M9.39089 10.7247C9.39087 9.43544 10.1747 8.68723 11.464 8.3112L12.8516 3.47258L11.464 2.43736L16.9923 2.43735L15.6103 3.47259L16.9923 8.31122C18.3168 8.76422 19.0655 9.43544 19.0655 10.7247C19.0655 10.7247 16.9837 10.7247 15.2647 10.7247L14.2282 17.6403L13.1739 10.7247C11.4549 10.7247 9.39089 10.7247 9.39089 10.7247Z" stroke="#5d42ff" stroke-width="1.5" stroke-linejoin="round"/>
<path fill-rule="evenodd" clip-rule="evenodd" d="M6.22266 7.84033C6.22266 8.11647 5.9988 8.34033 5.72266 8.34033H0.722656C0.446514 8.34033 0.222656 8.11647 0.222656 7.84033V7.34033C0.222656 7.06419 0.446514 6.84033 0.722656 6.84033H5.72266C5.9988 6.84033 6.22266 7.06419 6.22266 7.34033V7.84033Z" fill="#5d42ff"/>
<path fill-rule="evenodd" clip-rule="evenodd" d="M6.22266 11.7412C6.22266 12.0174 5.9988 12.2412 5.72266 12.2412H0.722656C0.446514 12.2412 0.222656 12.0174 0.222656 11.7412V11.2412C0.222656 10.9651 0.446514 10.7412 0.722656 10.7412H5.72266C5.9988 10.7412 6.22266 10.9651 6.22266 11.2412V11.7412Z" fill="#5d42ff"/>
<path fill-rule="evenodd" clip-rule="evenodd" d="M11.0493 15.6421C11.0493 15.9182 10.8255 16.1421 10.5493 16.1421H0.722656C0.446514 16.1421 0.222656 15.9182 0.222656 15.6421V15.1421C0.222656 14.8659 0.446514 14.6421 0.722656 14.6421H10.5493C10.8255 14.6421 11.0493 14.8659 11.0493 15.1421V15.6421Z" fill="#5d42ff"/>
</svg>
