<svg width="25" height="24" viewBox="0 0 25 24" fill="none" xmlns="http://www.w3.org/2000/svg">
<path fill-rule="evenodd" clip-rule="evenodd" d="M12.2622 22.2338C17.8541 22.2338 22.3872 17.7006 22.3872 12.1088C22.3872 6.51688 17.8541 1.98376 12.2622 1.98376C6.67032 1.98376 2.13721 6.51688 2.13721 12.1088C2.13721 17.7006 6.67032 22.2338 12.2622 22.2338ZM10.2165 6.68192L6.88682 9.06029C6.679 9.20873 6.679 9.51758 6.88682 9.66602L10.2165 12.0444C10.4629 12.2203 10.8051 12.0443 10.8051 11.7415V6.98479C10.8051 6.68206 10.4629 6.50596 10.2165 6.68192ZM14.4954 17.3181L17.8251 14.9398C18.0329 14.7913 18.0329 14.4825 17.8251 14.334L14.4954 11.9557C14.249 11.7797 13.9069 11.9558 13.9069 12.2585V17.0153C13.9069 17.318 14.249 17.4941 14.4954 17.3181ZM14.2169 8.58384H10.8052V10.1346H14.4518C15.2944 10.1346 16.1024 10.4693 16.6982 11.0651L16.5573 10.5241C16.292 9.46306 15.3106 8.58384 14.2169 8.58384ZM13.9068 15.4162H10.495C9.40129 15.4162 8.41988 14.537 8.15462 13.4759L8.0137 12.9349C8.60948 13.5307 9.41753 13.8654 10.2601 13.8654H13.9068V15.4162Z" fill="#c0c3c7"/>
</svg>
