<?xml version="1.0" encoding="UTF-8"?>
<svg width="20px" height="20px" viewBox="1 0 20 20" version="1.1" xmlns="http://www.w3.org/2000/svg" xmlns:xlink="http://www.w3.org/1999/xlink">
    <title>Transfer</title>
    <g id="Icon" stroke="none" stroke-width="1" fill="none" fill-rule="evenodd">
        <g id="Special" transform="translate(-392.000000, -78.000000)" fill="#5d42ff" fill-rule="nonzero">
            <g id="Transfer" transform="translate(392.993227, 78.000000)">
                <path d="M10,0 C15.5228475,0 20,4.4771525 20,10 C20,15.5228475 15.5228475,20 10,20 C4.4771525,20 0,15.5228475 0,10 C0,4.4771525 4.4771525,0 10,0 Z M10,1 C5.02943725,1 1,5.02943725 1,10 C1,14.9705627 5.02943725,19 10,19 C14.9705627,19 19,14.9705627 19,10 C19,5.02943725 14.9705627,1 10,1 Z M14.3929619,10.8259985 C14.7102147,10.8259985 14.9673989,11.0831828 14.9673989,11.4004355 C14.9673989,11.7000631 14.7379969,11.9461111 14.4452474,11.9725249 L14.3929619,11.9748725 L7.2525,11.9746429 L9.20945129,13.3480384 C9.43857214,13.5088582 9.5143835,13.8066977 9.40388657,14.0528759 L9.37929329,14.1013668 L9.34967314,14.1481446 C9.26223039,14.2729823 9.12873089,14.3579204 8.9786035,14.3842349 C8.84724204,14.4072601 8.71258682,14.3837475 8.5974905,14.3188203 L8.54942757,14.2884737 L5.21521764,11.9485064 C5.168725,11.9158866 5.12778654,11.8768254 5.11103089,11.8505343 C4.97324025,11.74187 4.892896,11.5760089 4.892896,11.4004355 C4.892896,11.2480854 4.95341693,11.1019751 5.06114479,10.9942473 C5.15540661,10.8999854 5.27905504,10.8418664 5.410557,10.8288095 L5.46733304,10.8259985 L14.3929619,10.8259985 Z M11.263928,5.68229521 L11.310866,5.71213646 L14.6451721,8.05209339 C14.6913381,8.08455861 14.7324792,8.12363621 14.7493049,8.15003129 C14.887057,8.25877379 14.9673989,8.42463421 14.9673989,8.60017561 C14.9673989,8.89980321 14.7379969,9.14585114 14.4452474,9.17226504 L14.3929619,9.17461257 L5.46733304,9.17461257 C5.15005875,9.17461257 4.89285714,8.91741096 4.89285714,8.60013668 C4.89285714,8.30048875 5.12227464,8.05442414 5.41504404,8.02800846 L5.46733304,8.02566079 L12.6071429,8.02535714 L10.6510847,6.65266346 C10.513132,6.55639882 10.4258804,6.40581607 10.4085518,6.24206182 L10.4053917,6.18704568 L10.4075694,6.13139254 C10.4240361,5.94364504 10.5313322,5.77708793 10.6927651,5.68399757 L10.7381069,5.66047004 C10.9076666,5.58182468 11.1036836,5.59101429 11.263928,5.68229521 Z" id="Shape"></path>
            </g>
        </g>
    </g>
</svg>
