<?xml version="1.0" encoding="UTF-8"?>
<svg width="20px" height="20px" viewBox="1 0 20 20" version="1.1" xmlns="http://www.w3.org/2000/svg" xmlns:xlink="http://www.w3.org/1999/xlink">
    <title>Transaction</title>
    <g id="Icon" stroke="none" stroke-width="1" fill="none" fill-rule="evenodd">
        <g id="Special" transform="translate(-352.000000, -78.000000)" fill="#5d42ff" fill-rule="nonzero">
            <g id="Transfer" transform="translate(352.993227, 78.000000)">
                <path d="M10,0 C15.5228475,0 20,4.4771525 20,10 C20,15.5228475 15.5228475,20 10,20 C4.4771525,20 0,15.5228475 0,10 C0,4.4771525 4.4771525,0 10,0 Z M10,1 C5.02943725,1 1,5.02943725 1,10 C1,14.9705627 5.02943725,19 10,19 C14.9705627,19 19,14.9705627 19,10 C19,5.02943725 14.9705627,1 10,1 Z M13.9737765,12.2902361 C14.3206309,12.2902361 14.601812,12.5714172 14.601812,12.9182716 C14.601812,13.2651261 14.3206309,13.5463071 13.9737765,13.5463071 L10.2801404,13.5463071 C9.93328593,13.5463071 9.65210486,13.2651261 9.65210486,12.9182716 C9.65210486,12.5714172 9.93328593,12.2902361 10.2801404,12.2902361 L13.9737765,12.2902361 Z M7.04672561,9.77815496 L8.21709804,10.947912 C8.49633293,11.2265689 8.49645186,11.6788295 8.21757929,11.9578488 C8.21750739,11.9579207 8.2174355,11.9579926 8.21714793,11.9578488 L7.04720536,13.1274074 C6.80184125,13.3726909 6.40414175,13.3727847 6.15866204,13.1276168 C5.91339425,12.8826606 5.91314164,12.4852556 6.15809782,12.2399879 L6.15837721,12.2397083 L6.94522068,11.4528555 L6.15827243,10.6658979 C5.91316193,10.4207845 5.91316429,10.0233795 6.15827771,9.77826896 L6.15845261,9.77809411 C6.40380682,9.53293607 6.801405,9.53296332 7.04672561,9.77815496 Z M13.9737765,9.35940379 C14.3206309,9.35940379 14.601812,9.64058486 14.601812,9.98743929 C14.601812,10.3342937 14.3206309,10.6154748 13.9737765,10.6154748 L10.2801404,10.6154748 C9.93328593,10.6154748 9.65210486,10.3342937 9.65210486,9.98743929 C9.65210486,9.64058486 9.93328593,9.35940379 10.2801404,9.35940379 L13.9737765,9.35940379 Z M14.0148216,6.42857143 C14.3616761,6.42857143 14.6428571,6.7097525 14.6428571,7.05660693 C14.6428571,7.40346136 14.3616761,7.68464243 14.0148216,7.68464243 L6.47550846,7.68464243 C6.12865404,7.68464243 5.84747296,7.40346136 5.84747296,7.05660693 C5.84747296,6.7097525 6.12865404,6.42857143 6.47550846,6.42857143 L14.0148216,6.42857143 Z" id="Shape"></path>
            </g>
        </g>
    </g>
</svg>
