<svg width="16" height="16" viewBox="0 0 16 16" fill="none" xmlns="http://www.w3.org/2000/svg">
<g id="Type=tron">
<path id="Ellipse 2662" d="M16 8C16 12.4183 12.4183 16 8 16C3.58172 16 0 12.4183 0 8C0 3.58172 3.58172 0 8 0C12.4183 0 16 3.58172 16 8Z" fill="#FF060A"/>
<path id="Vector" d="M12.2789 6.58865C11.845 6.18796 11.2447 5.57607 10.7557 5.1421L10.7268 5.12185C10.6787 5.08319 10.6244 5.05288 10.5662 5.03216C9.38728 4.81228 3.90049 3.78668 3.79345 3.79969C3.76345 3.8039 3.73478 3.81477 3.70955 3.83152L3.68206 3.85322C3.64822 3.88759 3.62252 3.92911 3.60684 3.97473L3.59961 3.99353V4.09624V4.11215C4.21729 5.83211 6.65618 11.4664 7.13644 12.7886C7.16537 12.8783 7.22034 13.049 7.32304 13.0576H7.34619C7.40116 13.0576 7.6355 12.7481 7.6355 12.7481C7.6355 12.7481 11.8247 7.66778 12.2486 7.12677C12.3034 7.06013 12.3519 6.98845 12.3932 6.91268C12.4038 6.8534 12.3988 6.7924 12.3788 6.73561C12.3587 6.67883 12.3244 6.6282 12.2789 6.58865ZM8.71029 7.1803L10.4982 5.69758L11.547 6.66387L8.71029 7.1803ZM8.01594 7.08338L4.93767 4.56058L9.91816 5.47915L8.01594 7.08338ZM8.29368 7.74445L11.4443 7.23671L7.84236 11.5764L8.29368 7.74445ZM4.51962 4.81228L7.75846 7.56074L7.28977 11.5793L4.51962 4.81228Z" fill="white"/>
</g>
</svg>
