<svg width="28" height="28" viewBox="0 0 28 28" fill="none" xmlns="http://www.w3.org/2000/svg">
<path fill-rule="evenodd" clip-rule="evenodd" d="M20.4581 11.9097C20.4581 16.0652 17.2942 20.86 11.5078 20.86C9.73341 20.86 8.07642 20.3381 6.69995 19.4379C6.94785 19.4705 7.19574 19.4836 7.45016 19.4836C8.92449 19.4836 10.2814 18.9812 11.3578 18.1397C9.9813 18.1136 8.82011 17.2068 8.42217 15.9543C8.61788 15.9934 8.81358 16.013 9.01581 16.013C9.30285 16.013 9.58336 15.9739 9.84431 15.9021C8.4026 15.6086 7.31969 14.343 7.31969 12.8165V12.7773C7.74372 13.0122 8.22646 13.1557 8.74183 13.1687C7.89376 12.6077 7.33926 11.6422 7.33926 10.5528C7.33926 9.97873 7.49582 9.43727 7.76329 8.9741C9.3159 10.879 11.6318 12.1315 14.2477 12.262C14.189 12.0336 14.1629 11.7923 14.1629 11.5444C14.1629 9.80911 15.572 8.40002 17.3073 8.40002C18.214 8.40002 19.0295 8.77839 19.6036 9.39161C20.3211 9.24809 20.9931 8.98714 21.5998 8.62835C21.3649 9.36551 20.8691 9.97873 20.2168 10.3701C20.8561 10.2919 21.4628 10.1222 22.0238 9.87435C21.5998 10.5071 21.0648 11.0616 20.4516 11.5052C20.4581 11.6357 20.4581 11.7727 20.4581 11.9097Z" fill="#515A62"/>
</svg>
