<svg width="20" height="20" viewBox="0 0 20 20" fill="none" xmlns="http://www.w3.org/2000/svg">
<path d="M11.0133 1.2275C11.6273 0.688802 12.5899 1.12477 12.5899 1.94156L12.5905 18.0583C12.5905 18.8752 11.6277 19.3112 11.0138 18.7723L5.71451 14.1201H1.86035C1.44614 14.1201 1.11035 13.7843 1.11035 13.3701V6.62717C1.11035 6.21295 1.44614 5.87717 1.86035 5.87717H5.71396L11.0133 1.2275ZM11.0899 3.15582L6.49099 7.19093C6.35417 7.31098 6.17836 7.37717 5.99635 7.37717H2.61035V12.6201H5.997C6.17909 12.6201 6.35496 12.6864 6.4918 12.8065L11.0905 16.8436L11.0899 3.15582ZM15.3963 5.11881C15.6457 4.78808 16.116 4.72214 16.4467 4.97152C17.9336 6.09271 18.8888 7.93543 18.8888 9.99989C18.8888 12.0644 17.9336 13.9071 16.4467 15.0283C16.116 15.2776 15.6457 15.2117 15.3963 14.881C15.1469 14.5503 15.2129 14.08 15.5436 13.8306C16.649 12.997 17.3888 11.6006 17.3888 9.99989C17.3888 8.39916 16.649 7.00273 15.5436 6.16919C15.2129 5.91981 15.1469 5.44953 15.3963 5.11881ZM14.6413 6.56722C14.3106 6.31784 13.8403 6.38378 13.5909 6.71451C13.3415 7.04524 13.4075 7.51551 13.7382 7.76489C14.3767 8.24635 14.8111 9.05934 14.8111 9.99989C14.8111 10.9404 14.3767 11.7534 13.7382 12.2349C13.4075 12.4843 13.3415 12.9545 13.5909 13.2853C13.8403 13.616 14.3106 13.6819 14.6413 13.4326C15.6613 12.6635 16.3111 11.4042 16.3111 9.99989C16.3111 8.59561 15.6613 7.33633 14.6413 6.56722Z" fill="#55585e"/>
</svg>
