<svg width="20" height="21" viewBox="0 0 20 21" fill="none" xmlns="http://www.w3.org/2000/svg">
<path d="M12.1226 1.10878C12.3978 0.939264 12.7506 0.965055 12.9981 1.17279L18.6649 5.92774C18.9122 6.1353 18.999 6.47789 18.8802 6.77815C18.7614 7.07842 18.4638 7.26896 18.1414 7.25113L16.35 7.15207L15.1948 9.73954L13.9924 8.75332L15.1908 6.06894C15.3176 5.78494 15.6066 5.60867 15.9171 5.62584L15.9753 5.62906L13.7648 3.77423L13.7779 3.82972C13.8495 4.13322 13.7259 4.44936 13.4673 4.62372L10.9926 6.29287L9.78208 5.30002L12.199 3.66987L11.7861 1.91953C11.7119 1.605 11.8475 1.2783 12.1226 1.10878ZM12.3874 12.6237L14.6659 14.4926C14.6742 14.5701 14.68 14.6477 14.6834 14.7254C14.7223 15.6356 14.4126 16.4779 13.7544 17.2623C13.6265 17.4147 13.4434 17.5101 13.2452 17.5274C13.047 17.5447 12.8501 17.4826 12.6977 17.3548L9.29666 14.5009L2.76996 20.2703C2.49205 20.516 2.0763 20.5216 1.79186 20.2835C1.50742 20.0455 1.43973 19.6352 1.6326 19.3184L6.16505 11.8732L2.78129 9.03391C2.46399 8.76766 2.42221 8.29428 2.68845 7.97697C3.34696 7.19216 4.14449 6.73329 5.04958 6.60524L7.37556 8.51302C7.30281 8.5044 7.23081 8.48505 7.16194 8.45476C6.41717 8.12721 5.78867 8.01706 5.26546 8.08964C4.96518 8.1313 4.67409 8.23645 4.3929 8.42809L7.62281 11.1383C7.90668 11.3765 7.97404 11.7863 7.78135 12.1028L5.49374 15.8606L8.78719 12.9493C9.06537 12.7034 9.48159 12.698 9.76601 12.9367L13.0154 15.6633C13.1497 15.3653 13.1971 15.0779 13.1847 14.7896C13.1625 14.271 12.9432 13.664 12.4886 12.9108C12.4348 12.8218 12.4009 12.724 12.3874 12.6237ZM3.3567 3.46781L17.5928 15.4L18.5601 14.2484L4.32398 2.31625L3.3567 3.46781Z" fill="#55585e"/>
</svg>
