<?xml version="1.0" encoding="UTF-8"?>
<svg width="16px" height="16px" viewBox="0 0 16 16" version="1.1" xmlns="http://www.w3.org/2000/svg" xmlns:xlink="http://www.w3.org/1999/xlink">
    <title>Wallet</title>
    <g id="Icon" stroke="none" stroke-width="1" fill="none" fill-rule="evenodd">
        <g id="Line" transform="translate(-336.000000, -120.000000)">
            <g id="Wallet" transform="translate(336.000000, 120.000046)">
                <rect id="Rectangle" x="0" y="-1.42108547e-14" width="16" height="16"></rect>
                <path d="M13.3099544,1 C14.2431976,1 15,1.75663343 15,2.69004563 L15,2.69004563 L15,12.7740409 C15,13.7072841 14.2431976,14.4640866 13.3099544,14.4640866 L13.3099544,14.4640866 L2.69004563,14.4640866 C1.75680243,14.4640866 1,13.7072841 1,12.7740409 L1,12.7740409 L1,2.69004563 C1,1.75680243 1.75680243,1 2.69004563,1 L2.69004563,1 L13.3099544,1 Z M13.3635558,2.12701734 L2.63644419,2.12701734 C2.35408889,2.12701734 2.12431244,2.35679379 2.12431244,2.63914909 L2.12431244,2.63914909 L2.12431244,12.8249375 C2.12431244,13.1072928 2.35408889,13.3370692 2.63644419,13.3370692 L2.63644419,13.3370692 L13.3635558,13.3370692 C13.6459111,13.3370692 13.8756876,13.1072928 13.8756876,12.8249375 L13.8756876,12.8249375 L13.8756876,10.7296358 L10.5990687,10.7296358 C8.94351739,10.7296358 7.60156149,9.38750913 7.60156149,7.7319579 C7.60156149,6.07640668 8.9436881,4.73445078 10.5990687,4.73445078 L10.5990687,4.73445078 L13.8756876,4.73445078 L13.8756876,2.63914909 C13.8756876,2.35679379 13.6459111,2.12701734 13.3635558,2.12701734 L13.3635558,2.12701734 Z M13.8756876,5.92942486 L10.5990687,5.92942486 C9.60502089,5.92942486 8.79653557,6.73791018 8.79653557,7.7319579 C8.79653557,8.72600563 9.6051916,9.53466166 10.5990687,9.53466166 L10.5990687,9.53466166 L13.8756876,9.53466166 L13.8756876,5.92942486 Z M11.336197,7.13464157 C11.6661799,7.13464157 11.933684,7.40214563 11.933684,7.73212862 C11.933684,8.0621116 11.6661799,8.32961566 11.336197,8.32961566 C11.006214,8.32961566 10.7387099,8.0621116 10.7387099,7.73212862 C10.7387099,7.40214563 11.006214,7.13464157 11.336197,7.13464157 Z" id="Shape" fill="#55585e" fill-rule="nonzero"></path>
            </g>
        </g>
    </g>
</svg>
