<svg width="16" height="16" viewBox="0 0 16 16" fill="none" xmlns="http://www.w3.org/2000/svg">
<path d="M7.14308 1.98462C7.53168 1.33846 8.4684 1.33846 8.857 1.98462L15.2077 12.5443C15.6085 13.2108 15.1285 14.0597 14.3507 14.0597H1.64937C0.871618 14.0597 0.391573 13.2108 0.792414 12.5443L7.14308 1.98462ZM8.42488 10.1349C8.53533 10.1349 8.62488 10.0454 8.62488 9.93495V5.83495C8.62488 5.72449 8.53533 5.63495 8.42488 5.63495H7.57488C7.46442 5.63495 7.37488 5.72449 7.37488 5.83495V9.93495C7.37488 10.0454 7.46442 10.1349 7.57488 10.1349H8.42488ZM7.99998 12.635C8.49703 12.635 8.89998 12.232 8.89998 11.735C8.89998 11.2379 8.49703 10.835 7.99998 10.835C7.50292 10.835 7.09998 11.2379 7.09998 11.735C7.09998 12.232 7.50292 12.635 7.99998 12.635Z" fill="#FF9417"/>
</svg>
