<svg viewBox="0 0 16 16" version="1.1">\n <g id="tousodkieq" stroke="none" stroke-width="1" fill="none" fill-rule="evenodd">\n <g id="hrhpxqrsvs" transform="translate(-255.000000, -134.000000)">\n <g id="hbssozkvbb" transform="translate(255.000000, 134.000000)">\n <rect id="ojqqkfddve" x="0" y="0" width="16" height="16"></rect>\n <path d="M8,0 C12.4178571,0 16,3.58214286 16,8 C16,12.4178571 12.4178571,16 8,16 C3.58214286,16 0,12.4178571 0,8 C0,3.58214286 3.58214286,0 8,0 Z M8,1.35714286 C4.33214286,1.35714286 1.35714286,4.33214286 1.35714286,8 C1.35714286,11.6678571 4.33214286,14.6428571 8,14.6428571 C11.6678571,14.6428571 14.6428571,11.6678571 14.6428571,8 C14.6428571,4.33214286 11.6678571,1.35714286 8,1.35714286 Z M8,10.2857143 C8.47338693,10.2857143 8.85714286,10.6694702 8.85714286,11.1428571 C8.85714286,11.6162441 8.47338693,12 8,12 C7.52661307,12 7.14285714,11.6162441 7.14285714,11.1428571 C7.14285714,10.6694702 7.52661307,10.2857143 8,10.2857143 Z M8.42857143,4 C8.50714286,4 8.57142857,4.06428571 8.57142857,4.14285714 L8.57142857,4.14285714 L8.57142857,9 C8.57142857,9.07857143 8.50714286,9.14285714 8.42857143,9.14285714 L8.42857143,9.14285714 L7.57142857,9.14285714 C7.49285714,9.14285714 7.42857143,9.07857143 7.42857143,9 L7.42857143,9 L7.42857143,4.14285714 C7.42857143,4.06428571 7.49285714,4 7.57142857,4 L7.57142857,4 L8.42857143,4 Z" id="vrfbpncwip" fill="#55585e" fill-rule="nonzero"></path>\n </g>\n </g>\n </g>\n </svg>
