
<svg width="48px" height="48px" viewBox="0 0 48 48" version="1.1" xmlns="http://www.w3.org/2000/svg" xmlns:xlink="http://www.w3.org/1999/xlink">
    <title>gbufhcjmum</title>
    <g id="idykmzthxc" stroke="none" stroke-width="1" fill="none" fill-rule="evenodd">
        <g id="gblbcowezt" transform="translate(-156.000000, -209.000000)">
            <g id="iydhebrrnl" transform="translate(20.000000, 185.000000)">
                <g id="pynurxgdzh" transform="translate(160.000000, 48.000000) scale(1, -1) translate(-160.000000, -48.000000) translate(136.000000, 24.000000)">
                    <rect id="rblmjnckdu" x="0" y="0" width="48" height="48"></rect>
                    <path d="M24,2.9985 C35.598,2.9985 45,12.4035 45,24.0015 C45,35.5965 35.598,44.9985 24,44.9985 C12.402,44.9985 3,35.5965 3,24.0015 C3,12.4035 12.402,2.9985 24,2.9985 Z M24,6 C14.0750769,6 6.00158242,14.0734945 6.00158242,24.0015824 C6.00158242,33.9265055 14.0750769,42 24,42 C33.9249231,42 41.9984176,33.9265055 41.9984176,24.0015824 C41.9984176,14.0734945 33.9249231,6 24,6 Z M24,18.1464 C25.086,18.1464 25.8602407,19.0284 25.8602407,20.1144 L25.8602407,33.6354 C25.8602407,34.7244 25.086,35.6064 24,35.6064 C22.914,35.6064 22.1730221,34.7244 22.1730221,33.6354 L22.1730221,20.1144 C22.1730221,19.0284 22.914,18.1464 24,18.1464 Z M24,12.3939 C25.083,12.3939 25.959,13.2729 25.959,14.3559 C25.959,15.4359 25.083,16.3149 24,16.3149 C22.917,16.3149 22.041,15.4359 22.041,14.3559 C22.041,13.2729 22.917,12.3939 24,12.3939 Z" id="bjypzvivvf" fill="#E7383A"></path>
                </g>
            </g>
        </g>
    </g>
</svg>