<svg width="33" height="32" viewBox="0 0 33 32" fill="none" xmlns="http://www.w3.org/2000/svg">
<g clip-path="url(#clip0_12588_2891)">
<circle cx="16.5" cy="16" r="16" fill="#5d42ff"/>
<g clip-path="url(#clip1_12588_2891)">
<path d="M11.8334 9.42761C10.5662 9.42761 9.53894 10.4549 9.53894 11.7221V20.2776C9.53894 21.5448 10.5662 22.5721 11.8334 22.5721L14.97 22.5721L14.9834 22.5721V22.5719C15.3853 22.5648 15.7089 22.2368 15.7089 21.8332C15.7089 21.4296 15.3853 21.1015 14.9834 21.0944V21.0943H14.97H11.8334C11.3824 21.0943 11.0167 20.7286 11.0167 20.2776V11.7221C11.0167 11.271 11.3824 10.9054 11.8334 10.9054H21.1667C21.6178 10.9054 21.9834 11.271 21.9834 11.7221V13.2698C21.9834 13.2724 21.9833 13.275 21.9833 13.2776C21.9833 13.2802 21.9834 13.2828 21.9834 13.2854V13.3165H21.9844C22.0046 13.7065 22.3272 14.0165 22.7222 14.0165C23.1173 14.0165 23.4399 13.7065 23.4601 13.3165H23.4612V11.7221C23.4612 10.4549 22.4339 9.42761 21.1667 9.42761H11.8334ZM19.9563 15.1105C20.2297 14.8371 20.6729 14.8371 20.9462 15.1105L23.2561 17.4204C23.3942 17.5585 23.4626 17.74 23.4611 17.921L23.4612 17.9283C23.4612 17.9664 23.4581 18.0037 23.4523 18.0401C23.4318 18.1852 23.3658 18.3252 23.2542 18.4368L20.9443 20.7467C20.6709 21.02 20.2277 21.02 19.9543 20.7467C19.681 20.4733 19.681 20.0301 19.9543 19.7567L21.0827 18.6283H16.3834C15.9968 18.6283 15.6834 18.3149 15.6834 17.9283C15.6834 17.5417 15.9968 17.2283 16.3834 17.2283H21.0842L19.9563 16.1005C19.6829 15.8271 19.6829 15.3839 19.9563 15.1105Z" fill="white"/>
</g>
</g>
<defs>
<clipPath id="clip0_12588_2891">
<rect width="32" height="32" fill="white" transform="translate(0.5)"/>
</clipPath>
<clipPath id="clip1_12588_2891">
<rect width="14" height="14" fill="white" transform="translate(9.5 9)"/>
</clipPath>
</defs>
</svg>
