<svg width="128" height="134" viewBox="0 0 128 134" fill="none" xmlns="http://www.w3.org/2000/svg">
<path fill-rule="evenodd" clip-rule="evenodd" d="M59.7792 16.0063C48.0051 21.1711 40.6002 33.8029 44.9111 46.3556C47.5179 53.9467 52.7711 59.356 60.5616 62.1208C74.1845 66.9565 88.4056 56.3241 86.8106 42.5037C86.1335 36.6298 83.1505 32.1571 77.0923 30.3064C72.5858 28.9296 68.273 29.5729 64.754 32.8474C61.7672 35.6235 60.6349 39.0429 61.8312 43.0171C62.4913 45.2027 64.0769 46.5625 66.2342 47.2114C68.1282 47.7794 69.5934 46.9575 70.7219 45.3851C70.4943 45.0052 70.2949 44.5895 70.0185 44.2322C68.5458 42.3287 69.7401 39.5601 71.0134 38.4072C72.7438 36.8404 75.5463 36.6975 77.3876 37.9953C80.3744 40.0962 81.7323 45.6842 80.1092 49.1901C77.3932 55.0545 70.4097 58.4682 64.0016 56.8075C53.8846 54.1856 48.8966 44.1964 52.1617 34.5402C56.5008 21.7091 71.0849 16.0966 83.5135 22.2507C93.561 27.2237 97.2907 35.9075 96.8901 46.2447C96.2336 63.2644 79.0597 75.8905 61.8387 72.6084C45.1368 69.426 32.7345 53.4332 33.6242 38.3094C33.9514 32.7252 35.1947 27.4964 38.0517 22.6984C45.4848 10.2209 57.0632 4.34889 71.5457 3.39906C75.3582 3.14891 79.2026 3.36144 82.8345 3.36333C82.6352 3.27493 82.18 3.05111 81.706 2.87431C74.6341 0.226081 67.3251 -0.618418 59.8356 0.449901C55.1918 1.02168 50.9053 2.2762 47.0082 4.07052C46.9368 4.08181 46.8521 4.10626 46.7487 4.14952C44.9957 4.89621 44.7023 3.18088 44.0798 2.66177C43.4741 2.15771 43.5531 2.78403 43.5531 2.78403C44.0816 5.29871 42.7575 6.31249 42.5789 6.43662C41.4748 7.11937 40.4159 7.85666 39.3927 8.63157C39.3626 8.64473 39.34 8.64473 39.3081 8.65978C36.8912 9.76195 35.8868 7.89992 34.7752 7.33378C33.5997 6.73568 34.0436 7.71748 34.0436 7.71748C35.4994 10.6102 34.243 13.0854 34.0079 13.5029C32.9772 14.6145 32.0123 15.7825 31.1095 16.9957C31.0154 17.0559 30.9233 17.1123 30.8161 17.2082C28.4424 19.3542 26.5955 17.6558 25.1284 17.3361C23.5109 16.9863 24.4268 18.0452 24.4268 18.0452C27.4193 21.1091 26.4732 24.7936 26.4732 24.7936L26.4807 24.7974C22.6363 33.1051 21.2557 42.72 22.8526 52.3724C28.102 84.1004 67.1276 99.085 92.7089 78.6459C101.017 72.0084 106.78 59.2225 107.387 48.6446C107.82 41.1325 105.497 34.3145 101.214 28.1415C92.1278 15.0434 73.9663 9.78264 59.7792 16.0063Z" fill="#5B8EF4"/>
<path d="M28.688 114.933C33.153 114.933 36.7795 118.549 36.7795 123C36.7795 127.451 33.153 131.067 28.688 131.067C24.223 131.067 20.5965 127.451 20.5965 123C20.5965 118.549 24.223 114.933 28.688 114.933ZM28.688 112C22.5973 112 17.6542 116.928 17.6542 123C17.6542 129.072 22.5973 134 28.688 134C34.7787 134 39.7219 129.072 39.7219 123C39.7219 116.928 34.7787 112 28.688 112Z" fill="#2F3239"/>
<path d="M108.875 114.933C109.684 114.933 110.346 114.273 110.346 113.467V112H95.6341V134H108.875C109.684 134 110.346 133.34 110.346 132.533V131.067H98.5764V124.467H108.875V121.533H98.5764V114.933H108.875Z" fill="#2F3239"/>
<path d="M69.1454 112H60.3184V114.933H66.2031V134H67.6743C68.4834 134 69.1454 133.34 69.1454 132.533V114.933H73.559C74.3681 114.933 75.0302 114.273 75.0302 113.467V112H69.1454Z" fill="#2F3239"/>
<path d="M7.3559 112H0V134H1.47118C2.28033 134 2.94236 133.34 2.94236 132.533V126.667H7.3559C11.4164 126.667 14.7118 123.381 14.7118 119.333C14.7118 115.285 11.4164 112 7.3559 112ZM7.3559 123.733H2.94236V114.933H7.3559C9.7907 114.933 11.7694 116.906 11.7694 119.333C11.7694 121.761 9.7907 123.733 7.3559 123.733Z" fill="#2F3239"/>
<path d="M57.376 119.333C57.376 115.285 54.0806 112 50.0201 112H42.6642V134H44.1354C44.9445 134 45.6066 133.34 45.6066 132.533V126.667H49.7332L53.9776 134H57.376L52.808 126.117C55.4855 125.024 57.376 122.399 57.376 119.333ZM45.6066 114.933H50.0201C52.4549 114.933 54.4336 116.906 54.4336 119.333C54.4336 121.761 52.4549 123.733 50.0201 123.733H45.6066V114.933Z" fill="#2F3239"/>
<path d="M89.2933 134H92.6917L85.2034 121.079L90.4628 112H87.0644L80.9149 122.611V112H77.9725V134H79.4437C80.2529 134 80.9149 133.34 80.9149 132.533V128.478L83.5042 124.005L89.2933 133.993V134Z" fill="#2F3239"/>
<path d="M128 112H124.602L120.644 118.835L116.687 112H113.288L119.173 122.164V134H120.644C121.453 134 122.115 133.34 122.115 132.533V122.164L128 112Z" fill="#2F3239"/>
</svg>
