<svg width="24" height="24" viewBox="0 0 24 24" fill="none" xmlns="http://www.w3.org/2000/svg">
<path d="M12 23C18.1 23 23 18.1 23 12C23 5.9 18.1 1 12 1C5.9 1 1 5.9 1 12C1 18.1 5.9 23 12 23ZM16 6.1C16.2 6 16.4 6 16.6 6C17.4 6 18 6.6 18 7.4C18 7.6 18 7.8 17.9 8L15.1 14.1C14.9 14.5 14.6 14.9 14.1 15.1L8 17.9C7.8 18 7.6 18 7.4 18C6.6 18 6 17.4 6 16.6C6 16.4 6 16.2 6.1 16L8.9 9.9C9.1 9.5 9.4 9.1 9.9 8.9L16 6.1ZM13 12C13 12.6 12.6 13 12 13C11.4 13 11 12.6 11 12C11 11.4 11.4 11 12 11C12.6 11 13 11.4 13 12Z" fill="white"/>
</svg>
