<svg width="64" height="64" viewBox="0 0 64 64" fill="none" xmlns="http://www.w3.org/2000/svg">
<rect width="64" height="64" rx="32" fill="#8B60F7"/>
<path fill-rule="evenodd" clip-rule="evenodd" d="M41.2287 18.9631H43.1309V30.297H41.2287V18.9631ZM18.9766 20.9661C19.4349 20.5162 19.4418 19.78 18.9919 19.3216C18.5419 18.8633 17.8057 18.8565 17.3474 19.3064C16.8891 19.7563 16.8823 20.4926 17.3322 20.9509C17.7821 21.4092 18.5183 21.4161 18.9766 20.9661ZM23.361 25.1903C23.6634 23.9151 22.8747 22.6362 21.5995 22.3338C20.3243 22.0314 19.0454 22.82 18.743 24.0953C18.4407 25.3705 19.2293 26.6494 20.5045 26.9518C21.7797 27.2542 23.0586 26.4655 23.361 25.1903ZM18.9925 28.3291C19.4424 28.7875 19.4356 29.5237 18.9773 29.9736C18.519 30.4236 17.7827 30.4167 17.3328 29.9584C16.8829 29.5001 16.8897 28.7638 17.3481 28.3139C17.8064 27.864 18.5426 27.8708 18.9925 28.3291ZM12.8191 23.4028C12.1795 22.9405 11.9272 22.108 12.2026 21.3683C12.4709 20.6408 13.1844 20.1753 13.9583 20.2228C14.7322 20.2703 15.3834 20.8196 15.5607 21.5744L15.5702 21.6103L15.591 21.6614L15.6042 21.7106C15.7279 22.1196 16.0104 22.462 16.3886 22.661C16.7667 22.8601 17.2089 22.8991 17.6161 22.7694C17.77 22.7137 17.9386 22.7137 18.0926 22.7694C18.4581 22.9042 18.6451 23.3097 18.5104 23.6752C18.3757 24.0407 17.9702 24.2278 17.6047 24.0931C17.4593 24.0391 17.3361 23.9379 17.2549 23.8056L17.2266 23.7622C17.0391 23.4758 16.7637 23.2582 16.4419 23.142C15.9394 22.9558 15.377 23.0339 14.9443 23.3499C14.3284 23.8435 13.4588 23.8652 12.8191 23.4028ZM12.8259 25.8842C12.1876 26.3455 11.9344 27.1754 12.2064 27.9145C12.4769 28.6387 13.189 29.1009 13.9606 29.053C14.7321 29.0052 15.3817 28.4586 15.5607 27.7065L15.5702 27.6706C15.5737 27.654 15.5781 27.6376 15.5834 27.6214L15.5966 27.5723C15.7199 27.1634 16.002 26.821 16.3799 26.6219C16.7577 26.4229 17.1997 26.3838 17.6066 26.5134C17.7599 26.5692 17.9279 26.5692 18.0812 26.5134C18.3176 26.4263 18.4896 26.2196 18.5324 25.9713C18.5751 25.7229 18.4821 25.4706 18.2884 25.3094C18.0948 25.1483 17.8298 25.1026 17.5934 25.1898C17.4475 25.2431 17.3242 25.3445 17.2436 25.4772L17.2171 25.5207C16.9771 25.8841 16.5991 26.1336 16.1706 26.2115C15.7422 26.2893 15.3005 26.1887 14.9481 25.9329C14.3316 25.4427 13.4642 25.4228 12.8259 25.8842ZM32.5007 22.0812H33.9264V23.0734C34.8584 22.2755 36.1289 21.9116 37.3987 22.1632C39.3219 22.5443 40.7079 24.2313 40.7088 26.192C40.7084 26.431 40.6869 26.6696 40.6445 26.9048H39.181L39.1816 26.9029H34.5342C34.8635 27.9095 35.8035 28.5898 36.8628 28.5877C37.4369 28.5874 37.9922 28.3838 38.4303 28.0129L39.51 29.0944C38.1258 30.4831 35.9534 30.7002 34.3218 29.6131C34.1826 29.5204 34.0508 29.4204 33.9264 29.3139V30.297H32.5007V29.302C31.7808 29.9232 30.8431 30.2989 29.8176 30.2989C27.5484 30.2989 25.7088 28.4593 25.7088 26.1901C25.7088 23.9208 27.5484 22.0812 29.8176 22.0812C30.8431 22.0812 31.7808 22.4569 32.5007 23.0781V22.0812ZM39.2104 25.4772H34.5054C34.6514 24.9614 34.9662 24.4949 35.4217 24.1643C36.2797 23.5414 37.4414 23.5426 38.2981 24.1671C38.7516 24.4977 39.0649 24.963 39.2104 25.4772ZM30.9928 23.9299C31.8522 24.2865 32.4298 25.0971 32.4946 26.0154C32.4896 26.1322 32.4895 26.2488 32.4944 26.3649C32.4525 26.9492 32.2017 27.5013 31.7845 27.9182C31.326 28.3764 30.7041 28.6336 30.0559 28.6331C29.0668 28.6331 28.1752 28.0372 27.7969 27.1233C27.4186 26.2095 27.6282 25.1578 28.3278 24.4587C29.0274 23.7596 30.0793 23.5509 30.9928 23.9299ZM43.6434 24.9969V23.0947H44.74V21.9885C44.738 20.3282 46.0805 18.9797 47.7408 18.9745H48.8602V20.8786H47.7408C47.1315 20.8838 46.6403 21.3792 46.6403 21.9885V23.0947H48.8602V24.9969H46.6403V30.3084H44.74V24.9969H43.6434ZM48.0074 28.4061H49.9095V30.3083H48.0074V28.4061ZM5.91785 42.9745V34.3084H4.52576V42.9745H5.91785ZM32.5633 36.4229V42.9745H31.1712V36.4229H32.5633ZM32.5633 35.6949V34.3084H31.1712V35.6949H32.5633ZM42.7191 42.9745C42.3014 42.9745 41.9128 42.8705 41.5532 42.6625C41.2052 42.4546 40.9268 42.1772 40.7179 41.8306C40.5091 41.4724 40.4047 41.0853 40.4047 40.6693V34.3084H41.7968V36.4056H43.5543V37.7748H41.7968V40.6693C41.8084 40.9235 41.9012 41.1431 42.0752 41.328C42.2608 41.5013 42.4813 41.5879 42.7365 41.5879H44.0242V42.9745H42.7191ZM46.4639 36.4229V42.9745H45.0718V36.4229H46.4639ZM46.4639 35.6949V34.3084H45.0718V35.6949H46.4639ZM50.6688 42.9745C51.0864 42.9745 51.4693 42.8705 51.8173 42.6626C52.1769 42.4546 52.4553 42.1772 52.6525 41.8306C52.8614 41.4724 52.9658 41.0853 52.9658 40.6693V38.7454C52.9658 38.3295 52.8614 37.9424 52.6525 37.5842C52.4437 37.226 52.1595 36.9429 51.7999 36.7349C51.4519 36.5269 51.069 36.4229 50.6514 36.4229H49.8162C49.3985 36.4229 49.0099 36.5269 48.6503 36.7349C48.3023 36.9429 48.0238 37.226 47.815 37.5842C47.6062 37.9424 47.5018 38.3295 47.5018 38.7454V40.6693C47.5018 41.0853 47.6062 41.4724 47.815 41.8306C48.0238 42.1772 48.3081 42.4546 48.6677 42.6626C49.0273 42.8705 49.4159 42.9745 49.8336 42.9745H50.6688ZM50.6514 37.8095C50.9066 37.8095 51.1212 37.9019 51.2952 38.0868C51.4809 38.2601 51.5737 38.4797 51.5737 38.7454L51.5911 40.6693C51.5795 40.9235 51.4809 41.1431 51.2952 41.328C51.1212 41.5013 50.9066 41.5879 50.6514 41.5879H49.8162C49.5609 41.5879 49.3405 41.5013 49.1549 41.328C48.9809 41.1431 48.8939 40.9235 48.8939 40.6693V38.7454C48.8939 38.4912 48.9809 38.2717 49.1549 38.0868C49.3405 37.9019 49.5609 37.8095 49.8162 37.8095H50.6514ZM54.0102 36.4229H57.1424C57.5601 36.4229 57.9487 36.5269 58.3083 36.7349C58.6679 36.9429 58.9464 37.226 59.1436 37.5842C59.3524 37.9308 59.4568 38.3121 59.4568 38.7281L59.4742 42.9745H58.0821V38.7281C58.0821 38.4739 57.9893 38.2601 57.8037 38.0868C57.6297 37.9019 57.4151 37.8095 57.1598 37.8095H55.4023V42.9745H54.0276L54.0102 36.4229ZM33.6013 36.3709H36.7683C37.1859 36.3709 37.5745 36.4749 37.9342 36.6829C38.2938 36.8909 38.578 37.174 38.7868 37.5322C38.9956 37.8904 39.1 38.2775 39.1 38.6934V40.652C39.1 41.068 38.9956 41.455 38.7868 41.8133C38.578 42.1715 38.2938 42.4545 37.9342 42.6625C37.5745 42.8705 37.1859 42.9745 36.7683 42.9745H36.4029L35.4632 41.5706H36.7683C37.0235 41.5706 37.2381 41.4839 37.4121 41.3106C37.5977 41.1257 37.6906 40.9062 37.6906 40.652V38.6934C37.6906 38.4392 37.5977 38.2255 37.4121 38.0521C37.2381 37.8673 37.0235 37.7748 36.7683 37.7748H34.9934V45.0371H33.6013V36.3709ZM26.8283 37.5842C26.6195 37.9308 26.5151 38.3121 26.5151 38.7281L26.5325 42.9745H27.9072V38.7281C27.9072 38.4739 27.9942 38.2601 28.1682 38.0868C28.3538 37.9019 28.5742 37.8095 28.8294 37.8095H30.1345L30.1171 36.4229H28.8294C28.4118 36.4229 28.0232 36.5269 27.6636 36.7349C27.3155 36.9429 27.0371 37.226 26.8283 37.5842ZM21.1385 42.6626C21.4982 42.8705 21.8868 42.9745 22.3044 42.9745H25.4714L24.5318 41.5879H22.3044C22.0492 41.5879 21.8288 41.4955 21.6432 41.3106C21.4692 41.1257 21.3822 40.9062 21.3822 40.652L21.3648 38.7454C21.3764 38.4797 21.4692 38.2601 21.6432 38.0868C21.8288 37.9019 22.0492 37.8095 22.3044 37.8095H25.4714L24.5318 36.4229H22.3044C21.8868 36.4229 21.4982 36.5269 21.1385 36.7349C20.7789 36.9429 20.4947 37.226 20.2859 37.5842C20.0771 37.9424 19.9727 38.3295 19.9727 38.7454L19.9901 40.652C19.9901 41.068 20.0887 41.4551 20.2859 41.8133C20.4947 42.1715 20.7789 42.4546 21.1385 42.6626ZM16.9271 41.5706H13.4816L14.4039 42.9745H16.9271C17.4723 42.9745 17.9363 42.7839 18.3191 42.4026C18.7136 42.0097 18.9166 41.5417 18.9282 40.9986C18.9282 40.444 18.731 39.976 18.3365 39.5947C17.9421 39.2019 17.4665 39.0054 16.9097 39.0054H15.4654C15.303 39.0054 15.1579 38.9477 15.0303 38.8321C14.9143 38.705 14.8563 38.5606 14.8563 38.3988C14.8679 38.237 14.9317 38.0984 15.0477 37.9828C15.1637 37.8673 15.303 37.8095 15.4654 37.8095H18.9282L17.9885 36.4229H15.4654C14.9201 36.4229 14.4503 36.6193 14.0559 37.0122C13.673 37.3935 13.4758 37.8557 13.4642 38.3988C13.4758 38.9419 13.673 39.4098 14.0559 39.8027C14.4503 40.184 14.9143 40.3747 15.448 40.3747H16.9271C17.0895 40.3747 17.2287 40.4382 17.3447 40.5653C17.4723 40.6809 17.5361 40.8195 17.5361 40.9813C17.5361 41.1431 17.4723 41.2817 17.3447 41.3973C17.2287 41.5128 17.0895 41.5706 16.9271 41.5706ZM10.088 36.4229H6.9558L6.9732 42.9745H8.34789V37.8095H10.1054C10.3606 37.8095 10.5752 37.9019 10.7492 38.0868C10.9349 38.2601 11.0277 38.4739 11.0277 38.7281V42.9745H12.4198L12.4024 38.7281C12.4024 38.3121 12.2979 37.9308 12.0891 37.5842C11.8919 37.226 11.6135 36.9429 11.2539 36.7349C10.8943 36.5269 10.5056 36.4229 10.088 36.4229Z" fill="white"/>
</svg>
