<svg width="32" height="32" viewBox="0 0 32 32" fill="none" xmlns="http://www.w3.org/2000/svg">
<path d="M0.5 8C0.5 3.85786 3.85786 0.5 8 0.5H24C28.1421 0.5 31.5 3.85786 31.5 8V24C31.5 28.1421 28.1421 31.5 24 31.5H8C3.85786 31.5 0.5 28.1421 0.5 24V8Z" fill="white"/>
<path d="M0.5 8C0.5 3.85786 3.85786 0.5 8 0.5H24C28.1421 0.5 31.5 3.85786 31.5 8V24C31.5 28.1421 28.1421 31.5 24 31.5H8C3.85786 31.5 0.5 28.1421 0.5 24V8Z" stroke="#E3E3E3"/>
<path d="M16 9.95007H22.0499V16H16V9.95007Z" fill="#17E6A1"/>
<path d="M27 16C27 18.1756 26.3549 20.3023 25.1462 22.1113C23.9375 23.9202 22.2195 25.3301 20.2095 26.1627C18.1995 26.9952 15.9878 27.2131 13.854 26.7886C11.7202 26.3642 9.76021 25.3165 8.22183 23.7782C6.68345 22.2398 5.6358 20.2798 5.21137 18.146C4.78693 16.0122 5.00477 13.8005 5.83733 11.7905C6.66989 9.78049 8.07979 8.06253 9.88873 6.85383C11.6977 5.64514 13.8244 5 16 5V9.95C14.8034 9.95 13.6337 10.3048 12.6388 10.9696C11.6439 11.6344 10.8684 12.5793 10.4105 13.6848C9.95262 14.7903 9.83281 16.0067 10.0663 17.1803C10.2997 18.3539 10.8759 19.4319 11.722 20.278C12.5681 21.1241 13.6461 21.7003 14.8197 21.9337C15.9933 22.1672 17.2097 22.0474 18.3152 21.5895C19.4207 21.1316 20.3656 20.3561 21.0304 19.3612C21.6952 18.3663 22.05 17.1966 22.05 16H27Z" fill="#2354E6"/>
</svg>
