<svg xmlns="http://www.w3.org/2000/svg" width="25" height="24" viewBox="0 0 25 24" fill="none">
  <path d="M21.7498 10.5L22.1498 10.8C22.5498 11.1 23.2498 11.1 23.5498 10.6C23.8498 10.2 23.8498 9.5 23.3498 9.2L19.7498 6.4V4C19.7498 3.4 19.3498 3 18.7498 3C18.1498 3 17.7498 3.4 17.7498 4V4.8L15.1498 2.8C14.4498 2.3 13.6498 2 12.7498 2C11.8498 2 11.0498 2.3 10.3498 2.8L2.14982 9.2C1.74982 9.5 1.64982 10.2 1.94982 10.6C2.24982 11 2.94982 11.1 3.34982 10.8L3.74982 10.5V17.4C3.74982 18 3.74982 18.4 3.84982 18.8C4.14982 20.4 5.44982 21.6 6.94982 21.9C7.34982 22 7.84982 22 8.34982 22H8.44982H8.54982H9.14982C9.94982 21.8 10.5498 21.2 10.7498 20.4C10.7498 20.2 10.7498 20 10.7498 19.8V19.7V17C10.7498 16.5 10.7498 16.2 10.7498 16C10.7498 15.8 10.7498 15.7 10.8498 15.6C10.9498 15.4 11.1498 15.2 11.3498 15.1C11.3498 15.1 11.4498 15.1 11.7498 15H12.7498C12.7498 15 13.5498 15 13.7498 15C13.9498 15 14.0498 15 14.1498 15.1C14.3498 15.2 14.5498 15.4 14.6498 15.6C14.6498 15.6 14.6498 15.7 14.7498 16V17V19.8V19.9V20.5C14.9498 21.3 15.5498 21.9 16.3498 22.1H16.9498H17.0498H17.1498C17.7498 22.1 18.1498 22.1 18.5498 22C20.1498 21.7 21.3498 20.4 21.6498 18.9C21.7498 18.5 21.7498 18.1 21.7498 17.5V10.5Z" fill="#68C3FF"/>
</svg>