
<svg width="48px" height="48px" viewBox="0 0 48 48" version="1.1" xmlns="http://www.w3.org/2000/svg" xmlns:xlink="http://www.w3.org/1999/xlink">
    <title>wivmphxoms</title>
    <g id="kcjkkbnurt" stroke="none" stroke-width="1" fill="none" fill-rule="evenodd">
        <g id="prgptqxmbv" transform="translate(-32.000000, -92.000000)">
            <g id="omnfbcpvqf" transform="translate(32.000000, 92.000000)">
                <rect id="erkmvkuptd" x="0" y="0" width="48" height="48"></rect>
                <path d="M22.1666666,22.1666666 L22.1666666,13 L25.8333334,13 L25.8333334,22.1666666 L35,22.1666666 L35,25.8333334 L25.8333334,25.8333334 L25.8333334,35 L22.1666666,35 L22.1666666,25.8333334 L13,25.8333334 L13,22.1666666 L22.1666666,22.1666666 L22.1666666,22.1666666 Z M5.66666666,2 L42.3333333,2 C44.3583774,2 46,3.64162258 46,5.66666666 L46,42.3333333 C46,43.3057938 45.6136916,44.2384248 44.9260582,44.9260582 C44.2384248,45.6136916 43.3057938,46 42.3333333,46 L5.66666666,46 C4.6942062,46 3.76157519,45.6136916 3.0739418,44.9260582 C2.38630841,44.2384248 2,43.3057938 2,42.3333333 L2,5.66666666 C2,3.64162258 3.64162258,2 5.66666666,2 Z M5.66666666,5.66666666 L5.66666666,42.3333333 L42.3333333,42.3333333 L42.3333333,5.66666666 L5.66666666,5.66666666 Z" id="mxpfhivtqb" fill="#515A62"></path>
            </g>
        </g>
    </g>
</svg>