<svg width="46" height="46" viewBox="0 0 46 46" fill="none" xmlns="http://www.w3.org/2000/svg">
<g id="&#231;&#188;&#150;&#231;&#187;&#132;">
<circle id="&#230;&#164;&#173;&#229;&#156;&#134;&#229;&#189;&#162;" cx="23" cy="23" r="23" fill="#FEFEFE" fill-opacity="0.16"/>
<g id="Icon / Basic">
<path id="Vector" d="M24.197 30.7885L24.1966 30.7889C24.0296 30.956 23.8029 31.05 23.5665 31.05C23.3302 31.05 23.1035 30.9561 22.9364 30.7888L22.9357 30.7881L14.9623 22.8236C14.953 22.8142 14.9477 22.8015 14.9477 22.7882V15.4C14.9477 15.1515 15.1492 14.95 15.3977 14.95H22.7862C22.7995 14.95 22.8122 14.9553 22.8216 14.9646L30.7934 22.9364C30.7936 22.9367 30.7938 22.9369 30.794 22.9371C31.1384 23.2843 31.1384 23.8442 30.794 24.1914C30.7938 24.1916 30.7936 24.1919 30.7934 24.1921L24.197 30.7885Z" stroke="white" stroke-width="1.9" stroke-linecap="round" stroke-linejoin="round"/>
<path id="Vector_2" fill-rule="evenodd" clip-rule="evenodd" d="M19.3 20.6C20.018 20.6 20.6 20.018 20.6 19.3C20.6 18.582 20.018 18 19.3 18C18.582 18 18 18.582 18 19.3C18 20.018 18.582 20.6 19.3 20.6Z" fill="white"/>
</g>
</g>
</svg>
