<svg width="24" height="24" viewBox="0 0 24 24" fill="none" xmlns="http://www.w3.org/2000/svg">
<g clip-path="url(#clip0_2741_3397)">
<path d="M9.48891 4.14077C9.46132 4.16752 9.43389 4.19452 9.40663 4.22179L4.22118 9.40724C1.35733 12.2711 1.35733 16.9143 4.22118 19.7781C7.08502 22.642 11.7282 22.642 14.5921 19.7781C16.1349 18.2353 17.6999 16.7111 19.2296 15.1546C19.5797 14.7984 19.5751 14.227 19.2219 13.8738C18.8597 13.5115 18.2707 13.5178 17.9125 13.8841C16.3949 15.4366 14.8303 16.9472 13.2957 18.4818C11.1478 20.6297 7.66542 20.6297 5.51754 18.4818C3.36965 16.3339 3.36966 12.8515 5.51754 10.7036L10.703 5.51815C10.7303 5.49087 10.7578 5.46393 10.7855 5.43734L9.48891 4.14077Z" fill="#515A62"/>
<path d="M15.9701 10.622L17.1848 9.40728C18.6167 7.97535 18.6167 5.65375 17.1848 4.22183C15.7528 2.7899 13.4312 2.7899 11.9993 4.22183L10.7846 5.43653L9.48825 4.14017L10.703 2.92546C12.8508 0.777581 16.3332 0.777581 18.4811 2.92546C20.629 5.07335 20.629 8.55576 18.4811 10.7036L17.2664 11.9183L15.9701 10.622Z" fill="#515A62"/>
<path d="M10.703 15.8892L16.5804 10.0119L17.8767 11.3082L11.9994 17.1855C10.5675 18.6175 8.24588 18.6175 6.81396 17.1855C5.38204 15.7536 5.38204 13.432 6.81396 12.0001L11.5708 7.24311C11.9287 6.88511 12.5092 6.88511 12.8671 7.24309C13.2251 7.60107 13.2251 8.18146 12.8671 8.53944L8.11032 13.2965C7.39436 14.0124 7.39436 15.1732 8.11032 15.8892C8.82628 16.6051 9.98709 16.6051 10.703 15.8892Z" fill="#515A62"/>
</g>
<defs>
<clipPath id="clip0_2741_3397">
<rect width="24" height="24" fill="white"/>
</clipPath>
</defs>
</svg>
