<svg width="21" height="20" viewBox="0 0 21 20" fill="none" xmlns="http://www.w3.org/2000/svg">
<path d="M16.564 7.1347C16.564 8.22027 15.684 9.1003 14.5984 9.1003C13.5128 9.1003 12.6328 8.22027 12.6328 7.1347C12.6328 6.04913 13.5128 5.1691 14.5984 5.1691C15.684 5.1691 16.564 6.04913 16.564 7.1347Z" stroke="#515A62" stroke-width="1.5" stroke-linecap="round" stroke-linejoin="round"/>
<path d="M10.3085 6.09052C10.3085 7.68183 9.01853 8.97184 7.42722 8.97184C5.83591 8.97184 4.5459 7.68183 4.5459 6.09052C4.5459 4.49921 5.83591 3.2092 7.42722 3.2092C9.01853 3.2092 10.3085 4.49921 10.3085 6.09052Z" stroke="#515A62" stroke-width="1.5" stroke-linecap="round" stroke-linejoin="round"/>
<path d="M1.64885 16.7908C1.52511 16.7908 1.42481 16.6905 1.42481 16.5668C1.42481 13.7533 3.70558 11.4725 6.51906 11.4725H8.33507C11.1485 11.4725 13.4293 13.7533 13.4293 16.5668C13.4293 16.6905 13.329 16.7908 13.2053 16.7908H1.64885Z" stroke="#515A62" stroke-width="1.5" stroke-linecap="round" stroke-linejoin="round"/>
<path d="M14.6681 11.5111H15.9211C17.801 11.5111 19.325 13.0351 19.325 14.915V14.915C19.325 15.291 19.0202 15.5958 18.6442 15.5958H16.5379" stroke="#515A62" stroke-width="1.5" stroke-linecap="round" stroke-linejoin="round"/>
</svg>
