<svg width="24" height="24" viewBox="0 0 24 24" fill="none" xmlns="http://www.w3.org/2000/svg">
<path d="M5.99834 19.4594L6.49438 17.5513L5.59678 16.8215C3.82613 15.3818 2.8 13.412 2.8 11.2999C2.8 7.2859 6.66224 3.59982 12 3.59982C17.3378 3.59982 21.2 7.2859 21.2 11.2999C21.2 15.3139 17.3378 19 12 19C10.8925 19 9.83563 18.8359 8.85937 18.538L8.14856 18.321L5.99834 19.4594ZM3.60174 21.5242C3.4585 22.0752 4.03834 22.5338 4.54148 22.2674L8.33395 20.2596C9.48063 20.6096 10.7146 20.8 12 20.8C18.0751 20.8 23 16.5467 23 11.2999C23 6.05314 18.0751 1.7998 12 1.7998C5.92487 1.7998 1 6.05314 1 11.2999C1 14.0269 2.33039 16.4855 4.46121 18.2181L3.60174 21.5242ZM7.20098 12.1984C7.86372 12.1984 8.40098 11.6612 8.40098 10.9984C8.40098 10.3357 7.86372 9.79844 7.20098 9.79844C6.53824 9.79844 6.00098 10.3357 6.00098 10.9984C6.00098 11.6612 6.53824 12.1984 7.20098 12.1984ZM13.201 10.9984C13.201 11.6612 12.6637 12.1984 12.001 12.1984C11.3382 12.1984 10.801 11.6612 10.801 10.9984C10.801 10.3357 11.3382 9.79844 12.001 9.79844C12.6637 9.79844 13.201 10.3357 13.201 10.9984ZM16.8016 12.1984C17.4643 12.1984 18.0016 11.6612 18.0016 10.9984C18.0016 10.3357 17.4643 9.79844 16.8016 9.79844C16.1388 9.79844 15.6016 10.3357 15.6016 10.9984C15.6016 11.6612 16.1388 12.1984 16.8016 12.1984Z" fill="#515A62"/>
</svg>
