<svg width="24" height="24" viewBox="0 0 24 24" fill="none" xmlns="http://www.w3.org/2000/svg">
<circle cx="12" cy="12" r="10" stroke="#25272A" stroke-width="1.8" stroke-linejoin="round"/>
<path fill-rule="evenodd" clip-rule="evenodd" d="M14.1007 7.64554C14.16 7.58625 14.2562 7.58625 14.3155 7.64554L16.8219 10.152C17.0611 10.3911 16.8917 10.8 16.5535 10.8L7.21717 10.8C7.13331 10.8 7.06534 10.732 7.06534 10.6482V9.88904C7.06534 9.80519 7.13331 9.73721 7.21717 9.73721L14.9041 9.7372L13.564 8.39704C13.5047 8.33775 13.5047 8.24162 13.564 8.18233L14.1007 7.64554Z" fill="#25272A" stroke="#25272A" stroke-width="0.7"/>
<path fill-rule="evenodd" clip-rule="evenodd" d="M9.89926 16.3545C9.83996 16.4137 9.74383 16.4137 9.68454 16.3545L7.17806 13.848C6.93895 13.6089 7.10829 13.2 7.44645 13.2L16.7828 13.2C16.8667 13.2 16.9347 13.268 16.9347 13.3518V14.111C16.9347 14.1948 16.8667 14.2628 16.7828 14.2628L9.09589 14.2628L10.436 15.603C10.4953 15.6622 10.4953 15.7584 10.436 15.8177L9.89926 16.3545Z" fill="#25272A" stroke="#25272A" stroke-width="0.7"/>
</svg>
