<svg width="20" height="20" viewBox="0 0 20 20" fill="none" xmlns="http://www.w3.org/2000/svg">
<path fill-rule="evenodd" clip-rule="evenodd" d="M10 0C15.5228 0 20 4.47715 20 10C20 15.5228 15.5228 20 10 20C4.47715 20 0 15.5228 0 10C0 4.47715 4.47715 0 10 0ZM9.99998 1.62498C5.3746 1.62498 1.62498 5.3746 1.62498 9.99998C1.62498 14.6254 5.3746 18.375 9.99998 18.375C14.6254 18.375 18.375 14.6254 18.375 9.99998C18.375 5.3746 14.6254 1.62498 9.99998 1.62498ZM5.79228 9.1489H14.2078C14.6778 9.1489 15.0589 9.52996 15.0589 10C15.0589 10.4701 14.6778 10.8511 14.2078 10.8511H5.79228C5.32223 10.8511 4.94118 10.4701 4.94118 10C4.94118 9.52996 5.32223 9.1489 5.79228 9.1489Z" fill="#EA4F45"/>
</svg>
