
<svg width="12px" height="12px" viewBox="0 0 12 12" version="1.1" xmlns="http://www.w3.org/2000/svg" xmlns:xlink="http://www.w3.org/1999/xlink">
    <title>cezybjxdvo</title>
    <g id="xudwnlhglo" stroke="none" stroke-width="1" fill="none" fill-rule="evenodd">
        <g id="mqwlfcgqwk" transform="translate(-303.000000, -326.000000)">
            <g id="koswryjmwm" transform="translate(303.000000, 326.000000)">
                <rect id="qvulmxozus" x="0" y="0" width="12" height="12"></rect>
                <path d="M10.4157859,0.3 L4.41428022,0.3 C3.75153852,0.3 3.21428022,0.8372583 3.21428022,1.5 L3.21428022,7.5 C3.21428022,8.1627417 3.75153852,8.7 4.41428022,8.7 L10.4157859,8.7 C11.0785276,8.7 11.6157859,8.1627417 11.6157859,7.5 L11.6157859,1.5 C11.6157859,0.8372583 11.0785276,0.3 10.4157859,0.3 Z M4.41428022,1.2 L10.4157859,1.2 C10.5814713,1.2 10.7157859,1.33431458 10.7157859,1.5 L10.7157859,7.5 C10.7157859,7.66568542 10.5814713,7.8 10.4157859,7.8 L4.41428022,7.8 C4.2485948,7.8 4.11428022,7.66568542 4.11428022,7.5 L4.11428022,1.5 C4.11428022,1.33431458 4.2485948,1.2 4.41428022,1.2 Z" id="gjtgrlxtvw" fill="#5B8EF4"></path>
                <path d="M2.65123948,3.3 L2.65123948,4.2 L1.5,4.2 C1.35502525,4.2 1.23406881,4.3028346 1.20609493,4.43953954 L1.2,4.5 L1.2,10.4422023 C1.2,10.587177 1.3028346,10.7081335 1.43953954,10.7361074 L1.5,10.7422023 L7.87377386,10.7422023 C8.01874861,10.7422023 8.13970505,10.6393677 8.16767893,10.5026628 L8.17377386,10.4422023 L8.17377386,9.22432795 L9.07377386,9.22432795 L9.07377386,10.4422023 C9.07377386,11.068125 8.59455273,11.5821196 7.98299833,11.6372983 L7.87377386,11.6422023 L1.5,11.6422023 C0.874077284,11.6422023 0.360082661,11.1629812 0.304904008,10.5514268 L0.3,10.4422023 L0.3,4.5 C0.3,3.87407728 0.779221138,3.36008266 1.39077554,3.30490401 L1.5,3.3 L2.65123948,3.3 Z" id="orgnryofcd" fill="#5B8EF4"></path>
            </g>
        </g>
    </g>
</svg>