<svg width="46" height="46" viewBox="0 0 46 46" fill="none" xmlns="http://www.w3.org/2000/svg">
<g id="icon_Bridge">
<path id="shape" d="M46 23C46 35.7025 35.7025 46 23 46C10.2975 46 0 35.7025 0 23C0 10.2975 10.2975 0 23 0C35.7025 0 46 10.2975 46 23Z" fill="#FEFEFE" fill-opacity="0.16"/>
<g id="Icon/Dashboard">
<path id="Ellipse 261" d="M17 29.0141C17 29.8425 16.3284 30.5141 15.5 30.5141C14.6716 30.5141 14 29.8425 14 29.0141C14 28.1857 14.6716 27.5141 15.5 27.5141C16.3284 27.5141 17 28.1857 17 29.0141Z" fill="white"/>
<path id="Ellipse 262" d="M32 29.0141C32 29.8425 31.3284 30.5141 30.5 30.5141C29.6716 30.5141 29 29.8425 29 29.0141C29 28.1857 29.6716 27.5141 30.5 27.5141C31.3284 27.5141 32 28.1857 32 29.0141Z" fill="white"/>
<g id="Rectangle 5362 (Stroke)">
<path d="M14.6006 23.9117C14.6006 19.2729 18.3612 15.5123 23 15.5123C27.6388 15.5123 31.3993 19.2729 31.3993 23.9117V25.4263C31.3993 25.951 30.974 26.3763 30.4493 26.3763C29.9247 26.3763 29.4993 25.951 29.4993 25.4263V23.9117C29.4993 20.3222 26.5895 17.4123 23 17.4123C19.4105 17.4123 16.5006 20.3222 16.5006 23.9117V25.4263C16.5006 25.951 16.0753 26.3763 15.5506 26.3763C15.026 26.3763 14.6006 25.951 14.6006 25.4263V23.9117Z" fill="white"/>
</g>
</g>
</g>
</svg>
