<svg width="24" height="24" viewBox="0 0 24 24" fill="none" xmlns="http://www.w3.org/2000/svg">
<g clip-path="url(#clip0_3386_10964)">
<circle cx="12" cy="12" r="12" fill="#4D6AEC"/>
<path d="M13.9454 11.3952C13.5887 10.8156 12.92 10.4144 12.1621 10.4144C11.003 10.4144 10.1113 11.3506 10.1113 12.4652C10.1113 12.8664 10.2005 13.2231 10.3788 13.5351L13.9454 11.3952Z" fill="white"/>
<path d="M17.0662 9.38902C17.0216 9.34444 16.977 9.29986 16.9324 9.34444C15.9962 9.52277 15.0154 9.34444 14.2129 8.89862C13.6334 8.54196 12.92 8.36363 12.1622 8.36363C10.1114 8.36363 8.41726 9.87942 8.10518 11.841V11.8856C8.10518 11.9748 8.10518 12.0639 8.0606 12.1531C8.0606 12.1977 8.0606 12.1977 8.0606 12.2423C8.0606 12.3314 8.0606 12.376 8.0606 12.4652C8.0606 12.4652 8.0606 12.4652 8.0606 12.5098C8.0606 13.4906 7.74853 14.4268 7.12438 15.1847C7.0798 15.2293 7.0798 15.2738 7.12438 15.3184C7.16896 15.363 7.25813 15.4076 7.30271 15.363L8.64017 14.5605L9.3089 14.1593L9.48723 14.0256C9.21973 13.5797 9.04141 13.0447 9.04141 12.4652C9.04141 10.7711 10.4235 9.38902 12.1176 9.38902C13.2321 9.38902 14.2129 10.0132 14.7479 10.9048L15.6395 10.3698L16.9324 9.56735C17.1108 9.52277 17.1108 9.4336 17.0662 9.38902Z" fill="white"/>
<path d="M15.2384 12.2423C15.2384 12.1977 15.2384 12.2423 15.2384 12.2423C15.2384 12.1977 15.2384 12.1977 15.2384 12.2423C15.2384 12.1531 15.1938 12.1086 15.1046 12.1086C15.06 12.1086 15.06 12.1086 15.06 12.1086L14.2576 12.599C14.1684 13.6689 13.2768 14.516 12.2068 14.516C11.4489 14.516 10.7802 14.1147 10.4235 13.4906L9.53186 14.0256C10.0668 14.9172 11.0476 15.5414 12.2068 15.5414C13.9009 15.5414 15.2829 14.1593 15.2829 12.4652C15.2829 12.376 15.2829 12.2869 15.2384 12.2423Z" fill="white"/>
</g>
<defs>
<clipPath id="clip0_3386_10964">
<rect width="24" height="24" fill="white"/>
</clipPath>
</defs>
</svg>
