
<svg width="16px" height="16px" viewBox="0 0 16 16" version="1.1" xmlns="http://www.w3.org/2000/svg" xmlns:xlink="http://www.w3.org/1999/xlink">
    <title>imulnepiwm</title>
    <g id="qizjvqyxde" stroke="none" stroke-width="1" fill="none" fill-rule="evenodd">
        <g id="ubzsvzhnoh" transform="translate(-311.000000, -419.000000)">
            <g id="yrlbiypcdi" transform="translate(32.000000, 403.000000)">
                <g id="ckqknisyee" transform="translate(279.000000, 16.000000)">
                    <g id="yzhyfedxlc">
                        <rect id="dllpkvssql" x="0" y="0" width="16" height="16"></rect>
                    </g>
                    <g id="jmsbcgorvo" transform="translate(0.000000, 2.000000)" fill="#464B53">
                        <path d="M10.6305251,4.4348758 C10.0797422,3.48888818 9.06043603,2.90949312 7.96244662,2.92379917 C6.29579168,2.94525824 4.95638766,4.30075657 4.95638766,5.96741151 C4.95638766,7.63406645 6.29579168,8.98956478 7.96244662,9.01102385 C9.06043603,9.02354165 10.0797422,8.44593484 10.6305251,7.49994722 C11.1813081,6.5539596 11.1813081,5.38086342 10.6305251,4.4348758 L10.6305251,4.4348758 Z M8.02682385,7.63406645 C7.42775796,7.64479599 6.8644572,7.32827461 6.56045362,6.80789201 C6.25645004,6.28929766 6.25645004,5.64373711 6.56045362,5.12514276 C6.8644572,4.60654841 7.42418145,4.28823878 8.02682385,4.29896832 C8.93525808,4.31506262 9.66665494,5.05718902 9.66665494,5.96562325 C9.66665494,6.87942226 8.93525808,7.61797214 8.02682385,7.63406645 L8.02682385,7.63406645 Z" id="ptfmpwiyqi"></path>
                        <path d="M15.7646092,5.19488476 C13.4273581,1.73103217 10.8397511,1.42108547e-14 8,1.42108547e-14 C5.21389657,1.42108547e-14 2.66920776,1.67023145 0.364145295,5.00711784 L0.235390836,5.19846127 L0.183531402,5.28250932 C-0.079342285,5.74030295 -0.0578832086,6.30360371 0.235390836,6.73993826 C2.57264191,10.2037909 5.16024888,11.934823 8,11.934823 C10.7861034,11.934823 13.3307922,10.2645916 15.6358547,6.92770518 L15.7646092,6.73636175 L15.8164686,6.6523137 C16.0793423,6.19630833 16.0578832,5.63121931 15.7646092,5.19488476 Z M14.4967354,6.15339017 C12.4312993,9.14335483 10.2746621,10.5578656 8,10.5578656 C5.72712615,10.5578656 3.57048897,9.14335483 1.5032646,6.15339017 L1.3762984,5.96741151 L1.5032646,5.78143285 C3.56870071,2.7914682 5.7253379,1.37695741 8,1.37695741 C10.2728738,1.37695741 12.429511,2.7914682 14.4967354,5.78143285 L14.6237016,5.96741151 L14.4967354,6.15339017 L14.4967354,6.15339017 Z" id="jhhlhxhjfn"></path>
                    </g>
                </g>
            </g>
        </g>
    </g>
</svg>