<svg width="32" height="33" viewBox="0 0 32 33" fill="none" xmlns="http://www.w3.org/2000/svg">
<path d="M32 16.1309C32 24.9674 24.8366 32.1309 16 32.1309C7.16344 32.1309 0 24.9674 0 16.1309C0 7.2943 7.16344 0.130859 16 0.130859C24.8366 0.130859 32 7.2943 32 16.1309Z" fill="#DEE2E8"/>
<path d="M31.5554 16.1309C31.5554 24.722 24.591 31.6864 15.9999 31.6864C7.40879 31.6864 0.444336 24.722 0.444336 16.1309C0.444336 7.53976 7.40879 0.575302 15.9999 0.575302C24.591 0.575302 31.5554 7.53976 31.5554 16.1309Z" fill="#F7F7F9"/>
<path d="M10.8313 16.1309C10.8313 15.5536 10.9298 14.9998 11.1042 14.4808L8.04341 12.1929C7.42846 13.4145 7.10912 14.7633 7.11109 16.1309C7.11109 17.5461 7.44612 18.8809 8.0419 20.0658L11.1011 17.7741C10.9227 17.2446 10.8316 16.6896 10.8313 16.1309Z" fill="#FBBC05"/>
<path d="M16.2069 10.8784C17.4879 10.8784 18.6454 11.3224 19.555 12.0497L22.2011 9.46401C20.5889 8.09048 18.5218 7.24197 16.2069 7.24197C12.6126 7.24197 9.52304 9.25339 8.04346 12.1929L11.1057 14.4808C11.8106 12.3853 13.8208 10.8784 16.2069 10.8784Z" fill="#EA4335"/>
<path d="M16.207 21.3833C13.8201 21.3833 11.8099 19.8764 11.1042 17.7809L8.04346 20.0688C9.52228 23.0083 12.6118 25.0197 16.207 25.0197C18.4248 25.0197 20.5426 24.2493 22.1329 22.8045L19.2268 20.606C18.4074 21.1113 17.375 21.3833 16.2062 21.3833" fill="#34A853"/>
<path d="M24.8888 16.1308C24.8888 15.6058 24.8054 15.0399 24.6818 14.5149H16.2061V17.9491H21.0844C20.8411 19.1203 20.1771 20.0204 19.2274 20.606L22.1327 22.8045C23.8026 21.2878 24.8888 19.0287 24.8888 16.1308Z" fill="#4285F4"/>
</svg>
