<?xml version="1.0" encoding="UTF-8"?>
<svg width="80px" height="80px" viewBox="0 0 80 80" version="1.1" xmlns="http://www.w3.org/2000/svg" xmlns:xlink="http://www.w3.org/1999/xlink">
    <title>master1</title>
    <g id="icon" stroke="none" stroke-width="1" fill="none" fill-rule="evenodd">
        <g id="Special" transform="translate(-550.000000, -213.000000)" fill-rule="nonzero">
            <g id="master1" transform="translate(550.000000, 213.000000)">
                <circle id="shape" fill="#BBE5FF" cx="40" cy="40" r="40"></circle>
                <g id="shape" transform="translate(15.460523, 13.576000)">
                    <path d="M19.4194772,10.96 C19.4194772,10.96 22.1954772,2.84217094e-15 24.8194772,2.84217094e-15 C27.4434772,2.84217094e-15 29.3474772,10.96 29.3474772,10.96 L19.4274772,10.96 L19.4194772,10.96 Z" fill="#365299"></path>
                    <path d="M29.6674772,10.432 C29.6674772,10.432 39.7794772,5.36 41.4914772,7.344 C43.2034772,9.328 36.1634772,17.936 36.1634772,17.936 L29.6754772,10.432 L29.6674772,10.432 Z" fill="#365299"></path>
                    <path d="M35.6594772,18.48 C35.6594772,18.48 45.3074772,17.224 46.1314772,19.312 C46.9554772,21.4 38.8034772,26.408 38.8034772,26.408 L35.6514772,18.48 L35.6594772,18.48 Z" fill="#365299"></path>
                    <path d="M37.0594772,39.784 C37.0594772,39.784 42.3314772,44.264 41.6274772,45.704 C40.9234772,47.144 34.3794772,45.24 34.3794772,45.24 L37.0514772,39.784 L37.0594772,39.784 Z" fill="#365299"></path>
                    <path d="M39.1074772,28.16 C39.1074772,16.944 32.4834772,7.856 24.3154772,7.856 C16.1474772,7.856 9.52347722,16.944 9.52347722,28.16 C9.52347722,29.248 9.58747722,30.312 9.70747722,31.344 C9.97947722,35.392 10.6114772,42.352 11.8354772,46.528 C11.8514772,46.576 11.8594772,46.624 11.8594772,46.672 C11.9954772,48.496 12.6514772,51.088 12.9634772,52.24 C13.0594772,52.592 13.3794772,52.84 13.7474772,52.84 L15.7394772,52.84 C16.0994772,52.84 16.4194772,52.6 16.5234772,52.256 L17.4674772,49.064 C17.5714772,48.712 17.8994772,48.472 18.2594772,48.48 C20.9874772,48.536 25.0514772,48.632 28.3714772,48.648 C28.7314772,48.648 29.0434772,48.888 29.1474772,49.232 L30.0434772,52.264 C30.1474772,52.608 30.4594772,52.848 30.8274772,52.848 L32.8274772,52.848 C33.1874772,52.848 33.4994772,52.616 33.6034772,52.272 C33.9474772,51.128 34.7314772,48.528 35.3394772,46.672 C35.3394772,46.672 35.3394772,46.672 35.3394772,46.672 C37.1314772,42.952 39.1234772,34.32 39.1155012,28.168 L39.1074772,28.16 Z" fill="#4D75F4"></path>
                    <circle fill="#FFFFFF" cx="18.1794772" cy="23.44" r="4"></circle>
                    <ellipse fill="#BBE5FF" transform="translate(17.479617, 13.049655) rotate(-39.000000) translate(-17.479617, -13.049655) " cx="17.4796173" cy="13.0496548" rx="2.208" ry="1.304"></ellipse>
                    <ellipse fill="#BBE5FF" transform="translate(20.967247, 9.982158) rotate(-39.000000) translate(-20.967247, -9.982158) " cx="20.9672473" cy="9.98215837" rx="1.208" ry="1"></ellipse>
                    <ellipse fill="#BBE5FF" transform="translate(26.143707, 9.980223) rotate(-52.230000) translate(-26.143707, -9.980223) " cx="26.1437065" cy="9.98022288" rx="1" ry="1.408"></ellipse>
                    <ellipse fill="#BBE5FF" transform="translate(30.226222, 10.366279) rotate(-52.230000) translate(-30.226222, -10.366279) " cx="30.2262217" cy="10.3662789" rx="1" ry="1"></ellipse>
                    <circle fill="#383838" cx="19.2674772" cy="23.152" r="2.112"></circle>
                    <circle fill="#FFFFFF" cx="19.9154772" cy="22.336" r="1"></circle>
                    <circle fill="#FFFFFF" cx="29.8034772" cy="23.44" r="4"></circle>
                    <circle fill="#383838" cx="28.7794772" cy="22.92" r="2.112"></circle>
                    <circle fill="#FFFFFF" cx="28.0434772" cy="22.2" r="1"></circle>
                    <path d="M24.6194772,33.768 C21.3874772,33.768 18.8594772,32.816 16.3554772,31.168 C16.3234772,31.464 16.2434772,32.016 16.2434772,32.32 C16.2434772,36.944 19.9954772,40.696 24.6194772,40.696 C29.2434772,40.696 32.9954772,36.944 32.9954772,32.32 C32.9954772,32.016 33.0274772,31.464 32.9954772,31.168 C30.6594772,32.704 27.8514772,33.768 24.6194772,33.768 L24.6194772,33.768 Z" fill="#365299"></path>
                    <path d="M17.8994772,32.104 C17.8994772,32.104 17.5954772,35.064 19.4594772,35.368 C21.3234772,35.672 21.4914772,33.448 21.4914772,33.448 C21.4914772,33.448 19.4994772,33.048 17.8994772,32.096 L17.8994772,32.104 Z" fill="#FFFFFF"></path>
                    <path d="M24.7874772,33.792 C24.7874772,33.792 24.7634772,36.024 23.2194772,35.912 C21.6754772,35.8 21.4834772,33.464 21.4834772,33.464 C21.4834772,33.464 22.3234772,33.72 24.7794772,33.8 L24.7874772,33.792 Z" fill="#FFFFFF"></path>
                    <path d="M28.1154772,33.392 C28.1154772,33.392 28.5794772,35.632 27.0274772,35.832 C25.4754772,36.032 24.7874772,33.8 24.7874772,33.8 C24.7874772,33.8 27.0354772,33.704 28.1154772,33.4 L28.1154772,33.392 Z" fill="#FFFFFF"></path>
                    <path d="M31.6594772,31.952 C31.6594772,31.952 31.4914772,35.48 30.0754772,35.608 C28.6594772,35.736 28.1154772,33.384 28.1154772,33.384 C28.1154772,33.384 30.6194772,32.688 31.6594772,31.952 Z" fill="#FFFFFF"></path>
                    <path d="M9.51547722,27.024 C9.51547722,27.024 9.57947722,30.816 7.36347722,30.36 C5.14747722,29.904 3.19547722,24.944 1.75547722,25.264 C0.315477222,25.584 -1.48452278,29.904 2.06747722,32.736 C5.61947722,35.568 9.69947722,31.352 9.69947722,31.352 L10.6114772,28.52 L9.51547722,27.024 L9.51547722,27.024 Z" fill="#4D75F4"></path>
                    <path d="M10.0034772,34.616 C10.0034772,34.616 9.91547722,37.8 7.05147722,37.544 C4.19547722,37.288 1.38747722,35.48 1.13147722,37.56 C0.875477222,39.64 2.69147722,40.864 5.30747722,40.608 C7.92347722,40.352 10.3954772,38.296 10.2834772,37.288 C10.1714772,36.28 11.3954772,34.616 11.3954772,34.616 L10.0034772,34.616 L10.0034772,34.616 Z" fill="#4D75F4"></path>
                    <path d="M37.8274772,31.296 C37.8274772,31.296 41.4034772,32.632 43.6274772,30.248 C45.8434772,27.864 47.5954772,26.584 48.8514772,29.64 C50.1074772,32.696 45.9074772,34.304 43.2274772,33.864 C40.5474772,33.424 37.8194772,32.304 37.8194772,32.304 L37.8354772,31.304 L37.8274772,31.296 Z" fill="#4D75F4"></path>
                    <path d="M38.0354772,33.712 C38.0354772,33.712 39.3554772,37.232 42.0754772,37.328 C44.7954772,37.424 46.8114772,37.984 46.3874772,39.064 C45.9634772,40.144 43.5794772,40.608 41.4194772,39.576 C39.2594772,38.544 37.8114772,35.312 37.8114772,35.312 L38.0354772,33.712 Z" fill="#4D75F4"></path>
                    <path d="M18.2514772,48.496 C18.2514772,48.496 19.1154772,44.976 22.9394772,44.976 C26.7634772,44.976 28.2994772,47.736 28.3634772,48.656 L18.2514772,48.488 L18.2514772,48.496 Z" fill="#849DF7"></path>
                </g>
            </g>
        </g>
    </g>
</svg>