<?xml version="1.0" encoding="UTF-8"?>
<svg width="80px" height="80px" viewBox="0 0 80 80" version="1.1" xmlns="http://www.w3.org/2000/svg" xmlns:xlink="http://www.w3.org/1999/xlink">
    <title>master5</title>
    <g id="icon" stroke="none" stroke-width="1" fill="none" fill-rule="evenodd">
        <g id="Special" transform="translate(-250.000000, -213.000000)" fill-rule="nonzero">
            <g id="master5" transform="translate(250.000000, 213.000000)">
                <circle id="shape" fill="#F9D778" cx="40" cy="40" r="40"></circle>
                <path d="M49.488,28.456 C49,28.28 48.664,27.832 48.664,27.312 L48.664,24.288 C48.664,23.544 49.16,22.904 49.872,22.696 C52.28,21.984 53.936,19.512 53.336,16.768 C52.928,14.896 51.408,13.384 49.528,12.984 C46.28,12.296 43.408,14.76 43.408,17.888 C43.408,20.024 44.744,21.848 46.632,22.568 C47.28,22.816 47.704,23.44 47.704,24.128 L47.704,26.304 C47.704,27.104 46.968,27.688 46.192,27.496 C45.36,27.296 44.488,27.112 43.552,26.952 L41.128,26.824 C39.192,26.824 37.336,27.112 35.616,27.632 C35.192,27.76 34.76,27.424 34.76,26.984 L34.76,25.192 C34.76,24.696 35.096,24.28 35.568,24.128 C37.816,23.408 39.376,21.152 39.008,18.592 C38.688,16.392 36.856,14.616 34.648,14.36 C31.608,14.008 29.024,16.376 29.024,19.344 C29.024,21.8 30.784,23.832 33.112,24.272 C33.52,24.352 33.824,24.704 33.824,25.12 L33.824,27.488 C33.824,27.976 33.536,28.408 33.088,28.616 C28.128,30.952 24.784,35.272 24.784,39.704 L25.336,47.808 C25.392,48.608 25.512,49.408 25.744,50.184 C26.888,54 29.544,56.728 33.608,58.152 C34.84,58.584 35.648,59.776 35.648,61.08 L35.648,65.472 C35.576,66.024 33.824,66.136 33.664,66.584 C33.504,67.032 34.744,67.168 35.648,67.104 C36.544,67.032 36.408,66.472 36.408,66.472 L36.408,60.872 C36.408,59.856 37.28,59.048 38.288,59.144 C39.184,59.24 40.128,59.28 41.12,59.28 L41.12,59.28 C41.84,59.28 42.552,59.24 43.248,59.176 C44.04,59.096 44.728,59.712 44.728,60.504 L44.728,65.456 C44.656,66.008 42.904,66.12 42.744,66.568 C42.584,67.016 43.824,67.152 44.728,67.088 C45.624,67.016 45.488,66.456 45.488,66.456 L45.488,60.112 C45.488,59.392 45.968,58.752 46.664,58.568 C53,56.928 57.536,52.56 57.536,47.416 L57.536,38.664 C57.536,33.632 55.072,30.424 49.464,28.432 L49.488,28.456 Z" id="shape" fill="#F7A328"></path>
                <path d="M37.3848426,38.1384288 L38.1008426,38.1384288 C38.5481933,38.1384288 38.9108426,38.5010782 38.9108426,38.9484288 L38.9108426,39.9764288 C38.9108426,40.4237795 38.5481933,40.7864288 38.1008426,40.7864288 L37.3848426,40.7864288 C36.937492,40.7864288 36.5748426,40.4237795 36.5748426,39.9764288 L36.5748426,38.9484288 C36.5748426,38.5010782 36.937492,38.1384288 37.3848426,38.1384288 Z" id="shape" fill="#FFFFFF" transform="translate(37.742843, 39.462429) rotate(6.610000) translate(-37.742843, -39.462429) "></path>
                <path d="M40.1483564,38.4590309 L40.8643564,38.4590309 C41.3117071,38.4590309 41.6743564,38.8216803 41.6743564,39.2690309 L41.6743564,40.2970309 C41.6743564,40.7443816 41.3117071,41.1070309 40.8643564,41.1070309 L40.1483564,41.1070309 C39.7010058,41.1070309 39.3383564,40.7443816 39.3383564,40.2970309 L39.3383564,39.2690309 C39.3383564,38.8216803 39.7010058,38.4590309 40.1483564,38.4590309 Z" id="shape" fill="#FFFFFF" transform="translate(40.506356, 39.783031) rotate(-2.370000) translate(-40.506356, -39.783031) "></path>
                <rect id="shape" fill="#FFFFFF" transform="translate(43.425635, 39.533747) rotate(-8.830000) translate(-43.425635, -39.533747) " x="42.2576354" y="38.2097472" width="2.336" height="2.648" rx="0.81"></rect>
                <path d="M40.432,38.88 C38.824,38.88 37.48,38.64 36.4,38.336 C33.24,37.424 31.664,35.728 31.6,35.656 C31.488,35.536 31.496,35.344 31.616,35.232 C31.736,35.12 31.928,35.128 32.04,35.248 C32.104,35.312 38.248,41.784 50.4,35.584 C50.544,35.504 50.728,35.568 50.8,35.712 C50.872,35.856 50.816,36.04 50.672,36.112 C46.56,38.208 43.136,38.88 40.432,38.88 L40.432,38.88 Z" id="shape" fill="#1A1A1A"></path>
                <circle id="shape" fill="#FFFFFF" cx="49.56" cy="18.128" r="4.032"></circle>
                <circle id="shape" fill="#383838" cx="50.64" cy="18.472" r="2.128"></circle>
                <circle id="shape" fill="#FFFFFF" cx="51.632" cy="18.128" r="1"></circle>
                <circle id="shape" fill="#FFFFFF" cx="32.96" cy="19.288" r="4.184"></circle>
                <circle id="shape" fill="#383838" cx="31.848" cy="19.648" r="2.208"></circle>
                <circle id="shape" fill="#FFFFFF" cx="30.816" cy="19.288" r="1"></circle>
                <path d="M40.872,56.128 L40.872,56.128 C37.368,56.128 35.184,54.952 34.456,52.872 C34.36,52.592 34.304,52.304 34.288,52.024 L34.056,49.128 C34.056,46.792 37.096,44.528 40.872,44.528 L41.88,44.576 C45.984,45.192 47.72,46.424 47.72,48.768 L47.72,51.896 C47.72,54.232 44.656,56.128 40.872,56.128 L40.872,56.128 Z" id="shape" fill="#F9DCA7"></path>
                <path d="M24.392,44.304 C24.128,44.304 23.856,44.288 23.592,44.256 C21.264,43.976 19.272,42.544 18.128,40.344 C17.888,39.872 17.608,39.776 17.392,39.744 C16.128,39.568 13.88,41.336 12.752,42.496 C12.448,42.816 11.936,42.824 11.624,42.512 C11.304,42.208 11.296,41.696 11.608,41.384 C11.968,41.016 15.176,37.816 17.632,38.16 C18.208,38.248 19.016,38.568 19.552,39.6 C20.448,41.328 21.992,42.44 23.792,42.664 C25.016,42.808 26.192,42.496 26.736,41.88 C27.024,41.552 27.536,41.512 27.864,41.808 C28.2,42.096 28.232,42.608 27.936,42.936 C27.168,43.808 25.864,44.304 24.4,44.304 L24.392,44.304 Z" id="shape" fill="#F7A328"></path>
                <path d="M53.592,44.304 C53.392,44.304 53.192,44.232 53.04,44.08 C52.72,43.776 52.712,43.272 53.016,42.952 C53.208,42.752 57.712,38.136 62.688,40.184 C63.952,40.704 64.992,40.776 65.76,40.384 C66.752,39.888 67.048,38.76 67.056,38.744 C67.168,38.32 67.6,38.056 68.024,38.16 C68.448,38.264 68.712,38.696 68.608,39.12 C68.592,39.192 68.152,40.96 66.504,41.8 C65.296,42.416 63.8,42.368 62.08,41.664 C58.128,40.04 54.216,44.024 54.176,44.064 C54.016,44.224 53.808,44.312 53.6,44.312 L53.592,44.304 Z" id="shape" fill="#F7A328"></path>
                <path d="M25.208,45.76 C25.208,45.76 27.096,47.984 29.92,47.8 C32.744,47.616 28.232,50.032 25.352,47.816 L25.208,45.76 L25.208,45.76 Z" id="shape" fill="#CC811D"></path>
                <path d="M25.76,50.2 C25.76,50.2 28.48,51.176 30.816,50.56 C33.152,49.944 32.184,51.752 30.592,52.264 C28.808,52.84 27.312,52.6 26.632,52.352 C26.632,52.352 25.912,50.76 25.768,50.2 L25.76,50.2 Z" id="shape" fill="#CC811D"></path>
                <path d="M57.56,45.76 C57.56,45.76 53.912,47.832 51.584,47.496 C49.256,47.16 49.488,48.688 51.248,48.76 C53.008,48.832 56.168,48.488 57.56,47.448 L57.56,45.768 L57.56,45.76 Z" id="shape" fill="#CC811D"></path>
                <path d="M57.072,50.328 C57.072,50.328 52.144,52.008 49.76,51.472 C47.376,50.936 48.808,52.832 51.4,52.52 C53.992,52.208 56.088,51.96 56.08,52.368 C56.08,52.368 56.912,50.832 57.072,50.328 L57.072,50.328 Z" id="shape" fill="#CC811D"></path>
            </g>
        </g>
    </g>
</svg>