<?xml version="1.0" encoding="UTF-8"?>
<svg width="80px" height="80px" viewBox="0 0 80 80" version="1.1" xmlns="http://www.w3.org/2000/svg" xmlns:xlink="http://www.w3.org/1999/xlink">
    <title>master4</title>
    <g id="icon" stroke="none" stroke-width="1" fill="none" fill-rule="evenodd">
        <g id="Special" transform="translate(-50.000000, -213.000000)" fill-rule="nonzero">
            <g id="master4" transform="translate(50.000000, 213.000000)">
                <circle id="shape" fill="#F9D778" cx="40" cy="40" r="40"></circle>
                <g id="shape" transform="translate(10.578558, 11.575214)">
                    <path d="M47.1494416,24.2487858 L54.1654416,22.4487858 C54.1654416,22.4487858 53.2534416,19.9127858 54.3734416,19.2247858 C55.4934416,18.5367858 56.4054416,20.3847858 56.1974416,21.7367858 C56.1974416,21.7367858 58.3174416,20.1447858 58.7654416,21.4807858 C59.2694416,22.9847858 56.8134416,22.9927858 56.3334416,22.9847858 C56.3334416,22.9847858 57.5334416,26.0007858 56.2134416,26.3287858 C54.8934416,26.6567858 54.3334416,24.9127858 54.4854416,23.8167858 L47.2294416,26.1207858 L47.1494416,24.2487858 Z" fill="#CC811D"></path>
                    <path d="M13.3974416,23.3207858 L5.34944158,21.2647858 C5.34944158,21.2647858 6.38944158,18.3527858 5.10944158,17.5687858 C3.82944158,16.7847858 2.78144158,18.8967858 3.02144158,20.4487858 C3.02144158,20.4487858 0.589441578,18.6247858 0.0774415782,20.1527858 C-0.498558422,21.8807858 2.30944158,21.8887858 2.86144158,21.8727858 C2.86144158,21.8727858 1.48544158,25.3367858 2.99744158,25.7047858 C4.50944158,26.0727858 5.15744158,24.0807858 4.98144158,22.8247858 L13.3014416,25.4647858 L13.3974416,23.3207858 L13.3974416,23.3207858 Z" fill="#CC811D"></path>
                    <path d="M23.7094416,36.7127858 C23.7094416,36.7127858 23.1974416,48.8647858 15.9414416,44.6087858 C8.68544158,40.3527858 5.70944158,43.4247858 6.99744158,46.3047858 C8.28544158,49.1847858 17.9814416,52.5127858 22.8214416,47.5047858 C27.6614416,42.4967858 26.8454416,36.3927858 26.8454416,36.3927858 L23.7094416,36.7127858 L23.7094416,36.7127858 Z" fill="#CC811D"></path>
                    <path d="M27.3494416,36.8967858 C27.3494416,36.8967858 26.7574416,44.3447858 28.0374416,50.8487858 C29.3254416,57.3527858 34.0294416,58.2247858 33.4054416,55.1287858 C32.7814416,52.0407858 29.8694416,47.2007858 30.3334416,41.7287858 C30.7974416,36.2567858 29.5174416,34.9127858 27.3414416,36.8967858 L27.3494416,36.8967858 Z" fill="#CC811D"></path>
                    <path d="M31.8454416,37.5367858 C31.8454416,37.5367858 30.5414416,48.7047858 38.5494416,49.5127858 C46.5574416,50.3207858 51.3334416,48.2727858 51.3974416,45.7927858 C51.4614416,43.3127858 48.2934416,41.7527858 44.8854416,43.6167858 C41.4774416,45.4807858 36.9414416,47.8967858 35.0774416,43.6167858 C33.2134416,39.3367858 33.7094416,36.3927858 33.7094416,36.3927858 L31.8454416,37.5367858 L31.8454416,37.5367858 Z" fill="#CC811D"></path>
                    <path d="M30.3894416,0.504785832 L27.1574416,5.84078583 L29.8774416,7.85678583 L34.7254416,6.04878583 L32.2294416,0.608785832 C31.8774416,-0.151214168 30.8214416,-0.215214168 30.3894416,0.504785832 L30.3894416,0.504785832 Z" fill="#CC811D"></path>
                    <path d="M36.7574416,8.84878583 L34.7334416,6.04078583 L39.3334416,2.63278583 C39.8774416,2.22478583 40.6534416,2.61678583 40.6534416,3.29678583 L40.6534416,8.43278583 L36.7574416,8.84078583 L36.7574416,8.84878583 Z" fill="#CC811D"></path>
                    <path d="M41.8534416,12.2487858 L40.6534416,8.44078583 L44.2214416,6.97678583 C44.7894416,6.74478583 45.4054416,7.21678583 45.3094416,7.83278583 L44.7334416,11.6647858 L41.8534416,12.2487858 L41.8534416,12.2487858 Z" fill="#CC811D"></path>
                    <path d="M44.5574416,14.5927858 L44.7254416,11.6567858 L47.0614416,11.3847858 C47.5574416,11.3287858 47.9574416,11.7767858 47.8454416,12.2647858 L47.2614416,14.7687858 L44.5574416,14.5847858 L44.5574416,14.5927858 Z" fill="#CC811D"></path>
                    <path d="M51.5974416,22.5047858 C53.0854416,31.9687858 45.6774416,39.8647858 30.6454416,39.8647858 C14.0134416,39.8647858 8.14944158,31.9687858 9.69344158,22.5047858 C11.3174416,12.5447858 17.7014416,5.97678583 30.6454416,5.14478583 C40.9254416,4.48878583 50.0374416,12.5367858 51.5974416,22.5047858 L51.5974416,22.5047858 Z" fill="#CC811D"></path>
                    <path d="M50.4214416,22.7447858 C51.9094416,32.0807858 44.4934416,39.8647858 29.4454416,39.8647858 C12.7974416,39.8647858 6.92544158,32.0727858 8.46944158,22.7447858 C10.0934416,12.9207858 16.4854416,6.44878583 29.4454416,5.62478583 C39.7334416,4.97678583 48.8534416,12.9207858 50.4214416,22.7447858 Z" fill="#F7A328"></path>
                    <circle fill="#FFFFFF" cx="38.2774416" cy="18.3847858" r="4.264"></circle>
                    <circle fill="#383838" cx="39.4134416" cy="18.7447858" r="2.248"></circle>
                    <circle fill="#FFFFFF" cx="40.4614416" cy="18.3847858" r="1"></circle>
                    <circle fill="#FFFFFF" cx="20.7254416" cy="19.6167858" r="4.424"></circle>
                    <circle fill="#383838" cx="19.5414416" cy="19.9927858" r="2.328"></circle>
                    <circle fill="#FFFFFF" cx="18.4534416" cy="19.6167858" r="1"></circle>
                    <path d="M40.6054416,38.0247858 C40.6054416,38.0247858 40.6054416,38.0247858 40.6054416,38.0247858 C40.6054416,34.9767858 35.5974416,32.5047858 29.4134416,32.5047858 C23.2294416,32.5047858 18.2214416,34.9767858 18.2214416,38.0247858 C18.2214416,38.1047858 18.2374416,38.1767858 18.2454416,38.2567858 C21.0454416,39.2727858 24.7334416,39.8647858 29.4294416,39.8647858 C34.1254416,39.8647858 37.7254416,39.1927858 40.5974416,38.0327858 L40.6054416,38.0247858 Z" fill="#F7BA69"></path>
                    <circle fill="#F7BA69" cx="54.9974416" cy="20.6567858" r="1"></circle>
                    <ellipse fill="#F7BA69" cx="55.7494416" cy="24.9047858" rx="1" ry="1"></ellipse>
                    <ellipse fill="#F7BA69" transform="translate(57.784388, 21.838670) rotate(-84.270000) translate(-57.784388, -21.838670) " cx="57.7843883" cy="21.8386697" rx="1" ry="1"></ellipse>
                    <ellipse fill="#F7BA69" cx="4.43744158" cy="18.9687858" rx="1" ry="1"></ellipse>
                    <ellipse fill="#F7BA69" cx="3.61344158" cy="24.3607858" rx="1" ry="1"></ellipse>
                    <ellipse fill="#F7BA69" cx="1.36544158" cy="20.7047858" rx="1" ry="1"></ellipse>
                    <path d="M27.6454416,27.2567858 C27.6454416,27.2567858 28.4614416,29.3927858 29.3574416,29.2807858 C30.2534416,29.1687858 30.6134416,28.2007858 29.9174416,26.5847858 C29.9174416,26.5847858 31.0134416,28.5287858 31.7494416,28.1287858 C32.4854416,27.7287858 33.0054416,27.4327858 32.3974416,26.3767858 C31.7894416,25.3207858 31.6134416,25.0487858 31.6134416,25.0487858 L27.6534416,27.2487858 L27.6454416,27.2567858 Z" fill="#FFFFFF"></path>
                    <path d="M26.0934416,27.9047858 C26.0134416,27.9047858 25.9414416,27.8407858 25.9254416,27.7527858 C25.9014416,27.6487858 25.9654416,27.5527858 26.0694416,27.5287858 C26.1014416,27.5287858 29.3974416,26.8007858 32.2214416,24.3127858 C32.3014416,24.2407858 32.4214416,24.2487858 32.4854416,24.3287858 C32.5574416,24.4087858 32.5494416,24.5287858 32.4694416,24.5927858 C29.5654416,27.1527858 26.1814416,27.8887858 26.1414416,27.8967858 C26.1254416,27.8967858 26.1014416,27.8967858 26.0854416,27.8967858 L26.0934416,27.9047858 Z" fill="#1A1A1A"></path>
                </g>
            </g>
        </g>
    </g>
</svg>