<svg width="20" height="20" viewBox="0 0 20 20" fill="none" xmlns="http://www.w3.org/2000/svg">
<path fill-rule="evenodd" clip-rule="evenodd" d="M4.99985 10C4.99985 11.0312 4.1561 11.875 3.12485 11.875C2.0936 11.875 1.24985 11.0312 1.24985 10C1.24985 8.96875 2.0936 8.125 3.12485 8.125C4.1561 8.125 4.99985 8.96875 4.99985 10ZM10 8.125C8.96875 8.125 8.125 8.96875 8.125 10C8.125 11.0312 8.96875 11.875 10 11.875C11.0313 11.875 11.875 11.0312 11.875 10C11.875 8.96875 11.0313 8.125 10 8.125ZM16.875 8.125C15.8438 8.125 15 8.96875 15 10C15 11.0312 15.8438 11.875 16.875 11.875C17.9063 11.875 18.75 11.0312 18.75 10C18.75 8.96875 17.9063 8.125 16.875 8.125Z" fill="white"/>
</svg>
