<svg width="20" height="20" viewBox="0 0 20 20" fill="none" xmlns="http://www.w3.org/2000/svg">
<path fill-rule="evenodd" clip-rule="evenodd" d="M1.25 10C1.25 14.832 5.16797 18.75 10 18.75C14.832 18.75 18.75 14.832 18.75 10C18.75 5.16797 14.832 1.25 10 1.25C5.16797 1.25 1.25 5.16797 1.25 10ZM2.73438 10.0001C2.73438 5.98834 5.98828 2.73443 10 2.73443C14.0117 2.73443 17.2656 5.98834 17.2656 10.0001C17.2656 14.0118 14.0117 17.2657 10 17.2657C5.98828 17.2657 2.73438 14.0118 2.73438 10.0001ZM9.00009 6.75745C9.00009 6.20517 9.44781 5.75745 10.0001 5.75745C10.5524 5.75745 11.0001 6.20517 11.0001 6.75745C11.0001 7.30974 10.5524 7.75745 10.0001 7.75745C9.44781 7.75745 9.00009 7.30974 9.00009 6.75745ZM10.7875 9.53749C10.7875 9.10258 10.5053 8.75002 10.0704 8.75002C9.63549 8.75002 9.21255 9.10257 9.21255 9.53748L9.2125 13.5876C9.2125 14.0225 9.56509 14.3749 9.9999 14.3748C10.4348 14.3748 10.7875 14.0224 10.7875 13.5875V9.53749Z" fill="#5B8EF4"/>
</svg>
