<svg width="160" height="140" viewBox="0 0 160 140" fill="none" xmlns="http://www.w3.org/2000/svg">
<path d="M35.0442 37.6162C32.9796 37.6162 31.3059 39.2899 31.3059 41.3545L31.3059 88.8417C31.3059 90.9063 32.9796 92.58 35.0442 92.58H48.0252C48.8536 92.58 49.5252 93.2516 49.5252 94.08V105.061C49.5252 106.342 51.0272 107.034 52.0004 106.201L65.5904 94.572C66.2676 93.9925 67.1296 93.674 68.0209 93.674H104.801C106.866 93.674 108.54 92.0003 108.54 89.9357V41.3545C108.54 39.2899 106.866 37.6162 104.801 37.6162H35.0442Z" fill="#358FFF"/>
<path d="M44.6001 54.6338H87.3353M44.6001 64.9402H87.3353M44.6001 75.2618H64.2069" stroke="white" stroke-width="2" stroke-miterlimit="10"/>
<path d="M130.956 50.918C133.021 50.918 134.694 52.5917 134.694 54.6563V106.104C134.694 108.169 133.021 109.843 130.956 109.843H117.975C117.147 109.843 116.475 110.514 116.475 111.343V122.325C116.475 123.606 114.974 124.297 114 123.464L100.41 111.835C99.7325 111.256 98.8705 110.937 97.9792 110.937H61.1993C59.1346 110.937 57.4609 109.264 57.4609 107.199V54.6563C57.4609 52.5917 59.1346 50.918 61.1993 50.918H130.956Z" fill="#85BFFF"/>
<path d="M80.3344 84.7953C80.9576 84.7953 81.5746 84.672 82.1503 84.4324C82.726 84.1929 83.2491 83.8418 83.6897 83.3991C84.1303 82.9565 84.4798 82.431 84.7183 81.8527C84.9568 81.2743 85.0795 80.6545 85.0795 80.0285C85.0795 79.4025 84.9568 78.7827 84.7183 78.2043C84.4798 77.626 84.1303 77.1005 83.6897 76.6579C83.2491 76.2152 82.726 75.8641 82.1503 75.6246C81.5746 75.385 80.9576 75.2617 80.3344 75.2617C79.076 75.2617 77.869 75.7639 76.9792 76.6579C76.0893 77.5518 75.5894 78.7643 75.5894 80.0285C75.5894 81.2927 76.0893 82.5052 76.9792 83.3991C77.869 84.2931 79.076 84.7953 80.3344 84.7953ZM97.3598 84.7953C97.9829 84.7953 98.5999 84.672 99.1756 84.4324C99.7513 84.1929 100.274 83.8418 100.715 83.3991C101.156 82.9565 101.505 82.431 101.744 81.8527C101.982 81.2743 102.105 80.6545 102.105 80.0285C102.105 79.4025 101.982 78.7827 101.744 78.2043C101.505 77.626 101.156 77.1005 100.715 76.6579C100.274 76.2152 99.7513 75.8641 99.1756 75.6246C98.5999 75.385 97.9829 75.2617 97.3598 75.2617C96.1013 75.2617 94.8944 75.7639 94.0045 76.6579C93.1146 77.5518 92.6147 78.7643 92.6147 80.0285C92.6147 81.2927 93.1146 82.5052 94.0045 83.3991C94.8944 84.2931 96.1013 84.7953 97.3598 84.7953ZM113.46 84.7953C114.083 84.7953 114.7 84.672 115.276 84.4324C115.852 84.1929 116.375 83.8418 116.815 83.3991C117.256 82.9565 117.605 82.431 117.844 81.8527C118.082 81.2743 118.205 80.6545 118.205 80.0285C118.205 79.4025 118.082 78.7827 117.844 78.2043C117.605 77.626 117.256 77.1005 116.815 76.6579C116.375 76.2152 115.852 75.8641 115.276 75.6246C114.7 75.385 114.083 75.2617 113.46 75.2617C112.202 75.2617 110.995 75.7639 110.105 76.6579C109.215 77.5518 108.715 78.7643 108.715 80.0285C108.715 81.2927 109.215 82.5052 110.105 83.3991C110.995 84.2931 112.202 84.7953 113.46 84.7953Z" fill="white"/>
<path d="M66.5363 130.733C66.5363 130.733 17.3721 119.134 25.5757 101.153C30.9323 91.8715 46.9225 108.502 35.2414 113.645C26.1584 117.644 12.4538 103.839 14.1693 88.25" stroke="#85BFFF" stroke-linecap="round"/>
<path d="M71.8228 128.591C71.8228 128.591 72.6413 128.701 76.4663 127.831C80.6812 126.381 85.5052 127.542 86.3162 131.111C87.2879 135.386 76.4249 140.383 71.8228 128.591Z" fill="#85BFFF"/>
</svg>
