<svg width="36" height="36" viewBox="0 0 36 36" fill="none" xmlns="http://www.w3.org/2000/svg">
<path fill-rule="evenodd" clip-rule="evenodd" d="M27.1431 25.854V22.91C27.1431 22.3577 26.6954 21.91 26.1431 21.91C25.5908 21.91 25.1431 22.3577 25.1431 22.91V26.4224C25.1431 26.4965 25.1511 26.5687 25.1664 26.6382C25.1511 26.7077 25.1431 26.7799 25.1431 26.854C25.1431 27.4063 25.5908 27.854 26.1431 27.854H29.6554C30.2077 27.854 30.6554 27.4063 30.6554 26.854C30.6554 26.3017 30.2077 25.854 29.6554 25.854H27.1431Z" fill="#DEE2E8"/>
<path fill-rule="evenodd" clip-rule="evenodd" d="M6.37915 30.6104H19.1286C19.5619 31.3576 20.1071 32.0319 20.7413 32.6104H6.37915C4.51565 32.6104 3 31.1619 3 29.381V5.19815C3 3.41723 4.51565 1.96875 6.37915 1.96875H24.9234C26.7869 1.96875 28.3025 3.41723 28.3025 5.19815V18.2159C27.6917 18.0747 27.0554 18 26.4016 18C26.3685 18 26.3355 18.0002 26.3025 18.0006V5.19815C26.3025 4.60627 25.7687 3.96875 24.9234 3.96875H6.37915C5.53381 3.96875 5 4.60627 5 5.19815V29.381C5 29.9728 5.53381 30.6104 6.37915 30.6104ZM9 8.94336C8.44772 8.94336 8 9.39107 8 9.94336C8 10.4956 8.44772 10.9434 9 10.9434H22C22.5523 10.9434 23 10.4956 23 9.94336C23 9.39107 22.5523 8.94336 22 8.94336H9ZM8 16.144C8 15.5918 8.44772 15.144 9 15.144H18C18.5523 15.144 19 15.5918 19 16.144C19 16.6963 18.5523 17.144 18 17.144H9C8.44772 17.144 8 16.6963 8 16.144ZM9 21.3442C8.44772 21.3442 8 21.792 8 22.3442C8 22.8965 8.44772 23.3442 9 23.3442H15.1921C15.7444 23.3442 16.1921 22.8965 16.1921 22.3442C16.1921 21.792 15.7444 21.3442 15.1921 21.3442H9Z" fill="#DEE2E8"/>
<path d="M32.8 26.4C32.8 22.8654 29.9346 20 26.4 20C22.8654 20 20 22.8654 20 26.4H18C18 21.7608 21.7608 18 26.4 18C31.0392 18 34.8 21.7608 34.8 26.4H32.8Z" fill="#DEE2E8"/>
<path d="M32.8 26.3999C32.8 29.9345 29.9346 32.7999 26.4 32.7999C22.8654 32.7999 20 29.9345 20 26.3999H18C18 31.0391 21.7608 34.7999 26.4 34.7999C31.0392 34.7999 34.8 31.0391 34.8 26.3999H32.8Z" fill="#DEE2E8"/>
</svg>
