<svg width="48" height="48" viewBox="0 0 48 48" fill="none" xmlns="http://www.w3.org/2000/svg">
<g clip-path="url(#clip0_6758_29981)">
<rect width="48" height="48" rx="24" fill="#5B8EF4"/>
<path d="M22.2895 14.9718C18.989 16.4197 16.5995 20.3463 17.774 24.7062C18.6022 27.1179 20.1783 28.8569 22.6532 29.7353C26.9811 31.2715 31.5732 27.8477 30.9158 23.4532C30.636 21.5835 29.438 20.3519 27.7969 19.894C26.3922 19.5651 24.9749 19.8102 23.9549 20.7837C23.2465 21.4598 22.8361 22.5323 23.0566 23.6662C23.2663 24.3605 23.6005 24.7925 24.4554 24.9987C24.9254 25.112 25.5254 24.9987 25.7095 24.5743C25.8344 24.2866 25.7187 24.0509 25.6337 23.7783C25.4025 23.0369 25.5525 22.6094 25.957 22.2432C26.4997 21.7063 27.4214 21.6977 28.0064 22.11C28.759 22.4952 29.358 23.7215 28.653 25.606C27.8464 27.5448 25.7443 28.129 23.7842 27.621C20.951 26.8867 19.4066 23.6662 20.0852 21.1059C21.2143 16.8461 25.9622 15.5282 29.9106 17.4833C32.5749 18.9833 34.2431 21.4037 34.1944 24.6916C33.9859 30.0986 28.5161 34.0864 23.0451 33.0437C17.5512 31.8926 14.2533 27.1345 14.1805 22.4732C14.1534 20.7404 14.4838 18.9913 15.3877 17.1475C17.5334 13.0937 21.2609 11.1967 26.0066 10.9131C27.2517 10.8387 28.1544 10.9131 29.7291 11.0685C29.6658 11.0404 29.5212 10.9693 29.3706 10.9131C27.1239 10.0718 24.8019 9.80353 22.4226 10.1429C20.8926 10.3612 19.6379 10.7992 18.3998 11.3692C17.8665 11.5564 17.7873 11.1036 17.3755 10.7602C17.183 10.6 17.2022 10.8035 17.2022 10.8035C17.3701 11.6024 16.9971 12.0054 16.9403 12.0449C16.742 12.2385 16.2599 12.597 15.9281 12.7422C15.2437 13.0416 14.926 12.5486 14.3809 12.271C14.0074 12.081 14.1534 12.3956 14.1534 12.3956C14.6159 13.3146 14.2921 14.1571 14.2174 14.2898C13.899 14.7512 13.6327 15.0787 13.2034 15.4669C12.4493 16.1487 11.5535 15.491 11.2868 15.3915C10.7838 15.2038 11.1479 15.6327 11.1479 15.6327C11.3484 15.8992 12.071 17.429 11.8467 17.9136C10.5685 20.5617 10.1505 23.6133 10.715 26.6592C12.815 37.1685 24.7602 40.813 32.1938 35.7341C36.1386 32.8197 37.4844 28.2831 37.5292 25.454C37.574 22.6249 36.8622 20.5676 35.5487 18.7313C32.4335 14.376 26.7966 12.9946 22.2895 14.9718Z" fill="white"/>
</g>
<defs>
<clipPath id="clip0_6758_29981">
<rect width="48" height="48" rx="24" fill="white"/>
</clipPath>
</defs>
</svg>
