<svg width="20" height="20" viewBox="0 0 20 20" fill="none" xmlns="http://www.w3.org/2000/svg">
<path d="M9.39089 10.7247C9.39087 9.43544 10.1747 8.68723 11.464 8.3112L12.8516 3.47258L11.464 2.43736L16.9923 2.43735L15.6103 3.47259L16.9923 8.31122C18.3168 8.76422 19.0655 9.43544 19.0655 10.7247C19.0655 10.7247 16.9837 10.7247 15.2647 10.7247L14.2282 17.6403L13.1739 10.7247C11.4549 10.7247 9.39089 10.7247 9.39089 10.7247Z" stroke="#5B8EF4" stroke-width="1.5" stroke-linejoin="round"/>
<path fill-rule="evenodd" clip-rule="evenodd" d="M6.22266 7.84021C6.22266 8.11635 5.9988 8.34021 5.72266 8.34021H0.722656C0.446514 8.34021 0.222656 8.11635 0.222656 7.84021V7.34021C0.222656 7.06407 0.446514 6.84021 0.722656 6.84021H5.72266C5.9988 6.84021 6.22266 7.06407 6.22266 7.34021V7.84021Z" fill="#5B8EF4"/>
<path fill-rule="evenodd" clip-rule="evenodd" d="M6.22266 11.7411C6.22266 12.0172 5.9988 12.2411 5.72266 12.2411H0.722656C0.446514 12.2411 0.222656 12.0172 0.222656 11.7411V11.2411C0.222656 10.9649 0.446514 10.7411 0.722656 10.7411H5.72266C5.9988 10.7411 6.22266 10.9649 6.22266 11.2411V11.7411Z" fill="#5B8EF4"/>
<path fill-rule="evenodd" clip-rule="evenodd" d="M11.0493 15.642C11.0493 15.9181 10.8255 16.142 10.5493 16.142H0.722656C0.446514 16.142 0.222656 15.9181 0.222656 15.642V15.142C0.222656 14.8658 0.446514 14.642 0.722656 14.642H10.5493C10.8255 14.642 11.0493 14.8658 11.0493 15.142V15.642Z" fill="#5B8EF4"/>
</svg>
