<svg width="12" height="12" viewBox="0 0 12 12" fill="none" xmlns="http://www.w3.org/2000/svg">
<path d="M7.27357 0.310497C7.43865 0.208786 7.65032 0.224261 7.79886 0.348899L11.1989 3.20187C11.3473 3.32641 11.3994 3.53196 11.3281 3.71212C11.2568 3.89228 11.0783 4.0066 10.8848 3.99591L9.80998 3.93647L8.38281 7.13313C8.62624 7.57613 8.79047 8.02425 8.81001 8.48046C8.83339 9.02658 8.64754 9.53195 8.25261 10.0026C8.1759 10.0941 8.066 10.1513 7.94711 10.1617C7.82822 10.1721 7.71006 10.1348 7.61863 10.0581L5.57799 8.3458L1.66196 11.8074C1.49522 11.9548 1.24577 11.9582 1.07511 11.8153C0.904442 11.6725 0.863827 11.4264 0.979554 11.2363L3.69902 6.76916L1.66877 5.06557C1.47839 4.90582 1.45332 4.62179 1.61306 4.43141C2.00959 3.95883 2.49013 3.68323 3.0356 3.60755C3.49205 3.54423 3.96114 3.62532 4.42554 3.79897L7.3194 1.84715L7.07163 0.796949C7.02711 0.608227 7.10848 0.412207 7.27357 0.310497Z" fill="white"/>
</svg>
