
<svg width="16px" height="16px" viewBox="0 0 16 16" version="1.1" xmlns="http://www.w3.org/2000/svg" xmlns:xlink="http://www.w3.org/1999/xlink">
    <title>uhxdjnzjyz</title>
    <g id="syytnwgkre" stroke="none" stroke-width="1" fill="none" fill-rule="evenodd">
        <g id="chqddghhno" transform="translate(-149.000000, -194.000000)">
            <g id="xskxuulote" transform="translate(149.000000, 194.000000)">
                <rect id="rlyzbkdjet" x="0" y="0" width="16" height="16"></rect>
                <path d="M8,0 C12.418278,0 16,3.581722 16,8 C16,12.418278 12.418278,16 8,16 C3.581722,16 0,12.418278 0,8 C0,3.581722 3.581722,0 8,0 Z M8,1.35906467 C4.33231269,1.35906467 1.35906467,4.33231269 1.35906467,8 C1.35906467,11.6676873 4.33231269,14.6409353 8,14.6409353 C11.6676873,14.6409353 14.6409353,11.6676873 14.6409353,8 C14.6409353,4.33231269 11.6676873,1.35906467 8,1.35906467 Z M7.99483871,10.6650391 C8.22193548,10.6650391 8.41806452,10.7392112 8.57290323,10.8875556 C8.71741935,11.0359 8.8,11.2266285 8.8,11.459741 C8.8,11.6928536 8.71741935,11.8941781 8.57290323,12.0425225 C8.40774194,12.1908669 8.22193548,12.2650391 7.99483871,12.2650391 C7.76774194,12.2650391 7.58193548,12.1802709 7.43741935,12.0319265 C7.27225806,11.8835821 7.2,11.6928536 7.2,11.459741 C7.2,11.2525299 7.25709279,11.0788074 7.38577813,10.9385735 L7.43741935,10.8875556 C7.58193548,10.7392112 7.76774194,10.6650391 7.99483871,10.6650391 Z M7.98192124,4.27429985 C9.30944573,4.27429985 10.2473943,5.20482616 10.2473943,6.35183399 C10.2473943,7.03319716 10.0167644,7.46578709 9.52494123,7.9433251 L9.07744064,8.36973146 L8.92838883,8.51909949 C8.70725291,8.75025948 8.61865445,8.89807675 8.60437321,9.04641615 L8.60226014,9.0910175 C8.60226014,9.42363659 8.33261909,9.69327764 8,9.69327764 C7.66738091,9.69327764 7.39773986,9.42363659 7.39773986,9.0910175 C7.39773986,8.5113187 7.63013294,8.11570438 8.13475581,7.60778444 L8.48667496,7.26795427 C8.55566553,7.20273184 8.65498663,7.10911902 8.68585948,7.07914288 C8.96452115,6.80857503 9.04287406,6.66160937 9.04287406,6.35183399 C9.04287406,5.87221594 8.64634033,5.47882012 7.98192124,5.47882012 C7.45754557,5.47882012 7.00460592,5.99071036 6.96062289,6.35730914 L6.95712594,6.41388993 C6.95712594,6.74650902 6.6874849,7.01615007 6.35486581,7.01615007 C6.02224672,7.01615007 5.75260567,6.74650902 5.75260567,6.41388993 C5.75260567,5.42432859 6.7112902,4.27429985 7.98192124,4.27429985 Z" id="gbggyowszc" fill="#515A62" fill-rule="nonzero"></path>
            </g>
        </g>
    </g>
</svg>