
<svg width="24px" height="24px" viewBox="0 0 24 24" version="1.1" xmlns="http://www.w3.org/2000/svg" xmlns:xlink="http://www.w3.org/1999/xlink">
    <title>wxwmniiwhr</title>
    <g id="gvtmiswntt" stroke="none" stroke-width="1" fill="none" fill-rule="evenodd">
        <g id="jomqwxhjpt" transform="translate(-335.000000, -48.000000)">
            <g id="eedfstkgjh" transform="translate(335.000000, 48.000000)">
                <rect id="yhnbyscmsp" x="0" y="0" width="24" height="24"></rect>
                <g id="vdccogtvpz" transform="translate(1.500000, 1.500000)" fill="#FFFFFF">
                    <path d="M19.3599785,3.18562139 C21.277249,4.96227137 22.2346821,7.42884239 22.2346821,10.5376084 C22.2346821,15.1909748 18.9537857,18.3320762 14.1324701,18.4511668 L13.8470997,18.4546752 L8.574,18.454 L8.57436929,21 L4.78380918,17.818344 L8.57436929,14.636688 L8.574,17.182 L13.8470997,17.1820128 C18.1686429,17.1820128 21,14.5485229 21,10.5376084 C21,7.89385499 20.2473517,5.83991166 18.7441591,4.33401073 L18.5345263,4.13205364 L19.3599785,3.18562139 Z M13.6603128,1.6034502e-13 L17.450873,3.18165601 L13.6603128,6.36331202 L13.66,3.817 L8.3875824,3.81798721 C4.06603922,3.81798721 1.23468214,6.4514771 1.23468214,10.4623916 C1.23468214,13.106145 1.98733046,15.1600883 3.49052308,16.6659893 L3.70015583,16.8679464 L2.87470366,17.8143786 C0.957433165,16.0377286 1.41536238e-13,13.5711576 1.41536238e-13,10.4623916 C1.41536238e-13,5.80902516 3.28089641,2.66792384 8.102212,2.54883317 L8.3875824,2.54532481 L13.66,2.545 L13.6603128,1.6034502e-13 Z" id="bnvixndeku"></path>
                </g>
            </g>
        </g>
    </g>
</svg>