<svg width="20" height="20" viewBox="0 0 20 20" fill="none" xmlns="http://www.w3.org/2000/svg">
<g clip-path="url(#clip0_6345_69256)">
<path d="M2.25 4C2.25 3.0335 3.0335 2.25 4 2.25H7C7.41421 2.25 7.75 2.58579 7.75 3C7.75 3.41421 7.41421 3.75 7 3.75H4C3.86193 3.75 3.75 3.86193 3.75 4V7C3.75 7.41421 3.41421 7.75 3 7.75C2.58579 7.75 2.25 7.41421 2.25 7V4Z" fill="#515A62"/>
<path d="M17.75 4C17.75 3.0335 16.9665 2.25 16 2.25H13C12.5858 2.25 12.25 2.58579 12.25 3C12.25 3.41421 12.5858 3.75 13 3.75H16C16.1381 3.75 16.25 3.86193 16.25 4V7C16.25 7.41421 16.5858 7.75 17 7.75C17.4142 7.75 17.75 7.41421 17.75 7V4Z" fill="#515A62"/>
<path d="M2.25 16C2.25 16.9665 3.0335 17.75 4 17.75H7C7.41421 17.75 7.75 17.4142 7.75 17C7.75 16.5858 7.41421 16.25 7 16.25H4C3.86193 16.25 3.75 16.1381 3.75 16V13C3.75 12.5858 3.41421 12.25 3 12.25C2.58579 12.25 2.25 12.5858 2.25 13V16Z" fill="#515A62"/>
<path d="M17.75 16C17.75 16.9665 16.9665 17.75 16 17.75H13C12.5858 17.75 12.25 17.4142 12.25 17C12.25 16.5858 12.5858 16.25 13 16.25H16C16.1381 16.25 16.25 16.1381 16.25 16V13C16.25 12.5858 16.5858 12.25 17 12.25C17.4142 12.25 17.75 12.5858 17.75 13V16Z" fill="#515A62"/>
<path d="M2.25 10C2.25 9.58579 2.58579 9.25 3 9.25H17C17.4142 9.25 17.75 9.58579 17.75 10C17.75 10.4142 17.4142 10.75 17 10.75H3C2.58579 10.75 2.25 10.4142 2.25 10Z" fill="#515A62"/>
</g>
<defs>
<clipPath id="clip0_6345_69256">
<rect width="20" height="20" fill="white"/>
</clipPath>
</defs>
</svg>
