
<svg width="20px" height="20px" viewBox="0 0 20 20" version="1.1" xmlns="http://www.w3.org/2000/svg" xmlns:xlink="http://www.w3.org/1999/xlink">
    <title>sdcfxhevmq</title>
    <g id="wiqdphwtgu" stroke="none" stroke-width="1" fill="none" fill-rule="evenodd">
        <g id="ddbxhizwny" transform="translate(-50.000000, -208.000000)">
            <g id="cxxrwobcfu" transform="translate(0.000000, 198.000000)">
                <g id="eetswstisd" transform="translate(50.000000, 10.000000)">
                    <circle id="wdxvsjnldk" fill="#34C759" cx="10" cy="10" r="10"></circle>
                    <path d="M9.39093619,14.3181818 C9.22638976,14.3171073 9.06720223,14.2590838 8.94001736,14.1538228 L4.86093625,10.6568226 C4.63429536,10.5081943 4.51395246,10.2403549 4.55259701,9.97057183 C4.59124156,9.70078877 4.78183195,9.47822056 5.04092242,9.40031374 C5.30001289,9.32240692 5.58039329,9.40335728 5.7593053,9.6077225 L9.26953497,12.6186397 L14.1984246,5.74353723 C14.4235145,5.43066019 14.8575635,5.36098832 15.1679001,5.58792075 C15.4782368,5.81485318 15.547343,6.25245522 15.3222531,6.56533229 L9.95285043,14.0314278 C9.83934333,14.1888878 9.66588373,14.2915345 9.47418275,14.3146848 L9.39093619,14.3181818 Z" id="owjmqwjovq" fill="#FFFFFF"></path>
                </g>
            </g>
        </g>
    </g>
</svg>