
<svg width="26px" height="26px" viewBox="0 0 26 26" version="1.1" xmlns="http://www.w3.org/2000/svg" xmlns:xlink="http://www.w3.org/1999/xlink">
    <title>zqlgqdoeve</title>
    <g id="ojhmhoxoyx" stroke="none" stroke-width="1" fill="none" fill-rule="evenodd">
        <g transform="translate(-16.000000, -443.000000)" id="cfxfsuxndc">
            <g transform="translate(0.000000, 424.000000)">
                <g id="pmsfcnggwg" transform="translate(16.000000, 19.000000)">
                    <rect id="imrsgfmkhg" fill="#E9447B" x="0" y="0" width="26" height="26" rx="6"></rect>
                    <g id="evjrqmxgyk" transform="translate(6.000000, 7.000000)" fill="#FFFFFF" fill-rule="nonzero">
                        <path d="M13.07655,7.0709625 C13.05,7.10685 13.020525,7.141275 12.9879,7.1737875 L7.836525,12.3251625 C7.48506226,12.6765812 6.91527524,12.6765812 6.5638125,12.3251625 L1.4668875,7.2284625 C1.43057769,7.19215493 1.39742076,7.15282577 1.367775,7.1109 C0.52875,6.3660375 0,5.2774875 0,4.065075 C0,1.820025 1.813275,0 4.05,0 C5.322375,0 6.4575,0.588825 7.2,1.50975 C7.9425,0.588825 9.077625,0 10.35,0 C12.586725,0 14.4,1.820025 14.4,4.065075 C14.4,5.256 13.8897,6.32745 13.07655,7.07085 L13.07655,7.0709625 Z" id="pxbzmejnjz"></path>
                    </g>
                </g>
            </g>
        </g>
    </g>
</svg>