
<svg width="26px" height="26px" viewBox="0 0 26 26" version="1.1" xmlns="http://www.w3.org/2000/svg" xmlns:xlink="http://www.w3.org/1999/xlink">
    <title>otxgxofwcv</title>
    <g id="ifugkgqdgi" stroke="none" stroke-width="1" fill="none" fill-rule="evenodd">
        <g transform="translate(-16.000000, -315.000000)" id="nfqvddjhuq">
            <g transform="translate(0.000000, 296.000000)">
                <g id="vrvmujmfpn" transform="translate(16.000000, 19.000000)">
                    <rect id="bdcrugnzos" fill="#3B99FB" x="0" y="0" width="26" height="26" rx="6"></rect>
                    <g id="vqqztwznqg" transform="translate(4.333333, 4.333333)">
                        <rect id="gvfleywpzq" x="0" y="0" width="17.3333333" height="17.3333333"></rect>
                        <path d="M11.4817238,1.40833333 L11.4817238,3.04794286 L6.06827619,3.04794286 L6.06827619,1.40833333 L1.40833333,1.40833333 L1.40833333,6.06827619 L3.04794286,6.06827619 L3.04794286,11.4817238 L1.40833333,11.4817238 L1.40833333,16.1416667 L6.06827619,16.1416667 L6.06827619,14.5020571 L11.4817238,14.5020571 L11.4817238,16.1416667 L16.1416667,16.1416667 L16.1416667,11.4817238 L14.5020571,11.4817238 L14.5020571,6.06827619 L16.1416667,6.06827619 L16.1416667,1.40833333 L11.4817238,1.40833333 Z M12.8624476,4.68755238 L14.7598905,4.68755238 L14.7598905,2.79010952 L12.8624476,2.79010952 L12.8624476,4.68755238 Z M2.78905714,4.68755238 L4.68755238,4.68755238 L4.68755238,2.79010952 L2.78905714,2.79010952 L2.78905714,4.68755238 Z M4.42866667,6.06827619 L6.06827619,6.06827619 L6.06827619,4.42971905 L11.4817238,4.42971905 L11.4817238,6.06827619 L13.120281,6.06827619 L13.120281,11.4817238 L11.4817238,11.4817238 L11.4817238,13.1213333 L6.06827619,13.1213333 L6.06827619,11.4817238 L4.42866667,11.4817238 L4.42866667,6.06827619 Z M12.8624476,14.7619952 L14.7598905,14.7619952 L14.7598905,12.8635 L12.8624476,12.8635 L12.8624476,14.7619952 Z M2.78905714,14.7619952 L4.68755238,14.7619952 L4.68755238,12.8635 L2.78905714,12.8635 L2.78905714,14.7619952 Z" id="bhkkdxyrej" fill="#FFFFFF"></path>
                    </g>
                </g>
            </g>
        </g>
    </g>
</svg>