
<svg width="26px" height="26px" viewBox="0 0 26 26" version="1.1" xmlns="http://www.w3.org/2000/svg" xmlns:xlink="http://www.w3.org/1999/xlink">
    <title>hqqhptctxw</title>
    <g id="ssuuvfdsyp" stroke="none" stroke-width="1" fill="none" fill-rule="evenodd">
        <g transform="translate(-16.000000, -187.000000)" id="wjzfgrwvno">
            <g transform="translate(0.000000, 168.000000)">
                <g id="xclehrcsnh" transform="translate(16.000000, 19.000000)">
                    <rect id="xutrugqgiz" fill="#8E8D94" x="0" y="0" width="26" height="26" rx="6"></rect>
                    <path d="M17.1477323,10.5663774 L17.1477323,8.85057947 C17.1477323,6.50633079 15.2434973,4.6 12.9005536,4.6 C10.5575704,4.6 8.65116048,6.50633079 8.65116048,8.85057947 L8.65116048,10.5663774 L7.44919968,10.5663774 C6.86971182,10.5663774 6.4,11.0363265 6.4,11.6162098 L6.4,19.2800495 C6.4,19.860961 6.86971182,20.3309496 7.44919968,20.3309496 L18.3517494,20.3309496 C18.9313954,20.3309496 19.4,19.860961 19.4,19.2800495 L19.4,11.6162098 C19.4,11.0362474 18.9304068,10.5663774 18.3507212,10.5663774 L17.1477323,10.5663774 Z M13.4897695,17.321322 C13.4897695,17.396101 13.4279216,17.4590957 13.3520353,17.4590957 L12.4501001,17.4590957 C12.3732648,17.4590957 12.3113773,17.3960614 12.3113773,17.321322 L12.3113773,15.6478303 C11.8876164,15.4310068 11.5940762,14.9963316 11.5940762,14.4868773 C11.5940762,13.7660172 12.1790212,13.1797277 12.8995255,13.1797277 C13.6210974,13.1797277 14.2060873,13.7660172 14.2060873,14.4868773 C14.2071101,14.9963711 13.9135304,15.4310068 13.4897695,15.6478303 L13.4897695,17.321322 Z M15.5178188,10.5663774 L10.2831698,10.5663774 L10.2831698,8.91990132 C10.2831698,7.47596656 11.4583984,6.30014479 12.9015422,6.30014479 C14.3446861,6.30014479 15.5178188,7.47596656 15.5178188,8.91990132 L15.5178188,10.5663774 Z" id="fnvpuluuts" fill="#FFFFFF" fill-rule="nonzero"></path>
                </g>
            </g>
        </g>
    </g>
</svg>