<svg width="20" height="20" viewBox="0 0 20 20" fill="none" xmlns="http://www.w3.org/2000/svg">
<path d="M20 10C20 15.5228 15.5228 20 10 20C4.47715 20 0 15.5228 0 10C0 4.47715 4.47715 0 10 0C15.5228 0 20 4.47715 20 10ZM10.3585 7.38244C9.38581 7.787 7.44188 8.62433 4.52668 9.89443C4.0533 10.0827 3.80532 10.2668 3.78274 10.4469C3.74459 10.7512 4.12569 10.8711 4.64466 11.0343C4.71525 11.0565 4.7884 11.0795 4.86338 11.1038C5.37397 11.2698 6.06079 11.464 6.41784 11.4717C6.74172 11.4787 7.10321 11.3452 7.5023 11.0711C10.2261 9.2325 11.6321 8.30317 11.7204 8.28314C11.7826 8.26901 11.8689 8.25123 11.9274 8.3032C11.9859 8.35518 11.9801 8.4536 11.9739 8.48C11.9362 8.64095 10.4402 10.0317 9.66604 10.7515C9.42469 10.9759 9.2535 11.135 9.2185 11.1714C9.14011 11.2528 9.06021 11.3298 8.98342 11.4038C8.50907 11.8611 8.15336 12.204 9.00311 12.764C9.41147 13.0331 9.73824 13.2556 10.0642 13.4776C10.4202 13.7201 10.7753 13.9619 11.2348 14.2631C11.3518 14.3398 11.4636 14.4195 11.5725 14.4971C11.9868 14.7925 12.3591 15.0578 12.8189 15.0155C13.0861 14.9909 13.3622 14.7397 13.5023 13.9903C13.8336 12.2193 14.4848 8.38205 14.6353 6.80081C14.6485 6.66227 14.6319 6.48498 14.6186 6.40715C14.6052 6.32931 14.5774 6.21842 14.4762 6.13633C14.3564 6.03911 14.1715 6.01861 14.0887 6.02007C13.7126 6.0267 13.1356 6.22735 10.3585 7.38244Z" fill="#26A4E3"/>
</svg>
