<svg width="40" height="40" viewBox="0 0 40 40" fill="none" xmlns="http://www.w3.org/2000/svg">
<path fill-rule="evenodd" clip-rule="evenodd" d="M20 40C31.0457 40 40 31.0457 40 20C40 8.9543 31.0457 0 20 0C8.9543 0 0 8.9543 0 20C0 31.0457 8.9543 40 20 40Z" fill="#DEE2E8"/>
<path d="M39.5 20C39.5 30.7696 30.7696 39.5 20 39.5C9.23045 39.5 0.5 30.7696 0.5 20C0.5 9.23045 9.23045 0.5 20 0.5C30.7696 0.5 39.5 9.23045 39.5 20Z" fill="white"/>
<path fill-rule="evenodd" clip-rule="evenodd" d="M21.826 12.9187C23.1843 12.9187 24.2854 11.8176 24.2854 10.4594C24.2854 9.10109 23.1843 8 21.826 8C20.4677 8 19.3666 9.10109 19.3666 10.4594C19.3666 11.8176 20.4677 12.9187 21.826 12.9187ZM32.9355 20C32.9355 22.7634 30.6954 25.0035 27.932 25.0035C25.1686 25.0035 22.9285 22.7634 22.9285 20C22.9285 17.2366 25.1686 14.9965 27.932 14.9965C30.6954 14.9965 32.9355 17.2366 32.9355 20ZM24.2854 29.5406C24.2854 30.8989 23.1843 32 21.826 32C20.4677 32 19.3666 30.8989 19.3666 29.5406C19.3666 28.1824 20.4677 27.0813 21.826 27.0813C23.1843 27.0813 24.2854 28.1824 24.2854 29.5406ZM9.23236 13.0883C8.51151 14.9965 9.52918 17.159 11.4373 17.8799C12.7094 18.3463 14.0663 18.0919 15.0415 17.2862C15.932 16.6502 17.0769 16.4382 18.1794 16.8622C18.9002 17.1166 19.4514 17.583 19.8331 18.1767L19.8755 18.2615C20.0451 18.5159 20.2995 18.7703 20.6387 18.8551C21.402 19.1519 22.2924 18.7279 22.5468 17.9647C22.8437 17.2014 22.4196 16.311 21.6564 16.0565C21.3172 15.9293 20.9779 15.9293 20.6387 16.0565C19.9603 16.2686 19.197 16.2686 18.4762 16.0141C17.4161 15.6325 16.6953 14.7845 16.3984 13.8092L16.356 13.7244C16.356 13.682 16.356 13.6396 16.3136 13.6396V13.5548C16.0168 12.3675 15.2112 11.3498 13.9815 10.9258C12.0734 10.1625 9.91081 11.1378 9.23236 13.0883ZM11.4373 22.1201C9.52918 22.841 8.51151 25.0035 9.23236 26.9117C9.95321 28.8622 12.0734 29.8375 13.9815 29.0742C15.2112 28.6502 16.0168 27.6325 16.3136 26.4452V26.3604C16.356 26.3604 16.356 26.318 16.356 26.2756L16.3984 26.1908C16.6953 25.2155 17.4161 24.3675 18.4762 23.9859C19.197 23.7314 19.9603 23.7314 20.6387 23.9435C20.9779 24.0707 21.3172 24.0707 21.6564 23.9435C22.4196 23.689 22.8437 22.7986 22.5468 22.0353C22.2924 21.2721 21.402 20.8481 20.6387 21.1449C20.2995 21.2297 20.0451 21.4841 19.8755 21.7385L19.8331 21.8233C19.4514 22.417 18.9002 22.8834 18.1794 23.1378C17.0769 23.5618 15.932 23.3498 15.0415 22.7138C14.0663 21.9081 12.7094 21.6537 11.4373 22.1201Z" fill="#266CD3"/>
</svg>
