
<svg width="32px" height="32px" viewBox="0 0 32 32" version="1.1" xmlns="http://www.w3.org/2000/svg" xmlns:xlink="http://www.w3.org/1999/xlink">
    <title>xpkknuehvy</title>
    <g id="eulbbnxqrm" stroke="none" stroke-width="1" fill="none" fill-rule="evenodd">
        <g id="eudzzwtvdr" transform="translate(-20.000000, -143.000000)" fill="#5B8EF4">
            <g id="lridekvfou" transform="translate(0.000000, 108.000000)">
                <g id="flgsiymcxg" transform="translate(0.000000, 14.000000)">
                    <g id="pwcdhsukkd" transform="translate(20.000000, 21.000000)">
                        <path d="M16,0 C24.836556,0 32,7.163444 32,16 C32,24.836556 24.836556,32 16,32 C7.163444,32 0,24.836556 0,16 C0,7.163444 7.163444,0 16,0 Z M16,1.6 C8.0470996,1.6 1.6,8.0470996 1.6,16 C1.6,23.9529004 8.0470996,30.4 16,30.4 C23.9529004,30.4 30.4,23.9529004 30.4,16 C30.4,8.0470996 23.9529004,1.6 16,1.6 Z" id="vxcbxuglux" fill-rule="nonzero" transform="translate(16.000000, 16.000000) rotate(180.000000) translate(-16.000000, -16.000000) "></path>
                        <path d="M19.0690646,9.23884114 L23.0173388,13.1852548 C23.2134876,13.3814036 23.3035952,13.6438961 23.2876615,13.9009994 C23.288783,13.9226322 23.2894572,13.9445876 23.2894572,13.9667228 C23.2894572,14.4802589 22.9266042,14.8970419 22.4795175,14.8970419 L9.52048253,14.8970419 C9.07339582,14.8970419 8.71054284,14.4802589 8.71054284,13.9667228 C8.71054284,13.4531867 9.07339582,13.0364037 9.52048253,13.0364037 L20.2345428,13.0357228 L17.7535934,10.5543124 C17.3907689,10.1914879 17.3907689,9.60166559 17.7535934,9.23884114 C18.1164178,8.87601669 18.7062401,8.87601669 19.0690646,9.23884114 Z" id="bnkdtilqwg" transform="translate(16.000000, 11.931882) rotate(-360.000000) translate(-16.000000, -11.931882) "></path>
                        <path d="M19.0690646,17.3750764 L23.0173388,21.32149 C23.2134876,21.5176388 23.3035952,21.7801314 23.2876615,22.0372346 C23.288783,22.0588675 23.2894572,22.0808229 23.2894572,22.1029581 C23.2894572,22.6164942 22.9266042,23.0332772 22.4795175,23.0332772 L9.52048253,23.0332772 C9.07339582,23.0332772 8.71054284,22.6164942 8.71054284,22.1029581 C8.71054284,21.589422 9.07339582,21.172639 9.52048253,21.172639 L20.2345428,21.1719581 L17.7535934,18.6905476 C17.3907689,18.3277232 17.3907689,17.7379009 17.7535934,17.3750764 C18.1164178,17.012252 18.7062401,17.012252 19.0690646,17.3750764 Z" id="gfjjhtzuyu" transform="translate(16.000000, 20.068118) scale(-1, -1) rotate(-360.000000) translate(-16.000000, -20.068118) "></path>
                    </g>
                </g>
            </g>
        </g>
    </g>
</svg>