
<svg width="26px" height="26px" viewBox="0 0 26 26" version="1.1" xmlns="http://www.w3.org/2000/svg" xmlns:xlink="http://www.w3.org/1999/xlink">
    <title>bfzjdifnru</title>
    <g id="shwgftgldw" stroke="none" stroke-width="1" fill="none" fill-rule="evenodd">
        <g id="uorxfbuubq" transform="translate(-16.000000, -124.000000)">
            <g id="smircbhrns" transform="translate(0.000000, 104.000000)">
                <g id="cecroebdyy" transform="translate(16.000000, 20.000000)">
                    <rect id="qekopbfezf" fill="#3B99FB" x="0" y="0" width="26" height="26" rx="6"></rect>
                    <g id="ekumovytcz" transform="translate(5.000000, 6.000000)">
                        <path d="M2.49097985,0 L13.5445381,0 C14.8778715,0 16,0.8956667 16,2.26318806 L16,10.9606463 C16,12.3281676 14.8778715,13.3333333 13.5445381,13.3333333 L2.49097985,13.3333333 C1.15764653,13.3333333 0,12.3281676 0,10.9606463 L0,2.26318806 C0,0.8956667 1.15764651,0 2.49097985,0 Z" id="izrusmhkyu" fill="#FFFFFF"></path>
                        <path d="M8.29365081,4.66666667 L15,4.66666667 L15,9.66666667 L8.29365081,9.66666667 C7.60956066,9.66666667 6.95348905,9.40327458 6.46976426,8.93443363 C5.98603947,8.46559268 5.71428571,7.8297079 5.71428571,7.16666667 C5.71428571,6.50362544 5.98603947,5.86774065 6.46976426,5.3988997 C6.95348905,4.93005876 7.60956066,4.66666667 8.29365081,4.66666667 Z" id="nspugoduhd" fill="#3B99FB" fill-rule="nonzero"></path>
                        <path d="M7.21428571,7.16666667 C7.21428571,7.52393224 7.40488462,7.85405927 7.71428571,8.03269207 C8.02368679,8.21132487 8.40488464,8.21132487 8.71428571,8.03269207 C9.0236868,7.85405927 9.21428571,7.52393224 9.21428571,7.16666667 C9.21428571,6.61438191 8.76657046,6.16666667 8.21428571,6.16666667 C7.66200096,6.16666667 7.21428571,6.61438191 7.21428571,7.16666667 L7.21428571,7.16666667 Z" id="vgllfguvop" fill="#FFFFFF" fill-rule="nonzero"></path>
                    </g>
                </g>
            </g>
        </g>
    </g>
</svg>