<svg width="26" height="26" viewBox="0 0 26 26" fill="none" xmlns="http://www.w3.org/2000/svg">
<rect width="26" height="26" rx="6" fill="#5B8EF4"/>
<path fill-rule="evenodd" clip-rule="evenodd" d="M7.03149 11.7971C7.03149 10.8859 7.7243 10.1472 8.57891 10.1472H17.4213C18.2759 10.1472 18.9687 10.8859 18.9687 11.7971V18.3964C18.9687 19.3076 18.2759 20.0462 17.4213 20.0462H8.57891C7.7243 20.0462 7.03149 19.3076 7.03149 18.3964V11.7971Z" fill="white"/>
<path fill-rule="evenodd" clip-rule="evenodd" d="M9.50732 8.21553C9.50732 6.0894 11.1062 4.72278 13.0001 4.72278C14.8939 4.72278 16.4928 6.0894 16.4928 8.21553V10.8682C16.4928 11.3322 16.1167 11.7083 15.6528 11.7083C15.1889 11.7083 14.8128 11.3322 14.8128 10.8682V8.21553C14.8128 7.6412 14.613 7.19153 14.2945 6.88516C13.975 6.57777 13.5235 6.40283 13.0001 6.40283C12.4767 6.40283 12.0252 6.57777 11.7056 6.88516C11.3871 7.19153 11.1874 7.6412 11.1874 8.21553V10.8682C11.1874 11.3322 10.8113 11.7083 10.3474 11.7083C9.88342 11.7083 9.50732 11.3322 9.50732 10.8682V8.21553Z" fill="white"/>
<path d="M15.3374 12.7751L12.5134 15.4923L11.2102 14.2002C10.9258 13.9188 10.4681 13.9188 10.1839 14.2001C9.90217 14.4856 9.90217 14.9421 10.1824 15.2262L11.9984 17.0308C12.2833 17.3116 12.7401 17.3116 13.0246 17.0313L16.3622 13.804C16.6462 13.5171 16.6462 13.0594 16.3649 12.7752C16.0788 12.4937 15.6214 12.4941 15.3374 12.7751Z" fill="#5B8EF4"/>
</svg>
