
<svg width="16px" height="16px" viewBox="0 0 16 16" version="1.1" xmlns="http://www.w3.org/2000/svg" xmlns:xlink="http://www.w3.org/1999/xlink">
    <title>sytkvvhtjm</title>
    <g id="mrcxqiluku" stroke="none" stroke-width="1" fill="none" fill-rule="evenodd">
        <g id="wbmobpwrte" transform="translate(-323.000000, -148.000000)">
            <g id="mogptkyobw" transform="translate(69.000000, 136.000000)">
                <g id="xgmgdobten" transform="translate(254.000000, 12.000000)">
                    <g id="bvcfqspttr" transform="translate(0.000000, -0.000000)">
                        <rect id="fwysjwuhfe" x="0" y="0" width="16" height="16"></rect>
                        <g id="pguzxtiimc" transform="translate(1.000000, 2.000000)" fill="#515A62">
                            <path d="M13.571619,0 C13.776,0 13.946,0.0741714315 14.0825714,0.222619053 C14.2180952,0.373266663 14.2857143,0.561 14.2857143,0.785714284 C14.2857143,1.00613334 14.2174286,1.19166666 14.0797143,1.34231428 L5.50752381,10.7708857 C5.37047619,10.9235238 5.20095238,11 5,11 C4.7992381,11 4.62952381,10.9235238 4.49209523,10.7707809 L0.206,6.0588 C0.0685714258,5.90595238 0,5.72041905 0,5.5 C0,5.27518095 0.0674285741,5.08744762 0.203809522,4.93690476 C0.339523809,4.78845715 0.509714287,4.71428572 0.713904766,4.71428572 C0.915142861,4.71428572 1.08457144,4.78845715 1.22209523,4.94130476 L5,9.10339047 L13.063619,0.226914284 C13.2011429,0.0742761896 13.3707619,0 13.571619,0" id="jwodunwlfn"></path>
                        </g>
                    </g>
                </g>
            </g>
        </g>
    </g>
</svg>