<svg width="28" height="28" viewBox="0 0 28 28" fill="none" xmlns="http://www.w3.org/2000/svg">
<rect width="28" height="28" rx="6" fill="#FFAA3B"/>
<path d="M21.6845 8.10309C21.6844 7.74552 21.3973 7.45421 21.0398 7.44901L20.3449 7.43891C19.3318 7.38378 18.3381 7.16803 17.3972 6.79979C15.8265 6.16345 14.8212 5.43799 14.8128 5.43101L14.588 5.26906C14.2377 5.01671 13.765 5.01765 13.4157 5.27141L13.2018 5.42685C13.16 5.45747 12.1839 6.16204 10.6132 6.79977C9.67289 7.17484 8.6767 7.39084 7.66547 7.43891L7.30727 7.4441C6.7607 7.45204 6.32178 7.89737 6.32178 8.444V15.1864C6.32178 16.9617 7.33824 18.9529 9.11636 20.6489C9.8822 21.3799 10.733 22.0023 11.581 22.4479C12.4638 22.9116 13.2992 23.1539 14.0052 23.1539C14.707 23.1539 15.5508 22.906 16.4447 22.4368C17.3381 21.9547 18.1616 21.3533 18.8926 20.6489C19.6701 19.9179 20.3316 19.0728 20.8546 18.1425C21.4074 17.1316 21.6872 16.1374 21.6872 15.185L21.6845 8.10309Z" fill="white"/>
<g opacity="0.6">
<mask id="path-3-outside-1_144_1044" maskUnits="userSpaceOnUse" x="9.85693" y="7.99854" width="11" height="12" fill="black">
<rect fill="white" x="9.85693" y="7.99854" width="11" height="12"/>
<path fill-rule="evenodd" clip-rule="evenodd" d="M17.8533 11.605C17.8533 10.177 16.6926 8.99854 15.257 8.99854C13.8214 8.99854 12.6607 10.177 12.6607 11.605C12.6607 13.033 13.824 14.1911 15.257 14.1911C16.6901 14.1911 17.8533 13.033 17.8533 11.605ZM18.8637 18.6754C19.3535 18.6754 19.7262 18.236 19.6462 17.7528C19.3647 16.0511 17.8932 14.8031 16.1684 14.8031H14.3456C12.6208 14.8031 11.1493 16.0511 10.8678 17.7528C10.7878 18.236 11.1605 18.6754 11.6503 18.6754H18.8637Z"/>
</mask>
<path fill-rule="evenodd" clip-rule="evenodd" d="M17.8533 11.605C17.8533 10.177 16.6926 8.99854 15.257 8.99854C13.8214 8.99854 12.6607 10.177 12.6607 11.605C12.6607 13.033 13.824 14.1911 15.257 14.1911C16.6901 14.1911 17.8533 13.033 17.8533 11.605ZM18.8637 18.6754C19.3535 18.6754 19.7262 18.236 19.6462 17.7528C19.3647 16.0511 17.8932 14.8031 16.1684 14.8031H14.3456C12.6208 14.8031 11.1493 16.0511 10.8678 17.7528C10.7878 18.236 11.1605 18.6754 11.6503 18.6754H18.8637Z" fill="#FFAA3B"/>
<path d="M19.6462 17.7528L20.2382 17.6548L20.2382 17.6548L19.6462 17.7528ZM10.8678 17.7528L10.2758 17.6548L10.8678 17.7528ZM15.257 9.59854C16.3571 9.59854 17.2533 10.5042 17.2533 11.605H18.4533C18.4533 9.84989 17.0282 8.39854 15.257 8.39854V9.59854ZM13.2607 11.605C13.2607 10.5042 14.157 9.59854 15.257 9.59854V8.39854C13.4859 8.39854 12.0607 9.84989 12.0607 11.605H13.2607ZM15.257 13.5911C14.153 13.5911 13.2607 12.6993 13.2607 11.605H12.0607C12.0607 13.3666 13.4949 14.7911 15.257 14.7911V13.5911ZM17.2533 11.605C17.2533 12.6993 16.361 13.5911 15.257 13.5911V14.7911C17.0192 14.7911 18.4533 13.3666 18.4533 11.605H17.2533ZM19.0543 17.8507C19.0737 17.9684 18.983 18.0754 18.8637 18.0754V19.2754C19.7239 19.2754 20.3786 18.5035 20.2382 17.6548L19.0543 17.8507ZM16.1684 15.4031C17.5996 15.4031 18.8206 16.4387 19.0543 17.8507L20.2382 17.6548C19.9087 15.6636 18.1868 14.2031 16.1684 14.2031V15.4031ZM14.3456 15.4031H16.1684V14.2031H14.3456V15.4031ZM11.4597 17.8507C11.6933 16.4387 12.9144 15.4031 14.3456 15.4031V14.2031C12.3272 14.2031 10.6053 15.6636 10.2758 17.6548L11.4597 17.8507ZM11.6503 18.0754C11.531 18.0754 11.4402 17.9684 11.4597 17.8507L10.2758 17.6548C10.1354 18.5035 10.7901 19.2754 11.6503 19.2754V18.0754ZM18.8637 18.0754H11.6503V19.2754H18.8637V18.0754Z" fill="white" mask="url(#path-3-outside-1_144_1044)"/>
</g>
<mask id="path-5-outside-2_144_1044" maskUnits="userSpaceOnUse" x="7.34277" y="7.99854" width="11" height="12" fill="black">
<rect fill="white" x="7.34277" y="7.99854" width="11" height="12"/>
<path fill-rule="evenodd" clip-rule="evenodd" d="M15.3392 11.605C15.3392 10.177 14.1785 8.99854 12.7429 8.99854C11.3073 8.99854 10.1466 10.177 10.1466 11.605C10.1466 13.033 11.3098 14.1911 12.7429 14.1911C14.1759 14.1911 15.3392 13.033 15.3392 11.605ZM16.3496 18.6754C16.8393 18.6754 17.212 18.236 17.1321 17.7528C16.8505 16.0511 15.379 14.8031 13.6543 14.8031H11.8314C10.1067 14.8031 8.63516 16.0511 8.35361 17.7528C8.27366 18.236 8.64638 18.6754 9.13612 18.6754H16.3496Z"/>
</mask>
<path fill-rule="evenodd" clip-rule="evenodd" d="M15.3392 11.605C15.3392 10.177 14.1785 8.99854 12.7429 8.99854C11.3073 8.99854 10.1466 10.177 10.1466 11.605C10.1466 13.033 11.3098 14.1911 12.7429 14.1911C14.1759 14.1911 15.3392 13.033 15.3392 11.605ZM16.3496 18.6754C16.8393 18.6754 17.212 18.236 17.1321 17.7528C16.8505 16.0511 15.379 14.8031 13.6543 14.8031H11.8314C10.1067 14.8031 8.63516 16.0511 8.35361 17.7528C8.27366 18.236 8.64638 18.6754 9.13612 18.6754H16.3496Z" fill="#FFAA3B"/>
<path d="M17.1321 17.7528L17.8227 17.6385L17.8227 17.6385L17.1321 17.7528ZM8.35361 17.7528L7.663 17.6385H7.663L8.35361 17.7528ZM12.7429 9.69854C13.787 9.69854 14.6392 10.5587 14.6392 11.605H16.0392C16.0392 9.79536 14.57 8.29854 12.7429 8.29854V9.69854ZM10.8466 11.605C10.8466 10.5587 11.6988 9.69854 12.7429 9.69854V8.29854C10.9158 8.29854 9.44658 9.79536 9.44658 11.605H10.8466ZM12.7429 13.4911C11.6937 13.4911 10.8466 12.6437 10.8466 11.605H9.44658C9.44658 13.4223 10.9259 14.8911 12.7429 14.8911V13.4911ZM14.6392 11.605C14.6392 12.6437 13.792 13.4911 12.7429 13.4911V14.8911C14.5598 14.8911 16.0392 13.4223 16.0392 11.605H14.6392ZM16.4415 17.8671C16.4509 17.9238 16.4071 17.9754 16.3496 17.9754V19.3754C17.2715 19.3754 17.9732 18.5481 17.8227 17.6385L16.4415 17.8671ZM13.6543 15.5031C15.0365 15.5031 16.2158 16.5033 16.4415 17.8671L17.8227 17.6385C17.4852 15.599 15.7215 14.1031 13.6543 14.1031V15.5031ZM11.8314 15.5031H13.6543V14.1031H11.8314V15.5031ZM9.04422 17.8671C9.26986 16.5033 10.4491 15.5031 11.8314 15.5031V14.1031C9.76415 14.1031 8.00046 15.599 7.663 17.6385L9.04422 17.8671ZM9.13612 17.9754C9.0786 17.9754 9.03483 17.9238 9.04422 17.8671L7.663 17.6385C7.51249 18.5481 8.21415 19.3754 9.13612 19.3754V17.9754ZM16.3496 17.9754H9.13612V19.3754H16.3496V17.9754Z" fill="white" mask="url(#path-5-outside-2_144_1044)"/>
</svg>
