
<svg width="20px" height="20px" viewBox="0 0 20 20" version="1.1" xmlns="http://www.w3.org/2000/svg" xmlns:xlink="http://www.w3.org/1999/xlink">
    <title>cgioxzlxcw</title>
    <g id="muhtxskgnn" stroke="none" stroke-width="1" fill="none" fill-rule="evenodd">
        <g id="emtwqvqmlg" transform="translate(-325.000000, -298.000000)">
            <g id="hfcrmvorjl" transform="translate(0.000000, 271.000000)">
                <g id="nsykjktxry" transform="translate(325.000000, 27.000000)">
                    <rect id="yqpwdgucxy" x="0" y="0" width="20" height="20"></rect>
                    <g id="oxslzosreq">
                        <rect id="xhxuqwiiwc" x="0" y="0" width="20" height="20"></rect>
                        <path d="M14.4563866,7.88733638 L14.4563866,5.97858554 C14.4563866,3.37071043 12.3380077,1.25 9.73158431,1.25 C7.12511694,1.25 5.00431852,3.37071043 5.00431852,5.97858554 L5.00431852,7.88733638 L3.66718919,7.88733638 C3.02253405,7.88733638 2.5,8.41013438 2.5,9.05522944 L2.5,17.5809192 C2.5,18.227158 3.02253405,18.75 3.66718919,18.75 L15.7958035,18.75 C16.4406346,18.75 16.9619369,18.227158 16.9619369,17.5809192 L16.9619369,9.05522944 C16.9619369,8.41004638 16.4395348,7.88733638 15.7946597,7.88733638 L14.4563866,7.88733638 Z M10.3870614,15.4019196 C10.3870614,15.485108 10.3182583,15.5551869 10.2338382,15.5551869 L9.23047427,15.5551869 C9.14499829,15.5551869 9.0761512,15.4850641 9.07615118,15.4019196 L9.07615118,13.5402326 C8.60473556,13.2990259 8.27818478,12.8154685 8.27818478,12.2487228 C8.27818478,11.4467971 8.92891079,10.7945754 9.73044054,10.7945754 C10.5331581,10.7945754 11.183934,11.4467971 11.183934,12.2487228 C11.1850718,12.8155125 10.8584771,13.2990259 10.3870614,13.5402326 L10.3870614,15.4019196 Z M12.6431785,7.88733638 L6.81985816,7.88733638 L6.81985816,6.05570309 C6.81985816,4.44938822 8.12724907,3.14133743 9.73268412,3.14133743 C11.3381192,3.14133743 12.6431785,4.44938822 12.6431785,6.05570309 L12.6431785,7.88733638 Z" id="mzonhqhbqt" fill="#B6BABF"></path>
                    </g>
                </g>
            </g>
        </g>
    </g>
</svg>