<svg width="36" height="36" viewBox="0 0 36 36" fill="none" xmlns="http://www.w3.org/2000/svg">
<rect width="36" height="36" rx="18" fill="#E7F0FC"/>
<path fill-rule="evenodd" clip-rule="evenodd" d="M13.0698 9H22.7019C23.4999 9 24.1467 9.60442 24.1467 10.35V25.65C24.1467 26.3956 23.4999 27 22.7019 27H13.0698C12.2719 27 11.625 26.3956 11.625 25.65V10.35C11.625 9.60442 12.2719 9 13.0698 9ZM17.1033 23.4783C16.671 23.4783 16.3207 23.8286 16.3207 24.2609C16.3207 24.6931 16.671 25.0435 17.1033 25.0435H18.6685C19.1007 25.0435 19.4511 24.6931 19.4511 24.2609C19.4511 23.8286 19.1007 23.4783 18.6685 23.4783H17.1033Z" fill="#5B8EF4"/>
<rect x="13.1902" y="10.5652" width="9.39131" height="11.3478" rx="1" fill="#BDD4FF"/>
</svg>


