<svg width="241" height="240" viewBox="0 0 241 240" fill="none" xmlns="http://www.w3.org/2000/svg">
<g id="&#231;&#188;&#150;&#231;&#187;&#132; 6" opacity="0.3">
<path id="&#229;&#189;&#162;&#231;&#138;&#182;&#231;&#187;&#147;&#229;&#144;&#136;" fill-rule="evenodd" clip-rule="evenodd" d="M36.3745 5.42466C36.3745 2.4287 33.9458 0 30.9499 0H6.29232C4.66884 0 3.21194 0.713171 2.2178 1.84332C1.08767 2.83745 0.374512 4.29435 0.374512 5.91781V30.5753C0.374512 33.5713 2.80321 36 5.79917 36C8.79512 36 11.2238 33.5713 11.2238 30.5753V10.8493H30.9499C33.9458 10.8493 36.3745 8.42061 36.3745 5.42466Z" fill="white"/>
<path id="&#229;&#189;&#162;&#231;&#138;&#182;&#231;&#187;&#147;&#229;&#144;&#136;&#229;&#164;&#135;&#228;&#187;&#189; 2" fill-rule="evenodd" clip-rule="evenodd" d="M0.374512 234.5C0.374512 237.261 2.61309 239.5 5.37451 239.5H31.3745C34.1359 239.5 36.3745 237.261 36.3745 234.5C36.3745 231.739 34.1359 229.5 31.3745 229.5H10.3745L10.3745 208.5C10.3745 205.739 8.13594 203.5 5.37451 203.5C2.61309 203.5 0.374512 205.739 0.374512 208.5L0.374512 234.5Z" fill="white"/>
<path id="&#229;&#189;&#162;&#231;&#138;&#182;&#231;&#187;&#147;&#229;&#144;&#136;_2" fill-rule="evenodd" clip-rule="evenodd" d="M235.375 239.5C238.136 239.5 240.375 237.261 240.375 234.5V208.5C240.375 205.739 238.136 203.5 235.375 203.5C232.613 203.5 230.375 205.739 230.375 208.5V229.5H209.375C206.613 229.5 204.375 231.739 204.375 234.5C204.375 237.261 206.613 239.5 209.375 239.5H235.375Z" fill="white"/>
<path id="&#229;&#189;&#162;&#231;&#138;&#182;&#231;&#187;&#147;&#229;&#144;&#136;&#229;&#164;&#135;&#228;&#187;&#189; 2_2" fill-rule="evenodd" clip-rule="evenodd" d="M240.375 5.5C240.375 2.73858 238.136 0.5 235.375 0.5L209.375 0.5C206.613 0.5 204.375 2.73858 204.375 5.5C204.375 8.26142 206.613 10.5 209.375 10.5L230.375 10.5V31.5C230.375 34.2614 232.613 36.5 235.375 36.5C238.136 36.5 240.375 34.2614 240.375 31.5V5.5Z" fill="white"/>
</g>
</svg>
