<?xml version="1.0" encoding="UTF-8"?>
<svg width="16px" height="16px" viewBox="0 0 16 16" version="1.1" xmlns="http://www.w3.org/2000/svg" xmlns:xlink="http://www.w3.org/1999/xlink">
    <title>a a a</title>
    <g id="vbb" stroke="none" stroke-width="1" fill="none" fill-rule="evenodd">
        <g id="vbbaa-vbbaab" transform="translate(-291.000000, -396.000000)">
            <g id="vbbaabb" transform="translate(44.000000, 326.000000)">
                <g id="2.0-/-List-/-Settings" transform="translate(0.000000, 56.000000)">
                    <g id="vbbaabbaa" transform="translate(247.000000, 14.000000)">
                        <rect id="vbbaabbaaff" fill="#FFFFFF" opacity="0" x="0" y="0" width="16" height="16"></rect>
                        <path d="M7.10670642,15 C6.86537164,14.998424 6.63189661,14.9133229 6.4453588,14.7589401 L0.4627065,9.63000643 C0.13029986,9.41201834 -0.0462030646,9.01918718 0.0104756112,8.62350536 C0.067154287,8.22782353 0.346686866,7.90139015 0.726686218,7.78712682 C1.10668557,7.67286348 1.51791016,7.79159067 1.78031445,8.09132633 L6.92865129,12.5073382 L14.1576895,2.42385461 C14.4878213,1.96496828 15.1244264,1.86278286 15.5795868,2.1956171 C16.0347473,2.52845133 16.136103,3.17026766 15.8059712,3.62915402 L7.9308473,14.5794274 C7.76437022,14.8103688 7.5099628,14.9609173 7.22880136,14.9948711 L7.10670642,15 Z" id="vbbaabbaafff" fill="#5B8EF4"></path>
                    </g>
                </g>
            </g>
        </g>
    </g>
</svg>