
<svg width="48px" height="49px" viewBox="0 0 48 49" version="1.1" xmlns="http://www.w3.org/2000/svg" xmlns:xlink="http://www.w3.org/1999/xlink">
    <title>epepouhbdw</title>
    <g id="tgwbkbjtbf" stroke="none" stroke-width="1" fill="none" fill-rule="evenodd">
        <g id="bymzskmjux" transform="translate(0.000000, 0.500000)">
            <circle id="texjmfefex" fill="#25272A" opacity="0.800000012" cx="24" cy="24" r="24"></circle>
            <path d="M32.5,15 L15.5,15 C14.3954303,15 13.5,15.8954303 13.5,17 L13.5,31 C13.5,32.1045819 14.3954274,33 15.5,33 L32.5,33 C33.6045847,33 34.5,32.1045847 34.5,31 L34.5,17 C34.5,15.8954274 33.6045819,15 32.5,15 Z M32.5,17 L32.5,31 L15.5,31 L15.5,17 L32.5,17 Z" id="khkxcnwxny" fill="#FFFFFF" fill-rule="nonzero"></path>
            <path d="M19.5556006,18.3489254 C17.987598,18.3489254 16.7164206,19.6201028 16.7164206,21.1881054 C16.7164206,22.7561079 17.987598,24.0272853 19.5556006,24.0272853 C21.1236031,24.0272853 22.3947806,22.7561079 22.3947806,21.1881054 C22.3947806,19.6201028 21.1236031,18.3489254 19.5556006,18.3489254 Z M19.5556006,20.3489254 C20.0190336,20.3489254 20.3947806,20.7246723 20.3947806,21.1881054 C20.3947806,21.6515384 20.0190336,22.0272853 19.5556006,22.0272853 C19.0921675,22.0272853 18.7164206,21.6515384 18.7164206,21.1881054 C18.7164206,20.7246723 19.0921675,20.3489254 19.5556006,20.3489254 Z" id="uokiztoxjl" fill="#FFFFFF" fill-rule="nonzero"></path>
            <path d="M26.3886729,22.9949448 L22.719,27.1774565 L19.2470249,26.1153636 C18.9147841,26.0137053 18.5535891,26.0917863 18.2930037,26.3215984 L13.8385666,30.2499961 C13.6233135,30.4398292 13.5,30.7129974 13.5,31 C13.5,32.1045819 14.3954274,33 15.5,33 L32.5,33 C33.6045847,33 34.5,32.1045847 34.5,31 C34.5,30.7595825 34.4133851,30.5272124 34.2560203,30.3454519 L27.8963875,22.9999084 C27.4993418,22.5413101 26.7887296,22.5389707 26.3886729,22.9949448 Z M27.135,25.1764565 L32.176,30.9994565 L16.011,30.9994565 L19.196,28.1914565 L22.751738,29.2792562 C23.1278952,29.394352 23.5365868,29.2782245 23.7960201,28.9825293 L27.135,25.1764565 Z" id="eelgxldliw" fill="#FFFFFF" fill-rule="nonzero"></path>
        </g>
    </g>
</svg>