<svg width="21" height="20" viewBox="0 0 21 20" fill="none" xmlns="http://www.w3.org/2000/svg">
<path d="M4.42697 5.06009H3.73696C3.29651 5.06009 2.93945 4.70304 2.93945 4.26259C2.93945 3.82214 3.29651 3.46509 3.73696 3.46509H17.7621C18.2026 3.46509 18.5596 3.82214 18.5596 4.26259C18.5596 4.70304 18.2026 5.06009 17.7621 5.06009H6.02199V16.1626C6.02199 16.4019 6.11707 16.6315 6.28633 16.8008C6.45558 16.97 6.68514 17.0651 6.9245 17.0651H14.5746C14.814 17.0651 15.0435 16.97 15.2128 16.8008C15.382 16.6315 15.4771 16.4019 15.4771 16.1626V6.81259C15.4771 6.37214 15.8342 6.01509 16.2746 6.01509C16.7151 6.01509 17.0721 6.37214 17.0721 6.81259V16.1626C17.0721 17.5419 15.9539 18.6601 14.5746 18.6601H6.9245C5.54518 18.6601 4.42697 17.5419 4.42697 16.1626V5.06009ZM9.04952 2.93509C8.60908 2.93509 8.25202 2.57804 8.25202 2.13759C8.25202 1.69714 8.60908 1.34009 9.04952 1.34009H12.4496C12.89 1.34009 13.2471 1.69714 13.2471 2.13759C13.2471 2.57804 12.89 2.93509 12.4496 2.93509H9.04952ZM8.25202 8.51259C8.25202 8.07214 8.60908 7.71509 9.04952 7.71509C9.48997 7.71509 9.84703 8.07214 9.84703 8.51259V13.6126C9.84703 14.053 9.48997 14.4101 9.04952 14.4101C8.60908 14.4101 8.25202 14.053 8.25202 13.6126V8.51259ZM11.6517 8.51259C11.6517 8.07214 12.0087 7.71509 12.4492 7.71509C12.8896 7.71509 13.2467 8.07214 13.2467 8.51259V13.6126C13.2467 14.053 12.8896 14.4101 12.4492 14.4101C12.0087 14.4101 11.6517 14.053 11.6517 13.6126V8.51259Z" fill="#515A62"/>
</svg>
