<svg width="28" height="28" viewBox="0 0 28 28" fill="none" xmlns="http://www.w3.org/2000/svg">
<rect width="28" height="28" fill="white"/>
<path d="M8.58333 6.8H19.4167C19.4343 6.8 19.4901 6.8067 19.5618 6.895C19.6349 6.98489 19.7 7.13723 19.7 7.33333V20.6667C19.7 20.8628 19.6349 21.0151 19.5618 21.105C19.4901 21.1933 19.4343 21.2 19.4167 21.2H8.58333C8.56569 21.2 8.50993 21.1933 8.43819 21.105C8.36515 21.0151 8.3 20.8628 8.3 20.6667V7.33333C8.3 7.13724 8.36515 6.9849 8.43819 6.895C8.50994 6.8067 8.5657 6.8 8.58333 6.8Z" stroke="#333333" stroke-width="1.6" stroke-linejoin="round"/>
<path d="M16.3128 16.1037L14.0001 18.4164L11.6874 16.1037" stroke="#333333" stroke-width="1.6" stroke-linecap="round" stroke-linejoin="round"/>
<path d="M14 13.0749V18.2416" stroke="#333333" stroke-width="1.6" stroke-linecap="round" stroke-linejoin="round"/>
<path d="M11.9874 9.88824H16.0127" stroke="#333333" stroke-width="1.6" stroke-linecap="round" stroke-linejoin="round"/>
</svg>
