
<svg width="16px" height="16px" viewBox="0 0 16 16" version="1.1" xmlns="http://www.w3.org/2000/svg" xmlns:xlink="http://www.w3.org/1999/xlink">
    <title>oinrqzcjps</title>
    <g id="ievsfmltep" stroke="none" stroke-width="1" fill="none" fill-rule="evenodd">
        <g id="bpqdnezfdx" transform="translate(-327.000000, -196.000000)">
            <g id="npfjolfqcm" transform="translate(16.000000, 120.000000)">
                <g id="cpemspeoze" transform="translate(0.000000, 56.000000)">
                    <g id="pfoicoekkw" transform="translate(311.000000, 20.000000)">
                        <rect id="kometbmfqk" x="0" y="0" width="16" height="16"></rect>
                        <path d="M11.6167017,3.23735312 C11.8214062,3.03264832 12.1197697,2.95270197 12.3994014,3.02762915 C12.679033,3.10255631 12.8974501,3.32097367 12.9723771,3.60060547 C13.0473041,3.8802372 12.9673579,4.1786007 12.7626533,4.38330555 L12.7626533,4.38330555 L9.14594832,8 L12.7626535,11.6167131 C13.0580027,11.9120627 13.0776927,12.3786851 12.8217233,12.6968711 L12.8217233,12.6968711 L12.7626535,12.7626653 C12.4462077,13.0791116 11.9331475,13.0791116 11.6167017,12.7626653 L11.6167017,12.7626653 L8,9.14594832 L4.38330444,12.7626653 C4.08795501,13.0580151 3.62133265,13.0777051 3.30314685,12.8217353 L3.30314685,12.8217353 L3.23735268,12.7626653 C2.92090708,12.4462193 2.92090707,11.9331591 3.23735251,11.6167132 L3.23735251,11.6167132 L6.85405784,8 L3.23735266,4.38330539 C3.05539317,4.20134567 2.97200812,3.94538392 3.00834815,3.69435565 L3.00834815,3.69435565 L3.02762908,3.60060547 C3.1025561,3.32097367 3.32097318,3.10255631 3.60060478,3.02762915 C3.88023646,2.95270197 4.17859991,3.03264832 4.38330444,3.23735312 L4.38330444,3.23735312 L8,6.85405784 Z" id="utoubgunog" fill="#515A62"></path>
                    </g>
                </g>
            </g>
        </g>
    </g>
</svg>