<svg width="32" height="32" viewBox="0 0 32 32" fill="none" xmlns="http://www.w3.org/2000/svg">
<g clip-path="url(#clip0_5235_5546)">
<circle cx="16" cy="16" r="16" fill="#5B8EF4"/>
<g clip-path="url(#clip1_5235_5546)">
<path d="M11.3333 9.42761C10.0662 9.42761 9.03889 10.4549 9.03889 11.7221V20.2776C9.03889 21.5448 10.0662 22.5721 11.3333 22.5721L14.47 22.5721L14.4833 22.5721V22.5719C14.8852 22.5648 15.2088 22.2368 15.2088 21.8332C15.2088 21.4296 14.8852 21.1015 14.4833 21.0944V21.0943H14.47H11.3333C10.8823 21.0943 10.5167 20.7286 10.5167 20.2776V11.7221C10.5167 11.271 10.8823 10.9054 11.3333 10.9054H20.6667C21.1177 10.9054 21.4833 11.271 21.4833 11.7221V13.2698C21.4833 13.2724 21.4833 13.275 21.4833 13.2776C21.4833 13.2802 21.4833 13.2828 21.4833 13.2854V13.3165H21.4843C21.5045 13.7065 21.8272 14.0165 22.2222 14.0165C22.6172 14.0165 22.9398 13.7065 22.9601 13.3165H22.9611V11.7221C22.9611 10.4549 21.9339 9.42761 20.6667 9.42761H11.3333ZM18.6882 15.1105C18.4148 14.8371 17.9716 14.8371 17.6983 15.1105L15.3884 17.4204C15.2503 17.5585 15.1819 17.74 15.1834 17.921L15.1833 17.9282C15.1833 17.9658 15.1863 18.0027 15.192 18.0387C15.2122 18.1843 15.2784 18.3248 15.3903 18.4368L17.7002 20.7467C17.9736 21.02 18.4168 21.02 18.6902 20.7467C18.9635 20.4733 18.9635 20.0301 18.6902 19.7567L17.5616 18.6282H22.2611C22.6477 18.6282 22.9611 18.3148 22.9611 17.9282C22.9611 17.5416 22.6477 17.2282 22.2611 17.2282H17.5605L18.6882 16.1005C18.9616 15.8271 18.9616 15.3839 18.6882 15.1105Z" fill="white"/>
</g>
</g>
<defs>
<clipPath id="clip0_5235_5546">
<rect width="32" height="32" fill="white"/>
</clipPath>
<clipPath id="clip1_5235_5546">
<rect width="14" height="14" fill="white" transform="translate(9 9)"/>
</clipPath>
</defs>
</svg>
