
<svg width="26px" height="26px" viewBox="0 0 26 26" version="1.1" xmlns="http://www.w3.org/2000/svg" xmlns:xlink="http://www.w3.org/1999/xlink">
    <title>zqoxrydqmd</title>
    <g id="nxvsuvzjlj" stroke="none" stroke-width="1" fill="none" fill-rule="evenodd">
        <g transform="translate(-16.000000, -379.000000)" id="sibwvvbdqi">
            <g transform="translate(0.000000, 360.000000)">
                <g id="cchtlwjryf" transform="translate(16.000000, 19.000000)">
                    <rect id="grhlehpkwx" fill="#FF9305" x="0" y="0" width="26" height="26" rx="6"></rect>
                    <g id="sdmrenwuro" transform="translate(4.875000, 5.145833)">
                        <path d="M8.125,0 C3.63811384,0 0,3.63811384 0,8.125 C0,12.6118862 3.63811384,16.25 8.125,16.25 C12.6118862,16.25 16.25,12.6118862 16.25,8.125 C16.25,3.63811384 12.6118862,0 8.125,0 Z" id="gccuiciwxh" fill="#FFFFFF" fill-rule="nonzero"></path>
                        <path d="M8.17600717,11.2083333 C8.62487759,11.2083333 8.98875896,11.5722147 8.98875896,12.0210851 C8.98875896,12.4699555 8.62487759,12.8338369 8.17600717,12.8338369 C7.72713675,12.8338369 7.36325538,12.4699555 7.36325538,12.0210851 C7.36325538,11.5722147 7.72713675,11.2083333 8.17600717,11.2083333 Z M8.17600717,3.45416667 C9.02939655,3.45416667 9.83402082,3.74675731 10.4435847,4.28114161 C11.0775311,4.83584471 11.4270143,5.58154448 11.425,6.38007312 C11.425,7.55449946 10.6508364,8.61107679 9.45202748,9.07231343 C9.07612978,9.21657687 8.82417672,9.58231518 8.82417672,9.98259543 L8.82417672,9.98259543 L8.82417672,10.4438321 C8.82417672,10.5332348 8.75102906,10.6063824 8.66162636,10.6063824 L8.66162636,10.6063824 L7.68632421,10.6063824 C7.59692152,10.6063824 7.52377385,10.5332348 7.52377385,10.4438321 L7.52377385,10.4438321 L7.52377385,10.006978 C7.52377385,9.53761383 7.66194166,9.07434531 7.92811787,8.68828821 C8.19023032,8.31035862 8.55596863,8.02183174 8.98672708,7.8572495 C9.67959798,7.59107329 10.1266115,7.01198764 10.1266115,6.38007312 C10.1266115,5.48401427 9.25087141,4.75456953 8.17600717,4.75456953 C7.10114292,4.75456953 6.22540287,5.48401427 6.22540287,6.38007312 L6.22540287,6.38007312 L6.22540287,6.53449596 C6.22540287,6.62389865 6.15225521,6.69704632 6.06285251,6.69704632 L6.06285251,6.69704632 L5.08755036,6.69704632 C4.99814766,6.69704632 4.925,6.62389865 4.925,6.53449596 L4.925,6.53449596 L4.925,6.38007312 C4.925,5.58154448 5.27448327,4.83584471 5.90842967,4.28114161 C6.51799351,3.74878919 7.32261779,3.45416667 8.17600717,3.45416667 Z" id="bkbzkhrvuj" fill="#FF9305"></path>
                    </g>
                </g>
            </g>
        </g>
    </g>
</svg>