<svg width="81" height="80" viewBox="0 0 81 80" fill="none" xmlns="http://www.w3.org/2000/svg">
<g clip-path="url(#clip0_4267_6378)">
<circle cx="40.5" cy="40" r="40" fill="#E7F0FC"/>
<path d="M36.8635 27.4667C36.4549 27.4667 36.0743 27.6746 35.8536 28.0186L33.7835 31.2445H29.1666C27.3992 31.2445 25.9666 32.6771 25.9666 34.4445V49.3333C25.9666 51.1007 27.3992 52.5333 29.1666 52.5333H51.8332C53.6005 52.5333 55.0332 51.1007 55.0332 49.3333V34.4445C55.0332 32.6771 53.6005 31.2445 51.8332 31.2445H47.2163L45.1462 28.0186C44.9255 27.6746 44.5449 27.4667 44.1362 27.4667H36.8635ZM49.8617 33.4667C50.7822 33.4667 51.5284 34.2129 51.5284 35.1333C51.5284 36.0538 50.7822 36.8 49.8617 36.8C48.9413 36.8 48.1951 36.0538 48.1951 35.1333C48.1951 34.2129 48.9413 33.4667 49.8617 33.4667ZM46.7666 41.2667C46.7666 44.7277 43.961 47.5334 40.5 47.5334C37.039 47.5334 34.2333 44.7277 34.2333 41.2667C34.2333 37.8057 37.039 35 40.5 35C43.961 35 46.7666 37.8057 46.7666 41.2667ZM40.5 44.8163C42.4603 44.8163 44.0495 43.2271 44.0495 41.2667C44.0495 39.3063 42.4603 37.7172 40.5 37.7172C38.5396 37.7172 36.9504 39.3063 36.9504 41.2667C36.9504 43.2271 38.5396 44.8163 40.5 44.8163Z" fill="#5B8EF4"/>
</g>
<defs>
<clipPath id="clip0_4267_6378">
<rect width="80" height="80" fill="white" transform="translate(0.5)"/>
</clipPath>
</defs>
</svg>
