<svg width="32" height="16" viewBox="0 0 32 16" fill="none" xmlns="http://www.w3.org/2000/svg">
<path d="M23.26 3.68525C22.5167 3.42558 21.731 3.29517 20.94 3.30014C18.38 3.30014 16.5733 4.53865 16.56 6.31324C16.544 7.61828 17.8453 8.35268 18.828 8.79026C19.8373 9.23806 20.1747 9.51954 20.172 9.92257C20.1653 10.5329 19.3653 10.8092 18.6227 10.8092C17.6013 10.8092 17.0413 10.6723 16.1813 10.3294L15.8627 10.1874L15.5013 12.232C16.1227 12.4815 17.2427 12.6951 18.4013 12.7118C21.1227 12.7118 22.9013 11.4822 22.9227 9.59119C22.944 8.551 22.2427 7.76158 20.7613 7.11162C19.8627 6.6894 19.3027 6.40664 19.3027 5.97803C19.3027 5.59931 19.7813 5.195 20.7813 5.195C21.4464 5.1797 22.1073 5.2987 22.7213 5.54429L22.9613 5.64793L23.3227 3.67246L23.26 3.68525ZM29.904 3.46775H27.904C27.2813 3.46775 26.816 3.63024 26.5427 4.2239L22.696 12.5838H25.4173L25.9613 11.2148L29.2813 11.2174C29.3627 11.5372 29.6013 12.5838 29.6013 12.5838H32L29.904 3.46775ZM12.88 3.39098H15.4707L13.8507 12.5122H11.2587L12.88 3.38842V3.39098ZM6.29467 8.41794L6.564 9.68459L9.09867 3.46775H11.844L7.76267 12.571H5.024L2.784 4.86107C2.74787 4.73401 2.66185 4.62533 2.544 4.55784C1.73836 4.15627 0.883805 3.85241 0 3.65327L0.0333333 3.46135H4.208C4.77333 3.48182 5.22933 3.65327 5.38533 4.23414L6.29467 8.42177V8.41794ZM26.7053 9.3481L27.7387 6.79687C27.7253 6.82246 27.952 6.26974 28.0827 5.92685L28.26 6.71371L28.8587 9.34554H26.7053V9.3481Z" fill="#1434CB"/>
</svg>
