<svg width="16" height="16" viewBox="0 0 16 16" fill="none" xmlns="http://www.w3.org/2000/svg">
<path fill-rule="evenodd" clip-rule="evenodd" d="M1 8C1 4.13438 4.13438 1 8 1C11.8656 1 15 4.13438 15 8C15 11.8656 11.8656 15 8 15C4.13438 15 1 11.8656 1 8ZM2.18752 7.99996C2.18752 11.2093 4.79064 13.8125 8.00002 13.8125C11.2094 13.8125 13.8125 11.2093 13.8125 7.99996C13.8125 4.79058 11.2094 2.18746 8.00002 2.18746C4.79064 2.18746 2.18752 4.79058 2.18752 7.99996ZM7.20004 10.594C7.20004 11.0359 7.55821 11.394 8.00004 11.394C8.44186 11.394 8.80004 11.0359 8.80004 10.594C8.80004 10.1522 8.44186 9.79404 8.00004 9.79404C7.55821 9.79404 7.20004 10.1522 7.20004 10.594ZM8.63001 8.37001C8.63001 8.71794 8.40426 8.99999 8.05633 8.99999C7.7084 8.99999 7.37006 8.71794 7.37005 8.37002L7.37001 5.12988C7.37001 4.78203 7.65208 4.50011 7.99994 4.50013C8.34784 4.50014 8.63001 4.7821 8.63001 5.13001V8.37001Z" fill="#515A62"/>
</svg>
