<svg width="20" height="20" viewBox="0 0 20 20" fill="none" xmlns="http://www.w3.org/2000/svg">
<path d="M6.32617 5.35107C6.32617 3.28001 8.0051 1.60107 10.0762 1.60107C12.1472 1.60107 13.8262 3.28001 13.8262 5.35107C13.8262 7.42214 12.1472 9.10107 10.0762 9.10107C8.0051 9.10107 6.32617 7.42214 6.32617 5.35107ZM10.0762 3.10107C8.83353 3.10107 7.82617 4.10843 7.82617 5.35107C7.82617 6.59372 8.83353 7.60107 10.0762 7.60107C11.3188 7.60107 12.3262 6.59372 12.3262 5.35107C12.3262 4.10843 11.3188 3.10107 10.0762 3.10107ZM4.71973 11.8989C5.13394 11.8989 5.46973 12.2347 5.46973 12.6489V14.3989H7.21973C7.63394 14.3989 7.96973 14.7347 7.96973 15.1489C7.96973 15.5631 7.63394 15.8989 7.21973 15.8989H5.46973V17.6489C5.46973 18.0631 5.13394 18.3989 4.71973 18.3989C4.30551 18.3989 3.96973 18.0631 3.96973 17.6489V15.8989H2.21973C1.80551 15.8989 1.46973 15.5631 1.46973 15.1489C1.46973 14.7347 1.80551 14.3989 2.21973 14.3989H3.96973V12.6489C3.96973 12.2347 4.30551 11.8989 4.71973 11.8989ZM8.66709 11.9652C9.2802 11.8255 9.93127 11.75 10.6071 11.75C14.1295 11.75 16.7721 13.7318 17.248 16.05H9.50041C9.08619 16.05 8.75041 16.3858 8.75041 16.8C8.75041 17.2142 9.08619 17.55 9.50041 17.55H18.0748C18.4891 17.55 18.8248 17.2142 18.8248 16.8C18.8248 13.0172 14.9582 10.25 10.6071 10.25C9.81975 10.25 9.05685 10.3379 8.33373 10.5027C7.92987 10.5948 7.67711 10.9968 7.76916 11.4007C7.86122 11.8045 8.26323 12.0573 8.66709 11.9652Z" fill="#55585e"/>
</svg>
