
<svg width="14px" height="14px" viewBox="0 0 14 14" version="1.1" xmlns="http://www.w3.org/2000/svg" xmlns:xlink="http://www.w3.org/1999/xlink">
    
    <g id="nkiwxyxqfs" stroke="none" stroke-width="1" fill="none" fill-rule="evenodd">
        <g id="vonffsfljm" transform="translate(-307.000000, -95.000000)">
            <g id="uvuzsjxntt" transform="translate(0.000000, 16.000000)">
                <g id="gbbhbicjiw" transform="translate(24.000000, 62.000000)">
                    <g id="hzvzmqjhgt" transform="translate(284.000000, 18.000000)">
                        <rect id="myfjblmomu" x="0" y="0" width="12" height="12"></rect>
                        <g id="oepjuwprey" transform="translate(0.750000, 0.750000)" fill="#55585e" stroke="#55585e">
                            <path d="M0.314901015,-0.462523606 C0.504605949,-0.513354956 0.700664793,-0.511652429 0.884015816,-0.462523606 C1.06736676,-0.413394805 1.2380099,-0.316839746 1.37688349,-0.177965973 L1.37688349,-0.177965973 L5.25,3.69515557 L9.12311651,-0.177965973 C9.2619901,-0.316839746 9.43263324,-0.413394805 9.61598418,-0.462523606 C10.7182333,-0.378155656 10.8737425,-0.0164344154 10.9625237,0.314901907 C11.0641861,0.694311719 10.9557135,1.09913713 10.6779667,1.37688436 L10.6779667,1.37688436 L6.80484923,5.25000683 L10.6779667,9.12312929 C10.8926464,9.33780932 10.9999863,9.61918188 10.9999863,9.90055446 C10.9999863,10.181927 10.8926464,10.4632996 10.6779667,10.6779796 C10.4632867,10.8926599 10.1819141,11 9.90054158,11 C9.61916906,11 9.33779651,10.8926599 9.12311651,10.6779796 L9.12311651,10.6779796 L5.25,6.80485808 L1.37688348,10.6779796 C1.16220347,10.8926599 0.880830924,11 0.599458411,11 C0.318085897,11 0.0367133564,10.8926599 -0.177966645,10.6779796 C-0.392646392,10.4632996 -0.499986324,10.181927 -0.49998633,9.90055446 C-0.499986336,9.61918189 -0.392646414,9.33780934 -0.177966661,9.12312929 L-0.177966661,9.12312929 L3.69515077,5.25000683 L-0.177966661,1.37688436 C-0.455713536,1.09913713 -0.564186138,0.694311719 -0.462523717,0.314901907 C-0.360861227,-0.0645081648 -0.0645084985,-0.360861001 0.314901015,-0.462523606 Z" id="vhnwehucyj"></path>
                        </g>
                    </g>
                </g>
            </g>
        </g>
    </g>
</svg>
