<svg width="20" height="20" viewBox="0 0 20 20" fill="none" xmlns="http://www.w3.org/2000/svg">
<path d="M7.01294 3.25513V4.66675H12.7817C13.8594 4.66675 14.4872 5.67756 14.4872 6.58862V13.8333H15.4994C15.5014 13.8333 15.5386 13.8338 15.5938 13.7661C15.651 13.6959 15.7049 13.573 15.7049 13.4114V3.25513C15.7049 3.09354 15.651 2.97061 15.5938 2.90043C15.5386 2.83272 15.5014 2.83322 15.4995 2.83325L7.21844 2.83325C7.21648 2.83323 7.17928 2.83272 7.12407 2.90043C7.06685 2.97061 7.01294 3.09354 7.01294 3.25513ZM5.51294 4.66675V3.25513C5.51294 2.34407 6.14067 1.33325 7.21844 1.33325H15.4994C16.5772 1.33325 17.2049 2.34407 17.2049 3.25513V13.4114C17.2049 14.3224 16.5772 15.3333 15.4994 15.3333H14.4872V16.7449C14.4872 17.6559 13.8594 18.6667 12.7817 18.6667H4.50066C3.4229 18.6667 2.79517 17.6559 2.79517 16.7449V6.58862C2.79517 5.67756 3.4229 4.66675 4.50066 4.66675H5.51294ZM4.29517 6.58862V16.7449C4.29517 16.9065 4.34908 17.0294 4.4063 17.0996C4.4615 17.1673 4.49864 17.1668 4.5006 17.1667H12.7817C12.7836 17.1668 12.8208 17.1673 12.876 17.0996C12.9332 17.0294 12.9872 16.9065 12.9872 16.7449V6.58862C12.9872 6.42704 12.9332 6.3041 12.876 6.23393C12.8208 6.16622 12.7837 6.16672 12.7817 6.16675L4.50066 6.16675C4.4987 6.16672 4.4615 6.16622 4.4063 6.23393C4.34908 6.3041 4.29517 6.42704 4.29517 6.58862Z" fill="#55585e"/>
</svg>
