<svg width="20" height="20" viewBox="0 0 20 20" fill="none" xmlns="http://www.w3.org/2000/svg">
<path d="M3.92697 5.05997H3.23696C2.79651 5.05997 2.43945 4.70291 2.43945 4.26247C2.43945 3.82202 2.79651 3.46497 3.23696 3.46497H17.2621C17.7026 3.46497 18.0596 3.82202 18.0596 4.26247C18.0596 4.70291 17.7026 5.05997 17.2621 5.05997H5.52199V16.1625C5.52199 16.4018 5.61707 16.6314 5.78633 16.8006C5.95558 16.9699 6.18514 17.065 6.4245 17.065H14.0746C14.314 17.065 14.5435 16.9699 14.7128 16.8006C14.882 16.6314 14.9771 16.4018 14.9771 16.1625V6.81247C14.9771 6.37202 15.3342 6.01497 15.7746 6.01497C16.2151 6.01497 16.5721 6.37202 16.5721 6.81247V16.1625C16.5721 17.5418 15.4539 18.66 14.0746 18.66H6.4245C5.04518 18.66 3.92697 17.5418 3.92697 16.1625V5.05997ZM8.54952 2.93497C8.10908 2.93497 7.75202 2.57791 7.75202 2.13747C7.75202 1.69702 8.10908 1.33997 8.54952 1.33997H11.9496C12.39 1.33997 12.7471 1.69702 12.7471 2.13747C12.7471 2.57791 12.39 2.93497 11.9496 2.93497H8.54952ZM7.75202 8.51247C7.75202 8.07202 8.10908 7.71497 8.54952 7.71497C8.98997 7.71497 9.34703 8.07202 9.34703 8.51247V13.6125C9.34703 14.0529 8.98997 14.41 8.54952 14.41C8.10908 14.41 7.75202 14.0529 7.75202 13.6125V8.51247ZM11.1517 8.51247C11.1517 8.07202 11.5087 7.71497 11.9492 7.71497C12.3896 7.71497 12.7467 8.07202 12.7467 8.51247V13.6125C12.7467 14.0529 12.3896 14.41 11.9492 14.41C11.5087 14.41 11.1517 14.0529 11.1517 13.6125V8.51247Z" fill="#55585e"/>
</svg>
