<svg width="24" height="24" viewBox="0 0 24 24" fill="none" xmlns="http://www.w3.org/2000/svg">
<path d="M5.42385 6.01988C5.68903 5.70167 6.16195 5.65868 6.48016 5.92385L12 10.5237L17.5199 5.92385C17.8381 5.65868 18.311 5.70167 18.5762 6.01988C18.8414 6.33809 18.7984 6.81101 18.4802 7.07618L12.4802 12.0762C12.202 12.308 11.798 12.308 11.5199 12.0762L5.51988 7.07618C5.20167 6.81101 5.15868 6.33809 5.42385 6.01988Z" fill="#55585e"/>
<path d="M5.42385 12.0199C5.68903 11.7017 6.16195 11.6587 6.48016 11.9239L12 16.5237L17.5199 11.9239C17.8381 11.6587 18.311 11.7017 18.5762 12.0199C18.8414 12.3381 18.7984 12.811 18.4802 13.0762L12.4802 18.0762C12.202 18.308 11.798 18.308 11.5199 18.0762L5.51988 13.0762C5.20167 12.811 5.15868 12.3381 5.42385 12.0199Z" fill="#55585e"/>
</svg>
