<svg width="25" height="24" viewBox="0 0 25 24" fill="none" xmlns="http://www.w3.org/2000/svg">
<path d="M1.43945 12C1.43945 5.92486 6.36432 1 12.4395 1C18.5146 1 23.4395 5.92486 23.4395 12C23.4395 18.0751 18.5146 23 12.4395 23C6.36432 23 1.43945 18.0751 1.43945 12ZM12.4395 3C7.46889 3 3.43945 7.02943 3.43945 12C3.43945 16.9706 7.46889 21 12.4395 21C17.41 21 21.4395 16.9706 21.4395 12C21.4395 7.02943 17.41 3 12.4395 3Z" fill="#55585e"/>
<path d="M8.0888 14.9743C8.27101 14.6795 8.59288 14.5 8.93945 14.5H15.9395C16.286 14.5 16.6079 14.6795 16.7901 14.9743C16.9723 15.2691 16.9889 15.6372 16.8339 15.9472L16.8334 15.9481L16.833 15.9491L16.8319 15.9511L16.8296 15.9557L16.8237 15.9672C16.8192 15.9758 16.8136 15.9864 16.8069 15.9987C16.7935 16.0234 16.7757 16.0554 16.7531 16.0936C16.7082 16.1699 16.6443 16.2718 16.5602 16.3905C16.3927 16.627 16.1403 16.9372 15.7913 17.2474C15.085 17.8752 13.9822 18.5 12.4395 18.5C10.8967 18.5 9.79388 17.8752 9.08759 17.2474C8.73865 16.9372 8.48622 16.627 8.31874 16.3905C8.23462 16.2718 8.17072 16.1699 8.12577 16.0936C8.10325 16.0554 8.08538 16.0234 8.072 15.9987C8.06531 15.9864 8.05973 15.9758 8.05524 15.9672L8.04932 15.9557L8.04697 15.9511L8.04595 15.9491L8.04548 15.9481C8.04548 15.9481 8.04932 15.9557 8.04503 15.9472C7.89003 15.6372 7.9066 15.2691 8.0888 14.9743Z" fill="#55585e"/>
<path d="M15.9395 8.80005C16.6022 8.80005 17.1395 9.33731 17.1395 10V10.6C17.1395 11.2628 16.6022 11.8 15.9395 11.8C15.2768 11.8 14.7395 11.2628 14.7395 10.6V10C14.7395 9.33731 15.2768 8.80005 15.9395 8.80005Z" fill="#55585e"/>
<path d="M8.9395 8.80005C9.60224 8.80005 10.1395 9.33731 10.1395 10V10.6C10.1395 11.2628 9.60224 11.8 8.9395 11.8C8.27676 11.8 7.7395 11.2628 7.7395 10.6V10C7.7395 9.33731 8.27676 8.80005 8.9395 8.80005Z" fill="#55585e"/>
</svg>
