<svg width="25" height="24" viewBox="0 0 25 24" fill="none" xmlns="http://www.w3.org/2000/svg">
<g clip-path="url(#clip0_6682_31464)">
<path d="M9.92836 4.14077C9.90078 4.16752 9.87335 4.19452 9.84608 4.22179L4.66063 9.40724C1.79678 12.2711 1.79678 16.9143 4.66063 19.7781C7.52447 22.642 12.1677 22.642 15.0315 19.7781C16.5744 18.2353 18.1394 16.7111 19.6691 15.1546C20.0191 14.7984 20.0146 14.227 19.6614 13.8738C19.2991 13.5115 18.7101 13.5178 18.352 13.8841C16.8344 15.4366 15.2697 16.9472 13.7352 18.4818C11.5873 20.6297 8.10487 20.6297 5.95699 18.4818C3.80911 16.3339 3.80911 12.8515 5.95699 10.7036L11.1424 5.51815C11.1697 5.49087 11.1972 5.46393 11.2249 5.43734L9.92836 4.14077Z" fill="#55585e"/>
<path d="M16.4095 10.622L17.6242 9.40728C19.0561 7.97535 19.0561 5.65375 17.6242 4.22183C16.1923 2.7899 13.8707 2.7899 12.4388 4.22183L11.2241 5.43653L9.9277 4.14017L11.1424 2.92546C13.2903 0.777581 16.7727 0.777581 18.9206 2.92546C21.0685 5.07335 21.0685 8.55576 18.9206 10.7036L17.7059 11.9183L16.4095 10.622Z" fill="#55585e"/>
<path d="M11.1425 15.8892L17.0198 10.0119L18.3162 11.3082L12.4389 17.1855C11.0069 18.6175 8.68533 18.6175 7.25341 17.1855C5.82149 15.7536 5.82149 13.432 7.25341 12.0001L12.0102 7.24311C12.3682 6.88511 12.9486 6.88511 13.3066 7.24309C13.6646 7.60107 13.6646 8.18146 13.3066 8.53944L8.54978 13.2965C7.83381 14.0124 7.83381 15.1732 8.54977 15.8892C9.26574 16.6051 10.4265 16.6051 11.1425 15.8892Z" fill="#55585e"/>
</g>
<defs>
<clipPath id="clip0_6682_31464">
<rect width="24" height="24" fill="white" transform="translate(0.439453)"/>
</clipPath>
</defs>
</svg>
