<svg width="16" height="17" viewBox="0 0 16 17" fill="none" xmlns="http://www.w3.org/2000/svg">
<path d="M11.6033 8.15851C12.742 8.15851 13.6651 7.23541 13.6651 6.09671C13.6651 4.95801 12.742 4.03491 11.6033 4.03491C10.4646 4.03491 9.5415 4.95801 9.5415 6.09671C9.5415 7.23541 10.4646 8.15851 11.6033 8.15851Z" fill="#5d42ff"/>
<path d="M5.72312 7.95186C7.24136 7.95186 8.47213 6.7211 8.47213 5.20286C8.47213 3.68463 7.24136 2.45386 5.72312 2.45386C4.20489 2.45386 2.97412 3.68463 2.97412 5.20286C2.97412 6.7211 4.20489 7.95186 5.72312 7.95186Z" fill="#5d42ff"/>
<path d="M12.2569 12.7581C12.2575 12.7459 12.2577 12.7336 12.2577 12.7213V12.3453C12.2577 10.8923 11.4831 9.62028 10.3242 8.9197C10.4977 8.89094 10.6758 8.87598 10.8574 8.87598H12.3489C14.1356 8.87598 15.584 10.3244 15.584 12.1111C15.584 12.4684 15.2943 12.7581 14.937 12.7581H12.2569Z" fill="#5d42ff"/>
<path d="M0.415527 13.2845C0.415527 13.7263 0.773699 14.0845 1.21553 14.0845H10.2309C10.6727 14.0845 11.0309 13.7263 11.0309 13.2845V12.9084C11.0309 10.6993 9.24 8.90845 7.03086 8.90845H4.41553C2.20639 8.90845 0.41553 10.6993 0.415528 12.9084L0.415527 13.2845Z" fill="#5d42ff"/>
</svg>
