<svg width="20" height="20" viewBox="0 0 20 20" fill="none" xmlns="http://www.w3.org/2000/svg">
<path d="M7.69277 12.6067C8.08005 12.6067 8.45411 12.7476 8.74515 13.0031L13.3827 17.0742L13.3827 16.156L14.978 17.4643L14.978 18.1311C14.978 19.0914 13.8463 19.6038 13.1247 18.9704L7.69277 14.2019H3.65212C3.03542 14.2019 2.53548 13.702 2.53548 13.0853V7.25936L4.13068 8.56771V12.6067H7.69277ZM14.9777 11.6724L13.3825 10.364L13.3822 2.92532L9.00031 6.76984L7.75017 5.74451L13.1243 1.02944C13.846 0.39627 14.9773 0.908721 14.9774 1.86879L14.9777 11.6724ZM1 3.97791L18.7486 18.8536L19.7773 17.6289L2.02864 2.75322L1 3.97791Z" fill="#55585e"/>
</svg>
