<svg width="40" height="41" viewBox="0 0 40 41" fill="none" xmlns="http://www.w3.org/2000/svg">
<g clip-path="url(#clip0_14891_22289)">
<rect y="0.913574" width="40" height="40" rx="20" fill="#5B8EF4"/>
<path d="M18.5746 13.3901C15.8242 14.5967 13.833 17.8688 14.8117 21.5022C15.5018 23.5118 16.8153 24.9611 18.8777 25.693C22.4843 26.9732 26.311 24.12 25.7632 20.458C25.5301 18.8999 24.5317 17.8735 23.1641 17.492C21.9935 17.2178 20.8124 17.4221 19.9624 18.2334C19.3721 18.7967 19.0301 19.6905 19.2138 20.6354C19.3886 21.2141 19.6672 21.574 20.3795 21.7459C20.7712 21.8403 21.2712 21.7459 21.4246 21.3922C21.5287 21.1524 21.4323 20.956 21.3614 20.7289C21.1688 20.1111 21.2938 19.7548 21.6309 19.4496C22.0831 19.0022 22.8512 18.9951 23.3387 19.3387C23.9658 19.6596 24.4651 20.6815 23.8776 22.252C23.2053 23.8676 21.4536 24.3544 19.8202 23.9311C17.4592 23.3192 16.1722 20.6354 16.7377 18.5019C17.6786 14.952 21.6352 13.8538 24.9255 15.4831C27.1458 16.7331 28.536 18.7501 28.4954 21.4899C28.3216 25.9958 23.7634 29.319 19.2043 28.4501C14.626 27.4908 11.8778 23.5257 11.8171 19.6413C11.7946 18.1973 12.0698 16.7397 12.8231 15.2032C14.6112 11.825 17.7175 10.2442 21.6722 10.0079C22.7098 9.9459 23.4621 10.0079 24.7743 10.1374C24.7215 10.114 24.601 10.0547 24.4755 10.0079C22.6033 9.3068 20.6683 9.08323 18.6855 9.36606C17.4105 9.54793 16.3649 9.91291 15.3332 10.3879C14.8888 10.544 14.8228 10.1666 14.4796 9.88041C14.3192 9.74697 14.3352 9.91652 14.3352 9.91652C14.4751 10.5823 14.1643 10.9181 14.117 10.951C13.9517 11.1124 13.5499 11.4111 13.2735 11.5321C12.7031 11.7816 12.4384 11.3708 11.9841 11.1394C11.6729 10.9811 11.7946 11.2432 11.7946 11.2432C12.18 12.0091 11.9101 12.7112 11.8479 12.8218C11.5826 13.2063 11.3607 13.4792 11.0029 13.8027C10.3745 14.3709 9.62798 13.8228 9.4057 13.7399C8.98654 13.5835 9.28998 13.9409 9.28998 13.9409C9.45702 14.1629 10.0592 15.4378 9.87229 15.8417C8.80715 18.0483 8.45875 20.5913 8.9292 23.1296C10.6792 31.8874 20.6336 34.9245 26.8282 30.692C30.1155 28.2634 31.237 24.4829 31.2744 22.1253C31.3117 19.7677 30.7185 18.0533 29.624 16.5231C27.0279 12.8936 22.3306 11.7424 18.5746 13.3901Z" fill="white"/>
</g>
<defs>
<clipPath id="clip0_14891_22289">
<rect y="0.913574" width="40" height="40" rx="20" fill="white"/>
</clipPath>
</defs>
</svg>
