<svg width="16" height="16" viewBox="0 0 16 16" fill="none" xmlns="http://www.w3.org/2000/svg">
<path d="M6.79993 6.67623L6.79993 3.84754L1.86396 8.00007L6.79993 12.1526L6.79993 9.32392L8.68565 9.32392C10.7767 9.32392 12.7855 10.0211 14.4109 11.2721C13.826 8.61865 11.4646 6.67623 8.68565 6.67623L6.79993 6.67623ZM15.9058 13.7777C15.9339 14.0616 15.5761 14.2088 15.3962 13.9875L15.0385 13.5473C14.975 13.4691 14.9102 13.3923 14.8441 13.3168C14.7746 13.2374 14.7036 13.1595 14.6314 13.0831C13.2091 11.5801 11.2677 10.6701 9.19993 10.5401C9.02929 10.5293 8.85779 10.5239 8.68565 10.5239L7.99993 10.5239L7.99993 13.5519C7.99993 14.0182 7.45503 14.2719 7.09821 13.9717L0.831559 8.69971C0.397293 8.33437 0.397292 7.66578 0.831558 7.30044L7.09821 2.02843C7.45503 1.72824 7.99993 1.98191 7.99993 2.44821L7.99993 5.47623L8.68565 5.47623C12.3177 5.47623 15.3578 8.23073 15.7149 11.8452L15.9058 13.7777Z" fill="#515A62"/>
</svg>
