<svg width="20" height="20" viewBox="0 0 20 20" fill="none" xmlns="http://www.w3.org/2000/svg">
<g id="Icon / Nav">
<path id="Union" opacity="0.7" d="M0.5 9.30447C0.5 13.8755 4.75329 17.5811 10 17.5811C11.11 17.5811 12.1755 17.4152 13.1657 17.1104L16.5354 18.9101C16.9337 19.1228 17.3928 18.7566 17.2794 18.3166L16.5103 15.3321C18.3508 13.8226 19.5 11.6805 19.5 9.30447C19.5 4.73341 15.2467 1.02783 10 1.02783C4.75329 1.02783 0.5 4.73341 0.5 9.30447Z" fill="#c0c3c7"/>
<path id="?" d="M10.3807 10.9777H9.1928C9.19636 10.6474 9.22476 10.3705 9.27803 10.1467C9.3313 9.91946 9.42008 9.71349 9.54437 9.52883C9.67221 9.34417 9.84089 9.14886 10.0504 8.94289C10.2138 8.78664 10.3611 8.63927 10.4925 8.50078C10.6239 8.35873 10.7287 8.20958 10.8068 8.05333C10.8849 7.89353 10.924 7.71065 10.924 7.50468C10.924 7.28096 10.8867 7.09098 10.8121 6.93473C10.7375 6.77848 10.6275 6.65951 10.4819 6.57784C10.3398 6.49616 10.1623 6.45532 9.9492 6.45532C9.77164 6.45532 9.60474 6.49083 9.44849 6.56186C9.29224 6.62933 9.16617 6.73586 9.07029 6.88146C8.97441 7.0235 8.92292 7.21171 8.91582 7.44609H7.63208C7.63918 6.99865 7.74572 6.62223 7.95168 6.31683C8.15765 6.01143 8.43464 5.78238 8.78265 5.62968C9.13066 5.47698 9.51951 5.40063 9.9492 5.40063C10.425 5.40063 10.8317 5.48231 11.169 5.64566C11.5064 5.80546 11.7638 6.03984 11.9414 6.34879C12.1225 6.65419 12.213 7.0235 12.213 7.45674C12.213 7.76924 12.1509 8.05333 12.0266 8.30902C11.9023 8.56115 11.7407 8.7973 11.5419 9.01747C11.343 9.23409 11.1282 9.45071 10.8974 9.66733C10.6985 9.84843 10.5635 10.0455 10.4925 10.2586C10.4215 10.4681 10.3842 10.7078 10.3807 10.9777ZM9.08627 12.6396C9.08627 12.4479 9.15197 12.2863 9.28336 12.1549C9.41475 12.02 9.59408 11.9525 9.82136 11.9525C10.0486 11.9525 10.228 12.02 10.3594 12.1549C10.4907 12.2863 10.5564 12.4479 10.5564 12.6396C10.5564 12.8314 10.4907 12.9947 10.3594 13.1297C10.228 13.2611 10.0486 13.3268 9.82136 13.3268C9.59408 13.3268 9.41475 13.2611 9.28336 13.1297C9.15197 12.9947 9.08627 12.8314 9.08627 12.6396Z" fill="#F7F8F9"/>
</g>
</svg>
